<?xml version="1.0" encoding="utf-8"?>
<!-- Generator: Adobe Illustrator 25.4.1, SVG Export Plug-In . SVG Version: 6.00 Build 0)  -->
<svg version="1.1" id="Layer_1" xmlns="http://www.w3.org/2000/svg" xmlns:xlink="http://www.w3.org/1999/xlink" x="0px" y="0px"
	 viewBox="0 0 1024 1024" style="enable-background:new 0 0 1024 1024;" xml:space="preserve">
<style type="text/css">
	.st0{opacity:0.1;fill:#FF6200;}
	.st1{opacity:0.1;fill:#008A35;}
	.st2{opacity:0.119;fill:#FF6200;}
	.st3{opacity:0.119;fill:#008A35;}
	.st4{opacity:0.1381;fill:#FF6200;}
	.st5{opacity:0.1381;fill:#008A35;}
	.st6{opacity:0.1571;fill:#FF6200;}
	.st7{opacity:0.1571;fill:#008A35;}
	.st8{opacity:0.1762;fill:#FF6200;}
	.st9{opacity:0.1762;fill:#008A35;}
	.st10{opacity:0.1952;fill:#FF6200;}
	.st11{opacity:0.1952;fill:#008A35;}
	.st12{opacity:0.2143;fill:#FF6200;}
	.st13{opacity:0.2143;fill:#008A35;}
	.st14{opacity:0.2333;fill:#FF6200;}
	.st15{opacity:0.2333;fill:#008A35;}
	.st16{opacity:0.2524;fill:#FF6200;}
	.st17{opacity:0.2524;fill:#008A35;}
	.st18{opacity:0.2714;fill:#FF6200;}
	.st19{opacity:0.2714;fill:#008A35;}
	.st20{opacity:0.2905;fill:#FF6200;}
	.st21{opacity:0.2905;fill:#008A35;}
	.st22{opacity:0.3095;fill:#FF6200;}
	.st23{opacity:0.3095;fill:#008A35;}
	.st24{opacity:0.3286;fill:#FF6200;}
	.st25{opacity:0.3286;fill:#008A35;}
	.st26{opacity:0.3476;fill:#FF6200;}
	.st27{opacity:0.3476;fill:#008A35;}
	.st28{opacity:0.3667;fill:#FF6200;}
	.st29{opacity:0.3667;fill:#008A35;}
	.st30{opacity:0.3857;fill:#FF6200;}
	.st31{opacity:0.3857;fill:#008A35;}
	.st32{opacity:0.4048;fill:#FF6200;}
	.st33{opacity:0.4048;fill:#008A35;}
	.st34{opacity:0.4238;fill:#FF6200;}
	.st35{opacity:0.4238;fill:#008A35;}
	.st36{opacity:0.4429;fill:#FF6200;}
	.st37{opacity:0.4429;fill:#008A35;}
	.st38{opacity:0.4619;fill:#FF6200;}
	.st39{opacity:0.4619;fill:#008A35;}
	.st40{opacity:0.481;fill:#FF6200;}
	.st41{opacity:0.481;fill:#008A35;}
	.st42{opacity:0.5;fill:#FF6200;}
	.st43{opacity:0.5;fill:#008A35;}
	.st44{opacity:0;fill:#FF6200;}
	.st45{opacity:0;fill:#008A35;}
	.st46{opacity:4.761905e-02;fill:#FF6500;}
	.st47{opacity:4.761905e-02;fill:#019038;}
	.st48{opacity:9.523810e-02;fill:#FF6700;}
	.st49{opacity:9.523810e-02;fill:#02953C;}
	.st50{opacity:0.1429;fill:#FF6A00;}
	.st51{opacity:0.1429;fill:#039B3F;}
	.st52{opacity:0.1905;fill:#FF6C00;}
	.st53{opacity:0.1905;fill:#03A043;}
	.st54{opacity:0.2381;fill:#FF6F00;}
	.st55{opacity:0.2381;fill:#04A646;}
	.st56{opacity:0.2857;fill:#FF7200;}
	.st57{opacity:0.2857;fill:#05AB4A;}
	.st58{opacity:0.3333;fill:#FF7400;}
	.st59{opacity:0.3333;fill:#06B14D;}
	.st60{opacity:0.381;fill:#FF7700;}
	.st61{opacity:0.381;fill:#07B750;}
	.st62{opacity:0.4286;fill:#FF7A00;}
	.st63{opacity:0.4286;fill:#08BC54;}
	.st64{opacity:0.4762;fill:#FF7C00;}
	.st65{opacity:0.4762;fill:#09C257;}
	.st66{opacity:0.5238;fill:#FF7F00;}
	.st67{opacity:0.5238;fill:#09C75B;}
	.st68{opacity:0.5714;fill:#FF8100;}
	.st69{opacity:0.5714;fill:#0ACD5E;}
	.st70{opacity:0.619;fill:#FF8400;}
	.st71{opacity:0.619;fill:#0BD262;}
	.st72{opacity:0.6667;fill:#FF8700;}
	.st73{opacity:0.6667;fill:#0CD865;}
	.st74{opacity:0.7143;fill:#FF8900;}
	.st75{opacity:0.7143;fill:#0DDE68;}
	.st76{opacity:0.7619;fill:#FF8C00;}
	.st77{opacity:0.7619;fill:#0EE36C;}
	.st78{opacity:0.8095;fill:#FF8F00;}
	.st79{opacity:0.8095;fill:#0FE96F;}
	.st80{opacity:0.8571;fill:#FF9100;}
	.st81{opacity:0.8571;fill:#0FEE73;}
	.st82{opacity:0.9048;fill:#FF9400;}
	.st83{opacity:0.9048;fill:#10F476;}
	.st84{opacity:0.9524;fill:#FF9600;}
	.st85{opacity:0.9524;fill:#11F97A;}
	.st86{fill:#FF9900;}
	.st87{fill:#12FF7D;}
	.st88{fill:#FFFFFF;}
	.st89{display:none;opacity:0.5;fill:url(#SVGID_1_);}
	.st90{display:none;opacity:0.5;fill:url(#SVGID_00000101814351843354800060000010015399281442245051_);}
</style>
<rect width="1024" height="1024"/>
<g>
	<g>
		<g>
			<path class="st0" d="M507.2,782.6c-23.7,0-42.9,19.2-42.9,42.9v134.9c0,23.7,19.2,42.9,42.9,42.9c23.7,0,42.9-19.2,42.9-42.9
				V825.5C550.2,801.8,530.9,782.6,507.2,782.6z"/>
			<path class="st1" d="M571.8,262.6l-64.6,31.3l-64.6-31.3c-1.7-0.8-3.4-1.5-5.1-2.1l69.6-114.4l69.6,114.4
				C575.1,261.1,573.4,261.8,571.8,262.6z M696.8,292.4L543.9,41.3c-7.8-12.8-21.7-20.6-36.7-20.6c-15,0-28.9,7.8-36.7,20.6
				L317.6,292.4c-8.8,14.5-8.3,32.9,1.4,46.8c9.7,13.9,26.7,20.9,43.4,17.6l55.6-10.8l70.4,34.1c5.9,2.9,12.3,4.3,18.7,4.3
				c6.4,0,12.8-1.4,18.7-4.3l70.4-34.1l55.6,10.8c16.7,3.2,33.7-3.7,43.4-17.6C705.1,325.3,705.7,306.9,696.8,292.4z"/>
			<path class="st1" d="M748.9,517.7l-60.9-142c-9.4-21.8-34.6-31.9-56.4-22.5c-21.8,9.4-31.9,34.6-22.5,56.4l29,67.5l-12.5-2.4
				c-9.1-1.7-18.5-0.5-26.9,3.5l-91.4,44.3l-91.4-44.3c-8.4-4-17.8-5.3-26.9-3.5l-12.5,2.4l29-67.5c9.4-21.8-0.7-47-22.5-56.4
				c-21.8-9.4-47,0.7-56.4,22.5l-60.9,142c-6.3,14.6-3.9,31.5,6,43.9c10,12.4,26,18.2,41.6,15.2l78-15.1l97.3,47.1
				c5.9,2.9,12.3,4.3,18.7,4.3c6.4,0,12.8-1.4,18.7-4.3l97.3-47.1l78,15.1c15.6,3,31.6-2.8,41.6-15.2
				C752.8,549.2,755.1,532.3,748.9,517.7z"/>
			<path class="st1" d="M814.2,744.3l-64.1-151c-9.2-21.8-34.5-32-56.3-22.8c-21.8,9.3-32,34.5-22.8,56.3l38.7,91.3H306.3l37.8-91.7
				c9-21.9-1.4-47-23.3-56.1c-22-9-47,1.4-56.1,23.3l-62.3,151c-5.5,13.3-4,28.4,4,40.3c8,11.9,21.4,19.1,35.7,19.1h532.6
				c14.4,0,27.8-7.2,35.8-19.2C818.5,772.8,819.9,757.6,814.2,744.3z"/>
		</g>
		<g>
			<path class="st2" d="M507.2,783.6c-23.1,0-41.9,18.8-41.9,41.9v134.9c0,23.1,18.8,41.9,41.9,41.9c23.2,0,41.9-18.8,41.9-41.9
				V825.5C549.1,802.3,530.4,783.6,507.2,783.6z"/>
			<path class="st3" d="M507.2,144.2l71.3,117.1c-1.6,0.6-3.1,1.5-4.6,2.3l-12.7,5.4c-0.2,0-7.6,3.5-7.8,3.6L507.2,295L461,272.6
				c-0.1-0.1-5.3-2.5-5.5-2.5c-0.1,0-2.3-1-2.3-1l-12.6-5.4c-1.6-0.8-3-1.7-4.6-2.3L507.2,144.2z M695.9,292.9L543,41.8
				c-7.6-12.5-21.2-20.1-35.8-20.1c-14.6,0-28.2,7.6-35.8,20.1L318.5,292.9c-8.6,14.2-8.1,32.1,1.4,45.7
				c9.5,13.6,26.1,20.4,42.4,17.2l55.9-10.8l70.7,34.3c5.8,2.8,12,4.2,18.3,4.2c6.3,0,12.5-1.4,18.3-4.2l70.7-34.3l55.9,10.8
				c16.3,3.1,32.9-3.6,42.4-17.2C704,325,704.6,307.1,695.9,292.9z"/>
			<path class="st3" d="M747.9,518.1l-60.9-142c-9.1-21.3-33.8-31.1-55.1-22c-21.3,9.1-31.1,33.8-22,55.1l29.7,69.3l-14.4-2.8
				c-8.9-1.7-18.1-0.5-26.2,3.4l-91.9,44.5l-91.9-44.5c-8.2-3.9-17.3-5.1-26.2-3.4l-14.4,2.8l29.7-69.3c9.1-21.3-0.7-45.9-22-55
				c-21.3-9.1-45.9,0.7-55.1,22l-60.9,142c-6.1,14.3-3.9,30.7,5.9,42.8c9.7,12.1,25.4,17.8,40.6,14.9l78.3-15.1l97.6,47.3
				c5.8,2.8,12,4.2,18.3,4.2c6.3,0,12.5-1.4,18.3-4.2l97.6-47.3l78.4,15.1c15.2,2.9,30.9-2.8,40.6-14.9
				C751.8,548.8,754.1,532.4,747.9,518.1z"/>
			<path class="st3" d="M813.3,744.7l-64.1-151c-9-21.3-33.6-31.3-55-22.2c-21.3,9-31.3,33.6-22.2,55l39.3,92.7H304.8l38.4-93.1
				c8.8-21.4-1.4-45.9-22.8-54.7c-21.4-8.8-45.9,1.4-54.7,22.8l-62.3,151c-5.3,12.9-3.9,27.7,3.9,39.3C215,796,228.1,803,242.1,803
				h532.6c14.1,0,27.2-7.1,35-18.8C817.4,772.5,818.8,757.7,813.3,744.7z"/>
		</g>
		<g>
			<path class="st4" d="M507.2,784.6c-22.6,0-40.9,18.3-40.9,40.9v134.9c0,22.6,18.3,40.9,40.9,40.9c22.6,0,40.9-18.3,40.9-40.9
				V825.5C548.1,802.9,529.8,784.6,507.2,784.6z"/>
			<path class="st5" d="M507.2,142.2l73,119.9c-1.6,0.5-2.7,1.8-4.2,2.5l-13.1,5c-0.4-0.1-7.7,3.3-8.1,3.5l-47.6,23.1l-47.7-23.1
				c-0.3-0.1-5.3-2.5-5.6-2.5c-0.1,0-2.3-1-2.4-0.9l-13.1-4.9c-1.5-0.7-2.6-2-4.2-2.5L507.2,142.2z M695.1,293.4L542.1,42.3
				c-7.4-12.2-20.7-19.6-34.9-19.6c-14.3,0-27.5,7.4-34.9,19.6L319.4,293.4c-8.4,13.8-7.9,31.3,1.3,44.6
				c9.2,13.3,25.5,19.9,41.3,16.8l56.3-10.9l71,34.4c5.6,2.7,11.7,4.1,17.8,4.1c6.1,0,12.2-1.4,17.8-4.1l71-34.4l56.3,10.9
				c15.9,3.1,32.1-3.5,41.3-16.8C703,324.8,703.5,307.3,695.1,293.4z"/>
			<path class="st5" d="M747,518.5l-60.9-142c-8.9-20.8-33-30.4-53.7-21.5c-20.7,8.9-30.4,33-21.4,53.7l30.5,71.1l-16.3-3.1
				c-8.7-1.7-17.6-0.5-25.6,3.3l-92.3,44.7l-92.3-44.7c-8-3.8-16.9-5-25.6-3.3l-16.3,3.1l30.5-71.1c8.9-20.8-0.7-44.8-21.4-53.7
				c-20.8-8.9-44.8,0.7-53.7,21.4l-60.9,142c-6,13.9-3.8,30,5.7,41.8c9.5,11.8,24.8,17.3,39.6,14.5l78.7-15.2l97.9,47.4
				c5.6,2.7,11.7,4.1,17.8,4.1c6.1,0,12.2-1.4,17.8-4.1l97.9-47.4l78.7,15.2c14.9,2.9,30.1-2.7,39.6-14.5
				C750.8,548.5,753,532.4,747,518.5z"/>
			<path class="st5" d="M812.4,745.1l-64.1-151c-8.8-20.8-32.8-30.5-53.6-21.7c-20.8,8.8-30.5,32.8-21.7,53.6l39.9,94.1H303.2
				l39-94.5c8.6-20.9-1.3-44.8-22.2-53.4c-20.9-8.6-44.8,1.3-53.4,22.2l-62.3,151c-5.2,12.6-3.8,27,3.8,38.4
				c7.6,11.3,20.3,18.2,34,18.2h532.6c13.7,0,26.5-6.9,34.1-18.3C816.4,772.2,817.7,757.7,812.4,745.1z"/>
		</g>
		<g>
			<path class="st6" d="M507.2,785.6c-22,0-39.9,17.9-39.9,39.9v134.9c0,22,17.9,39.9,39.9,39.9c22,0,39.9-17.9,39.9-39.9V825.5
				C547.1,803.5,529.2,785.6,507.2,785.6z"/>
			<path class="st7" d="M507.2,140.3l74.7,122.7c-1.5,0.5-2.3,2.1-3.7,2.8l-13.6,4.5c-0.7-0.1-7.8,3.1-8.4,3.4l-49,23.7l-49-23.8
				c-0.4-0.2-5.4-2.5-5.8-2.5c-0.2,0-2.3-0.9-2.5-0.9l-13.6-4.5c-1.4-0.7-2.3-2.3-3.7-2.8L507.2,140.3z M694.2,294L541.3,42.9
				C534,31,521.1,23.7,507.2,23.7c-13.9,0-26.8,7.2-34,19.1L320.2,294c-8.2,13.5-7.7,30.5,1.3,43.5c9,13,24.8,19.4,40.3,16.4
				l56.6-11l71.4,34.6c5.5,2.7,11.4,4,17.4,4c5.9,0,11.9-1.3,17.4-4l71.4-34.6l56.6,11c15.5,3,31.3-3.4,40.3-16.4
				C701.9,324.5,702.4,307.5,694.2,294z"/>
			<path class="st7" d="M746.1,518.9l-60.9-142c-8.7-20.2-32.1-29.6-52.4-20.9c-20.2,8.7-29.6,32.1-20.9,52.4l31.3,72.8l-18.2-3.5
				c-8.4-1.6-17.2-0.5-24.9,3.3l-92.7,44.9L414.5,481c-7.8-3.7-16.5-4.9-24.9-3.3l-18.2,3.5l31.3-72.8c8.7-20.2-0.7-43.7-20.9-52.4
				c-20.3-8.7-43.7,0.7-52.4,20.9l-60.9,142c-5.8,13.6-3.7,29.2,5.6,40.7c9.3,11.5,24.1,16.9,38.6,14.1l79-15.3l98.2,47.6
				c5.5,2.7,11.4,4,17.4,4c5.9,0,11.9-1.3,17.4-4l98.2-47.6l79,15.3c14.5,2.8,29.4-2.6,38.6-14.1
				C749.7,548.1,751.9,532.5,746.1,518.9z"/>
			<path class="st7" d="M811.4,745.5l-64.1-151c-8.6-20.3-32-29.7-52.3-21.1c-20.3,8.6-29.7,32-21.1,52.3l40.5,95.5H301.7l39.6-95.9
				c8.4-20.4-1.3-43.7-21.7-52.1c-20.4-8.4-43.7,1.3-52.1,21.6l-62.3,151c-5.1,12.3-3.7,26.3,3.7,37.4c7.4,11.1,19.8,17.7,33.1,17.7
				h532.6c13.4,0,25.9-6.7,33.2-17.9C815.3,771.9,816.6,757.8,811.4,745.5z"/>
		</g>
		<g>
			<path class="st8" d="M507.2,786.6c-21.5,0-38.9,17.4-38.9,38.9v134.9c0,21.5,17.4,38.9,38.9,38.9c21.5,0,38.9-17.4,38.9-38.9
				V825.5C546.1,804,528.7,786.6,507.2,786.6z"/>
			<path class="st9" d="M507.2,138.3l76.4,125.4c-1.4,0.5-2,2.4-3.3,3l-14.1,4c-0.9-0.2-7.9,2.9-8.7,3.3l-50.4,24.4L456.8,274
				c-0.6-0.3-5.4-2.5-6-2.5c-0.3,0-2.3-0.9-2.6-0.8l-14-4c-1.3-0.6-1.9-2.5-3.3-3L507.2,138.3z M693.3,294.5L540.4,43.4
				c-7-11.6-19.6-18.6-33.2-18.6c-13.6,0-26.1,7.1-33.2,18.6L321.1,294.5c-8,13.1-7.5,29.8,1.3,42.4c8.8,12.6,24.2,18.9,39.3,16
				l56.9-11l71.7,34.7c5.3,2.6,11.2,3.9,16.9,3.9c5.8,0,11.6-1.3,16.9-3.9l71.7-34.7l56.9,11c15.1,2.9,30.5-3.3,39.3-16
				C700.8,324.3,701.3,307.6,693.3,294.5z"/>
			<path class="st9" d="M745.1,519.3l-60.9-142c-8.5-19.7-31.3-28.8-51-20.4c-19.7,8.5-28.8,31.3-20.4,51l32,74.6l-20.1-3.9
				c-8.2-1.6-16.8-0.5-24.3,3.2L507.2,527L414,481.9c-7.6-3.6-16.1-4.7-24.3-3.2l-20,3.9l32-74.6c8.5-19.7-0.7-42.6-20.4-51
				c-19.7-8.5-42.6,0.7-51,20.4l-60.9,142c-5.7,13.2-3.6,28.5,5.4,39.7c9,11.2,23.5,16.5,37.6,13.8l79.3-15.3l98.5,47.7
				c5.3,2.6,11.1,3.9,16.9,3.9c5.8,0,11.6-1.3,16.9-3.9l98.5-47.7l79.4,15.3c14.1,2.7,28.6-2.6,37.6-13.8
				C748.7,547.8,750.8,532.5,745.1,519.3z"/>
			<path class="st9" d="M810.5,745.9l-64.1-151c-8.4-19.7-31.2-29-50.9-20.6c-19.7,8.4-29,31.2-20.6,50.9l41.1,97H300.2l40.2-97.3
				c8.2-19.8-1.3-42.6-21.1-50.7c-19.9-8.2-42.6,1.3-50.7,21.1l-62.3,151c-5,12-3.6,25.7,3.6,36.4c7.2,10.8,19.3,17.2,32.3,17.2
				h532.6c13,0,25.2-6.5,32.4-17.4C814.3,771.7,815.6,757.9,810.5,745.9z"/>
		</g>
		<g>
			<path class="st10" d="M507.2,787.7c-20.9,0-37.8,16.9-37.8,37.8v134.9c0,20.9,16.9,37.8,37.8,37.8c20.9,0,37.8-16.9,37.8-37.8
				V825.5C545.1,804.6,528.1,787.7,507.2,787.7z"/>
			<path class="st11" d="M507.2,136.3l78.1,128.2c-1.3,0.4-1.6,2.6-2.8,3.2l-14.5,3.5c-1.1-0.2-7.9,2.7-8.9,3.2l-51.8,25.1
				l-51.8-25.1c-0.7-0.3-5.5-2.5-6.2-2.5c-0.3,0-2.4-0.8-2.7-0.7l-14.5-3.5c-1.3-0.6-1.5-2.8-2.8-3.2L507.2,136.3z M692.4,295
				L539.5,43.9c-6.9-11.3-19.1-18.1-32.3-18.1c-13.2,0-25.4,6.9-32.3,18.1L322,295c-7.8,12.8-7.3,29,1.2,41.3
				c8.5,12.3,23.6,18.4,38.2,15.5l57.3-11.1l72,34.9c5.2,2.5,10.9,3.8,16.5,3.8c5.6,0,11.3-1.3,16.5-3.8l72-34.9l57.3,11.1
				c14.7,2.8,29.7-3.3,38.2-15.5C699.7,324,700.2,307.8,692.4,295z"/>
			<path class="st11" d="M744.2,519.7l-60.9-142c-8.2-19.2-30.5-28.1-49.7-19.8c-19.2,8.2-28.1,30.5-19.8,49.7l32.8,76.4l-22-4.2
				c-8-1.5-16.3-0.5-23.7,3.1l-93.6,45.4l-93.6-45.4c-7.4-3.5-15.7-4.6-23.7-3.1L368,484l32.8-76.4c8.2-19.2-0.6-41.4-19.8-49.7
				c-19.2-8.2-41.4,0.6-49.7,19.8l-60.9,142c-5.5,12.9-3.5,27.7,5.3,38.6c8.8,10.9,22.9,16,36.6,13.4l79.7-15.4l98.8,47.9
				c5.2,2.5,10.8,3.8,16.5,3.8c5.6,0,11.3-1.3,16.5-3.8l98.8-47.9l79.7,15.4c13.8,2.7,27.8-2.5,36.6-13.4
				C747.7,547.5,749.7,532.6,744.2,519.7z"/>
			<path class="st11" d="M809.5,746.3l-64.1-151c-8.1-19.2-30.4-28.2-49.6-20c-19.2,8.2-28.2,30.4-20,49.6l41.7,98.4H298.6
				l40.8-98.7c8-19.3-1.2-41.4-20.5-49.4c-19.3-8-41.4,1.2-49.4,20.5l-62.3,151c-4.8,11.7-3.5,25,3.5,35.5
				c7,10.5,18.8,16.8,31.4,16.8h532.6c12.7,0,24.5-6.4,31.5-17C813.3,771.4,814.5,758,809.5,746.3z"/>
		</g>
		<g>
			<path class="st12" d="M507.2,788.7c-20.3,0-36.8,16.5-36.8,36.8v134.9c0,20.3,16.5,36.8,36.8,36.8c20.3,0,36.8-16.5,36.8-36.8
				V825.5C544,805.2,527.5,788.7,507.2,788.7z"/>
			<path class="st13" d="M507.2,134.4l79.8,131c-1.2,0.4-1.2,2.9-2.4,3.5l-15,3c-1.3-0.3-8,2.5-9.2,3.1l-53.1,25.8L454,274.9
				c-0.8-0.4-5.5-2.4-6.4-2.4c-0.4,0-2.4-0.7-2.8-0.7l-15-3c-1.2-0.6-1.2-3.1-2.4-3.5L507.2,134.4z M691.6,295.6L538.7,44.5
				c-6.7-11-18.6-17.7-31.4-17.7c-12.8,0-24.8,6.7-31.4,17.7L322.9,295.6c-7.6,12.4-7.1,28.2,1.2,40.2c8.3,12,22.9,17.9,37.2,15.1
				l57.6-11.2l72.3,35c5.1,2.5,10.6,3.7,16,3.7c5.5,0,11-1.2,16.1-3.7l72.3-35l57.6,11.2c14.3,2.8,28.9-3.2,37.2-15.1
				C698.7,323.8,699.2,308,691.6,295.6z"/>
			<path class="st13" d="M743.2,520.1l-60.9-142c-8-18.7-29.7-27.3-48.3-19.3c-18.7,8-27.3,29.7-19.3,48.3l33.5,78.1l-23.9-4.6
				c-7.8-1.5-15.9-0.4-23,3l-94.1,45.6l-94.1-45.6c-7.2-3.5-15.2-4.5-23-3l-23.8,4.6l33.5-78.2c8-18.7-0.6-40.3-19.3-48.3
				c-18.7-8-40.3,0.6-48.3,19.3l-60.9,142c-5.4,12.5-3.4,27,5.2,37.6c8.5,10.6,22.3,15.6,35.6,13.1l80-15.4l99.1,48
				c5.1,2.5,10.6,3.7,16,3.7c5.5,0,11-1.2,16-3.7l99.1-48l80,15.4c13.4,2.6,27.1-2.4,35.6-13.1C746.6,547.1,748.6,532.6,743.2,520.1
				z"/>
			<path class="st13" d="M808.6,746.7l-64.1-151c-7.9-18.7-29.5-27.4-48.3-19.5c-18.7,7.9-27.4,29.5-19.5,48.3l42.3,99.8h-422
				l41.3-100.2c7.7-18.8-1.2-40.3-20-48.1c-18.8-7.8-40.3,1.2-48.1,20l-62.3,151c-4.7,11.4-3.4,24.3,3.4,34.5
				c6.8,10.2,18.3,16.3,30.6,16.3h532.6c12.3,0,23.9-6.2,30.7-16.5C812.2,771.1,813.4,758.1,808.6,746.7z"/>
		</g>
		<g>
			<path class="st14" d="M507.2,789.7c-19.8,0-35.8,16-35.8,35.8v134.9c0,19.8,16,35.8,35.8,35.8c19.8,0,35.8-16,35.8-35.8V825.5
				C543,805.7,527,789.7,507.2,789.7z"/>
			<path class="st15" d="M507.2,132.4l81.4,133.7c-1.2,0.4-0.9,3.2-2,3.7l-15.5,2.5c-1.5-0.3-8.1,2.3-9.5,3l-54.5,26.4l-54.6-26.4
				c-1-0.5-5.5-2.4-6.6-2.4c-0.5,0-2.4-0.7-2.9-0.6l-15.4-2.5c-1.1-0.5-0.8-3.3-2-3.7L507.2,132.4z M690.7,296.1L537.8,45
				c-6.5-10.7-18.1-17.2-30.6-17.2c-12.5,0-24.1,6.5-30.6,17.2L323.7,296.1c-7.4,12.1-6.9,27.4,1.2,39c8.1,11.6,22.3,17.4,36.2,14.7
				l57.9-11.2l72.6,35.2c4.9,2.4,10.3,3.6,15.6,3.6c5.3,0,10.7-1.2,15.6-3.6l72.6-35.2l57.9,11.2c13.9,2.7,28.1-3.1,36.2-14.7
				C697.6,323.5,698.1,308.2,690.7,296.1z"/>
			<path class="st15" d="M742.3,520.5l-60.9-142c-7.8-18.2-28.8-26.6-47-18.8c-18.2,7.8-26.6,28.8-18.8,47l34.3,79.9l-25.8-5
				c-7.6-1.4-15.4-0.4-22.4,2.9l-94.5,45.8l-94.5-45.8c-7-3.4-14.8-4.4-22.4-2.9l-25.7,5l34.3-79.9c7.8-18.2-0.6-39.2-18.8-47
				c-18.2-7.8-39.2,0.6-47,18.8l-60.9,142c-5.2,12.2-3.3,26.2,5,36.6c8.3,10.3,21.6,15.2,34.6,12.7l80.4-15.5l99.4,48.2
				c4.9,2.4,10.3,3.6,15.6,3.6c5.3,0,10.7-1.2,15.6-3.6l99.4-48.2l80.4,15.5c13,2.5,26.3-2.4,34.6-12.7
				C745.6,546.8,747.5,532.7,742.3,520.5z"/>
			<path class="st15" d="M807.7,747.1l-64.1-151c-7.7-18.2-28.7-26.7-46.9-19c-18.2,7.7-26.7,28.7-19,46.9l42.9,101.2H295.6
				l41.9-101.6c7.5-18.3-1.2-39.2-19.4-46.7c-18.3-7.5-39.2,1.2-46.7,19.4l-62.3,151c-4.6,11-3.3,23.6,3.3,33.6
				c6.6,9.9,17.8,15.9,29.7,15.9h532.6c12,0,23.2-6,29.8-16C811.2,770.8,812.3,758.2,807.7,747.1z"/>
		</g>
		<g>
			<path class="st16" d="M507.2,790.7c-19.2,0-34.8,15.6-34.8,34.8v134.9c0,19.2,15.6,34.8,34.8,34.8c19.2,0,34.8-15.6,34.8-34.8
				V825.5C542,806.3,526.4,790.7,507.2,790.7z"/>
			<path class="st17" d="M507.2,130.4l83.1,136.5c-1.1,0.4-0.5,3.5-1.5,4l-15.9,2c-1.7-0.3-8.2,2.2-9.8,2.9L507.2,303l-56-27.1
				c-1.1-0.5-5.6-2.4-6.8-2.4c-0.5,0-2.4-0.6-2.9-0.5l-15.9-2c-1-0.5-0.4-3.6-1.5-4L507.2,130.4z M689.8,296.6L536.9,45.5
				c-6.3-10.4-17.6-16.7-29.7-16.7c-12.1,0-23.4,6.3-29.7,16.7L324.6,296.6c-7.2,11.8-6.7,26.6,1.1,37.9
				c7.9,11.3,21.6,16.9,35.2,14.3l58.3-11.3l72.9,35.3c4.8,2.3,10,3.5,15.2,3.5c5.2,0,10.4-1.2,15.2-3.5l72.9-35.3l58.3,11.3
				c13.5,2.6,27.3-3,35.1-14.3C696.5,323.3,697,308.4,689.8,296.6z"/>
			<path class="st17" d="M741.4,520.9l-60.9-142c-7.6-17.6-28-25.8-45.7-18.2c-17.6,7.6-25.8,28-18.2,45.7l35.1,81.7l-27.7-5.3
				c-7.4-1.4-15-0.4-21.7,2.8l-95,46l-95-46c-6.8-3.3-14.4-4.2-21.7-2.8l-27.6,5.3l35.1-81.7c7.6-17.6-0.6-38.1-18.2-45.7
				c-17.7-7.6-38.1,0.6-45.7,18.2l-60.9,142c-5.1,11.8-3.2,25.5,4.9,35.5c8.1,10,21,14.7,33.7,12.3l80.7-15.6l99.7,48.3
				c4.8,2.3,10,3.5,15.1,3.5c5.2,0,10.4-1.2,15.2-3.5l99.7-48.3l80.7,15.6c12.7,2.4,25.6-2.3,33.7-12.3
				C744.6,546.4,746.4,532.7,741.4,520.9z"/>
			<path class="st17" d="M806.7,747.5l-64.1-151c-7.5-17.7-27.9-25.9-45.6-18.4c-17.7,7.5-25.9,27.9-18.4,45.6l43.5,102.6H294.1
				l42.5-103c7.3-17.7-1.1-38.1-18.9-45.4c-17.8-7.3-38.1,1.1-45.4,18.9l-62.3,151c-4.4,10.7-3.2,23,3.2,32.6
				c6.4,9.6,17.3,15.4,28.9,15.4h532.6c11.7,0,22.5-5.8,29-15.6C810.1,770.5,811.3,758.2,806.7,747.5z"/>
		</g>
		<g>
			<path class="st18" d="M507.2,791.8c-18.6,0-33.7,15.1-33.7,33.7v134.9c0,18.6,15.1,33.7,33.7,33.7c18.6,0,33.7-15.1,33.7-33.7
				V825.5C541,806.9,525.9,791.8,507.2,791.8z"/>
			<path class="st19" d="M507.2,128.5L592,267.7c-1,0.3-0.1,3.7-1.1,4.2l-16.4,1.6c-2-0.4-8.3,2-10.1,2.8l-57.3,27.8l-57.3-27.8
				c-1.3-0.6-5.6-2.4-7-2.4c-0.6,0-2.5-0.6-3-0.5l-16.4-1.6c-0.9-0.5-0.1-3.9-1.1-4.2L507.2,128.5z M689,297.2L536,46.1
				c-6.1-10.1-17-16.2-28.8-16.2c-11.8,0-22.7,6.1-28.8,16.2L325.5,297.2c-6.9,11.4-6.5,25.8,1.1,36.8c7.6,11,21,16.4,34.1,13.9
				l58.6-11.4l73.2,35.5c4.6,2.3,9.7,3.4,14.7,3.4c5,0,10.1-1.1,14.7-3.4l73.2-35.5l58.6,11.4c13.1,2.5,26.5-2.9,34.1-13.9
				C695.5,323,695.9,308.6,689,297.2z"/>
			<path class="st19" d="M740.4,521.3l-60.9-142c-7.4-17.1-27.2-25-44.3-17.7c-17.1,7.3-25,27.2-17.7,44.3l35.8,83.5l-29.6-5.7
				c-7.1-1.4-14.5-0.4-21.1,2.8l-95.4,46.2l-95.4-46.2c-6.6-3.2-14-4.1-21.1-2.8l-29.5,5.7L397,406c7.4-17.1-0.6-37-17.7-44.3
				c-17.1-7.3-37,0.6-44.3,17.7l-60.9,142c-4.9,11.5-3.1,24.7,4.7,34.5c7.8,9.7,20.4,14.3,32.7,12l81-15.6l100,48.5
				c4.6,2.3,9.7,3.4,14.7,3.4c5,0,10.1-1.1,14.7-3.4l100-48.5l81,15.6c12.3,2.4,24.8-2.2,32.7-12
				C743.5,546.1,745.3,532.8,740.4,521.3z"/>
			<path class="st19" d="M805.8,747.9l-64.1-151c-7.3-17.1-27.1-25.2-44.2-17.9c-17.1,7.3-25.2,27.1-17.9,44.2l44.1,104.1H292.5
				L335.6,623c7.1-17.2-1.1-36.9-18.3-44.1c-17.2-7.1-37,1.1-44.1,18.3l-62.3,151c-4.3,10.4-3.1,22.3,3.1,31.6
				c6.3,9.4,16.8,15,28,15h532.6c11.3,0,21.9-5.7,28.1-15.1C809.1,770.3,810.2,758.3,805.8,747.9z"/>
		</g>
		<g>
			<path class="st20" d="M507.2,792.8c-18.1,0-32.7,14.6-32.7,32.7v134.9c0,18.1,14.7,32.7,32.7,32.7c18.1,0,32.7-14.7,32.7-32.7
				V825.5C539.9,807.4,525.3,792.8,507.2,792.8z"/>
			<path class="st21" d="M507.2,126.5l86.5,142c-0.9,0.3,0.2,4-0.6,4.4l-16.8,1.1c-2.2-0.4-8.4,1.8-10.3,2.7l-58.7,28.4l-58.7-28.5
				c-1.4-0.7-5.7-2.4-7.2-2.4c-0.7,0-2.5-0.5-3.1-0.4l-16.8-1.1c-0.9-0.4,0.3-4.1-0.6-4.4L507.2,126.5z M688.1,297.7L535.2,46.6
				c-5.9-9.8-16.5-15.7-27.9-15.7c-11.4,0-22,5.9-27.9,15.7L326.4,297.7c-6.7,11.1-6.3,25.1,1.1,35.7c7.4,10.6,20.4,15.9,33.1,13.4
				l58.9-11.4L493,371c4.5,2.2,9.4,3.3,14.3,3.3c4.9,0,9.8-1.1,14.3-3.3l73.5-35.6l58.9,11.4c12.7,2.5,25.7-2.8,33.1-13.4
				C694.4,322.8,694.8,308.8,688.1,297.7z"/>
			<path class="st21" d="M739.5,521.7l-60.9-142c-7.1-16.6-26.4-24.3-43-17.2c-16.6,7.1-24.3,26.4-17.2,43l36.6,85.2l-31.5-6.1
				c-6.9-1.3-14.1-0.4-20.5,2.7l-95.9,46.4l-95.9-46.4c-6.4-3.1-13.5-4-20.5-2.7l-31.4,6.1l36.6-85.2c7.1-16.6-0.6-35.8-17.2-43
				c-16.6-7.1-35.8,0.6-43,17.2l-60.9,142c-4.8,11.1-3,24,4.6,33.4c7.6,9.4,19.8,13.9,31.7,11.6l81.4-15.7L493,599.7
				c4.5,2.2,9.4,3.3,14.3,3.3c4.9,0,9.8-1.1,14.3-3.3l100.3-48.6l81.4,15.7c11.9,2.3,24.1-2.2,31.7-11.6
				C742.5,545.7,744.3,532.9,739.5,521.7z"/>
			<path class="st21" d="M804.8,748.3l-64.1-151c-7.1-16.6-26.3-24.4-42.9-17.3c-16.6,7.1-24.4,26.3-17.3,42.9l44.8,105.5H291
				l43.7-105.8c6.9-16.7-1.1-35.8-17.8-42.7c-16.7-6.9-35.8,1.1-42.7,17.8l-62.3,151c-4.2,10.1-3,21.6,3.1,30.7
				c6.1,9.1,16.3,14.5,27.2,14.5h532.6c11,0,21.2-5.5,27.3-14.7C808,770,809.1,758.4,804.8,748.3z"/>
		</g>
		<g>
			<path class="st22" d="M507.2,793.8c-17.5,0-31.7,14.2-31.7,31.7v134.9c0,17.5,14.2,31.7,31.7,31.7c17.5,0,31.7-14.2,31.7-31.7
				V825.5C538.9,808,524.7,793.8,507.2,793.8z"/>
			<path class="st23" d="M507.2,124.5l88.2,144.8c-0.8,0.3,0.6,4.3-0.2,4.7l-17.3,0.6c-2.4-0.5-8.4,1.6-10.6,2.7l-60.1,29.1
				l-60.1-29.1c-1.5-0.7-5.7-2.3-7.4-2.3c-0.7,0-2.5-0.4-3.2-0.3l-17.3-0.6c-0.8-0.4,0.7-4.4-0.2-4.7L507.2,124.5z M687.2,298.2
				L534.3,47.1c-5.7-9.4-16-15.2-27.1-15.2c-11.1,0-21.3,5.8-27.1,15.2L327.2,298.2c-6.5,10.7-6.1,24.3,1,34.6
				c7.2,10.3,19.7,15.4,32.1,13l59.3-11.5l73.8,35.8c4.4,2.1,9.1,3.2,13.8,3.2c4.7,0,9.5-1.1,13.8-3.2l73.8-35.8l59.3,11.5
				c12.3,2.4,24.9-2.7,32-13C693.3,322.5,693.7,308.9,687.2,298.2z"/>
			<path class="st23" d="M738.5,522.1l-60.9-142c-6.9-16.1-25.6-23.5-41.6-16.6c-16.1,6.9-23.5,25.5-16.6,41.6l37.3,87l-33.4-6.4
				c-6.7-1.3-13.7-0.4-19.8,2.6L507.2,535l-96.3-46.7c-6.2-3-13.1-3.9-19.8-2.6l-33.3,6.4l37.4-87c6.9-16.1-0.5-34.7-16.6-41.6
				c-16.1-6.9-34.7,0.5-41.6,16.6l-60.9,142c-4.6,10.8-2.9,23.2,4.4,32.4c7.4,9.1,19.2,13.4,30.7,11.2l81.7-15.8l100.7,48.7
				c4.4,2.1,9.1,3.2,13.8,3.2c4.7,0,9.4-1.1,13.8-3.2L621.7,550l81.7,15.8c11.5,2.2,23.3-2.1,30.7-11.2
				C741.5,545.4,743.2,532.9,738.5,522.1z"/>
			<path class="st23" d="M803.9,748.7l-64.1-151c-6.8-16.1-25.4-23.6-41.6-16.8c-16.1,6.8-23.6,25.4-16.8,41.6l45.4,106.9H289.5
				l44.3-107.2c6.7-16.2-1-34.7-17.2-41.4c-16.2-6.7-34.7,1-41.4,17.2l-62.3,151c-4,9.8-2.9,20.9,3,29.7
				c5.9,8.8,15.8,14.1,26.3,14.1h532.6c10.6,0,20.6-5.3,26.4-14.2C807,769.7,808,758.5,803.9,748.7z"/>
		</g>
		<g>
			<path class="st24" d="M507.2,794.8c-16.9,0-30.7,13.7-30.7,30.7v134.9c0,16.9,13.7,30.7,30.7,30.7c16.9,0,30.7-13.7,30.7-30.7
				V825.5C537.9,808.6,524.2,794.8,507.2,794.8z"/>
			<path class="st25" d="M507.2,122.6l89.9,147.6c-0.7,0.2,1,4.6,0.3,4.9l-17.8,0.1c-2.6-0.5-8.5,1.4-10.9,2.6l-61.5,29.8
				l-61.5-29.8c-1.7-0.8-5.8-2.3-7.6-2.3c-0.8,0-2.5-0.4-3.3-0.2l-17.8-0.1c-0.7-0.3,1-4.7,0.3-4.9L507.2,122.6z M686.3,298.8
				L533.4,47.6c-5.6-9.1-15.5-14.7-26.2-14.7c-10.7,0-20.6,5.6-26.2,14.7L328.1,298.8c-6.3,10.4-5.9,23.5,1,33.5
				c6.9,10,19.1,14.9,31,12.6l59.6-11.5l74.1,35.9c4.2,2,8.8,3.1,13.4,3.1c4.6,0,9.2-1,13.4-3.1l74.1-35.9l59.6,11.5
				c11.9,2.3,24.1-2.6,31-12.6C692.3,322.3,692.7,309.1,686.3,298.8z"/>
			<path class="st25" d="M737.6,522.5l-60.9-142c-6.7-15.6-24.7-22.8-40.3-16.1c-15.6,6.7-22.8,24.7-16.1,40.3l38.1,88.8l-35.2-6.8
				c-6.5-1.2-13.2-0.4-19.2,2.5l-96.8,46.9l-96.8-46.9c-6-2.9-12.7-3.7-19.2-2.5l-35.2,6.8l38.1-88.8c6.7-15.6-0.5-33.6-16.1-40.3
				c-15.6-6.7-33.6,0.5-40.3,16.1l-60.9,142c-4.5,10.4-2.8,22.5,4.3,31.3c7.1,8.8,18.5,13,29.7,10.9l82-15.8l101,48.9
				c4.2,2,8.8,3.1,13.4,3.1c4.6,0,9.1-1,13.4-3.1l101-48.9l82.1,15.8c11.2,2.2,22.6-2,29.7-10.9C740.4,545,742.1,533,737.6,522.5z"
				/>
			<path class="st25" d="M802.9,749.1l-64.1-151c-6.6-15.6-24.6-22.9-40.2-16.2c-15.6,6.6-22.9,24.6-16.2,40.2l46,108.3H287.9
				l44.8-108.6c6.5-15.7-1-33.6-16.7-40.1c-15.7-6.5-33.6,1-40,16.6l-62.3,151c-3.9,9.5-2.8,20.3,2.9,28.8
				c5.7,8.5,15.3,13.6,25.5,13.6h532.6c10.3,0,19.9-5.2,25.6-13.7C806,769.4,807,758.6,802.9,749.1z"/>
		</g>
		<g>
			<path class="st26" d="M507.2,795.8c-16.4,0-29.6,13.3-29.6,29.6v134.9c0,16.4,13.3,29.6,29.6,29.6c16.4,0,29.6-13.3,29.6-29.6
				V825.5C536.9,809.1,523.6,795.8,507.2,795.8z"/>
			<path class="st27" d="M507.2,120.6l91.6,150.3c-0.7,0.2,1.4,4.8,0.7,5.1l-18.2-0.4c-2.8-0.5-8.6,1.2-11.2,2.5l-62.8,30.5
				l-62.9-30.5c-1.8-0.9-5.8-2.3-7.8-2.3c-0.8,0-2.5-0.3-3.4-0.2l-18.2,0.4c-0.6-0.3,1.4-4.9,0.7-5.1L507.2,120.6z M685.5,299.3
				L532.5,48.2c-5.4-8.8-15-14.2-25.3-14.2c-10.3,0-19.9,5.4-25.3,14.2L329,299.3c-6.1,10-5.7,22.7,1,32.3
				c6.7,9.6,18.5,14.4,30,12.2l59.9-11.6l74.4,36.1c4.1,2,8.5,3,12.9,3c4.4,0,8.8-1,12.9-3l74.4-36.1l59.9,11.6
				c11.5,2.2,23.3-2.5,30-12.2C691.2,322,691.6,309.3,685.5,299.3z"/>
			<path class="st27" d="M736.7,522.9l-60.9-142c-6.5-15.1-23.9-22-38.9-15.6c-15,6.5-22,23.9-15.5,38.9l38.9,90.6l-37.1-7.2
				c-6.3-1.2-12.8-0.4-18.5,2.4l-97.2,47.1L410,490.2c-5.8-2.8-12.3-3.6-18.5-2.4l-37.1,7.2l38.9-90.6c6.5-15-0.5-32.5-15.5-38.9
				c-15.1-6.5-32.5,0.5-38.9,15.5l-60.9,142c-4.3,10.1-2.7,21.7,4.2,30.3c6.9,8.5,17.9,12.6,28.7,10.5l82.4-15.9l101.3,49
				c4.1,2,8.5,3,12.9,3c4.4,0,8.8-1,12.9-3l101.3-49l82.4,15.9c10.8,2.1,21.8-2,28.7-10.5C739.4,544.7,741,533,736.7,522.9z"/>
			<path class="st27" d="M802,749.5l-64.1-151c-6.4-15.1-23.8-22.1-38.9-15.7c-15.1,6.4-22.1,23.8-15.7,38.9l46.6,109.8H286.4
				l45.4-110c6.2-15.1-1-32.5-16.1-38.7c-15.1-6.2-32.5,1-38.7,16.1l-62.3,151c-3.8,9.1-2.7,19.6,2.8,27.8
				c5.5,8.2,14.7,13.2,24.6,13.2h532.6c9.9,0,19.2-5,24.7-13.3C804.9,769.2,805.9,758.7,802,749.5z"/>
		</g>
		<g>
			<path class="st28" d="M507.2,796.9c-15.8,0-28.6,12.8-28.6,28.6v134.9c0,15.8,12.8,28.6,28.6,28.6c15.8,0,28.6-12.8,28.6-28.6
				V825.5C535.8,809.7,523,796.9,507.2,796.9z"/>
			<path class="st29" d="M507.2,118.6l93.2,153.1c-0.6,0.2,1.7,5.1,1.2,5.4l-18.7-0.9c-3-0.6-8.7,1-11.5,2.4l-64.2,31.1L443,278.6
				c-1.9-0.9-5.8-2.3-8-2.3c-0.9,0-2.6-0.3-3.5-0.1l-18.7,0.9c-0.6-0.3,1.7-5.2,1.2-5.4L507.2,118.6z M684.6,299.8L531.7,48.7
				c-5.2-8.5-14.5-13.7-24.4-13.7c-10,0-19.3,5.2-24.4,13.7L329.8,299.8c-5.9,9.7-5.5,21.9,0.9,31.2c6.5,9.3,17.8,13.9,29,11.8
				l60.3-11.7l74.7,36.2c3.9,1.9,8.2,2.9,12.5,2.9c4.3,0,8.5-1,12.5-2.9l74.7-36.2l60.3,11.7c11.1,2.2,22.5-2.5,28.9-11.8
				C690.1,321.8,690.5,309.5,684.6,299.8z"/>
			<path class="st29" d="M735.7,523.3l-60.9-142c-6.2-14.5-23.1-21.3-37.6-15c-14.5,6.2-21.3,23.1-15,37.6l39.6,92.3l-39-7.5
				c-6-1.1-12.3-0.3-17.9,2.3l-97.7,47.3l-97.7-47.3c-5.6-2.7-11.8-3.5-17.9-2.3l-39,7.5l39.6-92.3c6.2-14.5-0.5-31.4-15-37.6
				c-14.5-6.2-31.4,0.5-37.6,15l-60.9,142c-4.2,9.7-2.6,21,4,29.2c6.6,8.3,17.3,12.1,27.7,10.2l82.7-16L494.7,596
				c3.9,1.9,8.2,2.9,12.5,2.9c4.3,0,8.5-0.9,12.5-2.9l101.6-49.2l82.7,16c10.4,2,21.1-1.9,27.7-10.2
				C738.4,544.3,739.9,533.1,735.7,523.3z"/>
			<path class="st29" d="M801.1,749.9l-64.1-151c-6.2-14.5-23-21.3-37.5-15.2c-14.6,6.2-21.3,23-15.2,37.5l47.2,111.2H284.9
				l46-111.5c6-14.6-0.9-31.3-15.6-37.4c-14.6-6-31.4,0.9-37.4,15.5l-62.3,151c-3.6,8.8-2.6,18.9,2.7,26.8
				c5.3,7.9,14.2,12.7,23.8,12.7h532.6c9.6,0,18.6-4.8,23.9-12.8C803.9,768.9,804.8,758.7,801.1,749.9z"/>
		</g>
		<g>
			<path class="st30" d="M507.2,797.9c-15.2,0-27.6,12.4-27.6,27.6v134.9c0,15.2,12.4,27.6,27.6,27.6c15.2,0,27.6-12.4,27.6-27.6
				V825.5C534.8,810.3,522.5,797.9,507.2,797.9z"/>
			<path class="st31" d="M507.2,116.7l94.9,155.9c-0.5,0.2,2.1,5.4,1.6,5.6l-19.2-1.3c-3.3-0.6-8.8,0.9-11.8,2.3l-65.6,31.8
				l-65.6-31.8c-2.1-1-5.9-2.3-8.2-2.3c-1,0-2.6-0.2-3.6,0l-19.2,1.3c-0.5-0.2,2.1-5.5,1.6-5.6L507.2,116.7z M683.7,300.4
				L530.8,49.2c-5-8.2-13.9-13.2-23.6-13.2c-9.6,0-18.6,5-23.6,13.2L330.7,300.4c-5.7,9.3-5.3,21.1,0.9,30.1
				c6.2,9,17.2,13.4,27.9,11.3l60.6-11.7l75,36.4c3.8,1.8,7.9,2.8,12,2.8c4.1,0,8.2-0.9,12-2.8l75-36.4l60.6,11.7
				c10.7,2.1,21.7-2.4,27.9-11.3C689,321.5,689.4,309.7,683.7,300.4z"/>
			<path class="st31" d="M734.8,523.7l-60.9-142c-6-14-22.3-20.5-36.3-14.5c-14,6-20.5,22.2-14.5,36.3l40.4,94.1l-40.9-7.9
				c-5.8-1.1-11.9-0.3-17.3,2.3l-98.1,47.5L409.1,492c-5.4-2.6-11.4-3.4-17.3-2.3l-40.9,7.9l40.4-94.1c6-14-0.5-30.2-14.5-36.3
				c-14-6-30.2,0.5-36.3,14.5l-60.9,142c-4,9.4-2.5,20.2,3.9,28.2c6.4,8,16.7,11.7,26.7,9.8l83-16l101.9,49.3
				c3.8,1.8,7.9,2.8,12,2.8c4.1,0,8.2-0.9,12-2.8l101.9-49.3l83.1,16c10.1,1.9,20.3-1.8,26.7-9.8C737.3,544,738.8,533.1,734.8,523.7
				z"/>
			<path class="st31" d="M800.1,750.3l-64.1-151c-6-14-22.2-20.6-36.2-14.6c-14,5.9-20.6,22.2-14.6,36.2L733,733.5H283.4l46.6-112.9
				c5.8-14.1-0.9-30.2-15-36c-14.1-5.8-30.2,0.9-36,15l-62.3,151c-3.5,8.5-2.5,18.2,2.6,25.9c5.1,7.7,13.7,12.3,22.9,12.3h532.6
				c9.3,0,17.9-4.6,23-12.4C802.8,768.6,803.7,758.8,800.1,750.3z"/>
		</g>
		<g>
			<path class="st32" d="M507.2,798.9c-14.7,0-26.6,11.9-26.6,26.6v134.9c0,14.7,11.9,26.6,26.6,26.6c14.7,0,26.6-11.9,26.6-26.6
				V825.5C533.8,810.8,521.9,798.9,507.2,798.9z"/>
			<path class="st33" d="M507.2,114.7l96.6,158.6c-0.4,0.1,2.5,5.7,2.1,5.9l-19.6-1.8c-3.5-0.7-8.9,0.7-12,2.2l-67,32.5l-67-32.5
				c-2.2-1.1-5.9-2.2-8.4-2.2c-1,0-2.6-0.2-3.6,0l-19.6,1.8c-0.4-0.2,2.5-5.7,2.1-5.9L507.2,114.7z M682.8,300.9L529.9,49.8
				c-4.8-7.9-13.4-12.8-22.7-12.8c-9.3,0-17.9,4.8-22.7,12.8L331.6,300.9c-5.5,9-5.1,20.4,0.9,29c6,8.6,16.6,12.9,26.9,10.9
				l60.9-11.8l75.3,36.5c3.7,1.8,7.6,2.7,11.6,2.7c4,0,7.9-0.9,11.6-2.7l75.3-36.5l60.9,11.8c10.3,2,20.9-2.3,26.9-10.9
				C688,321.2,688.3,309.9,682.8,300.9z"/>
			<path class="st33" d="M733.8,524.2l-60.9-142c-5.8-13.5-21.4-19.7-34.9-13.9c-13.5,5.8-19.7,21.4-13.9,34.9l41.1,95.9l-42.8-8.3
				c-5.6-1.1-11.5-0.3-16.6,2.2l-98.6,47.7l-98.6-47.7c-5.2-2.5-11-3.2-16.6-2.2l-42.8,8.3l41.2-95.9c5.8-13.5-0.4-29.1-13.9-34.9
				c-13.5-5.8-29.1,0.5-34.9,13.9l-60.9,142c-3.9,9-2.4,19.5,3.7,27.2c6.2,7.7,16,11.3,25.7,9.4l83.4-16.1l102.2,49.5
				c3.7,1.8,7.6,2.7,11.6,2.7c4,0,7.9-0.9,11.6-2.7L621,544.7l83.4,16.1c9.7,1.9,19.6-1.8,25.7-9.4
				C736.3,543.6,737.7,533.2,733.8,524.2z"/>
			<path class="st33" d="M799.2,750.7l-64.1-151c-5.7-13.5-21.3-19.8-34.9-14.1c-13.5,5.7-19.8,21.3-14.1,34.9l48.4,114H281.8
				L329,620.2c5.6-13.6-0.9-29.1-14.4-34.7c-13.6-5.6-29.1,0.9-34.7,14.4l-62.3,151c-3.4,8.2-2.5,17.6,2.5,24.9
				c4.9,7.4,13.2,11.8,22.1,11.8h532.6c8.9,0,17.2-4.5,22.2-11.9C801.8,768.3,802.7,758.9,799.2,750.7z"/>
		</g>
		<g>
			<path class="st34" d="M507.2,799.9c-14.1,0-25.6,11.4-25.6,25.6v134.9c0,14.1,11.4,25.6,25.6,25.6c14.1,0,25.6-11.4,25.6-25.6
				V825.5C532.8,811.4,521.3,799.9,507.2,799.9z"/>
			<path class="st35" d="M507.2,112.7l98.3,161.4c-0.3,0.1,2.8,5.9,2.5,6.1l-20.1-2.3c-3.7-0.7-8.9,0.5-12.3,2.1l-68.4,33.1
				L438.8,280c-2.4-1.1-6-2.2-8.6-2.2c-1.1,0-2.6-0.1-3.7,0.1l-20.1,2.3c-0.3-0.2,2.8-6,2.5-6.1L507.2,112.7z M682,301.4L529.1,50.3
				c-4.6-7.6-12.9-12.3-21.8-12.3c-8.9,0-17.2,4.6-21.8,12.3L332.5,301.4c-5.3,8.6-4.9,19.6,0.8,27.9c5.8,8.3,15.9,12.4,25.9,10.5
				l61.3-11.9l75.6,36.7c3.5,1.7,7.3,2.6,11.1,2.6c3.8,0,7.6-0.9,11.1-2.6l75.6-36.7l61.3,11.9c9.9,1.9,20.1-2.2,25.8-10.5
				C686.9,321,687.2,310.1,682,301.4z"/>
			<path class="st35" d="M732.9,524.6l-60.9-142c-5.6-13-20.6-19-33.6-13.4c-13,5.6-19,20.6-13.4,33.6l41.9,97.7l-44.7-8.6
				c-5.4-1-11-0.3-16,2.1l-99,47.9l-99-47.9c-5-2.4-10.6-3.1-16-2.1l-44.7,8.6l41.9-97.7c5.6-13-0.4-28-13.4-33.6
				c-13-5.6-28,0.4-33.6,13.4l-60.9,142c-3.7,8.7-2.4,18.7,3.6,26.1c5.9,7.4,15.4,10.8,24.8,9.1l83.7-16.1l102.5,49.6
				c3.5,1.7,7.3,2.6,11.1,2.6c3.8,0,7.6-0.8,11.1-2.6l102.5-49.6l83.7,16.1c9.3,1.8,18.8-1.7,24.7-9.1
				C735.3,543.3,736.6,533.2,732.9,524.6z"/>
			<path class="st35" d="M798.2,751.1l-64.1-151c-5.5-13-20.5-19.1-33.5-13.5c-13,5.5-19.1,20.5-13.5,33.5l49,115.4H280.3
				l47.8-115.7c5.4-13-0.8-28-13.9-33.4c-13.1-5.4-28,0.8-33.4,13.9l-62.3,151c-3.3,7.9-2.4,16.9,2.4,24
				c4.7,7.1,12.7,11.3,21.2,11.3h532.6c8.6,0,16.6-4.3,21.3-11.4C800.8,768,801.6,759,798.2,751.1z"/>
		</g>
		<g>
			<path class="st36" d="M507.2,801c-13.5,0-24.5,11-24.5,24.5v134.9c0,13.5,11,24.5,24.5,24.5c13.6,0,24.5-11,24.5-24.5V825.5
				C531.8,811.9,520.8,801,507.2,801z"/>
			<path class="st37" d="M507.2,110.8l100,164.2c-0.2,0.1,3.2,6.2,3,6.3l-20.5-2.8c-3.9-0.8-9,0.3-12.6,2l-69.8,33.8l-69.8-33.8
				c-2.5-1.2-6-2.2-8.8-2.2c-1.2,0-2.7,0-3.8,0.2l-20.5,2.8c-0.2-0.1,3.2-6.3,3-6.3L507.2,110.8z M681.1,302L528.2,50.8
				c-4.5-7.3-12.4-11.8-21-11.8c-8.6,0-16.5,4.5-21,11.8L333.3,302c-5,8.3-4.7,18.8,0.8,26.8c5.6,8,15.3,11.9,24.8,10.1l61.6-11.9
				l75.9,36.8c3.4,1.6,7,2.5,10.7,2.5c3.7,0,7.3-0.8,10.7-2.5l75.9-36.8l61.6,11.9c9.5,1.9,19.3-2.1,24.8-10.1
				C685.8,320.7,686.2,310.3,681.1,302z"/>
			<path class="st37" d="M732,525L671,383c-5.3-12.5-19.8-18.2-32.2-12.9c-12.5,5.3-18.2,19.8-12.9,32.2l42.7,99.4l-46.6-9
				c-5.2-1-10.6-0.3-15.3,2L507.2,543l-99.4-48.2c-4.8-2.3-10.1-3-15.3-2l-46.6,9l42.7-99.4c5.4-12.5-0.4-26.9-12.9-32.2
				c-12.5-5.3-26.9,0.4-32.2,12.9l-60.9,142c-3.6,8.3-2.3,18,3.4,25.1c5.7,7.1,14.8,10.4,23.8,8.7l84-16.2l102.8,49.8
				c3.4,1.6,7,2.4,10.7,2.4c3.7,0,7.3-0.8,10.7-2.4l102.8-49.8l84.1,16.2c8.9,1.7,18.1-1.6,23.8-8.7
				C734.2,542.9,735.5,533.3,732,525z"/>
			<path class="st37" d="M797.3,751.5l-64.1-151c-5.3-12.5-19.7-18.3-32.2-13c-12.5,5.3-18.3,19.7-13,32.2l49.6,116.9H278.8
				l48.3-117.1c5.2-12.5-0.8-26.9-13.3-32c-12.5-5.2-26.9,0.8-32,13.3l-62.3,151c-3.1,7.6-2.3,16.2,2.3,23
				c4.6,6.8,12.2,10.9,20.4,10.9h532.6c8.2,0,15.9-4.1,20.5-11C799.7,767.8,800.5,759.1,797.3,751.5z"/>
		</g>
		<g>
			<path class="st38" d="M507.2,802c-13,0-23.5,10.5-23.5,23.5v134.9c0,13,10.5,23.5,23.5,23.5c13,0,23.5-10.5,23.5-23.5V825.5
				C530.7,812.5,520.2,802,507.2,802z"/>
			<path class="st39" d="M507.2,108.8l101.7,166.9c-0.2,0.1,3.6,6.5,3.4,6.6l-21-3.3c-4.1-0.8-9.1,0.1-12.9,1.9l-71.2,34.5L436,281
				c-2.6-1.3-6-2.2-9-2.2c-1.2,0-2.7,0-3.9,0.3l-21,3.3c-0.2-0.1,3.6-6.5,3.4-6.6L507.2,108.8z M680.2,302.5L527.3,51.4
				c-4.3-7-11.9-11.3-20.1-11.3c-8.2,0-15.8,4.3-20.1,11.3L334.2,302.5c-4.8,8-4.5,18,0.8,25.6c5.3,7.6,14.7,11.4,23.8,9.7l61.9-12
				l76.3,37c3.2,1.6,6.7,2.4,10.2,2.4c3.5,0,7-0.8,10.3-2.4l76.3-37l61.9,12c9.1,1.8,18.5-2,23.8-9.7
				C684.8,320.5,685.1,310.4,680.2,302.5z"/>
			<path class="st39" d="M731,525.4l-60.9-142c-5.1-11.9-19-17.5-30.9-12.3c-11.9,5.1-17.5,18.9-12.3,30.9l43.4,101.2l-48.5-9.4
				c-5-0.9-10.1-0.3-14.7,1.9l-99.9,48.4l-99.9-48.4c-4.6-2.2-9.7-2.9-14.7-1.9l-48.5,9.4l43.4-101.2c5.1-11.9-0.4-25.8-12.3-30.9
				c-11.9-5.1-25.8,0.4-30.9,12.3l-60.9,142c-3.4,8-2.2,17.2,3.3,24c5.5,6.8,14.2,10,22.8,8.3l84.4-16.3L497,591.4
				c3.2,1.6,6.7,2.3,10.2,2.3c3.5,0,7-0.8,10.2-2.3l103.1-49.9l84.4,16.3c8.6,1.7,17.3-1.6,22.8-8.3
				C733.2,542.6,734.5,533.4,731,525.4z"/>
			<path class="st39" d="M796.4,751.9l-64.1-151c-5.1-11.9-18.9-17.5-30.8-12.5c-12,5.1-17.5,18.9-12.5,30.8l50.2,118.3H277.2
				L326.2,619c4.9-12-0.8-25.7-12.8-30.7c-12-5-25.8,0.8-30.7,12.8l-62.3,151c-3,7.3-2.2,15.5,2.2,22c4.4,6.5,11.7,10.4,19.5,10.4
				h532.6c7.9,0,15.3-3.9,19.6-10.5C798.7,767.5,799.4,759.2,796.4,751.9z"/>
		</g>
		<g>
			<path class="st40" d="M507.2,803c-12.4,0-22.5,10.1-22.5,22.5v134.9c0,12.4,10.1,22.5,22.5,22.5c12.4,0,22.5-10.1,22.5-22.5
				V825.5C529.7,813.1,519.6,803,507.2,803z"/>
			<path class="st41" d="M507.2,106.8l103.3,169.7c-0.1,0,3.9,6.8,3.8,6.8l-21.5-3.8c-4.3-0.8-9.2-0.1-13.2,1.9l-72.6,35.2
				l-72.6-35.2c-2.8-1.3-6.1-2.2-9.2-2.2c-1.3,0-2.7,0.1-4,0.3l-21.5,3.8c-0.1,0,3.9-6.8,3.8-6.8L507.2,106.8z M679.3,303
				L526.4,51.9c-4.1-6.7-11.4-10.8-19.2-10.8c-7.8,0-15.1,4.1-19.2,10.8L335.1,303c-4.6,7.6-4.3,17.2,0.7,24.5
				c5.1,7.3,14,10.9,22.8,9.2l62.3-12.1l76.6,37.1c3.1,1.5,6.4,2.3,9.8,2.3c3.4,0,6.7-0.8,9.8-2.3l76.6-37.1l62.3,12.1
				c8.7,1.7,17.7-1.9,22.7-9.2C683.7,320.2,684,310.6,679.3,303z"/>
			<path class="st41" d="M730.1,525.8l-60.9-142c-4.9-11.4-18.1-16.7-29.5-11.8c-11.4,4.9-16.7,18.1-11.8,29.5l44.2,103l-50.4-9.7
				c-4.7-0.9-9.7-0.3-14.1,1.8l-100.3,48.6l-100.3-48.6c-4.4-2.1-9.3-2.7-14.1-1.8l-50.4,9.7l44.2-103c4.9-11.4-0.4-24.6-11.8-29.6
				c-11.4-4.9-24.6,0.4-29.5,11.8l-60.9,142c-3.3,7.6-2.1,16.5,3.1,23c5.2,6.5,13.6,9.5,21.8,8l84.7-16.3l103.4,50.1
				c3.1,1.5,6.4,2.2,9.8,2.2c3.4,0,6.7-0.7,9.8-2.2l103.4-50.1l84.7,16.3c8.2,1.6,16.6-1.5,21.8-8
				C732.2,542.3,733.4,533.4,730.1,525.8z"/>
			<path class="st41" d="M795.4,752.3l-64.1-151c-4.9-11.4-18.1-16.8-29.5-11.9c-11.4,4.8-16.8,18.1-11.9,29.5l50.8,119.7h-465
				l49.5-119.9c4.7-11.5-0.7-24.6-12.2-29.4c-11.5-4.7-24.6,0.7-29.4,12.2l-62.3,151c-2.9,6.9-2.1,14.9,2.1,21.1
				c4.2,6.2,11.2,10,18.7,10h532.6c7.5,0,14.6-3.8,18.7-10.1C797.6,767.2,798.4,759.2,795.4,752.3z"/>
		</g>
		<g>
			<path class="st42" d="M507.2,804c-11.9,0-21.5,9.6-21.5,21.5v134.9c0,11.9,9.6,21.5,21.5,21.5c11.9,0,21.5-9.6,21.5-21.5V825.5
				C528.7,813.6,519.1,804,507.2,804z"/>
			<path class="st43" d="M594.6,280.1c-4.6-0.9-9.3-0.3-13.4,1.8l-73.9,35.8l-73.9-35.8c-2.9-1.4-6.1-2.2-9.4-2.2
				c-1.4,0-2.7,0.1-4.1,0.4l-21.9,4.2l109.3-179.5l109.3,179.5L594.6,280.1z M678.5,303.5L525.6,52.4c-3.9-6.4-10.8-10.3-18.3-10.3
				c-7.5,0-14.4,3.9-18.3,10.3L336,303.5c-4.4,7.3-4.1,16.4,0.7,23.4c4.9,7,13.4,10.4,21.7,8.8l62.6-12.1l76.9,37.3
				c3,1.4,6.1,2.2,9.4,2.2s6.4-0.7,9.4-2.2l76.9-37.3l62.6,12.1c8.3,1.6,16.9-1.8,21.7-8.8C682.6,320,682.9,310.8,678.5,303.5z"/>
			<path class="st43" d="M729.1,526.2l-60.9-142c-4.7-10.9-17.3-15.9-28.2-11.3c-10.9,4.7-15.9,17.3-11.3,28.2l44.9,104.7
				l-52.3-10.1c-4.5-0.9-9.2-0.3-13.4,1.8l-100.8,48.8l-100.8-48.8c-4.2-2-8.9-2.6-13.4-1.8l-52.3,10.1l45-104.7
				c4.7-10.9-0.4-23.5-11.3-28.2c-10.9-4.7-23.5,0.4-28.2,11.3l-60.9,142c-3.1,7.3-2,15.7,3,21.9c5,6.2,12.9,9.1,20.8,7.6l85-16.4
				l103.7,50.2c3,1.4,6.1,2.1,9.4,2.1s6.4-0.7,9.4-2.1l103.7-50.2l85.1,16.4c7.8,1.5,15.8-1.4,20.8-7.6
				C731.1,541.9,732.3,533.5,729.1,526.2z"/>
			<path class="st43" d="M794.5,752.7l-64-151c-4.6-10.9-17.2-16-28.2-11.4c-10.9,4.6-16,17.2-11.4,28.2l51.4,121.1H274.2
				l50.1-121.4c4.5-11-0.7-23.5-11.7-28c-11-4.5-23.5,0.7-28,11.7l-62.3,151c-2.7,6.6-2,14.2,2,20.1c4,6,10.7,9.5,17.8,9.5h532.6
				c7.2,0,13.9-3.6,17.9-9.6C796.6,766.9,797.3,759.3,794.5,752.7z"/>
		</g>
	</g>
	<g>
		<g>
			<path class="st44" d="M507.2,804c-11.9,0-21.5,9.6-21.5,21.5v134.9c0,11.9,9.6,21.5,21.5,21.5c11.9,0,21.5-9.6,21.5-21.5V825.5
				C528.7,813.6,519.1,804,507.2,804z"/>
			<path class="st45" d="M507.2,104.9l109.3,179.5l-21.9-4.2c-4.6-0.9-9.3-0.3-13.4,1.8l-73.9,35.8l-73.9-35.8
				c-2.9-1.4-6.1-2.2-9.4-2.2c-1.4,0-2.7,0.1-4.1,0.4l-21.9,4.2L507.2,104.9z M358.4,335.8l62.6-12.1l76.9,37.3
				c3,1.4,6.1,2.2,9.4,2.2s6.4-0.7,9.4-2.2l76.9-37.3l62.6,12.1c8.3,1.6,16.9-1.8,21.7-8.8c4.9-7,5.1-16.1,0.7-23.4L525.6,52.4
				c-3.9-6.4-10.8-10.3-18.3-10.3c-7.5,0-14.4,3.9-18.3,10.3L336,303.5c-4.4,7.3-4.1,16.4,0.7,23.4
				C341.5,333.9,350,337.4,358.4,335.8z"/>
			<path class="st45" d="M309.1,555.7l85-16.4l103.7,50.2c3,1.4,6.1,2.1,9.4,2.1s6.4-0.7,9.4-2.1l103.7-50.2l85.1,16.4
				c7.8,1.5,15.8-1.4,20.8-7.6c5-6.2,6.1-14.6,3-21.9l-60.9-142c-4.7-10.9-17.3-15.9-28.2-11.3c-10.9,4.7-15.9,17.3-11.3,28.2
				l44.9,104.7l-52.3-10.1c-4.5-0.9-9.2-0.3-13.4,1.8l-100.8,48.8l-100.8-48.8c-4.2-2-8.9-2.6-13.4-1.8l-52.3,10.1l45-104.7
				c4.7-10.9-0.4-23.5-11.3-28.2c-10.9-4.7-23.5,0.4-28.2,11.3l-60.9,142c-3.1,7.3-2,15.7,3,21.9
				C293.3,554.3,301.3,557.2,309.1,555.7z"/>
			<path class="st45" d="M794.5,752.7l-64-151c-4.6-10.9-17.2-16-28.2-11.4c-10.9,4.6-16,17.2-11.4,28.2l51.4,121.1H274.2
				l50.1-121.4c4.5-11-0.7-23.5-11.7-28c-11-4.5-23.5,0.7-28,11.7l-62.3,151c-2.7,6.6-2,14.2,2,20.1c4,6,10.7,9.5,17.8,9.5h532.6
				c7.2,0,13.9-3.6,17.9-9.6C796.6,766.9,797.3,759.3,794.5,752.7z"/>
		</g>
		<g>
			<path class="st46" d="M507.2,804.5c-11.6,0-21,9.4-21,21v134.9c0,11.6,9.4,21,21,21c11.6,0,21-9.4,21-21V825.5
				C528.2,813.9,518.8,804.5,507.2,804.5z"/>
			<path class="st47" d="M507.2,103.9l110.4,181.2l-23.1-4.5c-4.5-0.9-9.1-0.3-13.1,1.7l-74.2,35.9l-74.2-35.9
				c-2.9-1.4-6-2.1-9.1-2.1c-1.3,0-2.7,0.1-4,0.4l-23.1,4.5L507.2,103.9z M506.8,42.9c-7.1,0-14.2,4.5-17.9,10.6l-152,249.6
				c-3.6,5.9-4.4,13.9-1.5,20.1c0.5,1.1,1,2.1,1.7,3.1c1.9,3,4.6,5.4,7.6,7c4.1,2.2,8.9,3,13.7,2.1l62.8-12.2l77,37.3
				c1.5,0.7,3.1,1.3,4.7,1.6c1.5,0.3,3.1,0.5,4.7,0.4c3.1,0,6.5-0.9,9.3-2.2l72.7-35.2l4.2-1.9l62.6,12.1c4.5,0.9,9,0.2,12.9-1.7
				c3.4-1.7,6.3-4.2,8.3-7.5c4.6-6.6,4.3-16.3,0.1-23.2L525.1,52.7C521.2,46.3,514.1,42.6,506.8,42.9z"/>
			<path class="st47" d="M309,555.2l85.2-16.4l103.9,50.3c2.9,1.4,6,2.1,9.1,2.1s6.3-0.7,9.1-2.1l103.9-50.3l85.2,16.4
				c7.6,1.5,15.4-1.4,20.3-7.4c4.9-6,6-14.3,2.9-21.4l-60.9-142c-4.6-10.6-16.9-15.6-27.5-11c-10.6,4.6-15.6,16.9-11,27.5
				l45.3,105.6l-53.2-10.3c-4.4-0.8-9-0.2-13.1,1.7l-101,48.9l-101-48.9c-4.1-2-8.7-2.5-13.1-1.7l-53.2,10.3l45.3-105.6
				c4.6-10.6-0.4-23-11-27.5c-10.6-4.6-23,0.4-27.5,11l-60.9,142c-3.1,7.1-1.9,15.4,2.9,21.4C293.6,553.8,301.4,556.7,309,555.2z"/>
			<path class="st47" d="M794,752.9l-64-151c-4.5-10.6-16.8-15.6-27.5-11.1c-10.7,4.5-15.6,16.8-11.1,27.5l51.7,121.8H273.4
				l50.4-122.1c4.4-10.7-0.7-22.9-11.4-27.4c-10.7-4.4-22.9,0.7-27.4,11.4l-62.3,151c-2.7,6.5-1.9,13.8,1.9,19.6
				c3.9,5.8,10.4,9.3,17.4,9.3h532.6c7,0,13.6-3.5,17.5-9.4C796.1,766.8,796.8,759.4,794,752.9z"/>
		</g>
		<g>
			<path class="st48" d="M507.2,805.1c-11.3,0-20.4,9.2-20.4,20.4v134.9c0,11.3,9.2,20.4,20.4,20.4c11.3,0,20.4-9.2,20.4-20.4V825.5
				C527.7,814.2,518.5,805.1,507.2,805.1z"/>
			<path class="st49" d="M507.2,102.9l111.4,182.9l-24.2-4.7c-4.3-0.8-8.8-0.3-12.8,1.7l-74.4,36l-74.4-36c-2.8-1.3-5.8-2.1-8.9-2.1
				c-1.3,0-2.6,0.1-3.9,0.4l-24.2,4.7L507.2,102.9z M506.3,43.6c-6.8,0-14,5.1-17.5,10.9L337.7,302.6c-3.4,5.6-4.6,14-1.9,19.8
				c0.4,1.1,0.9,2.1,1.5,3.1c1.8,3,4.3,5.4,7.3,7.1c4,2.3,8.8,3.1,13.5,2.2l63-12.2l77.2,37.4c1.5,0.7,3.1,1.3,4.7,1.6
				c1.5,0.3,3.1,0.4,4.7,0.4c2.9,0,6.6-1,9.3-2.3l72.6-35.2l4.2-1.7l62.5,12.1c4.4,0.9,9,0.2,12.8-1.8c3.3-1.7,6.1-4.4,7.9-7.7
				c4.4-6.3,3.5-16.5-0.5-23L524.7,53C520.8,46.6,513.5,43,506.3,43.6z"/>
			<path class="st49" d="M308.9,554.7l85.4-16.5l104,50.4c2.8,1.4,5.9,2,8.9,2s6.1-0.7,8.9-2l104-50.4l85.4,16.5
				c7.5,1.5,15.1-1.4,19.8-7.3c4.7-5.9,5.9-13.9,2.9-20.9l-60.9-142c-4.5-10.4-16.5-15.2-26.9-10.7c-10.4,4.4-15.2,16.5-10.7,26.9
				l45.7,106.5l-54.2-10.5c-4.3-0.8-8.8-0.2-12.8,1.7l-101.2,49l-101.2-49c-4-1.9-8.4-2.5-12.8-1.7l-54.1,10.5l45.7-106.5
				c4.5-10.4-0.3-22.4-10.7-26.9c-10.4-4.4-22.4,0.4-26.9,10.7l-60.9,142c-3,6.9-1.9,15,2.9,20.9
				C293.9,553.3,301.5,556.1,308.9,554.7z"/>
			<path class="st49" d="M793.5,753.1l-64-151c-4.4-10.4-16.4-15.2-26.8-10.8c-10.4,4.4-15.2,16.4-10.8,26.8l52,122.6H272.7
				l50.7-122.8c4.3-10.4-0.7-22.4-11.1-26.7c-10.4-4.3-22.4,0.7-26.7,11.1l-62.3,151c-2.6,6.3-1.9,13.5,1.9,19.2
				c3.8,5.7,10.2,9.1,17,9.1h532.6c6.9,0,13.3-3.4,17-9.2C795.5,766.7,796.2,759.4,793.5,753.1z"/>
		</g>
		<g>
			<path class="st50" d="M507.2,805.6c-11,0-19.9,8.9-19.9,19.9v134.9c0,11,8.9,19.9,19.9,19.9c11,0,19.9-8.9,19.9-19.9V825.5
				C527.2,814.5,518.2,805.6,507.2,805.6z"/>
			<path class="st51" d="M507.2,101.9l112.4,184.6l-25.3-4.9c-4.2-0.8-8.6-0.2-12.5,1.6l-74.6,36.1l-74.6-36.1c-2.7-1.3-5.7-2-8.7-2
				c-1.3,0-2.5,0.1-3.8,0.4l-25.3,4.9L507.2,101.9z M505.9,44.4c-6.4,0-13.8,5.7-17.1,11.2L338.6,302.1c-3.2,5.3-4.9,14.1-2.3,19.6
				c0.4,1.1,0.8,2.1,1.4,3.1c1.7,3,4.1,5.4,7,7.2c3.9,2.3,8.7,3.2,13.4,2.3l63.1-12.2l77.3,37.5c1.5,0.7,3.1,1.2,4.7,1.6
				c1.6,0.3,3.1,0.4,4.7,0.3c2.7,0,6.7-1.2,9.2-2.4l72.5-35.2l4.2-1.6l62.5,12.1c4.4,0.9,8.9,0.1,12.7-2c3.3-1.8,5.9-4.6,7.5-7.9
				c4.2-6,2.7-16.6-1.1-22.9L524.2,53.2C520.4,46.8,512.9,43.5,505.9,44.4z"/>
			<path class="st51" d="M308.8,554.2l85.5-16.5l104.2,50.4c2.7,1.3,5.7,2,8.7,2s5.9-0.7,8.7-2l104.2-50.4l85.6,16.5
				c7.3,1.4,14.7-1.3,19.3-7.1c4.6-5.8,5.7-13.6,2.8-20.4l-60.9-142c-4.3-10.1-16.1-14.8-26.2-10.5c-10.1,4.3-14.8,16.1-10.5,26.2
				l46.1,107.4l-55.1-10.6c-4.2-0.8-8.6-0.2-12.5,1.6l-101.4,49.1l-101.4-49.1c-3.9-1.9-8.2-2.4-12.5-1.6l-55.1,10.6l46.1-107.4
				c4.4-10.1-0.3-21.8-10.5-26.2c-10.1-4.3-21.8,0.3-26.2,10.5l-60.9,142c-2.9,6.8-1.8,14.6,2.8,20.4
				C294.2,552.9,301.5,555.6,308.8,554.2z"/>
			<path class="st51" d="M793.1,753.3l-64-151c-4.3-10.1-16-14.9-26.2-10.6c-10.1,4.3-14.9,16-10.6,26.1l52.3,123.3H271.9l51-123.5
				c4.2-10.2-0.6-21.8-10.8-26c-10.2-4.2-21.8,0.7-26,10.8l-62.3,151c-2.5,6.1-1.8,13.2,1.9,18.7c3.7,5.5,9.9,8.8,16.6,8.8h532.6
				c6.7,0,12.9-3.3,16.6-8.9C795,766.5,795.7,759.5,793.1,753.3z"/>
		</g>
		<g>
			<path class="st52" d="M507.2,806.1c-10.7,0-19.4,8.7-19.4,19.4v134.9c0,10.7,8.7,19.4,19.4,19.4c10.7,0,19.4-8.7,19.4-19.4V825.5
				C526.6,814.8,517.9,806.1,507.2,806.1z"/>
			<path class="st53" d="M507.2,100.9l113.5,186.3l-26.5-5.1c-4.1-0.8-8.4-0.2-12.2,1.6L507.2,320l-74.8-36.3
				c-2.6-1.3-5.5-1.9-8.5-1.9c-1.2,0-2.5,0.1-3.7,0.4l-26.5,5.1L507.2,100.9z M505.5,45.2c-6.1,0-13.6,6.3-16.7,11.5l-149.2,245
				c-3.1,5-5.2,14.2-2.7,19.4c0.3,1.1,0.7,2.1,1.2,3.1c1.5,3,3.9,5.5,6.7,7.2c3.8,2.4,8.6,3.3,13.2,2.4l63.3-12.3l77.5,37.5
				c1.5,0.7,3.1,1.2,4.7,1.5c1.6,0.3,3.1,0.4,4.7,0.2c2.6,0,6.8-1.4,9.2-2.5l72.5-35.1l4.2-1.5l62.4,12.1c4.4,0.9,8.9,0.1,12.6-2.1
				c3.3-1.9,5.7-4.8,7.1-8.1c3.9-5.6,1.9-16.8-1.7-22.7L523.8,53.5C519.9,47.1,512.3,43.9,505.5,45.2z"/>
			<path class="st53" d="M308.7,553.7l85.7-16.5l104.3,50.5c2.7,1.3,5.6,1.9,8.5,1.9s5.8-0.6,8.5-1.9L620,537.2l85.7,16.5
				c7.1,1.4,14.3-1.3,18.8-6.9c4.5-5.6,5.6-13.2,2.7-19.8l-60.9-142c-4.2-9.9-15.7-14.4-25.5-10.2c-9.9,4.2-14.4,15.7-10.2,25.5
				l46.5,108.3L621,497.8c-4.1-0.8-8.4-0.2-12.1,1.6l-101.7,49.2l-101.7-49.2c-3.8-1.8-8-2.4-12.1-1.6l-56,10.8l46.5-108.3
				c4.2-9.9-0.3-21.3-10.2-25.5c-9.9-4.2-21.3,0.3-25.5,10.2l-60.9,142c-2.8,6.6-1.8,14.2,2.7,19.8
				C294.4,552.4,301.6,555.1,308.7,553.7z"/>
			<path class="st53" d="M792.6,753.5l-64-151c-4.2-9.9-15.6-14.5-25.5-10.3c-9.9,4.2-14.5,15.6-10.3,25.5l52.6,124H271.1
				l51.3-124.2c4.1-9.9-0.6-21.3-10.6-25.4c-9.9-4.1-21.3,0.6-25.4,10.5l-62.3,151c-2.5,6-1.8,12.8,1.8,18.2
				c3.6,5.4,9.7,8.6,16.1,8.6h532.6c6.5,0,12.6-3.3,16.2-8.7C794.5,766.4,795.1,759.5,792.6,753.5z"/>
		</g>
		<g>
			<path class="st54" d="M507.2,806.6c-10.4,0-18.9,8.5-18.9,18.9v134.9c0,10.4,8.5,18.9,18.9,18.9c10.4,0,18.9-8.5,18.9-18.9V825.5
				C526.1,815,517.7,806.6,507.2,806.6z"/>
			<path class="st55" d="M507.2,100l114.5,188l-27.6-5.3c-4-0.8-8.2-0.2-11.8,1.6l-75.1,36.4l-75.1-36.4c-2.6-1.2-5.4-1.9-8.2-1.9
				c-1.2,0-2.4,0.1-3.6,0.3l-27.6,5.3L507.2,100z M505,45.9c-5.7,0-13.4,6.9-16.3,11.7L340.4,301.1c-2.9,4.7-5.4,14.3-3.1,19.2
				c0.3,1,0.6,2.1,1.1,3.1c1.4,3,3.6,5.5,6.4,7.3c3.8,2.4,8.5,3.4,13.1,2.5l63.5-12.3l77.6,37.6c1.5,0.7,3.1,1.2,4.7,1.5
				c1.6,0.3,3.1,0.3,4.7,0.1c2.4,0,6.9-1.5,9.2-2.6l72.4-35.1l4.2-1.3l62.4,12.1c4.4,0.9,8.9,0,12.5-2.2c3.2-2,5.5-5,6.7-8.3
				c3.7-5.3,1.1-17-2.3-22.5L523.4,53.8C519.5,47.4,511.7,44.4,505,45.9z"/>
			<path class="st55" d="M308.6,553.2l85.9-16.6L499,587.2c2.6,1.3,5.4,1.9,8.2,1.9s5.6-0.6,8.2-1.9l104.5-50.6l85.9,16.6
				c6.9,1.3,13.9-1.3,18.3-6.7c4.4-5.5,5.4-12.9,2.6-19.3l-60.9-142c-4.1-9.6-15.3-14.1-24.8-9.9c-9.6,4.1-14,15.2-9.9,24.8
				L678,509.3l-57-11c-4-0.8-8.1-0.2-11.8,1.6l-101.9,49.3l-101.9-49.3c-3.7-1.8-7.8-2.3-11.8-1.6l-57,11l46.9-109.2
				c4.1-9.6-0.3-20.7-9.9-24.8c-9.6-4.1-20.7,0.3-24.8,9.9l-60.9,142c-2.8,6.4-1.7,13.9,2.6,19.3
				C294.7,551.9,301.7,554.5,308.6,553.2z"/>
			<path class="st55" d="M792.1,753.7l-64-151c-4.1-9.6-15.2-14.1-24.8-10c-9.6,4.1-14.1,15.2-10,24.8l52.9,124.7H270.4l51.5-124.9
				c4-9.7-0.6-20.7-10.3-24.7c-9.7-4-20.7,0.6-24.7,10.3l-62.3,151c-2.4,5.8-1.7,12.5,1.8,17.7c3.5,5.2,9.4,8.4,15.7,8.4h532.6
				c6.3,0,12.3-3.2,15.8-8.5C794,766.2,794.6,759.5,792.1,753.7z"/>
		</g>
		<g>
			<path class="st56" d="M507.2,807.1c-10.2,0-18.4,8.2-18.4,18.4v134.9c0,10.2,8.2,18.4,18.4,18.4c10.2,0,18.4-8.2,18.4-18.4V825.5
				C525.6,815.3,517.4,807.1,507.2,807.1z"/>
			<path class="st57" d="M507.2,99l115.6,189.7l-28.7-5.6c-3.9-0.8-8-0.2-11.5,1.5l-75.3,36.5l-75.3-36.5c-2.5-1.2-5.3-1.8-8-1.8
				c-1.2,0-2.3,0.1-3.5,0.3l-28.7,5.6L507.2,99z M504.6,46.7c-5.3,0-13.2,7.5-15.9,12L341.3,300.6c-2.7,4.4-5.7,14.4-3.5,19
				c0.2,1,0.5,2.1,0.9,3.1c1.3,3,3.4,5.6,6.1,7.4c3.7,2.5,8.4,3.5,13,2.6l63.6-12.3l77.8,37.7c1.5,0.7,3.1,1.2,4.7,1.5
				c1.6,0.2,3.1,0.3,4.7,0.1c2.3,0,7-1.7,9.1-2.7l72.4-35.1l4.2-1.2l62.3,12.1c4.4,0.9,8.9,0,12.4-2.4c3.2-2.1,5.4-5.2,6.3-8.5
				c3.5-5,0.3-17.1-2.9-22.3L522.9,54C519,47.6,511.1,44.8,504.6,46.7z"/>
			<path class="st57" d="M308.6,552.7l86-16.6l104.6,50.7c2.5,1.2,5.3,1.8,8,1.8s5.5-0.6,8-1.8l104.6-50.7l86.1,16.6
				c6.7,1.3,13.5-1.2,17.8-6.5c4.3-5.3,5.3-12.6,2.6-18.8l-60.9-142c-4-9.3-14.8-13.7-24.2-9.7c-9.3,4-13.7,14.8-9.7,24.2L678.8,510
				l-58-11.2c-3.9-0.7-7.9-0.2-11.5,1.5l-102.1,49.5l-102.1-49.5c-3.6-1.7-7.6-2.2-11.5-1.5L335.7,510l47.2-110.1
				c4-9.3-0.3-20.2-9.7-24.2c-9.3-4-20.2,0.3-24.2,9.7l-60.9,142c-2.7,6.3-1.7,13.5,2.6,18.8C295,551.5,301.8,554,308.6,552.7z"/>
			<path class="st57" d="M791.6,753.9l-64-151c-4-9.3-14.8-13.7-24.1-9.7c-9.4,4-13.7,14.8-9.7,24.1l53.2,125.4H269.6l51.8-125.6
				c3.9-9.4-0.6-20.1-10-24c-9.4-3.9-20.1,0.6-24,10l-62.3,151c-2.3,5.7-1.7,12.2,1.7,17.3c3.4,5.1,9.1,8.2,15.3,8.2h532.6
				c6.2,0,11.9-3.1,15.3-8.2C793.5,766.1,794.1,759.6,791.6,753.9z"/>
		</g>
		<g>
			<path class="st58" d="M507.2,807.6c-9.9,0-17.9,8-17.9,17.9v134.9c0,9.9,8,17.9,17.9,17.9c9.9,0,17.9-8,17.9-17.9V825.5
				C525.1,815.6,517.1,807.6,507.2,807.6z"/>
			<path class="st59" d="M507.2,98l116.6,191.4l-29.9-5.8c-3.8-0.7-7.7-0.2-11.2,1.5l-75.5,36.6l-75.5-36.6
				c-2.4-1.2-5.1-1.8-7.8-1.8c-1.1,0-2.3,0.1-3.4,0.3l-29.9,5.8L507.2,98z M504.2,47.4c-5,0-12.9,8-15.5,12.3L342.2,300.2
				c-2.5,4.1-5.9,14.5-3.9,18.8c0.2,1,0.4,2.1,0.8,3.1c1.1,3,3.1,5.6,5.8,7.5c3.6,2.6,8.2,3.6,12.8,2.8l63.8-12.4l77.9,37.8
				c1.5,0.7,3.1,1.2,4.7,1.4c1.6,0.2,3.1,0.2,4.7,0c2.1,0,7.1-1.9,9.1-2.8l72.3-35l4.3-1.1l62.3,12.1c4.4,0.9,8.8-0.1,12.3-2.5
				c3.1-2.2,5.2-5.4,5.9-8.8c3.2-4.6-0.5-17.3-3.5-22.1L522.5,54.3C518.6,47.9,510.5,45.3,504.2,47.4z"/>
			<path class="st59" d="M308.5,552.2l86.2-16.6l104.8,50.7c2.5,1.2,5.1,1.8,7.8,1.8s5.3-0.6,7.8-1.8l104.8-50.7l86.2,16.6
				c6.5,1.3,13.2-1.2,17.3-6.3c4.2-5.2,5.1-12.2,2.5-18.3l-60.9-142c-3.9-9.1-14.4-13.3-23.5-9.4c-9.1,3.9-13.3,14.4-9.4,23.5
				l47.6,110.9l-58.9-11.4c-3.8-0.7-7.7-0.2-11.2,1.5l-102.3,49.6l-102.3-49.6c-3.5-1.7-7.4-2.2-11.2-1.5l-58.9,11.4l47.6-111
				c3.9-9.1-0.3-19.6-9.4-23.5c-9.1-3.9-19.6,0.3-23.5,9.4l-60.9,142c-2.6,6.1-1.6,13.1,2.5,18.3C295.3,551,301.9,553.5,308.5,552.2
				z"/>
			<path class="st59" d="M791.2,754.1l-64-151c-3.9-9.1-14.4-13.3-23.5-9.5c-9.1,3.9-13.3,14.4-9.5,23.5l53.5,126.1H268.8L321,616.9
				c3.8-9.1-0.6-19.6-9.7-23.4c-9.1-3.8-19.6,0.6-23.4,9.7l-62.3,151c-2.3,5.5-1.7,11.8,1.7,16.8c3.3,5,8.9,7.9,14.9,7.9h532.6
				c6,0,11.6-3,14.9-8C792.9,766,793.5,759.6,791.2,754.1z"/>
		</g>
		<g>
			<path class="st60" d="M507.2,808.1c-9.6,0-17.4,7.8-17.4,17.4v134.9c0,9.6,7.8,17.4,17.4,17.4c9.6,0,17.4-7.8,17.4-17.4V825.5
				C524.6,815.9,516.8,808.1,507.2,808.1z"/>
			<path class="st61" d="M507.2,97l117.6,193.2l-31-6c-3.7-0.7-7.5-0.2-10.9,1.4l-75.7,36.7l-75.7-36.7c-2.4-1.1-5-1.7-7.6-1.7
				c-1.1,0-2.2,0.1-3.3,0.3l-31,6L507.2,97z M503.7,48.2c-4.6,0-12.7,8.6-15.1,12.6L343.1,299.7c-2.3,3.8-6.2,14.6-4.3,18.5
				c0.1,1,0.3,2.1,0.7,3.1c1,3,2.9,5.6,5.5,7.6c3.5,2.6,8.1,3.8,12.7,2.9l64-12.4l78.1,37.8c1.5,0.7,3.1,1.2,4.7,1.4
				c1.6,0.2,3.2,0.2,4.7-0.1c2,0,7.2-2,9.1-2.9l72.3-35l4.3-0.9l62.3,12.1c4.4,0.9,8.8-0.1,12.2-2.6c3.1-2.3,5-5.6,5.5-9
				c3-4.3-1.4-17.5-4.1-22L522.1,54.6C518.2,48.2,509.8,45.7,503.7,48.2z"/>
			<path class="st61" d="M308.4,551.7l86.4-16.7l104.9,50.8c2.4,1.2,5,1.7,7.6,1.7s5.2-0.6,7.6-1.7L619.7,535l86.4,16.7
				c6.3,1.2,12.8-1.2,16.8-6.2c4-5,5-11.9,2.4-17.8l-60.9-142c-3.8-8.8-14-12.9-22.8-9.1c-8.8,3.8-12.9,14-9.1,22.8l48,111.8
				l-59.9-11.6c-3.7-0.7-7.5-0.2-10.9,1.4l-102.6,49.7l-102.6-49.7c-3.4-1.6-7.2-2.1-10.9-1.4L334,511.4l48-111.8
				c3.8-8.8-0.3-19-9.1-22.8c-8.8-3.8-19,0.3-22.8,9.1l-60.9,142c-2.5,5.9-1.6,12.7,2.4,17.8C295.6,550.5,302,552.9,308.4,551.7z"/>
			<path class="st61" d="M790.7,754.3l-64-151c-3.8-8.8-14-13-22.8-9.2c-8.8,3.7-13,14-9.2,22.8l53.8,126.8H268.1l52.4-127
				c3.7-8.9-0.6-19-9.4-22.7c-8.9-3.7-19,0.6-22.7,9.4l-62.3,151c-2.2,5.4-1.6,11.5,1.6,16.3c3.2,4.8,8.6,7.7,14.4,7.7h532.6
				c5.8,0,11.3-2.9,14.5-7.8C792.4,765.8,793,759.7,790.7,754.3z"/>
		</g>
		<g>
			<path class="st62" d="M507.2,808.6c-9.3,0-16.9,7.6-16.9,16.9v134.9c0,9.3,7.6,16.9,16.9,16.9c9.3,0,16.9-7.6,16.9-16.9V825.5
				C524.1,816.2,516.5,808.6,507.2,808.6z"/>
			<path class="st63" d="M507.2,96l118.7,194.9l-32.2-6.2c-3.6-0.7-7.3-0.2-10.6,1.4l-75.9,36.8L431.3,286c-2.3-1.1-4.8-1.7-7.4-1.7
				c-1.1,0-2.2,0.1-3.2,0.3l-32.2,6.2L507.2,96z M503.3,48.9c-4.3,0-12.5,9.2-14.7,12.9L344,299.2c-2.2,3.6-6.5,14.7-4.7,18.3
				c0,1,0.2,2,0.5,3.1c0.9,3,2.7,5.7,5.2,7.7c3.4,2.7,8,3.9,12.5,3l64.1-12.4l78.2,37.9c1.5,0.7,3.1,1.2,4.7,1.4
				c1.6,0.2,3.2,0.1,4.7-0.2c1.8,0,7.3-2.2,9-3l72.2-35l4.3-0.8l62.2,12c4.4,0.9,8.8-0.2,12.1-2.8c3-2.4,4.8-5.8,5.1-9.2
				c2.8-4-2.2-17.6-4.7-21.8L521.6,54.8C517.7,48.4,509.2,46.2,503.3,48.9z"/>
			<path class="st63" d="M308.3,551.2l86.5-16.7l105.1,50.9c2.3,1.1,4.8,1.7,7.4,1.7s5-0.6,7.4-1.7l105.1-50.9l86.6,16.7
				c6.1,1.2,12.4-1.1,16.3-6c3.9-4.9,4.8-11.5,2.4-17.2L664,386c-3.7-8.6-13.6-12.5-22.2-8.8c-8.6,3.7-12.5,13.6-8.8,22.2L681.4,512
				l-60.8-11.7c-3.6-0.7-7.3-0.2-10.5,1.4l-102.8,49.8l-102.8-49.8c-3.3-1.6-7-2.1-10.5-1.4L333.1,512l48.4-112.7
				c3.7-8.6-0.3-18.5-8.8-22.2c-8.6-3.7-18.5,0.3-22.2,8.8l-60.9,142c-2.5,5.7-1.6,12.4,2.4,17.2
				C295.8,550.1,302.1,552.4,308.3,551.2z"/>
			<path class="st63" d="M790.2,754.5l-64-151c-3.6-8.6-13.5-12.6-22.1-8.9c-8.6,3.6-12.6,13.5-8.9,22.1l54.1,127.5H267.3L320,616.5
				c3.5-8.6-0.5-18.5-9.2-22c-8.6-3.6-18.5,0.6-22,9.2l-62.3,151c-2.2,5.2-1.6,11.1,1.6,15.8c3.1,4.7,8.4,7.5,14,7.5h532.6
				c5.7,0,10.9-2.8,14.1-7.6C791.9,765.7,792.5,759.7,790.2,754.5z"/>
		</g>
		<g>
			<path class="st64" d="M507.2,809.1c-9,0-16.4,7.3-16.4,16.4v134.9c0,9,7.3,16.4,16.4,16.4c9,0,16.4-7.3,16.4-16.4V825.5
				C523.6,816.5,516.3,809.1,507.2,809.1z"/>
			<path class="st65" d="M507.2,95l119.7,196.6l-33.3-6.4c-3.5-0.7-7.1-0.2-10.2,1.3l-76.2,36.9l-76.2-36.9
				c-2.2-1.1-4.7-1.6-7.1-1.6c-1,0-2.1,0.1-3.1,0.3l-33.3,6.4L507.2,95z M502.9,49.7c-3.9,0-12.3,9.8-14.3,13.2L344.9,298.7
				c-2,3.3-6.7,14.7-5.1,18.1c0,1,0.1,2,0.4,3c0.7,3,2.4,5.7,4.9,7.8c3.3,2.8,7.9,4,12.4,3.1l64.3-12.4l78.4,38
				c1.5,0.7,3.1,1.2,4.7,1.4c1.6,0.2,3.2,0.1,4.7-0.2c1.7,0,7.4-2.4,9-3.1l72.1-35l4.3-0.6l62.2,12c4.3,0.9,8.8-0.3,12-2.9
				c3-2.5,4.6-6,4.7-9.4c2.5-3.6-3-17.8-5.3-21.6L521.2,55.1C517.3,48.7,508.6,46.6,502.9,49.7z"/>
			<path class="st65" d="M308.2,550.7l86.7-16.7l105.2,51c2.3,1.1,4.7,1.6,7.1,1.6s4.9-0.5,7.1-1.6l105.2-51l86.7,16.7
				c6,1.2,12-1.1,15.8-5.8c3.8-4.7,4.7-11.2,2.3-16.7l-60.9-142c-3.6-8.3-13.2-12.2-21.5-8.6c-8.3,3.6-12.1,13.2-8.6,21.5
				l48.7,113.6l-61.8-11.9c-3.5-0.7-7-0.2-10.2,1.3l-103,49.9l-103-49.9c-3.2-1.5-6.8-2-10.2-1.3l-61.7,11.9L381,399.1
				c3.6-8.3-0.3-17.9-8.6-21.5c-8.3-3.6-17.9,0.3-21.5,8.6l-60.9,142c-2.4,5.6-1.5,12,2.3,16.7C296.1,549.6,302.2,551.8,308.2,550.7
				z"/>
			<path class="st65" d="M789.8,754.7l-64-151c-3.5-8.3-13.1-12.2-21.5-8.7c-8.3,3.5-12.2,13.1-8.7,21.4L750,744.7H266.6l53-128.4
				c3.4-8.3-0.5-17.9-8.9-21.4c-8.3-3.5-17.9,0.5-21.4,8.9l-62.3,151c-2.1,5-1.5,10.8,1.5,15.3c3,4.5,8.1,7.3,13.6,7.3h532.6
				c5.5,0,10.6-2.7,13.6-7.3C791.4,765.5,791.9,759.7,789.8,754.7z"/>
		</g>
		<g>
			<path class="st66" d="M507.2,809.6c-8.7,0-15.8,7.1-15.8,15.8v134.9c0,8.8,7.1,15.8,15.8,15.8c8.8,0,15.8-7.1,15.8-15.8V825.5
				C523.1,816.7,516,809.6,507.2,809.6z"/>
			<path class="st67" d="M507.2,94.1L628,292.3l-34.4-6.7c-3.4-0.7-6.8-0.2-9.9,1.3l-76.4,37l-76.4-37c-2.2-1-4.5-1.6-6.9-1.6
				c-1,0-2,0.1-3,0.3l-34.4,6.7L507.2,94.1z M502.4,50.5c-3.6,0-12.1,10.4-13.9,13.5L345.8,298.2c-1.8,3-7,14.8-5.5,17.9
				c-0.1,1,0,2,0.2,3c0.6,3,2.2,5.8,4.6,7.9c3.3,2.8,7.8,4.1,12.3,3.2l64.5-12.5l78.5,38.1c1.5,0.7,3.1,1.2,4.7,1.3
				c1.6,0.2,3.2,0.1,4.7-0.3c1.5,0,7.5-2.5,8.9-3.2l72.1-34.9l4.3-0.5l62.1,12c4.3,0.9,8.7-0.3,11.9-3c2.9-2.5,4.4-6.2,4.3-9.6
				c2.3-3.3-3.8-17.9-5.9-21.4L520.8,55.4C516.9,49,508,47.1,502.4,50.5z"/>
			<path class="st67" d="M308.1,550.2l86.9-16.8l105.4,51c2.2,1.1,4.5,1.6,6.9,1.6s4.7-0.5,6.9-1.6l105.4-51l86.9,16.8
				c5.8,1.1,11.7-1.1,15.3-5.6c3.7-4.6,4.5-10.8,2.2-16.2l-60.9-142c-3.5-8-12.8-11.8-20.8-8.3c-8,3.5-11.8,12.8-8.3,20.8
				l49.1,114.5l-62.7-12.1c-3.4-0.6-6.8-0.2-9.9,1.3l-103.2,50l-103.2-50c-3.1-1.5-6.6-1.9-9.9-1.3l-62.7,12.1l49.1-114.5
				c3.5-8-0.3-17.4-8.3-20.8c-8-3.4-17.4,0.3-20.8,8.3l-60.9,142c-2.3,5.4-1.5,11.6,2.2,16.2C296.4,549.1,302.3,551.3,308.1,550.2z"
				/>
			<path class="st67" d="M789.3,754.9l-64-151c-3.4-8-12.7-11.8-20.8-8.4c-8.1,3.4-11.8,12.7-8.4,20.8l54.7,128.9h-485l53.3-129.1
				c3.3-8.1-0.5-17.3-8.6-20.7c-8.1-3.4-17.3,0.5-20.7,8.6l-62.3,151c-2,4.9-1.5,10.5,1.5,14.9c2.9,4.4,7.9,7,13.2,7h532.6
				c5.3,0,10.3-2.7,13.2-7.1C790.9,765.4,791.4,759.8,789.3,754.9z"/>
		</g>
		<g>
			<path class="st68" d="M507.2,810.2c-8.5,0-15.3,6.9-15.3,15.3v134.9c0,8.5,6.9,15.3,15.3,15.3c8.5,0,15.3-6.9,15.3-15.3V825.5
				C522.6,817,515.7,810.2,507.2,810.2z"/>
			<path class="st69" d="M507.2,93.1l121.8,200l-35.6-6.9c-3.3-0.6-6.6-0.2-9.6,1.3l-76.6,37.1l-76.6-37.1c-2.1-1-4.4-1.5-6.7-1.5
				c-1,0-2,0.1-2.9,0.3l-35.6,6.9L507.2,93.1z M502,51.2c-3.2,0-11.9,11-13.5,13.8L346.7,297.7c-1.6,2.7-7.2,14.9-6,17.7
				c-0.1,1-0.1,2,0.1,3c0.5,3,1.9,5.8,4.3,8c3.2,2.9,7.7,4.2,12.1,3.3l64.6-12.5l78.7,38.1c1.5,0.7,3.1,1.2,4.7,1.3
				c1.6,0.1,3.2,0,4.7-0.4c1.4,0,7.6-2.7,8.9-3.3l72-34.9l4.3-0.4l62.1,12c4.3,0.9,8.7-0.4,11.8-3.2c2.9-2.6,4.2-6.4,3.9-9.8
				c2.1-3-4.6-18.1-6.5-21.2L520.3,55.6C516.4,49.2,507.4,47.5,502,51.2z"/>
			<path class="st69" d="M308,549.7l87-16.8L500.5,584c2.1,1,4.4,1.5,6.7,1.5s4.6-0.5,6.7-1.5l105.5-51.1l87.1,16.8
				c5.6,1.1,11.3-1,14.8-5.4c3.6-4.4,4.4-10.5,2.2-15.7l-60.9-142c-3.3-7.8-12.4-11.4-20.1-8c-7.8,3.3-11.4,12.4-8,20.1l49.5,115.4
				l-63.6-12.3c-3.2-0.6-6.6-0.2-9.6,1.3l-103.5,50.1l-103.5-50.1c-3-1.4-6.3-1.9-9.6-1.3l-63.6,12.3l49.5-115.4
				c3.3-7.8-0.3-16.8-8-20.1c-7.8-3.3-16.8,0.3-20.1,8l-60.9,142c-2.2,5.2-1.4,11.2,2.1,15.7C296.7,548.7,302.4,550.8,308,549.7z"/>
			<path class="st69" d="M788.8,755.1l-64-151c-3.3-7.8-12.3-11.4-20.1-8.1c-7.8,3.3-11.4,12.3-8.1,20.1l55,129.7H265l53.6-129.8
				c3.2-7.8-0.5-16.8-8.3-20c-7.8-3.2-16.8,0.5-20,8.3l-62.3,151c-2,4.7-1.4,10.1,1.4,14.4c2.8,4.3,7.6,6.8,12.7,6.8h532.6
				c5.1,0,10-2.6,12.8-6.9C790.3,765.3,790.8,759.8,788.8,755.1z"/>
		</g>
		<g>
			<path class="st70" d="M507.2,810.7c-8.2,0-14.8,6.6-14.8,14.8v134.9c0,8.2,6.6,14.8,14.8,14.8c8.2,0,14.8-6.6,14.8-14.8V825.5
				C522,817.3,515.4,810.7,507.2,810.7z"/>
			<path class="st71" d="M507.2,92.1L630,293.8l-36.7-7.1c-3.2-0.6-6.4-0.2-9.3,1.2l-76.8,37.2l-76.8-37.2c-2-1-4.2-1.5-6.5-1.5
				c-0.9,0-1.9,0.1-2.8,0.3l-36.7,7.1L507.2,92.1z M501.5,52c-2.9,0-11.7,11.6-13.1,14L347.6,297.3c-1.4,2.4-7.5,15-6.4,17.5
				c-0.2,1-0.2,2-0.1,3c0.3,3,1.7,5.8,4,8.1c3.1,3,7.6,4.3,12,3.5l64.8-12.5l78.8,38.2c1.5,0.7,3.1,1.1,4.7,1.3
				c1.6,0.1,3.2,0,4.7-0.5c1.2,0,7.7-2.8,8.9-3.4l72-34.9l4.3-0.2l62,12c4.3,0.9,8.7-0.4,11.7-3.3c2.8-2.7,4.1-6.5,3.5-10
				c1.9-2.7-5.4-18.3-7.1-21l-145.5-239C516,49.5,506.8,48,501.5,52z"/>
			<path class="st71" d="M307.9,549.2l87.2-16.8l105.7,51.2c2,1,4.3,1.5,6.5,1.5s4.4-0.5,6.5-1.5l105.7-51.2l87.2,16.8
				c5.4,1.1,10.9-1,14.4-5.3c3.4-4.3,4.2-10.1,2.1-15.2l-60.9-142c-3.2-7.5-11.9-11-19.5-7.8c-7.5,3.2-11,11.9-7.8,19.5l49.9,116.3
				l-64.6-12.5c-3.1-0.6-6.4-0.2-9.3,1.2l-103.7,50.2l-103.7-50.2c-2.9-1.4-6.1-1.8-9.3-1.2l-64.6,12.5l49.9-116.3
				c3.2-7.5-0.3-16.2-7.8-19.5c-7.5-3.2-16.2,0.3-19.5,7.8l-60.9,142c-2.2,5-1.4,10.9,2.1,15.2C297,548.2,302.5,550.2,307.9,549.2z"
				/>
			<path class="st71" d="M788.3,755.3l-64-151c-3.2-7.5-11.9-11.1-19.4-7.9c-7.5,3.2-11.1,11.9-7.9,19.4l55.3,130.4H264.3
				l53.9-130.5c3.1-7.6-0.5-16.2-8.1-19.4c-7.6-3.1-16.2,0.5-19.3,8.1l-62.3,151c-1.9,4.6-1.4,9.8,1.4,13.9
				c2.7,4.1,7.4,6.6,12.3,6.6h532.6c5,0,9.6-2.5,12.4-6.6C789.8,765.1,790.3,759.9,788.3,755.3z"/>
		</g>
		<g>
			<path class="st72" d="M507.2,811.2c-7.9,0-14.3,6.4-14.3,14.3v134.9c0,7.9,6.4,14.3,14.3,14.3c7.9,0,14.3-6.4,14.3-14.3V825.5
				C521.5,817.6,515.1,811.2,507.2,811.2z"/>
			<path class="st73" d="M507.2,91.1l123.9,203.4l-37.8-7.3c-3.1-0.6-6.2-0.2-9,1.2l-77.1,37.3l-77.1-37.3c-2-0.9-4.1-1.4-6.2-1.4
				c-0.9,0-1.8,0.1-2.7,0.3l-37.8,7.3L507.2,91.1z M501.1,52.7c-2.5,0-11.4,12.2-12.7,14.3L348.5,296.8c-1.3,2.1-7.8,15.1-6.8,17.3
				c-0.2,1-0.3,2-0.2,3c0.2,3,1.5,5.9,3.7,8.1c3,3,7.5,4.4,11.8,3.6l65-12.6l79,38.3c1.5,0.7,3.1,1.1,4.7,1.3
				c1.6,0.1,3.2-0.1,4.7-0.5c1.1,0,7.8-3,8.8-3.5l71.9-34.9l4.3-0.1l62,12c4.3,0.8,8.6-0.5,11.6-3.4c2.8-2.8,3.9-6.7,3.1-10.2
				c1.6-2.3-6.2-18.4-7.7-20.9l-145-238.1C515.6,49.8,506.2,48.5,501.1,52.7z"/>
			<path class="st73" d="M307.8,548.7l87.4-16.9L501,583.1c2,1,4.1,1.4,6.2,1.4s4.3-0.5,6.2-1.4l105.8-51.3l87.4,16.9
				c5.2,1,10.5-1,13.9-5.1c3.3-4.1,4.1-9.8,2-14.6l-60.9-142c-3.1-7.3-11.5-10.6-18.8-7.5c-7.3,3.1-10.6,11.5-7.5,18.8l50.3,117.1
				l-65.5-12.6c-3-0.6-6.2-0.2-8.9,1.2l-103.9,50.3L403.3,504c-2.8-1.4-5.9-1.8-8.9-1.2l-65.5,12.6l50.3-117.2
				c3.1-7.3-0.2-15.7-7.5-18.8c-7.3-3.1-15.7,0.2-18.8,7.5l-60.9,142c-2.1,4.9-1.3,10.5,2,14.6C297.2,547.7,302.6,549.7,307.8,548.7
				z"/>
			<path class="st73" d="M787.9,755.5l-64-151c-3.1-7.3-11.5-10.7-18.8-7.6c-7.3,3.1-10.7,11.5-7.6,18.8l55.6,131.1H263.5
				l54.2-131.2c3-7.3-0.5-15.7-7.8-18.7c-7.3-3-15.7,0.5-18.7,7.8l-62.3,151c-1.8,4.4-1.3,9.4,1.3,13.4c2.7,4,7.1,6.4,11.9,6.4
				h532.6c4.8,0,9.3-2.4,11.9-6.4C789.3,765,789.8,759.9,787.9,755.5z"/>
		</g>
		<g>
			<path class="st74" d="M507.2,811.7c-7.6,0-13.8,6.2-13.8,13.8v134.9c0,7.6,6.2,13.8,13.8,13.8c7.6,0,13.8-6.2,13.8-13.8V825.5
				C521,817.9,514.8,811.7,507.2,811.7z"/>
			<path class="st75" d="M507.2,90.1l124.9,205.1l-39-7.5c-2.9-0.6-6-0.2-8.6,1.1l-77.3,37.5l-77.3-37.5c-1.9-0.9-3.9-1.4-6-1.4
				c-0.9,0-1.8,0.1-2.6,0.2l-39,7.5L507.2,90.1z M500.7,53.5c-2.1,0-11.2,12.8-12.3,14.6l-139,228.2c-1.1,1.8-8,15.2-7.2,17
				c-0.3,1-0.4,2-0.4,3c0.1,3,1.2,5.9,3.4,8.2c2.9,3.1,7.4,4.5,11.7,3.7l65.1-12.6l79.2,38.4c1.5,0.7,3.1,1.1,4.7,1.2
				c1.6,0.1,3.2-0.1,4.7-0.6c0.9,0,8-3.2,8.8-3.6l71.8-34.8l4.4,0l61.9,12c4.3,0.8,8.6-0.5,11.5-3.6c2.7-2.9,3.7-6.9,2.7-10.4
				c1.4-2-7-18.6-8.3-20.7L519,56.4C515.1,50,505.6,48.9,500.7,53.5z"/>
			<path class="st75" d="M307.7,548.2l87.5-16.9l106,51.3c1.9,0.9,4,1.4,6,1.4s4.1-0.5,6-1.4l106-51.3l87.6,16.9
				c5,1,10.2-0.9,13.4-4.9c3.2-4,4-9.4,1.9-14.1l-60.9-142c-3-7-11.1-10.3-18.1-7.2c-7,3-10.2,11.1-7.2,18.1l50.6,118L620,503.3
				c-2.9-0.6-5.9-0.2-8.6,1.1l-104.1,50.4l-104.1-50.4c-2.7-1.3-5.7-1.7-8.6-1.1L328,516.1l50.7-118c3-7-0.2-15.1-7.2-18.1
				c-7-3-15.1,0.2-18.1,7.2l-60.9,142c-2,4.7-1.3,10.1,1.9,14.1C297.5,547.3,302.7,549.2,307.7,548.2z"/>
			<path class="st75" d="M787.4,755.7l-64-151c-3-7-11.1-10.3-18.1-7.3c-7,3-10.3,11.1-7.3,18.1l55.9,131.8H262.7l54.5-131.9
				c2.9-7-0.4-15.1-7.5-18c-7-2.9-15.1,0.5-18,7.5l-62.3,151c-1.8,4.2-1.3,9.1,1.3,12.9c2.6,3.8,6.9,6.1,11.5,6.1h532.6
				c4.6,0,9-2.3,11.5-6.2C788.8,764.8,789.2,760,787.4,755.7z"/>
		</g>
		<g>
			<path class="st76" d="M507.2,812.2c-7.3,0-13.3,6-13.3,13.3v134.9c0,7.3,6,13.3,13.3,13.3c7.3,0,13.3-6,13.3-13.3V825.5
				C520.5,818.2,514.6,812.2,507.2,812.2z"/>
			<path class="st77" d="M507.2,89.2l125.9,206.8l-40.1-7.8c-2.8-0.5-5.7-0.2-8.3,1.1l-77.5,37.6l-77.5-37.6
				c-1.8-0.9-3.8-1.3-5.8-1.3c-0.8,0-1.7,0.1-2.5,0.2l-40.1,7.8L507.2,89.2z M500.2,54.2c-1.8,0-11,13.4-12,14.9l-138,226.7
				c-0.9,1.5-8.3,15.3-7.6,16.8c-0.3,1-0.5,2-0.5,3c-0.1,3,1,6,3.1,8.3c2.8,3.2,7.2,4.7,11.6,3.8l65.3-12.6l79.3,38.4
				c1.5,0.7,3.1,1.1,4.7,1.2c1.6,0.1,3.2-0.2,4.7-0.7c0.8,0,8.1-3.3,8.8-3.7l71.8-34.8l4.4,0.2l61.9,12c4.3,0.8,8.6-0.6,11.4-3.7
				c2.7-3,3.5-7.1,2.3-10.7c1.2-1.7-7.9-18.8-8.9-20.5L518.6,56.7C514.7,50.3,505,49.4,500.2,54.2z"/>
			<path class="st77" d="M307.6,547.7l87.7-16.9l106.2,51.4c1.8,0.9,3.8,1.3,5.8,1.3s4-0.4,5.8-1.3l106.2-51.4l87.7,16.9
				c4.8,0.9,9.8-0.9,12.9-4.7c3.1-3.8,3.8-9.1,1.9-13.6l-60.9-142c-2.9-6.7-10.7-9.9-17.5-7c-6.7,2.9-9.9,10.7-7,17.5l51,118.9
				l-67.4-13c-2.8-0.5-5.7-0.2-8.3,1.1l-104.3,50.5l-104.3-50.5c-2.6-1.3-5.5-1.6-8.3-1.1l-67.4,13l51-118.9
				c2.9-6.7-0.2-14.6-7-17.5c-6.7-2.9-14.6,0.2-17.5,7l-60.9,142c-1.9,4.5-1.2,9.7,1.9,13.6C297.8,546.8,302.8,548.6,307.6,547.7z"
				/>
			<path class="st77" d="M786.9,755.9l-64-151c-2.9-6.8-10.7-9.9-17.4-7c-6.8,2.9-9.9,10.7-7,17.4l56.2,132.5H262l54.7-132.6
				c2.8-6.8-0.4-14.5-7.2-17.4c-6.8-2.8-14.5,0.4-17.3,7.2l-62.3,151c-1.7,4.1-1.2,8.8,1.2,12.5c2.5,3.7,6.6,5.9,11,5.9h532.6
				c4.5,0,8.6-2.2,11.1-6C788.3,764.7,788.7,760,786.9,755.9z"/>
		</g>
		<g>
			<path class="st78" d="M507.2,812.7c-7.1,0-12.8,5.7-12.8,12.8v134.9c0,7.1,5.7,12.8,12.8,12.8c7.1,0,12.8-5.7,12.8-12.8V825.5
				C520,818.4,514.3,812.7,507.2,812.7z"/>
			<path class="st79" d="M507.2,88.2l127,208.5l-41.2-8c-2.7-0.5-5.5-0.2-8,1l-77.7,37.7l-77.7-37.7c-1.8-0.8-3.6-1.3-5.6-1.3
				c-0.8,0-1.6,0.1-2.4,0.2l-41.2,8L507.2,88.2z M499.8,55c-1.4,0-10.8,14-11.6,15.2L351.1,295.3c-0.7,1.2-8.5,15.4-8,16.6
				c-0.4,1-0.6,2-0.6,3c-0.2,3,0.7,6,2.8,8.4c2.8,3.2,7.1,4.8,11.4,3.9l65.5-12.7l79.5,38.5c1.5,0.7,3.1,1.1,4.7,1.2
				c1.6,0.1,3.2-0.2,4.7-0.8c0.6,0,8.2-3.5,8.7-3.8l71.7-34.8l4.4,0.3l61.9,12c4.3,0.8,8.6-0.7,11.3-3.9c2.6-3.1,3.3-7.3,1.9-10.9
				c0.9-1.3-8.7-18.9-9.5-20.3L518.1,57C514.2,50.5,504.4,49.8,499.8,55z"/>
			<path class="st79" d="M307.5,547.2l87.9-17l106.3,51.5c1.8,0.9,3.7,1.3,5.6,1.3s3.8-0.4,5.6-1.3l106.3-51.5l87.9,17
				c4.6,0.9,9.4-0.9,12.4-4.5c3-3.7,3.7-8.7,1.8-13.1l-60.9-142c-2.8-6.5-10.3-9.5-16.8-6.7c-6.5,2.8-9.5,10.3-6.7,16.8l51.4,119.8
				l-68.4-13.2c-2.7-0.5-5.5-0.2-8,1L507.2,556l-104.6-50.6c-2.5-1.2-5.3-1.6-8-1l-68.3,13.2l51.4-119.8c2.8-6.5-0.2-14-6.7-16.8
				c-6.5-2.8-14,0.2-16.8,6.7l-60.9,142c-1.9,4.3-1.2,9.4,1.8,13.1C298.1,546.3,302.8,548.1,307.5,547.2z"/>
			<path class="st79" d="M786.5,756.1l-64-151c-2.8-6.5-10.3-9.5-16.8-6.8c-6.5,2.8-9.5,10.3-6.8,16.8l56.5,133.2H261.2l55-133.4
				c2.7-6.5-0.4-14-6.9-16.7c-6.5-2.7-14,0.4-16.7,6.9l-62.3,151c-1.6,3.9-1.2,8.4,1.2,12c2.4,3.5,6.4,5.7,10.6,5.7h532.6
				c4.3,0,8.3-2.2,10.7-5.7C787.7,764.6,788.1,760,786.5,756.1z"/>
		</g>
		<g>
			<path class="st80" d="M507.2,813.2c-6.8,0-12.3,5.5-12.3,12.3v134.9c0,6.8,5.5,12.3,12.3,12.3c6.8,0,12.3-5.5,12.3-12.3V825.5
				C519.5,818.7,514,813.2,507.2,813.2z"/>
			<path class="st81" d="M507.2,87.2l128,210.2l-42.4-8.2c-2.6-0.5-5.3-0.1-7.7,1L507.2,328l-77.9-37.8c-1.7-0.8-3.5-1.2-5.4-1.2
				c-0.8,0-1.6,0.1-2.3,0.2l-42.4,8.2L507.2,87.2z M499.4,55.7c-1.1,0-10.6,14.6-11.2,15.5L352,294.8c-0.5,0.9-8.8,15.5-8.4,16.4
				c-0.4,1-0.7,1.9-0.8,3c-0.3,3,0.5,6.1,2.5,8.5c2.7,3.3,7,4.9,11.3,4.1l65.6-12.7l79.6,38.6c1.5,0.7,3.1,1.1,4.7,1.1
				c1.6,0,3.2-0.2,4.7-0.8c0.5,0,8.3-3.7,8.7-3.9l71.7-34.7l4.4,0.5l61.8,12c4.3,0.8,8.5-0.7,11.2-4c2.6-3.2,3.1-7.5,1.5-11.1
				c0.7-1-9.5-19.1-10.1-20.1L517.7,57.2C513.8,50.8,503.8,50.3,499.4,55.7z"/>
			<path class="st81" d="M307.4,546.7l88-17l106.5,51.6c1.7,0.8,3.5,1.2,5.4,1.2s3.7-0.4,5.4-1.2L619,529.7l88,17
				c4.4,0.9,9-0.8,11.9-4.4c2.9-3.5,3.5-8.4,1.7-12.5l-60.9-142c-2.7-6.2-9.9-9.1-16.1-6.4c-6.2,2.7-9.1,9.9-6.4,16.1L689,518.2
				l-69.3-13.4c-2.6-0.5-5.3-0.2-7.7,1l-104.8,50.7l-104.8-50.7c-2.4-1.2-5.1-1.5-7.7-1l-69.3,13.4l51.8-120.7
				c2.7-6.2-0.2-13.4-6.4-16.1c-6.2-2.7-13.4,0.2-16.1,6.4l-60.9,142c-1.8,4.2-1.1,9,1.7,12.5C298.4,545.9,302.9,547.6,307.4,546.7z
				"/>
			<path class="st81" d="M786,756.3l-64-151c-2.6-6.2-9.9-9.2-16.1-6.5c-6.2,2.6-9.1,9.8-6.5,16.1l56.8,133.9H260.4l55.3-134.1
				c2.6-6.3-0.4-13.4-6.7-16c-6.3-2.6-13.4,0.4-16,6.7l-62.3,151c-1.6,3.8-1.1,8.1,1.1,11.5c2.3,3.4,6.1,5.4,10.2,5.4h532.6
				c4.1,0,8-2.1,10.2-5.5C787.2,764.4,787.6,760.1,786,756.3z"/>
		</g>
		<g>
			<path class="st82" d="M507.2,813.7c-6.5,0-11.8,5.3-11.8,11.8v134.9c0,6.5,5.3,11.8,11.8,11.8c6.5,0,11.8-5.3,11.8-11.8V825.5
				C519,819,513.7,813.7,507.2,813.7z"/>
			<path class="st83" d="M507.2,86.2l129,211.9l-43.5-8.4c-2.5-0.5-5.1-0.1-7.4,1l-78.2,37.9l-78.2-37.9c-1.6-0.8-3.4-1.2-5.1-1.2
				c-0.7,0-1.5,0.1-2.2,0.2l-43.5,8.4L507.2,86.2z M498.9,56.5c-0.7,0-10.4,15.2-10.8,15.8L352.9,294.4c-0.4,0.6-9.1,15.6-8.8,16.2
				c-0.5,0.9-0.8,1.9-0.9,3c-0.5,3,0.3,6.1,2.2,8.6c2.6,3.3,6.9,5,11.1,4.2l65.8-12.7l79.8,38.7c1.5,0.7,3.1,1.1,4.7,1.1
				c1.6,0,3.2-0.3,4.7-0.9c0.3,0,8.4-3.8,8.6-4l71.6-34.7l4.4,0.6l61.8,12c4.2,0.8,8.5-0.8,11.1-4.1c2.5-3.3,2.9-7.7,1.1-11.3
				c0.5-0.7-10.3-19.2-10.7-19.9L517.3,57.5C513.4,51.1,503.2,50.7,498.9,56.5z"/>
			<path class="st83" d="M307.3,546.2l88.2-17l106.6,51.6c1.6,0.8,3.4,1.2,5.1,1.2s3.5-0.4,5.1-1.2L619,529.2l88.2,17
				c4.3,0.8,8.7-0.8,11.4-4.2c2.7-3.4,3.4-8,1.7-12l-60.9-142c-2.6-6-9.5-8.7-15.4-6.2c-6,2.6-8.7,9.5-6.2,15.4l52.2,121.6
				l-70.3-13.6c-2.5-0.5-5.1-0.1-7.4,1l-105,50.8l-105-50.8c-2.3-1.1-4.9-1.4-7.4-1l-70.2,13.6l52.2-121.6c2.6-6-0.2-12.9-6.2-15.4
				c-6-2.6-12.9,0.2-15.4,6.2l-60.9,142c-1.7,4-1.1,8.6,1.7,12C298.6,545.4,303,547,307.3,546.2z"/>
			<path class="st83" d="M785.5,756.5l-64-151c-2.5-6-9.5-8.8-15.4-6.2c-6,2.5-8.8,9.4-6.2,15.4L757,749.3H259.7l55.6-134.8
				c2.5-6-0.4-12.9-6.4-15.3c-6-2.5-12.9,0.4-15.3,6.4l-62.3,151c-1.5,3.6-1.1,7.8,1.1,11c2.2,3.3,5.8,5.2,9.8,5.2h532.6
				c3.9,0,7.6-2,9.8-5.3C786.7,764.3,787.1,760.1,785.5,756.5z"/>
		</g>
		<g>
			<path class="st84" d="M507.2,814.2c-6.2,0-11.3,5-11.3,11.3v134.9c0,6.2,5,11.3,11.3,11.3c6.2,0,11.3-5,11.3-11.3V825.5
				C518.5,819.3,513.4,814.2,507.2,814.2z"/>
			<path class="st85" d="M507.2,85.2l130.1,213.6l-44.6-8.6c-2.4-0.5-4.9-0.1-7,0.9l-78.4,38l-78.4-38c-1.5-0.7-3.2-1.1-4.9-1.1
				c-0.7,0-1.4,0.1-2.1,0.2l-44.6,8.6L507.2,85.2z M498.5,57.3c-0.4,0-10.2,15.8-10.4,16.1L353.8,293.9c-0.2,0.3-9.3,15.7-9.2,16
				c-0.5,0.9-0.9,1.9-1.1,2.9c-0.6,3,0,6.1,1.9,8.7c2.5,3.4,6.8,5.1,11,4.3l66-12.8l79.9,38.7c1.5,0.7,3.1,1.1,4.7,1.1
				c1.6,0,3.2-0.3,4.7-1c0.2,0,8.5-4,8.6-4.1l71.6-34.7l4.4,0.7l61.7,11.9c4.2,0.8,8.5-0.9,11-4.3c2.5-3.4,2.7-7.9,0.7-11.5
				c0.2-0.3-11.1-19.4-11.3-19.8L516.8,57.7C512.9,51.3,502.5,51.2,498.5,57.3z"/>
			<path class="st85" d="M307.2,545.7l88.3-17.1l106.8,51.7c1.5,0.8,3.2,1.1,4.9,1.1s3.4-0.4,4.9-1.1l106.8-51.7l88.4,17.1
				c4.1,0.8,8.3-0.8,10.9-4c2.6-3.2,3.2-7.7,1.6-11.5l-60.9-142c-2.5-5.7-9.1-8.4-14.8-5.9c-5.7,2.5-8.4,9.1-5.9,14.8l52.6,122.5
				l-71.2-13.7c-2.4-0.5-4.8-0.1-7,0.9l-105.2,51l-105.2-51c-2.2-1.1-4.7-1.4-7-0.9l-71.2,13.7l52.6-122.5
				c2.5-5.7-0.2-12.3-5.9-14.8c-5.7-2.4-12.3,0.2-14.8,5.9l-60.9,142c-1.6,3.8-1,8.3,1.6,11.5C298.9,544.9,303.1,546.5,307.2,545.7z
				"/>
			<path class="st85" d="M785.1,756.7l-64-151c-2.4-5.7-9-8.4-14.7-6c-5.7,2.4-8.4,9-6,14.7l57.4,135.3H258.9l55.9-135.5
				c2.4-5.7-0.4-12.3-6.1-14.7c-5.7-2.4-12.3,0.4-14.7,6.1l-62.3,151c-1.4,3.5-1,7.4,1.1,10.5c2.1,3.1,5.6,5,9.3,5h532.6
				c3.8,0,7.3-1.9,9.4-5C786.2,764.1,786.5,760.2,785.1,756.7z"/>
		</g>
		<g>
			<path class="st86" d="M507.2,814.8c-5.9,0-10.7,4.8-10.7,10.7v134.9c0,5.9,4.8,10.7,10.7,10.7c5.9,0,10.7-4.8,10.7-10.7V825.5
				C518,819.6,513.1,814.8,507.2,814.8z"/>
			<path class="st87" d="M507.2,84.2l131.1,215.3l-45.8-8.9c-2.3-0.4-4.6-0.1-6.7,0.9l-78.6,38.1l-78.6-38.1
				c-1.5-0.7-3.1-1.1-4.7-1.1c-0.7,0-1.4,0.1-2,0.2l-45.8,8.9L507.2,84.2z M356.3,325.2l66.1-12.8l80.1,38.8
				c1.5,0.7,3.1,1.1,4.7,1.1s3.2-0.4,4.7-1.1l80.1-38.8l66.1,12.8c4.2,0.8,8.4-0.9,10.8-4.4c2.4-3.5,2.6-8.1,0.3-11.7L516.4,58
				c-3.9-6.4-14.5-6.4-18.3,0L345.1,309.1c-2.2,3.6-2.1,8.2,0.4,11.7C347.9,324.3,352.2,326.1,356.3,325.2z"/>
			<path class="st87" d="M307.1,545.2l88.5-17.1l106.9,51.8c1.5,0.7,3.1,1.1,4.7,1.1s3.2-0.4,4.7-1.1l106.9-51.8l88.5,17.1
				c3.9,0.8,7.9-0.7,10.4-3.8c2.5-3.1,3.1-7.3,1.5-11l-60.9-142c-2.3-5.4-8.6-8-14.1-5.6c-5.4,2.3-8,8.7-5.6,14.1l52.9,123.3
				l-72.2-13.9c-2.3-0.4-4.6-0.1-6.7,0.9l-105.5,51.1l-105.5-51.1c-2.1-1-4.5-1.3-6.7-0.9l-72.1,13.9l52.9-123.4
				c2.3-5.4-0.2-11.8-5.6-14.1c-5.4-2.3-11.8,0.2-14.1,5.6l-60.9,142c-1.6,3.6-1,7.9,1.5,11C299.2,544.5,303.2,545.9,307.1,545.2z"
				/>
			<path class="st87" d="M784.6,756.9l-64-151c-2.3-5.5-8.6-8-14.1-5.7c-5.5,2.3-8,8.6-5.7,14.1l57.7,136.1H258.1l56.2-136.2
				c2.3-5.5-0.3-11.7-5.8-14c-5.5-2.3-11.7,0.3-14,5.8l-62.3,151c-1.4,3.3-1,7.1,1,10.1c2,3,5.3,4.8,8.9,4.8h532.6
				c3.6,0,7-1.8,8.9-4.8C785.7,764,786,760.2,784.6,756.9z"/>
		</g>
	</g>
	<g>
		<path class="st88" d="M507.2,820.1c-3,0-5.4,2.4-5.4,5.4v134.9c0,3,2.4,5.4,5.4,5.4s5.4-2.4,5.4-5.4V825.5
			C512.6,822.5,510.2,820.1,507.2,820.1z"/>
		<path class="st88" d="M355.3,320l67.9-13.1l81.7,39.6c0.7,0.3,1.5,0.5,2.3,0.5s1.6-0.2,2.3-0.5l81.7-39.6l67.9,13.1
			c2.1,0.4,4.2-0.5,5.4-2.2c1.2-1.7,1.3-4,0.2-5.9L511.8,60.8c-1.9-3.2-7.2-3.2-9.2,0L349.7,311.9c-1.1,1.8-1,4.1,0.2,5.9
			C351.1,319.5,353.2,320.4,355.3,320z M507.2,73.9l142,233.2L591.5,296c-1.1-0.2-2.3-0.1-3.4,0.4l-81,39.2l-81-39.2
			c-0.7-0.3-1.5-0.5-2.3-0.5c-1,0.1-58.7,11.3-58.7,11.3L507.2,73.9z"/>
		<path class="st88" d="M306.1,539.9l90.3-17.4L504.9,575c0.7,0.4,1.5,0.5,2.3,0.5s1.6-0.2,2.3-0.5l108.5-52.6l90.3,17.4
			c2,0.4,3.9-0.3,5.2-1.9c1.2-1.5,1.5-3.6,0.7-5.5l-60.9-142c-1.2-2.7-4.3-4-7-2.8c-2.7,1.2-4,4.3-2.8,7l56.9,132.7l-82.1-15.8
			c-1.1-0.2-2.3-0.1-3.3,0.4l-107.8,52.2L399.4,512c-1.1-0.5-2.2-0.7-3.3-0.4L314,527.4l56.9-132.7c1.2-2.7-0.1-5.9-2.8-7.1
			c-2.7-1.2-5.9,0.1-7,2.8l-60.9,142c-0.8,1.8-0.5,3.9,0.8,5.5C302.1,539.5,304.1,540.3,306.1,539.9z"/>
		<path class="st88" d="M779.6,759l-64-151c-1.2-2.7-4.3-4-7-2.8c-2.7,1.2-4,4.3-2.8,7l60.9,143.5H250.1l59.3-143.6
			c1.1-2.7-0.2-5.9-2.9-7c-2.7-1.1-5.9,0.2-7,2.9l-62.3,151c-0.7,1.7-0.5,3.5,0.5,5c1,1.5,2.7,2.4,4.5,2.4h532.6
			c1.8,0,3.5-0.9,4.5-2.4C780.2,762.5,780.4,760.6,779.6,759z"/>
	</g>
</g>
<radialGradient id="SVGID_1_" cx="1310.7191" cy="-250.5896" r="372.7591" gradientTransform="matrix(2.110000e-02 -0.4136 0.4135 2.110000e-02 420.0917 778.9114)" gradientUnits="userSpaceOnUse">
	<stop  offset="0" style="stop-color:#12FF7D"/>
	<stop  offset="1" style="stop-color:#000000"/>
</radialGradient>
<path class="st89" d="M336.3,385.7c85.1,4.3,157.7-61.2,162-146.3c4.3-85.2-61.2-157.7-146.3-162c-85.1-4.3-157.7,61.1-162,146.3
	C185.6,308.8,251.1,381.3,336.3,385.7z"/>
<radialGradient id="SVGID_00000145776337307694803870000002024691916985621646_" cx="272.503" cy="504.8706" r="569.4339" gradientTransform="matrix(2.110000e-02 -0.4136 0.4135 2.110000e-02 420.0917 778.9114)" gradientUnits="userSpaceOnUse">
	<stop  offset="0" style="stop-color:#12FF7D"/>
	<stop  offset="1" style="stop-color:#000000"/>
</radialGradient>
<path style="display:none;opacity:0.5;fill:url(#SVGID_00000145776337307694803870000002024691916985621646_);" d="M622.6,912.4
	c130,6.6,240.9-93.4,247.5-223.5c6.6-130.1-93.4-240.9-223.5-247.5c-130-6.6-240.9,93.4-247.5,223.5
	C392.5,794.9,492.6,905.7,622.6,912.4z"/>
</svg>
