<?xml version="1.0" encoding="utf-8"?>
<!-- Generator: Adobe Illustrator 25.0.1, SVG Export Plug-In . SVG Version: 6.00 Build 0)  -->
<svg version="1.1" id="Layer_1" xmlns="http://www.w3.org/2000/svg" xmlns:xlink="http://www.w3.org/1999/xlink" x="0px" y="0px"
	 viewBox="0 0 1024 1024" style="enable-background:new 0 0 1024 1024;" xml:space="preserve">
<style type="text/css">
	.st0{fill:#25333F;}
</style>
<g>
	<path class="st0" d="M247.8,432.1l-96.1,17c-4.5,0.8-7.7,4.8-7.5,9.4l3.2,63.2c0.3,5.5,5.3,9.4,10.7,8.5l73.2-13
		c5.4-1,10.4,3.1,10.7,8.6l1.4,35c0.2,4.5-3,8.5-7.5,9.3l-77.3,13.7c-4.5,0.8-7.7,4.8-7.5,9.4l5.6,105.1c0.2,4.6-3,8.6-7.5,9.4
		l-50.1,8.9c-5.4,1-10.4-3-10.7-8.5L73.3,417.4c-0.2-4.6,3-8.6,7.5-9.4l162.1-28.7c5.4-1,10.4,3,10.7,8.5l1.7,35
		C255.5,427.3,252.3,431.3,247.8,432.1z"/>
	<path class="st0" d="M363.3,561.5l5.3,99.3c0.2,4.6-3,8.6-7.5,9.4l-49.2,8.7c-5.4,1-10.4-3-10.7-8.5l-15.7-290.7
		c-0.2-4.6,3-8.6,7.5-9.4l83.8-14.9c18.5-3.3,34.7-4.1,48.5-2.5c13.8,1.6,25.4,5.2,35,10.6c9.5,5.5,17,12.6,22.5,21.4
		c5.5,8.8,9.2,18.7,11.2,29.8c2,11.2,2.4,22.1,1.2,32.6c-1.2,10.5-3.9,20.4-8.1,29.8c-4.2,9.4-9.8,18-16.9,25.9
		c-4,4.4-8.4,8.5-13.2,12.4c-4.9,3.9-4.4,11.5,1,14.8c0,0,0.1,0.1,0.1,0.1c4.3,2.7,7.9,6.3,10.8,10.9l55.6,87.2
		c3.5,5.5,0.3,12.7-6.1,13.8l-47.7,8.4c-5.7,1-10.6,0.7-14.9-0.8c-4.3-1.5-7.5-4.2-9.8-8.1l-48.7-83.7c-2.2-3.6-4.7-6-7.6-7.1
		c-2.8-1.1-6.8-1.3-11.7-0.4l-7.2,1.3C366.2,552.9,363,556.9,363.3,561.5z M355.8,419.4l4,76.1c0.3,5.5,5.3,9.4,10.7,8.5l14.6-2.6
		c9.7-1.7,17.7-4.7,23.9-8.8c6.3-4.2,11-9.1,14.4-14.9c3.3-5.7,5.4-12.1,6-19.1c0.7-7,0.4-14.1-0.9-21.5c-1-5.7-2.8-10.7-5.2-15
		c-2.5-4.3-5.8-7.8-9.9-10.5c-4.1-2.6-9-4.4-14.6-5.2c-5.6-0.9-12.1-0.6-19.3,0.6l-16.2,2.9C358.8,410.8,355.6,414.8,355.8,419.4z"
		/>
	<path class="st0" d="M715.3,349.3l-96.1,17c-4.5,0.8-7.7,4.8-7.5,9.4l2.9,56.4c0.3,5.5,5.3,9.4,10.7,8.5l65.4-11.6
		c5.4-1,10.4,3.1,10.7,8.5l1.5,33.1c0.2,4.6-3,8.5-7.5,9.3l-69.6,12.3c-4.5,0.8-7.7,4.9-7.5,9.4l3.2,58.3c0.3,5.4,5.3,9.4,10.7,8.5
		l92.5-16.4c5.4-1,10.4,3,10.7,8.5l1.7,35c0.2,4.6-3,8.6-7.5,9.4l-162.6,28.8c-5.4,1-10.4-3-10.7-8.5l-15.3-290.8
		c-0.2-4.6,3-8.6,7.5-9.4l162.1-28.7c5.4-1,10.4,3,10.7,8.5l1.7,35C723,344.4,719.8,348.5,715.3,349.3z"/>
	<path class="st0" d="M930.3,311.1l-96.1,17c-4.5,0.8-7.7,4.8-7.5,9.4l2.9,56.4c0.3,5.5,5.3,9.4,10.7,8.5l65.4-11.6
		c5.4-1,10.4,3.1,10.7,8.5l1.5,33.1c0.2,4.6-3,8.5-7.5,9.3l-69.6,12.3c-4.5,0.8-7.7,4.9-7.5,9.4l3.2,58.3c0.3,5.4,5.3,9.4,10.7,8.5
		l92.5-16.4c5.4-1,10.4,3,10.7,8.5l1.7,35c0.2,4.6-3,8.6-7.5,9.4l-162.6,28.8c-5.4,1-10.4-3-10.7-8.5l-15.3-290.8
		c-0.2-4.6,3-8.6,7.5-9.4l162.1-28.7c5.4-1,10.4,3,10.7,8.5l1.7,35C938,306.3,934.8,310.3,930.3,311.1z"/>
</g>
</svg>
