<?xml version="1.0" encoding="utf-8"?>
<!-- Generator: Adobe Illustrator 25.0.1, SVG Export Plug-In . SVG Version: 6.00 Build 0)  -->
<svg version="1.1" id="Layer_1" xmlns="http://www.w3.org/2000/svg" xmlns:xlink="http://www.w3.org/1999/xlink" x="0px" y="0px"
	 viewBox="0 0 1024 1024" style="enable-background:new 0 0 1024 1024;" xml:space="preserve">
<style type="text/css">
	.st0{fill:#25333F;}
</style>
<path class="st0" d="M77.3,271.4l59.6,31.2c3.1,1.6,4.7,5.1,3.9,8.5l-15,66.6c-3.1,13.8,1.8,28,12.7,37c11,9,25.8,11.1,38.8,5.3
	l92.3-40.7c2.7-1.2,5-0.5,6.2,0s3.2,1.8,4.2,4.6l19.9,59.4c3.7,10.9,11.9,19.4,22.7,23.3c4.2,1.5,8.5,2.2,12.7,2.2
	c6.8,0,13.6-1.9,19.6-5.6L467,393.7c-0.6,7.7-0.4,15.6,0.7,23.4c2.5,17.7,9.2,34.1,19.4,48l-149.7,23.8c-13.2,2.1-24,10.7-28.9,23.1
	s-3,26.1,5.2,36.6l12,15.5c1.9,2.5,1.7,5.1,1.4,6.4c-0.3,1.3-1.3,3.8-4.1,5.2l-105.9,51.7c-11.8,5.7-19.5,16.9-20.8,30
	c-1.3,13,4.2,25.5,14.7,33.4c2.4,1.8,2.9,4.3,3,5.6s-0.1,3.8-2.2,5.9l-60.1,61c-7.6,7.7-11.4,18.2-10.7,28.9
	c0.8,10.7,6.2,20.6,14.7,27.1l26.5,20c2.7,2,3.7,5.7,2.5,8.8L158.9,917c-5.9,15.6-1,32.9,12.4,43c6.7,5.1,14.6,7.7,22.6,7.7
	c7.8,0,15.5-2.5,22.2-7.4l58.1-43c2.6-1.9,6.2-2,8.8-0.2l56.7,38.2c11.1,7.5,25,8.5,37.1,2.7s20-17.3,21-30.6l8.4-103.1
	c0.3-4.1,3.3-5.8,4.5-6.4c1.2-0.6,4.5-1.6,7.8,0.9l2.4,1.8c10.7,8.1,24.5,9.8,36.9,4.7c12.4-5.2,20.9-16.2,22.7-29.5l12.8-94
	c0.5-4,3.5-5.6,4.7-6.1s4.5-1.4,7.6,1.1l1,0.8c12.3,9.7,28.9,10.8,42.4,2.8c13.4-8.1,20.3-23.2,17.6-38.7L538,502.6
	c11.3,4,23.2,5.9,34.9,5.9c14.1,0,28.1-2.8,41.1-8.2l-26.2,153.8c-1.8,10.6,1,21.4,7.7,29.7s16.7,13.4,27.4,13.9l60.7,2.7
	c3.9,0.2,7,3.2,7.3,7.1l4.4,65.1c0.8,11.9,7.1,22.5,17.1,28.9c10.1,6.5,22.3,7.7,33.5,3.4l32.2-12.3c3-1.1,6.4-0.3,8.5,2.1
	l54.2,61.1c7.3,8.2,17.4,12.6,27.8,12.6c4.7,0,9.4-0.9,14-2.7c14.8-5.9,24-20,23.5-35.9l-2.5-76.2c-0.1-2.7,1.2-5.1,3.4-6.6
	l56.7-37.9c11.6-7.7,17.8-21.1,16.4-35c-1.5-13.8-10.4-25.6-23.3-30.8l-99.5-39.7c-3.7-1.5-4.5-4.6-4.7-5.9
	c-0.2-1.3-0.4-4.6,2.7-7.1l38.1-31.6c11.5-9.6,16.2-24.5,12.1-38.9c-4.1-14.4-15.8-24.7-30.6-26.8l-214.3-30.9
	c15.1-21.9,21.3-48.2,17.6-74.7c-3.9-28.1-18.5-53-41.1-70c-22.6-17.1-50.5-24.4-78.6-20.4c-26.8,3.7-50.7,17.2-67.7,38.1
	L372.5,105.7c-6.3-12.3-18.9-20.1-32.8-20.3c-13.8-0.2-26.6,7.3-33.3,19.4L283,148c-1.6,2.9-4.2,3.7-5.6,3.9s-4.1,0.2-6.5-2.1
	L201.2,82c-11.5-11.2-28.2-13.8-42.6-6.7c-14.4,7.1-22.5,21.9-20.6,37.8l6.8,58c0.4,3.4-1.5,6.7-4.7,8l-59.7,24.7
	c-13.6,5.6-22.4,18.2-23,32.8C56.6,251.2,64.3,264.6,77.3,271.4z M763.8,625.3l-97-131.8l203.7,29.3c4.5,0.6,5.9,4.1,6.3,5.5
	c0.4,1.4,1,5.1-2.5,8l-38.1,31.6c-10.2,8.5-15.1,21.4-13.1,34.6c2.1,13.1,10.7,23.9,23,28.9l99.5,39.7c3.9,1.5,4.6,4.9,4.8,6.3
	c0.1,1.4,0.1,4.9-3.4,7.2l-56.7,37.9c-10.8,7.2-17,19.3-16.6,32.3l2.5,76.2c0.2,4.9-3.3,6.8-4.8,7.4c-1.5,0.6-5.4,1.6-8.6-2
	l-54.2-61.1c-7.2-8.1-17.5-12.5-28-12.5c-4.4,0-8.9,0.8-13.2,2.4l-32.2,12.3c-3.1,1.2-5.7,0.1-6.9-0.7s-3.3-2.6-3.5-5.9l-4.4-65.1
	c-1.3-19-16.6-33.9-35.6-34.8l-60.7-2.7c-3-0.1-4.8-1.8-5.6-2.8s-2.1-3.1-1.6-6.1l25.4-148.8l97.5,132.5c2.9,4,7.4,6,12,6
	c3.1,0,6.1-0.9,8.8-2.9C767.2,641.2,768.6,631.9,763.8,625.3z M512,356.4c12.3-16.3,30.2-26.8,50.4-29.6c3.6-0.5,7.1-0.7,10.7-0.7
	c16.5,0,32.5,5.3,45.9,15.5c16.3,12.3,26.8,30.2,29.6,50.4c2.8,20.2-2.4,40.3-14.7,56.6c-25.4,33.6-73.4,40.3-107.1,14.9
	c-16.3-12.3-26.8-30.2-29.6-50.4C494.4,392.8,499.7,372.7,512,356.4z M509.3,511.3l28,155.7c0.8,4.7-2.2,7.1-3.6,7.9
	c-1.4,0.8-5,2.4-8.7-0.6l-1-0.8c-10.7-8.4-24.5-10.4-37.1-5.4c-12.6,5.1-21.2,16.1-23.1,29.6l-12.8,94c-0.5,3.9-3.4,5.5-4.7,6
	c-1.2,0.5-4.4,1.4-7.6-1l-2.4-1.8c-10.9-8.2-25.4-9.9-37.8-4.3c-12.4,5.6-20.9,17.5-22,31L368.2,925c-0.3,4-3.1,5.7-4.3,6.3
	c-1.2,0.6-4.3,1.7-7.6-0.6l-56.7-38.2c-13.1-8.8-30.4-8.4-43.1,0.9l-58.1,43c-4.2,3.1-7.8,1-9.2-0.1c-1.4-1-4.4-4-2.5-8.8l26.1-68.7
	c5.9-15.4,0.8-33.1-12.4-43.1l-26.5-20c-2.4-1.8-2.9-4.3-3-5.6s0.1-3.8,2.2-5.9l60.1-61c7.6-7.7,11.4-18.2,10.7-28.9
	c-0.8-10.7-6.2-20.6-14.7-27.1c-3.1-2.3-3.1-5.6-3-6.9c0.1-1.3,0.8-4.5,4.3-6.2l105.9-51.7c10.2-5,17.4-14.1,20-25.1
	s0.1-22.4-6.9-31.4l-12-15.5c-2.4-3.1-1.6-6.3-1.1-7.5s2-4.1,5.9-4.8L484,495.6l-79.4,105c-4.9,6.5-3.6,15.8,2.9,20.8
	c2.7,2,5.8,3,8.9,3c4.5,0,8.9-2,11.9-5.9L509.3,511.3z M91.7,231.2l59.7-24.7c15.4-6.4,24.8-22.3,22.8-38.9l-6.8-58
	c-0.6-4.9,2.8-7.1,4.2-7.8c1.5-0.7,5.2-2,8.7,1.4l69.7,67.9c8.4,8.2,20,11.9,31.6,10.2c11.7-1.8,21.6-8.7,27.2-19l23.6-43.1
	c2-3.7,5.4-4,6.8-4s4.8,0.5,6.7,4.2L456,332.9l-132.2-57.7c-7.5-3.3-16.3,0.2-19.5,7.7c-3.3,7.5,0.2,16.3,7.7,19.5l144.5,63.1
	L339.6,438c-2.7,1.7-5.3,1.2-6.6,0.7c-1.3-0.5-3.6-1.7-4.7-4.8l-19.9-59.4c-3.3-9.9-10.7-18.1-20.3-22.3c-4.8-2.1-9.9-3.2-15.1-3.2
	c-5.1,0-10.3,1.1-15.1,3.2l-92.3,40.7c-3.9,1.7-6.9-0.2-8-1.1s-3.5-3.4-2.6-7.6l15-66.6c3.7-16.5-4.2-33.4-19.1-41.3l-59.6-31.2
	c-3.9-2-4.2-5.7-4.1-7.1C87,236.5,87.6,232.9,91.7,231.2z"/>
</svg>
