<?xml version="1.0" encoding="utf-8"?>
<!-- Generator: Adobe Illustrator 25.0.1, SVG Export Plug-In . SVG Version: 6.00 Build 0)  -->
<svg version="1.1" id="Layer_1" xmlns="http://www.w3.org/2000/svg" xmlns:xlink="http://www.w3.org/1999/xlink" x="0px" y="0px"
	 viewBox="0 0 1024 1024" style="enable-background:new 0 0 1024 1024;" xml:space="preserve">
<style type="text/css">
	.st0{fill:#25333F;}
</style>
<g>
	<path class="st0" d="M917.1,375c15-97.8-29.9-199.3-120.5-251.8c-83.1-48.1-182.9-42.3-258.5,6.6c-2.8,0.9-5.1,2.5-6.9,4.6
		c-28.8,20-53.8,46.6-72.6,78.9l-81.6,140.9l0,0l-46.6,80.6l0,0l-97.6,168.6l0,0L186.1,684l0,0l-70.6,121.9
		c-23.6,40.8-9.6,93.1,31.1,116.7c40.8,23.6,93.1,9.6,116.7-31.1l0-0.1c0,0,0,0,0,0l46.6-80.6l0,0l97.6-168.6c0,0,0,0,0,0l46.6-80.6
		l0,0L552,393l0,0l46.6-80.6c0,0,0,0,0,0l7.8-13.6c21.1-36.5,68-49,104.5-27.9c36.5,21.1,49,68,27.9,104.5L697.4,447
		c-23.6,40.8-9.6,93.1,31.1,116.7c40.8,23.6,93.1,9.6,116.7-31.1l41.4-71.5c15.3-26.5,25.2-54.6,29.9-83.1
		C916.8,377,917,376,917.1,375z M161.8,896.6c-26.4-15.3-35.5-49.2-20.2-75.6l52.4-90.5l40.2,150.9
		C217.7,903.9,186.5,910.9,161.8,896.6z M255.6,845l-40.3-151.3l25.3-43.8L281,801.2L255.6,845z M302.3,764.4l-40.3-151.3
		l76.3-131.9l40.3,151.3L302.3,764.4z M399.9,595.7l-40.3-151.3l25.3-43.8L425.2,552L399.9,595.7z M446.5,515.2l-40.3-151.3
		L482.5,232l40.3,151.3L446.5,515.2z M544.2,346.5l-39.3-147.3c8.9-10.8,18.7-20.6,29.2-29.3l35.4,132.9L544.2,346.5z M591.4,268.3
		l-31.2-117c39.8-24,86.5-34.8,133-30.4l-12,110.1C647.7,228.3,613.9,241.8,591.4,268.3z M726,245c-5-2.9-10.1-5.3-15.3-7.3
		l12.1-111.9c17,4,33.8,10.2,50,18.6l-38.5,105.9C731.8,248.5,729,246.7,726,245z M778.8,328.8c-1.6-19.9-8.7-39.1-20.8-55.3l41-113
		c46.9,33.5,77,83.3,87.1,137L778.8,328.8z M889.6,327.8c0.5,11.5,0.1,23-1.2,34.5l-128.7,37l5.1-8.8c5.5-9.5,9.4-19.6,11.7-29.8
		L889.6,327.8z M819.3,517.6C804,544,770,553,743.6,537.7s-35.5-49.2-20.2-75.6l15.1-26.1c1.5,0,3-0.1,4.5-0.6L882,395.5
		c-4.8,17.3-11.9,34.3-21.3,50.5L819.3,517.6z"/>
</g>
</svg>
