<?xml version="1.0" encoding="utf-8"?>
<!-- Generator: Adobe Illustrator 25.0.1, SVG Export Plug-In . SVG Version: 6.00 Build 0)  -->
<svg version="1.1" id="Layer_1" xmlns="http://www.w3.org/2000/svg" xmlns:xlink="http://www.w3.org/1999/xlink" x="0px" y="0px"
	 viewBox="0 0 1024 1024" style="enable-background:new 0 0 1024 1024;" xml:space="preserve">
<style type="text/css">
	.st0{fill:#25333F;}
</style>
<g>
	<path class="st0" d="M212.3,852.2h171.3c5.2,0,7.7-2.6,7.7-7.7v-10.8c0-5.2-2.6-7.7-7.7-7.7h-150v-15.1c0-14.7,6.6-26.3,19.7-34.8
		c7.2-4.6,13-8,17.4-10.1l22-8.5c18.3-7.5,32.6-13.7,42.9-18.6c10.1-4.9,20.2-11.5,30.5-19.7c18.3-14.4,27.4-35.8,27.4-64.2
		c0-23.5-8.1-43-24.4-58.8c-16.8-16-38.1-24-64.2-24c-48.5,0-81.6,20.9-99.4,62.6c-1.8,4.6-0.3,7.9,4.6,9.7l12,4.6
		c4.4,1.5,7.6,0,9.7-4.6c14.2-30.9,38.3-46.4,72.3-46.4c17.8,0,32.2,5.5,43.3,16.6c11.1,11.1,16.6,24.9,16.6,41.4
		c-0.3,20.9-9.2,37.8-26.7,50.6c-8.8,6.2-26.4,14.4-53,24.7c-11.9,4.4-20,7.6-24.4,9.7c-4.1,1.8-11.1,5.8-20.9,12
		c-21.6,13.7-33.4,34.7-35.2,63v28.2C204.2,849.6,206.9,852.2,212.3,852.2z"/>
	<path class="st0" d="M530.5,858c28.6,0,51.4-8.5,68.4-25.5c16.8-16.8,25.1-37.5,25.1-62.2c0-25.3-7.6-45.4-22.8-60.3
		c-16-15.7-38.3-23.6-66.9-23.6h-63.8l8.1-82.3h127.2c5.2,0,7.7-2.6,7.7-7.7v-10.8c0-5.2-2.6-7.7-7.7-7.7H465.5
		c-8.5,0-12.9,4-13.1,12L440.8,703c-0.8,6.2,2.1,9.3,8.5,9.3h83.5c19.3,0,34.4,5.4,45.2,16.2c10.8,10.3,16.2,24.2,16.2,41.8
		c0,18-5.8,32.7-17.4,44.1c-11.9,11.6-27.3,17.4-46.4,17.4c-38.4,0-63-14.7-73.8-44.1c-2.1-5.4-5.3-7.1-9.7-5l-12.8,4.6
		c-4.6,2.1-6.1,5.3-4.3,9.7C445.2,837.6,478.7,858,530.5,858z"/>
	<path class="st0" d="M212.5,383.4c-20.3,0-36.9,16.5-36.9,36.9c0,20.3,16.5,36.9,36.9,36.9c20.3,0,36.9-16.5,36.9-36.9
		C249.4,400,232.8,383.4,212.5,383.4z M212.5,434.3c-7.7,0-14-6.3-14-14c0-7.7,6.3-14,14-14c7.7,0,14,6.3,14,14
		C226.5,428,220.2,434.3,212.5,434.3z"/>
	<path class="st0" d="M608.4,383.4c-20.3,0-36.9,16.5-36.9,36.9c0,20.3,16.5,36.9,36.9,36.9c20.3,0,36.9-16.5,36.9-36.9
		C645.3,400,628.8,383.4,608.4,383.4z M608.4,434.3c-7.7,0-14-6.3-14-14c0-7.7,6.3-14,14-14c7.7,0,14,6.3,14,14
		C622.4,428,616.1,434.3,608.4,434.3z"/>
	<path class="st0" d="M903.2,793.8c8.3-1.9,16.6-4,24.8-6.2c3.8-1,6.9-4,8-7.8c1.1-3.8,0.2-7.9-2.4-10.9c-19.4-21.9-37.9-46-55-71.9
		c6.6-1.5,13.1-3.2,19.6-4.9c3.8-1,6.9-4,8-7.8c1.1-3.8,0.2-7.9-2.4-10.9c-19.3-21.8-37.4-46.1-54-72.5c5.3-1.2,10.6-2.5,15.8-3.9
		c3.8-1,6.9-4,8-7.8c1.1-3.8,0.2-7.9-2.4-10.9c-19-21.4-36.5-45.9-52-72.7c5.6-1.2,11.1-2.6,16.6-4c3.8-1,6.9-4,8-7.8
		c1.1-3.8,0.2-7.9-2.4-10.9c-25.6-28.9-47.1-64.1-63.9-104.8c-15.1-36.7-25.9-76.6-32-118.8c-0.8-5.6-5.6-9.8-11.3-9.8
		s-10.5,4.2-11.3,9.8c-1.8,12.1-3.9,24-6.4,35.8c-0.2-0.3-0.4-0.7-0.5-1c-3.4-6.1-13.3-20.9-31.9-27.5c-20.5-7.2-37.4,0.7-55.3,9.2
		c-8.5,4-17.3,8.2-27.3,11.2c-32.9,10-62.4,2.6-107.1-8.7c-26.1-6.6-41.7-13.9-54.3-19.8c-17-8-30.4-14.3-55.4-13.1
		c-16.8,0.8-25.5,4.4-35.6,8.5c-9.3,3.8-19.9,8.2-41.5,12.3c-35.7,6.8-64.6,5.8-90.1,5c-22.8-0.8-40.4-2.8-54.5-4.5
		c-27.9-3.2-46.3-5.4-67.1,8c-8.6,5.6-29.1,21.3-32.7,47.8c-3.2,23.2,6.5,51.6,26.1,58.1c-3.5,9-5.5,18.7-5.5,28.9v448.5
		c0,43.6,35.4,79,79,79h495.5c22.6,0,43.1-9.6,57.5-24.9c4.3,0.1,8.4,0.2,12.5,0.2c1.9,0,3.9,0,5.8,0c73.3,0,146.9-9.7,219-28.9
		c3.8-1,6.9-4,8-7.8c1.1-3.8,0.2-7.9-2.4-10.9C939.2,843.2,920.6,819.3,903.2,793.8z M85.8,325.9c2.4-17.1,16.5-27.8,22.4-31.7
		c13.8-8.9,25.8-7.5,52-4.5c14.5,1.7,32.6,3.8,56.3,4.6c25.4,0.9,56.9,2,95.2-5.3c23.9-4.6,36.1-9.6,45.9-13.6
		c9.1-3.7,15.1-6.2,28-6.8c19.3-0.9,28.8,3.6,44.6,11c13.5,6.3,30.2,14.2,58.4,21.3c46.6,11.8,80.3,20.3,119.3,8.4
		c11.7-3.5,21.6-8.3,30.5-12.4c16.8-7.9,26.8-12.2,37.9-8.3c11.3,4,17.4,13.3,19.6,17.1c5.9,10.6,6.8,25.4,2.3,38.8
		c-1.2,3.4-2.6,6.6-4.3,9.3c0,0,0,0,0,0c-0.3,0.6-0.7,1.1-1.1,1.7c0,0-0.1,0.1-0.1,0.1c-0.3,0.5-0.7,0.9-1,1.4
		c-0.1,0.1-0.1,0.1-0.2,0.2c-0.4,0.5-0.7,0.9-1.1,1.3c0,0,0,0,0,0c-0.8,0.9-1.6,1.7-2.4,2.4c0,0-0.1,0.1-0.1,0.1
		c-0.3,0.3-0.7,0.6-1,0.8c-0.1,0.1-0.2,0.1-0.3,0.2c-0.3,0.2-0.6,0.4-0.9,0.6c-0.1,0.1-0.2,0.1-0.3,0.2c-0.4,0.2-0.8,0.4-1.2,0.6
		c-8,3.5-19.3-2.6-31.4-9c-1.7-0.9-3.4-1.8-5-2.7c0,0-0.1,0-0.2-0.1c-4.1-2.1-61.8-31-155.5-35.5c-3.5-0.2-6.8-0.3-9.9-0.3
		c-22,0-33.4,4.1-48.5,9.6c-13.8,5-31.8,11.5-67.2,17.5c0,0,0,0,0,0c-1.2,0.2-2.5,0.4-3.7,0.6c-0.3,0.1-0.6,0.1-0.9,0.2
		c-1,0.2-2.1,0.3-3.2,0.5c-0.3,0-0.6,0.1-0.9,0.1c-1.3,0.2-2.7,0.4-4.1,0.6c-0.3,0-0.6,0.1-0.8,0.1c-1.1,0.2-2.2,0.3-3.4,0.5
		c-0.5,0.1-0.9,0.1-1.4,0.2c-1,0.1-2.1,0.3-3.1,0.4c-0.4,0.1-0.9,0.1-1.3,0.2c-1.5,0.2-3,0.4-4.5,0.6c-59.4,7.6-86.8,10.5-114.8,0.6
		c-9.2-3.3-16.8-7-24-10.6c-2.6-1.3-5.2-2.6-7.8-3.8c-0.2-0.1-0.4-0.2-0.7-0.3c-0.6-0.3-1.2-0.6-1.9-0.9c-0.2-0.1-0.4-0.2-0.6-0.3
		c0,0-0.1,0-0.1,0c-11.8-5.2-23.9-8.6-39.4-5.4c-19.1,3.9-31.5,15.5-40.5,23.9c-4.8,4.5-10.3,9.7-12.7,9
		C90.8,357.6,83.6,341.7,85.8,325.9z M714.3,858.3c0,0.9,0,1.8-0.1,2.7c0,0.2,0,0.4,0,0.6c0,0.7-0.1,1.5-0.2,2.2c0,0.1,0,0.3,0,0.4
		c-0.1,0.9-0.2,1.7-0.3,2.5l0,0c-4.1,26.9-27.4,47.6-55.5,47.6H162.7c-31,0-56.1-25.2-56.1-56.1V510.6h607.8V858.3z M714.3,487.7
		H106.6v-77.9c0-31,25.2-56.1,56.1-56.1h19.4l0,0c2.5,1.2,5.1,2.5,7.9,3.8c6.1,3,13,6.4,21,9.6c1.8,0.7,3.6,1.4,5.5,2.1
		c34.3,12.2,66.7,8.1,125.3,0.6c1.7-0.2,3.3-0.4,4.9-0.6c0.3,0,0.6-0.1,0.9-0.1c1.3-0.2,2.6-0.3,3.8-0.5c0.4-0.1,0.7-0.1,1.1-0.2
		c1.4-0.2,2.9-0.4,4.2-0.6c0.5-0.1,0.9-0.1,1.4-0.2c0.9-0.1,1.8-0.3,2.6-0.4c0.7-0.1,1.4-0.2,2.1-0.3c0.6-0.1,1.1-0.2,1.6-0.3
		c2.8-0.5,5.6-0.9,8.2-1.4c0.2,0,0.4-0.1,0.5-0.1c0.9-0.2,1.8-0.3,2.7-0.5c0.1,0,0.2,0,0.2,0c2.7-0.5,5.4-1,7.9-1.5
		c0.2,0,0.5-0.1,0.7-0.1c0.8-0.2,1.5-0.3,2.2-0.4c0.1,0,0.1,0,0.2,0c1.3-0.3,2.6-0.5,3.9-0.8c0.5-0.1,1-0.2,1.5-0.3
		c0.4-0.1,0.9-0.2,1.3-0.3c0.9-0.2,1.8-0.4,2.6-0.6c0.1,0,0.2,0,0.2-0.1c1-0.2,2-0.5,3-0.7c0.1,0,0.3-0.1,0.4-0.1
		c4.2-1,8-2,11.4-2.9c0.1,0,0.1,0,0.2-0.1c0.8-0.2,1.7-0.5,2.5-0.7c0.2,0,0.3-0.1,0.5-0.1c0.5-0.1,1-0.3,1.5-0.4
		c1.9-0.5,3.7-1.1,5.4-1.6h164.3c31.4,8.5,49.5,17.5,50.9,18.2c0,0,0.1,0,0.1,0c1.6,0.8,3.2,1.7,4.8,2.6c0.6,0.3,1.2,0.6,1.8,1
		c0.2,0.1,0.4,0.2,0.6,0.3c0.6,0.3,1.2,0.6,1.8,0.9c0.1,0,0.1,0.1,0.2,0.1c0.6,0.3,1.3,0.7,1.9,1c0.2,0.1,0.3,0.2,0.5,0.3
		c0.6,0.3,1.1,0.6,1.7,0.8c0.1,0.1,0.2,0.1,0.4,0.2c0.7,0.3,1.3,0.6,2,1c0.2,0.1,0.3,0.2,0.5,0.2c0.6,0.3,1.1,0.5,1.7,0.8
		c0.1,0.1,0.3,0.1,0.4,0.2c0.7,0.3,1.3,0.6,2,0.9c0.2,0.1,0.3,0.1,0.5,0.2c0.6,0.2,1.1,0.5,1.7,0.7c0.2,0.1,0.3,0.1,0.5,0.2
		c0.7,0.3,1.4,0.5,2.1,0.8c0.1,0,0.3,0.1,0.4,0.1c0.6,0.2,1.2,0.4,1.8,0.6c0.2,0.1,0.3,0.1,0.5,0.2c0.7,0.2,1.4,0.4,2.1,0.6
		c0.1,0,0.2,0.1,0.3,0.1c0.6,0.2,1.2,0.3,1.9,0.5c0.2,0,0.3,0.1,0.5,0.1c0.7,0.2,1.4,0.3,2.1,0.4c0,0,0.1,0,0.1,0
		c0.7,0.1,1.3,0.2,2,0.3c0.2,0,0.3,0,0.5,0.1c1.4,0.2,2.9,0.3,4.4,0.3c0,0,0.2,0,0.2,0c0.1,0,0.3,0,0.4,0c0.3,0,0.7,0,1,0
		c0.2,0,0.5,0,0.7,0c0.3,0,0.7,0,1-0.1c0.2,0,0.5,0,0.7-0.1c0.3,0,0.7-0.1,1-0.1c0.2,0,0.5-0.1,0.7-0.1c0.3-0.1,0.7-0.1,1-0.2
		c0.2,0,0.5-0.1,0.7-0.1c0.3-0.1,0.7-0.2,1-0.2c0.2-0.1,0.5-0.1,0.7-0.2c0.4-0.1,0.7-0.2,1.1-0.3c0.2-0.1,0.5-0.1,0.7-0.2
		c0.4-0.1,0.8-0.3,1.2-0.4c0.2-0.1,0.4-0.1,0.6-0.2c0.5-0.2,1.1-0.4,1.6-0.7c0,0,0.1,0,0.1,0l0,0c0.6-0.3,1.3-0.6,1.9-0.9
		c0.1-0.1,0.3-0.1,0.4-0.2c0.6-0.3,1.3-0.7,1.9-1.1c0,0,0,0,0.1,0c0.6-0.4,1.2-0.8,1.8-1.2c0.1-0.1,0.2-0.1,0.3-0.2
		c0.6-0.4,1.3-0.9,1.9-1.4l0,0c0.6-0.5,1.2-1,1.8-1.5c0.1-0.1,0.1-0.1,0.2-0.2c0.1-0.1,0.2-0.2,0.3-0.3c0.1,0.1,0.1,0.2,0.2,0.3
		c0.3,0.5,0.7,0.9,1,1.4c0,0.1,0.1,0.1,0.1,0.2c3.9,6,6.6,12.7,8,19.7c0,0.1,0,0.1,0,0.2c0.1,0.5,0.2,1.1,0.3,1.7
		c0,0.3,0.1,0.5,0.1,0.8c0.1,0.5,0.1,0.9,0.2,1.4c0,0.4,0.1,0.7,0.1,1.1c0,0.4,0.1,0.8,0.1,1.2c0,0.5,0.1,0.9,0.1,1.4
		c0,0.3,0,0.6,0.1,0.9c0,0.8,0.1,1.6,0.1,2.4V487.7z M730.7,889.7C730.7,889.7,730.7,889.7,730.7,889.7c4.2-9.7,6.5-20.3,6.5-31.5
		V409.8c0-1.3,0-2.5-0.1-3.8c0-0.3,0-0.7-0.1-1c-0.1-1-0.1-2-0.2-3c0-0.3-0.1-0.6-0.1-0.8c-1.5-13.5-6.4-26.4-14.4-37.4
		c-0.1-0.1-0.2-0.3-0.3-0.4c-0.2-0.3-0.5-0.7-0.7-1c4.8-13.8,9-27.9,12.7-42.3c5.9,23.3,13.4,45.8,22.2,67.2
		c15.1,36.5,33.8,69,55.8,96.8c-4.2,0.9-8.4,1.7-12.7,2.5c-3.6,0.7-6.7,3-8.3,6.3c-1.6,3.3-1.5,7.2,0.2,10.4
		c15,27.9,32,53.4,50.5,76.3c-4.2,0.9-8.4,1.8-12.5,2.7c-3.6,0.7-6.7,3.2-8.2,6.6c-1.5,3.4-1.3,7.3,0.6,10.5
		c16.1,27.2,33.8,52.5,52.7,75.4c-5.6,1.3-11.2,2.6-16.8,3.7c-3.7,0.8-6.7,3.3-8.2,6.7c-1.5,3.4-1.2,7.4,0.8,10.6
		c16.7,26.6,34.8,51.5,53.9,74.4c-7.4,1.8-14.8,3.4-22.3,5c-3.7,0.8-6.8,3.3-8.2,6.8c-1.4,3.5-1.1,7.5,1,10.6
		c17.1,26.1,35.4,50.8,54.6,73.6C863.8,882.1,797.1,890,730.7,889.7z"/>
	<path class="st0" d="M776.2,554.6c-3.3,5.4-1.6,12.4,3.8,15.7c1.8,1.1,3.1,2.9,3.6,5c0.5,2.1,0.2,4.2-1,6.1c-2.3,3.8-7.2,5-11,2.7
		c-5.4-3.3-12.4-1.6-15.7,3.8c-3.3,5.4-1.6,12.4,3.8,15.7c4.9,3,10.4,4.5,16,4.5c2.4,0,4.9-0.3,7.3-0.9c8-1.9,14.8-6.9,19.1-13.9
		c4.3-7,5.6-15.3,3.7-23.3c-1.9-8-6.9-14.8-13.9-19.1C786.6,547.5,779.5,549.2,776.2,554.6z"/>
	<path class="st0" d="M804.8,730.6c-0.5,6.3,4.3,11.8,10.6,12.3c1.6,0.1,3,0.5,4.1,1.2c2.5,1.4,5.7,5,7,9.6c1,3.4,0.7,6.6-0.9,9.5
		c-1.8,3.2-4.9,5.5-8.6,6.4c-3.9,1-7.8,0.3-11.1-1.8c-5.3-3.4-12.4-1.9-15.8,3.4c-3.4,5.3-1.9,12.4,3.4,15.8c6,3.8,13,5.8,20,5.8
		c3,0,6-0.4,9-1.1c9.8-2.4,18.2-8.8,23-17.4c4.5-8.1,5.6-17.7,3-26.9c-2.8-9.9-9.5-18.6-17.9-23.3c-4.1-2.3-8.7-3.6-13.6-4
		C810.8,719.6,805.3,724.3,804.8,730.6z"/>
	<path class="st0" d="M760.4,713.3c1.1,0,2.1-0.2,3.2-0.5c15.1-4.4,29-12.5,40.2-23.3c16.1-15.6,23.3-33.3,26.4-45.4
		c1.6-6.1-2.1-12.4-8.2-13.9c-6.1-1.6-12.4,2.1-13.9,8.2c-2.4,9.2-7.9,22.8-20.2,34.7c-10.8,10.5-22.7,15.5-30.7,17.8
		c-6.1,1.8-9.5,8.1-7.8,14.2C750.9,710.1,755.5,713.3,760.4,713.3z"/>
	<path class="st0" d="M850.8,840.8c-13.3,1.3-26.3-0.2-38.7-4.5c-21.2-7.3-34.9-20.6-42.8-30.6c-3.9-5-11.1-5.8-16.1-1.9
		c-5,3.9-5.8,11.1-1.9,16.1c9.7,12.4,26.9,29,53.3,38.1c12,4.1,24.3,6.2,37,6.2c3.7,0,7.5-0.2,11.3-0.5c6.3-0.6,10.9-6.2,10.3-12.5
		C862.7,844.8,857.1,840.2,850.8,840.8z"/>
	<path class="st0" d="M760.1,507.6c7.5-6.8,13.4-14.8,17.6-24c4.6-10.1,7-21.3,6.8-32.4c-0.1-6.3-5.4-11.3-11.7-11.2
		c-6.3,0.1-11.3,5.3-11.2,11.7c0.1,7.7-1.5,15.5-4.7,22.5c-2.9,6.3-7,11.9-12.2,16.6c-4.7,4.2-5,11.5-0.8,16.2
		c2.3,2.5,5.4,3.8,8.5,3.8C755.1,510.6,757.9,509.6,760.1,507.6z"/>
	<path class="st0" d="M709.6,172.4c-6-1.9-12.5,1.3-14.4,7.3l-17.1,52.6c-2,6,1.3,12.5,7.3,14.4c1.2,0.4,2.4,0.6,3.5,0.6
		c4.8,0,9.3-3.1,10.9-7.9l17.1-52.6C718.9,180.8,715.6,174.4,709.6,172.4z"/>
	<path class="st0" d="M771.8,245.2c2,1.5,4.4,2.2,6.7,2.2c3.5,0,7-1.6,9.3-4.7c3.7-5.1,2.6-12.3-2.5-16l-44.8-32.5
		c-5.1-3.7-12.3-2.6-16,2.5c-3.7,5.1-2.6,12.3,2.5,16L771.8,245.2z"/>
	<path class="st0" d="M815.4,144.1c-3.7-5.1-10.9-6.2-16-2.5L754.7,174c-5.1,3.7-6.2,10.9-2.5,16c2.2,3.1,5.7,4.7,9.3,4.7
		c2.3,0,4.7-0.7,6.7-2.2l44.8-32.5C818,156.3,819.1,149.2,815.4,144.1z"/>
	<path class="st0" d="M730.2,87.3c-6,2-9.3,8.4-7.3,14.4l17.1,52.6c1.6,4.8,6.1,7.9,10.9,7.9c1.2,0,2.4-0.2,3.5-0.6
		c6-2,9.3-8.4,7.3-14.4l-17.1-52.6C742.7,88.6,736.2,85.3,730.2,87.3z"/>
	<path class="st0" d="M728.1,150.8c0-6.3-5.1-11.4-11.4-11.4h-55.3c-6.3,0-11.4,5.1-11.4,11.4c0,6.3,5.1,11.4,11.4,11.4h55.3
		C722.9,162.2,728.1,157.1,728.1,150.8z"/>
</g>
</svg>
