<?xml version="1.0" encoding="utf-8"?>
<!-- Generator: Adobe Illustrator 25.0.1, SVG Export Plug-In . SVG Version: 6.00 Build 0)  -->
<svg version="1.1" id="Layer_1" xmlns="http://www.w3.org/2000/svg" xmlns:xlink="http://www.w3.org/1999/xlink" x="0px" y="0px"
	 viewBox="0 0 1024 1024" style="enable-background:new 0 0 1024 1024;" xml:space="preserve">
<style type="text/css">
	.st0{fill:#FFFFFF;}
	.st1{fill:#25333F;}
</style>
<g>
	<g>
		<path class="st0" d="M69.9,647.8c0,0,116.1-126,290.3-102S674,736.2,939.3,717.3"/>
		<path class="st1" d="M898.1,726.4c-142.1,0-248.2-52.7-342.8-99.7c-66.4-33-129.1-64.1-196.1-73.4
			c-168-23.4-282.6,98.4-283.7,99.6c-2.8,3.1-7.6,3.2-10.7,0.4c-3.1-2.8-3.3-7.6-0.4-10.7c1.2-1.3,120.9-128.5,296.9-104.4
			c69.5,9.6,133.2,41.3,200.7,74.8c101.9,50.7,217.7,107.9,376.8,96.7c4-0.6,7.8,2.8,8.1,7s-2.8,7.8-7,8.1
			C925.6,725.9,911.7,726.4,898.1,726.4z"/>
	</g>
	<g>
		<path class="st1" d="M802.4,267.9c-2.5-4.5-5.2-9-8-13.4c15-8.2,25.2-24.1,25.2-42.3c0-26.6-21.6-48.2-48.2-48.2
			s-48.2,21.6-48.2,48.2c0,18.2,10.2,34.1,25.2,42.3c-2.8,4.4-5.5,8.9-8,13.4c-5.5,10-16.1,32-24.5,66.9
			c-6.8,28.1-10.5,57.3-10.9,86.9c-0.1,6.3,4.1,12,10.2,13.9c18.3,5.6,37.2,8.4,56.3,8.4c0,0,0,0,0,0c19,0,38-2.8,56.2-8.4
			c6.2-1.9,10.3-7.7,10.2-14.1c-0.9-31.7-4.5-60.9-10.7-86.7C818.5,299.9,807.9,277.9,802.4,267.9z M732.4,212.2
			c0-21.5,17.5-38.9,38.9-38.9s38.9,17.5,38.9,38.9c0,16.7-10.6,31-25.4,36.5c-0.1,0-0.2,0.1-0.2,0.1c-0.5,0.2-1,0.4-1.5,0.5
			c-0.1,0-0.2,0.1-0.3,0.1c-0.5,0.2-1,0.3-1.5,0.4c-0.1,0-0.2,0.1-0.3,0.1c-0.5,0.1-1,0.2-1.5,0.3c-0.1,0-0.2,0.1-0.4,0.1
			c-0.5,0.1-1,0.2-1.5,0.3c-0.1,0-0.3,0-0.4,0.1c-0.5,0.1-1,0.1-1.5,0.2c-0.2,0-0.3,0-0.5,0.1c-0.5,0-1,0.1-1.5,0.1
			c-0.2,0-0.3,0-0.5,0c-0.6,0-1.3,0-1.9,0c-0.7,0-1.3,0-1.9,0c-0.2,0-0.3,0-0.5,0c-0.5,0-1-0.1-1.5-0.1c-0.2,0-0.3,0-0.5-0.1
			c-0.5-0.1-1-0.1-1.5-0.2c-0.1,0-0.3,0-0.4-0.1c-0.5-0.1-1-0.2-1.5-0.3c-0.1,0-0.2-0.1-0.4-0.1c-0.5-0.1-1-0.2-1.5-0.3
			c-0.1,0-0.2-0.1-0.3-0.1c-0.5-0.1-1-0.3-1.5-0.4c-0.1,0-0.2-0.1-0.3-0.1c-0.5-0.2-1-0.3-1.5-0.5c-0.1,0-0.2-0.1-0.2-0.1
			C743,243.1,732.4,228.9,732.4,212.2z M824.8,426.7c-17.4,5.3-35.4,8-53.5,8c0,0,0,0,0,0c-18.2,0-36.2-2.7-53.6-8
			c-2.1-0.6-3.6-2.6-3.6-4.8c0.4-28.9,4-57.4,10.6-84.8c8.2-33.9,18.3-55,23.6-64.6c2.7-4.8,5.5-9.6,8.6-14.2
			c0.3,0.1,0.6,0.2,0.8,0.2c0.1,0,0.3,0.1,0.4,0.1c0.3,0.1,0.6,0.2,0.9,0.2c0.2,0,0.4,0.1,0.6,0.1c0.5,0.1,0.9,0.2,1.4,0.3
			c0.2,0,0.5,0.1,0.7,0.1c0.3,0.1,0.5,0.1,0.8,0.2c0.3,0.1,0.6,0.1,0.9,0.2c0.3,0.1,0.6,0.1,1,0.1c0.3,0,0.7,0.1,1,0.1
			c0.2,0,0.4,0,0.6,0.1c0.5,0.1,0.9,0.1,1.4,0.1c0.1,0,0.2,0,0.3,0c0.5,0,0.9,0.1,1.4,0.1c0.2,0,0.3,0,0.5,0c0.5,0,1.1,0,1.6,0
			s1.1,0,1.6,0c0.2,0,0.3,0,0.5,0c0.5,0,0.9,0,1.4-0.1c0.1,0,0.2,0,0.3,0c0.5,0,0.9-0.1,1.4-0.1c0.2,0,0.4,0,0.6-0.1
			c0.3,0,0.7-0.1,1-0.1c0.3,0,0.6-0.1,1-0.1c0.3,0,0.6-0.1,0.9-0.2c0.3,0,0.5-0.1,0.8-0.2c0.2,0,0.5-0.1,0.7-0.1
			c0.5-0.1,0.9-0.2,1.4-0.3c0.2,0,0.4-0.1,0.6-0.1c0.3-0.1,0.6-0.2,0.9-0.2c0.1,0,0.3-0.1,0.4-0.1c0.3-0.1,0.6-0.2,0.8-0.2
			c3,4.6,5.9,9.4,8.6,14.2c5.3,9.6,15.4,30.7,23.6,64.6c6,24.8,9.6,54.1,10.5,84.7C828.4,424,827,426,824.8,426.7z"/>
		<path class="st1" d="M645.6,213.9c0.9,0.5,2.4,4.1,3.5,6.8c1.3,3.2,2.9,7.1,5.3,11.3c12.5,22.1,37,37.3,72.8,44.9
			c2.5,0.5,5-1.1,5.5-3.6c0.5-2.5-1.1-5-3.6-5.5c-33.1-7.1-55.5-20.7-66.7-40.4c-2.1-3.8-3.6-7.2-4.8-10.3
			c-2.5-6-4.7-11.3-10.3-12.4c-5.6-1.1-11.9,2.1-18.5,9.6c-5.3,6-11.1,15.1-16.8,26.1c-11.5,22.4-21.7,51.6-27.3,78.1
			c-1.5,7.3-2.8,14.7-3.8,22c-0.3,2.5,1.5,4.9,4,5.2c0.2,0,0.4,0,0.6,0c2.3,0,4.3-1.7,4.6-4c0.9-7.1,2.2-14.3,3.7-21.3
			c5.4-25.7,15.3-54.1,26.5-75.8C632.6,220.9,642.1,213.2,645.6,213.9z"/>
		<path class="st1" d="M639.7,255.2c-2.2-1.3-5.1-0.5-6.4,1.7c-12.5,21.6-24,52.7-30,81.3c-0.5,2.5,1.1,5,3.6,5.5
			c0.3,0.1,0.6,0.1,1,0.1c2.2,0,4.1-1.5,4.5-3.7c5.9-27.7,17-57.8,29-78.6C642.7,259.4,642,256.5,639.7,255.2z"/>
		<path class="st1" d="M658.2,269.8c-2.2-1.3-5.1-0.5-6.4,1.7c-9.9,17.1-19,41.8-23.8,64.5c-0.5,2.5,1.1,5,3.6,5.5
			c0.3,0.1,0.6,0.1,1,0.1c2.2,0,4.1-1.5,4.5-3.7c4.6-21.8,13.3-45.5,22.8-61.8C661.2,273.9,660.4,271.1,658.2,269.8z"/>
		<path class="st1" d="M677.9,281.2c-2.2-1.3-5.1-0.5-6.4,1.7c-7.8,13.6-15.1,33.1-18.9,51c-0.5,2.5,1.1,5,3.6,5.5
			c0.3,0.1,0.6,0.1,1,0.1c2.2,0,4.1-1.5,4.5-3.7c3.6-17,10.4-35.6,17.8-48.3C680.9,285.4,680.1,282.5,677.9,281.2z"/>
		<path class="st1" d="M697.7,293c-2.2-1.3-5.1-0.5-6.4,1.7c-5.7,9.8-10.9,23.9-13.6,36.8c-0.5,2.5,1.1,5,3.6,5.5
			c0.3,0.1,0.6,0.1,1,0.1c2.2,0,4.1-1.5,4.5-3.7c2.5-12,7.4-25.1,12.6-34.1C700.7,297.1,699.9,294.3,697.7,293z"/>
		<path class="st1" d="M930.5,240.5c-5.7-11.1-11.5-20.1-16.8-26.1c-6.6-7.5-12.9-10.8-18.5-9.6c-5.6,1.1-7.8,6.3-10.3,12.4
			c-1.3,3.1-2.7,6.6-4.8,10.3c-11.1,19.7-33.6,33.3-66.7,40.4c-2.5,0.5-4.1,3-3.6,5.5c0.5,2.5,3,4.1,5.5,3.6
			c35.8-7.7,60.3-22.8,72.8-44.9c2.4-4.2,4-8.2,5.3-11.3c1.1-2.7,2.6-6.4,3.5-6.8c3.4-0.7,13,7,25.2,30.9c11.1,21.7,21,50,26.5,75.8
			c1.5,7,2.7,14.2,3.7,21.3c0.3,2.3,2.3,4,4.6,4c0.2,0,0.4,0,0.6,0c2.5-0.3,4.3-2.7,4-5.2c-1-7.3-2.2-14.8-3.8-22
			C952.2,292.1,942,262.9,930.5,240.5z"/>
		<path class="st1" d="M909.2,256.9c-1.3-2.2-4.1-3-6.4-1.7c-2.2,1.3-3,4.1-1.7,6.4c12,20.8,23.1,50.9,29,78.6
			c0.5,2.2,2.4,3.7,4.5,3.7c0.3,0,0.6,0,1-0.1c2.5-0.5,4.1-3,3.6-5.5C933.2,309.6,921.7,278.5,909.2,256.9z"/>
		<path class="st1" d="M890.8,271.5c-1.3-2.2-4.1-3-6.4-1.7c-2.2,1.3-3,4.1-1.7,6.4c9.4,16.3,18.2,40,22.8,61.8
			c0.5,2.2,2.4,3.7,4.5,3.7c0.3,0,0.6,0,1-0.1c2.5-0.5,4.1-3,3.6-5.5C909.8,313.3,900.7,288.6,890.8,271.5z"/>
		<path class="st1" d="M871.1,282.9c-1.3-2.2-4.1-3-6.4-1.7c-2.2,1.3-3,4.1-1.7,6.4c7.4,12.8,14.2,31.3,17.8,48.3
			c0.5,2.2,2.4,3.7,4.5,3.7c0.3,0,0.6,0,1-0.1c2.5-0.5,4.1-3,3.6-5.5C886.2,316,878.9,296.5,871.1,282.9z"/>
		<path class="st1" d="M851.3,294.7c-1.3-2.2-4.1-3-6.4-1.7c-2.2,1.3-3,4.1-1.7,6.4c5.2,9,10,22,12.5,34.1c0.5,2.2,2.4,3.7,4.5,3.7
			c0.3,0,0.6,0,1-0.1c2.5-0.5,4.1-3,3.6-5.5C862.1,318.6,856.9,304.5,851.3,294.7z"/>
		<path class="st1" d="M771.3,119.7c-12.3,0-24,1.1-32.8,3.1c-7.2,1.6-16.8,4.6-16.8,11.7s9.6,10,16.8,11.7c8.8,2,20.5,3.1,32.8,3.1
			s24-1.1,32.8-3.1c7.2-1.6,16.8-4.6,16.8-11.7s-9.6-10-16.8-11.7C795.3,120.8,783.6,119.7,771.3,119.7z M771.3,139.8
			c-20.8,0-34.2-3.1-38.9-5.4c4.7-2.3,18.1-5.4,38.9-5.4s34.2,3.1,38.9,5.4C805.5,136.7,792.1,139.8,771.3,139.8z"/>
	</g>
	<g>
		<g>
			<path class="st0" d="M310.8,611.6c-20.4,6.2-41.6,9.4-63,9.4c0,0,0,0,0,0c-21.4,0-42.6-3.2-63.1-9.4c-2.5-0.8-4.2-3.1-4.2-5.7
				c0.5-34,4.7-67.6,12.5-99.8c9.7-39.8,21.6-64.7,27.8-76c3.1-5.7,6.5-11.3,10.1-16.7c0.3,0.1,0.7,0.2,1,0.3
				c0.2,0.1,0.3,0.1,0.5,0.2c0.4,0.1,0.7,0.2,1.1,0.3c0.2,0.1,0.4,0.1,0.7,0.2c0.6,0.1,1.1,0.3,1.7,0.4c0.3,0.1,0.5,0.1,0.8,0.2
				c0.3,0.1,0.6,0.1,0.9,0.2c0.4,0.1,0.7,0.1,1.1,0.2c0.4,0.1,0.8,0.1,1.1,0.2c0.4,0.1,0.8,0.1,1.2,0.2c0.2,0,0.5,0.1,0.7,0.1
				c0.6,0.1,1.1,0.1,1.7,0.2c0.1,0,0.3,0,0.4,0c0.5,0,1.1,0.1,1.6,0.1c0.2,0,0.4,0,0.5,0c0.6,0,1.3,0,1.9,0c0.6,0,1.3,0,1.9,0
				c0.2,0,0.4,0,0.5,0c0.5,0,1.1-0.1,1.6-0.1c0.1,0,0.3,0,0.4,0c0.6,0,1.1-0.1,1.7-0.2c0.2,0,0.5-0.1,0.7-0.1c0.4,0,0.8-0.1,1.2-0.2
				c0.4-0.1,0.8-0.1,1.1-0.2c0.4-0.1,0.7-0.1,1.1-0.2c0.3-0.1,0.6-0.1,0.9-0.2c0.3-0.1,0.5-0.1,0.8-0.2c0.6-0.1,1.1-0.2,1.7-0.4
				c0.2-0.1,0.4-0.1,0.7-0.2c0.4-0.1,0.7-0.2,1.1-0.3c0.2,0,0.3-0.1,0.5-0.2c0.3-0.1,0.7-0.2,1-0.3c3.6,5.5,7,11.1,10.1,16.7
				c6.2,11.3,18.2,36.1,27.8,76c7.1,29.2,11.3,63.7,12.3,99.7C315.1,608.4,313.4,610.8,310.8,611.6z"/>
			<path class="st1" d="M247.8,628.5c-22.2,0-44.1-3.3-65.3-9.7c-5.7-1.7-9.6-7.1-9.5-13c0.4-34.6,4.7-68.7,12.7-101.5
				c9.9-40.7,22.2-66.2,28.6-77.9c3.2-5.8,6.7-11.6,10.4-17.2l3-4.5l10,2.5l1.2,7.9l1.2-7.5l1.2,7.8l1.4-7.5l4.5,0.4l7.3-0.4
				l2.9,7.2l-0.6-7.6l3.5,7l-1.6-7.4l3.2,7l-1.2-7.5l3.4,6.9l-1-7.6l5.3-1.4l3,4.6c3.7,5.6,7.2,11.4,10.4,17.2
				c6.4,11.6,18.7,37,28.6,77.9c7.2,29.7,11.6,64.8,12.6,101.3c0.2,6-3.7,11.5-9.6,13.2C291.8,625.3,269.9,628.5,247.8,628.5z
				 M188.1,604.7c38.7,11.6,80.5,11.6,119.3,0c-1-35-5.2-68.5-12.1-96.9c-9.5-39.1-21-63.2-27.1-74.1c-2.2-4-4.5-7.9-6.9-11.7
				l-4.3,0.8l-2.7-7.3l0.6,7.5l-2.6,0.2c-0.4,0-1.2,0.1-2,0.1l-2.5,0.1l-2.2,0c-1,0-1.8-0.1-2.6-0.2l-8.6-1.2
				c-2.4,3.8-4.7,7.7-6.9,11.7c-6.1,11-17.6,35.2-27.1,74.1C192.8,539.1,188.6,571.7,188.1,604.7z M307.4,606
				C307.4,606,307.4,606,307.4,606S307.4,606,307.4,606z M308.6,604.3L308.6,604.3C308.6,604.3,308.6,604.3,308.6,604.3L308.6,604.3
				z"/>
		</g>
		<g>
			<circle class="st0" cx="247.8" cy="375.2" r="45.8"/>
			<path class="st1" d="M247.8,428.5c-29.4,0-53.4-23.9-53.4-53.3c0-29.4,23.9-53.4,53.4-53.4s53.4,23.9,53.4,53.4
				C301.1,404.6,277.2,428.5,247.8,428.5z M247.8,337c-21.1,0-38.2,17.1-38.2,38.2c0,21.1,17.1,38.2,38.2,38.2s38.2-17.1,38.2-38.2
				C286,354.1,268.9,337,247.8,337z"/>
		</g>
	</g>
	<g>
		<g>
			<path class="st0" d="M551.5,644c-15.2,4.6-30.9,6.9-46.8,7c0,0,0,0,0,0c-15.9,0-31.7-2.3-46.9-7c-1.9-0.6-3.1-2.3-3.1-4.2
				c0.3-25.2,3.5-50.2,9.3-74.1c7.2-29.6,16-48.1,20.7-56.4c2.3-4.2,4.8-8.4,7.5-12.4c0.2,0.1,0.5,0.1,0.7,0.2
				c0.1,0,0.3,0.1,0.4,0.1c0.3,0.1,0.5,0.1,0.8,0.2c0.2,0,0.3,0.1,0.5,0.1c0.4,0.1,0.8,0.2,1.2,0.3c0.2,0,0.4,0.1,0.6,0.1
				c0.2,0,0.5,0.1,0.7,0.1c0.3,0,0.5,0.1,0.8,0.1c0.3,0,0.6,0.1,0.8,0.1c0.3,0,0.6,0.1,0.9,0.1c0.2,0,0.4,0,0.5,0.1
				c0.4,0,0.8,0.1,1.2,0.1c0.1,0,0.2,0,0.3,0c0.4,0,0.8,0.1,1.2,0.1c0.1,0,0.3,0,0.4,0c0.5,0,0.9,0,1.4,0s0.9,0,1.4,0
				c0.1,0,0.3,0,0.4,0c0.4,0,0.8,0,1.2-0.1c0.1,0,0.2,0,0.3,0c0.4,0,0.8-0.1,1.2-0.1c0.2,0,0.4,0,0.5-0.1c0.3,0,0.6-0.1,0.9-0.1
				c0.3,0,0.6-0.1,0.8-0.1c0.3,0,0.5-0.1,0.8-0.1c0.2,0,0.5-0.1,0.7-0.1c0.2,0,0.4-0.1,0.6-0.1c0.4-0.1,0.8-0.2,1.2-0.3
				c0.2,0,0.3-0.1,0.5-0.1c0.3-0.1,0.5-0.1,0.8-0.2c0.1,0,0.3-0.1,0.4-0.1c0.2-0.1,0.5-0.1,0.7-0.2c2.7,4,5.2,8.2,7.5,12.4
				c4.6,8.4,13.5,26.8,20.7,56.4c5.3,21.7,8.4,47.3,9.2,74.1C554.6,641.7,553.3,643.5,551.5,644z"/>
			<path class="st1" d="M504.7,658.6c-16.6,0-33.1-2.5-49.1-7.3c-5-1.5-8.5-6.2-8.5-11.4c0.4-25.9,3.5-51.4,9.5-75.9
				c7.4-30.4,16.6-49.6,21.4-58.3c2.4-4.4,5.1-8.7,7.8-12.9l3.3-5.1l9.8,3.1l0.8,7.7l1.2-7.5l3.5,0.3l8.9-1.2l5.7-2.1l4.6,4.7
				c2.7,4.2,5.4,8.6,7.8,12.9c4.8,8.7,14,27.9,21.4,58.3c5.4,22.1,8.6,48.3,9.4,75.6c0.1,5.4-3.3,10.2-8.5,11.7
				C537.8,656.1,521.3,658.6,504.7,658.6z M462.3,637.4c27.8,8,57.3,7.9,84.7,0.1c-0.9-25.4-3.9-49.6-8.9-70
				c-6.9-28.6-15.5-46.5-19.9-54.5c-1.4-2.5-2.8-5-4.4-7.5l-6,0.7c-0.4,0.1-0.9,0.1-1.6,0.1l-10.5-0.8c-1.5,2.5-3,5-4.4,7.5
				c-4.5,8.1-13,25.9-19.9,54.5C465.8,590.1,462.8,613.6,462.3,637.4z M547,639.9L547,639.9L547,639.9z"/>
		</g>
		<g>
			<circle class="st0" cx="504.6" cy="468.5" r="34"/>
			<path class="st1" d="M504.6,510.1c-22.9,0-41.6-18.6-41.6-41.6s18.6-41.6,41.6-41.6s41.6,18.6,41.6,41.6S527.6,510.1,504.6,510.1
				z M504.6,442.1c-14.6,0-26.4,11.8-26.4,26.4s11.8,26.4,26.4,26.4c14.6,0,26.4-11.8,26.4-26.4S519.2,442.1,504.6,442.1z"/>
		</g>
	</g>
	<g>
		<g>
			<path class="st0" d="M469.6,710.3c-20.4,6.2-41.6,9.4-63,9.4c0,0,0,0,0,0c-21.4,0-42.6-3.2-63.1-9.4c-2.5-0.8-4.2-3.1-4.2-5.7
				c0.5-34,4.7-67.6,12.5-99.8c9.7-39.8,21.6-64.7,27.8-76c3.1-5.7,6.5-11.3,10.1-16.7c0.3,0.1,0.7,0.2,1,0.3
				c0.2,0.1,0.3,0.1,0.5,0.2c0.4,0.1,0.7,0.2,1.1,0.3c0.2,0.1,0.4,0.1,0.7,0.2c0.6,0.1,1.1,0.3,1.7,0.4c0.3,0.1,0.5,0.1,0.8,0.2
				c0.3,0.1,0.6,0.1,0.9,0.2c0.4,0.1,0.7,0.1,1.1,0.2c0.4,0.1,0.8,0.1,1.1,0.2c0.4,0.1,0.8,0.1,1.2,0.2c0.2,0,0.5,0.1,0.7,0.1
				c0.6,0.1,1.1,0.1,1.7,0.2c0.1,0,0.3,0,0.4,0c0.5,0,1.1,0.1,1.6,0.1c0.2,0,0.4,0,0.5,0c0.6,0,1.3,0,1.9,0s1.3,0,1.9,0
				c0.2,0,0.4,0,0.5,0c0.5,0,1.1-0.1,1.6-0.1c0.1,0,0.3,0,0.4,0c0.6,0,1.1-0.1,1.7-0.2c0.2,0,0.5-0.1,0.7-0.1c0.4,0,0.8-0.1,1.2-0.2
				c0.4-0.1,0.8-0.1,1.1-0.2c0.4-0.1,0.7-0.1,1.1-0.2c0.3-0.1,0.6-0.1,0.9-0.2c0.3-0.1,0.5-0.1,0.8-0.2c0.6-0.1,1.1-0.2,1.7-0.4
				c0.2-0.1,0.4-0.1,0.7-0.2c0.4-0.1,0.7-0.2,1.1-0.3c0.2,0,0.3-0.1,0.5-0.2c0.3-0.1,0.7-0.2,1-0.3c3.6,5.5,7,11.1,10.1,16.7
				c6.2,11.3,18.2,36.1,27.8,76c7.1,29.2,11.3,63.7,12.3,99.7C473.9,707.2,472.2,709.5,469.6,710.3z"/>
			<path class="st1" d="M406.7,727.2c-22.1,0-44.1-3.3-65.3-9.7c-5.7-1.7-9.6-7-9.6-13c0.5-34.6,4.8-68.7,12.7-101.5
				c9.8-40.6,22.1-66.2,28.6-77.9c3.2-5.8,6.7-11.6,10.4-17.2l3.3-5l7.7,2.6l0.2,7.8l1.7-7.4l1.2,7.9l1.2-7.5l1.2,7.8l0.9-7.5
				l6.2,0.4l3.9-0.1l2,7.4l-0.1-7.6l2,7.4l0-7.7l4.5-0.9l3.6,6.8l-1.7-7.4l5.4-1.7l3.4,4.7c3.7,5.6,7.2,11.4,10.4,17.2
				c6.4,11.7,18.7,37.3,28.6,77.9c7.2,29.6,11.5,64.6,12.6,101.3c0.1,6.1-3.8,11.5-9.6,13.2l0,0C450.7,724,428.8,727.2,406.7,727.2z
				 M346.9,703.4c39.1,11.6,80.8,11.5,119.3,0.1c-1.1-35.1-5.2-68.6-12.1-96.9c-9.4-38.8-21-63.1-27.1-74.1c-2.2-4-4.5-7.9-6.9-11.7
				l-1.6,0.3l-2.7-7.1l0.1,7.7l-22.8-0.8c-2.4,3.8-4.7,7.7-6.9,11.7c-6.1,11-17.7,35.3-27.1,74.1
				C351.6,637.8,347.4,670.4,346.9,703.4z M345.7,703C345.7,703,345.7,703,345.7,703S345.7,703,345.7,703z"/>
		</g>
		<g>
			<circle class="st0" cx="406.6" cy="473.9" r="45.8"/>
			<path class="st1" d="M406.6,527.3c-29.4,0-53.4-23.9-53.4-53.4c0-29.4,23.9-53.3,53.4-53.3c29.4,0,53.3,23.9,53.3,53.3
				C459.9,503.3,436,527.3,406.6,527.3z M406.6,435.7c-21.1,0-38.2,17.1-38.2,38.2c0,21.1,17.1,38.2,38.2,38.2
				c21.1,0,38.2-17.1,38.2-38.2C444.8,452.8,427.6,435.7,406.6,435.7z"/>
		</g>
	</g>
	<g>
		<path class="st1" d="M572.2,703.4c-4.5,4.1-8.9,7.7-8.9,7.7l-42.2,42.4c-4.2,4.2-4.2,11.1,0,15.3l16.6,16.6
			c3.8,3.8,9.9,4.2,14.2,1l19.9-15.1c2.4-1.6,4.8-3.1,6.3-3.1c0,0,0,0,0,0c1.1,0,2.8,1,5.3,3.3l22.1,22.1c2.2,2.2,3.4,5.2,3.4,8.3
			l-8.5,58.4c0,6.3,5.1,11.4,11.4,11.4h29.9c6.3,0,11.4-5.1,11.4-11.4v-35.4c0-1.7,1.4-3.1,3.1-3.1h40.2c1.7,0,3.1,1.4,3.1,3.1v35.4
			c0,6.3,5.1,11.4,11.4,11.4h29.9c6.3,0,11.4-5.1,11.4-11.4l-8.5-82.6c0-20.6-16.8-37.4-37.4-37.4l-83.3-2.7l-16.2-16.2c0,0,0,0,0,0
			l-10.3-9.8c-3.7-2.8-7.9-6.5-10.2-8.5C582.9,700.2,575.8,700,572.2,703.4z M587.3,714.5c6,6,13.4,12.7,13.4,12.7l17.5,17.5
			c0.8,0.8,1.9,1.2,3,1.2l85,2.7c15.9,0,28.9,13,28.9,28.9l8.5,82.6c0,1.6-1.3,2.9-2.9,2.9h-29.9c-1.6,0-2.9-1.3-2.9-2.9v-35.4
			c0-6.4-5.2-11.6-11.6-11.6h-40.2c-6.4,0-11.6,5.2-11.6,11.6v35.4c0,1.6-1.3,2.9-2.9,2.9h-29.9c-1.6,0-2.9-1.3-2.9-2.9l8.5-58.4
			c0-5.4-2.1-10.5-5.9-14.3l-22.2-22.2c-0.1-0.1-0.1-0.1-0.2-0.2c-8.7-7.8-13.7-6.7-22.3-1c-0.1,0-0.1,0.1-0.2,0.1l-20,15.2
			c-0.9,0.7-2.2,0.6-3-0.2l-16.6-16.6c-0.4-0.4-0.7-1-0.7-1.6c0-0.6,0.2-1.2,0.7-1.6c0,0,40.4-40.5,45.2-45.4
			C578.4,708,581.3,708.5,587.3,714.5z"/>
		<g>
			<path class="st0" d="M587.3,714.5c6,6,13.4,12.7,13.4,12.7l17.5,17.5c0.8,0.8,1.9,1.2,3,1.2l85,2.7c15.9,0,28.9,13,28.9,28.9
				l8.5,82.6c0,1.6-1.3,2.9-2.9,2.9h-29.9c-1.6,0-2.9-1.3-2.9-2.9v-35.4c0-6.4-5.2-11.6-11.6-11.6h-40.2c-6.4,0-11.6,5.2-11.6,11.6
				v35.4c0,1.6-1.3,2.9-2.9,2.9h-29.9c-1.6,0-2.9-1.3-2.9-2.9l8.5-58.4c0-5.4-2.1-10.5-5.9-14.3l-22.2-22.2
				c-0.1-0.1-0.1-0.1-0.2-0.2c-8.7-7.8-13.7-6.7-22.3-1c-0.1,0-0.1,0.1-0.2,0.1l-20,15.2c-0.9,0.7-2.2,0.6-3-0.2l-16.6-16.6
				c-0.4-0.4-0.7-1-0.7-1.6c0-0.6,0.2-1.2,0.7-1.6c0,0,40.4-40.5,45.2-45.4C578.4,708,581.3,708.5,587.3,714.5z"/>
		</g>
	</g>
	<g>
		<path class="st1" d="M880.4,703.4c-2.7,2.4-7.8,6.7-12.1,10.1l-12.3,11.6c0,0,0,0-0.1,0.1l-19.3,19.3l-99.2,3.2
			c-24.6,0-44.6,20-44.6,44.6l-10.2,98.4c0,7.5,6.1,13.6,13.6,13.6h35.6c7.5,0,13.6-6.1,13.6-13.6v-42.2c0-2,1.6-3.7,3.6-3.7h47.9
			c2,0,3.6,1.6,3.6,3.7v42.2c0,7.5,6.1,13.6,13.6,13.6h35.6c7.5,0,13.6-6.1,13.6-13.6l-10.2-69.6c0-3.7,1.5-7.3,4.1-9.9l26.3-26.3
			c3-2.7,5-3.9,6.4-3.9c0,0,0,0,0,0c1.8,0,4.6,1.8,7.5,3.7l23.7,18c5.1,3.9,12.4,3.4,16.9-1.2l19.8-19.8c5-5,5-13.2,0-18.2
			L907.5,713c0,0-5.2-4.3-10.6-9.2C892.6,699.8,884.2,700.1,880.4,703.4z M896.8,716.6c5.8,5.8,53.9,54.1,53.9,54.1
			c0.5,0.5,0.8,1.2,0.8,1.9c0,0.7-0.3,1.4-0.8,1.9l-19.8,19.8c-1,1-2.5,1.1-3.6,0.2l-23.8-18.1c-0.1-0.1-0.2-0.1-0.2-0.2
			c-10.2-6.8-16.2-8.2-26.6,1.1c-0.1,0.1-0.1,0.1-0.2,0.2L850.1,804c-4.6,4.6-7.1,10.6-7.1,17.1l10.2,69.6c0,1.9-1.5,3.4-3.4,3.4
			h-35.6c-1.9,0-3.4-1.5-3.4-3.4v-42.2c0-7.6-6.2-13.8-13.8-13.8H749c-7.6,0-13.8,6.2-13.8,13.8v42.2c0,1.9-1.5,3.4-3.4,3.4h-35.6
			c-1.9,0-3.4-1.5-3.4-3.4l10.2-98.4c0-19,15.4-34.4,34.4-34.4l101.3-3.2c1.3,0,2.6-0.5,3.6-1.5l20.8-20.8c0,0,8.8-8,16-15.2
			C886.2,710,889.6,709.4,896.8,716.6z"/>
		<g>
			<path class="st0" d="M896.8,716.6c5.8,5.8,53.9,54.1,53.9,54.1c0.5,0.5,0.8,1.2,0.8,1.9c0,0.7-0.3,1.4-0.8,1.9l-19.8,19.8
				c-1,1-2.5,1.1-3.6,0.2l-23.8-18.1c-0.1-0.1-0.2-0.1-0.2-0.2c-10.2-6.8-16.2-8.2-26.6,1.1c-0.1,0.1-0.1,0.1-0.2,0.2L850.1,804
				c-4.6,4.6-7.1,10.6-7.1,17.1l10.2,69.6c0,1.9-1.5,3.4-3.4,3.4h-35.6c-1.9,0-3.4-1.5-3.4-3.4v-42.2c0-7.6-6.2-13.8-13.8-13.8H749
				c-7.6,0-13.8,6.2-13.8,13.8v42.2c0,1.9-1.5,3.4-3.4,3.4h-35.6c-1.9,0-3.4-1.5-3.4-3.4l10.2-98.4c0-19,15.4-34.4,34.4-34.4
				l101.3-3.2c1.3,0,2.6-0.5,3.6-1.5l20.8-20.8c0,0,8.8-8,16-15.2C886.2,710,889.6,709.4,896.8,716.6z"/>
		</g>
	</g>
</g>
</svg>
