<?xml version="1.0" encoding="utf-8"?>
<!-- Generator: Adobe Illustrator 25.0.1, SVG Export Plug-In . SVG Version: 6.00 Build 0)  -->
<svg version="1.1" id="Layer_1" xmlns="http://www.w3.org/2000/svg" xmlns:xlink="http://www.w3.org/1999/xlink" x="0px" y="0px"
	 viewBox="0 0 1024 1024" style="enable-background:new 0 0 1024 1024;" xml:space="preserve">
<style type="text/css">
	.st0{fill:#25333F;}
</style>
<g>
	<path class="st0" d="M942,611.6c-11.8-26.7-33.2-47.2-60.4-57.7c-21-8.1-43.9-7.6-64.5,1.5c-20.6,9.1-36.5,25.7-44.6,46.7
		c-13.1,33.8,3.7,72,37.6,85.1c1.8,0.7,3.6,1.3,5.4,1.8c25.2,6.7,52.1-6.5,61.8-31.4c8.3-21.4-2.4-45.5-23.7-53.8
		c-8.4-3.3-17.6-3.1-25.9,0.6c-8.3,3.6-14.6,10.3-17.9,18.7c-5.6,14.4,1.6,30.7,16,36.2c5.6,2.2,11.8-0.6,14-6.2
		c2.2-5.6-0.6-11.8-6.2-14c-3.3-1.3-4.9-5-3.7-8.3c1.2-3,3.5-5.4,6.4-6.8c3-1.3,6.3-1.4,9.3-0.2c10.3,4,15.4,15.6,11.4,25.8
		c-6,15.6-23.6,23.4-39.2,17.3c-22.7-8.8-34-34.5-25.2-57.2c6.1-15.6,17.8-28,33.2-34.7c15.3-6.8,32.4-7.2,48-1.1
		c21.8,8.4,39,24.9,48.4,46.3c9.4,21.4,10,45.2,1.5,67c-23.6,60.8-82.2,88.5-149.5,70.6l-688-183.2c-5.8-1.5-11.7,1.9-13.2,7.7
		c-1.5,5.8,1.9,11.7,7.7,13.2l688,183.2c37.4,10,73.7,7.6,104.9-6.8c32.2-14.9,56.5-41.5,70.2-76.9
		C954.5,667.9,953.8,638.3,942,611.6z"/>
	<path class="st0" d="M627.4,613.4c1.5-5.8-1.9-11.7-7.7-13.2L185.8,484.7c-5.8-1.5-11.7,1.9-13.2,7.7c-1.5,5.8,1.9,11.7,7.7,13.2
		l86.5,23l-56,36.3c-5,3.2-6.4,9.9-3.2,15c1.5,2.3,3.8,3.9,6.3,4.6c2.8,0.8,6,0.4,8.7-1.4l72.4-46.9l204.5,54.4l39.5,76.7
		c1.5,2.8,4,4.7,6.8,5.5c2.5,0.7,5.2,0.4,7.7-0.8c5.3-2.7,7.4-9.3,4.7-14.6l-30.5-59.3l86.5,23C619.9,622.6,625.8,619.2,627.4,613.4
		z"/>
	<path class="st0" d="M148,448.7l433.9,115.5c5.8,1.5,11.7-1.9,13.2-7.7c1.5-5.8-1.9-11.7-7.7-13.2L153.5,427.8
		c-5.8-1.5-11.7,1.9-13.2,7.7C138.8,441.2,142.2,447.2,148,448.7z"/>
	<path class="st0" d="M513.1,391.6c5.8,1.5,11.7-1.9,13.2-7.7l17.3-64.8c1.5-5.8-1.9-11.7-7.7-13.2l-93.7-24.9l37.3-21.6
		c5.2-3,6.9-9.6,3.9-14.8c-3-5.2-9.6-6.9-14.8-3.9l-50.6,29.3l-12.9-22.2c-3-5.2-9.6-6.9-14.8-3.9c-5.2,3-6.9,9.6-3.9,14.8l5.2,9
		l-93.7-24.9c-5.8-1.5-11.7,1.9-13.2,7.7l-17.3,64.8c-1.5,5.8,1.9,11.7,7.7,13.2l108.5,28.9l-22.3,83.7l-76.5-20.4l14.1-53
		c1.5-5.8-1.9-11.7-7.7-13.2c-5.8-1.5-11.7,1.9-13.2,7.7l-16.9,63.5c-1.5,5.8,1.9,11.7,7.7,13.2l194.7,51.8
		c5.8,1.5,11.7-1.9,13.2-7.7l16.9-63.5c1.5-5.8-1.9-11.7-7.7-13.2c-5.8-1.5-11.7,1.9-13.2,7.7l-14.1,53l-76.5-20.4l22.3-83.7
		L513.1,391.6z M421.9,297.9l98,26.1l-11.7,43.9l-98-26.1L421.9,297.9z M389.3,336.3l-98-26.1l11.7-43.9l98,26.1L389.3,336.3z"/>
</g>
</svg>
