<?xml version="1.0" encoding="utf-8"?>
<!-- Generator: Adobe Illustrator 25.0.1, SVG Export Plug-In . SVG Version: 6.00 Build 0)  -->
<svg version="1.1" id="Layer_1" xmlns="http://www.w3.org/2000/svg" xmlns:xlink="http://www.w3.org/1999/xlink" x="0px" y="0px"
	 viewBox="0 0 1024 1024" style="enable-background:new 0 0 1024 1024;" xml:space="preserve">
<style type="text/css">
	.st0{fill:#25333F;}
</style>
<g>
	<path class="st0" d="M69.5,377.3c-5.5-7.9-9.1-16.3-10.7-25.1c-2-11.2-0.9-22.4,3.3-33.8c4.2-11.4,11.2-22.3,20.8-32.8l11.3,4.8
		c1.6,0.6,2.6,1.9,3,3.8c0.2,1.1,0.1,2.2-0.3,3.2c-0.4,1.1-1.1,2.4-2.1,4c-0.9,1.6-2,3.7-3.2,6.1c-1.1,2.4-2.1,5.1-2.9,8.1
		c-0.8,3-1.4,6.2-1.7,9.7c-0.3,3.5-0.1,7.1,0.5,10.8c0.5,2.9,1.4,5.9,2.6,8.9c1.2,3,2.8,6,4.9,9.1c0.4,0.7,0.7,1.5,0.9,2.3
		c0.2,1.5,0,3-0.9,4.4c-0.9,1.5-2.3,2.8-4.1,3.9L69.5,377.3z"/>
	<path class="st0" d="M143.2,484.4c-0.1-0.7-0.2-1.5-0.4-2.5c-0.1-1-0.3-2.4-0.5-4.3c-0.1-1.8-0.3-4.4-0.5-7.5
		c-0.1-3.1-0.4-7.2-0.6-12.1l-3.7-70.9l-14.6,2.6c-1.7,0.3-3.2,0-4.4-0.8c-1.2-0.9-2.1-2.3-2.4-4.5c0-0.1,0-0.3,0-0.6
		c0-0.3,0-1-0.1-2.1c-0.1-1-0.2-2.7-0.3-4.8c-0.1-2.2-0.3-5.2-0.6-9.1l22.8-8.2l4.9-44.4c0.2-2.1,1-3.8,2.2-5.2
		c1.3-1.4,2.9-2.2,5.1-2.6l19.9-3.5l2.6,49.8l37.4-6.6l1.5,27.1l-37.5,6.7l3.6,68.9c0.2,4.2,0.4,7.5,0.6,10c0.2,2.5,0.3,4.4,0.4,5.8
		c0,1.4,0.1,2.4,0.2,2.9c0,0.5,0,0.9,0.1,1.1c0.6,3.8,2.1,6.7,4.4,8.5c2.3,1.9,5.1,2.5,8.5,1.9c2.1-0.4,3.8-1,5.3-1.8
		c1.4-0.8,2.6-1.6,3.6-2.4c1-0.8,1.9-1.5,2.6-2.2c0.7-0.7,1.5-1.1,2.3-1.3c1.1-0.2,2-0.1,2.8,0.4c0.7,0.4,1.4,1.2,2.2,2.2l11.2,16.7
		c-4.7,5.5-10.2,10-16.5,13.5c-6.3,3.5-12.9,5.9-19.7,7.1c-11,1.9-20.1,0.5-27.6-4.3C150.2,502.9,145.4,495.1,143.2,484.4z"/>
	<path class="st0" d="M273.9,287.7c0.5,3.2,0.4,6.4-0.4,9.4c-0.8,3.1-2.2,5.8-3.9,8.3c-1.8,2.5-4,4.6-6.6,6.4
		c-2.6,1.7-5.4,2.9-8.4,3.4c-2.9,0.5-5.9,0.4-8.8-0.4c-3-0.8-5.7-2-8.2-3.8c-2.5-1.7-4.6-3.9-6.4-6.5c-1.7-2.6-2.9-5.5-3.5-8.7
		c-0.5-3.2-0.4-6.4,0.3-9.5c0.8-3.1,2-6,3.8-8.5c1.7-2.5,3.8-4.7,6.4-6.4c2.5-1.8,5.3-2.9,8.2-3.4c3-0.5,6.1-0.4,9.1,0.3
		c3,0.8,5.8,2,8.4,3.7c2.5,1.7,4.7,3.9,6.5,6.6C272.1,281.3,273.3,284.4,273.9,287.7z M272.6,334.4l8.9,158l-36.8,6.5l-8.9-158
		L272.6,334.4z"/>
	<path class="st0" d="M399.4,342c-0.8,1.8-1.6,3.1-2.5,3.9c-0.9,0.8-2.1,1.4-3.7,1.7c-1.7,0.3-3.6,0.1-5.5-0.5
		c-2-0.7-4.3-1.4-6.9-2.3c-2.6-0.8-5.5-1.5-8.7-2c-3.3-0.4-7.1-0.3-11.4,0.5c-7.9,1.4-13.7,4.3-17.2,8.6c-3.6,4.3-4.9,9.1-4,14.5
		c0.5,3.1,1.9,5.6,4,7.5c2.1,1.8,4.8,3.3,7.9,4.4c3.1,1.1,6.6,2,10.4,2.7c3.9,0.7,7.9,1.5,12,2.4c4.1,0.9,8.1,2,12.1,3.3
		c3.9,1.3,7.6,3.1,10.9,5.5c3.3,2.3,6.2,5.3,8.6,9c2.5,3.7,4.2,8.2,5.2,13.8c1.3,7.5,1.1,14.8-0.6,22.1c-1.8,7.3-5,13.9-9.6,20
		c-4.6,6-10.6,11.2-17.9,15.6c-7.3,4.4-15.8,7.4-25.4,9.1c-4.9,0.9-9.8,1.2-14.5,1.1c-4.7-0.1-9.3-0.7-13.6-1.7
		c-4.3-1-8.3-2.3-12-4.1c-3.6-1.7-6.9-3.7-9.7-6.1l6.5-15.8c0.8-1.9,1.9-3.5,3.3-4.6c1.4-1.2,3.1-2,5.3-2.3c2.1-0.4,4.1-0.1,6,0.9
		c1.9,1,4.2,2.1,6.8,3.3c2.6,1.1,5.6,2.1,9.1,2.8c3.5,0.7,7.8,0.6,13-0.2c4.1-0.7,7.6-1.9,10.6-3.6c2.9-1.7,5.4-3.7,7.2-5.9
		c1.8-2.3,3-4.8,3.7-7.5c0.6-2.7,0.7-5.5,0.2-8.2c-0.6-3.4-2-6.1-4.1-8.1c-2.1-2-4.7-3.5-7.9-4.7c-3.1-1.2-6.7-2-10.5-2.7
		c-3.9-0.6-7.8-1.3-11.8-2c-4-0.7-8-1.7-11.9-2.9c-3.9-1.1-7.5-2.9-10.8-5.1c-3.4-2.3-6.3-5.2-8.7-8.9c-2.4-3.7-4.1-8.3-5.1-14.1
		c-1.2-6.8-1.1-13.7,0.3-20.7c1.4-6.9,4.3-13.4,8.5-19.2c4.2-5.9,9.7-11,16.6-15.3c6.8-4.3,15.1-7.3,24.6-9
		c9.9-1.7,18.9-1.6,27.1,0.4c8.2,2,15.4,5.2,21.5,9.5L399.4,342z"/>
	<path class="st0" d="M504.3,420.4c-0.1-0.7-0.2-1.5-0.4-2.5c-0.1-1-0.3-2.4-0.5-4.3c-0.1-1.9-0.3-4.4-0.5-7.5
		c-0.1-3.1-0.4-7.2-0.6-12.1l-3.7-70.9l-14.6,2.6c-1.7,0.3-3.2,0-4.4-0.9c-1.2-0.9-2.1-2.3-2.4-4.5c0-0.1,0-0.3,0-0.6
		c0-0.3,0-1-0.1-2.1c-0.1-1.1-0.2-2.7-0.3-4.8c-0.1-2.1-0.3-5.2-0.6-9.1l22.8-8.2l4.9-44.4c0.2-2.1,1-3.8,2.2-5.2
		c1.3-1.3,2.9-2.2,5.1-2.6l19.9-3.5l2.6,49.8l37.4-6.6l1.5,27.1l-37.5,6.7l3.6,68.9c0.2,4.2,0.4,7.6,0.6,10c0.2,2.4,0.3,4.4,0.4,5.7
		c0,1.4,0.1,2.4,0.2,2.9c0,0.5,0,0.9,0.1,1.1c0.7,3.8,2.1,6.7,4.4,8.5c2.3,1.9,5.1,2.5,8.5,1.9c2.1-0.4,3.8-1,5.3-1.8
		c1.4-0.8,2.6-1.6,3.6-2.4c1-0.8,1.9-1.5,2.6-2.2c0.7-0.7,1.5-1.1,2.3-1.3c1.1-0.2,2-0.1,2.8,0.4c0.7,0.4,1.4,1.1,2.2,2.2l11.2,16.7
		c-4.7,5.5-10.2,10-16.5,13.5c-6.3,3.5-12.9,5.9-19.7,7.1c-11,1.9-20.1,0.5-27.6-4.3C511.3,438.8,506.5,431.1,504.3,420.4z"/>
	<path class="st0" d="M603.6,435.3l-12.5-228.9l37.1-6.6l5.4,97.8c5.8-11.1,12.7-19.8,20.6-26c8-6.3,16.5-10.2,25.7-11.9
		c5.8-1,11.3-0.9,16.3,0.3c5.1,1.2,9.7,3.5,13.7,6.9c4,3.3,7.4,7.8,10.3,13.3c2.8,5.4,4.9,11.9,6.3,19.5c0.3,1.9,0.6,3.8,0.8,5.8
		c0.2,2,0.3,4.1,0.5,6.2l5.8,100.5l-37.2,6.6l-5.8-100.5c-0.1-1.9-0.2-3.6-0.4-5.2c-0.1-1.6-0.3-3.1-0.6-4.5
		c-1.1-6.7-3.2-11.2-6.3-13.7s-7.1-3.2-12.2-2.3c-3.8,0.7-7.6,2.5-11.4,5.4c-3.7,2.9-7.2,6.7-10.3,11.3c-3.1,4.7-5.8,10.1-8.2,16.3
		c-2.3,6.2-4,13-5.1,20.3l4.6,82.8L603.6,435.3z"/>
	<path class="st0" d="M875.5,264.6c1.2,6.9,0.9,13.5-0.8,19.7c-1.7,6.2-5.8,12.2-12.1,18c-6.3,5.8-15.3,11.4-27,16.8
		c-11.6,5.4-26.7,10.8-45.3,16l0.3,1.9c4.3,24.3,16.7,34.7,37.3,31c4.4-0.8,8.3-1.9,11.6-3.4c3.3-1.4,6.1-3,8.4-4.7
		c2.3-1.7,4.4-3.4,6.2-5.3c1.7-1.9,3.4-3.6,5-5.1c1.5-1.5,3.1-2.9,4.6-4c1.6-1.2,3.3-1.9,5.3-2.3c1.2-0.2,2.5-0.2,3.8,0.2
		c1.3,0.3,2.4,1,3.5,2l11.5,9.8c-4.4,6.3-8.8,11.8-13.2,16.6c-4.4,4.8-9.1,9-14,12.4c-4.9,3.5-10.2,6.3-15.9,8.6
		c-5.7,2.3-12.1,4-19.1,5.3c-9,1.6-17.5,1.5-25.4-0.2c-7.9-1.8-14.9-5-21.1-9.6c-6.2-4.6-11.5-10.6-15.8-18
		c-4.2-7.4-7.2-15.9-9-25.7c-1.4-8.1-1.9-16.3-1.6-24.4c0.3-8.1,1.6-16,3.6-23.7c2.1-7.6,5-14.8,8.8-21.6
		c3.8-6.8,8.3-12.9,13.6-18.3c5.3-5.4,11.4-9.9,18.3-13.6c6.8-3.7,14.5-6.3,22.8-7.8c8.1-1.4,15.5-1.6,21.9-0.3
		c6.5,1.2,12.1,3.3,16.8,6.3c4.7,2.9,8.5,6.5,11.3,10.7C872.9,256,874.7,260.2,875.5,264.6z M822.6,261.5c-5,0.9-9.5,2.8-13.5,5.6
		c-3.9,2.8-7.3,6.4-10.2,10.7c-2.8,4.3-5,9.3-6.7,15c-1.6,5.6-2.6,11.6-3.1,18c12.2-3.9,21.9-7.6,29.1-10.9
		c7.2-3.4,12.7-6.6,16.4-9.8c3.7-3.2,6.1-6.2,6.9-9.2c0.9-2.9,1-6,0.5-9.1c-0.2-1.5-0.8-3-1.8-4.5c-0.9-1.5-2.2-2.7-3.8-3.8
		c-1.6-1-3.5-1.7-5.9-2.2C828.4,260.9,825.7,260.9,822.6,261.5z"/>
	<path class="st0" d="M227.3,683.5c-0.8,1.8-1.7,3.1-2.6,4c-0.9,0.8-2.1,1.4-3.7,1.7c-1.7,0.3-3.6,0.1-5.5-0.5
		c-2-0.7-4.3-1.4-6.9-2.3c-2.6-0.8-5.5-1.5-8.7-2c-3.2-0.4-7.1-0.3-11.4,0.5c-7.9,1.4-13.7,4.3-17.3,8.6c-3.6,4.3-4.9,9.1-3.9,14.5
		c0.5,3.1,1.8,5.6,4,7.5c2.1,1.8,4.8,3.3,7.9,4.4c3.1,1.1,6.6,2,10.5,2.7c3.8,0.7,7.8,1.5,11.9,2.4c4.1,0.9,8.1,2,12.1,3.3
		c3.9,1.3,7.6,3.1,10.9,5.5c3.3,2.3,6.2,5.3,8.6,9c2.5,3.6,4.2,8.2,5.2,13.8c1.3,7.4,1.1,14.8-0.6,22.1c-1.8,7.3-5,13.9-9.6,20
		c-4.6,6-10.6,11.2-17.9,15.6c-7.3,4.4-15.8,7.4-25.4,9.1c-4.9,0.9-9.8,1.2-14.5,1.1c-4.7-0.1-9.3-0.7-13.6-1.7
		c-4.3-1-8.3-2.3-12-4.1c-3.7-1.7-6.9-3.7-9.7-6.1l6.5-15.8c0.8-1.9,1.9-3.4,3.3-4.6c1.4-1.2,3.2-1.9,5.3-2.3
		c2.1-0.4,4.1-0.1,6.1,0.9c1.9,1,4.2,2.1,6.8,3.3c2.6,1.1,5.6,2.1,9.1,2.8c3.5,0.7,7.8,0.6,13-0.3c4.1-0.7,7.6-1.9,10.6-3.6
		c2.9-1.7,5.4-3.7,7.2-5.9c1.8-2.3,3.1-4.8,3.7-7.5c0.6-2.7,0.7-5.5,0.2-8.3c-0.6-3.4-2-6.1-4.1-8c-2.1-2-4.7-3.5-7.9-4.7
		c-3.1-1.1-6.6-2-10.5-2.6c-3.8-0.6-7.8-1.3-11.8-2c-4-0.7-8-1.7-11.9-2.9c-3.9-1.1-7.5-2.9-10.8-5.1c-3.4-2.3-6.3-5.2-8.7-8.9
		c-2.4-3.7-4.1-8.3-5.1-14.1c-1.2-6.8-1.1-13.7,0.3-20.7c1.5-6.9,4.3-13.4,8.5-19.2c4.2-5.9,9.7-11,16.6-15.3
		c6.8-4.3,15.1-7.3,24.6-9c9.9-1.8,18.9-1.6,27.1,0.4c8.2,2,15.4,5.2,21.5,9.5L227.3,683.5z"/>
	<path class="st0" d="M374.7,664.3c1.2,6.9,1,13.5-0.7,19.7c-1.7,6.2-5.8,12.2-12.1,18c-6.3,5.8-15.4,11.4-27,16.8
		c-11.6,5.4-26.7,10.8-45.3,16l0.3,2c4.3,24.3,16.7,34.6,37.3,31c4.4-0.8,8.3-1.9,11.6-3.4c3.2-1.4,6.1-3,8.4-4.7
		c2.3-1.7,4.4-3.4,6.2-5.3c1.8-1.9,3.4-3.6,5-5.1c1.5-1.5,3.1-2.8,4.6-4c1.6-1.2,3.3-1.9,5.3-2.3c1.2-0.2,2.5-0.1,3.8,0.2
		c1.3,0.3,2.5,1,3.5,2l11.5,9.8c-4.4,6.3-8.8,11.8-13.2,16.6c-4.4,4.8-9.1,9-14,12.4c-4.8,3.5-10.2,6.3-15.9,8.6
		c-5.7,2.3-12.1,4-19.1,5.3c-9,1.6-17.5,1.5-25.4-0.2c-7.9-1.8-14.9-5-21.1-9.6c-6.2-4.6-11.5-10.6-15.7-18
		c-4.3-7.4-7.3-15.9-9-25.7c-1.4-8.1-2-16.3-1.6-24.4c0.3-8.2,1.6-16,3.7-23.7c2-7.6,4.9-14.8,8.7-21.6c3.8-6.8,8.3-12.9,13.7-18.3
		c5.3-5.4,11.4-9.9,18.2-13.6c6.9-3.7,14.5-6.3,22.8-7.8c8.1-1.4,15.4-1.5,21.9-0.3c6.5,1.2,12.1,3.3,16.8,6.3
		c4.7,3,8.4,6.5,11.3,10.7C372.2,655.8,374,660,374.7,664.3z M321.8,661.3c-5,0.9-9.6,2.7-13.5,5.6c-3.9,2.8-7.3,6.4-10.2,10.7
		c-2.8,4.3-5,9.3-6.7,15c-1.6,5.6-2.6,11.6-3.1,18c12.2-3.9,21.9-7.5,29.1-10.9c7.2-3.4,12.7-6.6,16.4-9.8c3.7-3.2,6.1-6.2,6.9-9.2
		c0.9-2.9,1-6,0.5-9.1c-0.3-1.5-0.8-3-1.8-4.5c-1-1.5-2.2-2.7-3.8-3.8c-1.6-1-3.5-1.7-5.8-2.2C327.6,660.7,324.9,660.7,321.8,661.3z
		"/>
	<path class="st0" d="M529.4,759.4l-19.6,3.5c-4.5,0.8-7.9,0.3-10.1-1.5c-2.2-1.8-3.6-4.3-4.1-7.5l-2.5-21.3
		c-4.9,11.9-11.2,21.7-18.6,29.3c-7.5,7.7-16.3,12.5-26.6,14.3c-5.8,1-11.5,0.8-16.9-0.5c-5.5-1.4-10.5-4.1-15.1-8
		c-4.6-3.9-8.6-9.1-12-15.6c-3.4-6.5-5.9-14.4-7.5-23.6c-1.6-9.2-2.1-18.4-1.3-27.6c0.7-9.2,2.6-18,5.5-26.4s6.8-16.4,11.7-23.9
		c4.9-7.5,10.7-14.2,17.3-20.2c6.7-5.9,14.2-11,22.4-15.1c8.3-4.1,17.2-7,26.9-8.7c6.9-1.2,14-1.9,21.1-2.2
		c7.2-0.2,14.4,0.3,21.5,1.8L529.4,759.4z M457.2,743.2c4.1-0.7,7.9-2.8,11.4-6.4c3.4-3.5,6.5-8.1,9.2-13.7c2.6-5.6,4.8-12,6.7-19.3
		c1.8-7.3,3.1-15,3.9-23.1l-2.3-47.8c-2.8,0.2-5.3,0.5-7.6,0.9c-8.4,1.5-15.8,4.8-22.2,9.9c-6.4,5.1-11.7,11.3-15.8,18.7
		c-4.1,7.4-6.8,15.7-8.3,24.8c-1.4,9.1-1.3,18.4,0.3,28c1.9,10.8,5.1,18.5,9.4,22.9C446.1,742.5,451.3,744.2,457.2,743.2z"/>
	<path class="st0" d="M644.3,609.5c-0.8,1.8-1.7,3.1-2.5,3.9c-0.9,0.8-2.2,1.4-3.8,1.7c-1.7,0.3-3.5,0.1-5.5-0.6
		c-2-0.7-4.3-1.4-6.8-2.3c-2.6-0.9-5.5-1.5-8.8-2c-3.2-0.5-7-0.3-11.4,0.4c-7.9,1.4-13.7,4.3-17.2,8.6c-3.6,4.3-4.9,9.1-4,14.5
		c0.5,3.1,1.9,5.6,4,7.4c2.1,1.8,4.7,3.3,7.9,4.5c3.1,1.1,6.6,2,10.4,2.7c3.9,0.7,7.8,1.5,12,2.4c4,0.9,8.1,2,12.1,3.3
		c4,1.3,7.6,3.1,10.9,5.5c3.3,2.3,6.2,5.3,8.7,9c2.5,3.7,4.2,8.2,5.2,13.8c1.3,7.4,1,14.8-0.7,22.1c-1.7,7.2-5,13.9-9.6,20
		c-4.6,6-10.6,11.2-17.9,15.6c-7.3,4.4-15.8,7.4-25.5,9.1c-4.9,0.9-9.7,1.2-14.5,1.1c-4.8-0.1-9.3-0.7-13.6-1.7
		c-4.3-1-8.3-2.4-12-4.1c-3.7-1.7-6.9-3.7-9.7-6.1l6.5-15.8c0.8-1.9,1.9-3.5,3.3-4.6c1.4-1.2,3.2-2,5.3-2.3c2.1-0.4,4.1-0.1,6.1,0.9
		c1.9,1,4.2,2.1,6.8,3.2c2.6,1.1,5.6,2.1,9.2,2.8c3.5,0.7,7.8,0.6,12.9-0.3c4.1-0.7,7.7-1.9,10.6-3.6c3-1.7,5.4-3.7,7.2-6
		c1.8-2.3,3-4.8,3.7-7.5c0.6-2.7,0.7-5.5,0.2-8.3c-0.6-3.4-1.9-6.1-4-8c-2.1-2-4.8-3.5-7.9-4.7c-3.2-1.2-6.7-2-10.5-2.6
		s-7.8-1.3-11.8-2c-4-0.7-8-1.7-11.9-2.9c-3.9-1.1-7.5-2.9-10.9-5.1c-3.3-2.3-6.2-5.2-8.7-8.9c-2.4-3.7-4.1-8.3-5.1-14.1
		c-1.2-6.8-1.1-13.7,0.4-20.7c1.4-6.9,4.3-13.4,8.5-19.2c4.2-5.9,9.7-11,16.5-15.3c6.9-4.3,15.1-7.3,24.6-9c9.9-1.7,18.9-1.6,27,0.4
		c8.2,2,15.4,5.2,21.5,9.5L644.3,609.5z"/>
	<path class="st0" d="M740.9,724.3c-8.5,1.5-16.7,1.5-24.5-0.1c-7.8-1.6-14.8-4.7-21.1-9.2c-6.2-4.6-11.6-10.6-16-18.1
		c-4.4-7.5-7.6-16.4-9.5-26.8c-2.3-13.3-2.4-26.2-0.2-38.5c2.2-12.3,6.3-23.4,12.2-33.1c5.9-9.8,13.4-17.9,22.3-24.5
		c9-6.6,19.1-10.8,30.3-12.8c8.5-1.5,16.7-1.5,24.5,0.1c7.8,1.6,14.9,4.7,21.2,9.2c6.3,4.6,11.7,10.6,16.1,18.1
		c4.4,7.5,7.6,16.4,9.4,26.8c2.3,13.3,2.4,26,0.1,38.3c-2.3,12.3-6.3,23.3-12.2,33.1c-5.9,9.8-13.3,18-22.3,24.6
		C762.1,718,752,722.3,740.9,724.3z M739.1,695.1c6.2-1.1,11.6-3.9,15.9-8.3c4.4-4.5,7.9-10,10.4-16.6s4-14.1,4.5-22.3
		c0.4-8.3,0-16.8-1.6-25.5c-2.2-12.6-6-21.4-11.3-26.6c-5.3-5.2-12.3-7-20.9-5.5c-6.2,1.1-11.6,3.9-15.9,8.3
		c-4.4,4.4-7.8,9.9-10.3,16.6c-2.4,6.7-3.9,14.1-4.4,22.4c-0.4,8.3,0,16.8,1.6,25.7c2.2,12.6,5.9,21.4,11.2,26.5
		C723.5,694.8,730.4,696.6,739.1,695.1z"/>
	<path class="st0" d="M836,705.1L827.1,547l19-3.4c3.9-0.7,7.1-0.3,9.6,1.2c2.5,1.5,4.1,4.4,4.9,8.6l2.5,20.2
		c5.8-13,13-23.1,21.5-30.5c8.5-7.4,17.8-11.9,28-13.7c5.7-1,11.1-0.9,16.1,0.3c5,1.2,9.6,3.5,13.6,6.9c4,3.4,7.4,7.8,10.3,13.3
		c2.8,5.4,4.9,11.9,6.3,19.5c0.3,1.9,0.5,3.8,0.7,5.8c0.2,2,0.4,4.1,0.6,6.2l5.8,100.5l-37.2,6.6c-1-17.3-1.8-32-2.5-44.1
		s-1.2-22.1-1.7-30.1c-0.5-8-0.9-14.3-1.2-18.8c-0.2-4.6-0.5-8-0.6-10.4c-0.1-2.3-0.2-3.9-0.3-4.7c-0.1-0.8-0.2-1.4-0.2-1.9
		c-1.2-6.6-3.2-11.2-6.2-13.8c-2.9-2.5-7-3.3-12.1-2.4c-4.1,0.7-8.2,2.7-12.2,5.9c-4,3.2-7.6,7.4-10.9,12.5
		c-3.2,5.2-5.9,11.1-8.2,17.9c-2.2,6.8-3.7,14.2-4.4,22.2l5,77.5L836,705.1z"/>
</g>
</svg>
