<?xml version="1.0" encoding="utf-8"?>
<!-- Generator: Adobe Illustrator 25.0.1, SVG Export Plug-In . SVG Version: 6.00 Build 0)  -->
<svg version="1.1" id="Layer_1" xmlns="http://www.w3.org/2000/svg" xmlns:xlink="http://www.w3.org/1999/xlink" x="0px" y="0px"
	 viewBox="0 0 1024 1024" style="enable-background:new 0 0 1024 1024;" xml:space="preserve">
<style type="text/css">
	.st0{fill:#25333F;}
	.st1{fill:#BF0808;}
</style>
<g>
	<path class="st0" d="M473.1,678.6c14.7,0,22.2-16.4,22.2-48.7c0-32.3-7.5-48.7-22.2-48.7c-14.7,0-22.2,16.4-22.2,48.7
		C450.9,662.2,458.4,678.6,473.1,678.6z"/>
	<path class="st0" d="M554.2,678.6c14.7,0,22.2-16.4,22.2-48.7c0-32.3-7.5-48.7-22.2-48.7c-14.7,0-22.2,16.4-22.2,48.7
		C532.1,662.2,539.5,678.6,554.2,678.6z"/>
	<path class="st0" d="M118.1,339.7c72.1-15.3,145.7,7,197,59.8c0.5,0.5,1,0.9,1.6,1.4c30.9,42.5,75.3,74.5,126.8,89.8
		c-9,5.4-17.4,11.9-25.1,19.5c-4.9,4.8-9.3,9.9-13.4,15.3c-8.2-22.4-23.2-50.4-49.8-67.2c-48.5-30.7-114.2-10.7-117-9.8
		c-6.7,2.1-11,8.8-10,15.8c0.4,2.9,10.3,70.8,58.8,101.6c20.9,13.2,44.9,17,65.8,17c10.4,0,20-1,28-2.2c-1.5,8-2.2,16.2-2.2,24.5
		l0,1.1c0.3,34.9-8.4,70-25.2,101.4c-13.8,25.9-21.1,55.3-21,84.9c0.1,48.1,19.2,93.4,53.8,127.3c34,33.4,78.6,51.8,125.9,51.8
		c0.8,0,1.6,0,2.4,0c47.5-0.6,92-19.6,125.4-53.4c33.4-33.8,51.8-78.7,51.8-126.2c0-30-7.5-59.6-21.8-85.8
		c-16.4-30-24.8-64.5-24.5-99.7v0c0-0.8,0-1.6,0-2.4c-0.1-8.2-0.9-16.3-2.4-24.1c8.6,1.5,19.5,2.7,31.5,2.7c20.8,0,44.9-3.8,65.8-17
		l0,0c48.5-30.7,58.4-98.7,58.8-101.6c1-7-3.3-13.7-10-15.8c-2.8-0.9-68.5-20.9-117,9.8c-27.9,17.7-43.1,47.8-51,70.6
		c-10.8-15.4-24.8-28.4-40.9-38.1c51.7-15.2,96.1-47.3,127.1-89.9c0.5-0.4,1.1-0.9,1.6-1.4c51.3-52.8,124.9-75.2,197-59.8
		c7.8,1.7,15.5-3.3,17.1-11.1c1.7-7.8-3.3-15.5-11.1-17.1c-60-12.8-120.8-2.5-172,27.4c8.8-25,13.5-51.8,13.5-79.7
		c0-73.6,37.3-140.9,99.7-180.1c6.8-4.2,8.8-13.2,4.5-19.9c-4.2-6.8-13.2-8.8-19.9-4.5C791.3,83.8,757,126.8,739,176.5
		c-18-49.7-52.2-92.7-98.8-121.9c-6.7-4.2-15.7-2.2-19.9,4.5c-4.2,6.8-2.2,15.7,4.5,19.9c62.4,39.2,99.7,106.6,99.7,180.1
		c0,61.2-26,116.4-67.5,155.2c12.8-23.5,20.1-50.4,20.1-79c0-57.2-29-109.6-77.5-140c-6.7-4.2-15.7-2.2-19.9,4.5
		c-4.2,6.8-2.2,15.7,4.5,19.9c40,25.2,64,68.4,64,115.6c0,75.2-61.2,136.4-136.4,136.4c-75.2,0-136.4-61.2-136.4-136.4
		c0-47.2,23.9-90.4,64-115.6c6.8-4.2,8.8-13.1,4.5-19.9c-4.2-6.8-13.2-8.8-19.9-4.5c-48.5,30.5-77.5,82.8-77.5,140
		c0,28.6,7.3,55.5,20.1,79c-41.5-38.8-67.5-94-67.5-155.2c0-73.6,37.3-140.9,99.7-180.1c6.8-4.2,8.8-13.2,4.5-19.9
		c-4.2-6.8-13.2-8.8-19.9-4.5C337.2,83.8,303,126.8,285,176.5c-18-49.7-52.2-92.7-98.8-121.9c-6.8-4.2-15.7-2.2-19.9,4.5
		c-4.2,6.8-2.2,15.7,4.5,19.9c62.4,39.2,99.7,106.6,99.7,180.1c0,27.9,4.8,54.7,13.5,79.7c-51.2-29.9-112.1-40.2-172-27.4
		c-7.8,1.7-12.8,9.3-11.1,17.1C102.6,336.4,110.3,341.4,118.1,339.7z M687.5,482.6c26.2-16.6,61.6-13.1,80.2-9.6
		c-4.7,18.3-16.6,51.6-43,68.4c-26.2,16.6-61.6,13.2-80.2,9.6C649.3,532.7,661.2,499.4,687.5,482.6z M302.5,541.4
		c-26.2-16.6-38.2-50.1-42.9-68.4c18.6-3.5,53.8-7,80.2,9.7c26.2,16.6,38.2,50.1,42.9,68.4C364.1,554.6,328.9,558.1,302.5,541.4z
		 M513.5,500.6c56.4,0.8,102.7,47.3,103.1,103.7c0,0.6,0,1.3,0,1.9c-0.4,40.1,9.3,79.4,28,113.8c11.9,21.9,18.3,46.8,18.3,72
		c0,82.1-66.7,149.7-148.8,150.7c-40.4,0.5-78.6-14.9-107.6-43.5c-29-28.5-45-66.5-45.1-106.8c-0.1-24.8,6-49.4,17.6-71.2
		c19-35.7,28.9-75.6,28.6-115.2l0-0.9c0-28.2,11.1-54.6,31.1-74.4c19.7-19.5,45.7-30.1,73.4-30.1C512.5,500.6,513,500.6,513.5,500.6
		z"/>
</g>
<circle class="st1" cx="512" cy="806.1" r="51.9"/>
</svg>
