<?xml version="1.0" encoding="utf-8"?>
<!-- Generator: Adobe Illustrator 25.0.1, SVG Export Plug-In . SVG Version: 6.00 Build 0)  -->
<svg version="1.1" id="Layer_1" xmlns="http://www.w3.org/2000/svg" xmlns:xlink="http://www.w3.org/1999/xlink" x="0px" y="0px"
	 viewBox="0 0 1024 1024" style="enable-background:new 0 0 1024 1024;" xml:space="preserve">
<style type="text/css">
	.st0{fill:#25333F;}
</style>
<g>
	<path class="st0" d="M895.9,462.9c14-24.7,17.6-53.3,10.1-80.7c-7.5-27.4-25.3-50.2-49.9-64.2c-10.2-5.8-21.2-9.8-32.7-11.9
		c-23.6-4.4-48.1,0.8-68.8,14.7c-6.1,4.1-12.2,7.5-34.1,13.8c-32.3,9.4-65.8,14.2-99.6,14.3c-1.2,0-2.3,0.2-3.4,0.5
		c-2.6,0.7-5.2,0.2-7.3-1.5c-1.2-1-3.3-3.1-3.2-6.8c0.1-2.4,1.4-4.9,3.5-6.6c37-30,58.2-74.4,58.2-121.9
		c0-86.5-70.4-156.8-156.8-156.8c-86.5,0-156.8,70.3-156.8,156.8c0,47.5,21.2,92,58.2,121.9c2.2,1.8,3.5,4.2,3.5,6.6
		c0.1,3.7-2,5.8-3.2,6.8c-2.1,1.6-4.8,2.2-7.3,1.5c-1.1-0.3-2.3-0.5-3.4-0.5c-33.7-0.1-67.2-4.9-99.6-14.3
		c-21.9-6.3-27.9-9.7-34.1-13.8c-20.7-13.9-45.2-19.1-68.8-14.7c-11.5,2.1-22.5,6.2-32.7,11.9c-24.7,14-42.4,36.8-49.9,64.2
		c-7.5,27.4-3.9,56,10.1,80.7c14,24.7,36.8,42.4,64.3,50l176.4,46.7l-2.1,19.4c-9.9,41.5-24.5,81.9-43.4,120
		c-18.1,36.5-40.3,71.2-65.8,103c-23.9,29.8-29.1,70.7-13.1,104.3c9.7,20.4,25.5,36.6,45.7,46.8c69.3,35.1,154.2,7.3,189.3-62
		l32.7-64.5l32.7,64.5c24.8,48.9,74.4,77.2,125.9,77.2c21.4,0,43.1-4.9,63.4-15.2c20.2-10.2,36-26.4,45.7-46.8
		c16-33.6,10.8-74.5-13.1-104.3c-25.6-31.8-47.7-66.4-65.8-103c-18.9-38.2-33.5-78.5-43.4-120l-2.1-19.4l176.5-46.7
		C859.1,505.3,881.9,487.6,895.9,462.9z M637.7,537.2c-6.2,1.6-10.3,7.6-9.6,14l3.3,31.3c0.1,0.5,0.1,1.1,0.3,1.6
		c10.3,43.7,25.7,86.2,45.6,126.4c18.9,38.2,42.1,74.5,68.9,107.7c17.7,22,21.6,52.2,9.9,76.8c-7.2,15.1-18.9,27.2-33.9,34.8
		c-56.5,28.6-125.7,6-154.3-50.5L523.6,792c-2.2-4.4-6.7-7.1-11.6-7.1c-4.9,0-9.4,2.8-11.6,7.1l-44.3,87.4
		c-28.6,56.5-97.8,79.1-154.3,50.5c-15-7.6-26.7-19.6-33.9-34.8c-11.7-24.6-7.8-54.8,9.9-76.8c26.8-33.3,49.9-69.5,68.9-107.7
		c19.9-40.2,35.3-82.7,45.6-126.4c0.1-0.5,0.2-1.1,0.3-1.6l3.3-31.3c0.7-6.4-3.4-12.3-9.6-14l-187.1-49.5
		c-20.7-5.7-37.9-19.1-48.5-37.7c-10.6-18.6-13.3-40.3-7.6-60.9c5.7-20.7,19.1-37.9,37.7-48.5c7.6-4.3,15.9-7.4,24.6-9
		c16.9-3.1,34.5,0.7,49.6,10.8c9.2,6.1,18.1,10.5,41.3,17.2c34.2,9.9,69.5,15,105.2,15.3c10,2.2,20.3-0.2,28.4-6.5
		c8.6-6.8,13.5-16.9,13.2-27.9c-0.2-10.1-5-19.7-13.2-26.3c-30.9-25-48.6-62.1-48.6-101.7c0-72.1,58.7-130.8,130.8-130.8
		c72.1,0,130.8,58.7,130.8,130.8c0,39.7-17.7,76.7-48.6,101.7c-8.2,6.6-13,16.2-13.2,26.3c-0.3,11,4.6,21.2,13.2,27.9
		c8.1,6.4,18.4,8.7,28.4,6.5c35.6-0.3,71-5.4,105.2-15.3c23.2-6.7,32.1-11.1,41.3-17.2c15.1-10.1,32.7-13.9,49.6-10.8
		c8.7,1.6,16.9,4.6,24.6,9c18.6,10.6,32,27.8,37.7,48.5v0c5.7,20.7,3,42.3-7.6,60.9c-10.6,18.6-27.8,32-48.4,37.7L637.7,537.2z"/>
	<path class="st0" d="M285,367.8c-10.8,8.8-17.7,25.8-16,39.7c0.6,5-2.6,13.1-6.6,16.3c-10.8,8.8-17.7,25.8-16,39.7l2.1,17.1
		c0.8,6.6,6.4,11.4,12.9,11.4c0.5,0,1.1,0,1.6-0.1c7.1-0.9,12.2-7.4,11.3-14.5l-2.1-17.1c-0.6-5,2.6-13.1,6.6-16.3
		c10.8-8.8,17.7-25.8,16-39.7c-0.6-5,2.6-13.1,6.6-16.3c5.6-4.5,6.4-12.7,1.9-18.3C298.7,364.2,290.5,363.3,285,367.8z"/>
	<path class="st0" d="M404.3,812.9c-5.1,0.4-12.9-3.3-15.9-7.4c-8.2-11.3-24.8-19.1-38.8-18.1l-17.2,1.2
		c-7.2,0.5-12.6,6.7-12.1,13.9c0.5,7.2,6.7,12.6,13.9,12.1l17.2-1.2c5.1-0.3,12.9,3.3,15.9,7.4c8.2,11.3,24.9,19.1,38.8,18.1
		c5.1-0.3,12.9,3.3,15.9,7.4c2.5,3.5,6.5,5.4,10.6,5.4c2.6,0,5.3-0.8,7.6-2.5c5.8-4.2,7.1-12.4,2.9-18.2
		C434.8,819.8,418.2,812,404.3,812.9z"/>
	<path class="st0" d="M635.6,805.5c-3,4.1-10.8,7.8-15.9,7.4c-13.9-1-30.6,6.8-38.8,18.1c-4.2,5.8-2.9,14,2.9,18.2
		c2.3,1.7,5,2.5,7.6,2.5c4,0,8-1.9,10.6-5.4c3-4.1,10.8-7.8,15.9-7.4c13.9,1,30.6-6.8,38.8-18.1c3-4.1,10.9-7.8,15.9-7.4l17.2,1.2
		c7.2,0.5,13.4-4.9,13.9-12.1c0.5-7.2-4.9-13.4-12.1-13.9l-17.2-1.2C660.5,786.4,643.8,794.2,635.6,805.5z"/>
	<path class="st0" d="M755,407.4c1.7-13.9-5.2-31-16.1-39.8c-5.6-4.5-13.8-3.7-18.3,1.9c-4.5,5.6-3.7,13.8,1.9,18.3
		c4,3.2,7.3,11.4,6.6,16.5c-1.7,13.9,5.2,31,16.1,39.8c4,3.2,7.3,11.4,6.7,16.5l-2.1,17.2c-0.9,7.1,4.2,13.6,11.4,14.5
		c0.5,0.1,1.1,0.1,1.6,0.1c6.5,0,12.1-4.8,12.9-11.5l2.1-17.2c1.7-13.9-5.2-31-16.1-39.8C757.7,420.6,754.4,412.5,755,407.4z"/>
	<path class="st0" d="M594.3,676.5c-5.7,3.3-16.4,3-22-0.5c-13.7-8.7-34.7-9.2-48.8-1.2c-5.7,3.3-16.4,3-22-0.5
		c-13.7-8.7-34.7-9.2-48.8-1.2c-5.7,3.3-16.4,3-22-0.5c-13.7-8.7-34.7-9.2-48.8-1.2l-18,10.2c-6.2,3.6-8.4,11.5-4.9,17.8
		c3.6,6.2,11.5,8.4,17.8,4.9l18-10.2c5.7-3.3,16.4-3,22,0.5c13.7,8.7,34.7,9.2,48.8,1.2c5.7-3.3,16.4-3,22,0.5
		c13.7,8.7,34.7,9.2,48.8,1.2c5.7-3.3,16.4-3,22,0.5c13.7,8.7,34.7,9.2,48.8,1.2c5.7-3.3,16.4-3,22,0.5l17.4,11.1c2.2,1.4,4.6,2,7,2
		c4.3,0,8.5-2.1,11-6c3.9-6.1,2.1-14.1-4-18l-17.4-11.1C629.4,669,608.4,668.5,594.3,676.5z"/>
	<circle class="st0" cx="512" cy="609.7" r="18.9"/>
	<path class="st0" d="M512,523c-10.4,0-18.9,8.5-18.9,18.9c0,10.4,8.5,18.9,18.9,18.9s18.9-8.5,18.9-18.9
		C530.9,531.5,522.4,523,512,523z"/>
	<circle class="st0" cx="512" cy="463.9" r="18.9"/>
	<path class="st0" d="M463.8,181.6c-9,0-16.3,7.3-16.3,16.3c0,9,7.3,16.3,16.3,16.3c9,0,16.3-7.3,16.3-16.3
		C480.1,188.9,472.8,181.6,463.8,181.6z"/>
	<path class="st0" d="M560.2,178.3c-9,0-16.3,7.3-16.3,16.3c0,9,7.3,16.3,16.3,16.3c9,0,16.3-7.3,16.3-16.3
		C576.4,185.6,569.1,178.3,560.2,178.3z"/>
	<path class="st0" d="M448,169.7c0.1-0.1,6.3-5.8,14.3-7.3c8-1.4,15.9,1.9,15.9,1.9c6.6,2.9,14.3,0,17.2-6.6
		c2.9-6.6,0-14.3-6.6-17.2c-1.5-0.7-15.2-6.5-31-3.7c-15.7,2.8-26.6,13-27.8,14.1c-5.2,5-5.3,13.3-0.3,18.4c2.6,2.6,6,4,9.4,4
		C442.2,173.4,445.4,172.2,448,169.7z"/>
	<path class="st0" d="M545.9,164.3c0.1,0,8-3.3,15.9-1.9c7.9,1.4,14.1,7,14.3,7.3c2.5,2.4,5.8,3.6,9,3.6c3.4,0,6.8-1.3,9.3-4
		c5-5.2,4.9-13.4-0.3-18.4c-1.2-1.2-12.1-11.3-27.8-14.1c-15.7-2.8-29.5,3-31,3.7c-6.6,2.9-9.5,10.6-6.6,17.2
		C531.6,164.3,539.3,167.2,545.9,164.3z"/>
	<path class="st0" d="M512,320c0.1,0,0.3,0,0.4,0c23.1,0,68-8.2,75.4-39.3c3.5-14.4-1.7-30.5-12.6-39.1c-11.4-9-23.3-6.2-34.7-3.4
		c-7.4,1.8-15.8,3.8-27.1,4.1c-13.1,0.4-23-1.8-31.6-3.6c-12.3-2.6-25-5.4-35.6,5c-10.6,10.3-11.3,27.1-7.3,39.3
		C450.7,318.7,505.8,320,512,320z M464.3,262.4C464.3,262.4,464.3,262.4,464.3,262.4c1.8-0.4,7.7,0.8,12,1.8
		c9.1,2,21.5,4.6,37.8,4.2c14-0.4,24.7-2.9,32.4-4.8c8.4-2,11.2-2.5,12.5-1.4c2.9,2.3,4.5,8.2,3.4,12.6
		c-2.8,11.5-28.7,19.4-50.4,19.3c-13.8-0.1-43.8-4.8-48.6-19.2C462.1,270.2,462.4,264.2,464.3,262.4z"/>
</g>
</svg>
