<?xml version="1.0" encoding="utf-8"?>
<!-- Generator: Adobe Illustrator 25.0.1, SVG Export Plug-In . SVG Version: 6.00 Build 0)  -->
<svg version="1.1" id="Layer_1" xmlns="http://www.w3.org/2000/svg" xmlns:xlink="http://www.w3.org/1999/xlink" x="0px" y="0px"
	 viewBox="0 0 1024 1024" style="enable-background:new 0 0 1024 1024;" xml:space="preserve">
<style type="text/css">
	.st0{fill:#25333F;}
</style>
<g>
	<path class="st0" d="M144.5,890.8c3,3.9,7.6,6.1,12.3,6.1c1.6,0,3.3-0.3,4.9-0.8l517.8-170.8c8.1-2.7,12.6-11.5,9.9-19.6
		c-2.7-8.1-11.5-12.6-19.6-9.9L194.2,852.7l55.3-84.3c3.1-4.8,3.4-10.9,0.7-15.9c-2.7-5-8-8.2-13.7-8.2h-27.3l59.3-90.4
		c4.7-7.2,2.7-16.8-4.5-21.5c-7.2-4.7-16.8-2.7-21.5,4.5l-75,114.5c-3.1,4.8-3.4,10.9-0.7,15.9c2.7,5,8,8.2,13.7,8.2h27.3
		l-63.9,97.5C140.2,878.4,140.5,885.6,144.5,890.8z"/>
	<path class="st0" d="M703.5,392.2c4.9,0,9.6-2.3,12.6-6.4c3.8-5.2,3.9-12.2,0.4-17.6L519.3,67.3c-2.9-4.4-7.8-7-13-7
		c-5.2,0-10.1,2.6-13,7L355.3,277.8c-2.7,4.2-3.3,9.4-1.5,14c1.8,4.7,5.7,8.2,10.5,9.5l25.3,6.8c8.3,2.2,16.8-2.7,19-11
		c2.2-8.3-2.7-16.8-11-19l-4.6-1.3l113.2-172.7l161.8,246.9l-171.2-46.2c-8.3-2.2-16.8,2.7-19,11c-2.2,8.3,2.7,16.8,11,19
		l210.6,56.8C700.8,392.1,702.1,392.2,703.5,392.2z"/>
	<path class="st0" d="M787,706.5c4.8,0,9.4-2.2,12.4-6.1c4-5.2,4.3-12.4,0.6-17.9L737.5,587h33.1c5.7,0,10.9-3.1,13.6-8
		c2.7-4.9,2.6-11-0.4-15.8l-85.5-136.3c-4.6-7.3-14.1-9.5-21.4-4.9c-7.3,4.6-9.5,14.1-4.9,21.4l70.6,112.6h-33.8
		c-5.7,0-11,3.1-13.7,8.2c-2.7,5-2.5,11.1,0.7,15.9l54.1,82.6L422.4,556.5c-8.2-2.6-16.9,1.8-19.6,10c-2.6,8.2,1.8,16.9,10,19.6
		l369.4,119.7C783.8,706.2,785.4,706.5,787,706.5z"/>
	<path class="st0" d="M609.1,408l-273,124.7c-7.8,3.6-11.2,12.8-7.7,20.6c2.6,5.7,8.2,9.1,14.1,9.1c2.2,0,4.4-0.5,6.4-1.4l273-124.7
		c7.8-3.6,11.2-12.8,7.7-20.6C626.1,407.9,616.9,404.5,609.1,408z"/>
	<path class="st0" d="M233.5,584.5c2.6,1.7,5.6,2.5,8.5,2.5c5.1,0,10-2.5,13-7l123.5-188.4c3.1-4.8,3.4-10.9,0.7-15.9
		c-2.7-5-8-8.2-13.7-8.2h-31.8l16.9-25.8c4.7-7.2,2.7-16.8-4.5-21.5c-7.2-4.7-16.8-2.7-21.5,4.5l-32.7,49.9
		c-3.1,4.8-3.4,10.9-0.7,15.9c2.7,5,8,8.2,13.7,8.2h31.8L229,562.9C224.3,570.1,226.3,579.8,233.5,584.5z"/>
	<path class="st0" d="M124.5,963.7h775c5.7,0,11-3.1,13.7-8.1c2.7-5,2.5-11.1-0.7-15.9L804.8,775.4h21.9c8.6,0,15.5-7,15.5-15.5
		c0-8.6-7-15.5-15.5-15.5h-50.6c-5.7,0-11,3.1-13.7,8.2c-2.7,5-2.5,11.1,0.7,15.9l107.7,164.3H124.5c-8.6,0-15.5,7-15.5,15.5
		C109,956.8,115.9,963.7,124.5,963.7z"/>
</g>
</svg>
