<?xml version="1.0" encoding="utf-8"?>
<!-- Generator: Adobe Illustrator 25.0.1, SVG Export Plug-In . SVG Version: 6.00 Build 0)  -->
<svg version="1.1" id="Layer_1" xmlns="http://www.w3.org/2000/svg" xmlns:xlink="http://www.w3.org/1999/xlink" x="0px" y="0px"
	 viewBox="0 0 1024 1024" style="enable-background:new 0 0 1024 1024;" xml:space="preserve">
<style type="text/css">
	.st0{fill:#25333F;}
</style>
<g>
	<path class="st0" d="M379.1,708.9c-69.8,0-126.6,56.8-126.6,126.6s56.8,126.6,126.6,126.6h200.4c53.5,0,96.9-43.5,96.9-96.9V563.4
		h13.5c18.8,0,34.1-15.3,34.1-34.1V419.6c0-18.8-15.3-34.1-34.1-34.1h-86.5V194.9c0-19.3,15.7-35,35-35c19.3,0,35,15.7,35,35v27.7
		c0,27.1,22,49.1,49.1,49.1c27.1,0,49.1-22,49.1-49.1v-27.7c0-0.8,0-1.5-0.1-2.3c-0.6-35-14.7-67.9-39.7-92.5
		c-25.1-24.7-58.3-38.4-93.4-38.4c-35.2,0-68.3,13.6-93.4,38.4c-21.4,21.1-34.8,48.2-38.6,77.5c-23.5-18.9-52.5-29.1-83-29.1
		c-35.2,0-68.3,13.6-93.4,38.4c-25,24.7-39.1,57.5-39.7,92.5c0,0.8-0.1,1.5-0.1,2.3v27.7c0,27.1,22,49.1,49.1,49.1
		s49.1-22,49.1-49.1v-27.7c0-19.3,15.7-35,35-35c19.3,0,35,15.7,35,35v103.8H381c-18.8,0-34.1,15.3-34.1,34.1v109.7
		c0,18.8,15.3,34.1,34.1,34.1h19.9v145.5H379.1z M737.2,155.2c4.8,11.8,7.6,24.7,7.8,38.1l0,0.5c0,0.4,0,0.8,0,1.2v27.7
		c0,12.4-10.1,22.5-22.5,22.5c-12.4,0-22.5-10.1-22.5-22.5V209L737.2,155.2z M638.4,88.3c34,0,64.5,16.3,84.1,41.4L694.6,170
		c-9.6-21.5-31.2-36.6-56.2-36.6c-16.7,0-31.9,6.7-43,17.6l-31.9-31.6C582.8,100.2,609.3,88.3,638.4,88.3z M531.8,194.9
		c0-0.4,0-0.8,0-1.2l0-0.5c0.3-19.3,5.8-37.3,15.1-52.9l33.7,33.3c-2.4,6.6-3.8,13.7-3.8,21.2v96.9l-20.8-20.6
		c-1.9-24.2-10.3-47.2-24.3-66.8V194.9z M576.9,329.2v56.2h-20.4v-76.4L576.9,329.2z M529.9,280.1l0,0.5c0,0.4,0,0.8,0,1.2v27.1
		l-45.1,26.2v-53.2c0-2-0.1-4-0.3-5.9l41.1-23.8C528.3,260.9,529.8,270.3,529.9,280.1z M530,339.5v46h-45.1v-19.8L530,339.5z
		 M361.8,309.4c0,12.4-10.1,22.5-22.5,22.5c-12.4,0-22.5-10.1-22.5-22.5v-27.7c0-0.4,0-0.8,0-1.2l0-0.5c0.2-10,1.7-19.7,4.5-28.9
		l40.5,35.3V309.4z M421.3,220.2c-23.9,0.8-44.4,15.3-53.9,35.9l-34.7-30.2c18.9-30.4,52.6-50.8,90.7-50.8c1.8,0,3.6,0,5.3,0.1
		L421.3,220.2z M447.4,225.1l7.4-45.2c25.3,7.9,46.7,25.1,60.1,47.6L476.1,250C469.4,239,459.4,230.2,447.4,225.1z M381,536.9
		c-4.2,0-7.5-3.4-7.5-7.5V419.6c0-4.2,3.4-7.5,7.5-7.5h309c4.2,0,7.5,3.4,7.5,7.5v109.7c0,4.2-3.4,7.5-7.5,7.5h-26.8h-249H381z
		 M414.1,735.5c7.3,0,13.3-5.9,13.3-13.3V563.4h222.4v301.9c0,38.8-31.6,70.4-70.4,70.4H379.1c-55.2,0-100.1-44.9-100.1-100.1
		c0-55.2,44.9-100.1,100.1-100.1H414.1z"/>
</g>
</svg>
