<?xml version="1.0" encoding="utf-8"?>
<!-- Generator: Adobe Illustrator 25.0.1, SVG Export Plug-In . SVG Version: 6.00 Build 0)  -->
<svg version="1.1" id="Layer_1" xmlns="http://www.w3.org/2000/svg" xmlns:xlink="http://www.w3.org/1999/xlink" x="0px" y="0px"
	 viewBox="0 0 1024 1024" style="enable-background:new 0 0 1024 1024;" xml:space="preserve">
<style type="text/css">
	.st0{fill:#25333F;}
</style>
<path class="st0" d="M310.2,745.5c-24.9,24.9-38.9,58.1-39.3,93.3c-0.5,35.2,12.6,68.8,36.9,94.3c23.4,24.7,55.1,39.6,89.1,41.8
	c2.9,0.2,5.8,0.3,8.7,0.3c30.9,0,60.8-10.6,85-30.3l175.6-143.3c49.6-40.4,75.5-102.6,69.3-166.3l-33.9-346.5l18.9-8.2
	c22.8-9.8,35.9-33.8,31.9-58.3l-21-128.3c-2.7-16.5-12.7-30.7-27.4-38.7c-14.7-8-32-8.8-47.4-2.2L324.3,196.9
	c-22.8,9.8-35.9,33.8-31.9,58.3l21,128.3c2.7,16.5,12.7,30.6,27.4,38.7c8.1,4.4,17,6.7,25.9,6.7c5.1,0,10.2-0.7,15.1-2.2l31.3,188.6
	c2.4,14.6-2.4,29.6-12.9,40.1L310.2,745.5z M710,637.9c5.2,53.5-15.7,105.8-56.2,140.8c-12.8-29.3-15-61.7-5.9-92.7
	c9.5-32.6,30.4-59.8,59.2-77.5L710,637.9z M378,400.9c-8.1,3.5-17.2,3.1-25-1.2c-7.8-4.2-13-11.7-14.5-20.4l-21-128.3
	c-2.1-12.9,4.8-25.6,16.8-30.8L666.8,76.7c3.6-1.6,7.5-2.4,11.3-2.4c4.7,0,9.4,1.2,13.7,3.5c7.8,4.2,13,11.7,14.5,20.4l21,128.3
	c2.1,12.9-4.8,25.6-16.8,30.8L378,400.9z M438.3,611.1L406,416.6l271-117.1l27.5,281.7c-1.2,0.3-2.3,0.7-3.4,1.3
	c-37.9,20.7-65.5,54.9-77.6,96.3c-11.5,39.1-7.9,80.2,10,116.6L474.4,925.2c-20.1,16.4-44.5,24.4-68.8,24.4
	c-29.1,0-58-11.5-79.3-33.9c-40.9-43.2-40-110,2-152.1l90-90.2C434.6,657.1,442,633.8,438.3,611.1z"/>
</svg>
