<?xml version="1.0" encoding="utf-8"?>
<!-- Generator: Adobe Illustrator 25.0.1, SVG Export Plug-In . SVG Version: 6.00 Build 0)  -->
<svg version="1.1" id="Layer_1" xmlns="http://www.w3.org/2000/svg" xmlns:xlink="http://www.w3.org/1999/xlink" x="0px" y="0px"
	 viewBox="0 0 1024 1024" style="enable-background:new 0 0 1024 1024;" xml:space="preserve">
<style type="text/css">
	.st0{fill:#25333F;}
</style>
<g>
	<path class="st0" d="M856.9,344.2c0-34.8-28.3-63.1-63.1-63.1H230.3c-34.8,0-63.1,28.3-63.1,63.1v132c0,34.8,28.3,63.1,63.1,63.1
		h563.5c34.8,0,63.1-28.3,63.1-63.1V344.2z M828.8,476.2c0,19.3-15.7,35-35,35H230.3c-19.3,0-35-15.7-35-35v-132
		c0-19.3,15.7-35,35-35h563.5c19.3,0,35,15.7,35,35V476.2z"/>
	<path class="st0" d="M234,585.5c-7.8,0-14.1,6.3-14.1,14.1v280.7c0,34.8,28.3,63.1,63.1,63.1h457.8c34.8,0,63.1-28.3,63.1-63.1
		V599.6c0-7.8-6.3-14.1-14.1-14.1s-14.1,6.3-14.1,14.1v280.7c0,19.3-15.7,35-35,35H283.1c-19.3,0-35-15.7-35-35V599.6
		C248.1,591.8,241.8,585.5,234,585.5z"/>
	<path class="st0" d="M407.2,156.6c1.2-2.8,3.6-3.7,4.9-4.1c1.3-0.3,3.8-0.5,6.2,1.4l53.4,43.4c6,4.9,14.9,4,19.8-2.1
		c4.9-6,4-14.9-2.1-19.8l-53.4-43.4c-8.6-7-19.7-9.5-30.5-6.9c-10.8,2.6-19.5,9.9-24,20l-22.1,49.9c-4.2,9.4-4,20.1,0.4,29.4
		s12.6,16.2,22.6,18.9l65.5,17.9c1.2,0.3,2.5,0.5,3.7,0.5c6.2,0,11.9-4.1,13.6-10.4c2-7.5-2.4-15.2-9.9-17.3l-65.5-17.9
		c-2.8-0.8-4-2.7-4.6-3.8c-0.5-1.1-1.2-3.3-0.1-6L407.2,156.6z"/>
	<path class="st0" d="M712.2,209.8l-133.3,24c-7.6,1.4-12.7,8.7-11.3,16.3c1.2,6.8,7.1,11.6,13.8,11.6c0.8,0,1.7-0.1,2.5-0.2
		l133.3-24c11.2-2,20.7-9.3,25.6-19.6c4.9-10.2,4.5-22.3-1-32.2l-48.2-87c-5.3-9.6-14.5-16-25.3-17.7c-10.8-1.7-21.6,1.6-29.6,9.1
		l-99.2,92.7c-5.7,5.3-6,14.2-0.7,19.9c5.3,5.7,14.2,6,19.9,0.7l99.2-92.7c2.2-2.1,4.7-2,6-1.8c1.3,0.2,3.7,0.9,5.1,3.6l48.2,87
		c1.5,2.8,0.8,5.3,0.2,6.5C716.8,207.1,715.4,209.3,712.2,209.8z"/>
</g>
</svg>
