<?xml version="1.0" encoding="utf-8"?>
<!-- Generator: Adobe Illustrator 25.0.1, SVG Export Plug-In . SVG Version: 6.00 Build 0)  -->
<svg version="1.1" id="Layer_1" xmlns="http://www.w3.org/2000/svg" xmlns:xlink="http://www.w3.org/1999/xlink" x="0px" y="0px"
	 viewBox="0 0 1024 1024" style="enable-background:new 0 0 1024 1024;" xml:space="preserve">
<style type="text/css">
	.st0{fill:#25333F;}
</style>
<g>
	<path class="st0" d="M512,93.6c-87.9,0-159.4,71.5-159.4,159.4v12.4h-97.8c-8.3,0-15,6.7-15,15v634.9c0,8.3,6.7,15,15,15h514.3
		c8.3,0,15-6.7,15-15V280.4c0-8.3-6.7-15-15-15h-97.8V253C671.4,165.1,599.9,93.6,512,93.6z M382.7,253c0-71.3,58-129.3,129.3-129.3
		s129.3,58,129.3,129.3v12.4H382.7V253z M754.1,295.5v604.9H269.9V295.5h82.7V341c0,8.3,6.7,15,15,15c8.3,0,15-6.7,15-15v-45.5
		h258.7V341c0,8.3,6.7,15,15,15c8.3,0,15-6.7,15-15v-45.5H754.1z"/>
	<path class="st0" d="M621.8,517.1l5.4-20.3c2.2-8-2.6-16.3-10.6-18.4c-8-2.2-16.3,2.6-18.4,10.6L585,538.4L527,571.8v-66.9
		l36.1-36.1c5.9-5.9,5.9-15.4,0-21.3c-5.9-5.9-15.4-5.9-21.3,0L527,462.4v-56.1c0-8.3-6.7-15-15-15c-8.3,0-15,6.7-15,15v56.1
		l-14.9-14.9c-5.9-5.9-15.4-5.9-21.3,0c-5.9,5.9-5.9,15.4,0,21.3l36.1,36.1v66.9L439,538.4L425.8,489c-2.2-8-10.4-12.8-18.4-10.6
		c-8,2.2-12.8,10.4-10.6,18.4l5.4,20.3l-48.6-28.1c-7.2-4.2-16.4-1.7-20.5,5.5c-4.2,7.2-1.7,16.4,5.5,20.5l48.6,28.1l-20.3,5.4
		c-8,2.2-12.8,10.4-10.6,18.4c1.8,6.7,7.9,11.2,14.5,11.2c1.3,0,2.6-0.2,3.9-0.5l49.4-13.2l57.9,33.5L424,631.3l-49.4-13.2
		c-8-2.2-16.3,2.6-18.4,10.6c-2.1,8,2.6,16.3,10.6,18.4l20.3,5.4l-48.6,28.1c-7.2,4.2-9.7,13.4-5.5,20.5c2.8,4.8,7.8,7.5,13,7.5
		c2.6,0,5.1-0.7,7.5-2l48.6-28.1l-5.4,20.3c-2.2,8,2.6,16.3,10.6,18.4c1.3,0.3,2.6,0.5,3.9,0.5c6.6,0,12.7-4.4,14.5-11.2l13.2-49.4
		l57.9-33.5v66.9L460.8,727c-5.9,5.9-5.9,15.4,0,21.3c2.9,2.9,6.8,4.4,10.6,4.4c3.8,0,7.7-1.5,10.6-4.4l14.9-14.9v56.1
		c0,8.3,6.7,15,15,15c8.3,0,15-6.7,15-15v-56.1l14.9,14.9c2.9,2.9,6.8,4.4,10.6,4.4c3.8,0,7.7-1.5,10.6-4.4c5.9-5.9,5.9-15.4,0-21.3
		L527,690.8v-66.9l57.9,33.5l13.2,49.4c1.8,6.7,7.9,11.2,14.5,11.2c1.3,0,2.6-0.2,3.9-0.5c8-2.2,12.8-10.4,10.6-18.4l-5.4-20.3
		l48.6,28.1c2.4,1.4,5,2,7.5,2c5.2,0,10.3-2.7,13-7.5c4.2-7.2,1.7-16.4-5.5-20.5l-48.6-28.1l20.3-5.4c8-2.2,12.8-10.4,10.6-18.4
		c-2.1-8-10.4-12.8-18.4-10.6L600,631.3l-57.9-33.5l57.9-33.5l49.4,13.2c1.3,0.4,2.6,0.5,3.9,0.5c6.6,0,12.7-4.4,14.5-11.2
		c2.2-8-2.6-16.3-10.6-18.4l-20.3-5.4l48.6-28.1c7.2-4.2,9.7-13.3,5.5-20.5c-4.2-7.2-13.3-9.7-20.5-5.5L621.8,517.1z"/>
</g>
</svg>
