<?xml version="1.0" encoding="utf-8"?>
<!-- Generator: Adobe Illustrator 25.0.1, SVG Export Plug-In . SVG Version: 6.00 Build 0)  -->
<svg version="1.1" id="Layer_1" xmlns="http://www.w3.org/2000/svg" xmlns:xlink="http://www.w3.org/1999/xlink" x="0px" y="0px"
	 viewBox="0 0 1024 1024" style="enable-background:new 0 0 1024 1024;" xml:space="preserve">
<style type="text/css">
	.st0{fill:#25333F;}
</style>
<g>
	<path class="st0" d="M561,366.2c1.2,2.1,3.4,3.3,5.7,3.3c1.1,0,2.2-0.3,3.3-0.9l68.5-39.6l-11.1,41.6c-0.9,3.5,1.1,7.1,4.6,8
		c0.6,0.2,1.1,0.2,1.7,0.2c2.9,0,5.5-1.9,6.3-4.9l14.5-54.3l23.9-13.8l52.2,30.1v27.5l-39.7,39.7c-2.6,2.6-2.6,6.7,0,9.3
		c1.3,1.3,3,1.9,4.6,1.9c1.7,0,3.4-0.6,4.6-1.9l30.5-30.5v79.1c0,3.6,2.9,6.6,6.6,6.6c3.6,0,6.6-2.9,6.6-6.6v-79.1l30.5,30.5
		c1.3,1.3,3,1.9,4.6,1.9c1.7,0,3.4-0.6,4.6-1.9c2.6-2.6,2.6-6.7,0-9.3l-39.7-39.7v-27.5l52.2-30.1l23.9,13.8l14.5,54.3
		c0.8,2.9,3.4,4.9,6.3,4.9c0.6,0,1.1-0.1,1.7-0.2c3.5-0.9,5.6-4.5,4.6-8l-11.1-41.6l68.5,39.6c1,0.6,2.2,0.9,3.3,0.9
		c2.3,0,4.5-1.2,5.7-3.3c1.8-3.1,0.7-7.1-2.4-9l-68.5-39.6l41.6-11.1c3.5-0.9,5.6-4.5,4.6-8c-0.9-3.5-4.5-5.6-8-4.6l-54.3,14.5
		l-23.9-13.8v-60.3l23.9-13.8l54.3,14.5c0.6,0.2,1.1,0.2,1.7,0.2c2.9,0,5.5-1.9,6.3-4.9c0.9-3.5-1.1-7.1-4.6-8l-41.6-11.1l68.5-39.6
		c3.1-1.8,4.2-5.8,2.4-9c-1.8-3.1-5.8-4.2-9-2.4L835.9,200l11.1-41.6c0.9-3.5-1.1-7.1-4.6-8c-3.5-0.9-7.1,1.1-8,4.6l-14.5,54.3
		L795.9,223l-52.2-30.1v-27.5l39.7-39.7c2.6-2.6,2.6-6.7,0-9.3c-2.6-2.6-6.7-2.6-9.3,0l-30.5,30.5V67.7c0-3.6-2.9-6.6-6.6-6.6
		c-3.6,0-6.6,2.9-6.6,6.6v79.1l-30.5-30.5c-2.6-2.6-6.7-2.6-9.3,0c-2.6,2.6-2.6,6.7,0,9.3l39.7,39.7v27.5L678.4,223l-23.9-13.8
		L640,155c-0.9-3.5-4.5-5.6-8-4.6c-3.5,0.9-5.6,4.5-4.6,8l11.1,41.6L570,160.4c-3.1-1.8-7.1-0.7-9,2.4c-1.8,3.1-0.7,7.1,2.4,9
		l68.5,39.6l-41.6,11.1c-3.5,0.9-5.6,4.5-4.6,8c0.8,2.9,3.4,4.9,6.3,4.9c0.6,0,1.1-0.1,1.7-0.2l54.3-14.5l23.9,13.8v60.3L648,308.4
		l-54.3-14.5c-3.5-0.9-7.1,1.1-8,4.6c-0.9,3.5,1.1,7.1,4.6,8l41.6,11.1l-68.5,39.6C560.3,359.1,559.2,363.1,561,366.2z M685,234.4
		l51.3-29.6c0.3,0,0.6,0.1,0.9,0.1c0.3,0,0.6,0,0.9-0.1l51.3,29.6v60.3l-52.2,30.1L685,294.7V234.4z"/>
	<path class="st0" d="M907,657.8c-1.8-3.1-5.8-4.2-9-2.4l-68.5,39.6l11.1-41.6c0.9-3.5-1.1-7.1-4.6-8c-3.5-0.9-7.1,1.1-8,4.6
		l-14.5,54.3l-76.1,43.9v-87.8l39.7-39.7c2.6-2.6,2.6-6.7,0-9.3c-2.6-2.6-6.7-2.6-9.3,0l-30.5,30.5v-79.1c0-3.6-2.9-6.6-6.6-6.6
		c-3.6,0-6.6,2.9-6.6,6.6v79.1l-30.5-30.5c-2.6-2.6-6.7-2.6-9.3,0c-2.6,2.6-2.6,6.7,0,9.3l39.7,39.7v87.8l-76.1-43.9l-14.5-54.3
		c-0.9-3.5-4.5-5.6-8-4.6c-3.5,0.9-5.6,4.5-4.6,8l11.1,41.6l-68.5-39.6c-3.1-1.8-7.1-0.7-9,2.4c-1.8,3.1-0.7,7.1,2.4,9l68.5,39.6
		L584,717.4c-3.5,0.9-5.6,4.5-4.6,8c0.8,2.9,3.4,4.9,6.3,4.9c0.6,0,1.1-0.1,1.7-0.2l54.3-14.5l76.1,43.9l-76.1,43.9l-54.3-14.5
		c-3.5-0.9-7.1,1.1-8,4.6c-0.9,3.5,1.1,7.1,4.6,8l41.6,11.1l-68.5,39.6c-3.1,1.8-4.2,5.8-2.4,9c1.2,2.1,3.4,3.3,5.7,3.3
		c1.1,0,2.2-0.3,3.3-0.9l68.5-39.6L621,865.6c-0.9,3.5,1.1,7.1,4.6,8c0.6,0.2,1.1,0.2,1.7,0.2c2.9,0,5.5-1.9,6.3-4.9l14.5-54.3
		l76.1-43.9v87.8l-39.7,39.7c-2.6,2.6-2.6,6.7,0,9.3c1.3,1.3,3,1.9,4.6,1.9c1.7,0,3.4-0.6,4.6-1.9l30.5-30.5v79.1
		c0,3.6,2.9,6.6,6.6,6.6c3.6,0,6.6-2.9,6.6-6.6v-79.1l30.5,30.5c1.3,1.3,3,1.9,4.6,1.9c1.7,0,3.4-0.6,4.6-1.9c2.6-2.6,2.6-6.7,0-9.3
		l-39.7-39.7v-87.8l76.1,43.9L828,869c0.8,2.9,3.4,4.9,6.3,4.9c0.6,0,1.1-0.1,1.7-0.2c3.5-0.9,5.6-4.5,4.6-8L829.5,824l68.5,39.6
		c1,0.6,2.2,0.9,3.3,0.9c2.3,0,4.5-1.2,5.7-3.3c1.8-3.1,0.7-7.1-2.4-9l-68.5-39.6l41.6-11.1c3.5-0.9,5.6-4.5,4.6-8
		c-0.9-3.5-4.5-5.6-8-4.6L820,803.4L744,759.5l76.1-43.9l54.3,14.5c0.6,0.2,1.1,0.2,1.7,0.2c2.9,0,5.5-1.9,6.3-4.9
		c0.9-3.5-1.1-7.1-4.6-8l-41.6-11.1l68.5-39.6C907.7,664.9,908.8,660.9,907,657.8z"/>
	<path class="st0" d="M510,505.4h-79.1l30.5-30.5c2.6-2.6,2.6-6.7,0-9.3c-2.6-2.6-6.7-2.6-9.3,0l-39.7,39.7H329l74.6-74.6
		c2.6-2.6,2.6-6.7,0-9.3c-2.6-2.6-6.7-2.6-9.3,0l-74.6,74.6v-83.4l39.7-39.7c2.6-2.6,2.6-6.7,0-9.3c-2.6-2.6-6.7-2.6-9.3,0
		l-30.5,30.5v-79.1c0-3.6-2.9-6.6-6.6-6.6s-6.6,2.9-6.6,6.6v79.1l-30.5-30.5c-2.6-2.6-6.7-2.6-9.3,0c-2.6,2.6-2.6,6.7,0,9.3
		l39.7,39.7v83.4l-74.6-74.6c-2.6-2.6-6.7-2.6-9.3,0c-2.6,2.6-2.6,6.7,0,9.3l74.6,74.6H214l-39.7-39.7c-2.6-2.6-6.7-2.6-9.3,0
		c-2.6,2.6-2.6,6.7,0,9.3l30.5,30.5h-79.1c-3.6,0-6.6,2.9-6.6,6.6c0,3.6,2.9,6.6,6.6,6.6h79.1L165,549c-2.6,2.6-2.6,6.7,0,9.3
		c1.3,1.3,3,1.9,4.6,1.9c1.7,0,3.4-0.6,4.6-1.9l39.7-39.7h83.4l-74.6,74.6c-2.6,2.6-2.6,6.7,0,9.3c1.3,1.3,3,1.9,4.6,1.9
		c1.7,0,3.4-0.6,4.6-1.9l74.6-74.6v83.4l-39.7,39.7c-2.6,2.6-2.6,6.7,0,9.3c1.3,1.3,3,1.9,4.6,1.9c1.7,0,3.4-0.6,4.6-1.9l30.5-30.5
		v79.1c0,3.6,2.9,6.6,6.6,6.6s6.6-2.9,6.6-6.6v-79.1l30.5,30.5c1.3,1.3,3,1.9,4.6,1.9c1.7,0,3.4-0.6,4.6-1.9c2.6-2.6,2.6-6.7,0-9.3
		l-39.7-39.7v-83.4l74.6,74.6c1.3,1.3,3,1.9,4.6,1.9c1.7,0,3.4-0.6,4.6-1.9c2.6-2.6,2.6-6.7,0-9.3L329,518.6h83.4l39.7,39.7
		c1.3,1.3,3,1.9,4.6,1.9c1.7,0,3.4-0.6,4.6-1.9c2.6-2.6,2.6-6.7,0-9.3l-30.5-30.5H510c3.6,0,6.6-2.9,6.6-6.6
		C516.6,508.4,513.7,505.4,510,505.4z"/>
</g>
</svg>
