<?xml version="1.0" encoding="utf-8"?>
<!-- Generator: Adobe Illustrator 25.0.1, SVG Export Plug-In . SVG Version: 6.00 Build 0)  -->
<svg version="1.1" id="Layer_1" xmlns="http://www.w3.org/2000/svg" xmlns:xlink="http://www.w3.org/1999/xlink" x="0px" y="0px"
	 viewBox="0 0 1024 1024" style="enable-background:new 0 0 1024 1024;" xml:space="preserve">
<style type="text/css">
	.st0{fill:#25333F;}
</style>
<g>
	<path class="st0" d="M677.1,686.9c5.3-25.9,8-51.5,8-76.5c0-56.4-13.5-115.1-40-174.5c-16.6-37.2-38-73.9-63.7-109.6
		c3.9-1.7,6.6-5.6,6.6-10.1V205c0-6.1-4.9-11-11-11H447c-6.1,0-11,4.9-11,11v111.3c0,4.5,2.7,8.4,6.6,10.1
		c-25.7,35.6-47.1,72.4-63.7,109.6c-26.5,59.3-40,118-40,174.5c0,4.6,0.1,9.2,0.3,13.8c0,0.4,0,0.9,0,1.3
		c1.7,40.7,10.3,82.6,25.7,124.8c13.7,37.8,32.8,75.9,56.8,113.3c40.8,63.6,81,102.8,82.7,104.4c2.1,2.1,4.9,3.1,7.6,3.1
		c2.8,0,5.5-1,7.6-3.1c1.7-1.6,41.9-40.8,82.7-104.4c24-37.4,43.1-75.6,56.8-113.3c7.6-21,13.6-41.8,17.8-62.5
		C677,687.5,677.1,687.2,677.1,686.9z M458,216h108v89.3h-5.8h-96.4H458V216z M584.1,851.3C555,896.9,525.5,930,512,944.4
		c-13.5-14.3-43-47.5-72.1-93.1c-26-40.7-55.6-97.6-70.1-162.6l15.5-15.5l34.5,34.5l0,0l0,0c0.1,0.1,0.3,0.3,0.5,0.4
		c0.1,0.1,0.2,0.2,0.4,0.3c0.2,0.1,0.3,0.3,0.5,0.4c0.1,0.1,0.2,0.2,0.4,0.3c0.2,0.1,0.4,0.2,0.6,0.3c0.1,0.1,0.2,0.1,0.4,0.2
		c0.2,0.1,0.4,0.2,0.6,0.3c0.1,0.1,0.3,0.1,0.4,0.2c0.2,0.1,0.4,0.1,0.6,0.2c0.2,0.1,0.3,0.1,0.4,0.2c0.2,0.1,0.4,0.1,0.6,0.1
		c0.2,0,0.3,0.1,0.5,0.1c0.2,0,0.5,0.1,0.7,0.1c0.1,0,0.2,0,0.3,0c0.4,0,0.7,0,1.1,0c0.4,0,0.7,0,1.1,0c0.1,0,0.2,0,0.3,0
		c0.2,0,0.5-0.1,0.7-0.1c0.2,0,0.3-0.1,0.5-0.1c0.2,0,0.4-0.1,0.6-0.1c0.2,0,0.3-0.1,0.4-0.2c0.2-0.1,0.4-0.1,0.6-0.2
		c0.1-0.1,0.3-0.1,0.4-0.2c0.2-0.1,0.4-0.2,0.6-0.3c0.1-0.1,0.2-0.1,0.4-0.2c0.2-0.1,0.4-0.2,0.6-0.3c0.1-0.1,0.3-0.2,0.4-0.3
		c0.2-0.1,0.3-0.2,0.5-0.4c0.1-0.1,0.2-0.2,0.4-0.3c0.2-0.1,0.3-0.3,0.5-0.4l0,0l0,0l34.5-34.5l34.5,34.5l0,0l0,0
		c0.1,0.1,0.3,0.3,0.5,0.4c0.1,0.1,0.2,0.2,0.4,0.3c0.2,0.1,0.3,0.3,0.5,0.4c0.1,0.1,0.2,0.2,0.4,0.3c0.2,0.1,0.4,0.2,0.6,0.3
		c0.1,0.1,0.2,0.1,0.4,0.2c0.2,0.1,0.4,0.2,0.6,0.3c0.1,0.1,0.3,0.1,0.4,0.2c0.2,0.1,0.4,0.1,0.6,0.2c0.2,0.1,0.3,0.1,0.4,0.2
		c0.2,0.1,0.4,0.1,0.6,0.1c0.2,0,0.3,0.1,0.5,0.1c0.2,0,0.5,0.1,0.7,0.1c0.1,0,0.2,0,0.3,0c0.4,0,0.7,0,1.1,0c0.4,0,0.7,0,1.1,0
		c0.1,0,0.2,0,0.3,0c0.2,0,0.5-0.1,0.7-0.1c0.2,0,0.3-0.1,0.5-0.1c0.2,0,0.4-0.1,0.6-0.1c0.2,0,0.3-0.1,0.4-0.2
		c0.2-0.1,0.4-0.1,0.6-0.2c0.1-0.1,0.3-0.1,0.4-0.2c0.2-0.1,0.4-0.2,0.6-0.3c0.1-0.1,0.2-0.1,0.4-0.2c0.2-0.1,0.4-0.2,0.6-0.3
		c0.1-0.1,0.2-0.2,0.4-0.3c0.2-0.1,0.3-0.2,0.5-0.4c0.1-0.1,0.2-0.2,0.4-0.3c0.2-0.1,0.3-0.3,0.5-0.4l0,0l0,0l34.5-34.5l34.5,34.5
		l0,0l0,0c0.1,0.1,0.3,0.3,0.5,0.4c0.1,0.1,0.2,0.2,0.4,0.3c0.2,0.1,0.3,0.3,0.5,0.4c0.1,0.1,0.2,0.2,0.4,0.3
		c0.2,0.1,0.4,0.2,0.6,0.3c0.1,0.1,0.2,0.1,0.4,0.2c0.2,0.1,0.4,0.2,0.6,0.3c0.1,0.1,0.3,0.1,0.4,0.2c0.2,0.1,0.4,0.1,0.6,0.2
		c0.2,0.1,0.3,0.1,0.4,0.2c0.2,0.1,0.4,0.1,0.6,0.1c0.2,0,0.3,0.1,0.5,0.1c0.2,0,0.5,0.1,0.7,0.1c0.1,0,0.2,0,0.3,0
		c0.4,0,0.7,0,1.1,0c0.4,0,0.7,0,1.1,0c0.1,0,0.2,0,0.3,0c0.2,0,0.5-0.1,0.7-0.1c0.2,0,0.3-0.1,0.5-0.1c0.2,0,0.4-0.1,0.6-0.1
		c0.2,0,0.3-0.1,0.4-0.2c0.2-0.1,0.4-0.1,0.6-0.2c0.1-0.1,0.3-0.1,0.4-0.2c0.2-0.1,0.4-0.2,0.6-0.3c0.1-0.1,0.2-0.1,0.4-0.2
		c0.2-0.1,0.4-0.2,0.6-0.3c0.1-0.1,0.2-0.2,0.4-0.3c0.2-0.1,0.3-0.2,0.5-0.4c0.1-0.1,0.2-0.2,0.4-0.3c0.2-0.1,0.3-0.3,0.5-0.4l0,0
		l0,0l34.5-34.5l15.5,15.5C639.7,753.6,610.1,810.6,584.1,851.3z M659.1,662.5l-12.6-12.6l0,0l0,0c-0.1-0.2-0.3-0.3-0.5-0.4
		c-0.1-0.1-0.2-0.2-0.4-0.3c-0.2-0.1-0.4-0.3-0.5-0.4c-0.1-0.1-0.2-0.2-0.4-0.3c-0.2-0.1-0.4-0.2-0.6-0.3c-0.1-0.1-0.2-0.1-0.4-0.2
		c-0.2-0.1-0.4-0.2-0.6-0.3c-0.1-0.1-0.2-0.1-0.4-0.2c-0.2-0.1-0.4-0.2-0.6-0.2c-0.1,0-0.2-0.1-0.4-0.1c-0.2-0.1-0.4-0.1-0.6-0.2
		c-0.1,0-0.3-0.1-0.4-0.1c-0.2,0-0.4-0.1-0.6-0.1c-0.2,0-0.3-0.1-0.5-0.1c-0.2,0-0.4,0-0.6,0c-0.2,0-0.3,0-0.5,0c-0.2,0-0.3,0-0.5,0
		c-0.2,0-0.4,0-0.6,0c-0.2,0-0.3,0-0.5,0.1c-0.2,0-0.4,0-0.6,0.1c-0.1,0-0.3,0.1-0.4,0.1c-0.2,0-0.4,0.1-0.6,0.2
		c-0.1,0-0.3,0.1-0.4,0.1c-0.2,0.1-0.4,0.1-0.6,0.2c-0.1,0-0.2,0.1-0.3,0.2c-0.2,0.1-0.4,0.2-0.6,0.3c-0.1,0.1-0.2,0.1-0.3,0.2
		c-0.2,0.1-0.4,0.2-0.6,0.4c-0.1,0.1-0.2,0.2-0.4,0.3c-0.2,0.1-0.4,0.3-0.5,0.4c-0.1,0.1-0.3,0.2-0.4,0.4c-0.1,0.1-0.3,0.3-0.4,0.4
		l0,0l0,0l-34.5,34.5L562,649.9l0,0l0,0c-0.1-0.1-0.3-0.2-0.4-0.4c-0.1-0.1-0.3-0.3-0.4-0.4c-0.1-0.1-0.2-0.2-0.4-0.3
		c-0.2-0.1-0.3-0.3-0.5-0.4c-0.1-0.1-0.2-0.1-0.3-0.2c-0.2-0.1-0.4-0.2-0.6-0.3c-0.1-0.1-0.2-0.1-0.4-0.2c-0.2-0.1-0.4-0.2-0.6-0.3
		c-0.1,0-0.2-0.1-0.4-0.1c-0.2-0.1-0.4-0.2-0.6-0.2c-0.1,0-0.3-0.1-0.4-0.1c-0.2-0.1-0.4-0.1-0.6-0.2c-0.1,0-0.3,0-0.4-0.1
		c-0.2,0-0.4-0.1-0.6-0.1c-0.2,0-0.3,0-0.5,0c-0.2,0-0.4,0-0.6,0c-0.2,0-0.4,0-0.6,0c-0.2,0-0.3,0-0.5,0c-0.2,0-0.4,0.1-0.6,0.1
		c-0.2,0-0.3,0-0.4,0.1c-0.2,0-0.4,0.1-0.6,0.2c-0.1,0-0.3,0.1-0.4,0.1c-0.2,0.1-0.4,0.1-0.6,0.2c-0.1,0-0.2,0.1-0.4,0.1
		c-0.2,0.1-0.4,0.2-0.6,0.3c-0.1,0.1-0.2,0.1-0.4,0.2c-0.2,0.1-0.4,0.2-0.6,0.3c-0.1,0.1-0.2,0.1-0.3,0.2c-0.2,0.1-0.3,0.2-0.5,0.4
		c-0.1,0.1-0.3,0.2-0.4,0.3c-0.2,0.1-0.3,0.3-0.4,0.4c-0.1,0.1-0.3,0.2-0.4,0.4l0,0l0,0L512,684.4l-34.5-34.5l0,0l0,0
		c-0.1-0.1-0.3-0.2-0.4-0.4c-0.1-0.1-0.3-0.3-0.4-0.4c-0.1-0.1-0.2-0.2-0.4-0.3c-0.2-0.1-0.3-0.3-0.5-0.4c-0.1-0.1-0.2-0.1-0.3-0.2
		c-0.2-0.1-0.4-0.2-0.6-0.3c-0.1-0.1-0.2-0.1-0.4-0.2c-0.2-0.1-0.4-0.2-0.6-0.3c-0.1,0-0.2-0.1-0.4-0.1c-0.2-0.1-0.4-0.2-0.6-0.2
		c-0.1,0-0.3-0.1-0.4-0.1c-0.2-0.1-0.4-0.1-0.6-0.2c-0.1,0-0.3,0-0.4-0.1c-0.2,0-0.4-0.1-0.6-0.1c-0.2,0-0.3,0-0.5,0
		c-0.2,0-0.4,0-0.6,0c-0.2,0-0.4,0-0.6,0c-0.2,0-0.3,0-0.5,0c-0.2,0-0.4,0.1-0.6,0.1c-0.2,0-0.3,0-0.4,0.1c-0.2,0-0.4,0.1-0.6,0.2
		c-0.1,0-0.3,0.1-0.4,0.1c-0.2,0.1-0.4,0.1-0.6,0.2c-0.1,0-0.3,0.1-0.4,0.1c-0.2,0.1-0.4,0.2-0.6,0.3c-0.1,0.1-0.2,0.1-0.4,0.2
		c-0.2,0.1-0.4,0.2-0.6,0.3c-0.1,0.1-0.2,0.1-0.3,0.2c-0.2,0.1-0.3,0.2-0.5,0.4c-0.1,0.1-0.3,0.2-0.4,0.3c-0.1,0.1-0.3,0.3-0.4,0.4
		c-0.1,0.1-0.3,0.2-0.4,0.4l0,0l0,0l-34.5,34.5L393,649.9l0,0l0,0c-0.1-0.1-0.3-0.2-0.4-0.4c-0.1-0.1-0.3-0.3-0.4-0.4
		c-0.2-0.1-0.3-0.2-0.5-0.3c-0.1-0.1-0.3-0.2-0.4-0.3c-0.2-0.1-0.4-0.2-0.6-0.4c-0.1-0.1-0.2-0.1-0.3-0.2c-0.3-0.1-0.6-0.3-0.9-0.4
		c0,0-0.1,0-0.1-0.1c-2.9-1.2-6.3-1.1-9.2,0.4c0,0-0.1,0-0.1,0c-0.2,0.1-0.5,0.3-0.7,0.4c-0.1,0-0.1,0.1-0.2,0.1
		c-0.2,0.1-0.4,0.3-0.6,0.4c-0.1,0.1-0.2,0.1-0.3,0.2c-0.2,0.1-0.3,0.3-0.5,0.4c-0.1,0.1-0.3,0.2-0.4,0.3l0,0l0,0l-12.6,12.6
		c-1.7-11.1-2.9-22.4-3.5-33.8l23.9-23.9l34.5,34.5l0,0l0,0c0.1,0.1,0.3,0.3,0.5,0.4c0.1,0.1,0.2,0.2,0.4,0.3
		c0.2,0.1,0.3,0.3,0.5,0.4c0.1,0.1,0.2,0.2,0.4,0.3c0.2,0.1,0.4,0.2,0.6,0.3c0.1,0.1,0.2,0.2,0.4,0.2c0.2,0.1,0.4,0.2,0.6,0.3
		c0.1,0.1,0.3,0.1,0.4,0.2c0.2,0.1,0.4,0.1,0.6,0.2c0.2,0.1,0.3,0.1,0.4,0.2c0.2,0.1,0.4,0.1,0.6,0.1c0.2,0,0.3,0.1,0.5,0.1
		c0.2,0,0.5,0.1,0.7,0.1c0.1,0,0.2,0,0.3,0c0.4,0,0.7,0.1,1.1,0.1c0.4,0,0.7,0,1.1-0.1c0.1,0,0.2,0,0.3,0c0.2,0,0.5-0.1,0.7-0.1
		c0.2,0,0.3-0.1,0.5-0.1c0.2,0,0.4-0.1,0.6-0.1c0.2,0,0.3-0.1,0.4-0.2c0.2-0.1,0.4-0.1,0.6-0.2c0.1-0.1,0.3-0.1,0.4-0.2
		c0.2-0.1,0.4-0.2,0.6-0.3c0.1-0.1,0.2-0.1,0.4-0.2c0.2-0.1,0.4-0.2,0.6-0.3c0.1-0.1,0.3-0.2,0.4-0.3c0.2-0.1,0.3-0.2,0.5-0.4
		c0.1-0.1,0.2-0.2,0.4-0.3c0.2-0.1,0.3-0.3,0.5-0.4l0,0l0,0l34.5-34.5l34.5,34.5l0,0l0,0c0.1,0.1,0.3,0.3,0.5,0.4
		c0.1,0.1,0.2,0.2,0.4,0.3c0.2,0.1,0.3,0.3,0.5,0.4c0.1,0.1,0.2,0.2,0.4,0.3c0.2,0.1,0.4,0.2,0.6,0.3c0.1,0.1,0.2,0.2,0.4,0.2
		c0.2,0.1,0.4,0.2,0.6,0.3c0.1,0.1,0.3,0.1,0.4,0.2c0.2,0.1,0.4,0.1,0.6,0.2c0.2,0.1,0.3,0.1,0.4,0.2c0.2,0.1,0.4,0.1,0.6,0.1
		c0.2,0,0.3,0.1,0.5,0.1c0.2,0,0.5,0.1,0.7,0.1c0.1,0,0.2,0,0.3,0c0.4,0,0.7,0.1,1.1,0.1c0.4,0,0.7,0,1.1-0.1c0.1,0,0.2,0,0.3,0
		c0.2,0,0.5-0.1,0.7-0.1c0.2,0,0.3-0.1,0.5-0.1c0.2,0,0.4-0.1,0.6-0.1c0.2,0,0.3-0.1,0.4-0.2c0.2-0.1,0.4-0.1,0.6-0.2
		c0.1-0.1,0.3-0.1,0.4-0.2c0.2-0.1,0.4-0.2,0.6-0.3c0.1-0.1,0.2-0.1,0.4-0.2c0.2-0.1,0.4-0.2,0.6-0.3c0.1-0.1,0.2-0.2,0.4-0.3
		c0.2-0.1,0.3-0.2,0.5-0.4c0.1-0.1,0.2-0.2,0.4-0.3c0.2-0.1,0.3-0.3,0.5-0.4l0,0l0,0l34.5-34.5l34.5,34.5l0,0c0,0,0,0,0,0
		c0.1,0.1,0.3,0.3,0.5,0.4c0.1,0.1,0.2,0.2,0.4,0.3c0.2,0.1,0.3,0.3,0.5,0.4c0.1,0.1,0.2,0.2,0.4,0.3c0.2,0.1,0.4,0.2,0.6,0.3
		c0.1,0.1,0.2,0.2,0.4,0.2c0.2,0.1,0.4,0.2,0.6,0.3c0.1,0.1,0.3,0.1,0.4,0.2c0.2,0.1,0.4,0.1,0.6,0.2c0.2,0.1,0.3,0.1,0.4,0.2
		c0.2,0.1,0.4,0.1,0.6,0.1c0.2,0,0.3,0.1,0.5,0.1c0.2,0,0.5,0.1,0.7,0.1c0.1,0,0.2,0,0.3,0c0.4,0,0.7,0.1,1.1,0.1
		c0.4,0,0.7,0,1.1-0.1c0.1,0,0.2,0,0.3,0c0.2,0,0.5-0.1,0.7-0.1c0.2,0,0.3-0.1,0.5-0.1c0.2,0,0.4-0.1,0.6-0.1c0.2,0,0.3-0.1,0.4-0.2
		c0.2-0.1,0.4-0.1,0.6-0.2c0.1-0.1,0.3-0.1,0.4-0.2c0.2-0.1,0.4-0.2,0.6-0.3c0.1-0.1,0.2-0.1,0.4-0.2c0.2-0.1,0.4-0.2,0.6-0.3
		c0.1-0.1,0.2-0.2,0.4-0.3c0.2-0.1,0.3-0.2,0.5-0.4c0.1-0.1,0.2-0.2,0.4-0.3c0.2-0.1,0.3-0.3,0.5-0.4l0,0l0,0l34.5-34.5l23.9,23.9
		C662,640.1,660.8,651.4,659.1,662.5z M646.5,581.5L646.5,581.5C646.5,581.5,646.5,581.5,646.5,581.5c-0.2-0.2-0.4-0.3-0.5-0.5
		c-0.1-0.1-0.2-0.2-0.3-0.3c-0.2-0.2-0.5-0.4-0.7-0.5c-0.1,0-0.1-0.1-0.2-0.1c-0.3-0.2-0.6-0.3-0.8-0.5c0,0-0.1,0-0.1-0.1
		c-0.6-0.3-1.2-0.6-1.9-0.8c0,0-0.1,0-0.1,0c-0.3-0.1-0.6-0.2-0.9-0.2c-0.1,0-0.1,0-0.2,0c-0.2,0-0.5-0.1-0.7-0.1
		c-0.1,0-0.2,0-0.3,0c-0.2,0-0.4,0-0.6,0c-0.2,0-0.3,0-0.5,0s-0.3,0-0.5,0c-0.2,0-0.4,0-0.6,0c-0.1,0-0.2,0-0.3,0
		c-0.2,0-0.5,0.1-0.7,0.1c-0.1,0-0.1,0-0.2,0c-0.3,0.1-0.6,0.1-0.9,0.2c0,0-0.1,0-0.1,0c-0.6,0.2-1.3,0.4-1.9,0.8c0,0,0,0-0.1,0
		c-0.3,0.2-0.6,0.3-0.9,0.5c0,0-0.1,0.1-0.1,0.1c-0.3,0.2-0.5,0.4-0.8,0.6c-0.1,0.1-0.2,0.2-0.3,0.3c-0.2,0.1-0.3,0.3-0.5,0.4
		c0,0,0,0,0,0l0,0L596.5,616L562,581.5l0,0c0,0,0,0,0,0c-0.1-0.1-0.3-0.3-0.4-0.4c-0.1-0.1-0.3-0.2-0.4-0.3
		c-0.2-0.1-0.4-0.3-0.5-0.4c-0.1-0.1-0.2-0.2-0.4-0.3c-0.2-0.1-0.4-0.2-0.6-0.4c-0.1-0.1-0.2-0.1-0.3-0.2c-0.2-0.1-0.4-0.2-0.7-0.3
		c-0.1,0-0.2-0.1-0.3-0.1c-0.2-0.1-0.4-0.2-0.7-0.2c-0.1,0-0.2-0.1-0.4-0.1c-0.2-0.1-0.4-0.1-0.6-0.2c-0.1,0-0.3-0.1-0.4-0.1
		c-0.2,0-0.4-0.1-0.6-0.1c-0.1,0-0.3,0-0.4-0.1c-0.2,0-0.4,0-0.5,0c-0.2,0-0.3,0-0.5,0c-0.2,0-0.3,0-0.5,0c-0.2,0-0.4,0-0.5,0
		c-0.1,0-0.3,0-0.4,0.1c-0.2,0-0.4,0-0.6,0.1c-0.1,0-0.3,0.1-0.4,0.1c-0.2,0-0.4,0.1-0.6,0.2c-0.1,0-0.2,0.1-0.4,0.1
		c-0.2,0.1-0.4,0.1-0.7,0.2c-0.1,0-0.2,0.1-0.3,0.1c-0.2,0.1-0.5,0.2-0.7,0.3c-0.1,0.1-0.2,0.1-0.3,0.2c-0.2,0.1-0.4,0.2-0.6,0.4
		c-0.1,0.1-0.2,0.2-0.4,0.3c-0.2,0.1-0.4,0.3-0.5,0.4c-0.1,0.1-0.3,0.2-0.4,0.4c-0.1,0.1-0.3,0.3-0.4,0.4c0,0,0,0,0,0l0,0L512,616
		l-34.5-34.5l0,0c0,0,0,0,0,0c-0.1-0.1-0.3-0.3-0.4-0.4c-0.1-0.1-0.3-0.2-0.4-0.3c-0.2-0.1-0.4-0.3-0.5-0.4
		c-0.1-0.1-0.2-0.2-0.4-0.3c-0.2-0.1-0.4-0.2-0.6-0.4c-0.1-0.1-0.2-0.1-0.3-0.2c-0.2-0.1-0.4-0.2-0.7-0.3c-0.1,0-0.2-0.1-0.3-0.1
		c-0.2-0.1-0.4-0.2-0.7-0.2c-0.1,0-0.2-0.1-0.4-0.1c-0.2-0.1-0.4-0.1-0.6-0.2c-0.1,0-0.3-0.1-0.4-0.1c-0.2,0-0.4-0.1-0.6-0.1
		c-0.1,0-0.3,0-0.4-0.1c-0.2,0-0.4,0-0.5,0c-0.2,0-0.3,0-0.5,0c-0.2,0-0.3,0-0.5,0c-0.2,0-0.4,0-0.5,0c-0.1,0-0.3,0-0.4,0.1
		c-0.2,0-0.4,0-0.6,0.1c-0.1,0-0.3,0.1-0.4,0.1c-0.2,0-0.4,0.1-0.6,0.2c-0.1,0-0.2,0.1-0.4,0.1c-0.2,0.1-0.4,0.1-0.7,0.2
		c-0.1,0-0.2,0.1-0.3,0.1c-0.2,0.1-0.5,0.2-0.7,0.3c-0.1,0.1-0.2,0.1-0.3,0.2c-0.2,0.1-0.4,0.2-0.6,0.4c-0.1,0.1-0.2,0.2-0.4,0.3
		c-0.2,0.1-0.4,0.3-0.5,0.4c-0.1,0.1-0.3,0.2-0.4,0.4c-0.1,0.1-0.3,0.3-0.4,0.4c0,0,0,0,0,0l0,0L427.5,616L393,581.5l0,0
		c0,0,0,0,0,0c-0.1-0.1-0.3-0.3-0.5-0.4c-0.1-0.1-0.2-0.2-0.4-0.3c-0.2-0.2-0.4-0.3-0.7-0.5c-0.1-0.1-0.2-0.1-0.2-0.2
		c-0.3-0.2-0.6-0.4-0.9-0.5c0,0,0,0,0,0c-2.5-1.3-5.5-1.6-8.2-0.8l0,0c-0.3,0.1-0.5,0.2-0.8,0.3c-0.1,0-0.1,0-0.2,0.1
		c-0.2,0.1-0.4,0.2-0.6,0.3c-0.1,0.1-0.2,0.1-0.3,0.2c-0.2,0.1-0.3,0.2-0.5,0.3c-0.1,0.1-0.3,0.2-0.4,0.3c-0.1,0.1-0.3,0.2-0.4,0.3
		c-0.2,0.1-0.3,0.2-0.5,0.4c-0.1,0.1-0.3,0.2-0.4,0.4c-0.1,0.1-0.3,0.3-0.4,0.4c0,0,0,0,0,0l0,0l-16.4,16.4
		c4-109.7,59.8-206.5,108.2-270.6h85.5c48.4,64.1,104.1,160.9,108.2,270.6L646.5,581.5z"/>
	<path class="st0" d="M546.5,184.3c6.1,0,11-4.9,11-11v-67.9c0-21.3-17.4-38.7-38.7-38.7h-13.6c-21.3,0-38.7,17.4-38.7,38.7v67.9
		c0,6.1,4.9,11,11,11s11-4.9,11-11v-67.9c0-9.2,7.5-16.7,16.7-16.7h13.6c9.2,0,16.7,7.5,16.7,16.7v67.9
		C535.5,179.4,540.4,184.3,546.5,184.3z"/>
</g>
</svg>
