<?xml version="1.0" encoding="utf-8"?>
<!-- Generator: Adobe Illustrator 25.0.1, SVG Export Plug-In . SVG Version: 6.00 Build 0)  -->
<svg version="1.1" id="Layer_1" xmlns="http://www.w3.org/2000/svg" xmlns:xlink="http://www.w3.org/1999/xlink" x="0px" y="0px"
	 viewBox="0 0 1024 1024" style="enable-background:new 0 0 1024 1024;" xml:space="preserve">
<style type="text/css">
	.st0{fill:#25333F;stroke:#25333F;stroke-width:5;stroke-linecap:round;stroke-linejoin:round;stroke-miterlimit:10;}
</style>
<g>
	<path class="st0" d="M223.8,411.8c-0.4,0.7-1,1.1-1.7,1.1c-0.6,0-1.4-0.5-2.2-1.5c-0.9-1-2-2.2-3.3-3.7c-1.3-1.5-3-3.1-5-4.9
		c-2-1.8-4.5-3.4-7.4-4.9c-2.9-1.5-6.4-2.7-10.5-3.7c-4-1-8.7-1.5-14-1.5c-8.9,0-16.8,1.5-23.9,4.5c-7,3-13,7.1-17.9,12.2
		c-4.9,5.1-8.7,11.1-11.3,17.9c-2.6,6.8-4,14-4,21.5c0,7.1,1.3,13.1,4,17.9c2.6,4.8,6.1,8.9,10.5,12.2c4.3,3.4,9.2,6.2,14.7,8.6
		c5.5,2.4,11.1,4.7,16.9,6.9c5.8,2.2,11.4,4.5,16.9,7c5.5,2.4,10.4,5.4,14.7,8.8c4.3,3.5,7.8,7.7,10.5,12.7c2.6,5,4,11.2,4,18.5
		c0,9.5-1.6,18.5-4.9,27c-3.3,8.5-7.9,15.9-14,22.2c-6,6.4-13.4,11.4-22,15.2c-8.6,3.8-18.3,5.7-28.9,5.7c-6.7,0-12.7-0.6-17.8-1.9
		c-5.2-1.3-9.8-3.2-14-5.6c-4.1-2.4-7.9-5.4-11.2-8.8c-3.4-3.5-6.5-7.4-9.4-11.9l0.6-0.6c0.6-0.6,1.3-0.9,2.2-0.9
		c0.5,0,1.3,0.6,2.2,1.9c1,1.3,2.3,2.9,3.9,5c1.6,2,3.6,4.2,6,6.4c2.4,2.3,5.4,4.4,8.9,6.4c3.5,2,7.6,3.7,12.3,5
		c4.7,1.3,10.2,1.9,16.5,1.9c10,0,19.1-1.8,27.3-5.3c8.2-3.6,15.1-8.4,20.8-14.4c5.7-6,10.2-13.1,13.3-21.2c3.1-8.1,4.6-16.8,4.6-26
		c0-7-1.3-12.9-4-17.7c-2.6-4.8-6.1-8.8-10.5-12.1c-4.3-3.3-9.2-6.1-14.7-8.4c-5.5-2.3-11.1-4.5-16.9-6.7
		c-5.8-2.1-11.4-4.4-16.9-6.8c-5.5-2.4-10.4-5.4-14.7-8.9c-4.3-3.5-7.8-7.8-10.5-12.9c-2.6-5.1-4-11.4-4-18.8
		c0-7.9,1.4-15.4,4.1-22.6c2.7-7.2,6.7-13.5,11.9-19c5.2-5.5,11.6-9.8,19.1-13.1c7.5-3.3,16.2-4.9,25.9-4.9c9.6,0,18,1.7,25,5.1
		c7.1,3.4,13.4,8.8,19,16.3L223.8,411.8z"/>
	<path class="st0" d="M276.9,393.3l115.5,209.1c0-0.5,0-1.1,0-1.6c0-0.6,0.1-1.1,0.2-1.6L418,392.1h3.1l-26.7,217h-0.6
		c-0.7,0-1.4-0.5-2.2-1.5L276,398c-0.1,0.5-0.2,1-0.2,1.4c0,0.4,0,0.8-0.1,1.2c-0.1,0.4-0.1,0.8-0.1,1.1l-25.4,207.4h-3.1l26.7-217
		h1.2C275.8,392.1,276.4,392.5,276.9,393.3z"/>
	<path class="st0" d="M642.1,482.9c0,19.7-2.7,37.5-8.2,53.3c-5.5,15.8-13,29.3-22.6,40.4c-9.6,11.1-21,19.7-34.1,25.7
		c-13.1,6-27.3,9-42.6,9c-12.2,0-23.2-2.2-33-6.6c-9.8-4.4-18.2-10.6-25.2-18.7c-7-8.1-12.3-17.8-16.1-29.3
		c-3.8-11.5-5.7-24.3-5.7-38.4c0-13,1.2-25.3,3.7-36.7c2.5-11.5,6-22,10.6-31.5c4.6-9.5,10.1-18,16.6-25.5
		c6.5-7.5,13.7-13.8,21.6-19c8-5.2,16.5-9.1,25.7-11.9c9.2-2.7,18.9-4.1,29-4.1c12.2,0,23.2,2.2,33.2,6.6
		c9.9,4.4,18.4,10.6,25.3,18.8c7,8.1,12.3,17.9,16.1,29.5C640.2,455.9,642.1,468.7,642.1,482.9z M638.1,482.9
		c0-13.8-1.8-26.3-5.4-37.5c-3.6-11.2-8.8-20.6-15.4-28.4c-6.7-7.8-14.7-13.8-24.2-18c-9.5-4.2-20-6.3-31.5-6.3
		c-9.6,0-18.8,1.3-27.7,3.9c-8.8,2.6-17.1,6.4-24.7,11.3c-7.6,5-14.6,11.1-20.8,18.4c-6.3,7.3-11.6,15.6-16,24.8
		c-4.4,9.2-7.9,19.5-10.3,30.7c-2.4,11.2-3.6,23.3-3.6,36.2c0,13.8,1.8,26.4,5.5,37.5c3.7,11.2,8.9,20.6,15.6,28.4
		c6.7,7.8,14.8,13.8,24.2,18c9.4,4.2,19.8,6.3,31.3,6.3c14.7,0,28.3-2.9,40.9-8.6c12.6-5.7,23.5-14,32.8-24.8
		c9.2-10.8,16.5-23.9,21.7-39.4C635.5,519.8,638.1,502.3,638.1,482.9z"/>
	<path class="st0" d="M669.7,392.1h2.8c0.8,0,1.3,0.5,1.5,1.6l33.5,204c0.2,1.2,0.4,2.4,0.5,3.4c0.2,1,0.3,2.2,0.4,3.4
		c0.5-1.2,1-2.4,1.4-3.4c0.4-1,0.9-2.2,1.4-3.4l90.2-204c0.4-1,1.1-1.6,2.2-1.6h0.6c0.9,0,1.4,0.5,1.5,1.6l40,204
		c0.2,1.1,0.4,2.2,0.5,3.3c0.2,1.1,0.3,2.2,0.4,3.5c0.5-1.2,1-2.4,1.4-3.4c0.4-1,0.9-2.2,1.4-3.4l83.4-204c0.2-0.5,0.5-0.9,1-1.2
		c0.5-0.3,1-0.4,1.5-0.4h2.5l-89.9,217h-3.1l-40.9-208.3c-0.2-0.8-0.4-1.7-0.5-2.6c-0.1-0.9-0.2-1.7-0.2-2.6
		c-0.2,0.8-0.5,1.7-0.9,2.6c-0.4,0.9-0.7,1.7-1,2.6l-92.1,208.3h-3.1L669.7,392.1z"/>
</g>
</svg>
