<?xml version="1.0" encoding="utf-8"?>
<!-- Generator: Adobe Illustrator 25.0.1, SVG Export Plug-In . SVG Version: 6.00 Build 0)  -->
<svg version="1.1" id="Layer_1" xmlns="http://www.w3.org/2000/svg" xmlns:xlink="http://www.w3.org/1999/xlink" x="0px" y="0px"
	 viewBox="0 0 1024 1024" style="enable-background:new 0 0 1024 1024;" xml:space="preserve">
<style type="text/css">
	.st0{fill:#25333F;}
</style>
<g>
	<path class="st0" d="M825.2,420.8c-33.6-28.4-84-24.3-112.4,9.3l-15.4,18.1v-95.6c0-66.6-26.1-129.4-73.5-176.8
		c-47.4-47.4-110.2-73.5-176.8-73.5h-1.5c-66.6,0-129.4,26.1-176.8,73.5c-47.4,47.4-73.5,110.2-73.5,176.8v367.2
		c-14.3,5.7-24.5,19.7-24.5,36.1v127c0,21.4,17.4,38.8,38.8,38.8h474.9c21.4,0,38.8-17.4,38.8-38.8v-127c0-20.6-16.1-37.5-36.4-38.8
		c0.8-5.2,1.6-10.2,2.2-12.6l145.2-171.3c13.7-16.2,20.3-36.8,18.6-58.1C851.2,453.8,841.4,434.5,825.2,420.8z M220.5,352.6
		c0-124.1,100.9-225,225-225h1.5c124.1,0,225,100.9,225,225v0.4l-38.3-38.3c-2.4-2.4-5.6-3.7-9-3.7c-3.4,0-6.6,1.3-9,3.7l-50.6,50.6
		l-50.6-50.6c-2.4-2.4-5.6-3.7-9-3.7c-3.4,0-6.6,1.3-9,3.7l-50.6,50.6l-50.6-50.6c-2.4-2.4-5.6-3.7-9-3.7c-3.4,0-6.6,1.3-9,3.7
		L327,365.3l-50.6-50.6c-2.4-2.4-5.6-3.7-9-3.7c-3.4,0-6.6,1.3-9,3.7L220.5,352.6L220.5,352.6z M698,755.9v127
		c0,7.5-6.1,13.5-13.5,13.5H209.6c-7.5,0-13.5-6.1-13.5-13.5v-127c0-6.3,4.3-11.6,10.1-13.1c0.6,0.1,1.1,0.1,1.7,0.1
		c0.8,0,1.6-0.1,2.4-0.2c1.2-0.2,2.3-0.3,3.4-0.3H261v30.9c0,7,5.7,12.7,12.7,12.7c7,0,12.7-5.7,12.7-12.7v-30.9h44v30.9
		c0,7,5.7,12.7,12.7,12.7c7,0,12.7-5.7,12.7-12.7v-30.9h44v30.9c0,7,5.7,12.7,12.7,12.7s12.7-5.7,12.7-12.7v-30.9h44v30.9
		c0,7,5.7,12.7,12.7,12.7c7,0,12.7-5.7,12.7-12.7v-30.9h44v30.9c0,7,5.7,12.7,12.7,12.7c7,0,12.7-5.7,12.7-12.7v-30.9h44v30.9
		c0,7,5.7,12.7,12.7,12.7c7,0,12.7-5.7,12.7-12.7v-30.9h39.2h12.2C691.9,742.4,698,748.4,698,755.9z M815.1,516.8L668.6,689.7
		c-3.3,3.9-4.4,8.4-7.2,27.4H220.5V388.4l46.9-46.9l50.6,50.6c2.4,2.4,5.6,3.7,9,3.7c3.4,0,6.6-1.3,9-3.7l50.6-50.6l50.6,50.6
		c2.4,2.4,5.6,3.7,9,3.7c3.4,0,6.6-1.3,9-3.7l50.6-50.6l50.6,50.6c2.4,2.4,5.6,3.7,9,3.7c3.4,0,6.6-1.3,9-3.7l50.6-50.6l47.3,47.3
		v93.9c0,5.3,3.3,10.1,8.3,11.9c5,1.8,10.6,0.4,14-3.7l37.7-44.4c9.4-11,22.5-17.8,37.1-19c14.6-1.2,28.6,3.3,39.7,12.7
		c11,9.4,17.8,22.5,19,37.1C829,491.7,824.5,505.8,815.1,516.8z"/>
</g>
</svg>
