<?xml version="1.0" encoding="utf-8"?>
<!-- Generator: Adobe Illustrator 25.0.1, SVG Export Plug-In . SVG Version: 6.00 Build 0)  -->
<svg version="1.1" id="Layer_1" xmlns="http://www.w3.org/2000/svg" xmlns:xlink="http://www.w3.org/1999/xlink" x="0px" y="0px"
	 viewBox="0 0 1024 1024" style="enable-background:new 0 0 1024 1024;" xml:space="preserve">
<style type="text/css">
	.st0{fill:#25333F;}
</style>
<g>
	<g>
		<g>
			<path class="st0" d="M922.8,372.5c-0.4-5-1.4-9.7-3-14.1c-3.6-9.9-10.7-19-20.9-27c-6.4-5-14-9.6-22.5-13.5
				c0.8-0.6,1.2-1.6,1-2.4l-7.2-19.5c-0.4-1.1-1.9-1.5-3.4-0.9l-31.5,11.5c-1.5,0.5-2.3,1.8-2,2.9l7.2,19.5c0.3,0.8,1.2,1.2,2.3,1.2
				c-3.9,8.5-6.8,16.9-8.4,24.8c-2.6,12.7-2.1,24.2,1.5,34.1c0.3,0.8,0.6,1.6,1,2.4c0,0.1,0.1,0.1,0.1,0.2c3,7,7.8,13.5,14.2,19.6
				c5.7,5.4,12.8,10.4,21,14.8c14,7.5,26.2,10.8,26.7,10.9c0.6,0.2,1.4,0.1,2-0.1c0.7-0.2,1.3-0.7,1.7-1.2
				c0.3-0.4,7.5-10.9,13.3-25.6c3.4-8.7,5.6-17.1,6.5-24.9c0.5-4.3,0.6-8.5,0.3-12.5C922.8,372.6,922.8,372.6,922.8,372.5z
				 M839.5,309.5l26.2-9.6l5.7,15.6l-1.4,0.5l-23.3,8.6l-1.4,0.5L839.5,309.5z"/>
		</g>
		<g>
			<path class="st0" d="M858.9,296.1c1.5-0.5,2.3-1.8,2-2.9l-4.4-11.9c-1.4-3.7-6.7-5.2-11.8-3.3l-3.3,1.2
				c-5.2,1.9-8.2,6.5-6.9,10.2l4.4,11.9c0.4,1.1,1.9,1.5,3.4,0.9c1.5-0.5,2.3-1.8,2-2.9l-4.4-11.9c-0.6-1.6,0.7-3.6,3-4.4l3.3-1.2
				c2.2-0.8,4.5-0.2,5.1,1.4l4.4,11.9C855.9,296.2,857.4,296.6,858.9,296.1z"/>
		</g>
	</g>
	<g>
		<g>
			<path class="st0" d="M272.9,779.9c-0.4-5-1.4-9.7-3-14.1c-3.6-9.9-10.7-19-20.9-27c-6.4-5-14-9.6-22.5-13.5
				c0.8-0.6,1.2-1.6,1-2.4l-7.2-19.5c-0.4-1.1-1.9-1.5-3.4-0.9L185.5,714c-1.5,0.5-2.3,1.8-2,2.9l7.2,19.5c0.3,0.8,1.2,1.2,2.3,1.2
				c-3.9,8.5-6.8,16.9-8.4,24.8c-2.6,12.7-2.1,24.2,1.5,34.1c0.3,0.8,0.6,1.6,1,2.4c0,0.1,0.1,0.1,0.1,0.2c3,7,7.8,13.5,14.2,19.6
				c5.7,5.4,12.8,10.4,21,14.8c14,7.5,26.2,10.8,26.7,10.9c0.6,0.2,1.4,0.1,2-0.1c0.7-0.2,1.3-0.7,1.7-1.2
				c0.3-0.4,7.5-10.9,13.3-25.6c3.4-8.7,5.6-17.1,6.5-24.9c0.5-4.3,0.6-8.5,0.3-12.5C272.9,780,272.9,779.9,272.9,779.9z
				 M189.6,716.8l26.2-9.6l5.7,15.6l-1.4,0.5l-23.3,8.6l-1.4,0.5L189.6,716.8z"/>
		</g>
		<g>
			<path class="st0" d="M209,703.4c1.5-0.5,2.3-1.8,2-2.9l-4.4-11.9c-1.4-3.7-6.7-5.2-11.8-3.3l-3.3,1.2c-5.2,1.9-8.2,6.5-6.9,10.2
				l4.4,11.9c0.4,1.1,1.9,1.5,3.4,0.9c1.5-0.5,2.3-1.8,2-2.9l-4.4-11.9c-0.6-1.6,0.7-3.6,3-4.4l3.3-1.2c2.2-0.8,4.5-0.2,5.1,1.4
				l4.4,11.9C206,703.5,207.5,704,209,703.4z"/>
		</g>
	</g>
	<g>
		<g>
			<path class="st0" d="M405,644.5c-3-4-6.4-7.5-10.1-10.3c-8.4-6.4-19.2-10.2-32.1-11.5c-8.1-0.8-16.9-0.5-26.2,0.7
				c0.4-1,0.2-2-0.5-2.5l-16.5-12.6c-0.9-0.7-2.4-0.2-3.3,1L295.9,636c-0.9,1.2-1,2.8-0.1,3.5l16.5,12.6c0.7,0.5,1.7,0.4,2.5-0.2
				c1.3,9.3,3.4,17.8,6.3,25.5c4.7,12.2,11.3,21.5,19.7,27.9c0.7,0.5,1.4,1,2.1,1.5c0.1,0,0.1,0.1,0.2,0.1
				c6.3,4.2,13.9,7.2,22.5,8.8c7.8,1.5,16.4,1.8,25.7,1.1c15.8-1.2,27.9-5,28.4-5.2c0.6-0.2,1.2-0.7,1.6-1.2
				c0.4-0.6,0.7-1.2,0.7-1.9c0-0.5,0.5-13.2-2.6-28.8c-1.8-9.1-4.5-17.4-8-24.5c-1.9-3.9-4.1-7.5-6.5-10.7
				C405.1,644.6,405.1,644.5,405,644.5z M300.9,636.3l16.9-22.2l13.3,10.1l-0.9,1.2l-15,19.8l-0.9,1.2L300.9,636.3z"/>
		</g>
		<g>
			<path class="st0" d="M310,614.5c0.9-1.2,1-2.8,0.1-3.5l-10.1-7.7c-3.2-2.4-8.5-0.8-11.8,3.6l-2.1,2.8c-3.3,4.4-3.5,9.9-0.3,12.3
				l10.1,7.7c0.9,0.7,2.4,0.2,3.3-1s1-2.8,0.1-3.5l-10.1-7.7c-1.4-1-1.3-3.4,0.1-5.3l2.1-2.8c1.4-1.9,3.7-2.6,5.1-1.5l10.1,7.7
				C307.6,616.2,309.1,615.8,310,614.5z"/>
		</g>
	</g>
	<g>
		<g>
			<path class="st0" d="M806,420.6c-2.6-4.3-5.7-8-9.1-11.2c-7.7-7.1-18.2-12-30.9-14.4c-8-1.5-16.8-2.1-26.2-1.7
				c0.4-1,0.4-2-0.2-2.5l-15.3-14.1c-0.8-0.8-2.4-0.5-3.4,0.7L698.1,402c-1.1,1.2-1.2,2.7-0.4,3.5l15.3,14.1c0.6,0.6,1.6,0.5,2.5,0
				c0.4,9.4,1.7,18.1,3.9,25.9c3.5,12.5,9.2,22.5,17,29.6c0.6,0.6,1.3,1.1,1.9,1.7c0.1,0.1,0.1,0.1,0.2,0.2
				c5.9,4.8,13.1,8.5,21.6,10.9c7.6,2.2,16.2,3.4,25.5,3.5c15.9,0.3,28.3-2.4,28.8-2.5c0.7-0.1,1.3-0.5,1.8-1.1
				c0.5-0.5,0.8-1.2,0.9-1.8c0.1-0.5,1.7-13.1,0.1-28.9c-1-9.3-2.9-17.7-5.6-25.1c-1.5-4.1-3.4-7.9-5.5-11.3
				C806,420.7,806,420.7,806,420.6z M703,402.7l18.9-20.5l12.3,11.3l-1,1.1l-16.8,18.3l-1,1.1L703,402.7z"/>
		</g>
		<g>
			<path class="st0" d="M714.1,381.9c1.1-1.2,1.2-2.7,0.4-3.5l-9.3-8.6c-2.9-2.7-8.3-1.6-12.1,2.5l-2.4,2.6c-3.7,4-4.4,9.5-1.4,12.2
				l9.3,8.6c0.8,0.8,2.4,0.5,3.4-0.7c1.1-1.2,1.2-2.7,0.4-3.5l-9.3-8.6c-1.3-1.2-1-3.5,0.6-5.3l2.4-2.6c1.6-1.7,3.9-2.2,5.2-1.1
				l9.3,8.6C711.5,383.4,713.1,383.1,714.1,381.9z"/>
		</g>
	</g>
	<g>
		<g>
			<path class="st0" d="M547.7,579.5c-2.2-4.5-4.8-8.6-7.9-12.1c-7-7.9-16.8-13.8-29.3-17.5c-7.8-2.4-16.5-3.8-25.9-4.4
				c0.5-0.9,0.6-1.9,0-2.5l-13.8-15.5c-0.8-0.8-2.3-0.7-3.5,0.3l-25.1,22.2c-1.2,1-1.5,2.6-0.8,3.4l13.8,15.5
				c0.6,0.6,1.6,0.7,2.5,0.3c-0.6,9.4-0.1,18.2,1.2,26.2c2.2,12.8,6.9,23.3,13.8,31.2c0.6,0.6,1.2,1.3,1.8,1.9
				c0.1,0.1,0.1,0.1,0.2,0.2c5.4,5.4,12.2,9.8,20.4,13.1c7.3,2.9,15.7,5,25,6.1c15.7,1.9,28.3,0.5,28.9,0.5c0.7-0.1,1.3-0.4,1.9-0.9
				c0.5-0.5,0.9-1.1,1.1-1.7c0.1-0.5,3.1-12.9,3.1-28.7c0-9.3-1-17.9-3-25.5c-1.1-4.2-2.6-8.2-4.3-11.8
				C547.8,579.5,547.7,579.5,547.7,579.5z M447.2,551.1l20.9-18.5l11,12.5l-1.1,1l-18.6,16.5l-1.1,1L447.2,551.1z"/>
		</g>
		<g>
			<path class="st0" d="M460.4,531.6c1.2-1,1.5-2.6,0.8-3.4l-8.4-9.5c-2.6-3-8.1-2.4-12.3,1.2l-2.6,2.3c-4.1,3.6-5.3,9-2.7,12
				l8.4,9.5c0.8,0.8,2.3,0.7,3.5-0.3c1.2-1,1.5-2.6,0.8-3.4l-8.4-9.5c-1.1-1.3-0.6-3.6,1.2-5.2l2.6-2.3c1.8-1.6,4.2-1.8,5.3-0.5
				l8.4,9.5C457.6,532.8,459.2,532.6,460.4,531.6z"/>
		</g>
	</g>
	<g>
		<g>
			<path class="st0" d="M670.4,522.6c-1.4-4.8-3.3-9.3-5.7-13.2c-5.5-9-14.2-16.5-25.9-22.3c-7.3-3.6-15.6-6.6-24.7-8.8
				c0.7-0.8,0.9-1.8,0.5-2.5l-10.9-17.7c-0.6-1-2.2-1.1-3.5-0.3l-28.5,17.6c-1.3,0.8-1.9,2.3-1.3,3.2l10.9,17.7
				c0.4,0.7,1.4,1,2.4,0.7c-2.1,9.1-3.2,17.9-3.2,26c0,13,2.8,24.2,8.3,33.1c0.4,0.7,0.9,1.4,1.4,2.1c0,0.1,0.1,0.1,0.1,0.2
				c4.4,6.2,10.4,11.7,17.9,16.3c6.7,4.1,14.6,7.6,23.6,10.3c15.2,4.6,27.8,5.3,28.4,5.4c0.7,0,1.4-0.2,2-0.5
				c0.6-0.4,1.1-0.9,1.4-1.5c0.2-0.5,5.2-12.2,7.9-27.8c1.6-9.2,2-17.8,1.4-25.7c-0.4-4.4-1.1-8.5-2.2-12.3
				C670.5,522.7,670.4,522.7,670.4,522.6z M576.2,477.5l23.7-14.6l8.8,14.2l-1.3,0.8l-21.1,13.1l-1.3,0.8L576.2,477.5z"/>
		</g>
		<g>
			<path class="st0" d="M592.5,460.5c1.3-0.8,1.9-2.3,1.3-3.2l-6.7-10.8c-2.1-3.4-7.6-3.8-12.3-0.9l-3,1.8c-4.7,2.9-6.8,8-4.7,11.4
				l6.7,10.8c0.6,1,2.2,1.1,3.5,0.3s1.9-2.3,1.3-3.2l-6.7-10.8c-0.9-1.5,0-3.7,2-4.9l3-1.8c2-1.2,4.4-1.1,5.3,0.4l6.7,10.8
				C589.6,461.2,591.2,461.3,592.5,460.5z"/>
		</g>
	</g>
	<g>
		<path class="st0" d="M77.4,734.4c-4.7,0-9.3-2.4-11.8-6.8c-3.8-6.6-1.6-14.9,4.9-18.7c45.1-26.3,74.9-41.3,95.1-49.1
			c7.6-15.7,25.7-32.5,54.8-50.7c19.6-12.3,36.5-20.1,50.8-23.4c11.1-12.2,29.6-26.1,56.4-42.8C361,522,387,509.1,407,504
			c7.1-18.2,29.7-37.5,69.3-59.6c32.4-18,56.9-27.8,75-29.6c9.7-16.1,29.1-33.5,58.2-52.6c26.4-17.3,48-26.6,65-28.1
			c10.6-20.2,33.3-42.7,68.5-67.8c29.3-21,53.4-33,72.9-36.4c7.1-8.2,17.4-16.5,30.7-24.9c38-23.8,68.1-31,89.4-21.6
			c19.8,8.7,23.7,27.5,24.1,29.6c1.3,7.5-3.6,14.6-11,16c-7.2,1.1-14.5-3.5-15.9-10.8c-0.2-0.9-1.9-7-8.5-9.8
			c-5.8-2.4-23.5-5.2-63.5,19.9c-4.2,2.6-7.8,5.1-11.1,7.5c24.4,16.7,18.8,54.8,18.1,59.1c-0.6,3.8-2.9,7.2-6.2,9.3
			c-3.3,2.1-7.3,2.7-11.1,1.6c-4.4-1.2-43.2-12.9-47.3-41.6c-0.1-0.7-0.2-1.3-0.2-2c-11,4.7-25.4,12.8-44.4,26.4
			c-32.6,23.3-48.8,40.6-56.7,52.7c19.5,15,14.7,45,14.1,48.5c-0.7,3.9-3.1,7.3-6.5,9.3c-3.4,2-7.4,2.5-11.2,1.3
			c-9.9-3.2-27.5-14-30.6-34.2c-0.2-1-0.3-2-0.3-3c-9.3,2.7-23,8.8-43.1,22c-24.2,15.9-37.4,28-44.7,36.8c0.1,0.1,0.2,0.1,0.2,0.2
			c16.6,14.5,7.3,39.8,6.2,42.7c-2.7,6.9-10.4,10.4-17.4,7.9c-8.1-2.9-22.1-12.1-24.7-28.6c-11,2.9-28.1,9.7-54.5,24.3
			c-28.3,15.7-42.7,27.4-50.1,35.4c2.5,1,4.8,2.3,7,3.9c13.2,9.8,12.7,27.1,10.4,35.8c-2,7.1-8.9,11.4-16.4,9.8
			c-2.7-0.6-22.9-5.8-31.8-21.1c-13.3,4.3-34.2,13.7-66.5,33.9c-15.3,9.6-26.5,17.4-34.6,23.8c14.7,9.6,17.5,27.9,16.8,37.3
			c-0.5,6.8-5.9,12.2-12.7,12.7c-13.3,0.9-45.6,0.9-52.5-20.3c-0.1-0.2-0.1-0.4-0.2-0.6c-6.7,3.1-14.6,7.4-24,13.3
			c-14,8.8-23.8,16.2-30.6,22.4c2.7,1.3,4.6,3.2,6.3,5.3c10.6,12.8-0.4,30.9-11.5,43.8c-3.8,4.4-10,6-15.4,3.8
			c-5.7-2.2-14.5-8.1-19.2-17.7c-16.5,7.3-41.8,20.2-80.3,42.7C82.2,733.8,79.8,734.4,77.4,734.4z M831,256.9
			c-0.3,1.3-0.5,2.4-0.3,3.4c0.5,3.9,4.8,7.9,10.3,11.4c-0.9-5.8-3-11.1-6.8-13.5C833.5,257.8,832.5,257.3,831,256.9z"/>
	</g>
</g>
</svg>
