<?xml version="1.0" encoding="utf-8"?>
<!-- Generator: Adobe Illustrator 25.0.1, SVG Export Plug-In . SVG Version: 6.00 Build 0)  -->
<svg version="1.1" id="Layer_1" xmlns="http://www.w3.org/2000/svg" xmlns:xlink="http://www.w3.org/1999/xlink" x="0px" y="0px"
	 viewBox="0 0 1024 1024" style="enable-background:new 0 0 1024 1024;" xml:space="preserve">
<style type="text/css">
	.st0{fill:#25333F;}
</style>
<g>
	<path class="st0" d="M225.3,886.1h573.4c64.2,0,116.5-52.2,116.5-116.5V254.4c0-64.2-52.2-116.5-116.5-116.5h-57.6
		c-7.3,0-13.1,5.9-13.1,13.1v92c0,4.3-3.6,7.9-7.9,7.9h-52.5c-4.3,0-7.9-3.6-7.9-7.9v-92c0-7.3-5.9-13.1-13.1-13.1H377.3
		c-7.3,0-13.1,5.9-13.1,13.1v92c0,4.3-3.6,7.9-7.9,7.9h-52.5c-4.3,0-7.9-3.6-7.9-7.9v-92c0-7.3-5.9-13.1-13.1-13.1h-57.6
		c-64.2,0-116.5,52.2-116.5,116.5v515.2C108.9,833.8,161.1,886.1,225.3,886.1z M135.1,254.4c0-49.7,40.5-90.2,90.2-90.2h44.4v78.9
		c0,18.8,15.3,34.1,34.1,34.1h52.5c18.8,0,34.1-15.3,34.1-34.1v-78.9h243.1v78.9c0,18.8,15.3,34.1,34.1,34.1h52.5
		c18.8,0,34.1-15.3,34.1-34.1v-78.9h44.4c49.7,0,90.2,40.5,90.2,90.2v77.7H135.1V254.4z M135.1,358.3h753.8v411.3
		c0,49.7-40.5,90.2-90.2,90.2H225.3c-49.7,0-90.2-40.5-90.2-90.2V358.3z"/>
	<path class="st0" d="M317,151.1v54.4c0,7.3,5.9,13.1,13.1,13.1c7.3,0,13.1-5.9,13.1-13.1v-54.4c0-7.3-5.9-13.1-13.1-13.1
		C322.9,137.9,317,143.8,317,151.1z"/>
	<path class="st0" d="M681.3,151.1v54.4c0,7.3,5.9,13.1,13.1,13.1s13.1-5.9,13.1-13.1v-54.4c0-7.3-5.9-13.1-13.1-13.1
		S681.3,143.8,681.3,151.1z"/>
	<path class="st0" d="M358.3,775.1c1.4,0,2.8-0.2,4.1-0.7l224-73.9c6.9-2.3,10.6-9.7,8.4-16.6c-0.3-1-0.7-1.9-1.3-2.7l33.3,10.8
		c1.3,0.4,2.7,0.6,4,0.6c4,0,7.9-1.9,10.4-5.2c3.4-4.4,3.6-10.5,0.5-15.2L621.4,641h2.4c4.8,0,9.2-2.6,11.5-6.8s2.2-9.3-0.4-13.3
		l-37-59c-3.9-6.1-12-8-18.1-4.1c-6.1,3.9-8,12-4.1,18.1l24.4,38.9h-3c-4.8,0-9.3,2.6-11.6,6.9c-2.3,4.2-2.1,9.4,0.6,13.4l13.4,20.5
		l-124.3-40.3c-0.1,0-0.3-0.1-0.4-0.1l87.4-39.9c6.6-3,9.5-10.8,6.5-17.4c-3-6.6-10.8-9.5-17.4-6.5l-118.1,54
		c-6.6,3-9.5,10.8-6.5,17.4c2.2,4.8,7,7.7,12,7.7c1.8,0,3.7-0.4,5.4-1.2l15.1-6.9c-0.2,0.5-0.4,0.9-0.6,1.4
		c-2.2,6.9,1.5,14.3,8.4,16.5L577.2,676l-187.2,61.8l13.9-21.1c2.6-4,2.9-9.2,0.6-13.4c-2.3-4.2-6.7-6.9-11.5-6.9l19.1-29.2
		c4-6.1,2.3-14.2-3.8-18.2c-6.1-4-14.2-2.3-18.2,3.8l-32.5,49.5c-2.6,4-2.9,9.2-0.6,13.4c2.3,4.2,6.7,6.9,11.5,6.9l-21.1,32.3
		c-3.1,4.7-2.8,10.8,0.6,15.2C350.5,773.3,354.3,775.1,358.3,775.1z"/>
	<path class="st0" d="M388,638.9c2.2,1.5,4.7,2.1,7.2,2.1c4.3,0,8.5-2.1,11-5.9l53.4-81.5c2.6-4,2.9-9.2,0.6-13.4
		c-2.3-4.2-6.7-6.9-11.6-6.9h-1.9l0.8-1.2c3-4.6,2.8-10.3-0.1-14.6l10,2.7c7,1.9,14.2-2.3,16.1-9.3c1.3-4.8-0.3-9.7-3.6-12.9
		l39.7-60.5l55.4,84.5l-57.8-15.6c-7-1.9-14.2,2.3-16.1,9.3c-1.9,7,2.3,14.2,9.3,16.1l91.1,24.6c1.1,0.3,2.3,0.5,3.4,0.5
		c4.1,0,8.1-2,10.6-5.4c3.2-4.4,3.3-10.3,0.3-14.9l-85.3-130.2c-2.4-3.7-6.6-5.9-11-5.9c-4.4,0-8.6,2.2-11,5.9l-59.7,91.1
		c-2.3,3.5-2.8,7.9-1.3,11.9c0.4,1,0.9,1.9,1.4,2.7c-5.1-1-10.4,1.1-13.4,5.7l-14.1,21.6c-2.6,4-2.9,9.2-0.6,13.4
		c2.3,4.2,6.7,6.9,11.6,6.9h1.9l-40.1,61.2C380.2,626.8,381.9,634.9,388,638.9z"/>
	<path class="st0" d="M344.4,804h335.3c4.8,0,9.3-2.6,11.6-6.9c2.3-4.2,2.1-9.4-0.6-13.4l-40.2-61.4c6.2-1.1,10.9-6.5,10.9-12.9
		c0-7.3-5.9-13.1-13.1-13.1h-21.9c-4.8,0-9.3,2.6-11.6,6.9c-2.3,4.2-2.1,9.4,0.6,13.4l40.1,61.2h-311c-7.3,0-13.1,5.9-13.1,13.1
		C331.2,798.1,337.1,804,344.4,804z"/>
</g>
</svg>
