<?xml version="1.0" encoding="utf-8"?>
<!-- Generator: Adobe Illustrator 25.0.1, SVG Export Plug-In . SVG Version: 6.00 Build 0)  -->
<svg version="1.1" id="Layer_1" xmlns="http://www.w3.org/2000/svg" xmlns:xlink="http://www.w3.org/1999/xlink" x="0px" y="0px"
	 viewBox="0 0 1024 1024" style="enable-background:new 0 0 1024 1024;" xml:space="preserve">
<style type="text/css">
	.st0{fill:#25333F;}
</style>
<g>
	<path class="st0" d="M256.6,870.4c68.2,68.2,158.9,105.8,255.4,105.8c96.5,0,187.2-37.6,255.4-105.8
		c68.2-68.2,105.8-158.9,105.8-255.4s-37.6-187.2-105.8-255.4c-45.2-45.2-100.4-77-160.5-93.3v-70.5c0-7.7-6.2-13.9-13.9-13.9H488
		V92.3c0-9.1,7.4-16.5,16.5-16.5h14.9c9.1,0,16.5,7.4,16.5,16.5v28.6c0,7.7,6.2,13.9,13.9,13.9s13.9-6.2,13.9-13.9V92.3
		c0-24.5-19.9-44.4-44.4-44.4h-14.9c-24.5,0-44.4,19.9-44.4,44.4v89.7h-29c-7.7,0-13.9,6.2-13.9,13.9v70.5
		c-60.2,16.3-115.3,48-160.5,93.3C188.4,427.8,150.8,518.5,150.8,615S188.4,802.2,256.6,870.4z M445,209.8H579V260
		c-21.9-4.1-44.2-6.2-67-6.2c-22.7,0-45.1,2.1-66.9,6.2V209.8z M512,281.7c183.8,0,333.3,149.5,333.3,333.3S695.8,948.3,512,948.3
		c-183.8,0-333.3-149.5-333.3-333.3S328.2,281.7,512,281.7z"/>
</g>
</svg>
