<?xml version="1.0" encoding="utf-8"?>
<!-- Generator: Adobe Illustrator 25.0.1, SVG Export Plug-In . SVG Version: 6.00 Build 0)  -->
<svg version="1.1" id="Layer_1" xmlns="http://www.w3.org/2000/svg" xmlns:xlink="http://www.w3.org/1999/xlink" x="0px" y="0px"
	 viewBox="0 0 1024 1024" style="enable-background:new 0 0 1024 1024;" xml:space="preserve">
<style type="text/css">
	.st0{fill:#25333F;}
</style>
<g>
	<g>
		<path class="st0" d="M462,931.7c4.9,0,8.9-4,8.9-8.9v-66.6h102.2c4.9,0,8.9-4,8.9-8.9V504.5h33.3c3.7,0,7-2.3,8.3-5.8
			c1.3-3.5,0.3-7.4-2.5-9.8L467.8,356.2c-3.3-2.9-8.3-2.9-11.6,0L302.9,488.9c-2.8,2.4-3.8,6.3-2.5,9.8c1.3,3.5,4.6,5.8,8.3,5.8H342
			v342.8c0,4.9,4,8.9,8.9,8.9h102.2v66.6C453.1,927.7,457.1,931.7,462,931.7z M564.2,759.4l-204.4,55.2v-73.9l204.4-55.2V759.4z
			 M564.2,667l-204.4,55.2v-73.9l204.4-55.2V667z M564.2,574.7l-204.4,55.2V556l190.6-51.4h13.8V574.7z M359.8,537.6v-33h122.5
			L359.8,537.6z M332.5,486.8L462,374.6l129.5,112.1h-18.4H350.9H332.5z M359.8,838.5v-5.5l204.4-55.2v60.7H359.8z"/>
	</g>
	<g>
		<path class="st0" d="M133,168.7c-22.3,8.6-45.2,17.6-66,30.2c-2.1,1.3-3.6,3.4-4.1,5.8s0,4.9,1.4,6.9
			c14.1,20.1,33.4,35.8,52.1,51.1c1.6,24.4,4,50,11.8,74.1c0.6,1.8,1.7,3.4,3.2,4.4c2.1,1.5,4.8,2.1,7.5,1.4
			c23.9-6.1,45-19.4,65.5-32.3l0.8,0.3c23.3,7.3,47.4,14.8,72.3,14.9c2.4,0,4.7-0.9,6.3-2.6c1.7-1.7,2.6-4,2.6-6.4
			c-0.4-25.2-6.4-50.3-12.7-73.9c12.3-18.4,25.8-39.1,33-61.4c0.7-2.3,0.5-4.8-0.6-6.9c-1.1-2.1-3-3.7-5.3-4.4
			c-23.6-7-48.3-9.9-72.3-12.8l-0.9-0.1c-15.9-19.3-32.5-36.5-50.1-54.7l-0.1-0.1c-2-2.1-4.9-3-7.7-2.6c-2.8,0.4-5.3,2.2-6.6,4.8
			C151.3,127.6,141.5,147.3,133,168.7z M141.5,184.5l1.6-0.6c2.3-0.9,4.2-2.8,5.1-5.1c7.2-18.5,15.4-35.8,25.2-55.2
			c15,15.6,29.2,30.8,42.8,47.5c1.5,1.8,3.6,3,5.9,3.2l4.5,0.5c20.1,2.4,40.7,4.8,60.2,9.6c-7.2,17.7-18.5,34.5-29.4,50.8l-0.5,0.8
			c-1.4,2.1-1.9,4.8-1.2,7.3c5.6,20.6,11.1,42.4,12.7,63.9c-19.2-1.6-38.7-7.7-57.7-13.7l-4.8-1.5c-2.5-0.8-5.2-0.4-7.4,1l-3,1.9
			c-16.9,10.7-34.4,21.7-52.7,28c-5.6-21.1-7.4-43.7-8.8-65.3c-0.2-2.5-1.3-4.8-3.2-6.3l-2.9-2.3c-15.2-12.4-30.9-25.2-43-39.9
			C102.7,199.4,122.4,191.8,141.5,184.5z"/>
		<path class="st0" d="M261,712.6c-1.8-1.3-3.2-3.4-3.5-5.8l-57.4-367.1c-0.8-4.8,2.6-9.4,7.4-10.1c4.8-0.8,9.4,2.6,10.1,7.4
			L275,704c0.8,4.8-2.6,9.4-7.4,10.1C265.2,714.5,262.8,713.9,261,712.6z"/>
	</g>
	<g>
		<path class="st0" d="M821.1,218.2c-12.3-4.4-25.9,2-30.3,14.3c-2.1,6-1.8,12.4,0.9,18.1c2.7,5.7,7.5,10,13.4,12.2
			c6,2.1,12.4,1.8,18.1-0.9c5.7-2.7,10-7.5,12.2-13.4C839.8,236.2,833.4,222.6,821.1,218.2z M818.6,242.5c-0.5,1.5-1.6,2.7-3,3.3
			c-1.4,0.7-3,0.8-4.5,0.2c-1.5-0.5-2.7-1.6-3.3-3c-0.7-1.4-0.8-3-0.2-4.5c0.5-1.5,1.7-2.7,3-3.3c1.4-0.6,3-0.8,4.5-0.2
			C818.1,236.1,819.7,239.4,818.6,242.5z"/>
		<path class="st0" d="M825,290.1l42.5,101c1.9,4.5,7.1,6.6,11.6,4.7c0.1-0.1,0.2-0.1,0.4-0.2c4.3-2,6.2-7.1,4.4-11.5l-42.5-101
			c-1.9-4.5-7.1-6.6-11.6-4.7C825.2,280.3,823.1,285.5,825,290.1z"/>
		<path class="st0" d="M968.5,282.2c2,0.4,4,0.2,5.7-0.6c2.4-1.1,4.3-3.3,4.9-6.2c1-4.8-2-9.5-6.8-10.6l-107.1-23.2
			c-4.8-1-9.5,2-10.6,6.8s2,9.5,6.8,10.6L968.5,282.2z"/>
		<path class="st0" d="M844.3,211c2.7,2.9,6.9,3.6,10.3,2c0.8-0.4,1.6-0.9,2.2-1.5l80.4-74.5c3.6-3.3,3.8-9,0.5-12.6
			c-3.3-3.6-9-3.8-12.6-0.5l-80.4,74.5C841.2,201.8,841,207.4,844.3,211z"/>
		<path class="st0" d="M800.4,79.3c-0.7-4.9-5.1-8.3-10-7.6c-4.9,0.7-8.3,5.1-7.6,10l14.9,108.6c0.7,4.9,5.1,8.3,10,7.6
			c0.9-0.1,1.8-0.4,2.6-0.8c3.4-1.6,5.5-5.3,5-9.2L800.4,79.3z"/>
		<path class="st0" d="M772.1,208.4l-97.5-50.1c-4.4-2.2-9.7-0.5-12,3.8c-2.2,4.4-0.5,9.7,3.8,12l97.5,50.1c2.6,1.3,5.5,1.3,7.9,0.1
			c1.7-0.8,3.2-2.2,4.1-4C778.2,216,776.5,210.6,772.1,208.4z"/>
		<path class="st0" d="M675.1,322.6c0.1-0.1,0.2-0.1,0.4-0.2l96.9-51.1c4.3-2.3,6-7.7,3.7-12s-7.7-6-12-3.7l-97,51.1
			c-4.3,2.3-6,7.7-3.7,12C665.7,322.9,670.9,324.6,675.1,322.6z"/>
		<path class="st0" d="M666.1,651c2.3,0.8,4.7,0.6,6.8-0.3c2.1-1,3.7-2.7,4.6-5l126.9-354.5c1.7-4.6-0.8-9.7-5.4-11.4
			c-4.6-1.7-9.7,0.8-11.4,5.4L660.8,639.7C659.1,644.3,661.5,649.4,666.1,651z"/>
	</g>
</g>
</svg>
