<?xml version="1.0" encoding="utf-8"?>
<!-- Generator: Adobe Illustrator 25.0.1, SVG Export Plug-In . SVG Version: 6.00 Build 0)  -->
<svg version="1.1" id="Layer_1" xmlns="http://www.w3.org/2000/svg" xmlns:xlink="http://www.w3.org/1999/xlink" x="0px" y="0px"
	 viewBox="0 0 1024 1024" style="enable-background:new 0 0 1024 1024;" xml:space="preserve">
<style type="text/css">
	.st0{fill:#25333F;}
</style>
<g>
	<path class="st0" d="M838.1,309.3c-24.7,2.6-46.9,14.7-62.5,34.1c-15.6,19.3-22.7,43.6-20.1,68.3c4.3,39.8,40.1,68.7,79.9,64.5
		c2.1-0.2,4.2-0.6,6.2-1c28.1-6.2,47.8-32.8,44.6-62c-1.3-12.2-7.3-23.1-16.8-30.8c-9.5-7.7-21.5-11.2-33.7-9.9
		c-20.5,2.2-35.3,20.6-33.1,41.1c0.9,8.2,4.9,15.6,11.3,20.8c6.4,5.2,14.5,7.6,22.7,6.7c6.5-0.7,11.3-6.6,10.6-13.1
		c-0.7-6.5-6.6-11.3-13.1-10.6c-1.9,0.2-3.7-0.3-5.2-1.5c-1.5-1.2-2.4-2.9-2.6-4.7c-0.8-7.4,4.6-14,11.9-14.8
		c5.8-0.6,11.6,1.1,16.2,4.8c4.6,3.7,7.4,8.9,8.1,14.8c2,18.3-11.4,34.9-29.7,36.8c-26.7,2.9-50.8-16.6-53.6-43.3
		c-2-18.4,3.3-36.4,14.9-50.8c11.6-14.4,28.1-23.4,46.5-25.4c52.9-5.7,100.6,32.8,106.3,85.7l0,0c7.6,71.5-35.8,128.4-110.8,144.8
		L251.6,691.8c-6.4,1.4-10.5,7.8-9.1,14.2c1.4,6.4,7.8,10.5,14.2,9.1l584.5-128.3c41.7-9.2,76.1-29.8,99.4-59.7
		c24.1-30.9,34.4-69.2,30-110.9l0,0C963.6,350.2,904.1,302.2,838.1,309.3z"/>
	<path class="st0" d="M272.3,613.2c25.6,11.6,53.6,14.5,81.1,8.5l294.3-64.6c6.4-1.4,10.5-7.8,9.1-14.2c-1.4-6.4-7.8-10.5-14.2-9.1
		l-36.5,8c-27.6,6.1-56.5-7-70.2-31.7l-19.8-35.7c-9.3-16.8-23.4-29.8-40.9-37.7c-17.5-7.9-36.6-9.9-55.3-5.8l-224.2,49.2
		c-13.3-19.2-31.4-34.2-52.9-44c-25.6-11.6-53.6-14.5-81.1-8.5c-6.4,1.4-10.5,7.8-9.1,14.2c1.4,6.4,7.8,10.5,14.2,9.1
		c45.3-9.9,92.6,11.4,115.1,52l30.4,54.9C226,582.6,246.7,601.7,272.3,613.2z M425.1,454.3c27.6-6.1,56.5,7,70.2,31.7l19.8,35.7
		c7.7,13.8,18.7,25.1,32.1,33.1l-198.9,43.7c-45.3,9.9-92.6-11.4-115.1-52l-24.7-44.6L425.1,454.3z"/>
</g>
</svg>
