<?xml version="1.0" encoding="utf-8"?>
<!-- Generator: Adobe Illustrator 25.0.1, SVG Export Plug-In . SVG Version: 6.00 Build 0)  -->
<svg version="1.1" id="Layer_1" xmlns="http://www.w3.org/2000/svg" xmlns:xlink="http://www.w3.org/1999/xlink" x="0px" y="0px"
	 viewBox="0 0 1024 1024" style="enable-background:new 0 0 1024 1024;" xml:space="preserve">
<style type="text/css">
	.st0{fill:#25333F;}
</style>
<g>
	<path class="st0" d="M497.3,346.4c0,91.3,68.3,167,156.5,178.7c0.1,0,0.3,0,0.4,0.1c7.7,1,15.5,1.5,23.4,1.5
		c99.4,0,180.3-80.9,180.3-180.3c0-99.4-80.9-180.3-180.3-180.3C578.2,166.1,497.3,247,497.3,346.4z M829.2,346.4
		c0,83.6-68,151.6-151.6,151.6c-6.4,0-12.7-0.4-18.9-1.2c-25.3-7-45-21.1-65.8-46.9c-19.3-24-28.1-54-24.8-84.6
		c3.3-30.6,18.3-58.1,42.3-77.4c18.1-14.5,40.7-21.2,63.7-18.7c23,2.5,43.7,13.8,58.3,31.9c10.8,13.4,15.8,30.3,13.9,47.5
		c-1.9,17.2-10.3,32.6-23.7,43.4c-9.8,7.9-22.2,11.5-34.7,10.2c-12.6-1.4-23.8-7.5-31.8-17.4c-5.7-7-8.2-15.8-7.3-24.8
		c1-9,5.4-17,12.4-22.7c10-8,24.6-6.4,32.6,3.5c5.2,6.4,4.2,15.9-2.3,21.1c-1.8,1.4-4,2.1-6.3,1.8c-2.3-0.2-4.3-1.4-5.7-3.1
		c-5-6.2-14-7.1-20.2-2.2c-6.2,5-7.1,14-2.2,20.2c6.2,7.7,15.1,12.6,25,13.7c9.9,1.1,19.6-1.8,27.3-8c18.8-15.1,21.7-42.6,6.6-61.4
		c-17.9-22.3-50.7-25.8-73-7.9c-13,10.5-21.1,25.3-22.9,41.9c-1.8,16.6,3,32.9,13.4,45.9c12.7,15.8,30.8,25.7,51,27.9
		c20.2,2.2,40-3.6,55.8-16.3c19.4-15.6,31.6-37.9,34.3-62.6c2.7-24.8-4.4-49.1-20.1-68.5c-19.3-24-46.9-39.1-77.5-42.4
		c-30.7-3.3-60.8,5.5-84.8,24.8c-29.9,24.1-48.7,58.4-52.8,96.6c-2.1,19.8-0.2,39.4,5.5,57.8C533,398.2,526,373.1,526,346.4
		c0-83.6,68-151.6,151.6-151.6C761.2,194.8,829.2,262.8,829.2,346.4z"/>
	<path class="st0" d="M180.4,857.9c3.7,0,7.3-1.4,10.1-4.2L542,502.3c5.6-5.6,5.6-14.7,0-20.3c-5.6-5.6-14.7-5.6-20.3,0L170.3,833.4
		c-5.6,5.6-5.6,14.7,0,20.3C173.1,856.5,176.8,857.9,180.4,857.9z"/>
</g>
</svg>
