<?xml version="1.0" encoding="utf-8"?>
<!-- Generator: Adobe Illustrator 25.0.1, SVG Export Plug-In . SVG Version: 6.00 Build 0)  -->
<svg version="1.1" id="Layer_1" xmlns="http://www.w3.org/2000/svg" xmlns:xlink="http://www.w3.org/1999/xlink" x="0px" y="0px"
	 viewBox="0 0 1024 1024" style="enable-background:new 0 0 1024 1024;" xml:space="preserve">
<style type="text/css">
	.st0{fill:#25333F;}
</style>
<g>
	<path class="st0" d="M511.8,397c-7,0-12.7,5.7-12.7,12.7V471l-66.7-105.4c-3.8-5.9-11.6-7.7-17.6-3.9c-5.9,3.8-7.7,11.6-3.9,17.6
		l90.2,142.5c0,0,0.1,0.1,0.1,0.1c0.3,0.4,0.6,0.8,0.9,1.2c0.1,0.1,0.1,0.1,0.2,0.2c0.3,0.3,0.5,0.6,0.8,0.9
		c0.1,0.1,0.3,0.2,0.4,0.4c0.2,0.2,0.5,0.4,0.7,0.6c0.1,0.1,0.3,0.2,0.4,0.3c0.4,0.3,0.8,0.5,1.2,0.7c0,0,0,0,0.1,0
		c0.4,0.2,0.8,0.4,1.3,0.6c0.1,0,0.2,0.1,0.3,0.1c0.3,0.1,0.7,0.2,1.1,0.3c0.1,0,0.3,0.1,0.4,0.1c0.4,0.1,0.7,0.1,1.1,0.2
		c0.1,0,0.3,0,0.4,0.1c0.4,0.1,0.9,0.1,1.4,0.1c0,0,0.1,0,0.1,0c0,0,0.1,0,0.1,0c0.5,0,1,0,1.4-0.1c0.2,0,0.3,0,0.5-0.1
		c0.4-0.1,0.8-0.1,1.2-0.2c0.1,0,0.3-0.1,0.4-0.1c0.5-0.2,1-0.3,1.5-0.5c0.1,0,0.2-0.1,0.2-0.1c0.4-0.2,0.9-0.4,1.3-0.7
		c0.1,0,0.1-0.1,0.2-0.1c0,0,0.1-0.1,0.1-0.1c0.2-0.1,0.4-0.3,0.6-0.4c0.2-0.1,0.3-0.2,0.5-0.3c0.2-0.1,0.3-0.3,0.4-0.4
		c0.2-0.2,0.3-0.3,0.5-0.5c0.1-0.1,0.2-0.2,0.3-0.3c0.2-0.2,0.4-0.4,0.5-0.6c0.1-0.1,0.2-0.2,0.2-0.3c0.2-0.2,0.3-0.4,0.5-0.7
		c0.1-0.1,0.2-0.3,0.3-0.4c0.1-0.2,0.3-0.4,0.4-0.6c0.1-0.2,0.2-0.4,0.3-0.6c0.1-0.2,0.2-0.3,0.2-0.5c0.1-0.2,0.2-0.5,0.3-0.7
		c0.1-0.1,0.1-0.3,0.2-0.4c0.1-0.2,0.1-0.5,0.2-0.7c0-0.2,0.1-0.3,0.1-0.5c0-0.2,0.1-0.4,0.1-0.6c0-0.2,0.1-0.4,0.1-0.6
		c0-0.2,0-0.4,0-0.5c0-0.3,0-0.5,0-0.8c0-0.1,0-0.1,0-0.2V409.8C524.6,402.7,518.9,397,511.8,397z"/>
	<path class="st0" d="M753.1,433.5c9.9-3.3,17.6-10.8,21-20.6l12.7-36.1c1.5-4.2,2.4-8.4,3-12.7c0.1-0.1,0.3-0.2,0.4-0.3
		c1.5-1.4,3.2-2.7,4.9-4c6.7-4.9,14.3-8.8,22.4-12.5c6,38.1,39,67.4,78.8,67.4c44,0,79.7-35.8,79.7-79.7s-35.8-79.7-79.7-79.7
		c-0.8,0-1.6,0-2.4,0.1c-1.2-10.5-4.5-21-9.8-30.9c-10.3-19.1-27.8-35.9-51.9-49.8c-49.3-28.4-105.4-35.9-163.4-41.6
		c-46.6-4.6-92.2-7.9-137.2,1.4c-41.5,8.6-89,38.5-127.1,80.2c-6.2,6.2-11.2,13.9-14.3,22.6l-12.7,36.1c-3.5,9.9-2.2,20.5,3.5,29.3
		c2.2,3.3,4.9,6.2,7.9,8.5c-29.2,17.6-54.4,41.4-73.9,70c-26.9,39.5-41.2,85.8-41.2,133.8c0,131.3,106.8,238.1,238.1,238.1
		c131.3,0,238.1-106.8,238.1-238.1c0-27.5-4.8-54.7-14-80.4c2.2,0.5,4.4,0.7,6.7,0.7C746.1,435.2,749.7,434.7,753.1,433.5z
		 M871.7,316.7c0.4-0.4,0.9-0.8,1.3-1.2c0.5-0.5,1-1,1.5-1.5c0.4-0.4,0.8-0.8,1.2-1.3c0.5-0.5,1-1.1,1.5-1.7
		c0.4-0.4,0.8-0.8,1.1-1.3c0.5-0.6,1-1.2,1.5-1.8c0.3-0.4,0.7-0.8,1-1.3c0.5-0.7,1-1.4,1.5-2.2c0.3-0.4,0.5-0.7,0.8-1.1
		c0.8-1.1,1.5-2.3,2.2-3.5c0.4-0.7,0.8-1.4,1.2-2.1c0.2-0.3,0.3-0.7,0.5-1c0.2-0.4,0.4-0.7,0.6-1.1c0.2-0.4,0.4-0.9,0.6-1.3
		c0.1-0.3,0.3-0.6,0.4-0.9c0.2-0.5,0.4-0.9,0.6-1.4c0.1-0.3,0.2-0.6,0.4-0.9c0.2-0.5,0.3-0.9,0.5-1.4c0.1-0.3,0.2-0.6,0.3-1
		c0.1-0.4,0.3-0.8,0.4-1.2c0.1-0.4,0.3-0.8,0.4-1.2c0.1-0.3,0.2-0.6,0.3-1c0.2-0.6,0.3-1.1,0.5-1.7c0-0.2,0.1-0.3,0.1-0.5
		c0.2-0.8,0.4-1.6,0.6-2.3c1.2-0.1,2.4-0.1,3.6-0.1c29.9,0,54.3,24.3,54.3,54.2c0,29.9-24.3,54.3-54.3,54.3
		c-29.5,0-53.6-23.7-54.2-53.1c0.1,0,0.1-0.1,0.2-0.1c0.3-0.2,0.7-0.3,1-0.5c0.6-0.3,1.2-0.6,1.8-0.9c0.4-0.2,0.8-0.4,1.1-0.6
		c0.6-0.3,1.1-0.6,1.7-0.9c0.4-0.2,0.8-0.4,1.2-0.7c0.6-0.3,1.1-0.6,1.7-0.9c0.4-0.2,0.9-0.5,1.3-0.8c0.6-0.3,1.1-0.6,1.7-1
		c0.5-0.3,0.9-0.5,1.4-0.8c0.6-0.3,1.1-0.7,1.7-1c0.5-0.3,0.9-0.6,1.4-0.9c0.6-0.4,1.1-0.7,1.6-1.1c0.5-0.3,0.9-0.6,1.4-1
		c0.5-0.4,1.1-0.8,1.6-1.2c0.5-0.3,0.9-0.7,1.4-1c0.5-0.4,1.1-0.8,1.6-1.2c0.5-0.4,0.9-0.7,1.4-1.1c0.5-0.4,1.1-0.9,1.6-1.3
		c0.4-0.4,0.9-0.8,1.3-1.2C870.6,317.6,871.2,317.1,871.7,316.7z M536.7,159.3c41.6-8.6,85-5.4,129.6-1
		c55.1,5.4,108.3,12.4,153.2,38.3c20,11.5,34.2,24.9,42.2,39.8c5.6,10.5,8,22.1,7.1,32.8c0,0.1,0,0.3,0,0.4
		c-0.1,0.9-0.2,1.9-0.3,2.8c0,0.1,0,0.1,0,0.2c-0.5,3.1-1.3,6-2.3,8.8c0,0.1-0.1,0.2-0.1,0.3c-0.3,0.8-0.6,1.5-1,2.3
		c-0.1,0.2-0.2,0.4-0.2,0.5c-0.4,0.8-0.8,1.7-1.3,2.5c-7.8,13.4-23.5,22-34.6,27.3c0,0,0,0,0,0c-1.4,0.6-2.7,1.3-4.1,1.9l-0.2,0.1
		c0,0-0.1,0-0.1,0.1c-2.5,1.2-5.1,2.3-7.7,3.5c-10.1,4.5-20.4,9.1-30.2,15.3c-4.4-11.4-12.2-21.4-22.8-28.6
		c-44.9-29.9-93.4-54.4-144.1-72.6c-51.4-18.5-105-30.7-159.4-36.1C485.4,178,512.3,164.3,536.7,159.3z M511.8,727.5
		c-117.2,0-212.6-95.4-212.6-212.6c0-85.2,50.3-161.5,128.3-195.2c0,0,0.1,0,0.1,0c0.9,0.1,1.8,0.2,2.7,0.3c2.5,0.3,5,0.6,7.5,0.9
		c1.4,0.2,2.8,0.4,4.2,0.6c2,0.3,3.9,0.5,5.9,0.8c1.6,0.2,3.1,0.5,4.7,0.7c1.8,0.3,3.6,0.6,5.4,0.8c1.6,0.3,3.3,0.5,4.9,0.8
		c1.7,0.3,3.4,0.6,5.1,0.9c1.7,0.3,3.4,0.6,5.1,0.9c1.7,0.3,3.3,0.6,5,0.9c1.7,0.3,3.5,0.7,5.2,1c1.6,0.3,3.2,0.7,4.8,1
		c1.7,0.4,3.5,0.7,5.2,1.1c1.6,0.4,3.2,0.7,4.8,1.1c3.2,0.7,6.4,1.5,9.6,2.2c1.6,0.4,3.3,0.8,4.9,1.2c1.7,0.4,3.3,0.9,5,1.3
		c1.7,0.4,3.3,0.9,5,1.3c1.6,0.4,3.3,0.9,4.9,1.3c1.7,0.5,3.4,0.9,5.1,1.4c1.6,0.4,3.2,0.9,4.7,1.4c1.8,0.5,3.5,1,5.3,1.6
		c1.5,0.5,3,0.9,4.5,1.4c1.9,0.6,3.8,1.2,5.6,1.8c1.4,0.4,2.8,0.9,4.1,1.3c2.1,0.7,4.2,1.4,6.3,2.1c1.1,0.4,2.3,0.7,3.4,1.1
		c3.2,1.1,6.5,2.2,9.7,3.4c3,1.1,6,2.2,8.9,3.3c1,0.4,2,0.8,3,1.1c2,0.8,3.9,1.5,5.9,2.3c1.2,0.5,2.4,0.9,3.5,1.4
		c1.8,0.7,3.6,1.4,5.3,2.2c1.2,0.5,2.4,1,3.7,1.5c1.8,0.8,3.6,1.5,5.4,2.3c1.1,0.5,2.3,1,3.4,1.4c2.7,1.2,5.4,2.4,8.1,3.6
		c1.3,0.6,2.6,1.2,4,1.8c1.5,0.7,3.1,1.4,4.6,2.1c1.4,0.7,2.9,1.3,4.3,2c1.4,0.7,2.8,1.4,4.2,2c1.4,0.7,2.9,1.4,4.3,2.1
		c1.4,0.7,2.9,1.4,4.3,2.1c1.4,0.7,2.8,1.4,4.2,2.1c1.8,0.9,3.5,1.8,5.3,2.7c1.8,1,3.7,1.9,5.5,2.9c1.8,1,3.6,2,5.5,2.9
		c1.2,0.7,2.4,1.3,3.6,2c1.6,0.9,3.2,1.8,4.8,2.7c1.2,0.7,2.4,1.4,3.6,2c1.7,0.9,3.3,1.9,4.9,2.9c1.1,0.6,2.2,1.3,3.3,1.9
		c1.9,1.1,3.9,2.3,5.8,3.5c0.8,0.5,1.6,0.9,2.4,1.4c0.1,0.1,0.2,0.1,0.3,0.2c17,31.1,26,66.2,26,101.9
		C724.4,632.1,629,727.5,511.8,727.5z M738.2,408.3c-6.8-4.6-13.7-9.1-20.7-13.5l0,0l-2.8-1.7c-0.6-0.4-1.3-0.8-2-1.2
		c-1.2-0.7-2.4-1.5-3.6-2.2c-1.7-1-3.4-2.1-5.1-3.1c-1.2-0.7-2.4-1.4-3.6-2.1c-1.8-1-3.6-2.1-5.4-3.1c-1.1-0.6-2.2-1.3-3.3-1.9
		c-2.8-1.6-5.5-3.1-8.3-4.6c-1.2-0.7-2.4-1.3-3.6-1.9c-1.7-0.9-3.4-1.8-5.1-2.7c-1.4-0.8-2.9-1.5-4.4-2.3c-1.5-0.8-2.9-1.5-4.4-2.3
		c-1.5-0.8-3-1.6-4.6-2.3c-1.4-0.7-2.8-1.4-4.3-2.1c-1.5-0.8-3.1-1.5-4.6-2.3c-1.4-0.7-2.9-1.4-4.4-2.1c-1.5-0.7-3-1.5-4.6-2.2
		c-1.8-0.8-3.6-1.7-5.4-2.5c-2.2-1-4.5-2-6.7-3c-1.8-0.8-3.6-1.6-5.4-2.4c-1.4-0.6-2.8-1.2-4.1-1.8c-1.7-0.7-3.4-1.5-5.1-2.2
		c-1.4-0.6-2.7-1.1-4.1-1.7c-1.8-0.7-3.6-1.5-5.4-2.2c-1.3-0.5-2.5-1-3.8-1.5c-2-0.8-4.1-1.6-6.1-2.4c-1.1-0.4-2.1-0.8-3.2-1.2
		c-3.1-1.2-6.2-2.3-9.3-3.4c-3.4-1.2-6.8-2.4-10.1-3.6c-1.2-0.4-2.4-0.8-3.6-1.2c-2.2-0.7-4.3-1.5-6.5-2.2c-1.5-0.5-3-0.9-4.5-1.4
		c-1.9-0.6-3.8-1.2-5.7-1.8c-1.6-0.5-3.3-1-4.9-1.5c-1.8-0.5-3.5-1.1-5.3-1.6c-1.7-0.5-3.5-1-5.2-1.5c-1.7-0.5-3.4-0.9-5.1-1.4
		c-1.8-0.5-3.6-1-5.4-1.5c-1.6-0.4-3.2-0.8-4.9-1.3c-1.9-0.5-3.7-1-5.6-1.4c-1.6-0.4-3.1-0.8-4.7-1.1c-1.9-0.5-3.9-0.9-5.8-1.4
		c-1.5-0.3-3-0.7-4.4-1c-7.2-1.6-14.4-3.1-21.6-4.5c-1.6-0.3-3.3-0.6-4.9-0.9c-1.8-0.3-3.6-0.6-5.4-1c-1.7-0.3-3.5-0.6-5.2-0.9
		c-1.8-0.3-3.5-0.6-5.3-0.9c-1.8-0.3-3.6-0.6-5.4-0.9c-1.7-0.3-3.4-0.5-5.1-0.8c-1.9-0.3-3.8-0.5-5.6-0.8c-1.7-0.2-3.3-0.4-5-0.7
		c-1.9-0.2-3.9-0.5-5.8-0.7c-1.6-0.2-3.2-0.4-4.9-0.6c-0.6-0.1-1.3-0.2-1.9-0.2l-3.2-0.4l-0.1,0c-5.2-0.5-10.4-1-15.5-1.5
		c-3.4-0.3-5.2-2.3-6-3.6c-0.8-1.2-1.9-3.7-0.8-6.9l12.7-36.1c5-14.1,18.2-23.3,32.9-23.3c1,0,2.1,0,3.2,0.1
		c54.8,4.9,108.8,16.8,160.5,35.5c48.8,17.6,95.4,41.1,138.6,69.9c13.3,8.8,18.8,25.5,13.5,40.6l-12.7,36.1c-1.1,3.2-3.6,4.4-5,4.9
		C743.8,409.8,741,410.3,738.2,408.3z"/>
	<path class="st0" d="M347.7,502.2h-13.6c-7,0-12.7,5.7-12.7,12.7c0,7,5.7,12.7,12.7,12.7h13.6c7,0,12.7-5.7,12.7-12.7
		C360.4,507.9,354.7,502.2,347.7,502.2z"/>
	<path class="st0" d="M681.5,502.2c-7,0-12.7,5.7-12.7,12.7c0,7,5.7,12.7,12.7,12.7h13.6c7,0,12.7-5.7,12.7-12.7
		c0-7-5.7-12.7-12.7-12.7H681.5z"/>
	<path class="st0" d="M511.8,671.1c-7,0-12.7,5.7-12.7,12.7v11.9c0,7,5.7,12.7,12.7,12.7c7,0,12.7-5.7,12.7-12.7v-11.9
		C524.6,676.8,518.9,671.1,511.8,671.1z"/>
	<path class="st0" d="M373.8,745c-5.9-3.9-13.8-2.2-17.6,3.7l-24.7,37.6c-3.9,5.9-2.2,13.8,3.7,17.6c2.2,1.4,4.6,2.1,7,2.1
		c0.2,0,0.4,0,0.6,0c0.2,0,0.5,0,0.7,0h336.7c0.2,0,0.5,0,0.7,0c0.2,0,0.4,0,0.6,0c2.4,0,4.8-0.7,7-2.1c5.9-3.9,7.5-11.8,3.7-17.6
		l-24.7-37.6c-3.9-5.9-11.8-7.5-17.6-3.7c-5.9,3.9-7.5,11.8-3.7,17.6l11.7,17.9H365.7l11.7-17.9C381.3,756.7,379.7,748.8,373.8,745z
		"/>
</g>
</svg>
