<?xml version="1.0" encoding="utf-8"?>
<!-- Generator: Adobe Illustrator 25.0.1, SVG Export Plug-In . SVG Version: 6.00 Build 0)  -->
<svg version="1.1" id="Layer_1" xmlns="http://www.w3.org/2000/svg" xmlns:xlink="http://www.w3.org/1999/xlink" x="0px" y="0px"
	 viewBox="0 0 1024 1024" style="enable-background:new 0 0 1024 1024;" xml:space="preserve">
<style type="text/css">
	.st0{fill:#25333F;}
</style>
<g>
	<path class="st0" d="M353.5,652.6c2.4,1.5,5.1,2.2,7.7,2.2c4.8,0,9.6-2.4,12.3-6.8c2.3-3.6,10.8-15.5,25.8-18.5
		c15.1-3,31.3,4,41.4,17.8c4.7,6.5,13.8,7.9,20.3,3.2c6.5-4.7,7.9-13.8,3.2-20.3c-16.7-22.9-44.4-34.4-70.6-29.3
		c-25.8,5.1-40,23.8-44.9,31.6C344.7,639.3,346.7,648.3,353.5,652.6z"/>
	<path class="st0" d="M550.3,652.6c2.4,1.5,5.1,2.2,7.7,2.2c4.8,0,9.6-2.4,12.3-6.8c2.3-3.6,10.8-15.5,25.8-18.5
		c15.1-3,31.3,4,41.4,17.8c4.7,6.5,13.8,7.9,20.3,3.2c6.5-4.7,7.9-13.8,3.2-20.3c-16.7-22.9-44.4-34.4-70.6-29.3
		c-25.8,5.1-40,23.8-44.9,31.6C541.4,639.3,543.5,648.3,550.3,652.6z"/>
	<path class="st0" d="M421.6,795.7c-5,6.3-4,15.5,2.3,20.5c22.2,17.7,55,27.7,88.6,27.7c6.3,0,12.6-0.3,18.9-1.1
		c39.2-4.5,61.6-21.6,69.4-28.8c5.9-5.4,6.3-14.7,0.8-20.6c-5.4-5.9-14.7-6.3-20.6-0.8c-4.4,4.1-21.4,17.7-52.9,21.3
		c-32.1,3.6-65.8-4.4-86.1-20.5C435.8,788.4,426.6,789.4,421.6,795.7z"/>
	<path class="st0" d="M113.9,446.5c-9.9,0-18.6,5.6-22.7,14.5c-4.1,8.8-2.7,19.3,3.6,26.7c0.9,1.1,1.9,2,3.1,2.7
		c16.2,10.7,30.5,23.8,42.5,38.9c9.7,12.2,17.8,25.7,24.2,40c0.6,1.3,1.3,2.5,2.2,3.5c7.8,9.2,19.1,14.4,31.1,14.4h71.4
		c-11.1,29.2-17,60.6-17,92.9C252.2,823.4,368.7,940,512,940s259.8-116.6,259.8-259.8c0-32.2-5.9-63.6-17.1-92.9h71.5
		c12,0,23.3-5.3,31.1-14.4c0.9-1.1,1.6-2.2,2.2-3.5c6.3-14.3,14.5-27.8,24.2-40c12-15.1,26.3-28.2,42.5-38.9
		c1.2-0.8,2.2-1.7,3.1-2.8c6.3-7.4,7.7-17.9,3.6-26.7c-4.2-9-12.9-14.5-22.7-14.5h-55.9c-37,0-70.8,18.7-90.4,50.1l-30,48.1
		c-6.5-10.6-13.8-20.8-21.8-30.5c2.4-2.7,3.8-6.1,3.8-9.8V403.9c0-14.3-12-25-38.1-33.3c-0.2-0.9-0.6-1.8-1-2.6
		c-23.9-49.2-7.4-68.2,25.4-106.2c7.5-8.7,15.9-18.3,24.3-29.2c16,11.7,35.6,18.6,56.9,18.6c53.3,0,96.6-43.3,96.6-96.6
		c0-53.3-43.3-96.6-96.6-96.6c-53,0-96.1,42.8-96.6,95.7c-59.6,5-144.6,13.2-215.8,40.8c-92.4,35.8-137.4,95.1-134,176.3
		c-25.8,8.3-37.7,18.9-37.7,33.1v100.5c0,4.9,2.4,9.4,6.5,12.1c1,0.7,2.1,1.2,3.2,1.6c-6.8,8.5-13,17.3-18.6,26.5l-30-48
		c-19.6-31.4-53.4-50.1-90.4-50.1H113.9z M788.5,512c14.2-22.8,38.8-36.4,65.7-36.4h42.7c-13.4,10.4-25.5,22.3-36,35.6
		c-10.7,13.5-19.8,28.3-27,44c-2.1,1.9-4.8,2.9-7.7,2.9h-66.5L788.5,512z M783.2,87.1c37.2,0,67.5,30.3,67.5,67.5
		s-30.3,67.5-67.5,67.5c-37.2,0-67.5-30.3-67.5-67.5S746,87.1,783.2,87.1z M481.4,221.6c68-26.4,151.3-34.2,209.4-39.1
		c3.2,10.7,8.3,20.6,14.8,29.4c-8.6,11.3-17.1,21.2-25.5,30.8c-30,34.7-56.3,65.1-37.3,119.6C605.8,355.7,558,352,507.5,352
		c-52.6,0-102.3,4-139.8,11.2c-0.6,0.1-1.3,0.3-1.9,0.4C365.4,298.4,403.3,251.9,481.4,221.6z M328.3,406.4
		c3.1-2.4,15.3-9.8,54.9-16.4c34.4-5.7,78.5-8.9,124.3-8.9c45.8,0,89.9,3.2,124.3,8.9c39.6,6.6,51.8,14,54.9,16.4v76.2
		c-33-13.1-75.5-26.7-148.7-29.6c-0.1,0-0.1,0-0.2,0c-2.3-0.1-4.6-0.2-6.9-0.2c-0.5,0-1.1,0-1.6,0c-1.9-0.1-3.9-0.1-5.8-0.1
		c-1.1,0-2.3,0-3.5-0.1c-1.4,0-2.9-0.1-4.3-0.1c-2.7,0-5.4,0-8.2,0c-3.4,0-6.6,0-9.9,0.1c-1.1,0-2.2,0-3.3,0.1
		c-2.2,0-4.3,0.1-6.4,0.1c-1.3,0-2.5,0.1-3.8,0.1c-2.2,0.1-4.3,0.1-6.5,0.2c-1.1,0-2.3,0.1-3.4,0.1c-2.7,0.1-5.3,0.3-8,0.4
		c-1.1,0.1-2.3,0.1-3.4,0.2c-2.1,0.1-4.1,0.3-6.1,0.4c-0.9,0.1-1.8,0.1-2.7,0.2c-59.4,4.6-96.3,16.6-125.7,28.3V406.4z M368.9,499.2
		c3.7-1.1,7.4-2.2,11.4-3.3c0.3-0.1,0.6-0.2,0.9-0.2c1.6-0.4,3.2-0.8,4.8-1.2c0.1,0,0.2,0,0.3-0.1c3.2-0.8,6.5-1.6,9.9-2.3
		c0.3-0.1,0.6-0.1,0.9-0.2c1.7-0.4,3.4-0.7,5.1-1.1c0.3-0.1,0.6-0.1,0.9-0.2c19.1-3.8,41.6-6.8,68.7-8.2c0.3,0,0.6,0,0.9,0
		c2.4-0.1,4.9-0.2,7.3-0.3c0.7,0,1.4,0,2.1-0.1c2.2-0.1,4.4-0.1,6.6-0.2c1.3,0,2.7-0.1,4-0.1c1.7,0,3.4-0.1,5.1-0.1
		c3.2,0,6.4-0.1,9.6-0.1c2.9,0,5.7,0,8.4,0.1c0.9,0,1.8,0,2.7,0c1.9,0,3.7,0.1,5.5,0.1c1,0,2,0,3,0.1c1.8,0,3.5,0.1,5.3,0.2
		c0.9,0,1.8,0.1,2.6,0.1c2.4,0.1,4.9,0.2,7.2,0.3c0.9,0,1.7,0.1,2.5,0.1c1.6,0.1,3.2,0.2,4.8,0.3c1,0.1,2,0.1,2.9,0.2
		c1.5,0.1,3,0.2,4.5,0.3c0.8,0.1,1.7,0.1,2.5,0.2c4.7,0.4,9.3,0.8,13.7,1.3c0.3,0,0.6,0.1,0.8,0.1c2.2,0.2,4.3,0.5,6.4,0.7
		c0.1,0,0.1,0,0.2,0c34.4,4.2,59.7,11.2,80.6,18.6c51.8,44,81.4,107.9,81.4,175.9c0,127.2-103.5,230.7-230.7,230.7
		c-127.2,0-230.7-103.5-230.7-230.7C281.3,609.1,313.2,543.3,368.9,499.2z M235.5,512l28.8,46.1h-66.5c-2.9,0-5.6-1.1-7.7-2.9
		c-7.2-15.7-16.2-30.5-27-44c-10.6-13.3-22.6-25.2-36-35.6h42.7C196.7,475.6,221.2,489.2,235.5,512z"/>
</g>
</svg>
