<?xml version="1.0" encoding="utf-8"?>
<!-- Generator: Adobe Illustrator 25.0.1, SVG Export Plug-In . SVG Version: 6.00 Build 0)  -->
<svg version="1.1" id="Layer_1" xmlns="http://www.w3.org/2000/svg" xmlns:xlink="http://www.w3.org/1999/xlink" x="0px" y="0px"
	 viewBox="0 0 1024 1024" style="enable-background:new 0 0 1024 1024;" xml:space="preserve">
<style type="text/css">
	.st0{fill:#25333F;}
</style>
<g>
	<path class="st0" d="M919.4,463.3c0-43.5-35.4-78.8-78.8-78.8h-74.4V280.5c0-7.2-5.9-13.1-13.1-13.1H279.7
		c-7.2,0-13.1,5.9-13.1,13.1v475.6c0,39.6,32.3,71.9,71.9,71.9h355.8c39.6,0,71.9-32.3,71.9-71.9v-69.9h74.4
		c43.5,0,78.8-35.4,78.8-78.8V463.3z M740,756.1c0,25.2-20.5,45.8-45.8,45.8H338.5c-25.2,0-45.8-20.5-45.8-45.8V293.5H740V756.1z
		 M893.3,607.4c0,29-23.6,52.7-52.7,52.7h-74.4V410.7h74.4c29,0,52.7,23.6,52.7,52.7V607.4z"/>
	<path class="st0" d="M393.7,666.3h75v33.5c0,7.2,5.9,13.1,13.1,13.1h65.5c7.2,0,13.1-5.9,13.1-13.1v-33.5h78.8
		c4.9,0,9.4-2.7,11.6-7.1c2.2-4.4,1.8-9.6-1-13.6l-42.2-58.7h6.8c4.9,0,9.4-2.7,11.6-7.1c2.2-4.4,1.8-9.6-1-13.6l-34.2-47.6h4.4
		c4.9,0,9.4-2.7,11.6-7.1c2.2-4.4,1.8-9.6-1-13.6L527,388c-2.5-3.4-6.4-5.5-10.6-5.5c-4.2,0-8.2,2-10.6,5.5l-78.9,109.9
		c-2.9,4-3.3,9.2-1,13.6c2.2,4.4,6.7,7.1,11.6,7.1h4.4l-34.2,47.6c-2.9,4-3.3,9.2-1,13.6c2.2,4.4,6.7,7.1,11.6,7.1h6.8L383,645.6
		c-2.9,4-3.2,9.2-1,13.6C384.3,663.6,388.7,666.3,393.7,666.3z M461.3,581.4c2.9-4,3.2-9.2,1-13.6c-2.2-4.4-6.7-7.1-11.6-7.1h-6.8
		l34.2-47.6c2.9-4,3.2-9.2,1-13.6c-2.2-4.4-6.7-7.1-11.6-7.1H463l53.4-74.4l53.4,74.4h-4.4c-4.9,0-9.4,2.7-11.6,7.1
		c-2.2,4.4-1.8,9.6,1,13.6l34.2,47.6h-6.8c-4.9,0-9.4,2.7-11.6,7.1c-2.2,4.4-1.8,9.6,1,13.6l42.2,58.7h-66.4
		c-7.2,0-13.1,5.9-13.1,13.1v33.5h-39.4v-33.5c0-7.2-5.9-13.1-13.1-13.1h-62.6L461.3,581.4z"/>
	<path class="st0" d="M427.9,235.7c2.6,2.6,5.9,3.8,9.2,3.8c3.3,0,6.7-1.3,9.2-3.8c25.7-25.7,25.7-67.5,0-93.2
		c-7.5-7.5-11.7-17.5-11.7-28.1s4.1-20.6,11.7-28.1c5.1-5.1,5.1-13.4,0-18.5c-5.1-5.1-13.4-5.1-18.5,0c-12.5,12.5-19.3,29-19.3,46.6
		c0,17.6,6.9,34.1,19.3,46.6c15.5,15.5,15.5,40.7,0,56.2C422.8,222.3,422.8,230.6,427.9,235.7z"/>
	<path class="st0" d="M516.8,235.7c2.6,2.6,5.9,3.8,9.2,3.8c3.3,0,6.7-1.3,9.2-3.8c25.7-25.7,25.7-67.5,0-93.2
		c-15.5-15.5-15.5-40.7,0-56.2c5.1-5.1,5.1-13.4,0-18.5c-5.1-5.1-13.4-5.1-18.5,0c-25.7,25.7-25.7,67.5,0,93.2
		c15.5,15.5,15.5,40.7,0,56.2C511.7,222.3,511.7,230.6,516.8,235.7z"/>
	<path class="st0" d="M605.7,235.7c2.6,2.6,5.9,3.8,9.2,3.8c3.3,0,6.7-1.3,9.2-3.8c12.5-12.5,19.3-29,19.3-46.6
		c0-17.6-6.9-34.1-19.3-46.6c-15.5-15.5-15.5-40.7,0-56.2c5.1-5.1,5.1-13.4,0-18.5c-5.1-5.1-13.4-5.1-18.5,0
		c-25.7,25.7-25.7,67.5,0,93.2c7.5,7.5,11.7,17.5,11.7,28.1c0,10.6-4.1,20.6-11.7,28.1C600.6,222.3,600.6,230.6,605.7,235.7z"/>
</g>
</svg>
