<?xml version="1.0" encoding="utf-8"?>
<!-- Generator: Adobe Illustrator 25.0.1, SVG Export Plug-In . SVG Version: 6.00 Build 0)  -->
<svg version="1.1" id="Layer_1" xmlns="http://www.w3.org/2000/svg" xmlns:xlink="http://www.w3.org/1999/xlink" x="0px" y="0px"
	 viewBox="0 0 1024 1024" style="enable-background:new 0 0 1024 1024;" xml:space="preserve">
<style type="text/css">
	.st0{fill:#25333F;}
</style>
<g>
	<path class="st0" d="M189.7,492.7l-0.1,0.1c-0.7,4.9-1.4,10-1.9,15.3c-2.8,0.7-5.5,1.4-8,2.2l-0.1,0l-0.1,0.1
		c-3,6.2-5.7,12.8-7.8,19.4c-4.2,13-6.7,26.6-7.3,40.4c-0.1,2.5-0.2,4.7-0.2,6.8c0,2.1,0.1,4.4,0.2,6.8c0.6,13.8,3.1,27.4,7.3,40.4
		c2.2,6.7,4.8,13.2,7.8,19.4l0.1,0.1l0.1,0c2.4,0.8,5.1,1.6,8,2.2c0.5,5.2,1.2,10.3,1.9,15.2l0.1,0.1c5.5,8.3,11.8,16,18.8,23
		l0.2,0.2l0,0l0.7,0.7l0,0l0.2,0.2c7,7,14.8,13.3,23.1,18.8l0.1,0.1c4.9,0.8,10,1.4,15.2,1.9c0.6,2.8,1.4,5.5,2.2,7.9l0,0.1l0.1,0.1
		c6.2,3,12.8,5.7,19.4,7.8c13,4.2,26.6,6.7,40.4,7.3c2.5,0.1,4.7,0.2,6.8,0.2c2.2,0,4.4-0.1,6.8-0.2c13.8-0.6,27.4-3.1,40.4-7.3
		c6.7-2.2,13.2-4.8,19.4-7.8l0.1-0.1l0-0.1c0.8-2.5,1.6-5.1,2.2-8c5.2-0.5,10.4-1.2,15.2-1.9l0.1-0.1c8.2-5.5,16-11.8,23-18.7
		l0.2-0.2l0,0l0.7-0.7l0,0l0.2-0.2c7-7,13.3-14.8,18.8-23l0.1-0.1c0.7-4.9,1.4-10,1.9-15.2c2.8-0.7,5.5-1.4,8-2.2l0.1,0l0.1-0.1
		c3-6.2,5.7-12.8,7.8-19.4c4.2-13,6.7-26.6,7.3-40.4c0.1-2.5,0.2-4.7,0.2-6.8c0-2.1-0.1-4.4-0.2-6.8v0c-0.6-13.8-3.1-27.4-7.3-40.4
		c-2.2-6.7-4.8-13.2-7.8-19.4l-0.1-0.1l-0.1,0c-2.5-0.8-5.1-1.6-8-2.2c-0.5-5.2-1.2-10.4-1.9-15.3l-0.1-0.1
		c-5.5-8.2-11.8-16-18.7-23l-0.2-0.2l0,0l-0.7-0.7l0,0l-0.2-0.2c-7-7-14.8-13.3-23-18.7l-0.1-0.1c-4.9-0.7-10-1.4-15.3-1.9
		c-0.7-2.9-1.4-5.5-2.2-8l0-0.1l-0.1-0.1c-6.2-3-12.8-5.7-19.4-7.8c-13-4.2-26.6-6.7-40.4-7.3c-2.4-0.1-4.7-0.2-6.8-0.2
		c-2.2,0-4.4,0.1-6.8,0.2c-13.8,0.6-27.4,3.1-40.4,7.3c-6.6,2.2-13.2,4.8-19.4,7.8l-0.1,0.1l0,0.1c-0.8,2.5-1.6,5.1-2.2,8
		c-5.2,0.5-10.3,1.2-15.2,1.9l-0.1,0.1c-8.3,5.5-16,11.8-23,18.8l-0.2,0.2l0,0l-0.7,0.7l0,0l-0.2,0.2
		C201.5,476.7,195.2,484.4,189.7,492.7z M173.9,625.3c-0.3-13.4-0.5-27.2-0.5-41h11.8c0,13.9,0.1,30,1.2,46.7
		C181.2,629.5,177.1,627.6,173.9,625.3z M185.3,569.9h-11.8c0-13.8,0.2-27.5,0.5-41c3.1-2.3,7.3-4.2,12.5-5.7
		C185.4,539.9,185.3,556,185.3,569.9z M460.1,625.3c-3.1,2.2-7.3,4.1-12.5,5.6c1.1-16.6,1.2-32.7,1.2-46.6l11.8,0
		C460.6,598.1,460.4,611.9,460.1,625.3z M460.1,529c0.3,13.4,0.5,27.2,0.5,41h-11.8c0-13.8-0.1-30-1.2-46.6
		C452.8,524.8,457,526.7,460.1,529z M425,684.2l-0.2,0.7l-0.7,0.2c-10.9,2.9-22.5,5-35.6,6.5c0.7-5.4,1.1-10.6,1.5-15.3
		c0.3-3.1,0.5-6,0.8-8.6c0.5-5,1-10.2,1.4-15.4c5.2-0.4,10.4-0.9,15.4-1.4c2.5-0.3,5.3-0.5,8.3-0.7c4.7-0.4,10.1-0.8,15.5-1.5
		C430.1,661.7,427.9,673.3,425,684.2z M432.9,633.9c-6.4,0.9-12.9,1.5-18.1,1.9c-3.1,0.3-6,0.5-8.6,0.8c-4.1,0.4-8.4,0.8-12.9,1.2
		c1-16.4,1.5-33.9,1.6-53.5l39.5,0C434.4,599.2,434.3,616.4,432.9,633.9z M434.4,569.9h-39.5c-0.1-19.7-0.6-37.2-1.6-53.5
		c4.5,0.4,8.8,0.8,12.9,1.2c2.6,0.3,5.6,0.5,8.6,0.8c5.2,0.4,11.7,1,18.1,1.9C434.2,537.9,434.4,555.1,434.4,569.9z M424.2,469.2
		l0.7,0.2l0.2,0.7c2.9,10.9,5,22.5,6.5,35.6c-5.5-0.7-10.8-1.1-15.5-1.5c-3-0.2-5.8-0.5-8.3-0.7c-5-0.5-10.2-1-15.4-1.4
		c-0.4-5.3-0.9-10.5-1.4-15.4c-0.3-2.5-0.5-5.3-0.7-8.3c-0.4-4.7-0.8-10.1-1.5-15.5C401.6,464.1,413.3,466.3,424.2,469.2z
		 M365.2,720.2c-13.5,0.3-27.2,0.5-41,0.5l0-11.8c13.9,0,30-0.1,46.7-1.2C369.4,713,367.5,717.1,365.2,720.2z M376.5,666.3
		c-0.3,2.7-0.5,5.7-0.8,8.9c-0.5,5.5-1,11.7-1.8,17.9c-17.6,1.3-34.8,1.5-49.6,1.5l0-39.5c19.7-0.1,37.2-0.6,53.5-1.6
		C377.3,657.9,376.9,662.2,376.5,666.3z M324.2,433.5c13.7,0,27.5,0.2,41,0.5c2.2,3.1,4.1,7.3,5.6,12.5c-16.6-1.1-32.7-1.2-46.6-1.2
		L324.2,433.5z M324.2,459.8c14.8,0,32.1,0.2,49.6,1.5c0.9,6.4,1.4,12.9,1.9,18.1c0.3,3.1,0.5,6,0.8,8.6c0.4,4.1,0.8,8.4,1.2,12.9
		c-16.3-1-33.8-1.5-53.5-1.6L324.2,459.8z M324.2,513.6c20.1,0.1,38,0.7,54.6,1.7c1,16.6,1.6,34.4,1.7,54.6l-56.3,0L324.2,513.6z
		 M324.2,584.3h56.3c-0.1,20-0.7,37.9-1.7,54.5c-16.6,1-34.4,1.6-54.6,1.7L324.2,584.3z M258.4,675.2L258.4,675.2
		c-0.3-3.2-0.5-6.2-0.8-8.9c-0.4-4.1-0.8-8.4-1.2-12.9c16.4,1,33.9,1.5,53.5,1.6l0,39.5c-14.8,0-32.1-0.2-49.6-1.5
		C259.3,686.9,258.8,680.7,258.4,675.2z M268.8,720.2c-2.3-3.1-4.1-7.2-5.7-12.5c16.6,1.1,32.8,1.2,46.7,1.2l0,11.8
		C296.1,720.7,282.3,720.5,268.8,720.2z M268.9,434c13.5-0.3,27.2-0.5,41-0.5l0,11.8c-13.8,0-30,0.1-46.6,1.2
		C264.8,441.3,266.6,437.1,268.9,434z M257.6,488c0.3-2.6,0.5-5.5,0.8-8.6l0-0.1c0.4-5.2,1-11.7,1.9-18.1
		c17.5-1.3,34.8-1.4,49.6-1.5v39.5c-19.6,0.1-37.1,0.6-53.5,1.6C256.7,496.4,257.1,492.1,257.6,488z M255.3,515.4
		c16.7-1.1,34.5-1.6,54.6-1.7l0,56.3h-56.3C253.7,549.8,254.2,531.9,255.3,515.4z M309.8,584.3l0,56.3c-20.1-0.1-38-0.7-54.6-1.7
		c-1.1-16.7-1.6-34.5-1.7-54.6L309.8,584.3z M201.1,520.3c6.2-0.9,12.4-1.4,17.9-1.8c3.2-0.3,6.1-0.5,8.9-0.8
		c4.1-0.4,8.4-0.8,12.9-1.2c-1,16.3-1.5,33.8-1.6,53.5h-39.5C199.7,555.1,199.8,537.8,201.1,520.3z M199.7,584.3l39.5,0
		c0.1,19.6,0.6,37.1,1.6,53.5c-4.5-0.4-8.8-0.8-12.9-1.2c-2.7-0.3-5.7-0.5-8.9-0.8c-5.5-0.5-11.7-1-17.9-1.8
		C199.8,616.4,199.7,599.2,199.7,584.3z M209.9,685.1l-0.7-0.2l-0.2-0.7c-2.9-10.9-5-22.5-6.5-35.5c5.4,0.7,10.7,1.1,15.3,1.5
		c3.1,0.3,6,0.5,8.6,0.8c5,0.5,10.2,1,15.4,1.4c0.4,5.2,0.9,10.4,1.4,15.4c0.3,2.6,0.5,5.5,0.8,8.6c0.4,4.7,0.8,9.9,1.5,15.3
		C232.5,690.1,220.8,688,209.9,685.1z M209.1,470l0.2-0.7l0.7-0.2c10.9-2.9,22.5-5,35.6-6.5c-0.7,5.5-1.1,10.8-1.5,15.5
		c-0.2,3-0.5,5.8-0.7,8.3c-0.5,5-1,10.2-1.4,15.4c-5.2,0.4-10.4,0.9-15.4,1.4c-2.6,0.3-5.5,0.5-8.6,0.8c-4.7,0.4-9.9,0.8-15.3,1.5
		C204,492.5,206.2,480.9,209.1,470z"/>
	<path class="st0" d="M261,398.3v21.9c0,3.8,3.1,6.9,6.9,6.9c3.8,0,6.9-3.1,6.9-6.9v-21.9c0-2.6,2.2-4.8,4.8-4.8h75
		c2.6,0,4.8,2.2,4.8,4.8v21.9c0,3.8,3.1,6.9,6.9,6.9c3.8,0,6.9-3.1,6.9-6.9v-21.9c0-10.2-8.3-18.5-18.5-18.5h-75
		C269.3,379.8,261,388.1,261,398.3z"/>
	<path class="st0" d="M317,378.7c2.4,0,4.6-1.2,5.8-3.2c3.7-5.9,35.9-58.4,35.9-79c0-23-18.7-41.7-41.7-41.7
		c-23,0-41.7,18.7-41.7,41.7c0,20.6,32.2,73.1,35.9,79C312.5,377.5,314.7,378.7,317,378.7z M317,268.5c15.4,0,28,12.5,28,28
		c0,10.8-15.4,40.6-28,62.1c-12.6-21.5-28-51.3-28-62.1C289.1,281.1,301.6,268.5,317,268.5z"/>
	<path class="st0" d="M551.8,689.4c-23,30.1-35.2,66.1-35.2,104c0,45.8,17.8,88.9,50.2,121.3c32.4,32.4,75.5,50.2,121.3,50.2
		s88.9-17.8,121.3-50.2c32.4-32.4,50.2-75.5,50.2-121.3c0-38-12.2-74-35.2-104c-21.2-27.7-50.8-48.7-83.9-59.3v-5.8h2
		c3.8,0,6.9-3.1,6.9-6.9v-38.8c0-3.8-3.1-6.9-6.9-6.9H633.7c-3.8,0-6.9,3.1-6.9,6.9v38.8c0,3.8,3.1,6.9,6.9,6.9h2v5.8
		C602.6,640.7,573,661.7,551.8,689.4z M640.6,585.5h95.2v25.1h-2h-91.3h-2V585.5z M644.4,641.8c2.9-0.8,5-3.5,5-6.6v-10.9h77.5v10.9
		c0,3.1,2,5.7,5,6.6C799.1,661.1,846,723.5,846,793.5c0,87-70.8,157.8-157.8,157.8s-157.8-70.8-157.8-157.8
		C530.4,723.5,577.3,661.1,644.4,641.8z"/>
	<path class="st0" d="M709.7,546.2c3.8,0,6.9-3.1,6.9-6.9v-12.7c0-13.3-10.8-24.1-24.1-24.1h-8.5c-13.3,0-24.1,10.8-24.1,24.1v33.9
		c0,3.8,3.1,6.9,6.9,6.9c3.8,0,6.9-3.1,6.9-6.9v-33.9c0-5.7,4.7-10.4,10.4-10.4h8.5c5.7,0,10.4,4.7,10.4,10.4v12.7
		C702.8,543.1,705.9,546.2,709.7,546.2z"/>
	<path class="st0" d="M630,711.2c0.4,0,0.8,0,1.2-0.1l19.1-3.2l-6.7,18.1c-1.3,3.6,0.5,7.5,4,8.8c0.8,0.3,1.6,0.4,2.4,0.4
		c2.8,0,5.4-1.7,6.4-4.5l6.7-18.1l12.3,14.9c1.4,1.6,3.3,2.5,5.3,2.5c1.5,0,3.1-0.5,4.4-1.6c2.9-2.4,3.3-6.7,0.9-9.7l-12.3-14.9
		l19.1-3.2c3.7-0.6,6.3-4.2,5.6-7.9c-0.6-3.7-4.2-6.3-7.9-5.6l-19.1,3.2l6.7-18.1c1.3-3.6-0.5-7.5-4-8.8c-3.6-1.3-7.5,0.5-8.8,4
		l-6.7,18.1l-12.3-14.9c-2.4-2.9-6.7-3.3-9.7-0.9c-2.9,2.4-3.3,6.7-0.9,9.7l12.3,14.9l-19.1,3.2c-3.7,0.6-6.3,4.2-5.6,7.9
		C623.8,708.8,626.7,711.2,630,711.2z"/>
	<path class="st0" d="M751.1,787.7c1.3,2.2,3.6,3.4,5.9,3.4c1.2,0,2.3-0.3,3.4-0.9l14.3-8.3v16.5c0,3.8,3.1,6.9,6.9,6.9
		c3.8,0,6.9-3.1,6.9-6.9V782l14.3,8.3c1.1,0.6,2.3,0.9,3.4,0.9c2.4,0,4.7-1.2,5.9-3.4c1.9-3.3,0.8-7.5-2.5-9.4l-14.3-8.3l14.3-8.3
		c3.3-1.9,4.4-6.1,2.5-9.4c-1.9-3.3-6.1-4.4-9.4-2.5l-14.3,8.3v-16.5c0-3.8-3.1-6.9-6.9-6.9c-3.8,0-6.9,3.1-6.9,6.9v16.5l-14.3-8.3
		c-3.3-1.9-7.5-0.8-9.4,2.5c-1.9,3.3-0.8,7.5,2.5,9.4l14.3,8.3l-14.3,8.3C750.3,780.2,749.2,784.4,751.1,787.7z"/>
	<path class="st0" d="M710.5,879.8l-12.6-3.1c-3.7-0.9-7.4,1.3-8.3,5c-0.9,3.7,1.3,7.4,5,8.3l12.6,3.1l-9,9.3
		c-2.6,2.7-2.5,7.1,0.2,9.7c1.3,1.3,3,1.9,4.8,1.9c1.8,0,3.6-0.7,4.9-2.1l9-9.3l3.6,12.5c0.9,3,3.6,5,6.6,5c0.6,0,1.3-0.1,1.9-0.3
		c3.6-1.1,5.7-4.9,4.7-8.5l-3.6-12.5l12.6,3.1c0.6,0.1,1.1,0.2,1.7,0.2c3.1,0,5.9-2.1,6.7-5.2c0.9-3.7-1.3-7.4-5-8.3l-12.6-3.1
		l9-9.3c2.6-2.7,2.5-7.1-0.2-9.7c-2.7-2.6-7.1-2.5-9.7,0.2l-9,9.3l-3.6-12.5c-1.1-3.6-4.9-5.7-8.5-4.7c-3.6,1.1-5.7,4.9-4.7,8.5
		L710.5,879.8z"/>
	<path class="st0" d="M597.4,808.4l-33.6-1.5c-3.8-0.2-7,2.8-7.2,6.5c-0.2,3.8,2.8,7,6.5,7.2l33.6,1.5l-18.1,28.4
		c-2,3.2-1.1,7.4,2.1,9.5c1.1,0.7,2.4,1.1,3.7,1.1c2.3,0,4.5-1.1,5.8-3.2l18.1-28.4l15.5,29.9c1.2,2.4,3.6,3.7,6.1,3.7
		c1.1,0,2.1-0.2,3.2-0.8c3.4-1.7,4.7-5.9,2.9-9.2l-15.5-29.9l33.6,1.5c0.1,0,0.2,0,0.3,0c3.6,0,6.7-2.9,6.8-6.5
		c0.2-3.8-2.8-7-6.5-7.2l-33.6-1.5l18.1-28.4c2-3.2,1.1-7.4-2.1-9.5c-3.2-2-7.4-1.1-9.5,2.1l-18.1,28.4l-15.5-29.9
		c-1.7-3.4-5.9-4.7-9.2-2.9c-3.4,1.7-4.7,5.9-2.9,9.2L597.4,808.4z"/>
	<path class="st0" d="M698.5,168.1c3.8,0,6.9-3.1,6.9-6.9v-23.6c0-10.2-8.1-18.6-18.1-18.6h-17.6V65.9c0-3.8-3.1-6.9-6.9-6.9
		c-3.8,0-6.9,3.1-6.9,6.9v53.2h-17.6c-10,0-18.1,8.3-18.1,18.6v23.6c0,3.8,3.1,6.9,6.9,6.9c3.8,0,6.9-3.1,6.9-6.9v-23.6
		c0-2.7,2-4.9,4.4-4.9h48.8c2.4,0,4.4,2.2,4.4,4.9v23.6C691.7,165,694.7,168.1,698.5,168.1z"/>
	<path class="st0" d="M662.9,175.8c-75.9,0-137.6,61.7-137.6,137.6c0,75.9,61.7,137.6,137.6,137.6c60.8,0,112.4-39.6,130.6-94.3
		c0.1-0.3,0.3-0.7,0.4-1.1c4.3-13.3,6.6-27.5,6.6-42.2C800.4,237.5,738.7,175.8,662.9,175.8z M662.9,437.3
		c-32.5,0-62.2-12.6-84.3-33.2c10.9-0.2,21.6-3.6,29.7-9.9c11.9-9.3,31.9-9.3,43.7,0c8.5,6.6,19.4,10,30.3,10s21.8-3.3,30.3-10
		c11.9-9.3,31.9-9.3,43.7,0c0.1,0.1,0.2,0.1,0.2,0.2C733.8,420.6,700.2,437.3,662.9,437.3z M764.9,383.5c-0.1,0-0.1-0.1-0.2-0.1
		c-17-13.3-43.6-13.3-60.6,0c-11.9,9.3-31.9,9.3-43.7,0c-17-13.3-43.6-13.3-60.6,0c-8.6,6.7-21.6,8.8-33.1,5.4
		c-0.8-0.2-1.5-0.3-2.3-0.3c-9-11.8-16-25.3-20.3-39.8c1.2,0.7,2.4,1.5,3.5,2.3c8.5,6.6,19.4,10,30.3,10s21.8-3.3,30.3-10
		c11.9-9.3,31.9-9.3,43.7,0c17,13.3,43.6,13.3,60.6,0c11.9-9.3,31.9-9.3,43.7,0c6,4.7,13.3,7.8,21.3,9.1
		C774.2,368.4,769.9,376.2,764.9,383.5z M782.1,346.9c-6.6-0.7-12.7-3.1-17.4-6.7c-17-13.3-43.6-13.3-60.6,0
		c-11.9,9.3-31.9,9.3-43.7,0c-17-13.3-43.6-13.3-60.6,0c-11.9,9.3-31.9,9.3-43.7,0c-4.5-3.5-9.7-6.1-15.6-7.8
		c-0.9-6.2-1.4-12.5-1.4-18.9c0-68.3,55.6-123.9,123.9-123.9c68.3,0,123.9,55.6,123.9,123.9C786.7,325,785.1,336.2,782.1,346.9z"/>
</g>
</svg>
