<?xml version="1.0" encoding="utf-8"?>
<!-- Generator: Adobe Illustrator 25.0.1, SVG Export Plug-In . SVG Version: 6.00 Build 0)  -->
<svg version="1.1" id="Layer_1" xmlns="http://www.w3.org/2000/svg" xmlns:xlink="http://www.w3.org/1999/xlink" x="0px" y="0px"
	 viewBox="0 0 1024 1024" style="enable-background:new 0 0 1024 1024;" xml:space="preserve">
<style type="text/css">
	.st0{fill:#25333F;}
</style>
<g>
	<path class="st0" d="M407.7,88c-5.5,0-10.5,3-13.1,7.8c-7.4,13.8-72.4,136.4-72.4,184.4c0,18.7,4.7,37,13.5,52.7
		c4,7.2,13.1,9.7,20.3,5.7c7.2-4,9.7-13.1,5.7-20.3c-6.3-11.3-9.7-24.5-9.7-38.1c0-28.1,33.2-100.1,55.7-145
		c22.6,44.9,55.7,116.9,55.7,145c0,13.7-3.3,26.8-9.7,38.1c-4,7.2-1.5,16.2,5.7,20.3c2.3,1.3,4.8,1.9,7.3,1.9c5.2,0,10.3-2.7,13-7.6
		c8.8-15.7,13.5-33.9,13.5-52.7c0-48-65-170.6-72.4-184.4C418.2,91,413.2,88,407.7,88z"/>
	<path class="st0" d="M503.6,395.4h-81.1v-86.7c0-8.2-6.7-14.9-14.9-14.9c-8.2,0-14.9,6.7-14.9,14.9v86.7h-81.1
		c-8.2,0-14.9,6.7-14.9,14.9v343.5H249c-11.5,0-22.1,5.3-29.1,14.4c-6.9,9.1-9.2,20.5-6.2,31.5c10.5,38.5,35.5,73.3,70.3,98
		c35.5,25.2,78.3,38.5,123.7,38.5c45.4,0,88.1-13.3,123.7-38.5c24.8-17.6,44.7-40.3,57.8-65.9c22.4-39.6,36.3-80.5,41.5-121.6
		c5.2-41,1.1-74.4-2.5-103.9c-4.7-38.2-8.1-65.8,10.9-92.2c3.5-4.9,22.7-29.7,55-35.5c48.4-8.8,87.4,32,91.7,36.7
		c5.5,6.1,15,6.5,21,0.9c6.1-5.5,6.5-15,0.9-21c-5.4-5.9-54.8-57.5-119-45.8c-42.4,7.7-67.2,38.3-73.8,47.4
		c-25.7,35.8-21.3,71.6-16.3,113.1c3.4,27.8,7.3,59.2,2.5,96.5c-2.3,18.3-6.6,36.6-12.7,54.8c-6.3-4.7-13.9-7.4-22-7.4h-47.9V410.2
		C518.5,402,511.9,395.4,503.6,395.4z M326.6,425.1h162.1v82.2c-1.9-0.6-3.8-1.1-5.7-1.6c-5.7-1.3-35.7-7.1-61,10.9
		c-13.7,9.8-18.7,21.3-22.6,30.5c-3.3,7.8-5.5,12.9-12.5,17.3c-14.1,8.9-31.1,4.1-31.3,4c-20.7-6-28-28.5-28.3-29.4
		c-0.2-0.6-0.4-1.2-0.7-1.8V425.1z M326.6,586.8c5.8,4.3,12.6,8,20.7,10.3c1.5,0.4,9.2,2.5,19.5,2.5c10.4,0,23.6-2.1,36-10
		c14.7-9.3,19.8-21.1,23.9-30.6c3.3-7.6,5.6-13.1,12.6-18c15.5-11,36.2-6.4,37-6.2c4.3,1,8.5,2.6,12.4,4.9v214.1H326.6V586.8z
		 M566.4,783.5c3.1,0,4.8,1.9,5.5,2.7c0.7,1,1.8,2.9,1.1,5.6c-2.3,8.4-5.3,16.4-9.1,24.1c-3.6,6.4-7.3,12.7-11.3,19
		c-0.3,0.5-0.6,0.9-0.8,1.4c-30.4,42.8-84.1,70-144.1,70c-78.9,0-146.9-47.1-165.3-114.5c-0.7-2.6,0.4-4.6,1.1-5.6
		c0.6-0.8,2.4-2.7,5.5-2.7H566.4z"/>
</g>
</svg>
