<?xml version="1.0" encoding="utf-8"?>
<!-- Generator: Adobe Illustrator 25.0.1, SVG Export Plug-In . SVG Version: 6.00 Build 0)  -->
<svg version="1.1" id="Layer_1" xmlns="http://www.w3.org/2000/svg" xmlns:xlink="http://www.w3.org/1999/xlink" x="0px" y="0px"
	 viewBox="0 0 1024 1024" style="enable-background:new 0 0 1024 1024;" xml:space="preserve">
<style type="text/css">
	.st0{fill:#25333F;}
</style>
<g>
	<path class="st0" d="M512,67c-115.5,0-224.2,45-305.8,126.7C124.5,275.4,79.5,384,79.5,499.5c0,107.1,38.7,208.2,109.4,287.5
		c-1.2,1.9-2,4.2-2.2,6.6l-10,148.2c-0.3,3.9,1.1,7.8,3.8,10.6c2.7,2.9,6.4,4.5,10.4,4.5h642.3c3.9,0,7.7-1.6,10.4-4.5
		c2.7-2.9,4.1-6.7,3.8-10.6l-10-148.2c-0.2-2.4-0.9-4.7-2.2-6.6c70.7-79.3,109.4-180.5,109.4-287.5c0-115.5-45-224.2-126.7-305.9
		C736.2,112,627.5,67,512,67z M206,928.6l8.1-119.8h1.3h593.1h1.3l8.1,119.8H206z M802.6,780.4H221.4
		c-73.3-75.8-113.6-175.3-113.6-280.9c0-222.9,181.3-404.2,404.2-404.2s404.2,181.3,404.2,404.2
		C916.2,605.2,875.9,704.7,802.6,780.4z"/>
	<path class="st0" d="M622,605.3h34.1c5.2,0,10-2.9,12.5-7.4c2.5-4.6,2.3-10.1-0.6-14.5l-75.1-115.1h38.5c5.4,0,10.3-3,12.7-7.8
		c2.4-4.8,1.9-10.5-1.3-14.8L523.5,286.4c0,0,0,0-0.1-0.1l-0.1-0.1c-0.1-0.1-0.1-0.2-0.2-0.3c-0.2-0.3-0.4-0.5-0.6-0.8
		c-0.1-0.2-0.3-0.3-0.5-0.5c-0.2-0.2-0.3-0.3-0.5-0.5c-0.2-0.2-0.5-0.4-0.7-0.6c-0.1-0.1-0.2-0.2-0.3-0.3c0,0,0,0-0.1,0
		c-0.3-0.2-0.5-0.4-0.8-0.5c-0.1-0.1-0.3-0.2-0.4-0.2c-0.2-0.1-0.5-0.3-0.7-0.4c-0.2-0.1-0.4-0.2-0.5-0.3c-0.2-0.1-0.3-0.1-0.5-0.2
		c-0.3-0.1-0.6-0.2-0.8-0.3c0,0-0.1,0-0.1,0c-1.3-0.4-2.6-0.7-3.9-0.7c-0.1,0-0.3,0-0.4,0c-0.3,0-0.6,0-1,0
		c-1.3,0.1-2.5,0.3-3.7,0.7c-0.1,0-0.2,0-0.3,0.1c-0.2,0.1-0.5,0.2-0.7,0.3c-0.2,0.1-0.4,0.1-0.6,0.2c-0.2,0.1-0.3,0.2-0.5,0.2
		c-0.3,0.1-0.5,0.3-0.8,0.4c-0.1,0.1-0.2,0.1-0.3,0.2c-0.3,0.2-0.6,0.4-0.9,0.6c0,0,0,0-0.1,0c-0.1,0.1-0.2,0.2-0.3,0.3
		c-0.2,0.2-0.5,0.4-0.7,0.6c-0.2,0.2-0.3,0.3-0.5,0.5c-0.2,0.2-0.3,0.3-0.5,0.5c-0.2,0.2-0.4,0.5-0.6,0.8c-0.1,0.1-0.1,0.2-0.2,0.3
		l-0.1,0.1c0,0,0,0-0.1,0.1L381.3,445.6c-3.2,4.3-3.7,10-1.3,14.8c2.4,4.8,7.3,7.8,12.7,7.8h38.5L356,583.4
		c-2.8,4.4-3.1,9.9-0.6,14.5c2.5,4.6,7.3,7.4,12.5,7.4H402l-79.9,115.4c-4.5,6.4-2.9,15.3,3.6,19.7c2.5,1.7,5.3,2.5,8.1,2.5
		c4.5,0,8.9-2.1,11.7-6.1l95.3-137.6c3-4.3,3.4-10,0.9-14.7c-2.4-4.7-7.3-7.6-12.6-7.6h-35l75.1-115.1c2.8-4.4,3.1-9.9,0.6-14.5
		c-2.5-4.6-7.3-7.4-12.5-7.4h-36.4L512,318.3l91.1,121.6h-36.4c-5.2,0-10,2.9-12.5,7.4c-2.5,4.6-2.3,10.1,0.6,14.5l75.1,115.1h-35
		c-5.3,0-10.1,2.9-12.6,7.6c-2.4,4.7-2.1,10.3,0.9,14.7l95.3,137.6c2.8,4,7.2,6.1,11.7,6.1c2.8,0,5.6-0.8,8.1-2.5
		c6.4-4.5,8-13.3,3.6-19.7L622,605.3z"/>
	<path class="st0" d="M218.4,360.5c-22.8,0-22.9,35.5,0,35.5C241.3,395.9,241.3,360.5,218.4,360.5z"/>
	<path class="st0" d="M243,561.9c-22.8,0-22.9,35.5,0,35.5C265.8,597.3,265.9,561.9,243,561.9z"/>
	<path class="st0" d="M314.9,453.1c-22.8,0-22.9,35.5,0,35.5C337.7,488.6,337.7,453.1,314.9,453.1z"/>
	<path class="st0" d="M292.2,242.3c-22.8,0-22.9,35.5,0,35.5C315,277.8,315,242.3,292.2,242.3z"/>
	<path class="st0" d="M414.1,290.1c22.8,0,22.9-35.5,0-35.5C391.3,254.6,391.3,290.1,414.1,290.1z"/>
	<path class="st0" d="M539.9,171.9c22.8,0,22.9-35.5,0-35.5C517.1,136.4,517,171.9,539.9,171.9z"/>
	<path class="st0" d="M684.5,304.2c22.8,0,22.9-35.5,0-35.5C661.7,268.8,661.7,304.2,684.5,304.2z"/>
	<path class="st0" d="M736.8,474.4c-1.2-0.9-2.4-1.8-3.6-2.8c-2.8-1.6-5.7-2.4-8.9-2.4c-0.3,0-0.6,0-0.9,0c-2.4-0.1-4.7,0.4-6.8,1.5
		c-2.2,0.7-4.1,1.9-5.7,3.7c-1.7,1.6-3,3.5-3.7,5.7c-1.1,2.1-1.6,4.4-1.5,6.8c0.2,1.6,0.4,3.1,0.6,4.7c0.8,3,2.4,5.6,4.6,7.8
		c1.2,0.9,2.4,1.8,3.6,2.8c2.8,1.6,5.7,2.4,8.9,2.4c0.3,0,0.6,0,0.9,0c2.4,0.1,4.7-0.4,6.8-1.5c2.2-0.7,4.1-1.9,5.7-3.7
		c1.7-1.6,3-3.5,3.7-5.7c1.1-2.1,1.6-4.4,1.5-6.8c-0.2-1.6-0.4-3.1-0.6-4.7C740.5,479.2,739,476.6,736.8,474.4z"/>
	<path class="st0" d="M831.1,439.4c22.8,0,22.9-35.5,0-35.5C808.3,404,808.2,439.4,831.1,439.4z"/>
	<path class="st0" d="M774.4,601.6c-22.8,0-22.8,35.5,0,35.5C797.2,637,797.2,601.6,774.4,601.6z"/>
</g>
</svg>
