<?xml version="1.0" encoding="utf-8"?>
<!-- Generator: Adobe Illustrator 25.0.1, SVG Export Plug-In . SVG Version: 6.00 Build 0)  -->
<svg version="1.1" id="Layer_1" xmlns="http://www.w3.org/2000/svg" xmlns:xlink="http://www.w3.org/1999/xlink" x="0px" y="0px"
	 viewBox="0 0 1024 1024" style="enable-background:new 0 0 1024 1024;" xml:space="preserve">
<style type="text/css">
	.st0{stroke:#000000;stroke-width:5;stroke-linecap:round;stroke-linejoin:round;stroke-miterlimit:10;}
</style>
<g>
	<path class="st0" d="M205.5,616.2l-3,0.3l2.6-88.5L92.4,538.5L89.8,627l-3,0.3L92,450.4l3-0.3l-2.6,85.7l112.7-10.5l2.6-85.7l3-0.3
		L205.5,616.2z"/>
	<path class="st0" d="M287.1,610.1c-6.5,0.6-12.5,0-17.9-1.9c-5.4-1.8-10.1-4.7-14.2-8.7c-4-4-7.3-8.9-9.8-14.8
		c-2.5-5.9-4.1-12.7-4.8-20.4c-0.6-6.4-0.6-12.8,0.1-19.2c0.7-6.4,1.9-12.5,3.8-18.4c1.8-5.9,4.2-11.4,7.2-16.5
		c2.9-5.1,6.4-9.6,10.4-13.5c4-3.9,8.5-7.1,13.5-9.6c5-2.5,10.5-4,16.4-4.6c6.5-0.6,12.4,0,17.8,1.9c5.4,1.9,10.1,4.8,14.1,8.8
		c4,4,7.3,9,9.8,14.9c2.5,5.9,4.1,12.7,4.9,20.3c0.6,6.3,0.6,12.7-0.1,19c-0.7,6.4-1.9,12.5-3.8,18.4c-1.8,5.9-4.2,11.4-7.2,16.5
		c-2.9,5.1-6.4,9.7-10.4,13.6c-4,3.9-8.5,7.1-13.5,9.6C298.5,608,293,609.6,287.1,610.1z M287.1,607.6c8.2-0.8,15.6-3.6,22-8.4
		c6.4-4.8,11.7-10.9,15.9-18.3c4.2-7.4,7.2-15.6,9-24.7c1.8-9.1,2.3-18.2,1.5-27.5c-0.7-7.3-2.2-13.8-4.6-19.5
		c-2.4-5.7-5.5-10.4-9.3-14.1c-3.8-3.8-8.2-6.5-13.2-8.2c-5-1.7-10.5-2.3-16.5-1.7c-5.5,0.5-10.6,2-15.3,4.3
		c-4.7,2.4-8.9,5.4-12.7,9.2c-3.8,3.8-7.1,8.1-9.9,13c-2.8,4.9-5.1,10.2-6.8,15.9c-1.7,5.7-2.9,11.6-3.6,17.8
		c-0.6,6.2-0.7,12.4-0.1,18.7c0.7,7.3,2.2,13.8,4.6,19.5c2.4,5.7,5.4,10.4,9.2,14.1c3.8,3.8,8.1,6.5,13.2,8.2
		C275.5,607.6,281.1,608.2,287.1,607.6z"/>
	<path class="st0" d="M406.9,597.4l5-181.9l2.7-0.3l-2.9,106.3c2.6-7.8,5.8-14.9,9.5-21.4c3.7-6.5,7.8-12.1,12.3-16.8
		c4.5-4.7,9.2-8.5,14.3-11.4c5.1-2.8,10.2-4.5,15.5-5c9.1-0.8,16,1.4,20.7,6.6c4.7,5.3,7.5,13.2,8.5,23.8c0.2,2,0.3,4.1,0.3,6.2
		c0,2.1,0,4.4,0,6.7l-1.9,79.3l-2.7,0.3l1.9-79.3c0.1-4.4,0-8.5-0.4-12.4c-0.9-9.8-3.5-17.3-7.7-22.3c-4.2-5-10.4-7.2-18.7-6.4
		c-5.1,0.5-10.1,2.2-15.1,5.1c-5,2.9-9.7,7-14.2,12c-4.5,5.1-8.6,11.1-12.5,18.1c-3.8,7-7.2,14.7-10,23.2l-1.9,69.2L406.9,597.4z"/>
	<path class="st0" d="M563.5,584.4c-6.5,0.6-12.5,0-17.9-1.9c-5.4-1.8-10.1-4.7-14.2-8.7c-4-4-7.3-8.9-9.8-14.8
		c-2.5-5.9-4.1-12.7-4.8-20.4c-0.6-6.4-0.6-12.8,0.1-19.2s1.9-12.5,3.8-18.4c1.8-5.9,4.2-11.4,7.2-16.5c2.9-5.1,6.4-9.6,10.4-13.5
		c4-3.9,8.5-7.1,13.5-9.6c5-2.5,10.5-4,16.4-4.6c6.5-0.6,12.4,0,17.8,1.9c5.4,1.9,10.1,4.8,14.1,8.8c4,4,7.3,9,9.8,14.9
		c2.5,5.9,4.1,12.7,4.9,20.3c0.6,6.3,0.6,12.7-0.1,19c-0.7,6.4-1.9,12.5-3.8,18.4c-1.8,5.9-4.2,11.4-7.2,16.5
		c-2.9,5.1-6.4,9.7-10.4,13.6c-4,3.9-8.5,7.1-13.5,9.6C574.8,582.3,569.4,583.8,563.5,584.4z M563.5,581.8c8.2-0.8,15.6-3.6,22-8.4
		c6.4-4.8,11.7-10.9,15.9-18.3c4.2-7.4,7.2-15.6,9-24.7c1.8-9.1,2.3-18.2,1.5-27.5c-0.7-7.3-2.2-13.8-4.6-19.5
		c-2.4-5.7-5.5-10.4-9.3-14.1c-3.8-3.8-8.2-6.5-13.2-8.2c-5-1.7-10.5-2.3-16.5-1.7c-5.5,0.5-10.6,2-15.3,4.3
		c-4.7,2.4-8.9,5.4-12.7,9.2c-3.8,3.8-7.1,8.1-9.9,13c-2.8,4.9-5.1,10.2-6.8,15.9c-1.7,5.7-2.9,11.6-3.6,17.8
		c-0.6,6.2-0.7,12.4-0.1,18.7c0.7,7.3,2.2,13.8,4.6,19.5c2.4,5.7,5.4,10.4,9.2,14.1c3.8,3.8,8.1,6.5,13.2,8.2
		C551.8,581.8,557.4,582.4,563.5,581.8z"/>
	<path class="st0" d="M683.3,571.7l5-181.9l2.7-0.3L688,495.7c2.6-7.8,5.8-14.9,9.5-21.4c3.7-6.5,7.8-12.1,12.3-16.8
		c4.5-4.7,9.2-8.5,14.3-11.4c5.1-2.8,10.2-4.5,15.5-5c9.1-0.8,16,1.4,20.7,6.6c4.7,5.3,7.5,13.2,8.5,23.8c0.2,2,0.3,4.1,0.3,6.2
		c0,2.1,0,4.4,0,6.7l-1.9,79.3l-2.7,0.3l1.9-79.3c0.1-4.4,0-8.5-0.4-12.4c-0.9-9.8-3.5-17.3-7.7-22.3c-4.2-5-10.4-7.2-18.7-6.4
		c-5.1,0.5-10.1,2.2-15.1,5.1c-5,2.9-9.7,7-14.2,12c-4.5,5.1-8.6,11.1-12.5,18.1c-3.8,7-7.2,14.7-10,23.2l-1.9,69.2L683.3,571.7z"/>
	<path class="st0" d="M839.8,558.6c-6.5,0.6-12.5,0-17.9-1.9c-5.4-1.8-10.1-4.7-14.2-8.7c-4-4-7.3-8.9-9.8-14.8
		c-2.5-5.9-4.1-12.7-4.8-20.4c-0.6-6.4-0.6-12.8,0.1-19.2c0.7-6.4,1.9-12.5,3.8-18.4c1.8-5.9,4.2-11.4,7.2-16.5
		c2.9-5.1,6.4-9.6,10.4-13.5c4-3.9,8.5-7.1,13.5-9.6c5-2.5,10.5-4,16.4-4.6c6.5-0.6,12.4,0,17.8,1.9c5.4,1.9,10.1,4.8,14.1,8.8
		c4,4,7.3,9,9.8,14.9c2.5,5.9,4.1,12.7,4.9,20.3c0.6,6.3,0.6,12.7-0.1,19c-0.7,6.4-1.9,12.5-3.8,18.4c-1.8,5.9-4.2,11.4-7.2,16.5
		c-2.9,5.1-6.4,9.7-10.4,13.6c-4,3.9-8.5,7.1-13.5,9.6C851.2,556.5,845.7,558,839.8,558.6z M839.8,556.1c8.2-0.8,15.6-3.6,22-8.4
		c6.4-4.8,11.7-10.9,15.9-18.3c4.2-7.4,7.2-15.6,9-24.7c1.8-9.1,2.3-18.2,1.5-27.5c-0.7-7.3-2.2-13.8-4.6-19.5
		c-2.4-5.7-5.5-10.4-9.3-14.1c-3.8-3.8-8.2-6.5-13.2-8.2c-5-1.7-10.5-2.3-16.5-1.7c-5.5,0.5-10.6,2-15.3,4.3
		c-4.7,2.4-8.9,5.4-12.7,9.2c-3.8,3.8-7.1,8.1-9.9,13c-2.8,4.9-5.1,10.2-6.8,15.9c-1.7,5.7-2.9,11.6-3.6,17.8
		c-0.6,6.2-0.7,12.4-0.1,18.7c0.7,7.3,2.2,13.8,4.6,19.5c2.4,5.7,5.4,10.4,9.2,14.1c3.8,3.8,8.1,6.5,13.2,8.2
		C828.2,556.1,833.7,556.6,839.8,556.1z"/>
	<path class="st0" d="M922.8,543.3c-0.2-2.2,0.4-4.3,1.8-6c1.4-1.8,3.2-2.8,5.5-3c2.2-0.2,4.3,0.4,6,1.9c1.8,1.5,2.8,3.3,3,5.6
		s-0.4,4.2-1.9,5.9s-3.3,2.6-5.6,2.9c-2.2,0.2-4.2-0.4-5.9-1.8C924,547.4,923,545.5,922.8,543.3z M937.3,371.6l-2.1,72.3
		c-0.2,5.5-0.4,11.8-0.8,18.8c-0.3,7.1-0.8,15.7-1.4,25.7l-2,0.2c0-5,0.1-9.4,0.1-13.2c0-3.9,0.1-7.5,0.1-10.8
		c0.1-3.4,0.1-6.7,0.2-9.9c0.1-3.2,0.1-6.7,0.2-10.4l2.1-72.3L937.3,371.6z"/>
</g>
</svg>
