<?xml version="1.0" encoding="utf-8"?>
<!-- Generator: Adobe Illustrator 25.0.1, SVG Export Plug-In . SVG Version: 6.00 Build 0)  -->
<svg version="1.1" id="Layer_1" xmlns="http://www.w3.org/2000/svg" xmlns:xlink="http://www.w3.org/1999/xlink" x="0px" y="0px"
	 viewBox="0 0 1024 1024" style="enable-background:new 0 0 1024 1024;" xml:space="preserve">
<style type="text/css">
	.st0{fill:#25333F;}
	.st1{fill:#FFFFFF;}
</style>
<g>
	<g>
		<g>
			<path class="st0" d="M132.2,607.6c-3,0-6-1.3-8-3.9c-3.5-4.4-2.8-10.9,1.6-14.4l381.2-302.7c3.7-3,9-3,12.7,0l378.3,298.1
				c4.4,3.5,5.2,10,1.7,14.4s-9.9,5.2-14.4,1.7L513.5,307.7L138.6,605.4C136.7,606.9,134.5,607.6,132.2,607.6z"/>
		</g>
		<g>
			<path class="st1" d="M387.8,860.8c-22,6.7-44.8,10.1-67.7,10.1c0,0,0,0,0,0c-23,0-45.9-3.4-67.9-10.1c-2.7-0.8-4.5-3.3-4.5-6.1
				c0.5-36.6,5-72.7,13.4-107.3c10.4-42.9,23.2-69.6,29.9-81.7c3.4-6.1,7-12.1,10.9-18c0.4,0.1,0.7,0.2,1.1,0.3
				c0.2,0.1,0.4,0.1,0.6,0.2c0.4,0.1,0.8,0.2,1.2,0.3c0.2,0.1,0.5,0.1,0.7,0.2c0.6,0.1,1.2,0.3,1.8,0.4c0.3,0.1,0.6,0.1,0.9,0.2
				c0.3,0.1,0.7,0.1,1,0.2c0.4,0.1,0.8,0.1,1.2,0.2c0.4,0.1,0.8,0.1,1.2,0.2c0.4,0.1,0.8,0.1,1.3,0.2c0.3,0,0.5,0.1,0.8,0.1
				c0.6,0.1,1.2,0.1,1.8,0.2c0.1,0,0.3,0,0.4,0c0.6,0,1.2,0.1,1.7,0.1c0.2,0,0.4,0,0.6,0c0.7,0,1.4,0,2.1,0c0.7,0,1.4,0,2.1,0
				c0.2,0,0.4,0,0.6,0c0.6,0,1.2-0.1,1.7-0.1c0.1,0,0.3,0,0.4,0c0.6,0,1.2-0.1,1.8-0.2c0.3,0,0.5-0.1,0.8-0.1
				c0.4-0.1,0.9-0.1,1.3-0.2c0.4-0.1,0.8-0.1,1.2-0.2c0.4-0.1,0.8-0.1,1.2-0.2c0.3-0.1,0.7-0.1,1-0.2c0.3-0.1,0.6-0.1,0.9-0.2
				c0.6-0.1,1.2-0.3,1.8-0.4c0.2-0.1,0.5-0.1,0.7-0.2c0.4-0.1,0.8-0.2,1.2-0.3c0.2-0.1,0.4-0.1,0.6-0.2c0.4-0.1,0.7-0.2,1.1-0.3
				c3.9,5.9,7.5,11.9,10.9,18c6.7,12.1,19.5,38.9,29.9,81.7c7.6,31.4,12.2,68.5,13.3,107.3C392.3,857.5,390.5,860,387.8,860.8z"/>
			<path class="st0" d="M320.1,877.8c-23.7,0-47.2-3.5-69.9-10.4c-5.6-1.7-9.4-7-9.3-12.8c0.5-37.1,5.1-73.7,13.6-108.8
				c10.6-43.7,23.7-71,30.6-83.4c3.4-6.2,7.2-12.4,11.1-18.4l2.8-4.3l11,3l1.5,7.1l0.8-6.8l1.2,7l0.6-6.8l6,0.3l6-0.3l2.7,6.5
				l-0.9-6.8l2.7,6.5l-0.4-6.9l10-2.6l3.8,3.9c3.9,6,7.7,12.2,11.1,18.4c6.9,12.4,20,39.8,30.6,83.4c7.7,31.7,12.4,69.3,13.5,108.7
				c0.2,5.9-3.7,11.2-9.3,13l0,0C367.2,874.2,343.8,877.7,320.1,877.8z M304.9,655.5c-2.8,4.4-5.5,8.9-8,13.4
				c-6.5,11.8-19.1,37.9-29.3,80c-8.3,34.1-12.8,69.7-13.2,105.8c42.1,12,88.6,12.4,131-0.3c-1.1-38.2-5.6-74.7-13.1-105.4
				c-10.2-42.1-22.7-68.2-29.3-80c-2.5-4.5-5.2-9-7.9-13.4l-15.1,1.7l-11.1-0.9l0.1-6.9l-2.1,6.6L304.9,655.5z M335.4,648.4l0.1,1
				l0.3-0.2L335.4,648.4z"/>
		</g>
		<g>
			<circle class="st1" cx="319.9" cy="606.6" r="49.2"/>
			<path class="st0" d="M319.9,662.7c-30.9,0-56.1-25.2-56.1-56.1s25.2-56.1,56.1-56.1s56.1,25.2,56.1,56.1S350.9,662.7,319.9,662.7
				z M319.9,564.2c-23.4,0-42.4,19-42.4,42.4c0,23.4,19,42.4,42.4,42.4c23.4,0,42.4-19,42.4-42.4
				C362.3,583.2,343.3,564.2,319.9,564.2z"/>
		</g>
		<g>
			<path class="st1" d="M482,879.6c-18.5,5.6-37.6,8.5-56.9,8.5c0,0,0,0,0,0c-19.3,0-38.5-2.9-57.1-8.5c-2.3-0.7-3.8-2.8-3.8-5.1
				c0.4-30.7,4.2-61.1,11.3-90.2c8.7-36,19.5-58.5,25.2-68.7c2.8-5.1,5.9-10.2,9.1-15.1c0.3,0.1,0.6,0.2,0.9,0.3
				c0.2,0,0.3,0.1,0.5,0.1c0.3,0.1,0.6,0.2,1,0.3c0.2,0.1,0.4,0.1,0.6,0.1c0.5,0.1,1,0.2,1.5,0.3c0.2,0.1,0.5,0.1,0.7,0.2
				c0.3,0.1,0.6,0.1,0.9,0.2c0.3,0.1,0.7,0.1,1,0.2c0.3,0.1,0.7,0.1,1,0.2c0.4,0.1,0.7,0.1,1.1,0.1c0.2,0,0.4,0.1,0.7,0.1
				c0.5,0.1,1,0.1,1.5,0.1c0.1,0,0.2,0,0.3,0c0.5,0,1,0.1,1.5,0.1c0.2,0,0.3,0,0.5,0c0.6,0,1.1,0,1.7,0s1.2,0,1.7,0
				c0.2,0,0.3,0,0.5,0c0.5,0,1,0,1.5-0.1c0.1,0,0.2,0,0.3,0c0.5,0,1-0.1,1.5-0.1c0.2,0,0.4,0,0.7-0.1c0.4,0,0.7-0.1,1.1-0.1
				c0.3,0,0.7-0.1,1-0.2c0.3-0.1,0.7-0.1,1-0.2c0.3-0.1,0.6-0.1,0.9-0.2c0.2,0,0.5-0.1,0.7-0.2c0.5-0.1,1-0.2,1.5-0.3
				c0.2,0,0.4-0.1,0.6-0.1c0.3-0.1,0.7-0.2,1-0.3c0.2,0,0.3-0.1,0.5-0.1c0.3-0.1,0.6-0.2,0.9-0.3c3.2,4.9,6.3,10,9.1,15.1
				c5.6,10.2,16.4,32.7,25.2,68.7c6.4,26.4,10.3,57.5,11.2,90.1C485.9,876.7,484.3,878.9,482,879.6z"/>
			<path class="st0" d="M425.1,894.9c-20,0-39.9-3-59.1-8.8c-5.2-1.6-8.7-6.4-8.6-11.7c0.4-31.3,4.3-62.2,11.5-91.7
				c9-36.9,20-59.9,25.8-70.4c2.9-5.3,6.1-10.5,9.4-15.6l2.7-4.1l9,2.3l0.6,7.1l1.4-6.7l1.2,7.1l0.9-6.8l3.1,0.3l8.9-0.5l2.5,6.5
				l-0.4-6.9l3.5,6.2l-1.1-6.8c0.8-0.3,1.4-0.4,2-0.5l4.8-1.3l2.9,4.1c3.3,5.1,6.5,10.3,9.4,15.6c5.8,10.4,16.9,33.5,25.8,70.4
				c6.5,26.8,10.4,58.5,11.3,91.6c0.1,5.4-3.4,10.3-8.6,11.9l0,0C464.9,891.9,445.1,894.9,425.1,894.9z M371.1,873.3
				c35.1,10.5,73,10.4,107.9,0c-0.9-31.7-4.7-61.9-10.9-87.5c-8.6-35.3-19-57.1-24.5-67c-2-3.6-4.1-7.1-6.2-10.6l-17.3,1l-0.4-6.9
				l-1.6,6.7l-5-0.9c-2.2,3.5-4.3,7-6.2,10.6c-5.5,9.9-15.9,31.6-24.5,67C375.3,814,371.6,843.5,371.1,873.3z M438.5,700.9l0.2,0.6
				l0.1-0.1L438.5,700.9z"/>
		</g>
		<g>
			<circle class="st1" cx="425" cy="680.2" r="41.4"/>
			<path class="st0" d="M425,728.4c-26.6,0-48.2-21.6-48.2-48.2c0-26.6,21.6-48.2,48.2-48.2c26.6,0,48.2,21.6,48.2,48.2
				C473.2,706.8,451.6,728.4,425,728.4z M425,645.7c-19,0-34.5,15.5-34.5,34.5c0,19.1,15.5,34.6,34.5,34.6
				c19.1,0,34.6-15.5,34.6-34.6C459.6,661.2,444.1,645.7,425,645.7z"/>
		</g>
		<g>
			<path class="st0" d="M675.6,795.7c-126.4,0-159.1-73.6-160.4-76.7c-1.5-3.5,0.1-7.5,3.6-8.9c3.5-1.5,7.5,0.1,9,3.6
				c1.2,2.8,31.1,68.4,147.9,68.4s146.7-65.6,147.9-68.4c1.5-3.5,5.5-5.1,9-3.6c3.4,1.5,5.1,5.5,3.6,8.9
				C834.7,722.1,801.9,795.7,675.6,795.7z"/>
		</g>
		<g>
			<path class="st1" d="M748.5,867.4c0,0-14.6-72.6-72.9-72.6c-58.3,0-72.9,72.6-72.9,72.6"/>
			<path class="st0" d="M602.6,874.2c-0.4,0-0.9-0.1-1.3-0.1c-3.7-0.7-6.1-4.4-5.4-8c0.2-0.8,16.4-78.1,79.6-78.1
				s79.5,77.3,79.6,78.1c0.7,3.7-1.7,7.3-5.3,8c-3.6,0.7-7.3-1.7-8.1-5.3c-0.6-2.8-14.2-67.1-66.2-67.1c-52.2,0-66.1,66.4-66.2,67.1
				C608.7,872,605.8,874.2,602.6,874.2z"/>
		</g>
		<g>
			
				<ellipse transform="matrix(0.9846 -0.1746 0.1746 0.9846 -116.5588 129.1008)" class="st1" cx="675.6" cy="727.1" rx="59.3" ry="34.6"/>
			<path class="st0" d="M664.2,769.6c-28.2,0-50.4-12-53.8-30.9c-2.1-11.6,3.3-23.5,15.1-33.5c10.8-9.2,26-15.9,42.8-18.8
				c16.8-3,33.3-1.9,46.6,3c14.6,5.3,23.7,14.7,25.7,26.3c2.1,11.6-3.3,23.5-15.1,33.5c-10.8,9.2-26,15.9-42.8,18.8
				C676.4,769,670.2,769.6,664.2,769.6z M686.9,698.3c-5.2,0-10.7,0.5-16.2,1.5c-14.4,2.6-27.3,8.2-36.3,15.8
				c-4.6,3.9-12.1,11.8-10.5,20.7c2.6,14.8,28.5,23.1,56.5,18.2c14.4-2.6,27.3-8.2,36.3-15.8c4.6-3.9,12.1-11.8,10.5-20.7
				s-11.3-13.8-17-15.9C703.4,699.6,695.4,698.3,686.9,698.3z"/>
		</g>
		<g>
			<path class="st0" d="M891.8,956H132.2c-5.7,0-10.3-4.6-10.3-10.3s4.6-10.3,10.3-10.3h759.5c5.7,0,10.3,4.6,10.3,10.3
				S897.4,956,891.8,956z"/>
		</g>
	</g>
	<g>
		<circle class="st1" cx="748.5" cy="705.6" r="34.6"/>
		<path class="st0" d="M748.5,747c-22.1,0-40.5-17.5-41.4-39.7c-1-22.8,16.8-42.2,39.7-43.2c0.6,0,1.1,0,1.7,0
			c22.1,0,40.5,17.5,41.4,39.7v0c0.9,22.8-16.9,42.2-39.7,43.1C749.6,747,749,747,748.5,747z M748.5,677.8c-0.4,0-0.7,0-1.1,0
			c-15.3,0.6-27.2,13.6-26.6,28.9c0.6,14.9,13,26.6,27.7,26.6c0.4,0,0.8,0,1.2,0c15.3-0.6,27.2-13.6,26.6-28.9
			C775.6,689.5,763.2,677.8,748.5,677.8z"/>
	</g>
	<g>
		<g>
			<path class="st0" d="M592.3,125c-12-8-28.3-10.8-42.6-13.3c-1.9-0.3-3.7-0.6-5.4-1c-8.4-14.6-17.9-31-31.2-42.1
				c-1-0.8-2.4-0.8-3.3,0c-13.1,11-22.1,27.6-30,42.3l-0.2,0.4c-1.5,0.3-3,0.6-4.6,0.9c-14.4,2.9-30.8,6.1-43.1,14.4
				c-1.1,0.7-1.5,2.2-0.9,3.3c8.3,16.3,20.1,30.6,30.8,42.5c-1.5,15.4-1.4,31.8,0.5,48.6c0.1,0.8,0.5,1.5,1.2,1.9
				c0.4,0.3,0.9,0.4,1.4,0.4c0.3,0,0.6,0,0.8-0.1c4.7-1.6,9.6-3.3,14.2-4.8c10.9-3.7,22.2-7.4,33.2-11.9c9.4,3.6,19.1,6.7,28.4,9.6
				c6.4,2,13,4.1,19.4,6.3c0.8,0.3,1.6,0.2,2.3-0.3c0.7-0.4,1.1-1.2,1.2-2c1.2-18.2,1-34.2-0.8-48.9c10.4-12.3,22-26.9,29.8-43.1
				C593.7,127.1,593.4,125.7,592.3,125z M558.7,168.8c-0.5,0.6-0.7,1.3-0.6,2c1.7,13.7,2.1,28.7,1.1,45.6c-5.5-1.8-11-3.6-16.3-5.3
				c-9.6-3-19.5-6.2-29.1-9.9c-0.6-0.2-1.3-0.2-1.9,0c-11.2,4.6-22.7,8.4-33.8,12.2c-3.7,1.2-7.4,2.5-11.2,3.8
				c-1.5-15.7-1.5-31,0-45.4c0.1-0.7-0.2-1.5-0.6-2c-10.2-11.3-21.5-24.8-29.7-40.1c11.3-6.8,26.1-9.8,39.3-12.4
				c2-0.4,3.9-0.8,5.8-1.2c0.7-0.2,1.4-0.6,1.8-1.3l0.8-1.5c7.4-13.7,15.7-29,27.1-39.4c12,10.7,21,26.3,28.9,40.2l0.1,0.1
				c0.4,0.7,1,1.1,1.8,1.3c2.2,0.4,4.3,0.8,6.7,1.2c13.1,2.3,27.8,4.8,38.7,11.3C579.8,143.3,568.7,157.2,558.7,168.8z"/>
			<path class="st0" d="M464.6,229.3c-1.6,0-3.2-0.5-4.6-1.3c-2.2-1.4-3.7-3.7-3.9-6.3c-1.8-16.3-2-32.1-0.7-47.2
				c-10.3-11.7-21.7-25.6-29.9-41.8c-2-3.9-0.7-8.6,2.9-11c13.3-8.9,30.3-12.3,45.3-15.3c0.6-0.1,1.3-0.2,1.9-0.4
				c7.9-14.7,17-30.8,30.3-42c3.2-2.7,7.8-2.7,11,0c13.6,11.3,23.3,27.6,31.2,41.3c0.9,0.2,1.7,0.3,2.6,0.5
				c14.9,2.6,31.8,5.5,44.9,14.2c3.5,2.4,4.8,7,3,10.9c-7.8,16.1-18.8,30.3-29,42.4c1.5,14.3,1.7,29.8,0.5,47.4
				c-0.2,2.7-1.6,5.1-3.8,6.6c-2.2,1.5-5,1.8-7.6,0.9c-6.4-2.2-12.9-4.3-19.2-6.3c-8.7-2.8-17.7-5.6-26.6-8.9
				c-10.5,4.1-21.1,7.7-31.4,11.1c-4.7,1.6-9.5,3.2-14.2,4.8C466.5,229.2,465.6,229.3,464.6,229.3z M444.8,132.2
				c7.6,12.7,17.2,24,25.9,33.7c1.6,1.8,2.4,4.2,2.2,6.6c-1.2,11.7-1.4,24-0.6,36.6c1.3-0.4,2.6-0.9,3.8-1.3
				c11.1-3.7,22.6-7.6,33.6-12.1c2-0.8,4.3-0.8,6.3-0.1c9.4,3.6,19.2,6.8,28.7,9.8c2.9,0.9,5.9,1.9,8.9,2.8
				c0.5-13.4,0-25.5-1.4-36.7c-0.3-2.4,0.4-4.8,2-6.7l0,0c8.5-10,18-21.6,25.2-34.3c-9.4-4.1-21.1-6.1-31.6-8
				c-2.4-0.4-4.6-0.8-6.7-1.2c-2.5-0.5-4.6-2-5.9-4.2l-0.1-0.1c-6.7-11.8-14.2-24.9-23.6-34.7c-8.8,9.5-15.7,22.4-21.9,33.9
				l-0.8,1.5c-1.2,2.2-3.3,3.8-5.8,4.3c-1.9,0.4-3.9,0.8-5.9,1.2C466.3,125.4,454.5,127.7,444.8,132.2z"/>
		</g>
	</g>
</g>
</svg>
