<?xml version="1.0" encoding="utf-8"?>
<!-- Generator: Adobe Illustrator 25.0.1, SVG Export Plug-In . SVG Version: 6.00 Build 0)  -->
<svg version="1.1" id="Layer_1" xmlns="http://www.w3.org/2000/svg" xmlns:xlink="http://www.w3.org/1999/xlink" x="0px" y="0px"
	 viewBox="0 0 1024 1024" style="enable-background:new 0 0 1024 1024;" xml:space="preserve">
<style type="text/css">
	.st0{fill:#25333F;}
</style>
<g>
	<g>
		<path class="st0" d="M108.1,540.9c0.5,2,1.9,3.6,3.8,4.4c25,10,50.9,15.1,77.1,15.1c0.4,0,0.8,0,1.2,0
			c25.7-0.2,51.2-5.2,75.8-15.1c1.9-0.8,3.3-2.4,3.8-4.4c0.5-2,0-4.1-1.3-5.6c-18.6-22-34.3-47.7-46.8-76.4
			c-12.5-28.8-21.4-59.8-26.5-92.4c-0.5-3.1-3.1-5.4-6.3-5.4c-3.1,0-5.8,2.3-6.3,5.4c-5.1,32.5-14,63.6-26.5,92.4
			c-12.5,28.7-28.2,54.4-46.8,76.4C108.1,536.8,107.6,538.9,108.1,540.9z M167.8,463.9c8.8-20.2,15.9-41.5,21.1-63.7
			c5.3,22.1,12.4,43.4,21.1,63.7c11.7,26.9,26.1,51.3,43.1,72.6c-20.6,7.3-41.7,11-63,11.1c-22.1,0.1-44-3.6-65.4-11.1
			C141.7,515.1,156.2,490.7,167.8,463.9z"/>
		<path class="st0" d="M176.6,330c-3.3-1.1-6.9,0.7-8,4.1l-8.9,27.3c-1.1,3.3,0.7,6.9,4.1,8c0.7,0.2,1.3,0.3,2,0.3
			c2.7,0,5.2-1.7,6-4.4l8.9-27.3C181.8,334.6,179.9,331,176.6,330z"/>
		<path class="st0" d="M183.8,342.7c-2.1,2.8-1.4,6.8,1.4,8.9l23.2,16.9c1.1,0.8,2.4,1.2,3.7,1.2c2,0,3.9-0.9,5.1-2.6
			c2.1-2.8,1.4-6.8-1.4-8.9l-23.2-16.9C189.9,339.2,185.9,339.9,183.8,342.7z"/>
		<path class="st0" d="M231.7,315.4c-2.1-2.8-6-3.5-8.9-1.4l-23.2,16.9c-2.8,2.1-3.5,6-1.4,8.9c1.2,1.7,3.2,2.6,5.1,2.6
			c1.3,0,2.6-0.4,3.7-1.2l23.2-16.9C233.1,322.2,233.7,318.2,231.7,315.4z"/>
		<path class="st0" d="M195,289.9c-1.1-3.3-4.7-5.2-8-4.1c-3.3,1.1-5.2,4.7-4.1,8l8.9,27.3c0.9,2.7,3.4,4.4,6,4.4
			c0.6,0,1.3-0.1,2-0.3c3.3-1.1,5.2-4.7,4.1-8L195,289.9z"/>
		<path class="st0" d="M151.4,312.8c-3.5,0-6.3,2.8-6.3,6.3c0,3.5,2.8,6.3,6.3,6.3h28.7c3.5,0,6.3-2.8,6.3-6.3
			c0-3.5-2.8-6.3-6.3-6.3H151.4z"/>
		<path class="st0" d="M84.4,625.3c0.5,2,1.9,3.6,3.8,4.4c32.7,13.1,66.6,19.8,100.8,19.8c0.5,0,1.1,0,1.6,0
			c33.6-0.2,67-6.9,99.2-19.8c1.9-0.8,3.3-2.4,3.8-4.4c0.5-2,0-4.1-1.3-5.6c-14.2-16.9-27.4-35.7-39.1-55.8c-1.8-3-5.6-4.1-8.7-2.3
			c-3,1.8-4.1,5.6-2.3,8.7c10.5,18.1,22.1,35.2,34.7,50.8c-28.2,10.3-57.2,15.6-86.4,15.8c-30.3,0.2-60.3-5.1-89.5-15.8
			c12.5-15.6,24.2-32.7,34.7-50.8c1.8-3,0.7-6.9-2.3-8.7c-3-1.8-6.9-0.7-8.7,2.3C113,584,99.9,602.8,85.7,619.6
			C84.4,621.2,83.9,623.3,84.4,625.3z"/>
		<path class="st0" d="M59.2,709.4c0.5,2,1.9,3.6,3.8,4.4c40.9,16.4,83.3,24.7,126,24.7c0.7,0,1.4,0,2,0c42-0.3,83.7-8.6,124-24.7
			c1.9-0.8,3.3-2.4,3.8-4.4c0.5-2,0-4.1-1.3-5.6c-14.6-17.3-28.3-36.2-40.8-56.3c-1.9-3-5.8-3.9-8.7-2c-3,1.9-3.9,5.8-2,8.7
			c11.2,18,23.3,35.1,36.2,50.9c-36.2,13.5-73.6,20.4-111.2,20.7c-0.7,0-1.3,0-2,0c-38.3,0-76.3-7-113.1-20.7
			c12.8-15.8,25-32.9,36.2-50.9c1.9-3,0.9-6.9-2-8.7c-3-1.9-6.9-0.9-8.7,2c-12.5,20.1-26.2,39-40.8,56.3
			C59.2,705.3,58.7,707.4,59.2,709.4z"/>
	</g>
	<g>
		<path class="st0" d="M387.1,713.8c0.8,1.5,2.1,2.6,3.7,3.2c37.8,12.1,77.1,18.3,116.8,18.3c0.5,0,1.1,0,1.6,0
			c39.2-0.2,78-6.3,115.3-18.3c1.6-0.5,3-1.7,3.7-3.2c0.8-1.5,0.9-3.3,0.4-4.9l-48.4-146.7c0,0,0,0,0,0L514.9,364
			c4.4,1.7,8.9,3.2,13.6,4.5c1.9,0.5,3.9,0.1,5.4-1c1.6-1.1,2.5-2.9,2.6-4.9c0.2-6.2,0-12.7-0.8-20.6c4.6-5.5,9.4-11.4,13.5-17.8
			c1-1.6,1.3-3.6,0.7-5.4c-0.6-1.8-2-3.3-3.7-4c-6.9-2.7-14.1-4.1-21-5.4c-4-6.7-7.8-12.9-12.7-18.5c-1.2-1.4-3-2.2-4.8-2.2
			c0,0,0,0-0.1,0c-1.9,0-3.6,0.9-4.8,2.3c-5,6.1-9,12.9-12.3,18.8c-6.9,1.4-14,3-20.9,5.9c-1.8,0.7-3.1,2.2-3.6,4
			c-0.6,1.8-0.3,3.8,0.8,5.4c4.2,6.4,9.1,12.2,13.9,17.5c-0.5,6.2-0.8,13.3-0.3,20.6c0.1,1.9,1.1,3.7,2.7,4.8
			c1.1,0.8,2.4,1.1,3.6,1.1c0.6,0,1.2-0.1,1.7-0.2c4-1.2,8-2.6,11.8-4.1l-113.5,344C386.2,710.5,386.3,712.3,387.1,713.8z
			 M492.7,354.1c0.1-4.6,0.4-9.1,0.7-13.1c0.2-1.8-0.4-3.5-1.6-4.8c-3.6-4-6.8-7.7-9.7-11.4c4-1.1,8.2-2,12.5-2.9l1.2-0.3
			c1.8-0.4,3.4-1.5,4.3-3.1c2.6-4.8,5-9,7.6-12.9c2.7,3.8,5.2,8,7.9,12.8c0.9,1.6,2.5,2.7,4.3,3l1.3,0.2c4.3,0.8,8.4,1.6,12.4,2.6
			c-3,4.1-6.3,7.9-9.4,11.6c-1.1,1.3-1.7,3.1-1.5,4.8c0.5,4.9,0.9,9.1,1,13.1c-4.4-1.6-8.8-3.3-13.1-5.1c-1.6-0.6-3.3-0.6-4.8,0
			l-1.6,0.7C500.3,351.1,496.5,352.7,492.7,354.1z M507.6,382.7l29.1,88.3c-7.1,1-12.4,5.3-16.5,9.4c-3.4,3.4-7.8,5.2-12.6,5.2
			s-9.2-1.9-12.6-5.2c-4.6-4.6-10.5-7.5-16.8-8.5L507.6,382.7z M474.2,484.1c4.4,0.2,8.7,2,11.9,5.2c5.8,5.8,13.4,8.9,21.6,8.9
			c8.2,0,15.8-3.2,21.6-8.9c4.8-4.8,8.2-6.1,11.6-5.8l24.9,75.5c-4.3,1.3-8.2,3.8-11.9,7.5c-3.4,3.4-7.8,5.2-12.6,5.2
			s-9.2-1.9-12.6-5.2c-5.8-5.8-13.4-8.9-21.6-8.9c-8.2,0-15.8,3.2-21.6,8.9c-3.4,3.4-7.8,5.2-12.6,5.2c-4.8,0-9.2-1.9-12.6-5.2
			c-3.1-3.1-6.8-5.5-10.9-7L474.2,484.1z M445.4,571.5c2.2,0.9,4.2,2.2,5.9,3.9c5.8,5.8,13.4,8.9,21.6,8.9c8.2,0,15.8-3.2,21.6-8.9
			c3.4-3.4,7.8-5.2,12.6-5.2c4.8,0,9.2,1.9,12.6,5.2c5.8,5.8,13.4,8.9,21.6,8.9c8.2,0,15.8-3.2,21.6-8.9c2.3-2.3,4.4-3.7,6.9-4.4
			l26.1,79.3c-2.6,1.4-5.1,3.2-7.2,5.3c-3.4,3.4-7.8,5.2-12.6,5.2c-4.8,0-9.2-1.9-12.6-5.2c-5.8-5.8-13.4-8.9-21.6-8.9
			c-8.2,0-15.8,3.2-21.6,8.9c-3.4,3.4-7.8,5.2-12.6,5.2s-9.2-1.9-12.6-5.2c-5.8-5.8-13.4-8.9-21.6-8.9c-8.2,0-15.8,3.2-21.6,8.9
			c-3.4,3.4-7.8,5.2-12.6,5.2c-4.8,0-9.2-1.9-12.6-5.2c-2.1-2.1-4.6-3.9-7.2-5.3L445.4,571.5z M415.3,662.6c0.8,0.6,1.6,1.2,2.3,2
			c5.8,5.8,13.4,8.9,21.6,8.9s15.8-3.2,21.6-8.9c3.4-3.4,7.8-5.2,12.6-5.2c4.8,0,9.2,1.9,12.6,5.2c5.8,5.8,13.4,8.9,21.6,8.9
			c8.2,0,15.8-3.2,21.6-8.9c3.4-3.4,7.8-5.2,12.6-5.2c4.8,0,9.2,1.9,12.6,5.2c5.8,5.8,13.4,8.9,21.6,8.9c8.2,0,15.8-3.2,21.6-8.9
			c0.7-0.7,1.5-1.4,2.3-2l14.5,44.1c-34.2,10.3-69.6,15.6-105.4,15.7c-0.5,0-1,0-1.5,0c-36.2,0-72.2-5.3-106.9-15.7L415.3,662.6z"/>
	</g>
	<g>
		<path class="st0" d="M687.8,721c0.5,2,1.9,3.6,3.8,4.4c43.7,17.6,89,26.4,134.7,26.4c0.7,0,1.4,0,2.2,0
			c44.9-0.3,89.5-9.2,132.5-26.4c1.9-0.8,3.3-2.4,3.8-4.4c0.5-2,0-4.1-1.3-5.6c-8.6-10.2-17-21-24.9-32.1c-2-2.9-6-3.5-8.9-1.5
			c-2.9,2-3.5,6-1.5,8.9c6.4,9,13.1,17.7,19.9,26.1c-39,14.6-79.2,22.1-119.7,22.4c-41.9,0.3-83.6-7.3-123.9-22.4
			c15-18.4,29.1-38.4,41.9-59.5c1.8-3,0.9-6.9-2.1-8.7c-3-1.8-6.9-0.9-8.7,2.1c-14.1,23.2-29.7,45-46.4,64.8
			C687.8,716.9,687.3,719,687.8,721z"/>
		<path class="st0" d="M740.2,540.6c0.5,2,1.9,3.6,3.8,4.4c26.7,10.7,54.4,16.2,82.3,16.2c0.4,0,0.9,0,1.3,0
			c27.5-0.2,54.7-5.6,81-16.2c1.9-0.8,3.3-2.4,3.8-4.4c0.5-2,0-4.1-1.3-5.6c-5.1-6-37-54.3-56.1-104.9c-1.2-3.3-4.9-4.9-8.2-3.7
			c-3.3,1.2-4.9,4.9-3.7,8.2c15.7,41.5,41.1,84,53.1,101.5c-22.4,8-45.5,12.2-68.7,12.3c-23.9,0.1-47.6-3.9-70.7-12.2
			c18.2-23,33.8-49.2,46.4-78.1c12.9-29.7,22.4-61.6,28.1-95c0.6-3.5-1.7-6.7-5.2-7.3c-3.5-0.6-6.7,1.7-7.3,5.2
			c-5.6,32.4-14.8,63.3-27.3,92.1c-13.4,30.7-30.2,58.3-50.1,81.9C740.2,536.5,739.7,538.6,740.2,540.6z"/>
		<path class="st0" d="M714.8,630.9c0.5,2,1.9,3.6,3.8,4.4c35,14,71.2,21.2,107.8,21.2c0.6,0,1.2,0,1.7,0
			c35.9-0.2,71.6-7.3,106-21.1c1.9-0.8,3.3-2.4,3.8-4.4c0.5-2,0-4.1-1.3-5.6c-6.2-7.3-12.3-15.1-18-23.1c-2.1-2.8-6-3.5-8.9-1.4
			c-2.8,2.1-3.5,6-1.4,8.9c4.2,5.8,8.5,11.4,12.9,16.9c-30.4,11.2-61.7,16.9-93.2,17.1c-0.6,0-1.1,0-1.7,0c-32.1,0-64-5.8-94.9-17.1
			c13.4-16.7,25.9-34.9,37.2-54.2c1.8-3,0.7-6.9-2.3-8.7c-3-1.8-6.9-0.7-8.7,2.3c-12.4,21.4-26.4,41.3-41.5,59.3
			C714.8,626.9,714.3,628.9,714.8,630.9z"/>
		<path class="st0" d="M817.7,319.8c-3.3-1.1-6.9,0.7-8,4.1l-9.5,29.2c-1.1,3.3,0.7,6.9,4.1,8c0.7,0.2,1.3,0.3,2,0.3
			c2.7,0,5.2-1.7,6-4.4l9.5-29.2C822.8,324.4,821,320.9,817.7,319.8z"/>
		<path class="st0" d="M825.9,333.2c-2.1,2.8-1.4,6.8,1.4,8.9l24.8,18c1.1,0.8,2.4,1.2,3.7,1.2c2,0,3.9-0.9,5.1-2.6
			c2.1-2.8,1.4-6.8-1.4-8.9l-24.8-18C832,329.8,828,330.4,825.9,333.2z"/>
		<path class="st0" d="M876.4,304c-2.1-2.8-6-3.5-8.9-1.4l-24.8,18c-2.8,2.1-3.5,6-1.4,8.9c1.2,1.7,3.2,2.6,5.1,2.6
			c1.3,0,2.6-0.4,3.7-1.2l24.8-18C877.8,310.8,878.4,306.9,876.4,304z"/>
		<path class="st0" d="M837.1,276.6c-1.1-3.3-4.7-5.2-8-4.1c-3.3,1.1-5.2,4.7-4.1,8l9.5,29.2c0.9,2.7,3.4,4.4,6,4.4
			c0.6,0,1.3-0.1,2-0.3c3.3-1.1,5.2-4.7,4.1-8L837.1,276.6z"/>
		<path class="st0" d="M790.9,301.4c-3.5,0-6.3,2.8-6.3,6.3c0,3.5,2.8,6.3,6.3,6.3h30.7c3.5,0,6.3-2.8,6.3-6.3
			c0-3.5-2.8-6.3-6.3-6.3H790.9z"/>
	</g>
</g>
</svg>
