<?xml version="1.0" encoding="utf-8"?>
<!-- Generator: Adobe Illustrator 25.0.1, SVG Export Plug-In . SVG Version: 6.00 Build 0)  -->
<svg version="1.1" id="Layer_1" xmlns="http://www.w3.org/2000/svg" xmlns:xlink="http://www.w3.org/1999/xlink" x="0px" y="0px"
	 viewBox="0 0 1024 1024" style="enable-background:new 0 0 1024 1024;" xml:space="preserve">
<style type="text/css">
	.st0{fill:#25333F;}
</style>
<g>
	<path class="st0" d="M512,75.8c-113.3,0-219.7,44.1-299.8,124.2C132.1,280.1,88,386.5,88,499.8c0,104.9,37.9,204.1,107.3,281.8
		c-1.2,1.9-2,4.1-2.1,6.5l-9.8,145.3c-0.3,3.8,1.1,7.6,3.7,10.4c2.6,2.8,6.3,4.4,10.2,4.4h629.6c3.9,0,7.5-1.6,10.2-4.4
		c2.6-2.8,4-6.6,3.7-10.4l-9.8-145.3c-0.2-2.4-0.9-4.6-2.1-6.5C898.1,703.9,936,604.7,936,499.8c0-113.3-44.1-219.7-124.2-299.8
		C731.7,119.9,625.3,75.8,512,75.8z M212.1,920.4l7.9-117.5h1.3h581.4h1.3l7.9,117.5H212.1z M796.9,775.1H227.1
		c-71.8-74.3-111.3-171.8-111.3-275.3c0-218.5,177.7-396.2,396.2-396.2s396.2,177.7,396.2,396.2
		C908.2,603.3,868.7,700.9,796.9,775.1z"/>
	<path class="st0" d="M673.2,510.6l-64.8,64.8c-9.5-12.3-21.3-22.8-34.9-30.8c11.7-13.9,18.7-31.9,18.7-51.4
		c0-11.2-2.3-21.9-6.5-31.5c1.5,0.5,2.9,0.7,4.4,0.7c5.6,0,10.9-3.4,13-9c2.7-7.2-0.9-15.2-8.1-17.9l-15.1-5.7l26.4-60.1
		c1.5-3.5,1.6-7.5,0.1-11c-1.5-3.5-4.3-6.3-7.9-7.6l-31.8-12h0l-31.8-12c-3.6-1.3-7.5-1.2-11,0.5c-3.4,1.7-6,4.7-7.2,8.3l-19.9,62.5
		l-15.1-5.7c-7.2-2.7-15.2,0.9-17.9,8.1c-2.7,7.2,0.9,15.2,8.1,17.9l5.6,2.1c-27,12.9-45.6,40.5-45.6,72.4c0,19.6,7,37.5,18.7,51.4
		c-13.6,8-25.4,18.5-34.9,30.8l-64.8-64.8c-5.4-5.4-14.2-5.4-19.7,0c-5.4,5.4-5.4,14.2,0,19.7l69.7,69.7
		c-6.9,15.4-10.7,32.3-10.7,49.8c0,67.2,54.6,121.8,121.8,121.8c67.2,0,121.8-54.6,121.8-121.8c0-17.5-3.8-34.4-10.7-49.8l69.7-69.7
		c5.4-5.4,5.4-14.2,0-19.7C687.4,505.2,678.6,505.2,673.2,510.6z M538.7,358.2l36.3,13.7l-21.1,48l-8.5-3.2l-22.6-8.5L538.7,358.2z
		 M512,440.8c28.9,0,52.4,23.5,52.4,52.4c0,28.9-23.5,52.4-52.4,52.4c-28.9,0-52.4-23.5-52.4-52.4
		C459.6,464.3,483.1,440.8,512,440.8z M512,743.7c-51.8,0-94-42.2-94-94c0-37.1,22.1-70.8,55.6-85.8c11.7,6.4,24.9,9.8,38.4,9.8
		c13.5,0,26.7-3.4,38.4-9.8c33.5,15,55.6,48.7,55.6,85.8C606,701.6,563.8,743.7,512,743.7z"/>
	<path class="st0" d="M249.4,634.2c-22.4,0-22.4,34.8,0,34.8C271.7,669,271.8,634.2,249.4,634.2z"/>
	<path class="st0" d="M184.7,448.6c-22.4,0-22.4,34.8,0,34.8C207.1,483.4,207.1,448.6,184.7,448.6z"/>
	<path class="st0" d="M339,404.8c-22.4,0-22.4,34.8,0,34.8C361.4,439.6,361.4,404.8,339,404.8z"/>
	<path class="st0" d="M316.1,219.3c-22.4,0-22.4,34.8,0,34.8C338.5,254,338.5,219.3,316.1,219.3z"/>
	<path class="st0" d="M451.6,285.3c22.4,0,22.4-34.8,0-34.8C429.3,250.5,429.2,285.3,451.6,285.3z"/>
	<path class="st0" d="M591.3,183.1c22.4,0,22.4-34.8,0-34.8C569,148.4,568.9,183.1,591.3,183.1z"/>
	<path class="st0" d="M718.5,261c-22.4,0-22.4,34.8,0,34.8C740.9,295.7,740.9,261,718.5,261z"/>
	<path class="st0" d="M799.8,437.5c22.4,0,22.4-34.8,0-34.8C777.5,402.8,777.4,437.5,799.8,437.5z"/>
	<path class="st0" d="M762.3,563.3c-22.4,0-22.4,34.8,0,34.8C784.7,598.1,784.7,563.3,762.3,563.3z"/>
	<path class="st0" d="M739.4,688.4c-22.4,0-22.4,34.8,0,34.8C761.7,723.2,761.8,688.4,739.4,688.4z"/>
</g>
</svg>
