<?xml version="1.0" encoding="utf-8"?>
<!-- Generator: Adobe Illustrator 25.0.1, SVG Export Plug-In . SVG Version: 6.00 Build 0)  -->
<svg version="1.1" id="Layer_1" xmlns="http://www.w3.org/2000/svg" xmlns:xlink="http://www.w3.org/1999/xlink" x="0px" y="0px"
	 viewBox="0 0 1024 1024" style="enable-background:new 0 0 1024 1024;" xml:space="preserve">
<style type="text/css">
	.st0{fill:#25333F;}
</style>
<g>
	<path class="st0" d="M427.6,585.9c-1.7,5.1,0,8.7,5.2,10.7l12.4,4.4c5.6,1.4,9.4-0.3,11.1-5.2c5.5-18.2,13.6-31.2,24.1-38.8
		c11-7.9,27.3-11.9,48.4-11.9c19.9,0,34.9,4.6,44.8,13.6c9.9,9,14.9,22.8,14.9,40.9c0,14.4-4.2,26.1-12.6,34.7
		c-8.6,9.2-20.8,13.8-36.3,13.8h-54.3c-5.7,0-8.6,2.9-8.6,8.6v10.8c0,5.4,2.9,8.2,8.6,8.2h57.9c17.6,0,31,4.4,39.7,13.1
		c8.8,8.7,13.2,22,13.2,39.4c0,18.9-5.6,33.3-16.6,42.7c-11,9.4-27.8,14.2-49.9,14.2c-22.1,0-39.2-4.1-50.8-12.3
		c-10.8-7.9-19.2-21.2-25-39.7c-2.3-5.7-6-7.5-11.1-5.5l-12.4,4.4c-5.1,2-6.8,5.7-5.1,11.1c14.4,46.4,49.5,69.9,104.4,69.9
		c64.8,0,97.6-28.4,97.6-84.5c0-35-14.7-58.2-43.7-69.1c23.2-10.6,35-31.7,35-62.6c0-25.1-7.6-44.8-22.6-58.7
		c-15.5-13.9-37.8-20.9-66.3-20.9c-28.5,0-51.2,5.7-67.4,16.9C446.4,545,434.7,562.5,427.6,585.9z"/>
	<path class="st0" d="M663.6,602.8c2.8,4.8,7,5.8,12.4,3l83.4-46.2V799c0,5.7,3,8.6,9,8.6h12.8c5.7,0,8.6-2.9,8.6-8.6V531.4
		c0-5.6-3-8.6-8.6-8.6h-10.8c-3.8,0-7.7,1.1-11.5,3.3l-97.4,54.7c-2.7,1.5-4.3,3.2-4.9,5.3c-0.5,1.8-0.2,3.8,1,5.9L663.6,602.8z"/>
	<path class="st0" d="M34.7,352.9c0.2,0.1,0.4,0.1,0.6,0.2c9.8,3.4,19.9,7.1,30.6,11.1l-10,13.9c-5.1,7.1-6,14.9-2.5,21.5
		c3.6,6.7,10.9,10.4,20.1,10.1c19.4-0.5,38.7-0.8,57.3-0.8c-2.3,5.8-1.7,11.8,1.7,16.8c6.7,9.7,21.5,11.3,29.8,9.4
		c32-6.3,61.5-11.4,90.2-15.7c0,0,0.1,0,0.1,0c1.7-0.3,3.5,0,4.5,0.4c-0.4,2.9-0.6,4.9-1,8.3c-0.1,0.5-0.1,0.9-0.1,1.4
		c0,7.5,3.6,14.4,10,18.8c2.6,1.8,5.6,3.1,8.7,4v51.1l-47.7-3c-9.3-0.6-18,4.1-22.7,12.1c-4.7,8-4.5,17.9,0.6,25.8l21,32.5
		c0.2,0.4,0.2,0.8-0.1,1.1l-25.6,28.2c-6.5,7.1-8.2,17.1-4.4,26c3.7,8.9,12,14.7,21.7,15l36.6,1.5c0.4,0,0.8,0.3,0.9,0.7l7.7,32.1
		c1.7,7,6.1,12.6,12.1,15.9v133.6c0,45,36.6,81.6,81.6,81.6h511.9c45,0,81.6-36.6,81.6-81.6V361.5c0-45-36.6-81.6-81.6-81.6h-90.2
		c-6.5,0-11.8,5.3-11.8,11.8v84.5c0,5-4.1,9.1-9.1,9.1h-63.8c-5,0-9.1-4.1-9.1-9.1v-84.5c0-6.5-5.3-11.8-11.8-11.8h-124
		c-2.9-2.2-5.9-3.9-8.8-5.1c-0.3-0.1-0.6-0.2-0.9-0.3c-9.8-3.1-19.6-6.1-29.1-8.8c-4-1.1-7.9-6.2-8-9.1c5.1-16.2,8.4-33.2,9.8-50.5
		c0.1-0.7,0.1-1.3,0-2c-1.3-15.3-14.3-29.8-30.1-33.7c-0.5-0.1-0.9-0.2-1.4-0.3c-12.2-1.5-24.6-2.7-36.9-3.5c0,0-0.1,0-0.1,0
		c-0.8,0-3.5-1-6.4-3.7c-13.9-12.7-28.7-25.5-43.7-38.1c-8.4-7.4-23.8-10.4-33.5-3.2c-5.8,4.3-10,13.1-4.6,24.9
		c7.1,16.3,12.3,29.2,16.9,41.2c-4.5,1.4-8,2.4-13.9,4.3c-7.5,2.3-12.7,8-14,15.1c-1.5,7.9,2.2,16.2,9.7,22.2
		c11,8.8,21.2,17.7,30.3,26.6c-6,4.2-12.2,8.4-18.4,12.5c-4.2,2.7-7,6.9-7.9,11.6h-1c-21,0-40.8,8-55.9,22.2
		c-11.1-9.9-22-19.7-32.6-29.9c-0.3-0.3-0.6-0.5-0.9-0.8c-5.8-4.5-13.1-6.4-20.6-5.1c-8.4,1.4-16.3,6.7-21.1,14
		c-0.1,0.2-0.3,0.5-0.4,0.7l-0.6,1c-1.3,1.8-3.8,3.4-5.9,3.7c-0.8,0.1-1.2,0-1.5-0.1c-11.1-12.4-21.9-25-30-34.6
		c-0.5-0.5-1-1-1.5-1.5c-13-10.7-31.9-4-42.6,8.5c-0.1,0.2-0.3,0.3-0.4,0.5c-8.7,11.4-17.6,23-27.3,35.5c-2,2.6-6.3,4.9-10,5.5
		c-16.4,2.4-33.5,5.1-52.4,8.1c-6.6,1.1-29,11.6-30.7,26.7C21.8,337.3,21.7,347.6,34.7,352.9z M287.3,670.4
		C287.3,670.4,287.2,670.4,287.3,670.4c-0.1,0.1-0.2,0.2-0.3,0.2c0,0,0,0,0,0c-0.1,0-0.2,0-0.3,0c-0.1,0-0.1,0-0.2,0
		c-0.7-0.1-0.7-0.4-0.8-0.7l-7.7-32.1c-2.6-10.6-12-18.4-22.9-18.8l-36.6-1.5c-0.3,0-0.6,0-0.8-0.6c-0.2-0.5,0-0.8,0.2-1l25.6-28.2
		c7.5-8.2,8.5-20.5,2.4-29.8l-21-32.5c-0.1-0.2-0.3-0.5,0-1c0.2-0.4,0.5-0.5,0.7-0.5c0,0,0.1,0,0.1,0l57,3.6
		c2.8,0.2,5.6-0.1,8.3-0.9c0,0,0.1,0,0.1,0c0.6-0.2,1.3-0.4,1.9-0.6c0.2-0.1,0.3-0.1,0.5-0.2c0.4-0.2,0.9-0.4,1.3-0.6
		c0.3-0.2,0.7-0.3,1-0.5c0.2-0.1,0.5-0.2,0.7-0.4c5.5-3.1,9.6-8.3,11.4-14.4c0,0,0-0.1,0-0.1c0.2-0.6,0.3-1.2,0.4-1.8
		c0.1-0.3,0.1-0.5,0.2-0.8c0-0.3,0.1-0.6,0.1-0.8c0.1-0.5,0.1-1.1,0.2-1.6c0-0.1,0-0.3,0-0.5c0-0.7,0-1.3,0-2l-1-35.5
		c0-0.1,0-0.5,0.3-0.7c0.3-0.2,0.5-0.2,0.7-0.2c0,0,0,0,0,0c0,0,0.1,0,0.1,0l70,14.3l-59.8,57.3c-4.7,4.5-4.9,12-0.4,16.7
		c2.3,2.4,5.4,3.6,8.5,3.6c2.9,0,5.9-1.1,8.2-3.3l52.1-49.9l-15.5,125.5c0,0.1,0,0.1,0,0.2c0,0.2-0.2,0.4-0.6,0.6
		c-0.1,0.1-0.2,0.1-0.3,0.1c-0.2,0-0.4-0.1-0.5-0.2c0,0-0.1-0.1-0.1-0.1l-21-18.3c-2.5-2.2-5.4-3.9-8.5-4.9c0,0,0,0,0,0
		c-0.1,0-0.1,0-0.2,0c-3.9-1.3-8.2-1.5-12.4-0.6c-2.4,0.5-4.6,1.3-6.7,2.4c-2.5,1.3-4.7,3.1-6.6,5.1c-0.6,0.7-1.2,1.4-1.8,2.2
		c-0.8,1.2-1.6,2.4-2.2,3.7l-23.8,49.7C287.4,670.2,287.4,670.3,287.3,670.4z M378.6,449.2c0.5,2.5,1.2,4.9,2,7.2l-62.2-12.8
		c0.2-0.1,0.4-0.1,0.6-0.2c4.6-1.5,9.3-3.1,14-4.6c0.2-0.1,0.4-0.1,0.5-0.2c4.5-1.4,8.9-2.9,13.4-4.3c1.5-0.5,3-0.9,4.4-1.4
		c3.2-1,6.5-2,9.7-2.9c1.8-0.5,3.6-1.1,5.4-1.6c3-0.9,5.9-1.7,8.9-2.6c0.8-0.2,1.7-0.5,2.5-0.7C376.7,433.2,376.9,441.2,378.6,449.2
		z M926.4,824.9c0,32-26,58-58,58H356.5c-32,0-58-26-58-58V691.2c1.6-0.9,3.2-2,4.6-3.3c0,0,0,0,0.1-0.1c0.4-0.4,0.8-0.8,1.2-1.2
		c0.1-0.1,0.1-0.1,0.2-0.2c0.3-0.4,0.7-0.8,1-1.2c0.1-0.1,0.2-0.2,0.2-0.3c0.3-0.4,0.6-0.8,0.9-1.2c0.1-0.1,0.2-0.2,0.3-0.4
		c0.3-0.4,0.5-0.8,0.8-1.2c0.1-0.1,0.2-0.3,0.2-0.4c0.3-0.5,0.6-1.1,0.9-1.7l23.8-49.7c0.1-0.1,0.2-0.4,0.7-0.5
		c0.5-0.1,0.7,0.1,0.8,0.2l21,18.3c6.9,6,16.4,7.7,24.9,4.4c8.5-3.3,14.5-10.9,15.6-19.9l17.3-140.3c12.8,6.3,27.2,8.1,41.4,5
		c16.6-3.6,30.8-13.5,39.9-27.7c0.9-1.4,1.8-2.9,2.5-4.4h429.7V824.9z M407.1,414.1c5.8-9,14.7-15.2,25.1-17.4
		c10.4-2.3,21.1-0.3,30,5.4c9,5.8,15.2,14.7,17.4,25.1c2.3,10.4,0.3,21.1-5.4,30c-5.8,9-14.7,15.2-25.1,17.4
		c-10.4,2.3-21.1,0.3-30-5.4c-9-5.8-15.1-14.7-17.4-25.1C399.5,433.8,401.4,423.1,407.1,414.1z M540.9,335.5c0.8-0.7,1.5-1.3,2.3-2
		c0.9-0.8,1.9-1.7,2.8-2.5c0.7-0.6,1.4-1.2,2.1-1.9c1-1,2.1-1.9,3.1-2.9c0.6-0.5,1.1-1,1.7-1.5c1.6-1.5,3.2-3,4.7-4.5
		c0.7-0.6,1.2-1.3,1.7-2.1c0.3-0.5,0.6-1,0.9-1.5c0.1-0.1,0.1-0.3,0.2-0.4c0.2-0.5,0.5-0.9,0.7-1.4c0,0,0-0.1,0.1-0.1
		c0.2-0.5,0.4-1.1,0.6-1.7c0-0.1,0.1-0.2,0.1-0.3c1-3,1.4-6.1,1.1-9.2h97.9v72.7c0,18,14.7,32.7,32.7,32.7h63.8
		c18,0,32.7-14.7,32.7-32.7v-72.7h78.3c32,0,58,26,58,58v80.5H503.9c0.7-6.6,0.3-13.2-1.1-19.9c-3.3-15.3-12-28.5-24.5-37.7
		c0.3-0.2,0.6-0.4,0.9-0.6c1-0.8,2.1-1.5,3.1-2.3c0.8-0.6,1.5-1.1,2.3-1.7c1-0.7,1.9-1.4,2.9-2.1c0.8-0.6,1.6-1.2,2.3-1.7
		c0.9-0.7,1.9-1.4,2.8-2.1c0.8-0.6,1.6-1.2,2.4-1.8c0.9-0.7,1.9-1.4,2.8-2.1c0.8-0.6,1.6-1.2,2.4-1.8c0.9-0.7,1.8-1.4,2.8-2.1
		c0.8-0.6,1.6-1.2,2.4-1.8c0.9-0.7,1.8-1.4,2.7-2.1c0.8-0.6,1.6-1.3,2.5-1.9c0.9-0.7,1.8-1.4,2.6-2c0.8-0.6,1.7-1.3,2.5-1.9
		c0.9-0.7,1.7-1.4,2.6-2c0.8-0.7,1.7-1.3,2.5-2c0.9-0.7,1.7-1.4,2.6-2c0.8-0.7,1.7-1.4,2.5-2.1c0.8-0.7,1.7-1.4,2.5-2
		c0.9-0.7,1.7-1.4,2.6-2.1c0.8-0.7,1.6-1.3,2.4-2c0.9-0.7,1.7-1.5,2.6-2.2c0.8-0.7,1.6-1.3,2.3-2C539.2,337.1,540,336.3,540.9,335.5
		z M401.5,272.3c4.5-3.2,7.2-8,7.6-13.6c0.5-6.7-2.5-13.7-8.1-19.2c-9.1-8.9-19.2-17.9-30.2-26.7c4-1.2,7.1-2.2,11.9-3.6
		c5.4-1.6,9.7-5.1,12-9.8c2.4-4.9,2.6-10.6,0.6-16.2c-4.3-11.6-9.2-23.8-15.5-38.6c14.2,11.9,28,24,41.1,35.9c6.4,5.9,14,9.4,21,9.8
		c11.5,0.8,23.2,1.9,34.7,3.3c5.5,1.6,10.7,7,11.6,11.9c-1.4,15.5-4.4,30.7-9.1,45.2c-0.2,0.5-0.3,1.1-0.4,1.7
		c-2.7,16.4,10.9,32.2,24.8,36.2c9.1,2.6,18.5,5.5,28,8.4c1.7,0.8,3.3,2,4.7,3.2c0,0,0.1,0.1,0.1,0.1c2.2,2.1,3,3.9,3.3,4.7
		c-13.2,12.6-27.4,24.4-42,35.7c-0.2,0.2-0.4,0.3-0.6,0.5c-0.7,0.6-1.5,1.1-2.2,1.7c-5.6,4.3-11.2,8.5-16.8,12.7
		c1.6-13.4,1.5-27-0.1-40.4c-2-16.5-6.4-32.6-13.1-47.8c-2.6-6-9.6-8.7-15.6-6.1c-6,2.6-8.7,9.6-6.1,15.6
		c5.7,13.2,9.5,27.1,11.3,41.2c1.7,14.1,1.4,28.3-0.9,42.3c-21.8-28.1-44.9-52.6-70.2-74.4c0,0-0.1-0.1-0.1-0.1
		c-0.1-0.1-0.3-0.3-0.4-0.4C388.9,281,395.2,276.7,401.5,272.3z M367.5,303.5c0.1,0.1,0.1,0.1,0.2,0.2l0,0c1.7,1.4,3.3,2.9,5,4.4
		c0.5,0.5,1,0.9,1.5,1.4c1.1,1,2.3,2.1,3.4,3.1c0.6,0.5,1.2,1.1,1.7,1.6c1.1,1,2.2,2.1,3.3,3.1c0.5,0.5,1.1,1,1.6,1.5
		c1.4,1.4,2.9,2.7,4.3,4.1c0.2,0.2,0.3,0.3,0.5,0.5c1.6,1.5,3.2,3.1,4.7,4.7c0.5,0.5,1,1,1.5,1.5c1.1,1.1,2.2,2.2,3.3,3.4
		c0.6,0.6,1.1,1.2,1.7,1.7c1,1.1,2.1,2.2,3.1,3.3c0.5,0.6,1,1.1,1.6,1.7c1.3,1.4,2.5,2.8,3.8,4.2c0.3,0.3,0.5,0.6,0.8,0.8
		c1.5,1.7,3,3.4,4.5,5.1c0.4,0.5,0.9,1,1.3,1.5c1.1,1.2,2.2,2.5,3.2,3.7c0.5,0.6,1,1.2,1.6,1.8c1,1.2,2,2.4,3,3.6
		c0.5,0.6,1,1.2,1.5,1.8c1.2,1.4,2.4,2.9,3.6,4.4c0.3,0.3,0.6,0.7,0.8,1c1.3,1.7,2.7,3.4,4,5.1c-2,0.2-3.9,0.6-5.9,1
		c-9.4,2-18.1,6.1-25.4,11.8c-0.5-1.3-0.9-2.6-1.4-3.8c-0.3-0.7-0.5-1.4-0.8-2.1c-0.5-1.2-0.9-2.4-1.4-3.6c-0.3-0.8-0.6-1.6-1-2.4
		c-0.4-1.1-0.9-2.2-1.4-3.4c-0.4-0.9-0.7-1.7-1.1-2.6c-0.4-1.1-0.9-2.1-1.3-3.2c-0.5-1.1-0.9-2.1-1.4-3.2c-0.7-1.5-1.3-3-2-4.5
		c-0.5-1.2-1-2.3-1.6-3.5c-0.4-0.9-0.8-1.7-1.2-2.6c-0.5-1.1-1-2.1-1.5-3.2c-0.4-0.8-0.8-1.7-1.2-2.5c-0.5-1.1-1.1-2.2-1.6-3.3
		c-0.4-0.8-0.8-1.6-1.1-2.3c-0.6-1.3-1.3-2.6-2-3.9c-0.3-0.6-0.6-1.1-0.8-1.7c-0.9-1.8-1.9-3.7-2.8-5.5c-0.3-0.5-0.6-1.1-0.8-1.6
		c-0.7-1.3-1.4-2.7-2.1-4c-0.4-0.7-0.7-1.4-1.1-2c-0.6-1.2-1.3-2.4-1.9-3.6c-0.4-0.7-0.7-1.3-1.1-2c-0.7-1.2-1.3-2.5-2-3.7
		c-0.3-0.6-0.6-1.2-1-1.8c-1-1.8-1.9-3.5-2.9-5.3c-0.1-0.2-0.2-0.3-0.3-0.5c0,0,0-0.1,0-0.1H367.5z M56.9,330.8
		c18.6-3,35.6-5.6,51.8-8c9.8-1.4,19.4-6.9,25.2-14.3c9.6-12.4,18.5-24,27.2-35.3c3.1-3.5,7.5-5.5,9.2-5.4
		c8.3,9.8,19,22.3,30.1,34.6c0.4,0.4,0.8,0.8,1.2,1.2c5.6,4.7,12.9,6.7,20.5,5.6c8.8-1.3,17.4-6.8,22.4-14.3
		c0.2-0.2,0.3-0.5,0.5-0.8l0.6-1.1c1.2-1.7,3.2-3,5-3.3c0.9-0.2,1.5,0,1.8,0.2c12.4,11.9,24.9,23.1,37.8,34.5
		c0.3,0.2,0.5,0.4,0.8,0.6c7,5.2,15.9,7.1,24.4,5.3c7.2-1.5,13.2-5.4,17.3-11.2c0,0,0,0,0,0c0.5-0.7,0.9-1.4,1.4-2.2
		c0.2-0.3,0.4-0.7,0.5-1c0.1-0.1,0.2-0.3,0.3-0.4c0.9-0.8,2.4-1.2,3.7-1.3c1.4,0,3.4,0.4,4.3,1.6c10.7,19.5,21.5,40,30.5,61.3
		c-14.1-8.6-28.7-16.3-43.8-23c-41.9-18.6-86.7-29.5-133.1-32.4c-6.5-0.4-12.1,4.5-12.5,11.1c-0.4,6.5,4.5,12.1,11.1,12.5
		c43.6,2.7,85.6,13,124.9,30.5c17.4,7.7,34.1,16.8,50.1,27.3c-28.7,8-56.7,17.3-83.1,26.4c-0.1,0-0.3,0.1-0.4,0.1l0,0
		c-0.2,0.1-0.3,0.1-0.5,0.2c-0.2,0-0.4,0.1-0.7,0.1c-0.1,0-0.1,0-0.2,0c-1.8,0.2-4-0.2-5.1-0.8c0.3-2.9,0.6-4.9,1-8.3
		c0-0.3,0.1-0.6,0.1-0.9c0.3-6.7-2.3-12.8-7.3-17.3c-7.4-6.5-17.9-7.6-24.7-6.5c-29,4.3-58.9,9.5-91.4,15.9c-0.2,0-0.4,0.1-0.6,0.1
		c-0.3,0.1-0.8,0.1-1.3,0.1c2-5.3,1.7-10.9-0.9-15.7c-3.7-7-11.7-11.1-21.3-11.2c-17.6,0-35.8,0.2-54.2,0.7l8.3-11.6
		c4.2-5.9,5.6-12.4,3.8-18.3c-1.6-5.3-5.7-9.6-11.2-11.7c-10.2-3.9-19.8-7.4-29.1-10.7C53.3,332.4,55.5,331.2,56.9,330.8z"/>
	<path class="st0" d="M712.3,291.7v58.5c0,6.5,5.3,11.8,11.8,11.8s11.8-5.3,11.8-11.8v-58.5c0-6.5-5.3-11.8-11.8-11.8
		S712.3,285.2,712.3,291.7z"/>
</g>
</svg>
