<?xml version="1.0" encoding="utf-8"?>
<!-- Generator: Adobe Illustrator 25.0.1, SVG Export Plug-In . SVG Version: 6.00 Build 0)  -->
<svg version="1.1" id="Layer_1" xmlns="http://www.w3.org/2000/svg" xmlns:xlink="http://www.w3.org/1999/xlink" x="0px" y="0px"
	 viewBox="0 0 1024 1024" style="enable-background:new 0 0 1024 1024;" xml:space="preserve">
<style type="text/css">
	.st0{fill:#25333F;}
</style>
<g>
	<path class="st0" d="M957.4,258.8c1.5-5.8-0.1-11.9-4.3-16.1L781.3,70.9c-4.2-4.2-10.4-5.9-16.1-4.3c-5.8,1.5-10.3,6-11.8,11.8
		L698,285.2l-5.6-5.6C670.7,257.9,641.8,246,611,246c-30.8,0-59.8,11.9-81.4,33.6L279.6,529.5C257.9,551.2,246,580.1,246,611
		c0,30.8,11.9,59.8,33.6,81.4l5.6,5.6L78.4,753.4c-5.8,1.5-10.3,6-11.8,11.8c-1.5,5.8,0.1,11.9,4.3,16.1l171.8,171.8
		c3.2,3.2,7.4,4.9,11.8,4.9c1.4,0,2.9-0.2,4.3-0.6c5.8-1.5,10.3-6,11.8-11.8L326,738.8l5.6,5.6c21.7,21.7,50.6,33.6,81.4,33.6
		s59.8-11.9,81.4-33.6l249.9-249.9c21.7-21.7,33.6-50.6,33.6-81.4c0-30.8-11.9-59.8-33.6-81.4l-5.6-5.6l206.8-55.4
		C951.4,269.1,955.9,264.6,957.4,258.8z M245.9,909.1l-131-131l178.9-47.9L245.9,909.1z M303.2,668.8
		c-15.4-15.4-23.8-35.9-23.8-57.8c0-21.9,8.5-42.5,23.8-57.8l27.2-27.2l7.8,177.8L303.2,668.8z M413,744.6
		c-14.3,0-28.1-3.6-40.2-10.4L362.4,494l76.7-76.7L453,734.3C440.9,741,427.3,744.6,413,744.6z M485.1,706.5l-14-321.3l76.7-76.7
		l14.1,321.3L485.1,706.5z M593.8,597.8l-13.7-312.5c9.6-3.9,20-5.9,30.8-5.9c18.3,0,35.6,5.9,49.8,16.8l9.8,225L593.8,597.8z
		 M744.6,413c0,21.9-8.5,42.5-23.8,57.8l-18.2,18.2l-7-159.1l25.2,25.2C736.2,370.6,744.6,391.1,744.6,413z M730.2,293.8l47.9-178.9
		l131,131L730.2,293.8z"/>
</g>
</svg>
