<?xml version="1.0" encoding="utf-8"?>
<!-- Generator: Adobe Illustrator 25.0.1, SVG Export Plug-In . SVG Version: 6.00 Build 0)  -->
<svg version="1.1" id="Layer_1" xmlns="http://www.w3.org/2000/svg" xmlns:xlink="http://www.w3.org/1999/xlink" x="0px" y="0px"
	 viewBox="0 0 1024 1024" style="enable-background:new 0 0 1024 1024;" xml:space="preserve">
<style type="text/css">
	.st0{fill:#25333F;}
</style>
<g>
	<path class="st0" d="M895.3,659.5l10.5,0.3c5.2,0.1,10-3,12-7.9c1.9-4.9,0.6-10.5-3.3-13.9l-20.2-17.9c9.9-35,14.9-71.3,14.9-107.9
		c0-63.9-15.5-127.1-44.8-183.5l23-26.9c3-3.5,3.8-8.4,2.1-12.7c-1.7-4.3-5.6-7.3-10.2-7.9l-11.4-1.3l15.1-18.2
		c3.5-4.3,3.8-10.4,0.7-15c-3.1-4.6-8.9-6.6-14.2-4.9l-38.2,12.1l5.5-9c2.7-4.5,2.4-10.2-0.9-14.3c-3.3-4.1-8.8-5.7-13.7-4.1
		l-25.7,8.5c-12.6-13-26.2-25.1-40.5-36.3c-2.9-22.4-18.2-41.9-39.8-49.7c-13-4.7-27.4-4.9-40.5-0.5l-2.1,0.7
		c-45.6-20.4-94.1-31.8-144.2-33.9l-11.8-33.4c-1.5-4.4-5.4-7.5-9.9-8.2c-4.6-0.7-9.2,1.2-11.9,4.9l-6.8,9.2l-8.2-22.2
		c-1.9-5.2-7.1-8.5-12.6-8.1c-5.5,0.4-10.2,4.4-11.4,9.8l-8.6,39.1l-5-9.3c-2.5-4.6-7.6-7.2-12.8-6.4c-5.2,0.8-9.4,4.7-10.4,9.9
		l-5.5,26.4c-21.9,5.5-43.3,13-63.9,22.2l-2.1-0.7c-13.1-4.4-27.5-4.2-40.5,0.5c-21.6,7.9-36.9,27.3-39.8,49.8
		c-36,28-66.6,61.6-91,99.9l-34.8-6.5c-4.5-0.8-9.2,0.9-12.1,4.5c-2.9,3.6-3.5,8.5-1.7,12.8l4.5,10.5l-23.3-4
		c-5.5-0.9-10.9,1.9-13.4,6.9c-2.4,5-1.3,11,2.8,14.7l29.6,27l-10.5-0.3c-5.2-0.1-10,3-12,7.9c-1.9,4.9-0.6,10.5,3.3,13.9l20.2,18
		c-9.9,35-14.9,71.3-14.9,107.9c0,63.9,15.5,127.1,44.8,183.5l-23,26.9c-3,3.5-3.8,8.4-2.1,12.7c1.7,4.3,5.6,7.3,10.2,7.9l11.4,1.3
		L141,762.4c-3.5,4.3-3.8,10.4-0.7,15c3.1,4.6,8.9,6.6,14.2,4.9l38.2-12.1l-5.5,9c-2.7,4.5-2.4,10.2,0.9,14.3
		c3.3,4.1,8.8,5.8,13.7,4.1l25.7-8.5c34.6,35.6,74.9,64,120,84.5c46.5,21.2,96,33,147.2,35.2l11.8,33.4c1.5,4.4,5.4,7.5,9.9,8.2
		c4.6,0.7,9.2-1.2,11.9-4.9l6.8-9.2l8.2,22.2c1.8,4.9,6.5,8.2,11.7,8.2c0.3,0,0.6,0,0.9,0c5.5-0.4,10.2-4.4,11.4-9.8l8.6-39.1l5,9.3
		c2.5,4.6,7.6,7.2,12.8,6.4c5.2-0.8,9.4-4.7,10.4-9.9l5.5-26.4c49.2-12.4,94.9-33.9,136.1-64c40.4-29.5,74.4-65.7,101.2-107.7
		l34.8,6.5c4.5,0.8,9.2-0.9,12.1-4.5c2.9-3.6,3.5-8.5,1.7-12.8l-4.5-10.5l23.3,4c5.5,0.9,10.9-1.9,13.4-6.9c2.4-5,1.3-11-2.8-14.7
		L895.3,659.5z M676.9,174.4L676.9,174.4l6.8-2.3c7.8-2.6,16.3-2.5,24,0.3c14.3,5.2,23.9,18.9,23.9,34.1v88.4
		c0,11.6-5.6,22.5-14.9,29.3l-5.9,4.3c-8.3,6.1-18.9,8.2-28.9,6.1c-2.2-0.5-4.3-1.1-6.4-2l-38.6-16.1l0,0l-28.7-11.9l-14.4-6
		c0.4-2.1,0.7-4.3,0.8-6.5c0-0.7,0.1-1.5,0.1-2.2v-5.6h51.2c6.9,0,12.5-5.6,12.5-12.5c0-6.9-5.6-12.5-12.5-12.5h-51.2v-15.4h51.2
		c6.9,0,12.5-5.6,12.5-12.5c0-6.9-5.6-12.5-12.5-12.5h-51.2v-6.6c0-3.3-0.4-6.6-1.1-9.7L676.9,174.4z M698.2,500.1l11.1,7.4
		l-19.5,4.7c-4.8,1.2-8.5,5.1-9.4,10c-0.9,4.9,1.2,9.9,5.4,12.6l26.4,17.7l-15.3,3.6c-4.8,1.2-8.5,5.1-9.4,10
		c-0.9,4.9,1.2,9.9,5.4,12.6l12.2,8.2C674.3,666.3,597.9,719,512,719c-71.1,0-137.1-36.6-175-96.4l7.2-4.7c4.2-2.7,6.3-7.7,5.4-12.6
		c-0.9-4.9-4.5-8.8-9.4-10l-13-3.2l16.8-11.1c4.2-2.7,6.3-7.7,5.4-12.6c-0.8-4.9-4.5-8.8-9.4-10l-30.9-7.6l13.1-8.7
		c4.2-2.7,6.3-7.7,5.4-12.6c-0.8-4.9-4.5-8.8-9.4-10l-13.4-3.3c0-1.5,0-2.9,0-4.3c0-69.7,34.7-134.2,92.9-172.7l51.2-21.3
		c3,2.6,6.3,5,9.9,7c-0.6,24.9-2.4,49.9-5.5,74.6c-4,31.1-10,62.2-18.1,92.5c0,0.1,0,0.2-0.1,0.3c-0.1,0.2-0.1,0.5-0.2,0.7
		c0,0.2-0.1,0.4-0.1,0.6c0,0.2,0,0.4-0.1,0.6c0,0.2,0,0.5,0,0.7c0,0.1,0,0.2,0,0.3c0,0.1,0,0.1,0,0.2c0,0.3,0,0.5,0,0.8
		c0,0.2,0,0.3,0,0.5c0,0.2,0.1,0.5,0.1,0.7c0,0.2,0.1,0.4,0.1,0.6c0,0.2,0.1,0.4,0.1,0.6c0.1,0.2,0.1,0.4,0.2,0.6
		c0.1,0.2,0.1,0.3,0.2,0.5c0.1,0.2,0.2,0.4,0.3,0.7c0.1,0.1,0.1,0.3,0.2,0.4c0.1,0.2,0.2,0.4,0.3,0.6c0.1,0.1,0.2,0.3,0.3,0.4
		c0.1,0.2,0.2,0.4,0.4,0.6c0.1,0.2,0.2,0.3,0.3,0.5c0.1,0.2,0.2,0.3,0.4,0.5c0.1,0.2,0.3,0.3,0.4,0.5c0.1,0.1,0.2,0.3,0.4,0.4
		c0.2,0.2,0.3,0.3,0.5,0.5c0.1,0.1,0.3,0.2,0.4,0.3c0.2,0.1,0.4,0.3,0.6,0.4c0.1,0.1,0.3,0.2,0.4,0.3c0.2,0.1,0.4,0.2,0.5,0.3
		c0.2,0.1,0.4,0.2,0.5,0.3c0.2,0.1,0.3,0.2,0.5,0.2c0.2,0.1,0.4,0.2,0.7,0.3c0.1,0.1,0.3,0.1,0.5,0.2c0.2,0.1,0.5,0.2,0.8,0.2
		c0.1,0,0.1,0,0.2,0.1c0.1,0,0.1,0,0.2,0c0.4,0.1,0.7,0.2,1.1,0.2c0.1,0,0.3,0,0.4,0.1c0.4,0,0.8,0.1,1.3,0.1l0.2,0c0,0,0,0,0,0
		h41.5c0,0,0,0,0,0c0.4,0,0.8,0,1.2-0.1c0.1,0,0.2,0,0.3,0c0.3,0,0.6-0.1,0.9-0.1c0.1,0,0.3-0.1,0.4-0.1c0.2-0.1,0.5-0.1,0.7-0.2
		c0.2,0,0.3-0.1,0.5-0.2c0.2-0.1,0.4-0.1,0.6-0.2c0.2-0.1,0.3-0.1,0.5-0.2c0.2-0.1,0.4-0.2,0.5-0.3c0.2-0.1,0.3-0.2,0.5-0.3
		c0.2-0.1,0.3-0.2,0.5-0.3c0.2-0.1,0.3-0.2,0.5-0.3c0.2-0.1,0.4-0.3,0.6-0.4c0.1-0.1,0.2-0.2,0.3-0.2c0.3-0.2,0.6-0.5,0.8-0.8
		c0,0,0.1-0.1,0.1-0.1c0.2-0.2,0.5-0.5,0.7-0.8c0.1-0.1,0.1-0.2,0.2-0.2c0.2-0.2,0.3-0.4,0.5-0.7c0.1-0.1,0.1-0.2,0.2-0.3
		c0.1-0.2,0.3-0.4,0.4-0.6c0.1-0.1,0.1-0.3,0.2-0.4c0.1-0.2,0.2-0.4,0.3-0.6c0.1-0.2,0.1-0.3,0.2-0.5c0.1-0.2,0.1-0.4,0.2-0.6
		c0.1-0.2,0.1-0.4,0.2-0.6c0.1-0.2,0.1-0.4,0.1-0.6c0-0.2,0.1-0.4,0.1-0.6c0-0.1,0-0.1,0-0.2c3.9-22.8,7.1-45.9,9.5-68.9
		c0.7-6.4,1.2-12.8,1.8-19.2l15.6,228.4c0,0.1,0,0.1,0,0.2c0,0.2,0,0.4,0.1,0.6c0,0.2,0.1,0.4,0.1,0.6c0,0.2,0.1,0.4,0.1,0.6
		c0,0.2,0.1,0.4,0.2,0.6c0.1,0.2,0.1,0.4,0.2,0.6c0.1,0.2,0.1,0.4,0.2,0.6c0.1,0.2,0.1,0.3,0.2,0.5c0.1,0.2,0.2,0.4,0.3,0.6
		c0.1,0.2,0.2,0.3,0.3,0.5c0.1,0.2,0.2,0.4,0.3,0.6c0.1,0.1,0.2,0.3,0.3,0.4c0.1,0.2,0.3,0.4,0.4,0.5c0.1,0.1,0.2,0.3,0.3,0.4
		c0.1,0.2,0.3,0.3,0.4,0.5c0.1,0.1,0.2,0.3,0.4,0.4c0.2,0.1,0.3,0.3,0.5,0.4c0.1,0.1,0.3,0.2,0.4,0.4c0.2,0.1,0.3,0.2,0.5,0.4
		c0.2,0.1,0.3,0.2,0.5,0.3c0.2,0.1,0.3,0.2,0.5,0.3c0.2,0.1,0.3,0.2,0.5,0.3c0.2,0.1,0.4,0.2,0.6,0.3c0.2,0.1,0.3,0.2,0.5,0.2
		c0.2,0.1,0.4,0.2,0.6,0.2c0.2,0.1,0.3,0.1,0.5,0.2c0.2,0.1,0.5,0.1,0.8,0.2c0.1,0,0.3,0.1,0.4,0.1c0.3,0.1,0.7,0.1,1,0.2
		c0.1,0,0.1,0,0.2,0c0.4,0,0.8,0.1,1.3,0.1h0h61l0,0c0.4,0,0.8,0,1.2-0.1c0.2,0,0.3,0,0.5-0.1c0.2,0,0.3,0,0.5-0.1
		c0.1,0,0.1,0,0.2,0c0.3,0,0.5-0.1,0.7-0.2c0.2,0,0.3-0.1,0.5-0.1c0.2-0.1,0.5-0.1,0.7-0.2c0.2-0.1,0.3-0.1,0.5-0.2
		c0.2-0.1,0.4-0.2,0.6-0.3c0.2-0.1,0.4-0.2,0.5-0.3c0.2-0.1,0.3-0.2,0.5-0.3c0.2-0.1,0.4-0.2,0.6-0.3c0.1-0.1,0.3-0.2,0.4-0.3
		c0.2-0.1,0.4-0.3,0.6-0.4c0.1-0.1,0.3-0.2,0.4-0.3c0.2-0.2,0.3-0.3,0.5-0.5c0.1-0.1,0.3-0.3,0.4-0.4c0.1-0.2,0.3-0.3,0.4-0.5
		c0.1-0.2,0.3-0.3,0.4-0.5c0.1-0.1,0.2-0.3,0.3-0.4c0.1-0.2,0.2-0.4,0.4-0.6c0.1-0.1,0.2-0.3,0.3-0.4c0.1-0.2,0.2-0.4,0.3-0.6
		c0.1-0.2,0.2-0.3,0.2-0.5c0.1-0.2,0.2-0.4,0.2-0.6c0.1-0.2,0.1-0.3,0.2-0.5c0.1-0.2,0.1-0.4,0.2-0.6c0.1-0.2,0.1-0.4,0.2-0.6
		c0-0.2,0.1-0.3,0.1-0.5c0-0.2,0.1-0.5,0.1-0.7c0-0.2,0-0.3,0-0.5c0-0.3,0-0.5,0-0.8c0-0.1,0-0.1,0-0.2c0-0.1,0-0.2,0-0.4
		c0-0.2,0-0.5,0-0.7c0-0.2-0.1-0.5-0.1-0.7c0-0.1,0-0.3,0-0.4l-53.5-307.6c5.1-2.3,9.9-5.4,14.1-9.1l46.5,19.4l4.7,2
		c47.2,31.2,79.4,80,89.5,135l-13.3,3.2c-4.8,1.2-8.5,5.1-9.4,10C692,492.3,694.1,497.3,698.2,500.1z M531.8,307.2h-27.6h0h-11.9
		c-20.8,0-37.7-16.9-37.7-37.7v-36.6c0-20.8,16.9-37.7,37.7-37.7h39.5c20.8,0,37.7,16.9,37.7,37.7v36.6
		C569.5,290.2,552.6,307.2,531.8,307.2z M587,624.3h-34.5l-19.9-292.1h3.6L587,624.3z M491.5,332.2c-0.4,31.2-2.2,62.6-5.5,93.6
		c-2,18.9-4.5,38-7.5,56.8h-14.9c6.4-26.4,11.3-53.2,14.7-80c3-23.3,4.8-47,5.6-70.5c0.2,0,0.4,0,0.6,0c0.9,0,1.7,0.1,2.6,0.1H491.5
		z M427.8,149.4c4.8-1.1,8.5-4.9,9.4-9.7l0.2-0.8c2.6,4.5,7.7,6.9,12.9,6c2.3-0.4,4.6-0.8,6.9-1.1c5.1-0.8,9.3-4.6,10.4-9.7l4.4-20
		l1.4,3.8c1.6,4.3,5.4,7.4,10,8c4.5,0.7,9.1-1.2,11.8-4.9l6.6-8.8l6.8,19.3c1.7,4.9,6.3,8.2,11.5,8.4c40.3,0.9,79.5,8.1,117,21.4
		l-63.9,21.5c-9.9-8-22.5-12.9-36.3-12.9h-5.1h-39.5h-5.1c-13.7,0-26.4,4.8-36.3,12.9l-63.9-21.5C400.3,156.6,414,152.6,427.8,149.4
		z M292.5,206.5c0-15.2,9.6-28.9,23.9-34.1c4-1.4,8.2-2.2,12.4-2.2c3.9,0,7.8,0.6,11.6,1.9l90.3,30.4c-0.8,3.2-1.1,6.4-1.1,9.7v6.6
		h-51.2c-6.9,0-12.5,5.6-12.5,12.5c0,6.9,5.6,12.5,12.5,12.5h51.2v15.4h-51.2c-6.9,0-12.5,5.6-12.5,12.5c0,6.9,5.6,12.5,12.5,12.5
		h51.2v5.6c0,0.7,0,1.5,0.1,2.2c0.1,2.2,0.4,4.3,0.8,6.5l-6.5,2.7l-36.6,15.2h0l-38.6,16.1c-0.4,0.2-0.8,0.3-1.2,0.4
		c-10.4,3.9-22.2,2.8-31.7-3c-0.2-0.1-0.3-0.2-0.5-0.3c0,0,0,0-0.1,0c-0.6-0.4-1.3-0.8-1.9-1.3l-1.6-1.2l-4.3-3.1
		c-9.3-6.8-14.9-17.8-14.9-29.3V206.5z M868.1,620.4c-1.4,4.7,0,9.7,3.7,13l0.6,0.5c-5.2,0.1-9.8,3.3-11.6,8.1
		c-0.8,2.2-1.6,4.4-2.5,6.6c-1.9,4.8-0.6,10.3,3.2,13.8l15.1,13.8l-4-0.7c-4.5-0.8-9.1,1-11.9,4.6c-2.8,3.6-3.5,8.5-1.6,12.7
		l4.4,10.1l-20.1-3.8c-5.1-1-10.3,1.4-13,5.8c-51.9,85.3-137.2,147.1-234,169.5c-4.8,1.1-8.5,4.9-9.4,9.7l-0.2,0.8
		c-2.6-4.5-7.7-6.9-12.9-6c-2.3,0.4-4.6,0.8-6.9,1.1c-5.1,0.8-9.3,4.6-10.4,9.7l-4.4,20l-1.4-3.8c-1.6-4.3-5.4-7.4-10-8
		c-4.5-0.7-9.1,1.2-11.8,4.9l-6.6,8.8l-6.8-19.3c-1.7-4.9-6.3-8.2-11.5-8.4c-100.9-2.2-194.6-44-263.7-117.9c-2.4-2.6-5.7-4-9.1-4
		c-1.3,0-2.6,0.2-3.9,0.6l-0.9,0.3c2.6-4.5,2.1-10.2-1.2-14.2c-1.5-1.8-2.9-3.6-4.4-5.4c-3.2-4.1-8.6-5.7-13.6-4.1l-19.6,6.2
		l2.6-3.1c2.9-3.5,3.7-8.4,2-12.7c-1.7-4.3-5.6-7.2-10.2-7.8l-10.9-1.3l13.3-15.5c3.4-4,4-9.6,1.5-14.2
		c-30-54.5-45.8-116.5-45.8-179.1c0-36.9,5.4-73.3,16-108.4c1.4-4.7,0-9.7-3.7-13l-0.6-0.5c5.2-0.1,9.8-3.3,11.6-8.1
		c0.8-2.2,1.6-4.4,2.5-6.6c1.9-4.8,0.6-10.3-3.2-13.8l-15.1-13.8l4,0.7c4.5,0.8,9.1-1,11.9-4.6c2.8-3.6,3.5-8.5,1.6-12.7l-4.4-10.1
		l20.1,3.8c5.1,1,10.3-1.4,13-5.8c20-32.9,44.7-62.3,73.7-87.5v63.4c0,3.7,0.3,7.3,1,10.8c2.8,15.4,11.4,29.4,24.3,38.7l4.7,3.4
		l1.3,0.9l0,0c1,0.7,1.9,1.4,2.9,2c0.2,0.1,0.4,0.3,0.6,0.4c1,0.6,2,1.2,3,1.7c0.2,0.1,0.3,0.2,0.5,0.3c1,0.5,1.9,1,2.9,1.5
		c0.1,0.1,0.2,0.1,0.4,0.2c1,0.5,2.1,0.9,3.2,1.4c0.2,0.1,0.4,0.2,0.7,0.3c1.1,0.4,2.2,0.8,3.3,1.1c0.1,0,0.2,0.1,0.3,0.1
		c1.1,0.3,2.1,0.6,3.2,0.9c0.2,0,0.4,0.1,0.6,0.1c1.1,0.3,2.2,0.5,3.3,0.7c0.2,0,0.4,0.1,0.6,0.1c1.1,0.2,2.3,0.4,3.4,0.5
		c0,0,0,0,0.1,0c1.2,0.1,2.3,0.2,3.5,0.3c0.2,0,0.4,0,0.7,0c1,0.1,2.1,0.1,3.1,0.1c0.1,0,0.2,0,0.3,0c0.3,0,0.5,0,0.8,0
		c0.1,0,0.3,0,0.4,0C300.3,402,280,455.5,280,512c0,4.8,0.2,9.9,0.5,15c0.3,4,2.4,7.5,5.5,9.6c-2.7,2.8-3.9,6.7-3.4,10.6
		c0.8,5.5,1.9,11.1,3.1,16.6c1.1,4.6,4.6,8.3,9.2,9.4l11.4,2.8l-6.3,4.2c-4.9,3.2-6.9,9.4-4.8,14.9c1.4,3.8,3,7.5,4.6,11.1
		c1.6,3.5,4.7,6.2,8.5,7.1l0.5,0.1c-1.7,3.6-1.7,7.8,0.4,11.5C350.2,698.4,427.9,744,512,744c99.9,0,188.3-63.6,220-158.2
		c1.4-4.2,0.5-8.7-2.2-11.9c4.1-1.4,7.2-4.8,8.2-9c1.1-4.7,2.1-9.6,2.9-14.5c0.8-4.9-1.3-9.7-5.4-12.5l-12-8l10.9-2.6
		c5.6-1.3,9.5-6.3,9.6-12l0-0.8c0-0.8,0-1.6,0-2.4c0-1.7,0-3.4-0.1-5c-0.1-4.1-2.2-7.9-5.6-10.1l-2.9-1.9c4.5-2.4,7.3-7.4,6.6-12.7
		c-5.8-45.6-25-87.7-54.5-121.8c0.2,0,0.3,0,0.5,0c0.3,0,0.5,0,0.8,0c0.1,0,0.2,0,0.3,0c1,0,2.1,0,3.1-0.1c0.2,0,0.4,0,0.7,0
		c1.2-0.1,2.3-0.2,3.5-0.3l0,0c1.2-0.1,2.3-0.3,3.5-0.5c0.2,0,0.4-0.1,0.6-0.1c1.1-0.2,2.2-0.4,3.4-0.7c0.2,0,0.4-0.1,0.6-0.1
		c1.1-0.3,2.1-0.6,3.2-0.9c0.1,0,0.2-0.1,0.3-0.1c1.1-0.4,2.2-0.7,3.3-1.2c0.2-0.1,0.4-0.2,0.6-0.2c1.1-0.4,2.1-0.9,3.2-1.4
		c0.1-0.1,0.2-0.1,0.4-0.2c1-0.5,2-0.9,2.9-1.5c0.2-0.1,0.3-0.2,0.5-0.3c1-0.6,2-1.1,3-1.7c0.2-0.1,0.4-0.3,0.6-0.4c1-0.6,2-1.3,3-2
		l5.9-4.3c13.8-10.1,22.8-25.5,24.8-42.3c0.3-2.4,0.4-4.8,0.4-7.3v-63.4c9.5,8.3,18.6,17.1,27.3,26.3c3.3,3.6,8.4,4.9,13.1,3.3
		l0.9-0.3c-2.6,4.5-2.1,10.2,1.2,14.2c1.5,1.8,2.9,3.6,4.4,5.4c3.2,4.1,8.6,5.7,13.6,4.1l19.6-6.2l-2.6,3.1c-2.9,3.5-3.7,8.4-2,12.7
		c1.7,4.3,5.6,7.2,10.2,7.8l10.9,1.3l-13.3,15.5c-3.4,4-4,9.6-1.5,14.2c30,54.5,45.8,116.5,45.8,179.1
		C884.2,548.9,878.8,585.3,868.1,620.4z"/>
	<path class="st0" d="M753.8,462.3c0,29.7,24.2,53.9,53.9,53.9c29.7,0,53.9-24.2,53.9-53.9c0-29.7-24.2-53.9-53.9-53.9
		C778,408.4,753.8,432.6,753.8,462.3z M836.6,462.3c0,15.9-13,28.9-28.9,28.9c-15.9,0-28.9-13-28.9-28.9c0-15.9,13-28.9,28.9-28.9
		C823.6,433.4,836.6,446.4,836.6,462.3z"/>
	<path class="st0" d="M268.5,462.3c0-29.7-24.2-53.9-53.9-53.9c-29.7,0-53.9,24.2-53.9,53.9c0,29.7,24.2,53.9,53.9,53.9
		C244.3,516.2,268.5,492.1,268.5,462.3z M214.6,491.2c-15.9,0-28.9-13-28.9-28.9c0-15.9,13-28.9,28.9-28.9c15.9,0,28.9,13,28.9,28.9
		C243.5,478.2,230.5,491.2,214.6,491.2z"/>
	<path class="st0" d="M280,648.2c-29.7,0-53.9,24.2-53.9,53.9c0,29.7,24.2,53.9,53.9,53.9c29.7,0,53.9-24.2,53.9-53.9
		C333.9,672.4,309.7,648.2,280,648.2z M280,731c-15.9,0-28.9-13-28.9-28.9c0-15.9,13-28.9,28.9-28.9c15.9,0,28.9,13,28.9,28.9
		C308.9,718,295.9,731,280,731z"/>
	<path class="st0" d="M546.8,758.2c-29.7,0-53.9,24.2-53.9,53.9c0,29.7,24.2,53.9,53.9,53.9c29.7,0,53.9-24.2,53.9-53.9
		C600.7,782.4,576.5,758.2,546.8,758.2z M546.8,841c-15.9,0-28.9-13-28.9-28.9c0-15.9,13-28.9,28.9-28.9s28.9,13,28.9,28.9
		C575.6,828.1,562.7,841,546.8,841z"/>
	<path class="st0" d="M757,630.8c-29.7,0-53.9,24.2-53.9,53.9c0,29.7,24.2,53.9,53.9,53.9s53.9-24.2,53.9-53.9
		C810.9,654.9,786.7,630.8,757,630.8z M757,713.6c-15.9,0-28.9-13-28.9-28.9s13-28.9,28.9-28.9s28.9,13,28.9,28.9
		S772.9,713.6,757,713.6z"/>
</g>
</svg>
