<?xml version="1.0" encoding="utf-8"?>
<!-- Generator: Adobe Illustrator 25.0.1, SVG Export Plug-In . SVG Version: 6.00 Build 0)  -->
<svg version="1.1" id="Layer_1" xmlns="http://www.w3.org/2000/svg" xmlns:xlink="http://www.w3.org/1999/xlink" x="0px" y="0px"
	 viewBox="0 0 1024 1024" style="enable-background:new 0 0 1024 1024;" xml:space="preserve">
<style type="text/css">
	.st0{fill:#BF0808;}
	.st1{fill:#25333F;}
</style>
<g>
	<path class="st0" d="M158.4,554.4c0,0,7.2,143.8,14.4,151.2c7.2,7.4,114.4,28.8,172.8,21.6s208.8-43.6,273.6-50.4
		s202.2,0.6,216,14.4s35.4-114.8,21.6-144s-165-35.4-194.4-28.8C633,525,396,583.4,360,583.2S165.8,561.8,158.4,554.4z"/>
	<g>
		<path class="st1" d="M862,702.3c0,0,0-0.1,0.1-0.1c0.2-0.6,0.4-1.2,0.5-1.8c9-32,13.7-65.4,13.7-99.6
			c0-97.3-37.9-188.8-106.7-257.6c-36.4-36.4-79.1-64.1-125.6-82.2c0.2-0.9,0.3-1.7,0.3-2.6v-80.3c0-7.8-6.3-14.1-14.1-14.1h-60
			v-55.4c0-27.3-22.2-49.5-49.5-49.5h-17.4c-27.3,0-49.5,22.2-49.5,49.5v55.4h-60c-7.8,0-14.1,6.3-14.1,14.1v80.3
			c0,0.9,0.1,1.8,0.3,2.6c-46.6,18.1-89.3,45.8-125.6,82.2c-68.8,68.8-106.7,160.3-106.7,257.6c0,97.3,37.9,188.8,106.7,257.6
			C323.2,927.1,414.7,965,512,965c97.3,0,188.8-37.9,257.6-106.7C813.8,814.1,845.2,760.6,862,702.3z M481.9,108.5
			c0-11.8,9.6-21.4,21.4-21.4h17.4c11.8,0,21.4,9.6,21.4,21.4v55.4h-60.1V108.5z M407.9,192h208.2v59.4c-33.4-9.9-68.3-15-104.1-15
			c-35.8,0-70.7,5.1-104.1,15V192z M512,264.5c159.4,0,293.2,111.5,327.6,260.6c-99.4-31.7-240.4-29-332.8,8
			c-89.3,35.8-232.1,37.3-325,4.4C211.5,382.2,348.2,264.5,512,264.5z M175.8,600.7c0-11.8,0.6-23.4,1.8-34.9
			c45.2,15.2,101.4,23.5,160.5,23.5c0.3,0,0.6,0,0.9,0c66.9-0.1,130.2-10.8,178.3-30c90.1-36.1,235.5-36.9,328.1-2.4
			c1.9,14.4,2.9,29,2.9,43.9c0,27-3.2,53.3-9.3,78.4C793.1,664.8,737,657.4,679,657.9c-64.6,0.6-125.8,11.2-172.2,29.8
			c-85.9,34.4-223.7,37.1-317.6,6.8C180.5,664.7,175.8,633.2,175.8,600.7z M512,936.9c-140.7,0-261.4-86.9-311.5-209.7
			c40.9,10.8,88.7,16.5,138,16.5c2.8,0,5.5,0,8.3-0.1c64.1-0.8,124.6-11.4,170.4-29.8c85.5-34.3,220.3-37.1,314-7.6
			C786.8,840,660.5,936.9,512,936.9z"/>
		<path class="st1" d="M516.2,643c74.3-22.9,189.6-27.5,280.5-11.3c7.6,1.4,15-3.7,16.3-11.4c1.4-7.6-3.7-15-11.4-16.3
			C706.8,587,586,592,507.9,616.1c-76.4,23.5-194.2,27.8-286.4,10.4c-7.6-1.4-15,3.6-16.4,11.2c-1.4,7.6,3.6,15,11.2,16.4
			c39.4,7.4,83.2,11,126.9,11C406.2,665.2,468.7,657.6,516.2,643z"/>
	</g>
</g>
</svg>
