<?xml version="1.0" encoding="utf-8"?>
<!-- Generator: Adobe Illustrator 25.0.1, SVG Export Plug-In . SVG Version: 6.00 Build 0)  -->
<svg version="1.1" id="Layer_1" xmlns="http://www.w3.org/2000/svg" xmlns:xlink="http://www.w3.org/1999/xlink" x="0px" y="0px"
	 viewBox="0 0 1024 1024" style="enable-background:new 0 0 1024 1024;" xml:space="preserve">
<style type="text/css">
	.st0{fill:#25333F;}
</style>
<g>
	<path class="st0" d="M751.9,440.9c8.9,0,16.2-7.2,16.2-16.2v-68.2c0-8.9-7.2-16.2-16.2-16.2h-79.6c-8.9,0-16.2,7.2-16.2,16.2
		c0,8.9,7.2,16.2,16.2,16.2h63.4v52C735.7,433.7,742.9,440.9,751.9,440.9z"/>
	<path class="st0" d="M725.5,58c-6.3-6.4-16.5-6.4-22.9-0.2c-18,17.7-27.9,41.3-27.9,66.3s9.9,48.6,27.9,66.3
		c11.8,11.6,18.2,27,18.2,43.3c0,16.3-6.5,31.7-18.2,43.3c-6.4,6.3-6.4,16.5-0.2,22.9c3.2,3.2,7.3,4.8,11.5,4.8
		c4.1,0,8.2-1.6,11.4-4.7c18-17.7,27.9-41.3,27.9-66.3c0-25.1-9.9-48.6-27.9-66.3c-11.8-11.6-18.2-27-18.2-43.3
		c0-16.3,6.5-31.7,18.2-43.3C731.7,74.6,731.7,64.4,725.5,58z"/>
	<path class="st0" d="M475.8,791.7c8.9,0,16.2-7.2,16.2-16.2V644.2c0-8.9-7.2-16.2-16.2-16.2H344.5c-8.9,0-16.2,7.2-16.2,16.2v131.3
		c0,8.9,7.2,16.2,16.2,16.2H475.8z M360.7,660.4h99v99h-99V660.4z"/>
	<path class="st0" d="M692.6,909c8.9,0,16.2-7.2,16.2-16.2V644.2c0-8.9-7.2-16.2-16.2-16.2H576.1c-8.9,0-16.2,7.2-16.2,16.2v248.7
		c0,8.9,7.2,16.2,16.2,16.2H692.6z M592.3,660.4h84.1v216.3h-84.1V660.4z"/>
	<path class="st0" d="M99.8,592.2c-8.3,46,6.3,66.4,20,75.4c8,5.3,17.5,7.8,27.7,7.8c18.6,0,39.5-8.5,58-24.5l313.1-250.6
		l320.3,256.4c0.5,0.4,1,0.7,1.5,1.1c20.9,16.5,42.1,21.2,57,12.2c22.4-13.4,16.8-47.2,14.1-63.4c-11.8-71.6-68.3-116.3-70.7-118.1
		c-31.3-24.3-56.8-29.3-79.3-33.7c-21.8-4.3-40.7-7.9-66.3-27.8c-15.2-11.7-20.5-19.9-26.8-29.3c-7.5-11.4-16.1-24.3-39.8-42
		c-18.4-13.7-74.4-55.6-137.3-43.4c-13,2.5-18.4,6-30.5,13.5c-7.4,4.7-18.6,11.7-37.5,22.2c-34,19-54.3,27.8-69.1,34.2
		c-18.3,7.9-30.4,13.2-49.7,28.8c-21.4,17.4-30,30-36.9,40.1c-6.5,9.6-10.9,15.9-25.9,24.9c-16.2,9.7-28,12.8-40.5,16.1
		c-15.9,4.2-32.4,8.5-53.6,25.7C120.9,539.4,104.8,564.4,99.8,592.2z M167.9,543c15.9-12.8,27.2-15.8,41.5-19.6
		c13.5-3.5,28.7-7.5,48.8-19.6c21.2-12.7,28.7-23.8,36-34.5c6.3-9.2,12.8-18.8,30.6-33.2c15.9-12.9,25.3-16.9,42.2-24.3
		c15.4-6.7,36.5-15.8,72-35.6c19.6-10.9,31.2-18.2,38.9-23.1c10.7-6.7,12.4-7.8,19.4-9.1c48.9-9.5,96.3,25.9,111.8,37.5
		c19.2,14.3,25.2,23.4,32.1,33.9c6.8,10.3,14.6,22.1,34,37.1c31.7,24.6,57.3,29.6,80,34c21.7,4.2,40.4,7.9,65.6,27.5
		c0.5,0.4,48.9,38.8,58.7,97.9c3.4,20.7,2.2,27.9,1,30.3c-2.8,0.1-10.8-2.1-21.2-10.7c-0.5-0.4-1-0.8-1.5-1.1L528.7,367.1
		c-5.9-4.7-14.3-4.7-20.2,0L178.9,630.8c-16.8,12.3-33.7,14.9-41.4,9.9c-3.7-2.4-11.6-11.4-5.9-42.7
		C137,567.9,160.3,549.2,167.9,543z"/>
	<path class="st0" d="M243.8,666.5c-8.9,0-16.2,7.2-16.2,16.2v208.9c-37,0.5-74.1,13.7-110.3,39.4c-7.3,5.2-9,15.3-3.9,22.6
		c5.2,7.3,15.3,9,22.6,3.9c31-21.9,62.2-33.2,92.7-33.4c4.7,0,9.1,0.2,13.4,0.6c0,0,0.1,0,0.1,0c16.5,1.7,30.1,6.7,46.5,12.7
		c17.2,6.3,36.7,13.5,63.5,18c27,4.5,41,2.7,60.5,0.1c13.3-1.7,29.9-3.9,56.8-4.8c65.9-2.2,108.5,5.8,142.8,12.2
		c22.5,4.2,42.6,8,63.9,8c19,0,39-3,62.7-11.4c6.1-2.2,11.8-4.4,17.3-6.6c15.8-6.3,30.7-12.3,53.9-14.3c30.7-2.7,62.5,2.6,94.3,15.8
		c8.3,3.4,17.7-0.5,21.1-8.8c3.4-8.3-0.5-17.7-8.8-21.1c-35.9-14.9-71.9-21-107.2-18.3V682.7c0-8.9-7.2-16.2-16.2-16.2
		c-8.9,0-16.2,7.2-16.2,16.2v228.6c-12.6,3.2-23,7.4-33.2,11.5c-5.4,2.2-10.6,4.2-16,6.2c-42,14.8-69,9.7-109.9,2.1
		c-35.8-6.7-80.3-15.1-149.8-12.7c-28.4,1-45.8,3.2-59.8,5c-18.5,2.4-28.7,3.7-51,0c-23.7-3.9-40.9-10.3-57.6-16.4
		c-13-4.8-25.6-9.4-39.9-12.3V682.7C259.9,673.8,252.7,666.5,243.8,666.5z"/>
</g>
</svg>
