<?xml version="1.0" encoding="utf-8"?>
<!-- Generator: Adobe Illustrator 25.0.1, SVG Export Plug-In . SVG Version: 6.00 Build 0)  -->
<svg version="1.1" id="Layer_1" xmlns="http://www.w3.org/2000/svg" xmlns:xlink="http://www.w3.org/1999/xlink" x="0px" y="0px"
	 viewBox="0 0 1024 1024" style="enable-background:new 0 0 1024 1024;" xml:space="preserve">
<style type="text/css">
	.st0{fill:#25333F;}
</style>
<g>
	<path class="st0" d="M326.5,712.4c-54.6,0-99.1,44.4-99.1,99.1c0,54.6,44.4,99.1,99.1,99.1c54.6,0,99.1-44.4,99.1-99.1
		C425.6,756.9,381.2,712.4,326.5,712.4z M326.5,886.8c-41.5,0-75.3-33.8-75.3-75.3c0-41.5,33.8-75.3,75.3-75.3
		c41.5,0,75.3,33.8,75.3,75.3C401.8,853,368,886.8,326.5,886.8z"/>
	<path class="st0" d="M888.5,811.5c0-54.6-44.4-99.1-99.1-99.1c-54.6,0-99.1,44.4-99.1,99.1c0,54.6,44.4,99.1,99.1,99.1
		C844.1,910.6,888.5,866.1,888.5,811.5z M789.5,886.8c-41.5,0-75.3-33.8-75.3-75.3c0-41.5,33.8-75.3,75.3-75.3
		c41.5,0,75.3,33.8,75.3,75.3C864.7,853,831,886.8,789.5,886.8z"/>
	<path class="st0" d="M696.8,577.8c-2-0.1-3.7-1.4-4.5-3.2l-50.6-118.1c-5.1-12-17-19.8-30-19.8H293.1c-20.2,0-43.7,2.5-53.5,20.1
		l-40.8,62c-33.3,59.4-51.6,126.5-39.8,193.5l10,56.4c4.4,24.8,25.9,42.8,51,42.8c0-58.7,47.8-106.5,106.5-106.5
		c58.7,0,106.5,47.8,106.5,106.5h7.7h243.8c0-58.7,47.8-106.5,106.5-106.5c58.7,0,106.5,47.8,106.5,106.5c9.8,0,19.1-4.5,25.2-12.3
		l7.3-9.4c18.1-23.1,27.9-51.5,27.9-80.8v-46c0-19.7-8.5-38.3-23.3-51.2c-38.5-13.6-78.6-22.1-119.3-25.1L696.8,577.8z M934.2,663
		v46c0,21.9-6.8,43.5-19.4,61.5c-17.2-51.9-66.2-89.4-123.8-89.4c-63.7,0-116.9,46-128.2,106.5H454.7
		c-11.2-60.5-64.4-106.5-128.2-106.5c-60.8,0-112.1,41.9-126.4,98.3c-3.9-3.9-6.7-9.1-7.7-14.9l-10-56.4
		c-5.1-28.9-4.2-59.2,2.8-90.3c6.4-28.6,17.8-57.7,33.9-86.7l40.3-61.2l0.5-0.7l0.4-0.8c2-3.6,9.3-7.9,32.7-7.9h318.7
		c3.6,0,6.8,2.1,8.2,5.4L670.5,584c4.3,10,13.7,16.8,24.6,17.6l118.5,8.9c36.9,2.8,73.4,10.2,108.4,22.2
		C929.8,640.8,934.2,651.6,934.2,663z"/>
	<path class="st0" d="M101.9,582.8c-11.3,0-20.4,9.1-20.4,20.4v129.5c0,11.3,9.1,20.4,20.4,20.4h28.6c11.3,0,20.4-9.1,20.4-20.4
		V603.2c0-11.3-9.1-20.4-20.4-20.4H101.9z M127.1,729.3h-21.8V606.6h21.8V729.3z"/>
	<path class="st0" d="M393.9,477H277.7c-5.6,0-10.6,2.8-13.5,7.6l-60.7,98.5c-3,4.9-3.2,11.1-0.3,16.1c2.8,5,8.1,8.2,13.9,8.2h177
		c8.8,0,15.9-7.1,15.9-15.9v-98.5C409.8,484.2,402.7,477,393.9,477z M386,583.5H231.1l51-82.7H386V583.5z"/>
	<path class="st0" d="M614.4,485.3c-2.4-6-8-9.8-14.4-9.8H443.7c-8.5,0-15.5,7-15.5,15.5v99.8c0,8.5,7,15.5,15.5,15.5h195.7
		c5.1,0,9.9-2.5,12.8-6.8c2.9-4.2,3.5-9.6,1.6-14.4L614.4,485.3z M452.1,582.4v-83.1h142.3l32.9,83.1H452.1z"/>
	<path class="st0" d="M76.8,389.5l6.4,0.6c34.4,3.1,70.1,6.4,104.3,11.3c31.3,4.5,68,10.9,102.9,24.5c3.2,1.2,6.7,1.1,9.7-0.5
		c3-1.5,5.3-4.3,6.1-7.6c1.1-4.1,2-8.2,2.9-12.3c24.4,4.2,51.4,9.9,77,19.4c3.2,1.2,6.8,0.9,9.8-0.7c3-1.6,5.2-4.5,6-7.8
		c0.9-4.1,1.8-8.2,2.5-12.3c24.6,4.6,52,10.9,78.5,21.6c3.3,1.3,6.9,1.1,10-0.5c3.1-1.6,5.3-4.6,6.1-8c1.1-5.3,2.1-10.5,2.9-15.7
		c23.4,5.5,51.1,13.4,77.1,26.3c3.3,1.6,7.1,1.6,10.4,0.1c3.3-1.6,5.7-4.6,6.5-8.1c1.5-6.7,2.8-13.4,3.8-20
		c30,9.8,52.7,20.2,72.4,33.2c2,1.3,4.3,2,6.5,2c1.5,0,3-0.3,4.5-0.9c3.6-1.5,6.3-4.7,7.1-8.5c8.7-39.9,9.5-76.3,2.3-111.6
		c10.4-0.7,20.7-1.1,30.6-1.4c3.9-0.1,7.5-2.1,9.7-5.4c2.2-3.3,2.6-7.4,1.1-11c-4.2-10.4-8.7-21-12.9-31.2
		c-4.2-10.1-8.6-20.6-12.8-30.9c-1.8-4.5-6.2-7.4-11-7.4c-0.1,0-0.1,0-0.2,0c-11.7,0.2-23.6,0.7-35.7,1.5c-3.2-7-6.5-14-9.7-20.9
		c-12.9-27.8-26.3-56.5-36.3-85.7c-1.3-3.9-4.6-6.8-8.6-7.8c-4-0.9-8.2,0.3-11.1,3.2c-16.6,16.8-35.1,33.7-56.2,51.5
		c-2.1-5-4.1-10-6.1-14.8c-1.5-3.8-4.9-6.6-8.9-7.3c-4-0.7-8.2,0.6-10.9,3.7c-16.1,17.5-34.4,35.1-55.8,53.3c-1.5-3.3-3-6.5-4.4-9.8
		c-1.7-3.7-5-6.2-9-6.9c-4-0.6-8,0.8-10.7,3.8c-16.1,17.8-34.5,34.8-57.1,53.1c-1-2.1-2-4.3-3-6.5c-1.7-3.6-5-6.1-8.9-6.7
		c-3.9-0.6-7.8,0.7-10.5,3.6c-16.2,17.2-35.3,33.4-59.4,50.5c-1-2.2-1.9-4.5-3-6.7c-1.6-3.5-4.8-6-8.6-6.8
		c-3.8-0.7-7.7,0.4-10.5,3.1c-24.9,24.1-55.4,44.6-90.6,60.8c-34.2,15.9-69.8,26.3-105.8,30.9c-6,0.8-10.5,6-10.4,12
		C66.1,384,70.8,389,76.8,389.5z M689.4,250.7c3.3,7.9,6.6,15.9,9.8,23.6c2.1,5,4.2,10,6.3,15.1c-6.2,0.3-12.5,0.7-18.9,1.1
		c-2-6.5-4.3-13.1-6.9-19.6c-2.6-6.5-5.3-13-8.1-19.5C677.7,251.1,683.6,250.8,689.4,250.7z M192.2,356.5
		c31.8-14.7,60.1-32.8,84.4-53.7c0.5,1.3,1,2.7,1.5,4c1.3,3.4,4,6.1,7.5,7.3c3.5,1.1,7.3,0.6,10.3-1.5c25.3-17.1,45.8-33.3,63.3-50
		c0.7,1.5,1.3,2.9,1.9,4.4c1.5,3.4,4.4,5.9,7.9,6.8c3.6,0.9,7.3,0.1,10.2-2.1c23.5-18.1,42.9-35,59.8-52.2l3.6,7.9
		c1.5,3.4,4.5,5.8,8.1,6.7c3.6,0.8,7.4,0,10.3-2.4c21.7-17.8,40.6-35,57.4-52.1c1.8,4.3,3.7,8.6,5.6,12.9c1.5,3.4,4.5,5.9,8.1,6.8
		c3.6,0.9,7.4,0,10.3-2.4c21.2-17.3,40-33.8,56.9-50.1c9.3,24.2,20.2,47.6,30.8,70.5c9.5,20.4,19.3,41.5,27.5,62.3
		c15.7,39.8,19.8,79.7,12.5,124.3c-21.2-11.9-45.7-21.8-77.2-31.1c-1.1-0.3-2.3-0.5-3.4-0.5c-2.3,0-4.7,0.7-6.7,2
		c-3,2-4.9,5.2-5.2,8.8c-0.5,5.6-1.3,11.2-2.2,16.9c-28.8-12.3-58-19.5-81.2-24.6c-3.3-0.7-6.7,0-9.5,2c-2.7,2-4.5,5-4.9,8.4
		c-0.5,4.2-1,8.5-1.8,12.8c-28.5-10.1-57.1-15.8-81.8-20c-3.2-0.6-6.5,0.2-9.1,2.1c-2.6,1.9-4.3,4.8-4.7,8c-0.4,3.1-0.9,6.2-1.4,9.3
		c-27.6-8.9-55.6-14.1-80-18c-3.1-0.5-6.4,0.3-8.9,2.2c-2.6,1.9-4.3,4.7-4.7,7.9c-0.4,2.9-0.9,5.9-1.5,8.8
		c-33-11.3-66.3-17.1-95.2-21.2c-13.1-1.9-26.4-3.5-39.7-5C165.1,368.2,178.7,362.7,192.2,356.5z"/>
</g>
</svg>
