<?xml version="1.0" encoding="utf-8"?>
<!-- Generator: Adobe Illustrator 25.0.1, SVG Export Plug-In . SVG Version: 6.00 Build 0)  -->
<svg version="1.1" id="Layer_1" xmlns="http://www.w3.org/2000/svg" xmlns:xlink="http://www.w3.org/1999/xlink" x="0px" y="0px"
	 viewBox="0 0 1024 1024" style="enable-background:new 0 0 1024 1024;" xml:space="preserve">
<style type="text/css">
	.st0{fill:#25333F;}
</style>
<path class="st0" d="M913.4,332.7c-4.2-11-10.6-27.6-21.4-60c-11.7-34.9-22.5-70.3-32.3-105.1c-1.9-6.7-8.8-10.8-15.6-9.1
	c-54.1,13.2-98.5,36.7-135.5,71.7c-20.1,19-32.1,36.2-44.7,54.4c-11.7,16.9-23.8,34.3-44.2,56.2c-8.6,9.2-17.7,18.2-27.2,26.7
	c-2.3-1.6-4.9-2.9-7.7-3.8c-23.2-7.6-47.3-11.5-71.6-11.6c-25.1-0.1-50,3.8-74,11.6c-2.8,0.9-5.4,2.2-7.7,3.8
	c-9.5-8.5-18.6-17.5-27.2-26.7c-20.4-21.9-32.5-39.3-44.2-56.2c-12.6-18.2-24.6-35.4-44.7-54.4c-37.1-35-81.4-58.5-135.5-71.7
	c-6.8-1.7-13.7,2.4-15.6,9.1c-9.8,34.8-20.6,70.1-32.3,105.1c-10.8,32.4-17.2,49-21.4,60c-5.2,13.4-7.7,20.2-11.7,37.1
	C85.4,428.2,84.4,485.1,96,539c1.8,8.3,3.5,14.8,5.3,20c1.6,4.7,5.7,8,10.6,8.7c21.7,2.9,43.4,4.3,65.1,4.3
	c33.6,0,67.1-3.5,100.2-10.4c34.4-7.2,67.6-18,99.5-32.3c-8.3,17-17.5,33.5-27.6,49.4c-20.9,32.9-39.1,53.6-56.8,73.6
	c-18.6,21-36.1,40.9-52.8,71.3c-24.6,44.7-38.3,96.8-41,154.9c-0.2,5.5,3,10.5,8.1,12.6c5.1,2.1,10.9,0.7,14.6-3.4
	c10.5-11.8,22.7-21.8,36.3-29.7c6.8-4,13.9-7.4,21.3-10.3c0.8,9.7,2.5,19.2,5.1,28.5c6.8,24.8,19.7,48.1,37.5,67.4
	c2.5,2.7,6,4.2,9.6,4.2c1.6,0,3.2-0.3,4.8-0.9c5-2,8.3-6.8,8.2-12.2c-0.6-61.8,10.2-119.4,32-171.2c12.1-28.7,24.3-47.8,38.4-70
	c11-17.3,23.5-36.9,37.8-64.1c19.5-36.9,36-76,49.3-116.2c1.7,0,3.5,0.1,5.2,0.1c1.8,0,3.6,0,5.4,0c3.6,0,7.2,0,10.7-0.1
	c13.3,40.2,29.8,79.3,49.3,116.2c14.3,27.2,26.8,46.8,37.8,64.1c14.1,22.2,26.3,41.3,38.4,70c21.9,51.8,32.6,109.4,32,171.2
	c-0.1,5.4,3.2,10.2,8.2,12.2c1.6,0.6,3.2,0.9,4.8,0.9c3.6,0,7.1-1.5,9.6-4.2c17.7-19.4,30.7-42.7,37.5-67.4
	c2.6-9.3,4.3-18.9,5.1-28.5c7.3,2.9,14.5,6.3,21.3,10.3c13.6,8,25.8,18,36.3,29.7c3.7,4.1,9.5,5.5,14.6,3.4
	c5.1-2.1,8.3-7.1,8.1-12.6c-2.6-58-16.4-110.1-41-154.9c-16.7-30.4-34.2-50.2-52.8-71.3c-17.7-20-35.9-40.7-56.8-73.6
	c-10.1-15.9-19.3-32.4-27.6-49.4c31.9,14.3,65.1,25.1,99.5,32.3c33.1,6.9,66.6,10.4,100.2,10.4c21.7,0,43.4-1.4,65.1-4.3
	c4.9-0.7,9-4,10.6-8.7c1.8-5.2,3.5-11.7,5.3-20c11.6-53.9,10.6-110.9-2.9-169.2C921.2,352.9,918.6,346.1,913.4,332.7z M271.8,536.2
	c-48.7,10.2-98.5,12.5-148.2,6.8c-0.7-2.8-1.5-5.9-2.2-9.4c-10.8-50.2-9.8-103.3,2.8-157.9c3.5-15.2,5.7-21,10.6-33.6
	c4.3-11.2,10.8-28.2,21.8-61.1c10.4-31.2,20.2-62.8,29.2-94c58.5,16.6,91.6,43.1,111.7,62.2c18.1,17.1,28.8,32.5,41.2,50.3
	c11.7,16.8,24.9,35.8,46.6,59.1c10.5,11.2,21.7,22.1,33.3,32.3c0,0.4,0,0.9,0,1.3v0v0v85.7c-0.2,0.1-0.4,0.2-0.6,0.3
	c-2.3,1.4-4.7,2.8-7.1,4.2c-1.5,0.9-3,1.7-4.4,2.5c-1.1,0.6-2.1,1.2-3.2,1.8c-1.7,1-3.4,1.9-5.2,2.9
	C358.5,511.3,316.1,526.9,271.8,536.2z M429.1,617.2c-13.8,26.2-26,45.4-36.7,62.3c-14.7,23.1-27.4,43.1-40.4,73.8
	c-18.5,43.8-29.5,91.4-32.9,141.9c-4.3-8.3-7.7-17-10.1-26c-3.5-12.7-5.1-25.8-4.7-39.1c0.1-4.1-1.7-8-5-10.5
	c-2.3-1.8-5.1-2.8-8-2.8c-1.1,0-2.3,0.1-3.4,0.4c-15.2,4.1-29.9,10.3-43.5,18.2c-5.9,3.5-11.6,7.2-17,11.3
	c5.3-40.9,17-78.1,35-110.8c15.3-27.8,31.1-45.8,49.5-66.6c17.5-19.8,37.3-42.3,59.3-76.9c16.4-25.8,30.7-53.3,42.5-81.7
	c0.9-0.5,1.8-1,2.8-1.6c1.6-0.9,3.3-1.8,4.9-2.8c2.6-1.5,5.1-3,7.7-4.5c0.1,0.1,0.3,0.2,0.4,0.4c0.4,0.3,0.7,0.6,1.1,0.9
	c0.2,0.2,0.5,0.3,0.7,0.5c1.4,1,2.8,1.8,4.4,2.6c0.3,0.2,0.7,0.3,1,0.5c0.4,0.2,0.8,0.3,1.2,0.5c0.4,0.2,0.8,0.3,1.2,0.4
	c0.4,0.1,0.7,0.2,1.1,0.4c0.5,0.1,1,0.3,1.5,0.4c0.3,0.1,0.6,0.2,0.9,0.2c0.8,0.2,1.7,0.3,2.5,0.4c0.1,0,0.2,0,0.3,0
	c2.4,0.3,4.7,0.6,7.1,0.8c1.4,0.2,2.8,0.3,4.2,0.4c1.1,0.1,2.1,0.2,3.2,0.3c1.7,0.2,3.4,0.3,5.1,0.4c0.8,0.1,1.6,0.1,2.4,0.2
	c1.8,0.1,3.6,0.3,5.4,0.4c0.6,0,1.2,0.1,1.8,0.1C461.9,548.4,446.7,583.7,429.1,617.2z M542.3,486.4c-3.5,0.2-6.9,0.4-10.4,0.5
	c-8.4,0.3-16.8,0.4-25.1,0.4c-4.7,0-9.5-0.2-14.3-0.3l-0.1,0c-3.5-0.1-7-0.3-10.5-0.5c-0.5,0-0.9-0.1-1.4-0.1
	c-6.8-0.4-13.6-0.9-20.4-1.6c-0.7-0.1-1.4-0.1-2.2-0.2c-3.3-0.3-6.6-0.7-9.9-1.1c0,0,0,0,0,0c-0.2,0-0.4-0.1-0.6-0.1
	c-0.1,0-0.2-0.1-0.2-0.1c-0.1,0-0.2-0.1-0.4-0.2c-0.1,0-0.2-0.1-0.3-0.1c-0.1-0.1-0.2-0.1-0.3-0.2c-0.1-0.1-0.2-0.1-0.3-0.2l0,0
	c-0.3-0.2-0.5-0.5-0.7-0.7c0,0,0-0.1-0.1-0.1c-0.1-0.1-0.2-0.3-0.2-0.4c0,0,0-0.1-0.1-0.1c-0.1-0.1-0.1-0.3-0.2-0.5c0,0,0-0.1,0-0.1
	c0-0.2-0.1-0.3-0.1-0.5l0-0.1c0,0,0-0.1,0-0.1l0,0c0,0,0,0,0,0c0-0.2,0-0.3,0-0.5v-87.3c0-0.2,0-0.5,0.1-0.7c0,0,0,0,0-0.1
	c0-0.2,0.1-0.4,0.2-0.7c0.4-1.1,1.3-1.9,2.4-2.3c21-6.9,42.7-10.3,64.7-10.3c0.4,0,0.7,0,1.1,0c21.6,0.1,43,3.6,63.6,10.3
	c1.1,0.4,2,1.2,2.4,2.3v0c0.1,0.2,0.2,0.5,0.2,0.7c0,0,0,0,0,0.1c0,0.2,0.1,0.5,0.1,0.7v87.3c0,0.2,0,0.3,0,0.5c0,0,0,0.1,0,0.2
	c0,0.2-0.1,0.3-0.1,0.5c0,0,0,0.1,0,0.1c-0.1,0.2-0.1,0.3-0.2,0.5c0,0,0,0.1-0.1,0.1c-0.1,0.1-0.2,0.3-0.2,0.4c0,0,0,0.1-0.1,0.1
	c-0.2,0.3-0.4,0.5-0.7,0.8l0,0c-0.1,0.1-0.2,0.1-0.3,0.2c-0.1,0.1-0.2,0.1-0.3,0.2c-0.1,0.1-0.2,0.1-0.3,0.1
	c-0.1,0.1-0.2,0.1-0.4,0.2c-0.1,0-0.1,0.1-0.2,0.1c-0.2,0.1-0.4,0.1-0.6,0.1c-0.1,0-0.1,0-0.2,0c-3.3,0.4-6.5,0.7-9.8,1.1
	c-1,0.1-2,0.2-3,0.3c-2.5,0.2-5,0.5-7.5,0.7c-1,0.1-2,0.2-3,0.2c-2.8,0.2-5.6,0.4-8.4,0.6C543.5,486.3,542.9,486.3,542.3,486.4z
	 M653,592.6c22,34.7,41.8,57.1,59.3,76.9c18.3,20.8,34.2,38.7,49.5,66.6c18,32.7,29.7,69.9,35,110.8c-5.4-4.1-11.1-7.9-17-11.3
	c-13.6-8-28.2-14.1-43.5-18.2c-4-1.1-8.2-0.2-11.4,2.3c-3.2,2.5-5.1,6.4-5,10.5c0.3,13.3-1.3,26.5-4.7,39.1
	c-2.4,8.9-5.9,17.6-10.1,26c-3.4-50.5-14.5-98.1-32.9-141.9c-13-30.7-25.7-50.7-40.4-73.8c-10.7-16.9-22.9-36-36.7-62.3
	c-17.7-33.5-32.9-68.9-45.3-105.3c0.7,0,1.3-0.1,2-0.1c1.3-0.1,2.6-0.2,3.9-0.3c1.4-0.1,2.8-0.2,4.2-0.3c1.2-0.1,2.4-0.2,3.6-0.3
	c1.6-0.2,3.3-0.3,4.9-0.5c1-0.1,1.9-0.2,2.9-0.3c2.6-0.3,5.2-0.6,7.8-0.9l0,0c0.9-0.1,1.7-0.3,2.5-0.4c0.3-0.1,0.6-0.1,0.9-0.2
	c0.5-0.1,1-0.3,1.5-0.4c0.4-0.1,0.7-0.2,1.1-0.3c0.4-0.1,0.8-0.3,1.2-0.4c0.4-0.2,0.8-0.3,1.2-0.5c0.3-0.2,0.7-0.3,1-0.5
	c1.5-0.7,3-1.6,4.4-2.6c0.2-0.2,0.5-0.3,0.7-0.5c0.4-0.3,0.8-0.6,1.1-0.9c0.1-0.1,0.3-0.2,0.4-0.4c2.5,1.5,5.1,3,7.7,4.5
	c1.6,0.9,3.3,1.8,4.9,2.8c0.9,0.5,1.8,1.1,2.8,1.6C622.4,539.3,636.7,566.7,653,592.6z M902.6,533.6c-0.7,3.5-1.5,6.6-2.2,9.4
	c-49.6,5.7-99.4,3.4-148.2-6.8c-44.3-9.3-86.7-24.9-126.4-46.6c-1.7-0.9-3.5-1.9-5.2-2.9c-1.1-0.6-2.1-1.2-3.2-1.8
	c-1.5-0.8-3-1.7-4.4-2.5c-2.4-1.4-4.7-2.8-7.1-4.2c-0.2-0.1-0.4-0.2-0.6-0.3v-85.7v0l0,0c0-0.4,0-0.9,0-1.3
	c11.6-10.2,22.8-21.1,33.3-32.3c21.7-23.2,34.9-42.3,46.6-59.1c12.4-17.8,23.1-33.2,41.2-50.3c20.1-19,53.2-45.6,111.7-62.2
	c8.9,31.2,18.7,62.8,29.2,94c11,32.9,17.5,49.9,21.8,61.1c4.9,12.7,7.1,18.5,10.6,33.6C912.4,430.3,913.4,483.4,902.6,533.6z"/>
</svg>
