<?xml version="1.0" encoding="utf-8"?>
<!-- Generator: Adobe Illustrator 25.0.1, SVG Export Plug-In . SVG Version: 6.00 Build 0)  -->
<svg version="1.1" id="Layer_1" xmlns="http://www.w3.org/2000/svg" xmlns:xlink="http://www.w3.org/1999/xlink" x="0px" y="0px"
	 viewBox="0 0 1024 1024" style="enable-background:new 0 0 1024 1024;" xml:space="preserve">
<style type="text/css">
	.st0{fill:#25333F;}
</style>
<g>
	<path class="st0" d="M153.4,941.9c3.2,7,11.5,10,18.4,6.8c54.4-25,109.5-44,165-56.9c0.8-0.2,1.6-0.4,2.4-0.5
		c2.7-0.6,5.3-1.2,8-1.8c0.9-0.2,1.9-0.4,2.8-0.6c2.5-0.5,4.9-1,7.4-1.5c1.2-0.2,2.4-0.5,3.6-0.7c2.2-0.4,4.4-0.9,6.6-1.3
		c1.6-0.3,3.1-0.6,4.7-0.9c1.9-0.3,3.7-0.7,5.6-1c1.9-0.3,3.9-0.7,5.8-1c1.5-0.3,3-0.5,4.5-0.8c2.3-0.4,4.6-0.7,6.9-1.1
		c1.2-0.2,2.3-0.4,3.5-0.5c2.7-0.4,5.3-0.8,8-1.2c0.8-0.1,1.7-0.2,2.5-0.4c3-0.4,5.9-0.8,8.9-1.2c0.6-0.1,1.2-0.1,1.8-0.2
		c3.2-0.4,6.4-0.8,9.6-1.1c0.4,0,0.8-0.1,1.2-0.1c3.3-0.4,6.7-0.7,10-1c0.3,0,0.5-0.1,0.8-0.1c3.4-0.3,6.8-0.6,10.2-0.9
		c0.2,0,0.5,0,0.7-0.1c3.4-0.3,6.7-0.5,10.1-0.7c0.3,0,0.5,0,0.8-0.1c3.3-0.2,6.5-0.4,9.8-0.6c0.4,0,0.8,0,1.2-0.1
		c3.1-0.2,6.2-0.3,9.3-0.4c0.5,0,1.1,0,1.6-0.1c3-0.1,6-0.2,8.9-0.3c0.6,0,1.3,0,1.9-0.1c3.6-0.1,7.2-0.1,10.8-0.2c3,0,6,0,9,0
		c1.4,0,2.8,0,4.3,0c2.6,0,5.1,0.1,7.7,0.1c1.1,0,2.2,0,3.2,0.1c3.1,0.1,6.2,0.2,9.3,0.3c0.6,0,1.1,0,1.7,0.1
		c23,0.9,46.1,2.9,69.1,5.9c0,0,0.1,0,0.1,0c3.6,0.5,7.3,1,10.9,1.5c0.7,0.1,1.3,0.2,2,0.3c3,0.4,5.9,0.9,8.9,1.4
		c1.2,0.2,2.3,0.4,3.4,0.6c2.4,0.4,4.9,0.8,7.3,1.2c1.6,0.3,3.1,0.5,4.7,0.8c2,0.4,3.9,0.7,5.9,1.1c1.9,0.4,3.9,0.7,5.8,1.1
		c1.6,0.3,3.1,0.6,4.7,0.9c2.3,0.5,4.5,0.9,6.8,1.4c1.2,0.3,2.4,0.5,3.6,0.8c2.5,0.5,5.1,1.1,7.6,1.7c0.9,0.2,1.8,0.4,2.7,0.6
		c56.1,12.9,111.9,32.1,167,57.4c1.9,0.9,3.9,1.3,5.8,1.3c5.3,0,10.3-3,12.6-8.1c3.2-7,0.2-15.2-6.8-18.4
		c-38.3-17.6-77-32.4-115.9-44.2c5.9-10.7,5.8-23.4-0.4-34.3L721,799.4c3.7-2.4,7-5.6,9.6-9.4c7.3-10.8,7.8-24.4,1.3-35.7L703.5,705
		c3-2.3,5.6-5.2,7.6-8.6c6.1-10,6.2-22.1,0.3-32.3l-30.5-52.9c2.2-2,4.2-4.3,5.8-7c5.5-9.2,5.5-20.3,0.1-29.6l-29.4-51
		c4.5-1.9,8.6-5,11.7-9.2c6.7-9,7.4-20.7,1.8-30.5L524,229.6c-2.5-4.3-7.1-6.9-12-6.9c-5,0-9.5,2.6-12,6.9L353.1,484.1
		c-5.6,9.8-5,21.5,1.8,30.5c3.1,4.2,7.2,7.3,11.8,9.2l-29.5,51c-5.4,9.3-5.3,20.4,0.1,29.6c1.6,2.7,3.5,5,5.8,7l-30.5,52.9
		c-5.9,10.2-5.8,22.2,0.3,32.2c2,3.4,4.6,6.2,7.6,8.6L292,754.2c-6.5,11.3-6,25,1.3,35.7c2.6,3.8,5.9,7,9.6,9.4L276.6,845
		c-6.3,10.9-6.3,23.6-0.4,34.3c-38.9,11.8-77.6,26.5-115.9,44.2C153.3,926.7,150.2,934.9,153.4,941.9z M300.6,858.9l35.4-61.4
		c2.7-4.6,2.5-10.4-0.6-14.8c-3-4.4-8.3-6.7-13.5-5.9c-3.2,0.5-5-1.6-5.7-2.5c-0.8-1.1-1.8-3.4-0.2-6.2l36.6-63.4
		c2.5-4.4,2.5-9.8-0.2-14.2c-2.6-4.3-7.4-6.9-12.5-6.7c-2,0.1-3.1-1.5-3.4-2c-0.8-1.3-0.8-2.6,0-3.9l38.3-66.3
		c2.5-4.3,2.5-9.7-0.1-14c-2.6-4.3-7.3-6.9-12.3-6.8c-0.8,0-1.2-0.6-1.3-0.8c-0.4-0.7-0.2-1.1,0-1.5l41.9-72.5
		c2.7-4.8,2.4-10.7-0.8-15.1c-3.2-4.4-8.8-6.6-14.2-5.4c-4.1,0.9-7.6,1.7-10.9,2.4c0,0-0.1,0-0.1,0c0,0,0,0,0-0.1l0,0L512,264.4
		l134.9,233.6c0,0,0,0,0,0c0,0,0,0,0,0.1c0,0,0,0-0.1,0c-3.2-0.8-6.8-1.6-10.9-2.4c-5.4-1.2-10.9,1-14.2,5.4
		c-3.2,4.4-3.5,10.4-0.8,15.1l41.9,72.5c0.2,0.4,0.4,0.9,0,1.5c-0.1,0.2-0.6,0.9-1.3,0.8c-5-0.1-9.7,2.5-12.3,6.8
		c-2.6,4.3-2.6,9.7-0.1,14l38.3,66.3c0.8,1.3,0.8,2.6,0,3.9c-0.3,0.5-1.4,2.1-3.4,1.9c-5-0.2-9.9,2.3-12.5,6.6
		c-2.6,4.3-2.7,9.8-0.2,14.2l36.6,63.4c1.6,2.8,0.6,5.1-0.2,6.2c-0.6,0.9-2.4,3-5.6,2.5c-5.3-0.8-10.5,1.5-13.6,5.9
		c-3,4.4-3.2,10.2-0.6,14.8l35.4,61.4c2.2,3.8,0.4,6.8-0.5,8c-0.9,1.2-3.3,3.8-7.6,2.8c-5.6-1.3-11.4-2.6-17.2-3.9
		c-1.8-0.4-3.6-0.8-5.5-1.3c-1.5-0.3-3-0.7-4.5-1c-2.1-0.5-4.2-0.9-6.3-1.4c-1.7-0.4-3.4-0.7-5.1-1.1c-1.9-0.4-3.7-0.8-5.6-1.1
		c-2-0.4-4-0.8-6-1.2c-1.6-0.3-3.1-0.6-4.7-0.9c-2.3-0.4-4.7-0.9-7-1.3c-1.3-0.2-2.5-0.5-3.8-0.7c-2.7-0.5-5.4-0.9-8-1.4
		c-1-0.2-2-0.3-2.9-0.5c-3-0.5-6-0.9-9-1.4c-0.7-0.1-1.4-0.2-2.2-0.3c-3.2-0.5-6.5-0.9-9.7-1.4c-0.5-0.1-1-0.1-1.5-0.2
		c-3.5-0.5-6.9-0.9-10.4-1.3c-0.3,0-0.7-0.1-1-0.1c-3.6-0.4-7.2-0.8-10.8-1.2c-0.2,0-0.4,0-0.7-0.1c-3.7-0.4-7.4-0.7-11.1-1.1
		c-0.2,0-0.3,0-0.5,0c-3.7-0.3-7.4-0.6-11.1-0.9c-0.2,0-0.4,0-0.5,0c-3.7-0.3-7.3-0.5-11-0.7c-0.2,0-0.5,0-0.7,0
		c-3.6-0.2-7.1-0.4-10.7-0.6c-0.3,0-0.7,0-1,0c-3.4-0.2-6.9-0.3-10.3-0.4c-0.4,0-0.9,0-1.3,0c-3.4-0.1-6.8-0.2-10.2-0.2
		c-0.5,0-0.9,0-1.4,0c-3.8-0.1-7.6-0.1-11.5-0.1c0,0,0,0,0,0c0,0,0,0,0,0c-1.8,0-3.7,0-5.5,0c-3.7,0-7.4,0.1-11.2,0.2
		c-0.7,0-1.4,0-2.1,0.1c-3.1,0.1-6.1,0.2-9.2,0.3c-0.5,0-1.1,0-1.6,0.1c-3.2,0.1-6.5,0.3-9.7,0.4c-0.4,0-0.7,0-1.1,0.1
		c-3.4,0.2-6.9,0.4-10.3,0.6c-0.2,0-0.4,0-0.7,0c-3.6,0.2-7.1,0.5-10.7,0.8c-0.1,0-0.3,0-0.4,0c-3.6,0.3-7.2,0.6-10.9,0.9
		c-0.1,0-0.3,0-0.4,0c-3.6,0.3-7.2,0.7-10.8,1.1c-0.3,0-0.5,0.1-0.8,0.1c-3.5,0.4-6.9,0.8-10.4,1.2c-0.4,0.1-0.8,0.1-1.3,0.2
		c-3.3,0.4-6.5,0.8-9.8,1.3c-0.7,0.1-1.3,0.2-2,0.3c-3,0.4-6,0.8-8.9,1.3c-1,0.1-1.9,0.3-2.9,0.4c-2.6,0.4-5.3,0.8-7.9,1.3
		c-1.3,0.2-2.6,0.4-3.9,0.6c-2.3,0.4-4.6,0.8-6.8,1.2c-1.6,0.3-3.3,0.6-4.9,0.9c-1.9,0.4-3.8,0.7-5.7,1.1c-2,0.4-3.9,0.8-5.9,1.2
		c-1.6,0.3-3.1,0.6-4.7,0.9c-2.2,0.5-4.5,0.9-6.7,1.4c-1.3,0.3-2.6,0.6-3.9,0.8c-2.4,0.5-4.9,1.1-7.3,1.6c-1.1,0.3-2.3,0.5-3.4,0.8
		c-1.5,0.4-3,0.7-4.6,1.1c-5.7,1.2-11.4,2.5-16.9,3.8c-4.3,1-6.7-1.6-7.6-2.8C300.2,865.7,298.5,862.6,300.6,858.9z"/>
	<path class="st0" d="M500.2,438.8c31.5,31.9,68.6,41.5,87.8,44.4c0.7,0.1,1.4,0.2,2.1,0.2c6.8,0,12.7-4.9,13.7-11.8
		c1.1-7.6-4.1-14.7-11.7-15.8c-15.9-2.4-46.4-10.3-72.2-36.4c-20.2-20.4-29-43.3-32.9-58.9c-1.9-7.4-9.4-12-16.8-10.1
		c-7.4,1.9-12,9.4-10.1,16.8C464.8,386,475.6,413.9,500.2,438.8z"/>
	<path class="st0" d="M402,675.2c1,0,2-0.1,3-0.3c34.9-7.6,68.5-23,97.1-44.4c27.7-20.8,51.3-47.8,68.3-78.2
		c3.7-6.7,1.3-15.2-5.4-18.9c-6.7-3.7-15.2-1.3-18.9,5.4c-15.1,26.9-36,51-60.7,69.5c-25.4,19.1-55.2,32.7-86.3,39.5
		c-7.5,1.6-12.3,9-10.6,16.5C389.9,670.8,395.6,675.2,402,675.2z"/>
	<path class="st0" d="M566.6,769.7c-42.8-24.3-67.6-59.4-80.8-84.5c-3.6-6.8-12-9.4-18.8-5.8c-6.8,3.6-9.4,12-5.8,18.8
		c15,28.4,43,68.1,91.7,95.7c21.5,12.2,44.9,20.8,69.5,25.6c0.9,0.2,1.8,0.3,2.7,0.3c6.5,0,12.3-4.6,13.6-11.2
		c1.5-7.5-3.4-14.8-11-16.3C606.1,788,585.5,780.4,566.6,769.7z"/>
	<path class="st0" d="M456.2,559.4c17.2,0,31.3-14,31.3-31.3c0-7.7-6.2-13.9-13.9-13.9c-7.7,0-13.9,6.2-13.9,13.9
		c0,1.9-1.6,3.5-3.5,3.5c-1.9,0-3.5-1.6-3.5-3.5c0-7.7-6.2-13.9-13.9-13.9c-7.7,0-13.9,6.2-13.9,13.9
		C424.9,545.4,438.9,559.4,456.2,559.4z"/>
	<path class="st0" d="M599.1,651.5c-1.9,0-3.5-1.6-3.5-3.5c0-7.7-6.2-13.9-13.9-13.9s-13.9,6.2-13.9,13.9c0,17.2,14,31.3,31.3,31.3
		s31.3-14,31.3-31.3c0-7.7-6.2-13.9-13.9-13.9c-7.7,0-13.9,6.2-13.9,13.9C602.6,650,601,651.5,599.1,651.5z"/>
	<path class="st0" d="M402.1,814.8c17.2,0,31.3-14,31.3-31.3c0-7.7-6.2-13.9-13.9-13.9c-7.7,0-13.9,6.2-13.9,13.9
		c0,1.9-1.6,3.5-3.5,3.5c-1.9,0-3.5-1.6-3.5-3.5c0-7.7-6.2-13.9-13.9-13.9c-7.7,0-13.9,6.2-13.9,13.9
		C370.8,800.8,384.8,814.8,402.1,814.8z"/>
	<path class="st0" d="M587.2,123.9c-11.9-7.9-27.1-10.7-39.5-12.8c-6.9-11.9-14.9-24.4-26.2-33.8c-5.2-4.3-12.7-4.3-17.8,0
		c-11.2,9.4-19.2,22.8-25.6,34.5c-12.8,2.6-27.2,5.6-39,13.6c-5.8,3.9-7.8,11.6-4.7,17.8c6.7,13.1,15.7,24.6,24.2,34.4
		c-0.9,12.2-0.6,25,0.8,38.1c0.5,4.2,2.8,8,6.4,10.2c2.2,1.4,4.8,2.1,7.4,2.1c1.5,0,3.1-0.3,4.6-0.8c3.9-1.4,7.9-2.7,11.8-4
		c8-2.7,16.1-5.4,24.3-8.6c6.8,2.5,13.6,4.6,20.2,6.7c5.3,1.7,10.7,3.4,16,5.2c4.1,1.4,8.6,0.9,12.2-1.5c3.6-2.4,5.9-6.3,6.2-10.7
		c0.9-14,0.9-26.5-0.2-38.1c8.4-10.1,17.1-21.8,23.4-34.8C595,135.2,592.9,127.7,587.2,123.9z M543.5,162.9c-2.5,3-3.7,6.9-3.2,10.8
		c0.8,6.5,1.3,13.5,1.3,20.9c-7.8-2.5-15.3-4.9-22.7-7.7c-3.3-1.3-7-1.2-10.3,0.1c-7.4,3-14.9,5.6-22.6,8.2
		c-0.1-7.2,0.1-14.2,0.9-20.9c0.4-3.9-0.9-7.8-3.5-10.7c-5.5-6.1-11.4-13-16.6-20.5c5.9-1.8,12.3-3.1,18.3-4.3c1.7-0.3,3.4-0.7,5-1
		c4-0.8,7.5-3.4,9.4-7l0.7-1.2c3.8-7.1,7.9-14.7,12.7-21.2c5.2,6.8,9.8,14.8,14,22.2c2,3.6,5.5,6,9.5,6.8c1.9,0.3,3.8,0.7,5.7,1
		c5.8,1,12,2.1,17.6,3.7C554.7,149.5,548.9,156.6,543.5,162.9z"/>
</g>
</svg>
