<?xml version="1.0" encoding="utf-8"?>
<!-- Generator: Adobe Illustrator 25.0.1, SVG Export Plug-In . SVG Version: 6.00 Build 0)  -->
<svg version="1.1" id="Layer_1" xmlns="http://www.w3.org/2000/svg" xmlns:xlink="http://www.w3.org/1999/xlink" x="0px" y="0px"
	 viewBox="0 0 1024 1024" style="enable-background:new 0 0 1024 1024;" xml:space="preserve">
<style type="text/css">
	.st0{fill:#25333F;}
</style>
<path class="st0" d="M898.2,289c-4.1-7-13-9.4-20-5.4l-86,49.6l14.3-53.2c2.1-7.8-2.5-15.9-10.4-18c-7.8-2.1-15.9,2.6-18,10.4
	L756.3,354l-109.9,63.5l2.7-117.2c0.1-5.4-2.7-10.4-7.3-13.1c-4.6-2.7-10.4-2.6-15,0.2l-100.1,60.9V221.5l59.7-59.7
	c5.7-5.7,5.7-15,0-20.8c-5.7-5.7-15-5.7-20.8,0L526.7,180V80.7c0-8.1-6.6-14.7-14.7-14.7c-8.1,0-14.7,6.6-14.7,14.7V180L458.4,141
	c-5.7-5.7-15-5.7-20.8,0c-5.7,5.7-5.7,15,0,20.8l59.7,59.7v126.9l-100.1-60.9c-4.6-2.8-10.3-2.9-15-0.2c-4.6,2.7-7.5,7.7-7.3,13.1
	l2.7,117.2L267.7,354l-21.9-81.5c-2.1-7.8-10.1-12.5-18-10.4c-7.8,2.1-12.5,10.1-10.4,18l14.3,53.2l-86-49.6c-7-4.1-16-1.6-20,5.4
	c-4.1,7-1.6,16,5.4,20l86,49.6l-53.2,14.3c-7.8,2.1-12.5,10.1-10.4,18c1.8,6.6,7.7,10.9,14.2,10.9c1.3,0,2.5-0.2,3.8-0.5l81.5-21.8
	L363,442.9l-102.8,56.2c-4.7,2.6-7.6,7.5-7.6,12.9c0,5.4,2.9,10.3,7.6,12.9L363,581.1l-109.9,63.5l-81.5-21.9
	c-7.8-2.1-15.9,2.5-18,10.4c-2.1,7.8,2.6,15.9,10.4,18l53.2,14.3l-86,49.6c-7,4.1-9.4,13-5.4,20.1c2.7,4.7,7.6,7.3,12.7,7.3
	c2.5,0,5-0.6,7.3-2l86-49.6l-14.3,53.2c-2.1,7.8,2.5,15.9,10.4,18c1.3,0.3,2.5,0.5,3.8,0.5c6.5,0,12.4-4.3,14.2-10.9l21.9-81.5
	l109.9-63.5l-2.7,117.2c-0.1,5.4,2.7,10.4,7.3,13.1c4.6,2.7,10.4,2.6,15-0.2l100.1-60.9v126.9l-59.7,59.7c-5.7,5.7-5.7,15,0,20.8
	c2.9,2.9,6.6,4.3,10.4,4.3c3.8,0,7.5-1.4,10.4-4.3l38.9-38.9v99.3c0,8.1,6.6,14.7,14.7,14.7c8.1,0,14.7-6.6,14.7-14.7V844l38.9,38.9
	c2.9,2.9,6.6,4.3,10.4,4.3c3.8,0,7.5-1.4,10.4-4.3c5.7-5.7,5.7-15,0-20.8l-59.7-59.7V675.6l100.1,60.9c2.3,1.4,5,2.1,7.6,2.1
	c2.5,0,5.1-0.7,7.3-2c4.6-2.7,7.5-7.7,7.3-13.1l-2.7-117.2L756.3,670l21.9,81.5c1.8,6.6,7.7,10.9,14.2,10.9c1.3,0,2.5-0.2,3.8-0.5
	c7.8-2.1,12.5-10.1,10.4-18l-14.3-53.2l86,49.6c2.3,1.3,4.8,2,7.3,2c5.1,0,10-2.6,12.7-7.3c4.1-7,1.6-16-5.4-20.1l-86-49.6
	l53.2-14.3c7.8-2.1,12.5-10.1,10.4-18c-2.1-7.8-10.1-12.5-18-10.4l-81.5,21.9L661,581.1l102.8-56.2c4.7-2.6,7.6-7.5,7.6-12.9
	c0-5.4-2.9-10.3-7.6-12.9L661,442.9l109.9-63.5l81.5,21.8c1.3,0.3,2.6,0.5,3.8,0.5c6.5,0,12.4-4.3,14.2-10.9
	c2.1-7.8-2.5-15.9-10.4-18l-53.2-14.3l86-49.6C899.9,305,902.3,296,898.2,289z M392.7,563.9l-95-51.9l95-51.9l89.9,51.9L392.7,563.9
	z M497.3,641.3l-92.4,56.3l2.5-108.2l89.9-51.9V641.3z M497.3,486.6l-89.9-51.9l-2.5-108.2l92.4,56.3V486.6z M526.7,382.7l92.4-56.3
	l-2.5,108.2l-89.9,51.9V382.7z M526.7,641.3V537.4l89.9,51.9l2.5,108.2L526.7,641.3z M726.2,512l-95,51.9L541.4,512l89.9-51.9
	L726.2,512z"/>
</svg>
