<?xml version="1.0" encoding="utf-8"?>
<!-- Generator: Adobe Illustrator 25.0.1, SVG Export Plug-In . SVG Version: 6.00 Build 0)  -->
<svg version="1.1" id="Layer_1" xmlns="http://www.w3.org/2000/svg" xmlns:xlink="http://www.w3.org/1999/xlink" x="0px" y="0px"
	 viewBox="0 0 1024 1024" style="enable-background:new 0 0 1024 1024;" xml:space="preserve">
<style type="text/css">
	.st0{fill:#BF0808;}
	.st1{fill:#25333F;}
</style>
<path class="st0" d="M655.2,165.6c0,0-201.4,50.8-280.8,129.6s-158.8,194.2-165.6,360l216,7.2H720c0,0-64.2-86.8-57.6-201.6
	c6.6-114.8,28.8-180,28.8-180S648.4,201.2,655.2,165.6z"/>
<g>
	<path class="st1" d="M212.6,958h514.3c51.4,0,93.3-41.9,93.3-93.3V743.5c0-49.3-38.4-89.7-86.8-93c-45.5-98.5-70-249-31.7-352.7
		c21.1,15.3,47,24.3,75,24.3c70.6,0,128.1-57.4,128.1-128.1c0-70.6-57.5-128.1-128.1-128.1C722.4,66,674,100.5,656,151
		c-104.2,15.8-220.9,74.2-306.7,154c-50.7,47.1-89.8,100-116.1,157.1c-27.8,60.3-40.8,124.1-38.5,189.9
		c-42.9,8.4-75.4,46.2-75.4,91.6v121.2C119.3,916.1,161.1,958,212.6,958z M679.8,167.1L679.8,167.1c12-43.3,51.8-73.6,96.9-73.6
		c55.4,0,100.5,45.1,100.5,100.5c0,55.4-45.1,100.5-100.5,100.5c-55.4,0-100.5-45.1-100.5-100.5
		C676.1,184.9,677.4,175.9,679.8,167.1z M649.4,180c-0.5,4.6-0.8,9.3-0.8,14c0,32,11.8,61.4,31.3,83.8
		c-27.2,64.9-27.3,139.7-22.3,192c5.9,62.7,22,125.9,45.5,180.3H222.2C214.1,392.4,461.2,213.7,649.4,180z M146.8,743.5
		c0-36.3,29.5-65.7,65.7-65.7h514.3c36.3,0,65.7,29.5,65.7,65.7v121.2c0,36.3-29.5,65.7-65.7,65.7H212.6
		c-36.3,0-65.7-29.5-65.7-65.7V743.5z"/>
</g>
</svg>
