<?xml version="1.0" encoding="utf-8"?>
<!-- Generator: Adobe Illustrator 25.0.1, SVG Export Plug-In . SVG Version: 6.00 Build 0)  -->
<svg version="1.1" id="Layer_1" xmlns="http://www.w3.org/2000/svg" xmlns:xlink="http://www.w3.org/1999/xlink" x="0px" y="0px"
	 viewBox="0 0 1024 1024" style="enable-background:new 0 0 1024 1024;" xml:space="preserve">
<style type="text/css">
	.st0{fill:#25333F;}
</style>
<g>
	<path class="st0" d="M950.3,905.6L759.5,813V380.7h42.2c7.5,0,13.6-6.1,13.6-13.6V180.3c0-7.5-6.1-13.6-13.6-13.6H258.7l-27.8-54.1
		c-4.2-8.1-12.4-13.2-21.5-13.3c-9.1-0.1-17.5,4.8-21.8,12.7l-9.7,17.8l-31.3-30.4c-7.5-7.3-18.5-9.1-27.9-4.4
		c-9.4,4.6-14.7,14.4-13.5,24.8l3,26.1l-27.1,11.2c-8.9,3.7-14.7,11.9-15.1,21.5c-0.4,9.6,4.6,18.4,13.1,22.8l27.1,14.2L99.4,246
		c-2,9.1,1.2,18.4,8.3,24.3c7.2,5.9,16.9,7.3,25.5,3.5l42.1-18.5l8.7,26c2.4,7.1,7.8,12.7,14.9,15.3c0.6,0.2,1.1,0.4,1.7,0.5
		c-5.6,2.6-10,7.2-12.3,13.2c-3.2,8.1-1.9,17.1,3.4,24l3.8,4.9l-48.4,23.6c-7.7,3.8-12.8,11.1-13.6,19.7c-0.7,7.5,2,14.8,7.3,19.9
		l-27.1,27.5c-5,5-7.5,11.9-7,19c0.5,7,4,13.5,9.7,17.8l11.2,8.5l-11.9,31.4c-3.9,10.3-0.6,21.6,8.1,28.2c4.4,3.3,9.6,5,14.8,5
		c5.1,0,10.2-1.6,14.6-4.8l26.7-19.7l25.9,17.4c7.3,4.9,16.4,5.6,24.3,1.8c7.9-3.8,13.1-11.3,13.8-20.1l3.7-45.4
		c6.5,3.7,14.3,4.2,21.4,1.3c8.1-3.4,13.7-10.6,14.9-19.3l5.6-41.2c2.5,1.4,5.3,2.4,8.1,2.8V813l-190.9,92.7
		c-6.8,3.3-9.6,11.4-6.3,18.2c3.3,6.8,11.4,9.6,18.2,6.3L317,833.7l0,0l211.4-102.6l410,199c1.9,0.9,3.9,1.4,5.9,1.4
		c5,0,9.9-2.8,12.2-7.7C959.9,917.1,957.1,908.9,950.3,905.6z M268.9,281.6c0.5,1.2,1,2.3,1.5,3.4l-1.5,0.2V281.6z M200.1,243.8
		c-2.2-6.5-7-11.8-13.3-14.6c-3.1-1.4-6.5-2.1-9.9-2.1c-3.4,0-6.7,0.7-9.9,2.1l-39.9,17.6l6.1-27.1c2.4-10.8-2.7-21.9-12.5-27.1
		l-23.8-12.5l23.6-9.8c10.1-4.2,16.2-14.7,15-25.5l-2.4-20.6l28.4,27.6c5.5,5.4,13.1,7.8,20.7,6.7c7.6-1.2,14.2-5.7,17.9-12.5
		l9-16.5l34.2,66.5l0,0l8.5,16.5l-47.6-20.8c-6.9-3-14.9,0.1-17.9,7c-3,6.9,0.1,14.9,7,17.9l58.8,25.7l-3.9,2.4c0,0,0,0,0,0
		l-39.5,24.5L200.1,243.8z M241.7,280.9v8.6l-18.8,3L241.7,280.9z M297.5,382.7c-6-2.7-13-3-19.3-0.4c-8.1,3.3-13.9,10.7-15.1,19.4
		l-5.6,41.2c-6.8-3.9-15-4.4-22.2-1.1c-8.2,3.7-13.7,11.5-14.4,20.4l-3.7,45.4l-23.7-15.9c-8.6-5.8-19.9-5.5-28.3,0.6l-20.8,15.4
		l9.4-24.7c3.8-10.1,0.5-21.7-8.1-28.3l-10.4-7.9l27-27.4c5-5,7.5-11.9,7-19c-0.4-5.6-2.7-10.9-6.5-15l47.8-23.3
		c6.7-3.3,11.4-9.3,13.1-16.5c1.7-7.2,0-14.7-4.5-20.6l-3.1-3.9l48.5-7.7l-28.9,38.2c-4.5,6-3.3,14.5,2.6,19
		c2.5,1.9,5.3,2.7,8.2,2.7c4.1,0,8.2-1.9,10.9-5.4l30.5-40.4l5.2,28.9l2.3,12.9v0l2.2,12.4V382.7z M303.9,283.9
		c-13.5-10.2-16.2-29.4-6-42.9c4.9-6.5,12.1-10.7,20.2-11.9c8.1-1.1,16.2,1,22.7,5.9c6.5,4.9,10.7,12.1,11.9,20.2
		c1.1,8.1-1,16.2-5.9,22.7C336.6,291.4,317.4,294.1,303.9,283.9C303.9,283.9,303.9,283.9,303.9,283.9z M420,363.6L382,312l77.6,11.2
		l-13.8,11.5c-6.7,5.6-9.9,14.1-8.6,22.7c1.4,8.6,7,15.7,15.1,18.9l8.5,3.4c0,0,0,0,0,0l35,14l-23.2,15.5
		c-7.1,4.7-11.1,12.7-10.9,21.2l1,29.5l-21.3-24c-6.7-7.6-17.6-10.2-27.1-6.6l-12.2,4.7l-1.9-27.9c-0.8-12.5-10.9-22.3-23.3-22.8
		l-26.4-1.2l2.1-12.6l7.1-41.7l38.3,52.1c2.7,3.6,6.8,5.5,11,5.5c2.8,0,5.6-0.9,8-2.6C423.2,378.2,424.4,369.7,420,363.6z
		 M316.7,334.7l-3.3-18.1c6.9,1.1,14,0.9,20.8-0.5l-6.4,37.5H320L316.7,334.7z M732.3,799.8l-197.9-96c-1.9-0.9-3.9-1.4-5.9-1.4
		c-2,0-4.1,0.5-5.9,1.4l-197.8,96V395.9c0.1-0.4,0.3-0.8,0.4-1.3c0.8,1.8,1.9,3.6,3.2,5.2c4.4,5.5,11,8.8,18,9.1l27,1.2l2,29.2
		c0.5,7.8,4.6,14.8,11.2,19c6.6,4.2,14.6,5.1,22,2.3l13.9-5.3l25,28.2c4.3,4.8,10.1,7.7,16.1,8.2H356.3c-7.5,0-13.6,6.1-13.6,13.6
		c0,7.5,6.1,13.6,13.6,13.6h344.4c7.5,0,13.6-6.1,13.6-13.6c0-7.5-6.1-13.6-13.6-13.6h-233c2.4-0.2,4.8-0.8,7.1-1.7
		c9.7-3.9,15.8-13.1,15.4-23.6L489,431l26.2-17.6c7.6-5.1,11.7-13.9,10.7-22.9c-0.4-3.5-1.5-6.9-3.2-9.8h209.5V799.8z M468.6,353.5
		l-1.9-0.7l15-12.4c7.6-6.3,10.6-16.1,7.9-25.5c-2.7-9.5-10.4-16.2-20.1-17.6l-94.6-13.6c4.6-9.9,6.2-21,4.7-32.1
		c-2.1-15.3-10.1-28.9-22.4-38.2c-12.3-9.3-27.5-13.3-42.8-11.1c-11.4,1.6-21.9,6.4-30.3,13.9l-5.4-10.5l-6-11.6H788v159.5h-42.2
		H468.6z"/>
	<path class="st0" d="M823.7,905.6l-18.3-8.9c-6.8-3.3-14.9-0.5-18.2,6.3c-3.3,6.8-0.5,14.9,6.3,18.2l18.3,8.9
		c1.9,0.9,3.9,1.4,5.9,1.4c5,0,9.9-2.8,12.2-7.7C833.3,917.1,830.4,908.9,823.7,905.6z"/>
	<path class="st0" d="M769.3,879.2l-12-5.8c-6.8-3.3-14.9-0.5-18.2,6.3c-3.3,6.8-0.5,14.9,6.3,18.2l12,5.8c1.9,0.9,3.9,1.4,5.9,1.4
		c5,0,9.9-2.8,12.2-7.7C778.8,890.6,776,882.5,769.3,879.2z"/>
	<path class="st0" d="M697.1,844.2L661,826.7c-6.8-3.3-14.9-0.5-18.2,6.3c-3.3,6.8-0.5,14.9,6.3,18.2l36.1,17.5
		c1.9,0.9,3.9,1.4,5.9,1.4c5,0,9.9-2.8,12.2-7.7C706.7,855.6,703.9,847.5,697.1,844.2z"/>
	<path class="st0" d="M624.9,809.2l-12-5.8c-6.8-3.3-14.9-0.5-18.2,6.3c-3.3,6.8-0.5,14.9,6.3,18.2l12,5.8c1.9,0.9,3.9,1.4,5.9,1.4
		c5,0,9.9-2.8,12.2-7.7C634.5,820.6,631.7,812.5,624.9,809.2z"/>
	<path class="st0" d="M552.8,774.1l-18.3-8.9c-3.7-1.8-8.1-1.8-11.9,0l-18.3,8.9c-6.8,3.3-9.6,11.4-6.3,18.2
		c3.3,6.8,11.4,9.6,18.2,6.3l12.4-6l12.4,6c1.9,0.9,3.9,1.4,5.9,1.4c5,0,9.9-2.8,12.2-7.7C562.3,785.6,559.5,777.4,552.8,774.1z"/>
	<path class="st0" d="M468.1,791.7l-12,5.8c-6.8,3.3-9.6,11.4-6.3,18.2c2.4,4.8,7.2,7.7,12.2,7.7c2,0,4-0.4,5.9-1.4l12-5.8
		c6.8-3.3,9.6-11.4,6.3-18.2C483,791.2,474.9,788.4,468.1,791.7z"/>
	<path class="st0" d="M395.9,826.7l-36.1,17.5c-6.8,3.3-9.6,11.4-6.3,18.2c2.3,4.8,7.2,7.7,12.2,7.7c2,0,4-0.4,5.9-1.4l36.1-17.5
		c6.8-3.3,9.6-11.4,6.3-18.2C410.8,826.2,402.7,823.4,395.9,826.7z"/>
	<path class="st0" d="M323.8,861.7l-12,5.8c-6.8,3.3-9.6,11.4-6.3,18.2c2.4,4.8,7.2,7.7,12.2,7.7c2,0,4-0.4,5.9-1.4l12-5.8
		c6.8-3.3,9.6-11.4,6.3-18.2C338.7,861.3,330.5,858.4,323.8,861.7z"/>
	<path class="st0" d="M251.6,896.7l-18.3,8.9c-6.8,3.3-9.6,11.4-6.3,18.2c2.4,4.8,7.2,7.7,12.2,7.7c2,0,4-0.4,5.9-1.4l18.3-8.9
		c6.8-3.3,9.6-11.4,6.3-18.2C266.5,896.3,258.4,893.5,251.6,896.7z"/>
	<path class="st0" d="M700.7,626.8H356.3c-7.5,0-13.6,6.1-13.6,13.6c0,7.5,6.1,13.6,13.6,13.6h344.4c7.5,0,13.6-6.1,13.6-13.6
		C714.3,632.8,708.2,626.8,700.7,626.8z"/>
	<path class="st0" d="M573.4,480.8c7.5,0,13.6-6.1,13.6-13.6V402c0-7.5-6.1-13.6-13.6-13.6c-7.5,0-13.6,6.1-13.6,13.6v65.3
		C559.8,474.7,565.8,480.8,573.4,480.8z"/>
	<path class="st0" d="M447.4,618.6c7.5,0,13.6-6.1,13.6-13.6v-69.8c0-7.5-6.1-13.6-13.6-13.6c-7.5,0-13.6,6.1-13.6,13.6V605
		C433.8,612.5,439.9,618.6,447.4,618.6z"/>
	<path class="st0" d="M646.8,661.6c-7.5,0-13.6,6.1-13.6,13.6v53c0,7.5,6.1,13.6,13.6,13.6c7.5,0,13.6-6.1,13.6-13.6v-53
		C660.4,667.7,654.3,661.6,646.8,661.6z"/>
	<path class="st0" d="M519,240.7h-11.3c-7.5,0-13.6,6.1-13.6,13.6c0,7.5,6.1,13.6,13.6,13.6H519c7.5,0,13.6-6.1,13.6-13.6
		C532.6,246.7,526.5,240.7,519,240.7z"/>
	<path class="st0" d="M607.7,242.3c-3.3,1.8-10.2,4.7-19.6,4.7c0,0-0.1,0-0.1,0c-9.4,0-16.2-3-19.5-4.7c-6.6-3.6-14.9-1.1-18.4,5.5
		c-3.6,6.6-1.1,14.9,5.5,18.4c5.5,3,17,7.9,32.3,8c0.1,0,0.1,0,0.2,0c15.4,0,27-5,32.5-8c6.6-3.6,9.1-11.8,5.5-18.4
		C622.5,241.2,614.3,238.7,607.7,242.3z"/>
	<path class="st0" d="M661.7,240.7h-10.2c-7.5,0-13.6,6.1-13.6,13.6c0,7.5,6.1,13.6,13.6,13.6h10.2c7.5,0,13.6-6.1,13.6-13.6
		C675.3,246.7,669.2,240.7,661.7,240.7z"/>
	<path class="st0" d="M759.9,241c-9.2,2.2-18.6,3.3-28,3.3c0,0-0.1,0-0.1,0c-9.4,0-18.8-1.1-27.9-3.3c-7.3-1.7-14.6,2.8-16.4,10.1
		c-1.7,7.3,2.8,14.6,10.1,16.4c11.2,2.6,22.7,4,34.2,4c0,0,0.1,0,0.1,0c11.5,0,23.1-1.3,34.3-4c7.3-1.7,11.8-9,10.1-16.4
		C774.5,243.8,767.2,239.3,759.9,241z"/>
	<path class="st0" d="M463.5,241.4c-9.1,3.2-18.6,4.6-28.2,4.2c-7.4-0.3-14.7-1.7-21.7-4.2c-7.1-2.5-14.8,1.2-17.4,8.3
		c-2.5,7.1,1.2,14.8,8.3,17.4c9.5,3.4,19.5,5.3,29.6,5.7c1.5,0.1,3,0.1,4.4,0.1c11.5,0,23-2,34-5.8c7.1-2.5,10.8-10.3,8.3-17.3
		C478.3,242.6,470.6,238.9,463.5,241.4z"/>
</g>
</svg>
