<?xml version="1.0" encoding="utf-8"?>
<!-- Generator: Adobe Illustrator 25.0.1, SVG Export Plug-In . SVG Version: 6.00 Build 0)  -->
<svg version="1.1" id="Layer_1" xmlns="http://www.w3.org/2000/svg" xmlns:xlink="http://www.w3.org/1999/xlink" x="0px" y="0px"
	 viewBox="0 0 1024 1024" style="enable-background:new 0 0 1024 1024;" xml:space="preserve">
<style type="text/css">
	.st0{fill:#25333F;}
	.st1{fill:#FFFFFF;}
</style>
<g>
	<g>
		<path class="st0" d="M475.8,302.1h32.7c4.3,0,7.8-3.5,7.8-7.8v-30.8c0-4.3-3.5-7.8-7.8-7.8h-32.7c-4.3,0-7.8,3.5-7.8,7.8v30.8
			C468,298.6,471.5,302.1,475.8,302.1z M483.6,271.3h17.1v15.2h-17.1V271.3z"/>
		<path class="st0" d="M311.1,550.6c14.9-10.6,29.9-16,44.6-16.1c11.2-0.1,19,2.8,28.9,6.4c8.3,3.1,17.7,6.5,30.6,8.7
			c13,2.2,19.8,1.3,29.1,0.1c6.4-0.8,14.4-1.9,27.3-2.3c31.7-1.1,52.3,2.8,68.7,5.9c10.9,2,20.5,3.8,30.7,3.8
			c9.2,0,18.8-1.4,30.2-5.5c3-1,5.7-2.1,8.3-3.2c7.6-3,14.8-5.9,26-6.9c14.8-1.3,30.1,1.3,45.4,7.6c4,1.6,8.5-0.2,10.2-4.2
			c1.6-4-0.2-8.5-4.2-10.2c-15.3-6.3-30.6-9.4-45.6-9.1v-145c4.3-3.8,6.9-8.9,7.3-14.5c0.5-7.4-3-14.3-10.4-20.4l-0.2-0.1
			c-8-6.7-17.3-6.9-23.5-7c-6.3-0.1-10.2,0.8-14.4,1.8c-2,0.5-4.1,1-6.8,1.4c-5.6,0.9-11.6,1.1-17.7,0.6c6.2-10.4,6-19,5.9-20
			c-0.4-9-4.9-17.8-11.3-22.6c-6-4.5-11.7-3.9-16.6-2.3v-57.3v0c0-0.3,0-0.6-0.1-0.9c0-0.1,0-0.2,0-0.2c0-0.2-0.1-0.5-0.1-0.7
			c0-0.1,0-0.2-0.1-0.2c-0.1-0.3-0.2-0.6-0.3-0.8c0,0,0,0,0-0.1c-0.1-0.3-0.3-0.6-0.4-0.9c0,0,0,0,0-0.1l-52.8-91.5v-38.7h15.8
			c4.3,0,7.8-3.5,7.8-7.8c0-4.3-3.5-7.8-7.8-7.8h-15.8V73.8c0-4.3-3.5-7.8-7.8-7.8c-4.3,0-7.8,3.5-7.8,7.8v16.8h-15.8
			c-4.3,0-7.8,3.5-7.8,7.8c0,4.3,3.5,7.8,7.8,7.8h15.8v38.7l-52.8,91.5c0,0,0,0,0,0.1c-0.2,0.3-0.3,0.6-0.4,0.9c0,0,0,0,0,0
			c-0.1,0.3-0.2,0.6-0.3,0.8c0,0.1,0,0.1-0.1,0.2c-0.1,0.2-0.1,0.5-0.1,0.7c0,0.1,0,0.2,0,0.2c0,0.3-0.1,0.6-0.1,0.9v60
			c-0.2,0-0.5,0-0.7,0c-0.1,0-0.2,0-0.3,0c-15.6,0-21.3,7.9-23.2,12.6c-2.9,6.9-2,16.3,2.7,28c0,0.1,0.1,0.2,0.1,0.3
			c-0.6,0-1.2,0-1.9-0.1c-13.6-0.4-26.4-0.8-37.6,0.3c-19.7,2-38.2,5.6-40.9,18.4c-1.5,7.4,3.2,15.1,13.9,22.9
			c0.1,0.1,0.2,0.1,0.3,0.2v137.4c-13.7,2.4-27.4,8.3-40.8,17.8c-3.5,2.5-4.3,7.3-1.9,10.9C302.8,552.3,307.6,553.1,311.1,550.6z
			 M575.1,358c7.2,0.6,14.2,0.3,20.9-0.8c3.2-0.5,5.7-1.1,7.9-1.6c3.7-0.9,6.1-1.5,10.4-1.4c5.2,0.1,10.1,0.2,13.9,3.4l0.2,0.2
			c1.2,1,5,4.2,4.8,7.3c-0.2,2.9-3.2,5.6-7.5,6.8h-50.6V358z M575.1,387.4h50.7v139.7c-8.9,1.6-15.5,4.3-21.9,6.8
			c-2.6,1-5.1,2-7.7,3c-7.8,2.8-14.6,4.1-21,4.5V387.4z M515.5,533.5c-12.2-1.4-26.6-2.3-44.4-1.7c-0.8,0-1.6,0.1-2.4,0.1v-92.3
			h46.8V533.5z M559.5,379.6v161.1c-5.1-0.7-10.4-1.6-16.3-2.8c-3.8-0.7-7.8-1.5-12.1-2.2V431.8c0-4.3-3.5-7.8-7.8-7.8H461
			c-4.3,0-7.8,3.5-7.8,7.8v101.1c-4.2,0.4-7.7,0.9-10.9,1.3c-6.7,0.9-11.2,1.4-17.5,0.9V379.6v-30.4h8.7h126.1V379.6z M492.2,162.5
			l40.4,69.9h-80.7L492.2,162.5z M446.1,248h92.1V303c0,0-0.1,0-0.1,0c-0.7,0.1-1.4,0.2-2.1,0.3c-0.1,0-0.1,0-0.2,0
			c-0.8,0.1-1.6,0.2-2.4,0.2c-4.6,0.3-6.8-0.1-8.9-0.5c-4-0.7-7.3-1-14.1,0.9c-5,1.4-7.7,2.4-10.3,3.3c-2.6,1-5.1,1.9-10.1,3.3
			c-8.4,2.4-15.6,0.6-18.2-0.1l-2.5-0.6c-6.2-1.5-9-2.2-15.1-4.7c-0.8-0.3-1.7-0.7-2.6-1c-0.3-0.1-0.6-0.2-0.8-0.3
			c-0.7-0.2-1.4-0.5-2.1-0.7c-0.4-0.1-0.7-0.2-1.1-0.3c-0.5-0.1-1-0.3-1.5-0.4V248z M420.7,318.8c1.3-3,7.9-3.8,15.7-2.4
			c0.2,0,0.4,0.1,0.6,0.1c3.8,0.7,7.8,1.8,11.3,3.2c0,0,0.1,0,0.1,0c2.6,1,4.2,2,6,3c3,1.7,6.1,3.5,11.8,4.9
			c3.4,0.8,13.8,3.4,26.2-0.1c6-1.7,9.7-3.4,12.9-4.9c2.8-1.3,5.3-2.5,9.3-3.6c2.3-0.6,3.5-0.8,4.7-0.8c0.9,0,1.7,0.1,2.8,0.3
			c2.5,0.4,6,1,12.3,0.7c0,0,0.1,0,0.1,0c0.6,0,1.2-0.1,1.8-0.1c0.1,0,0.3,0,0.4,0c0.5,0,0.9-0.1,1.4-0.2c0.1,0,0.3,0,0.4-0.1
			c0.5-0.1,0.9-0.1,1.4-0.2c0.1,0,0.2,0,0.3-0.1c0.5-0.1,1-0.2,1.5-0.3c0.1,0,0.1,0,0.2,0c1.9-0.4,3.6-0.8,5.2-1.3c0,0,0,0,0,0
			c3.2-1,5.8-2.1,8.1-3.1c5.2-2.3,5.5-2.1,6.3-1.5c2.3,1.7,4.8,6,5,10.7c0,0.5-0.1,4.9-3.3,10.6H434.2c-4.2-0.8-8.3-1.7-12.2-2.5
			C419.3,322.6,420.5,319.2,420.7,318.8z M409.2,532.5c-7.3-1.8-13.3-4-19.2-6.2c-9.7-3.6-19-7-31.5-7.4V387.4h50.7V532.5z
			 M354.5,359.1c6.1-1.4,12.7-2,16.7-2.4c10.2-1,22.5-0.6,35.6-0.2c0.9,0,1.7,0.1,2.5,0.1v15.2h-55.5c-0.5-0.7-1.1-1.3-1.8-1.9
			c-4.9-3.6-6.8-6-7.5-7.1C345.5,362,348.2,360.6,354.5,359.1z"/>
	</g>
	<g>
		<path class="st1" d="M249.3,501.2c0,0,103.5,54.9,138.5,58.2c101.5,9.6,86-16,86-16s-9.7-7.4,3-12.6c12.6-5.2,17-20,17-20
			l12.6,8.3l7.4,16.7l0.3,7.1l-0.3,25.9l85-1.9l62.5-44.8h34.5v144.3L268.9,699L249.3,501.2z"/>
		<g>
			<path class="st0" d="M252.4,478.4l99.7,79.8c2.1,1.7,2.4,4.8,0.8,6.9c-1.7,2.1-4.8,2.4-6.9,0.8l-96.7-77.4l-96.7,77.4
				c-0.9,0.7-2,1.1-3,1.1c-1.4,0-2.9-0.6-3.8-1.8c-1.7-2.1-1.3-5.2,0.8-6.9l99.7-79.8C248,477,250.6,477,252.4,478.4z"/>
			<path class="st0" d="M332.3,568.8c2.7,0,4.9,2.2,4.9,4.9v71.7c0,2.7-2.2,4.9-4.9,4.9H166.4c-2.7,0-4.9-2.2-4.9-4.9v-71.7
				c0-2.7,2.2-4.9,4.9-4.9c2.7,0,4.9,2.2,4.9,4.9v66.8h156.1v-66.8C327.4,571,329.6,568.8,332.3,568.8z"/>
			<path class="st0" d="M207.8,490.9c0,2.7-2.2,4.9-4.9,4.9h-16.3v15.7c0,2.7-2.2,4.9-4.9,4.9c-2.7,0-4.9-2.2-4.9-4.9v-20.6
				c0-2.7,2.2-4.9,4.9-4.9h21.2C205.6,486,207.8,488.2,207.8,490.9z"/>
			<path class="st0" d="M189.7,400.8c1.9-1.9,5-1.9,6.9,0c5.4,5.3,8.4,12.5,8.4,20c0,7.6-3,14.7-8.4,20c-3.5,3.5-5.5,8.1-5.5,13.1
				c0,4.9,2,9.6,5.5,13.1c1.9,1.9,1.9,5,0,6.9c-1,1-2.2,1.5-3.5,1.5c-1.2,0-2.5-0.5-3.4-1.4c-5.4-5.3-8.4-12.5-8.4-20
				c0-7.6,3-14.7,8.4-20c3.5-3.5,5.5-8.1,5.5-13.1c0-4.9-2-9.6-5.5-13.1C187.8,405.8,187.8,402.7,189.7,400.8z"/>
			<path class="st0" d="M223.8,587.4V610c0,2.7,2.2,4.9,4.9,4.9h45.1c2.7,0,4.9-2.2,4.9-4.9v-45.1c0-2.7-2.2-4.9-4.9-4.9h-45.1
				c-2.7,0-4.9,2.2-4.9,4.9V587.4 M268.9,605.1h-35.3v-35.3h35.3V605.1z"/>
		</g>
		<g>
			<path class="st0" d="M710.7,471.1l-90.5,72.5c-1.9,1.5-2.2,4.3-0.7,6.2c1.5,1.9,4.3,2.2,6.2,0.7l87.8-70.3l87.8,70.3
				c0.8,0.7,1.8,1,2.8,1c1.3,0,2.6-0.6,3.5-1.7c1.5-1.9,1.2-4.7-0.7-6.2l-90.5-72.5C714.6,469.8,712.3,469.8,710.7,471.1z"/>
			<path class="st0" d="M638.2,553.2c-2.4,0-4.4,2-4.4,4.4v65.1c0,2.4,2,4.4,4.4,4.4h150.6c2.4,0,4.4-2,4.4-4.4v-65.1
				c0-2.4-2-4.4-4.4-4.4c-2.4,0-4.4,2-4.4,4.4v60.6H642.6v-60.6C642.6,555.2,640.6,553.2,638.2,553.2z"/>
			<path class="st0" d="M751.1,482.5c0,2.4,2,4.4,4.4,4.4h14.8v14.2c0,2.4,2,4.4,4.4,4.4c2.4,0,4.4-2,4.4-4.4v-18.7
				c0-2.4-2-4.4-4.4-4.4h-19.3C753.1,478,751.1,480,751.1,482.5z"/>
			<path class="st0" d="M767.6,400.7c-1.7-1.7-4.5-1.8-6.3,0c-4.9,4.9-7.6,11.3-7.6,18.2c0,6.9,2.7,13.3,7.6,18.2
				c3.2,3.2,5,7.4,5,11.9c0,4.5-1.8,8.7-5,11.9c-1.7,1.7-1.8,4.5,0,6.3c0.9,0.9,2,1.3,3.2,1.3c1.1,0,2.2-0.4,3.1-1.3
				c4.9-4.9,7.6-11.3,7.6-18.2c0-6.9-2.7-13.3-7.6-18.2c-3.2-3.2-5-7.4-5-11.9c0-4.5,1.8-8.7,5-11.9
				C769.3,405.2,769.3,402.4,767.6,400.7z"/>
			<path class="st0" d="M736.6,570.1v-20.5c0-2.4-2-4.4-4.4-4.4h-40.9c-2.4,0-4.4,2-4.4,4.4v40.9c0,2.4,2,4.4,4.4,4.4h40.9
				c2.4,0,4.4-2,4.4-4.4V570.1 M695.6,554.1h32v32h-32V554.1z"/>
		</g>
		<g>
			<path class="st0" d="M362.2,822.7c1.2,2.5,4.2,3.7,6.7,2.5c19.9-9.1,40-16.1,60.3-20.8c0.3-0.1,0.6-0.1,0.9-0.2
				c1-0.2,1.9-0.4,2.9-0.7c0.3-0.1,0.7-0.1,1-0.2c0.9-0.2,1.8-0.4,2.7-0.6c0.4-0.1,0.9-0.2,1.3-0.3c0.8-0.2,1.6-0.3,2.4-0.5
				c0.6-0.1,1.1-0.2,1.7-0.3c0.7-0.1,1.4-0.2,2-0.4c0.7-0.1,1.4-0.2,2.1-0.4c0.5-0.1,1.1-0.2,1.6-0.3c0.8-0.1,1.7-0.3,2.5-0.4
				c0.4-0.1,0.8-0.1,1.3-0.2c1-0.1,1.9-0.3,2.9-0.4c0.3,0,0.6-0.1,0.9-0.1c1.1-0.1,2.2-0.3,3.2-0.4c0.2,0,0.4-0.1,0.6-0.1
				c1.2-0.1,2.3-0.3,3.5-0.4c0.1,0,0.3,0,0.4,0c1.2-0.1,2.4-0.3,3.7-0.4c0.1,0,0.2,0,0.3,0c1.2-0.1,2.5-0.2,3.7-0.3
				c0.1,0,0.2,0,0.3,0c1.2-0.1,2.5-0.2,3.7-0.3c0.1,0,0.2,0,0.3,0c1.2-0.1,2.4-0.1,3.6-0.2c0.1,0,0.3,0,0.4,0
				c1.1-0.1,2.3-0.1,3.4-0.1c0.2,0,0.4,0,0.6,0c1.1,0,2.2-0.1,3.3-0.1c0.2,0,0.5,0,0.7,0c1.3,0,2.6,0,3.9-0.1c1.1,0,2.2,0,3.3,0
				c0.5,0,1,0,1.6,0c0.9,0,1.9,0,2.8,0c0.4,0,0.8,0,1.2,0c1.1,0,2.3,0.1,3.4,0.1c0.2,0,0.4,0,0.6,0c8.4,0.3,16.8,1.1,25.3,2.2
				c0,0,0,0,0,0c1.3,0.2,2.7,0.4,4,0.6c0.2,0,0.5,0.1,0.7,0.1c1.1,0.2,2.2,0.3,3.2,0.5c0.4,0.1,0.8,0.1,1.3,0.2
				c0.9,0.1,1.8,0.3,2.7,0.4c0.6,0.1,1.1,0.2,1.7,0.3c0.7,0.1,1.4,0.3,2.2,0.4c0.7,0.1,1.4,0.3,2.1,0.4c0.6,0.1,1.1,0.2,1.7,0.3
				c0.8,0.2,1.6,0.3,2.5,0.5c0.4,0.1,0.9,0.2,1.3,0.3c0.9,0.2,1.9,0.4,2.8,0.6c0.3,0.1,0.6,0.1,1,0.2c20.5,4.7,40.9,11.7,61,21
				c0.7,0.3,1.4,0.5,2.1,0.5c1.9,0,3.8-1.1,4.6-3c1.2-2.5,0.1-5.6-2.5-6.7c-14-6.4-28.1-11.8-42.4-16.1c2.2-3.9,2.1-8.6-0.2-12.5
				l-9.6-16.7c1.3-0.9,2.5-2,3.5-3.4c2.7-3.9,2.9-8.9,0.5-13.1l-10.4-18c1.1-0.9,2-1.9,2.8-3.1c2.2-3.7,2.3-8.1,0.1-11.8l-11.1-19.3
				c0.8-0.7,1.5-1.6,2.1-2.6c2-3.4,2-7.4,0.1-10.8l-10.7-18.6c1.7-0.7,3.1-1.8,4.3-3.4c2.5-3.3,2.7-7.6,0.6-11.1l-53.7-93
				c-0.9-1.6-2.6-2.5-4.4-2.5c-1.8,0-3.5,1-4.4,2.5l-53.7,93c-2.1,3.6-1.8,7.8,0.6,11.1c1.1,1.5,2.6,2.7,4.3,3.3l-10.8,18.6
				c-2,3.4-1.9,7.4,0,10.8c0.6,1,1.3,1.8,2.1,2.6l-11.2,19.3c-2.1,3.7-2.1,8.1,0.1,11.8c0.7,1.2,1.7,2.3,2.8,3.1l-10.4,18
				c-2.4,4.1-2.2,9.1,0.5,13c1,1.4,2.1,2.6,3.5,3.4l-9.6,16.7c-2.3,4-2.3,8.6-0.2,12.5c-14.2,4.3-28.3,9.7-42.3,16.1
				C362.1,817.1,361,820.1,362.2,822.7z M416,792.3l12.9-22.4c1-1.7,0.9-3.8-0.2-5.4c-1.1-1.6-3-2.5-4.9-2.2
				c-1.2,0.2-1.8-0.6-2.1-0.9c-0.3-0.4-0.7-1.2-0.1-2.3L435,736c0.9-1.6,0.9-3.6-0.1-5.2c-1-1.6-2.7-2.5-4.6-2.4
				c-0.7,0-1.2-0.5-1.3-0.7c-0.3-0.5-0.3-0.9,0-1.4l14-24.2c0.9-1.6,0.9-3.5,0-5.1c-0.9-1.6-2.7-2.5-4.5-2.5c-0.3,0-0.4-0.2-0.5-0.3
				c-0.1-0.2-0.1-0.4,0-0.6l15.3-26.5c1-1.7,0.9-3.9-0.3-5.5c-1.2-1.6-3.2-2.4-5.2-2c-1.5,0.3-2.8,0.6-4,0.9c0,0,0,0,0,0
				c0,0,0,0,0,0l0,0l49.3-85.3l49.3,85.3c0,0,0,0,0,0c0,0,0,0,0,0c0,0,0,0,0,0c-1.2-0.3-2.5-0.6-4-0.9c-2-0.4-4,0.4-5.2,2
				c-1.2,1.6-1.3,3.8-0.3,5.5l15.3,26.5c0.1,0.1,0.2,0.3,0,0.6c0,0.1-0.2,0.3-0.5,0.3c-1.8,0-3.5,0.9-4.5,2.5
				c-0.9,1.6-0.9,3.5,0,5.1l14,24.2c0.3,0.5,0.3,1,0,1.4c-0.1,0.2-0.5,0.8-1.3,0.7c-1.8-0.1-3.6,0.8-4.6,2.4c-1,1.6-1,3.6-0.1,5.2
				l13.4,23.1c0.6,1,0.2,1.8-0.1,2.3c-0.2,0.3-0.9,1.1-2.1,0.9c-1.9-0.3-3.9,0.5-5,2.2c-1.1,1.6-1.2,3.7-0.2,5.4l12.9,22.4
				c0.8,1.4,0.1,2.5-0.2,2.9c-0.3,0.4-1.2,1.4-2.8,1c-2.1-0.5-4.2-1-6.3-1.4c-0.7-0.2-1.3-0.3-2-0.5c-0.5-0.1-1.1-0.3-1.6-0.4
				c-0.8-0.2-1.5-0.3-2.3-0.5c-0.6-0.1-1.2-0.3-1.9-0.4c-0.7-0.1-1.4-0.3-2-0.4c-0.7-0.1-1.5-0.3-2.2-0.4c-0.6-0.1-1.1-0.2-1.7-0.3
				c-0.9-0.2-1.7-0.3-2.6-0.5c-0.5-0.1-0.9-0.2-1.4-0.2c-1-0.2-2-0.3-2.9-0.5c-0.4-0.1-0.7-0.1-1.1-0.2c-1.1-0.2-2.2-0.3-3.3-0.5
				c-0.3,0-0.5-0.1-0.8-0.1c-1.2-0.2-2.4-0.3-3.6-0.5c-0.2,0-0.4,0-0.6-0.1c-1.3-0.2-2.5-0.3-3.8-0.5c-0.1,0-0.2,0-0.4,0
				c-1.3-0.2-2.6-0.3-4-0.4c-0.1,0-0.2,0-0.2,0c-1.3-0.1-2.7-0.3-4-0.4c-0.1,0-0.1,0-0.2,0c-1.4-0.1-2.7-0.2-4.1-0.3
				c-0.1,0-0.1,0-0.2,0c-1.3-0.1-2.7-0.2-4-0.3c-0.1,0-0.2,0-0.3,0c-1.3-0.1-2.6-0.1-3.9-0.2c-0.1,0-0.2,0-0.4,0
				c-1.3-0.1-2.5-0.1-3.8-0.1c-0.2,0-0.3,0-0.5,0c-1.2,0-2.5-0.1-3.7-0.1c-0.2,0-0.3,0-0.5,0c-1.4,0-2.8,0-4.2,0c0,0,0,0,0,0
				c0,0,0,0,0,0c-0.7,0-1.3,0-2,0c-1.4,0-2.7,0-4.1,0.1c-0.3,0-0.5,0-0.8,0c-1.1,0-2.2,0.1-3.4,0.1c-0.2,0-0.4,0-0.6,0
				c-1.2,0-2.4,0.1-3.5,0.2c-0.1,0-0.3,0-0.4,0c-1.3,0.1-2.5,0.1-3.8,0.2c-0.1,0-0.2,0-0.2,0c-1.3,0.1-2.6,0.2-3.9,0.3
				c-0.1,0-0.1,0-0.2,0c-1.3,0.1-2.6,0.2-4,0.3c-0.1,0-0.1,0-0.2,0c-1.3,0.1-2.6,0.3-3.9,0.4c-0.1,0-0.2,0-0.3,0
				c-1.3,0.1-2.5,0.3-3.8,0.4c-0.2,0-0.3,0-0.5,0.1c-1.2,0.1-2.4,0.3-3.6,0.5c-0.2,0-0.5,0.1-0.7,0.1c-1.1,0.2-2.2,0.3-3.3,0.5
				c-0.3,0.1-0.7,0.1-1.1,0.2c-1,0.1-1.9,0.3-2.9,0.5c-0.5,0.1-0.9,0.2-1.4,0.2c-0.8,0.1-1.7,0.3-2.5,0.4c-0.6,0.1-1.2,0.2-1.8,0.3
				c-0.7,0.1-1.4,0.3-2.1,0.4c-0.7,0.1-1.4,0.3-2.2,0.4c-0.6,0.1-1.1,0.2-1.7,0.3c-0.8,0.2-1.6,0.3-2.5,0.5
				c-0.5,0.1-0.9,0.2-1.4,0.3c-0.9,0.2-1.8,0.4-2.7,0.6c-0.4,0.1-0.8,0.2-1.3,0.3c-0.6,0.1-1.1,0.3-1.7,0.4
				c-2.1,0.4-4.2,0.9-6.2,1.4c-1.6,0.4-2.5-0.6-2.8-1C415.8,794.8,415.2,793.7,416,792.3z"/>
			<path class="st0" d="M488.9,638.8c11.5,11.6,25,15.2,32.1,16.2c0.3,0,0.5,0.1,0.8,0.1c2.5,0,4.6-1.8,5-4.3
				c0.4-2.8-1.5-5.4-4.3-5.8c-5.8-0.9-16.9-3.8-26.4-13.3c-7.4-7.5-10.6-15.8-12-21.5c-0.7-2.7-3.4-4.4-6.2-3.7
				c-2.7,0.7-4.4,3.4-3.7,6.2C476,619.6,479.9,629.8,488.9,638.8z"/>
			<path class="st0" d="M453,725.2c0.4,0,0.7,0,1.1-0.1c12.8-2.8,25-8.4,35.5-16.2c10.1-7.6,18.8-17.5,24.9-28.6
				c1.4-2.4,0.5-5.5-2-6.9c-2.4-1.4-5.5-0.5-6.9,2c-5.5,9.8-13.2,18.6-22.2,25.4c-9.3,7-20.2,12-31.5,14.4c-2.7,0.6-4.5,3.3-3.9,6
				C448.6,723.6,450.7,725.2,453,725.2z"/>
			<path class="st0" d="M513.2,759.7c-15.6-8.9-24.7-21.7-29.5-30.9c-1.3-2.5-4.4-3.4-6.9-2.1c-2.5,1.3-3.4,4.4-2.1,6.9
				c5.5,10.4,15.7,24.9,33.5,35c7.8,4.5,16.4,7.6,25.4,9.4c0.3,0.1,0.7,0.1,1,0.1c2.4,0,4.5-1.7,5-4.1c0.5-2.8-1.3-5.4-4-6
				C527.6,766.4,520.1,763.7,513.2,759.7z"/>
			<path class="st0" d="M472.8,682.9c6.3,0,11.4-5.1,11.4-11.4c0-2.8-2.3-5.1-5.1-5.1c-2.8,0-5.1,2.3-5.1,5.1c0,0.7-0.6,1.3-1.3,1.3
				c-0.7,0-1.3-0.6-1.3-1.3c0-2.8-2.3-5.1-5.1-5.1c-2.8,0-5.1,2.3-5.1,5.1C461.4,677.8,466.5,682.9,472.8,682.9z"/>
			<path class="st0" d="M525,716.6c-0.7,0-1.3-0.6-1.3-1.3c0-2.8-2.3-5.1-5.1-5.1s-5.1,2.3-5.1,5.1c0,6.3,5.1,11.4,11.4,11.4
				c6.3,0,11.4-5.1,11.4-11.4c0-2.8-2.3-5.1-5.1-5.1c-2.8,0-5.1,2.3-5.1,5.1C526.3,716,525.7,716.6,525,716.6z"/>
			<path class="st0" d="M453,776.2c6.3,0,11.4-5.1,11.4-11.4c0-2.8-2.3-5.1-5.1-5.1c-2.8,0-5.1,2.3-5.1,5.1c0,0.7-0.6,1.3-1.3,1.3
				c-0.7,0-1.3-0.6-1.3-1.3c0-2.8-2.3-5.1-5.1-5.1c-2.8,0-5.1,2.3-5.1,5.1C441.6,771.1,446.7,776.2,453,776.2z"/>
			<path class="st0" d="M520.7,523.8c-4.3-2.9-9.9-3.9-14.4-4.7c-2.5-4.3-5.4-8.9-9.6-12.3c-1.9-1.6-4.6-1.6-6.5,0
				c-4.1,3.4-7,8.3-9.3,12.6c-4.7,0.9-9.9,2.1-14.3,5c-2.1,1.4-2.9,4.2-1.7,6.5c2.4,4.8,5.7,9,8.8,12.6c-0.3,4.5-0.2,9.1,0.3,13.9
				c0.2,1.5,1,2.9,2.3,3.7c0.8,0.5,1.8,0.8,2.7,0.8c0.6,0,1.1-0.1,1.7-0.3c1.4-0.5,2.9-1,4.3-1.5c2.9-1,5.9-2,8.9-3.1
				c2.5,0.9,5,1.7,7.4,2.5c1.9,0.6,3.9,1.2,5.8,1.9c1.5,0.5,3.1,0.3,4.5-0.6c1.3-0.9,2.2-2.3,2.3-3.9c0.3-5.1,0.3-9.7-0.1-13.9
				c3.1-3.7,6.3-8,8.6-12.7C523.5,527.9,522.8,525.2,520.7,523.8z M504.7,538c-0.9,1.1-1.4,2.5-1.2,3.9c0.3,2.4,0.5,4.9,0.5,7.6
				c-2.9-0.9-5.6-1.8-8.3-2.8c-1.2-0.5-2.6-0.5-3.8,0c-2.7,1.1-5.4,2.1-8.3,3c-0.1-2.6,0.1-5.2,0.3-7.6c0.2-1.4-0.3-2.9-1.3-3.9
				c-2-2.2-4.2-4.8-6.1-7.5c2.1-0.7,4.5-1.1,6.7-1.6c0.6-0.1,1.2-0.2,1.8-0.4c1.5-0.3,2.7-1.2,3.4-2.6l0.2-0.4
				c1.4-2.6,2.9-5.4,4.6-7.7c1.9,2.5,3.6,5.4,5.1,8.1c0.7,1.3,2,2.2,3.5,2.5c0.7,0.1,1.4,0.2,2.1,0.4c2.1,0.4,4.4,0.8,6.4,1.3
				C508.8,533.2,506.7,535.7,504.7,538z"/>
		</g>
	</g>
	<g>
		<path class="st1" d="M402.2,770.5c0,0,13.1,43.3,22.6,51.7c9.5,8.5,61.9-3,79.4-6.3c17.5-3.2,59,17.1,65.2-4.2
			c6.2-21.4,1.3-27.7,12-31.6c10.7-3.9,57.3,36.7,56.8,49.2c-0.5,12.5-202.2,42.1-228.8,35.8S313.5,800.8,402.2,770.5z"/>
		<g>
			<path class="st0" d="M180.8,733.9c-3.3,0-5.9-2.7-5.9-5.9v-25c0-3.3,2.7-5.9,5.9-5.9h29.2c3.3,0,5.9,2.7,5.9,5.9
				c0,3.3-2.7,5.9-5.9,5.9h-23.3V728C186.8,731.3,184.1,733.9,180.8,733.9z"/>
			<path class="st0" d="M190.5,593.3c2.3-2.3,6.1-2.4,8.4-0.1c6.6,6.5,10.2,15.2,10.2,24.4c0,9.2-3.6,17.9-10.2,24.4
				c-4.3,4.3-6.7,9.9-6.7,15.9c0,6,2.4,11.6,6.7,15.9c2.3,2.3,2.4,6.1,0.1,8.4c-1.2,1.2-2.7,1.8-4.2,1.8c-1.5,0-3-0.6-4.2-1.7
				c-6.6-6.5-10.2-15.2-10.2-24.4c0-9.2,3.6-17.9,10.2-24.4c4.3-4.3,6.7-9.9,6.7-15.9c0-6-2.4-11.6-6.7-15.9
				C188.2,599.4,188.2,595.6,190.5,593.3z"/>
			<path class="st0" d="M330.4,862.7c3.3,0,5.9-2.7,5.9-5.9v-48.2c0-3.3-2.7-5.9-5.9-5.9h-48.2c-3.3,0-5.9,2.7-5.9,5.9v48.2
				c0,3.3,2.7,5.9,5.9,5.9H330.4z M324.5,850.9h-36.3v-36.3h36.3V850.9z"/>
			<path class="st0" d="M245.4,905.8c3.3,0,5.9-2.7,5.9-5.9v-91.3c0-3.3-2.7-5.9-5.9-5.9h-42.8c-3.3,0-5.9,2.7-5.9,5.9v91.3
				c0,3.3,2.7,5.9,5.9,5.9H245.4z M239.4,894h-30.9v-79.4h30.9V894z"/>
			<path class="st0" d="M402.7,762.2c-7.8-6.3-13.8-7.9-19.7-9.4c-4.6-1.2-8.9-2.3-14.9-5.9c-5.5-3.3-7.1-5.6-9.5-9.2
				c-2.5-3.7-5.7-8.3-13.6-14.7c-7.1-5.8-11.5-7.7-18.3-10.6c-5.4-2.4-12.9-5.6-25.4-12.6c-6.9-3.9-11-6.5-13.8-8.2
				c-4.4-2.8-6.4-4-11.2-5c-23.1-4.5-43.7,10.9-50.4,15.9c-8.7,6.5-11.8,11.2-14.6,15.4c-2.3,3.5-4.3,6.5-9.8,10.8
				c-9.4,7.3-16.3,8.6-24.4,10.2c-8.3,1.6-17.6,3.4-29.1,12.4c-0.9,0.7-21.6,17.1-26,43.4c-1,6-3,18.4,5.2,23.3
				c5.5,3.3,13.3,1.6,20.9-4.5c0.2-0.1,0.4-0.2,0.5-0.4L266.5,719l115,92c6.8,5.9,14.5,9,21.3,9c3.7,0,7.2-0.9,10.2-2.9
				c5-3.3,10.4-10.8,7.3-27.7C418.5,779.3,412.6,770.1,402.7,762.2z M408.6,791.6c2.1,11.5-0.8,14.8-2.2,15.7
				c-2.8,1.9-9,0.9-15.2-3.6l-121-96.9c-2.2-1.7-5.3-1.7-7.4,0l-120.9,96.7c-0.2,0.1-0.4,0.3-0.6,0.4c-3.8,3.2-6.8,4-7.8,3.9
				c-0.5-0.9-0.9-3.5,0.4-11.1c3.6-21.7,21.4-35.8,21.6-35.9c9.3-7.2,16.1-8.5,24.1-10.1c8.3-1.6,17.7-3.5,29.4-12.5
				c7.1-5.5,10-9.8,12.5-13.6c2.6-3.9,4.8-7.2,11.8-12.5c5.7-4.3,23.1-17.3,41.1-13.8c2.6,0.5,3.2,0.9,7.1,3.4
				c2.8,1.8,7.1,4.5,14.3,8.5c13,7.3,20.8,10.6,26.4,13.1c6.2,2.7,9.7,4.2,15.5,8.9c6.5,5.3,8.9,8.8,11.2,12.2
				c2.7,3.9,5.5,8,13.2,12.7c7.4,4.4,13,5.9,17.9,7.2c5.3,1.4,9.4,2.5,15.2,7.2C398.1,773.7,406.6,780.6,408.6,791.6z"/>
			<path class="st0" d="M367.4,816.8c3.3,0,5.9,2.7,5.9,5.9v76.7c13.6,0.2,27.2,5,40.5,14.5c2.7,1.9,3.3,5.6,1.4,8.3
				c-1.9,2.7-5.6,3.3-8.3,1.4c-11.4-8.1-22.8-12.2-34-12.3c-1.7,0-3.4,0.1-4.9,0.2c0,0,0,0,0,0c-6.1,0.6-11.1,2.5-17.1,4.7
				c-6.3,2.3-13.5,5-23.3,6.6c-9.9,1.6-15.1,1-22.2,0.1c-4.9-0.6-11-1.4-20.8-1.8c-24.2-0.8-39.9,2.1-52.4,4.5
				c-8.3,1.6-15.6,2.9-23.5,2.9c-7,0-14.3-1.1-23-4.2c-2.3-0.8-4.3-1.6-6.4-2.4c-5.8-2.3-11.3-4.5-19.8-5.3c-11.3-1-22.9,1-34.6,5.8
				c-3,1.3-6.5-0.2-7.8-3.2c-1.3-3,0.2-6.5,3.2-7.8c13.2-5.5,26.4-7.7,39.4-6.7v-82c0-3.3,2.7-5.9,5.9-5.9s5.9,2.7,5.9,5.9v84
				c4.6,1.2,8.4,2.7,12.2,4.2c2,0.8,3.9,1.6,5.9,2.3c15.4,5.4,25.3,3.6,40.4,0.8c13.1-2.5,29.5-5.5,55-4.7c10.4,0.4,16.8,1.2,22,1.8
				c6.8,0.9,10.6,1.4,18.7,0c8.7-1.4,15-3.8,21.1-6c4.8-1.8,9.4-3.5,14.6-4.5v-77.8C361.5,819.5,364.1,816.8,367.4,816.8z"/>
		</g>
		<g>
			<path class="st0" d="M835,738.5c3.7,0,6.7-3,6.7-6.7v-28.2c0-3.7-3-6.7-6.7-6.7h-33c-3.7,0-6.7,3-6.7,6.7c0,3.7,3,6.7,6.7,6.7
				h26.3v21.5C828.3,735.5,831.3,738.5,835,738.5z"/>
			<path class="st0" d="M824.1,580c-2.6-2.6-6.8-2.7-9.5-0.1c-7.4,7.3-11.5,17.1-11.5,27.5s4.1,20.1,11.5,27.5
				c4.9,4.8,7.5,11.2,7.5,17.9c0,6.8-2.7,13.1-7.5,17.9c-2.6,2.6-2.7,6.8-0.1,9.5c1.3,1.3,3,2,4.8,2c1.7,0,3.4-0.6,4.7-1.9
				c7.4-7.3,11.5-17.1,11.5-27.5c0-10.4-4.1-20.1-11.5-27.5c-4.9-4.8-7.5-11.2-7.5-17.9c0-6.8,2.7-13.1,7.5-17.9
				C826.6,586.8,826.7,582.6,824.1,580z"/>
			<path class="st0" d="M720.7,883.8c3.7,0,6.7-3,6.7-6.7v-54.4c0-3.7-3-6.7-6.7-6.7h-54.4c-3.7,0-6.7,3-6.7,6.7v54.4
				c0,3.7,3,6.7,6.7,6.7H720.7z M673,829.4h41v41h-41V829.4z"/>
			<path class="st0" d="M810.5,932.4c3.7,0,6.7-3,6.7-6.7v-103c0-3.7-3-6.7-6.7-6.7h-48.2c-3.7,0-6.7,3-6.7,6.7v103
				c0,3.7,3,6.7,6.7,6.7H810.5z M768.9,829.4h34.8V919h-34.8V829.4z"/>
			<path class="st0" d="M564.9,801.2c-3.4,19.1,2.6,27.5,8.3,31.2c3.3,2.2,7.3,3.2,11.5,3.2c7.7,0,16.3-3.5,24-10.2l129.7-103.8
				L871,827.9c0.2,0.2,0.4,0.3,0.6,0.4c8.7,6.9,17.4,8.8,23.6,5.1c9.3-5.6,7-19.5,5.8-26.3c-4.9-29.6-28.3-48.1-29.3-48.9
				c-13-10.1-23.5-12.1-32.8-14c-9-1.8-16.9-3.3-27.5-11.5c-6.3-4.9-8.5-8.2-11.1-12.2c-3.1-4.7-6.7-10.1-16.5-17.4
				c-7.6-5.7-30.8-23-56.9-18c-5.4,1-7.6,2.5-12.6,5.6c-3.1,1.9-7.7,4.8-15.5,9.2c-14.1,7.9-22.5,11.5-28.6,14.2
				c-7.6,3.3-12.6,5.5-20.6,11.9c-8.9,7.2-12.4,12.4-15.3,16.6c-2.7,4-4.5,6.6-10.7,10.3c-6.7,4-11.6,5.3-16.8,6.7
				c-6.6,1.7-13.4,3.5-22.2,10.6C573.7,779.3,567,789.7,564.9,801.2z M593.1,780.8c6.6-5.3,11.3-6.5,17.2-8.1
				c5.6-1.5,11.9-3.1,20.2-8.1c8.8-5.2,11.9-9.8,14.9-14.3c2.6-3.8,5.3-7.8,12.7-13.7c6.6-5.3,10.5-7,17.5-10.1
				c6.4-2.8,15.1-6.6,29.8-14.8c8.1-4.5,12.9-7.6,16.1-9.6c4.4-2.8,5.1-3.2,8-3.8c20.2-3.9,39.9,10.7,46.3,15.5
				c7.9,5.9,10.4,9.7,13.3,14.1c2.8,4.3,6,9.1,14.1,15.4c13.1,10.2,23.8,12.2,33.1,14.1c9,1.8,16.7,3.3,27.2,11.4
				c0.2,0.2,20.3,16.1,24.3,40.5c1.4,8.6,0.9,11.5,0.4,12.6c-1.2,0.1-4.5-0.9-8.8-4.4c-0.2-0.2-0.4-0.3-0.6-0.5L742.5,708
				c-2.4-2-5.9-2-8.4,0L597.7,817.2c-7,5.1-13.9,6.2-17.1,4.1c-1.5-1-4.8-4.7-2.5-17.7C580.4,791.1,590,783.4,593.1,780.8z"/>
			<path class="st0" d="M624.6,832c-3.7,0-6.7,3-6.7,6.7v86.5c-15.3,0.2-30.7,5.7-45.7,16.3c-3,2.1-3.7,6.3-1.6,9.3
				c2.1,3,6.3,3.7,9.3,1.6c12.8-9.1,25.7-13.7,38.4-13.8c2,0,3.8,0.1,5.5,0.3c0,0,0,0,0.1,0c6.9,0.7,12.5,2.8,19.2,5.3
				c7.1,2.6,15.2,5.6,26.3,7.4c11.2,1.9,17,1.1,25,0.1c5.5-0.7,12.4-1.6,23.5-2c27.3-0.9,44.9,2.4,59.1,5c9.3,1.7,17.6,3.3,26.4,3.3
				c7.9,0,16.2-1.2,26-4.7c2.5-0.9,4.9-1.8,7.2-2.7c6.5-2.6,12.7-5.1,22.3-5.9c12.7-1.1,25.9,1.1,39.1,6.6c3.4,1.4,7.3-0.2,8.8-3.6
				c1.4-3.4-0.2-7.3-3.6-8.8c-14.9-6.2-29.8-8.7-44.4-7.6v-92.5c0-3.7-3-6.7-6.7-6.7c-3.7,0-6.7,3-6.7,6.7v94.7
				c-5.2,1.3-9.5,3.1-13.7,4.8c-2.2,0.9-4.4,1.8-6.6,2.6c-17.4,6.1-28.6,4-45.5,0.9c-14.8-2.8-33.3-6.2-62-5.3
				c-11.8,0.4-19,1.3-24.8,2.1c-7.7,1-11.9,1.5-21.1,0c-9.8-1.6-17-4.3-23.8-6.8c-5.4-2-10.6-3.9-16.5-5.1v-87.8
				C631.3,835,628.3,832,624.6,832z"/>
		</g>
	</g>
</g>
</svg>
