<?xml version="1.0" encoding="utf-8"?>
<!-- Generator: Adobe Illustrator 25.0.1, SVG Export Plug-In . SVG Version: 6.00 Build 0)  -->
<svg version="1.1" id="Layer_1" xmlns="http://www.w3.org/2000/svg" xmlns:xlink="http://www.w3.org/1999/xlink" x="0px" y="0px"
	 viewBox="0 0 1024 1024" style="enable-background:new 0 0 1024 1024;" xml:space="preserve">
<style type="text/css">
	.st0{fill:#25333F;}
</style>
<g>
	<path class="st0" d="M502.2,275c0-8.6-7-15.6-15.6-15.6c-8.6,0-15.6,7-15.6,15.6c0,8.6,7,15.6,15.6,15.6
		C495.2,290.6,502.2,283.6,502.2,275z"/>
	<path class="st0" d="M554.9,276c8.6,0,15.6-7,15.6-15.6c0-8.6-7-15.6-15.6-15.6c-8.6,0-15.6,7-15.6,15.6
		C539.3,269,546.3,276,554.9,276z"/>
	<path class="st0" d="M121.4,497.1c2.5,2.5,5.7,3.8,9,3.8c3.1,0,6.3-1.2,8.7-3.5l26.9-26.1l174.9,12.5c-0.3,3.8-0.4,7.7-0.4,11.5
		c0,21,3.9,41.1,10.9,59.7c-47.6,44-74.7,105.7-74.7,170.7c0,128.2,104.3,232.4,232.4,232.4c128.2,0,232.4-104.3,232.4-232.4
		c0-65-27.1-126.7-74.7-170.7c7-18.6,10.9-38.7,10.9-59.7c0-10.5-1-21-3-31.2l182.8-62.7l32.4,10c1.2,0.4,2.5,0.6,3.7,0.6
		c5.3,0,10.3-3.5,12-8.8c2-6.6-1.7-13.6-8.3-15.7l-25.4-7.9l5.1-23.9c1.4-6.8-2.9-13.4-9.6-14.9c-6.8-1.5-13.4,2.9-14.9,9.6l-6,28.2
		l-178.3,61.2c-9.8-28.1-27-53.4-49.9-73c4.8-8.3,8.6-17.1,11.4-26.5l33.6,5.1c0.6,0.1,1.3,0.1,1.9,0.1c6.1,0,11.4-4.5,12.4-10.7
		c1-6.8-3.7-13.2-10.5-14.3l-32.6-4.9c0.3-3.8,0.5-7.6,0.5-11.5c0-25.8-8-50.8-22.5-71.8c0.8-0.5,1.6-1.1,2.3-1.8
		c4.1-3.6,10.3-12.1,6-28.3c-6.8-25.8-41.3-67.2-96.4-78.6c-13.3-2.7-28.3-3.8-43.5-2.8c0.1-1,0.1-2,0.1-3c0-28.7-23.3-52-52-52
		c-28.7,0-52,23.3-52,52c0,16.2,7.3,30.9,19.4,40.5c-14.8,17.8-22,40.9-18.5,61.1c2.3,13.1,8.9,23,18.8,28.1
		c-8.8,17.4-13.4,36.7-13.4,56.5c0,22.7,6.1,44.1,16.7,62.5c-28.1,23.9-47.4,56.4-55.4,92.1l-177.8-12.7L139,419.6
		c-5-4.8-12.9-4.6-17.7,0.4c-4.8,5-4.6,12.9,0.4,17.7l21.5,20.7l-21.6,21C116.7,484.2,116.6,492.1,121.4,497.1z M537.1,326.4
		l67.5,10.2c-7.6,22.4-22.9,41.3-42.7,53.5c-0.3,0.2-0.6,0.4-0.9,0.5c-1.1,0.6-2.1,1.3-3.2,1.9c-0.6,0.3-1.1,0.6-1.7,0.9
		c-0.6,0.3-1.2,0.6-1.7,0.9c-1.2,0.6-2.4,1.2-3.6,1.7c-0.3,0.1-0.6,0.3-0.9,0.4c-2.6,1.2-5.2,2.2-7.9,3.1c-0.1,0-0.2,0.1-0.3,0.1
		c-1.7,0.6-3.5,1.1-5.2,1.6c-0.1,0-0.3,0.1-0.4,0.1c-2.6,0.7-5.3,1.3-8,1.9c-0.6,0.1-1.2,0.2-1.9,0.3c-0.9,0.2-1.9,0.3-2.8,0.4
		c-1,0.1-1.9,0.3-2.9,0.4c-0.5,0.1-1,0.1-1.6,0.2c-1.3,0.1-2.7,0.2-4.1,0.3c-0.3,0-0.7,0-1,0c-1.5,0.1-3,0.1-4.5,0.1c0,0,0,0-0.1,0
		s0,0-0.1,0c-1.5,0-3,0-4.5-0.1c-0.3,0-0.7,0-1,0c-1.4-0.1-2.7-0.2-4.1-0.3c-0.5-0.1-1-0.1-1.6-0.2c-1-0.1-1.9-0.2-2.9-0.4
		c-0.9-0.1-1.9-0.3-2.8-0.4c-0.6-0.1-1.2-0.2-1.9-0.3c-2.7-0.5-5.4-1.1-8-1.9c-0.1,0-0.3-0.1-0.4-0.1c-1.8-0.5-3.5-1-5.2-1.6
		c-0.1,0-0.2-0.1-0.3-0.1c-2.7-0.9-5.3-2-7.9-3.1c-0.3-0.1-0.6-0.3-0.9-0.4c-1.2-0.5-2.4-1.1-3.6-1.7c-0.6-0.3-1.2-0.6-1.7-0.9
		c-0.6-0.3-1.1-0.6-1.7-0.9c-1.1-0.6-2.2-1.2-3.2-1.9c-0.3-0.2-0.6-0.4-0.9-0.5c-28.8-17.8-48-49.6-48-85.9
		c0-19.8,5.7-38.7,16.4-55.1c1.8-0.5,3.7-1.2,5.5-1.9c0.3-0.1,0.7-0.3,1-0.4c0.2-0.1,0.5-0.2,0.7-0.3c3.8-1.5,7.6-3.2,11.7-5
		c13.9-6.2,30.8-13.6,53.8-16.9c4.2-0.6,8.5-1.1,13.1-1.4c10.2-0.7,19.4-0.4,27.8,0.5c15.6,1.6,28.4,5,38.6,7.8c1,0.3,2,0.5,3,0.8
		c19.1,18.9,30.1,44.9,30.1,71.8c0,2.6-0.1,5.2-0.3,7.7l-68.8-10.4c-6.8-1-13.2,3.7-14.3,10.5C525.5,319,530.2,325.4,537.1,326.4z
		 M519.3,148.4c34.9,7.2,59.6,29.1,71,47.1c4.5,7.1,6.1,12.3,6.6,15.3c-2.4-0.4-5.6-1.2-8.8-2c-0.5-0.1-0.9-0.2-1.4-0.4
		c-0.3-0.1-0.6-0.2-0.9-0.2c-0.8-0.2-1.6-0.4-2.4-0.7c-7-1.9-15.6-4.2-25.6-6.1c-0.3-0.1-0.5-0.1-0.8-0.2c-1.1-0.2-2.3-0.4-3.4-0.6
		c-0.4-0.1-0.8-0.1-1.2-0.2c-0.9-0.1-1.9-0.3-2.9-0.4c-0.6-0.1-1.3-0.2-1.9-0.3c-1.6-0.2-3.2-0.4-4.8-0.6c-0.1,0-0.1,0-0.2,0
		c-1.5-0.2-2.9-0.3-4.4-0.4c-0.2,0-0.5,0-0.7-0.1c-1.4-0.1-2.8-0.2-4.2-0.3c-0.4,0-0.8-0.1-1.1-0.1c-0.7,0-1.4-0.1-2.1-0.1
		c-6.7-0.3-13.7-0.3-21.3,0.2c-6.7,0.4-12.9,1.2-18.8,2.2c-24.5,4-42.6,12-56.5,18.2c-7.4,3.3-13.9,6.1-18.7,7.2
		c-2.6,0.5-4.7,0.6-6.3-0.2c-3.9-1.8-5.4-7.3-5.9-10.3c-2-11.7,2.5-31,17.3-45.4l0,0c1.6-1.6,3.3-3.1,5.2-4.5c1-0.8,2.1-1.6,3.2-2.3
		c0.4-0.3,0.8-0.6,1.2-0.8c0.2-0.1,0.4-0.3,0.6-0.4c0.7-0.4,1.4-0.9,2.1-1.3c0.1,0,0.2-0.1,0.2-0.1
		C456.9,145.8,492.6,142.9,519.3,148.4z M429,91.1c14.8,0,26.9,12.1,26.9,26.9c0,1-0.1,2-0.2,3.1c-7.7,2.7-14.9,6.2-21.5,10.4
		c-6.5,2.7-12.8,6-18.6,9.9c-8.3-4.7-13.5-13.5-13.5-23.4C402.1,103.1,414.1,91.1,429,91.1z M365.9,485.5l33.3,2.4
		c0.3,0,0.6,0,0.9,0c6.5,0,12-5,12.5-11.6c0.5-6.9-4.7-12.9-11.6-13.4l-31.2-2.2c7.1-28.2,22.6-54,44.7-73.4
		c7.7,8.8,16.6,16.4,26.3,22.7c0.3,0.2,0.6,0.4,0.9,0.6c0.4,0.3,0.9,0.6,1.3,0.8c0.6,0.4,1.2,0.7,1.8,1.1c0.2,0.1,0.4,0.2,0.6,0.4
		c17.7,10.4,38.2,16.6,60,17.2c0.1,0,0.1,0,0.2,0c1.1,0,2.3,0,3.4,0c1.1,0,2.3,0,3.4,0c0.1,0,0.1,0,0.2,0c21.8-0.6,42.3-6.8,60-17.2
		c0.2-0.1,0.4-0.2,0.6-0.4c0.6-0.4,1.2-0.7,1.8-1.1c0.4-0.3,0.9-0.6,1.3-0.8c0.3-0.2,0.6-0.4,0.9-0.6c9.7-6.3,18.6-13.9,26.3-22.7
		c30.8,27.1,49,66.6,49,108c0,52.8-28.7,99-71.2,124c-0.6,0.3-1.1,0.6-1.7,1c-0.6,0.3-1.2,0.7-1.8,1c-1.2,0.7-2.5,1.3-3.7,2
		c-0.1,0.1-0.3,0.1-0.4,0.2c-1.3,0.7-2.7,1.3-4,2c-0.1,0.1-0.3,0.1-0.4,0.2c-13.8,6.4-28.8,10.6-44.3,12.4c-0.1,0-0.2,0-0.3,0
		c-1.7,0.2-3.4,0.3-5.1,0.5c-0.1,0-0.1,0-0.2,0c-1.5,0.1-3,0.2-4.5,0.2c-0.4,0-0.8,0-1.1,0c-1.6,0.1-3.2,0.1-4.8,0.1
		c-1.6,0-3.2,0-4.8-0.1c-0.4,0-0.8,0-1.1,0c-1.5-0.1-3-0.1-4.5-0.2c-0.1,0-0.1,0-0.2,0c-1.7-0.1-3.4-0.3-5.1-0.5c-0.1,0-0.2,0-0.3,0
		c-15.5-1.7-30.4-6-44.3-12.4c-0.1-0.1-0.3-0.1-0.4-0.2c-1.4-0.6-2.7-1.3-4-2c-0.1-0.1-0.3-0.1-0.4-0.2c-1.2-0.6-2.5-1.3-3.7-2
		c-0.6-0.3-1.2-0.7-1.8-1c-0.6-0.3-1.1-0.6-1.6-1c-42.6-24.9-71.2-71.2-71.2-124C365.5,491.9,365.6,488.7,365.9,485.5z M421.5,639.2
		c0.2,0.1,0.4,0.2,0.6,0.4c1,0.6,2,1.2,3,1.8c0.8,0.4,1.5,0.9,2.3,1.3c0.9,0.5,1.7,0.9,2.6,1.4c1.1,0.6,2.2,1.2,3.4,1.8
		c0.4,0.2,0.7,0.4,1.1,0.5c1.4,0.7,2.9,1.4,4.3,2.1c0,0,0,0,0.1,0c18,8.3,37.7,13.5,58.5,14.9c0.4,0,0.7,0,1.1,0.1
		c1.4,0.1,2.7,0.2,4.1,0.2c0.5,0,0.9,0,1.4,0.1c1.7,0.1,3.5,0.1,5.2,0.1s3.5,0,5.2-0.1c0.5,0,0.9,0,1.4-0.1c1.4-0.1,2.7-0.1,4.1-0.2
		c0.4,0,0.7,0,1.1-0.1c20.7-1.4,40.5-6.6,58.5-14.9c0,0,0.1,0,0.1,0c1.4-0.7,2.9-1.4,4.3-2.1c0.4-0.2,0.7-0.4,1.1-0.5
		c1.1-0.6,2.2-1.1,3.3-1.7c0.9-0.5,1.9-1,2.8-1.5c0.7-0.4,1.4-0.8,2.1-1.2c1-0.6,2-1.2,3.1-1.8c0.2-0.1,0.4-0.2,0.5-0.3
		c24.1-14.7,44.5-35.3,58.9-60.4c38.9,38.8,60.9,91.4,60.9,146.8c0,114.3-93,207.4-207.4,207.4c-114.3,0-207.4-93-207.4-207.4
		c0-55.3,22-108,60.9-146.8C377,603.9,397.4,624.6,421.5,639.2z"/>
	<path class="st0" d="M511.2,354.3c-6.3-2.9-13.7-0.2-16.6,6.1c-2.9,6.3-0.2,13.7,6.1,16.6c4.9,2.2,13.5,5.3,24.2,5.3
		c3.7,0,7.8-0.4,11.9-1.3c9.3-2,18-6.5,25.2-12.9c5.2-4.6,5.7-12.5,1.1-17.7c-4.6-5.2-12.5-5.7-17.7-1.1c-2.8,2.5-7.5,5.7-14,7.2
		C522.5,358.5,514.9,356,511.2,354.3z"/>
</g>
</svg>
