<?xml version="1.0" encoding="utf-8"?>
<!-- Generator: Adobe Illustrator 25.0.1, SVG Export Plug-In . SVG Version: 6.00 Build 0)  -->
<svg version="1.1" id="Layer_1" xmlns="http://www.w3.org/2000/svg" xmlns:xlink="http://www.w3.org/1999/xlink" x="0px" y="0px"
	 viewBox="0 0 1024 1024" style="enable-background:new 0 0 1024 1024;" xml:space="preserve">
<style type="text/css">
	.st0{fill:#25333F;}
</style>
<g>
	<path class="st0" d="M66.1,901.8c0,0.2,0.1,0.4,0.1,0.7c0,0.2,0.1,0.5,0.1,0.7c0,0.2,0.1,0.5,0.2,0.7c0.1,0.2,0.1,0.4,0.2,0.6
		c0.1,0.2,0.1,0.5,0.2,0.7c0.1,0.2,0.1,0.4,0.2,0.6c0.1,0.2,0.2,0.4,0.3,0.6c0.1,0.2,0.2,0.4,0.3,0.7c0.1,0.2,0.2,0.4,0.3,0.5
		c0.1,0.2,0.3,0.4,0.4,0.7c0.1,0.2,0.2,0.3,0.3,0.5c0.1,0.2,0.3,0.4,0.5,0.6c0.1,0.2,0.3,0.3,0.4,0.5c0.2,0.2,0.3,0.4,0.5,0.5
		c0.2,0.2,0.3,0.3,0.5,0.5c0.1,0.1,0.2,0.2,0.4,0.3c0,0,0.1,0.1,0.1,0.1c0.1,0.1,0.3,0.2,0.5,0.4c0.2,0.2,0.4,0.3,0.6,0.5
		c0.2,0.1,0.3,0.2,0.5,0.3c0.2,0.1,0.4,0.3,0.7,0.4c0.2,0.1,0.3,0.2,0.5,0.2c0.2,0.1,0.5,0.2,0.7,0.3c0.2,0.1,0.3,0.1,0.5,0.2
		c0.2,0.1,0.5,0.2,0.7,0.3c0.2,0.1,0.3,0.1,0.5,0.2c0.3,0.1,0.5,0.1,0.8,0.2c0.2,0,0.3,0.1,0.5,0.1c0.3,0.1,0.6,0.1,0.9,0.1
		c0.1,0,0.3,0,0.4,0.1c0.4,0,0.9,0.1,1.3,0.1h0h0h863.9h0h0c0.4,0,0.9,0,1.3-0.1c0.2,0,0.3,0,0.5-0.1c0.3,0,0.6-0.1,0.9-0.1
		c0.2,0,0.4-0.1,0.5-0.1c0.2-0.1,0.5-0.1,0.7-0.2c0.2-0.1,0.4-0.1,0.5-0.2c0.2-0.1,0.5-0.2,0.7-0.3c0.2-0.1,0.4-0.1,0.5-0.2
		c0.2-0.1,0.5-0.2,0.7-0.3c0.2-0.1,0.3-0.2,0.5-0.3c0.2-0.1,0.4-0.3,0.6-0.4c0.2-0.1,0.3-0.2,0.5-0.3c0.2-0.1,0.4-0.3,0.6-0.4
		c0.2-0.1,0.3-0.2,0.5-0.4c0,0,0.1-0.1,0.1-0.1c0.1-0.1,0.2-0.2,0.4-0.3c0.2-0.2,0.4-0.3,0.5-0.5c0.2-0.2,0.3-0.4,0.5-0.5
		c0.1-0.2,0.3-0.3,0.4-0.5c0.2-0.2,0.3-0.4,0.5-0.6c0.1-0.2,0.2-0.3,0.3-0.5c0.1-0.2,0.3-0.4,0.4-0.7c0.1-0.2,0.2-0.4,0.3-0.5
		c0.1-0.2,0.2-0.4,0.3-0.7c0.1-0.2,0.2-0.4,0.3-0.6c0.1-0.2,0.2-0.4,0.2-0.6c0.1-0.2,0.2-0.5,0.2-0.7c0.1-0.2,0.1-0.4,0.2-0.6
		c0.1-0.2,0.1-0.5,0.2-0.7c0-0.2,0.1-0.5,0.1-0.7c0-0.2,0.1-0.4,0.1-0.7c0-0.3,0-0.5,0-0.8c0-0.1,0-0.3,0-0.4V123.4
		c0-0.1,0-0.3,0-0.4c0-0.3,0-0.5,0-0.8c0-0.2-0.1-0.4-0.1-0.7c0-0.2-0.1-0.5-0.1-0.7c0-0.2-0.1-0.5-0.2-0.7
		c-0.1-0.2-0.1-0.4-0.2-0.6c-0.1-0.2-0.1-0.5-0.2-0.7c-0.1-0.2-0.1-0.4-0.2-0.6c-0.1-0.2-0.2-0.4-0.3-0.6c-0.1-0.2-0.2-0.4-0.3-0.7
		c-0.1-0.2-0.2-0.4-0.3-0.5c-0.1-0.2-0.3-0.4-0.4-0.7c-0.1-0.2-0.2-0.3-0.3-0.5c-0.1-0.2-0.3-0.4-0.5-0.6c-0.1-0.2-0.3-0.3-0.4-0.5
		c-0.2-0.2-0.3-0.4-0.5-0.5c-0.2-0.2-0.3-0.3-0.5-0.5c-0.1-0.1-0.2-0.2-0.4-0.3c0,0-0.1-0.1-0.1-0.1c-0.2-0.2-0.4-0.3-0.6-0.5
		c-0.2-0.1-0.3-0.3-0.5-0.4c-0.2-0.1-0.4-0.3-0.6-0.4c-0.2-0.1-0.4-0.2-0.6-0.3c-0.2-0.1-0.4-0.2-0.6-0.3c-0.2-0.1-0.4-0.2-0.6-0.3
		c-0.2-0.1-0.4-0.2-0.6-0.2c-0.2-0.1-0.5-0.2-0.7-0.2c-0.2-0.1-0.4-0.1-0.6-0.2c-0.2-0.1-0.5-0.1-0.7-0.2c-0.2,0-0.4-0.1-0.6-0.1
		c-0.3,0-0.5-0.1-0.8-0.1c-0.2,0-0.4,0-0.6,0c-0.3,0-0.6,0-0.8,0c0,0-0.1,0-0.1,0H80.1c-0.1,0-0.1,0-0.2,0c-0.2,0-0.5,0-0.7,0
		c-0.2,0-0.4,0-0.7,0c-0.2,0-0.4,0.1-0.7,0.1c-0.2,0-0.5,0.1-0.7,0.1c-0.2,0-0.4,0.1-0.6,0.1c-0.3,0.1-0.5,0.1-0.8,0.2
		c-0.2,0.1-0.4,0.1-0.5,0.2c-0.3,0.1-0.5,0.2-0.8,0.3c-0.2,0.1-0.3,0.2-0.5,0.2c-0.2,0.1-0.5,0.2-0.7,0.4c-0.2,0.1-0.3,0.2-0.5,0.3
		c-0.2,0.1-0.5,0.3-0.7,0.4c-0.2,0.1-0.3,0.2-0.5,0.4c-0.2,0.2-0.4,0.3-0.6,0.5c0,0-0.1,0.1-0.1,0.1c-0.1,0.1-0.2,0.2-0.4,0.3
		c-0.2,0.2-0.4,0.3-0.5,0.5c-0.2,0.2-0.3,0.4-0.5,0.5c-0.1,0.2-0.3,0.3-0.4,0.5c-0.2,0.2-0.3,0.4-0.5,0.6c-0.1,0.2-0.2,0.3-0.3,0.5
		c-0.1,0.2-0.3,0.4-0.4,0.7c-0.1,0.2-0.2,0.4-0.3,0.5c-0.1,0.2-0.2,0.4-0.3,0.7c-0.1,0.2-0.2,0.4-0.3,0.6c-0.1,0.2-0.2,0.4-0.2,0.6
		c-0.1,0.2-0.2,0.4-0.2,0.7c-0.1,0.2-0.1,0.4-0.2,0.6c-0.1,0.2-0.1,0.5-0.2,0.7c0,0.2-0.1,0.5-0.1,0.7c0,0.2-0.1,0.4-0.1,0.7
		c0,0.3,0,0.5,0,0.8c0,0.1,0,0.3,0,0.4v777.1c0,0.2,0,0.3,0,0.4C66,901.3,66,901.5,66.1,901.8z M110.8,886.5L355,603.3
		c0.2,0.2,0.4,0.4,0.7,0.6l19.1,17.2l12.5,22.5c1.5,2.7,3.9,4.9,6.8,6.1l23.6,10.1l19.1,17.2c2.3,2.1,5.3,3.4,8.4,3.6l25.6,1.9
		l23.6,10.1c1.8,0.7,3.6,1.1,5.5,1.1c1.2,0,2.4-0.2,3.6-0.5l24.8-6.6l25.6,1.8c3.1,0.2,6.2-0.6,8.8-2.3l21.4-14.3l24.8-6.6
		c3-0.8,5.7-2.6,7.6-5.1l15.6-20.4l21.4-14.3c2.6-1.7,4.5-4.3,5.5-7.3l6.3-19.1l247.9,287.4H110.8z M657.3,560.2l-14.1,18.5
		c-0.9,1.2-1.7,2.6-2.2,4.1l-7.3,22l-19.3,12.9c-1.3,0.9-2.4,1.9-3.4,3.2l-14.1,18.5l-22.4,5.9c-1.5,0.4-2.9,1-4.2,1.9L551.2,660
		l-23.1-1.7c-1.5-0.1-3.1,0-4.6,0.4l-22.4,5.9l-21.3-9.1c-1.4-0.6-3-1-4.5-1.1l-23.1-1.7l-17.2-15.5c-1.2-1-2.5-1.9-3.9-2.5
		l-21.3-9.1l-11.3-20.3c-0.8-1.4-1.7-2.6-2.9-3.6l-17.2-15.5l-4.1-22.8c-0.3-1.5-0.8-3-1.5-4.4l-11.3-20.3l3.6-22.9
		c0.2-1.5,0.2-3.1-0.1-4.6l-4.1-22.8l10.8-20.5c0.7-1.4,1.2-2.9,1.5-4.4l3.6-22.9l16.9-15.9c1.1-1.1,2.1-2.3,2.8-3.7l10.8-20.5
		l21.1-9.5c1.4-0.6,2.7-1.5,3.9-2.6l16.9-15.9l23.1-2.2c1.5-0.1,3.1-0.5,4.5-1.2l21.1-9.5l22.6,5.5c1.5,0.4,3.1,0.5,4.6,0.3
		l23.1-2.2l19.6,12.5c1.3,0.8,2.8,1.5,4.3,1.8l22.6,5.5l14.4,18.2c1,1.2,2.1,2.3,3.4,3.1l19.6,12.5l7.8,21.9
		c0.5,1.5,1.3,2.8,2.2,4.1l14.4,18.2l0.2,23.2c0,1.6,0.3,3.1,0.8,4.6l7.8,21.9l-7.3,22c-0.5,1.5-0.7,3-0.7,4.6L657.3,560.2z
		 M929.9,862.7L681.5,574.8l1.1-1.5c1.9-2.5,2.9-5.5,2.9-8.7l-0.3-25.7l8.1-24.4c1-3,0.9-6.2-0.1-9.1l-8.6-24.2l-0.3-25.7
		c0-2.6-0.8-5.1-2.1-7.3l247.6-287.1V862.7z M913.2,137.5l-248.4,288l-8.1-22.8c-1-2.9-3.1-5.5-5.7-7.2l-21.7-13.8l-16-20.1
		c-1.9-2.5-4.7-4.2-7.7-4.9l-25-6l-21.7-13.8c-2.6-1.7-5.8-2.4-8.9-2.1l-25.6,2.4l-25-6c-3-0.7-6.2-0.4-9.1,0.9l-23.4,10.6
		l-25.6,2.4c-3.1,0.3-6,1.6-8.3,3.8l-18.7,17.6l-23.4,10.6c-2.9,1.3-5.2,3.5-6.7,6.3l-12,22.7l-16.7,15.7l-245-284H913.2z
		 M94.1,161.3l252,292.1l-0.5,3.4l-12,22.7c-1.5,2.8-2,5.9-1.4,9l4.5,25.3l-4,25.4c-0.5,3.1,0.1,6.3,1.6,9l12.2,21.9L94.1,862.7
		V161.3z"/>
	<path class="st0" d="M636.3,440.2c-3.9-6.7-12.5-9-19.2-5.1l-24.7,14.2l1.2-4.6c2-7.5-2.4-15.2-10-17.2c-7.5-2-15.2,2.4-17.2,10
		l-8.5,31.8l-31.9,18.4v-36.8l23.3-23.3c5.5-5.5,5.5-14.4,0-19.9c-5.5-5.5-14.4-5.5-19.9,0l-3.4,3.4v-28.5c0-7.8-6.3-14.1-14.1-14.1
		c-7.8,0-14.1,6.3-14.1,14.1V411l-3.4-3.4c-5.5-5.5-14.4-5.5-19.9,0c-5.5,5.5-5.5,14.4,0,19.9l23.3,23.3v36.8l-31.9-18.4l-8.5-31.8
		c-2-7.5-9.7-12-17.2-10c-7.5,2-12,9.7-9.9,17.2l1.2,4.6l-24.7-14.2c-6.7-3.9-15.3-1.6-19.2,5.1c-3.9,6.7-1.6,15.3,5.1,19.2
		l24.7,14.2l-4.6,1.2c-7.5,2-12,9.7-9.9,17.2c1.7,6.3,7.4,10.4,13.6,10.4c1.2,0,2.4-0.2,3.7-0.5l31.8-8.5l31.9,18.4L452,530.4
		l-31.8-8.5c-7.5-2-15.2,2.4-17.2,9.9c-2,7.5,2.4,15.2,9.9,17.2l4.6,1.2l-24.7,14.2c-6.7,3.9-9,12.5-5.1,19.2c2.6,4.5,7.3,7,12.2,7
		c2.4,0,4.8-0.6,7-1.9l24.7-14.2l-1.2,4.6c-2,7.5,2.4,15.2,9.9,17.2c1.2,0.3,2.4,0.5,3.7,0.5c6.2,0,11.9-4.1,13.6-10.4l8.5-31.8
		l31.9-18.4v36.8l-23.3,23.3c-5.5,5.5-5.5,14.4,0,19.9c2.7,2.7,6.3,4.1,9.9,4.1c3.6,0,7.2-1.4,10-4.1l3.4-3.4v28.5
		c0,7.8,6.3,14.1,14.1,14.1c7.8,0,14.1-6.3,14.1-14.1V613l3.4,3.4c2.7,2.7,6.3,4.1,9.9,4.1c3.6,0,7.2-1.4,9.9-4.1
		c5.5-5.5,5.5-14.4,0-19.9l-23.3-23.3v-36.8l31.9,18.4l8.5,31.8c1.7,6.3,7.4,10.4,13.6,10.4c1.2,0,2.4-0.2,3.6-0.5
		c7.5-2,12-9.7,10-17.2l-1.2-4.6l24.7,14.2c2.2,1.3,4.6,1.9,7,1.9c4.9,0,9.6-2.5,12.2-7c3.9-6.7,1.6-15.3-5.1-19.2l-24.7-14.2
		l4.6-1.2c7.5-2,12-9.7,10-17.2c-2-7.5-9.7-12-17.2-9.9l-31.8,8.5L540.1,512l31.9-18.4l31.8,8.5c1.2,0.3,2.4,0.5,3.6,0.5
		c6.2,0,11.9-4.1,13.6-10.4c2-7.5-2.4-15.2-10-17.2l-4.6-1.2l24.7-14.2C637.9,455.6,640.2,447,636.3,440.2z"/>
</g>
</svg>
