<?xml version="1.0" encoding="utf-8"?>
<!-- Generator: Adobe Illustrator 25.0.1, SVG Export Plug-In . SVG Version: 6.00 Build 0)  -->
<svg version="1.1" id="Layer_1" xmlns="http://www.w3.org/2000/svg" xmlns:xlink="http://www.w3.org/1999/xlink" x="0px" y="0px"
	 viewBox="0 0 1024 1024" style="enable-background:new 0 0 1024 1024;" xml:space="preserve">
<style type="text/css">
	.st0{fill:#25333F;}
	.st1{fill:#FFFFFF;}
</style>
<g>
	<g>
		<g>
			<path class="st0" d="M294.4,478.3c-3,2.6-8.5,7.4-13.3,11.1l-13.5,12.7c0,0,0,0-0.1,0.1l-21.2,21.2l-108.8,3.5
				c-27,0-48.9,21.9-48.9,48.9l-11.1,108c0,8.2,6.7,14.9,14.9,14.9h39.1c8.2,0,14.9-6.7,14.9-14.9v-46.3c0-2.2,1.8-4,4-4h52.5
				c2.2,0,4,1.8,4,4v46.3c0,8.2,6.7,14.9,14.9,14.9h39.1c8.2,0,14.9-6.7,14.9-14.9l-11.1-76.4c0-4.1,1.6-8,4.5-10.9l28.9-28.9
				c3.3-3,5.5-4.3,7-4.3c0,0,0,0,0,0c1.9,0,5.1,1.9,8.3,4l26,19.7c5.6,4.2,13.6,3.7,18.5-1.3l21.7-21.7c5.5-5.5,5.5-14.5,0-20
				l-55.2-55.4c0,0-5.7-4.7-11.6-10.1C307.8,474.4,298.5,474.7,294.4,478.3z M312.3,492.8c6.4,6.4,59.2,59.4,59.2,59.4
				c0.6,0.6,0.9,1.3,0.9,2.1c0,0.8-0.3,1.5-0.9,2.1l-21.7,21.7c-1,1-2.7,1.2-3.9,0.3l-26.1-19.8c-0.1-0.1-0.2-0.1-0.3-0.2
				c-11.2-7.5-17.7-9-29.2,1.3c-0.1,0.1-0.1,0.1-0.2,0.2l-29,29c-5,5-7.8,11.7-7.8,18.7l11.1,76.4c0,2.1-1.7,3.8-3.8,3.8h-39.1
				c-2.1,0-3.8-1.7-3.8-3.8v-46.3c0-8.4-6.8-15.2-15.2-15.2h-52.5c-8.4,0-15.2,6.8-15.2,15.2v46.3c0,2.1-1.7,3.8-3.8,3.8H92.3
				c-2.1,0-3.8-1.7-3.8-3.8l11.1-108c0-20.8,16.9-37.8,37.8-37.8l111.1-3.5c1.5,0,2.9-0.6,3.9-1.6l22.8-22.8c0,0,9.7-8.8,17.5-16.7
				S304.5,484.9,312.3,492.8z"/>
		</g>
		<g>
			<path class="st1" d="M312.3,492.8c6.4,6.4,59.2,59.4,59.2,59.4c0.6,0.6,0.9,1.3,0.9,2.1c0,0.8-0.3,1.5-0.9,2.1l-21.7,21.7
				c-1,1-2.7,1.2-3.9,0.3l-26.1-19.8c-0.1-0.1-0.2-0.1-0.3-0.2c-11.2-7.5-17.7-9-29.2,1.3c-0.1,0.1-0.1,0.1-0.2,0.2l-29,29
				c-5,5-7.8,11.7-7.8,18.7l11.1,76.4c0,2.1-1.7,3.8-3.8,3.8h-39.1c-2.1,0-3.8-1.7-3.8-3.8v-46.3c0-8.4-6.8-15.2-15.2-15.2h-52.5
				c-8.4,0-15.2,6.8-15.2,15.2v46.3c0,2.1-1.7,3.8-3.8,3.8H92.3c-2.1,0-3.8-1.7-3.8-3.8l11.1-108c0-20.8,16.9-37.8,37.8-37.8
				l111.1-3.5c1.5,0,2.9-0.6,3.9-1.6l22.8-22.8c0,0,9.7-8.8,17.5-16.7S304.5,484.9,312.3,492.8z"/>
		</g>
	</g>
	<g>
		<g>
			<g>
				<path class="st0" d="M783.6,447.6c-3,2.6-8.5,7.4-13.3,11.1l-13.5,12.7c0,0,0,0-0.1,0.1l-21.2,21.2l-108.8,3.5
					c-27,0-48.9,21.9-48.9,48.9l-11.1,108c0,8.2,6.7,14.9,14.9,14.9h39.1c8.2,0,14.9-6.7,14.9-14.9v-46.3c0-2.2,1.8-4,4-4H692
					c2.2,0,4,1.8,4,4v46.3c0,8.2,6.7,14.9,14.9,14.9H750c8.2,0,14.9-6.7,14.9-14.9l-11.1-76.4c0-4.1,1.6-8,4.5-10.9l28.9-28.9
					c3.3-3,5.5-4.3,7-4.3c0,0,0,0,0,0c1.9,0,5.1,1.9,8.3,4l26,19.7c5.6,4.2,13.6,3.7,18.5-1.3l21.7-21.7c5.5-5.5,5.5-14.5,0-20
					l-55.2-55.4c0,0-5.7-4.7-11.6-10.1C797.1,443.7,787.8,444,783.6,447.6z M801.6,462.1c6.4,6.4,59.2,59.4,59.2,59.4
					c0.6,0.6,0.9,1.3,0.9,2.1c0,0.8-0.3,1.5-0.9,2.1l-21.7,21.7c-1,1-2.7,1.2-3.9,0.3L809,527.7c-0.1-0.1-0.2-0.1-0.3-0.2
					c-11.2-7.5-17.7-9-29.2,1.3c-0.1,0.1-0.1,0.1-0.2,0.2l-29,29c-5,5-7.8,11.7-7.8,18.7l11.1,76.4c0,2.1-1.7,3.8-3.8,3.8H711
					c-2.1,0-3.8-1.7-3.8-3.8v-46.3c0-8.4-6.8-15.2-15.2-15.2h-52.5c-8.4,0-15.2,6.8-15.2,15.2v46.3c0,2.1-1.7,3.8-3.8,3.8h-39.1
					c-2.1,0-3.8-1.7-3.8-3.8l11.1-108c0-20.8,16.9-37.8,37.8-37.8l111.1-3.5c1.5,0,2.9-0.6,3.9-1.6l22.8-22.8c0,0,9.7-8.8,17.5-16.7
					C790,454.9,793.7,454.2,801.6,462.1z"/>
			</g>
			<g>
				<path class="st1" d="M801.6,462.1c6.4,6.4,59.2,59.4,59.2,59.4c0.6,0.6,0.9,1.3,0.9,2.1c0,0.8-0.3,1.5-0.9,2.1l-21.7,21.7
					c-1,1-2.7,1.2-3.9,0.3L809,527.7c-0.1-0.1-0.2-0.1-0.3-0.2c-11.2-7.5-17.7-9-29.2,1.3c-0.1,0.1-0.1,0.1-0.2,0.2l-29,29
					c-5,5-7.8,11.7-7.8,18.7l11.1,76.4c0,2.1-1.7,3.8-3.8,3.8H711c-2.1,0-3.8-1.7-3.8-3.8v-46.3c0-8.4-6.8-15.2-15.2-15.2h-52.5
					c-8.4,0-15.2,6.8-15.2,15.2v46.3c0,2.1-1.7,3.8-3.8,3.8h-39.1c-2.1,0-3.8-1.7-3.8-3.8l11.1-108c0-20.8,16.9-37.8,37.8-37.8
					l111.1-3.5c1.5,0,2.9-0.6,3.9-1.6l22.8-22.8c0,0,9.7-8.8,17.5-16.7C790,454.9,793.7,454.2,801.6,462.1z"/>
			</g>
		</g>
		<g>
			<g>
				<path class="st1" d="M647.1,570c-3.2,0-5.9-2.6-5.9-5.9v-57.3c0-3.2,2.6-5.9,5.9-5.9h59c3.2,0,5.9,2.6,5.9,5.9v57.3
					c0,3.2-2.6,5.9-5.9,5.9H647.1z"/>
			</g>
			<g>
				<path class="st0" d="M706.1,506.8v57.3h-59v-57.3H706.1 M706.1,495.1h-59c-6.5,0-11.7,5.2-11.7,11.7v57.3
					c0,6.5,5.2,11.7,11.7,11.7h59c6.5,0,11.7-5.2,11.7-11.7v-57.3C717.9,500.4,712.6,495.1,706.1,495.1L706.1,495.1z"/>
			</g>
		</g>
		<g>
			<g>
				<path class="st1" d="M768.5,674.8c-15.8,4.8-32.2,7.2-48.7,7.2c0,0,0,0,0,0c-16.6,0-33-2.4-48.8-7.3c-1.9-0.6-3.3-2.4-3.2-4.4
					c0.4-26.3,3.6-52.3,9.7-77.2c7.5-30.8,16.7-50.1,21.5-58.8c2.4-4.4,5.1-8.7,7.8-13c0.3,0.1,0.5,0.1,0.8,0.2
					c0.1,0,0.3,0.1,0.4,0.1c0.3,0.1,0.6,0.2,0.8,0.2c0.2,0,0.3,0.1,0.5,0.1c0.4,0.1,0.9,0.2,1.3,0.3c0.2,0,0.4,0.1,0.6,0.1
					c0.2,0,0.5,0.1,0.7,0.1c0.3,0.1,0.6,0.1,0.8,0.1c0.3,0,0.6,0.1,0.9,0.1c0.3,0,0.6,0.1,0.9,0.1c0.2,0,0.4,0,0.6,0.1
					c0.4,0,0.9,0.1,1.3,0.1c0.1,0,0.2,0,0.3,0c0.4,0,0.8,0.1,1.3,0.1c0.1,0,0.3,0,0.4,0c0.5,0,1,0,1.5,0s1,0,1.5,0
					c0.1,0,0.3,0,0.4,0c0.4,0,0.8,0,1.3-0.1c0.1,0,0.2,0,0.3,0c0.4,0,0.9-0.1,1.3-0.1c0.2,0,0.4,0,0.6-0.1c0.3,0,0.6-0.1,0.9-0.1
					c0.3,0,0.6-0.1,0.9-0.1c0.3,0,0.6-0.1,0.8-0.1c0.2,0,0.5-0.1,0.7-0.1c0.2,0,0.4-0.1,0.6-0.1c0.4-0.1,0.9-0.2,1.3-0.3
					c0.2,0,0.3-0.1,0.5-0.1c0.3-0.1,0.6-0.1,0.8-0.2c0.1,0,0.3-0.1,0.4-0.1c0.3-0.1,0.5-0.1,0.8-0.2c2.8,4.2,5.4,8.6,7.8,13
					c4.8,8.7,14,28,21.5,58.8c5.5,22.6,8.8,49.3,9.5,77.2C771.8,672.4,770.5,674.2,768.5,674.8z"/>
				<path class="st0" d="M719.8,687.9c-17.1,0-34.1-2.5-50.6-7.5c-4.4-1.3-7.5-5.5-7.4-10.1c0.4-26.8,3.7-53.2,9.8-78.5
					c7.6-31.5,17.1-51.2,22.1-60.2c2.5-4.5,5.2-9,8.1-13.3l2.4-3.7l4.2,1.3l-0.1,6l1.9-5.5l1.5,0.3l0.5,6.1l0.9-5.8l1.3,6.1l0.7-5.8
					l1.2,6l0.5-5.8l1.1,5.9l0.5-5.8l6-0.3l2,5.6l-0.5-5.9l1.6-0.3l2.6,5.4l-1.1-5.7l2.7,5.3l-1-5.8l4-1l3.1,3.2
					c2.9,4.3,5.5,8.8,8.1,13.3c5,9,14.5,28.8,22.1,60.2c5.6,23,8.9,50.1,9.7,78.4c0.1,4.7-2.9,8.9-7.4,10.2l0,0
					C753.8,685.4,736.9,687.9,719.8,687.9z M673.5,669.5c30.1,9,62.4,8.9,92.3,0c-0.8-27.1-4-53-9.4-75c-7.3-30.2-16.3-48.9-21-57.3
					c-1.7-3.1-3.5-6.1-5.3-9.1l-12.1,1.1l-1.5-5.9l0,5.9l-7.3-1c-1.9,3-3.6,6-5.3,9.1c-4.7,8.5-13.6,27.2-21,57.3
					C677.1,618.7,674,643.9,673.5,669.5z M766.8,669.2C766.8,669.2,766.8,669.2,766.8,669.2S766.8,669.2,766.8,669.2L766.8,669.2z
					 M729,522.4l0.3,1.3l0.4-0.3L729,522.4z"/>
			</g>
			<g>
				<circle class="st1" cx="719.7" cy="491.9" r="35.4"/>
				<path class="st0" d="M719.7,533.2c-22.8,0-41.3-18.5-41.3-41.3s18.5-41.3,41.3-41.3c22.8,0,41.3,18.5,41.3,41.3
					S742.5,533.2,719.7,533.2z M719.7,462.3c-16.3,0-29.6,13.3-29.6,29.6s13.3,29.6,29.6,29.6c16.3,0,29.6-13.3,29.6-29.6
					S736,462.3,719.7,462.3z"/>
			</g>
		</g>
	</g>
	<g>
		<g>
			<g>
				<path class="st0" d="M520.1,514.3c-3.1,2.7-8.9,7.6-13.8,11.5l-14,13.2c0,0,0,0-0.1,0.1l-22,22l-112.9,3.7
					c-28,0-50.8,22.8-50.8,50.8l-11.6,112.1c0,8.5,6.9,15.5,15.5,15.5h40.6c8.5,0,15.5-6.9,15.5-15.5v-48c0-2.3,1.9-4.2,4.2-4.2H425
					c2.3,0,4.2,1.9,4.2,4.2v48c0,8.5,6.9,15.5,15.5,15.5h40.6c8.5,0,15.5-6.9,15.5-15.5l-11.6-79.2c0-4.3,1.7-8.3,4.7-11.3
					l29.9-29.9c3.5-3.1,5.7-4.5,7.2-4.5c0,0,0,0,0,0c2,0,5.3,2,8.6,4.2l27,20.5c5.8,4.4,14.1,3.8,19.2-1.3l22.5-22.5
					c5.7-5.7,5.7-15,0-20.7L551,525.3c0,0-5.9-4.8-12-10.4C534,510.2,524.4,510.6,520.1,514.3z M538.7,529.3
					c6.6,6.6,61.4,61.6,61.4,61.6c0.6,0.6,0.9,1.4,0.9,2.2c0,0.8-0.3,1.6-0.9,2.2l-22.5,22.5c-1.1,1.1-2.8,1.2-4,0.3l-27.1-20.6
					c-0.1-0.1-0.2-0.1-0.3-0.2c-11.6-7.8-18.4-9.3-30.3,1.3c-0.1,0.1-0.2,0.1-0.2,0.2l-30.1,30.1c-5.2,5.2-8.1,12.1-8.1,19.4
					l11.6,79.2c0,2.2-1.8,3.9-3.9,3.9h-40.6c-2.2,0-3.9-1.8-3.9-3.9v-48c0-8.7-7.1-15.7-15.7-15.7h-54.5c-8.7,0-15.7,7.1-15.7,15.7
					v48c0,2.2-1.8,3.9-3.9,3.9h-40.6c-2.2,0-3.9-1.8-3.9-3.9L318,615.5c0-21.6,17.6-39.2,39.2-39.2l115.3-3.7c1.5,0,3-0.6,4.1-1.7
					l23.7-23.7c0,0,10-9.1,18.2-17.3S530.5,521.2,538.7,529.3z"/>
			</g>
			<g>
				<path class="st1" d="M538.7,529.3c6.6,6.6,61.4,61.6,61.4,61.6c0.6,0.6,0.9,1.4,0.9,2.2c0,0.8-0.3,1.6-0.9,2.2l-22.5,22.5
					c-1.1,1.1-2.8,1.2-4,0.3l-27.1-20.6c-0.1-0.1-0.2-0.1-0.3-0.2c-11.6-7.8-18.4-9.3-30.3,1.3c-0.1,0.1-0.2,0.1-0.2,0.2l-30.1,30.1
					c-5.2,5.2-8.1,12.1-8.1,19.4l11.6,79.2c0,2.2-1.8,3.9-3.9,3.9h-40.6c-2.2,0-3.9-1.8-3.9-3.9v-48c0-8.7-7.1-15.7-15.7-15.7h-54.5
					c-8.7,0-15.7,7.1-15.7,15.7v48c0,2.2-1.8,3.9-3.9,3.9h-40.6c-2.2,0-3.9-1.8-3.9-3.9L318,615.5c0-21.6,17.6-39.2,39.2-39.2
					l115.3-3.7c1.5,0,3-0.6,4.1-1.7l23.7-23.7c0,0,10-9.1,18.2-17.3S530.5,521.2,538.7,529.3z"/>
			</g>
		</g>
		<g>
			<g>
				<path class="st1" d="M372.2,645c-3.2,0-5.9-2.6-5.9-5.9v-73.7c0-3.2,2.6-5.9,5.9-5.9h59c3.2,0,5.9,2.6,5.9,5.9v73.7
					c0,3.2-2.6,5.9-5.9,5.9H372.2z"/>
			</g>
			<g>
				<path class="st0" d="M431.2,565.4v73.7h-59v-73.7H431.2 M431.2,553.7h-59c-6.5,0-11.7,5.2-11.7,11.7v73.7
					c0,6.5,5.2,11.7,11.7,11.7h59c6.5,0,11.7-5.2,11.7-11.7v-73.7C442.9,559,437.6,553.7,431.2,553.7L431.2,553.7z"/>
			</g>
		</g>
		<g>
			<g>
				<path class="st1" d="M450.5,604.1c-15.8,4.8-32.2,7.2-48.7,7.2c0,0,0,0,0,0c-16.6,0-33-2.4-48.8-7.3c-1.9-0.6-3.3-2.4-3.2-4.4
					c0.4-26.3,3.6-27.3,9.7-52.2c7.5-30.8,16.7-50.1,21.5-58.8c2.4-4.4,5.1-8.7,7.8-13c0.3,0.1,0.5,0.1,0.8,0.2
					c0.1,0,0.3,0.1,0.4,0.1c0.3,0.1,0.6,0.2,0.8,0.2c0.2,0,0.3,0.1,0.5,0.1c0.4,0.1,0.9,0.2,1.3,0.3c0.2,0,0.4,0.1,0.6,0.1
					c0.2,0,0.5,0.1,0.7,0.1c0.3,0.1,0.6,0.1,0.8,0.1c0.3,0,0.6,0.1,0.9,0.1c0.3,0,0.6,0.1,0.9,0.1c0.2,0,0.4,0,0.6,0.1
					c0.4,0,0.9,0.1,1.3,0.1c0.1,0,0.2,0,0.3,0c0.4,0,0.8,0.1,1.3,0.1c0.1,0,0.3,0,0.4,0c0.5,0,1,0,1.5,0c0.5,0,1,0,1.5,0
					c0.1,0,0.3,0,0.4,0c0.4,0,0.8,0,1.3-0.1c0.1,0,0.2,0,0.3,0c0.4,0,0.9-0.1,1.3-0.1c0.2,0,0.4,0,0.6-0.1c0.3,0,0.6-0.1,0.9-0.1
					c0.3,0,0.6-0.1,0.9-0.1c0.3,0,0.6-0.1,0.8-0.1c0.2,0,0.5-0.1,0.7-0.1c0.2,0,0.4-0.1,0.6-0.1c0.4-0.1,0.9-0.2,1.3-0.3
					c0.2,0,0.3-0.1,0.5-0.1c0.3-0.1,0.6-0.1,0.8-0.2c0.1,0,0.3-0.1,0.4-0.1c0.3-0.1,0.5-0.1,0.8-0.2c2.8,4.2,5.4,8.6,7.8,13
					c4.8,8.7,14,28,21.5,58.8c5.5,22.6,8.8,24.2,9.5,52.2C453.8,601.6,452.4,603.5,450.5,604.1z"/>
				<path class="st0" d="M401.8,617.2c-17.1,0-34.1-2.5-50.6-7.5c-4.4-1.3-7.5-5.5-7.4-10.1c0.3-19.5,2.2-26.1,5.3-37
					c1.3-4.3,2.8-9.5,4.5-16.6c7.6-31.5,17.1-51.2,22.1-60.2c2.5-4.5,5.2-9,8.1-13.3l2.3-3.5l7.6,2l0.9,6.1l0.9-5.8l0.9,6l0.7-5.8
					l1.1,6l0.5-5.8l1.7,0.1l2.9,0l1.7,5.8l-0.2-5.9l2.1,5.7l-0.4-5.8l1.6,5.7l-0.1-5.9l2.5,5.5l-0.6-5.9l2.6,5.4l-1.1-5.7l2.7,5.3
					l-1.2-5.7l4-1l3.1,3.2c2.9,4.3,5.5,8.8,8.1,13.3c5,9,14.5,28.8,22.1,60.2c1.5,6.1,2.8,10.7,4,14.7c3.1,10.7,5.2,17.8,5.7,38.7
					c0.1,4.7-2.9,8.9-7.4,10.2l0,0C435.8,614.6,418.9,617.2,401.8,617.2z M355.5,598.7c30.1,9,62.4,8.9,92.3,0
					c-0.6-18.6-2.2-24.4-5.2-34.7c-1.2-4.1-2.6-8.8-4.1-15.2c-7.3-30.1-16.3-48.9-21-57.3c-1.7-3.1-3.5-6.1-5.3-9.1l-6.5,0.9l-2-5.7
					l0.5,5.8l-2.4,0.1l-3.9-0.2l-0.8-5.9l-0.7,5.8l-0.8-6l-0.7,5.8l-1-6.1l-0.4,1.9l0.1,0.1c-0.1,0.1-0.1,0.2-0.2,0.3l-0.7,3.5
					l-1.4-0.3c-1.9,3-3.7,6-5.3,9.1c-4.7,8.5-13.6,27.2-21,57.3c-1.8,7.3-3.3,12.6-4.6,17.1C357.4,576.3,355.8,581.6,355.5,598.7z
					 M448.8,598.5C448.8,598.5,448.8,598.5,448.8,598.5S448.8,598.5,448.8,598.5L448.8,598.5z M411,476.7l0.3,1.3l0.4-0.3L411,476.7
					z"/>
			</g>
			<g>
				<circle class="st1" cx="401.7" cy="446.2" r="35.4"/>
				<path class="st0" d="M401.7,487.4c-22.8,0-41.3-18.5-41.3-41.3c0-22.8,18.5-41.3,41.3-41.3c22.8,0,41.3,18.5,41.3,41.3
					C443,468.9,424.4,487.4,401.7,487.4z M401.7,416.6c-16.3,0-29.6,13.3-29.6,29.6c0,16.3,13.3,29.6,29.6,29.6
					c16.3,0,29.6-13.3,29.6-29.6C431.3,429.9,418,416.6,401.7,416.6z"/>
			</g>
		</g>
	</g>
	<g>
		<g>
			<path class="st1" d="M148.8,606.1c-3.2,0-5.9-2.6-5.9-5.9v-73.7c0-3.2,2.6-5.9,5.9-5.9h59c3.2,0,5.9,2.6,5.9,5.9v73.7
				c0,3.2-2.6,5.9-5.9,5.9H148.8z"/>
		</g>
		<g>
			<path class="st0" d="M207.8,526.6v73.7h-59v-73.7H207.8 M207.8,514.9h-59c-6.5,0-11.7,5.2-11.7,11.7v73.7
				c0,6.5,5.2,11.7,11.7,11.7h59c6.5,0,11.7-5.2,11.7-11.7v-73.7C219.5,520.1,214.2,514.9,207.8,514.9L207.8,514.9z"/>
		</g>
	</g>
	<g>
		<g>
			<path class="st1" d="M233,551.1c-15.8,4.8-32.2,7.2-48.7,7.2c0,0,0,0,0,0c-16.6,0-33-2.4-48.8-7.3c-1.9-0.6-3.3-2.4-3.2-4.4
				c0.4-26.3,3.6-27.3,9.7-52.2c7.5-30.8,16.7-50.1,21.5-58.8c2.4-4.4,5.1-8.7,7.8-13c0.3,0.1,0.5,0.1,0.8,0.2
				c0.1,0,0.3,0.1,0.4,0.1c0.3,0.1,0.6,0.2,0.8,0.2c0.2,0,0.3,0.1,0.5,0.1c0.4,0.1,0.9,0.2,1.3,0.3c0.2,0,0.4,0.1,0.6,0.1
				c0.2,0,0.5,0.1,0.7,0.1c0.3,0.1,0.6,0.1,0.8,0.1c0.3,0,0.6,0.1,0.9,0.1c0.3,0,0.6,0.1,0.9,0.1c0.2,0,0.4,0,0.6,0.1
				c0.4,0,0.9,0.1,1.3,0.1c0.1,0,0.2,0,0.3,0c0.4,0,0.8,0.1,1.3,0.1c0.1,0,0.3,0,0.4,0c0.5,0,1,0,1.5,0c0.5,0,1,0,1.5,0
				c0.1,0,0.3,0,0.4,0c0.4,0,0.8,0,1.3-0.1c0.1,0,0.2,0,0.3,0c0.4,0,0.9-0.1,1.3-0.1c0.2,0,0.4,0,0.6-0.1c0.3,0,0.6-0.1,0.9-0.1
				c0.3,0,0.6-0.1,0.9-0.1c0.3,0,0.6-0.1,0.8-0.1c0.2,0,0.5-0.1,0.7-0.1c0.2,0,0.4-0.1,0.6-0.1c0.4-0.1,0.9-0.2,1.3-0.3
				c0.2,0,0.3-0.1,0.5-0.1c0.3-0.1,0.6-0.1,0.8-0.2c0.1,0,0.3-0.1,0.4-0.1c0.3-0.1,0.5-0.1,0.8-0.2c2.8,4.2,5.4,8.6,7.8,13
				c4.8,8.7,14,28,21.5,58.8c5.5,22.6,8.8,24.2,9.5,52.2C236.3,548.7,234.9,550.5,233,551.1z"/>
			<path class="st0" d="M184.3,564.2c-17.2,0-34.2-2.5-50.6-7.5c-4.4-1.4-7.5-5.5-7.4-10.1c0.3-19.5,2.2-26.1,5.3-37
				c1.3-4.3,2.8-9.4,4.5-16.5c7.7-31.5,17.1-51.3,22.1-60.2c2.5-4.5,5.2-9,8.1-13.3l2.4-3.7l4.2,1.3l-0.1,6l1.9-5.5l1.5,0.3l0.9,6.1
				l0.9-5.8l0.9,6l0.7-5.8l4.6,0.3l3.4-0.1l2.8,5.5l-0.9-5.8l2.6,5.5l-1.1-5.8l3.5,5.2l-1.4-5.7l2.9,5.3l-1.4-5.7l4-1l3.4,3.1
				c2.8,4.3,5.6,8.8,8.1,13.3c5,9,14.5,28.8,22.1,60.2c1.5,6.2,2.8,10.7,4,14.7c3.1,10.7,5.2,17.8,5.7,38.7
				c0.1,4.6-2.9,8.8-7.3,10.2l0,0C218.3,561.7,201.3,564.2,184.3,564.2z M138,545.7c30,8.9,62.3,8.9,92.3,0
				c-0.6-18.6-2.2-24.4-5.2-34.7c-1.2-4.1-2.6-8.8-4.1-15.2c-7.3-30.1-16.3-48.8-21-57.3c-1.7-3.1-3.5-6.1-5.3-9.1l-10.4,1.1
				l-10.4-1.1c-1.9,3-3.6,6-5.3,9.1c-4.7,8.5-13.6,27.2-21,57.3c-1.8,7.3-3.3,12.6-4.6,17C139.8,523.3,138.3,528.6,138,545.7z"/>
		</g>
		<g>
			<circle class="st1" cx="184.2" cy="393.2" r="35.4"/>
			<path class="st0" d="M184.2,434.5c-22.8,0-41.3-18.5-41.3-41.3c0-22.8,18.5-41.3,41.3-41.3c22.8,0,41.3,18.5,41.3,41.3
				C225.5,416,206.9,434.5,184.2,434.5z M184.2,363.6c-16.3,0-29.6,13.3-29.6,29.6c0,16.3,13.3,29.6,29.6,29.6
				c16.3,0,29.6-13.3,29.6-29.6C213.8,376.9,200.5,363.6,184.2,363.6z"/>
		</g>
	</g>
	<g>
		<g>
			<path class="st0" d="M817,223.2l24.2-2.5c6.7-0.7,13,2.9,15.7,9l9.9,22.1c1.8,4.1,5.9,6.7,10.4,6.7c0.4,0,0.8,0,1.2-0.1
				c4.9-0.5,8.9-4.1,9.9-8.9l5.1-23.7c1.4-6.5,6.8-11.4,13.5-12.1l24.2-2.5c4.9-0.5,8.9-4.1,9.9-8.9c1-4.8-1.2-9.7-5.4-12.2
				l-21-12.1c-5.8-3.3-8.8-10-7.4-16.5l5.1-23.6c1-4.8-1.2-9.7-5.4-12.2c-4.3-2.5-9.6-1.9-13.3,1.4l-18,16.2
				c-5,4.5-12.2,5.2-18.1,1.9l-21-12.1c-4.3-2.5-9.6-1.9-13.3,1.4c-3.7,3.3-4.8,8.5-2.8,13l9.9,22.1c2.7,6.1,1.2,13.2-3.8,17.7
				l-18,16.2c-3.7,3.3-4.8,8.5-2.8,13C807.4,221,812.1,223.7,817,223.2z M853.3,168.2c10.2,3.3,21.3,2.1,30.6-3.2
				c0,10.7,4.6,20.8,12.5,28c-10.2,3.3-18.5,10.8-22.9,20.5c-6.3-8.6-16-14.2-26.7-15.3C853.2,189.5,855.5,178.6,853.3,168.2z"/>
			<path class="st1" d="M877.1,264.1c-6.7,0-12.7-3.9-15.4-10l-9.9-22.1c-1.8-3.9-5.8-6.3-10.1-5.8l-24.1,2.5
				c-7.3,0.8-14.2-3.2-17.2-9.9c-3-6.7-1.3-14.5,4.1-19.4l18-16.2c3.2-2.9,4.2-7.4,2.4-11.3l-9.9-22.1c-3-6.7-1.3-14.5,4.1-19.4
				c5.4-4.9,13.4-5.7,19.7-2.1l21,12.1c3.7,2.2,8.4,1.7,11.6-1.2l18-16.2c5.5-4.9,13.4-5.7,19.7-2.1c6.4,3.7,9.6,10.9,8.1,18.1
				l-5.1,23.6c-0.9,4.2,1,8.5,4.7,10.6l21,12.1c6.4,3.7,9.6,10.9,8.1,18.1c-1.5,7.1-7.5,12.5-14.7,13.2l-24.2,2.5
				c-4.3,0.4-7.8,3.6-8.7,7.8l-5.1,23.7c-1.5,7.2-7.5,12.5-14.8,13.2C878.3,264,877.7,264.1,877.1,264.1z M842.7,215.1
				c8.2,0,15.7,4.8,19.1,12.4l9.9,22.1c1,2.3,3.4,3.7,6,3.4c2.6-0.3,4.6-2.1,5.1-4.6l5.1-23.7c1.9-8.9,9.3-15.5,18.3-16.4l24.2-2.5
				c2.5-0.3,4.6-2.1,5.1-4.6c0.5-2.5-0.6-5-2.8-6.3l-21-12.1c-7.9-4.5-11.9-13.6-10-22.4l5.1-23.6c0.5-2.5-0.6-5-2.8-6.3
				c-2.2-1.3-5-1-6.9,0.7l-18,16.2c-6.8,6.1-16.6,7.1-24.5,2.6l-21-12.1c-2.2-1.3-5-1-6.9,0.7c-1.9,1.7-2.5,4.4-1.4,6.7l9.9,22.1
				c3.7,8.3,1.6,17.9-5.1,24l-18,16.2c-1.9,1.7-2.5,4.4-1.4,6.7c1,2.3,3.4,3.7,6,3.4l0,0l24.2-2.5
				C841.3,215.2,842,215.1,842.7,215.1z M874.7,224.4l-5.6-7.6c-5.4-7.4-13.7-12.1-22.8-13.1l-9.4-1l5.6-7.7
				c5.4-7.4,7.4-16.7,5.5-25.6l-2-9.3l9,2.9c8.7,2.8,18.3,1.8,26.2-2.7l8.2-4.7l0,9.4c0,9.1,3.9,17.8,10.7,23.9l7.1,6.4l-9,2.9
				c-8.7,2.8-15.8,9.2-19.6,17.5L874.7,224.4z M855.5,194.3c6.4,1.9,12.2,5.3,17.1,9.8c3.8-5.4,8.8-9.9,14.6-13.1
				c-4-5.3-6.7-11.4-8-17.9c-6.3,2.2-13,2.9-19.6,2.1C859.7,181.8,858.3,188.3,855.5,194.3z"/>
		</g>
	</g>
</g>
</svg>
