<?xml version="1.0" encoding="utf-8"?>
<!-- Generator: Adobe Illustrator 25.0.1, SVG Export Plug-In . SVG Version: 6.00 Build 0)  -->
<svg version="1.1" id="Layer_1" xmlns="http://www.w3.org/2000/svg" xmlns:xlink="http://www.w3.org/1999/xlink" x="0px" y="0px"
	 viewBox="0 0 1024 1024" style="enable-background:new 0 0 1024 1024;" xml:space="preserve">
<style type="text/css">
	.st0{fill:#25333F;}
</style>
<g>
	<path class="st0" d="M931.3,382.3c-1.4-0.7-10.5-5-17.3-7.5c-1.6-11.4-5-25.8-9.8-41.9c-10.6-35.4-26.6-74-40.9-98.5
		c-19.4-33.2-36.3-50.1-56.8-56.6c-44.3-14.1-90.4-10.3-137.7-4.8c-38,4.4-75,9.7-109.4,24.9c-31.7,14.1-64.5,46.4-87.7,86.4
		c-0.6,1-1,2.2-1.2,3.3c-2.6,4.8-4.6,10.1-5.8,15.9c-1.9,8.9-4.3,18.3-6.7,27.5c-2,7.7-3.8,14.9-5.1,20.9c-1.5,7-3.3,15,2.2,20.9
		c0.1,0.1,0.2,0.2,0.3,0.3L63.4,501.8c0,0,0,0-0.1,0c-0.2,0.1-0.4,0.1-0.6,0.2c-0.1,0.1-0.3,0.1-0.4,0.2c-0.1,0.1-0.2,0.1-0.3,0.2
		c-1,0.5-1.9,1.2-2.7,2c0,0,0,0,0,0c-0.1,0.1-0.2,0.2-0.3,0.3c-0.6,0.7-1.2,1.6-1.6,2.5c-0.1,0.1-0.1,0.3-0.2,0.4
		c0,0.1-0.1,0.2-0.1,0.3c-0.1,0.2-0.1,0.4-0.2,0.6c0,0,0,0,0,0.1c0,0.1,0,0.2-0.1,0.3c-0.1,0.2-0.1,0.4-0.1,0.6c0,0.1,0,0.3,0,0.4
		c0,0.2-0.1,0.4-0.1,0.6c0,0.2,0,0.3,0,0.4c0,0.2,0,0.3,0,0.5c0,0.2,0,0.3,0,0.5c0,0.1,0,0.3,0,0.4c0,0.2,0.1,0.4,0.1,0.6
		c0,0.1,0,0.2,0.1,0.4c0,0.2,0.1,0.4,0.2,0.6c0,0.1,0,0.2,0.1,0.3l110,335c1.7,5.2,7.3,8,12.4,6.3l667.1-219.2
		c5.2-1.7,8-7.3,6.3-12.4l-73.3-223c1.1-0.2,2.2-0.5,3.3-0.8c1.8-0.6,3.6-1.4,5.3-2.4c7.2-4.2,11.9-11.4,12.9-19.7l3.9-31.1
		c0.3-2,0.4-4.1,0.4-6.1c4.8,7.8,10.9,19.7,15.4,28.6c10.4,20.3,17.7,33.7,24,41.8c-0.1,0.2-0.2,0.3-0.3,0.5
		c-7.7,15.5-8.8,33-3.3,49.4c5.5,16.4,17.1,29.6,32.6,37.3c15.3,7.6,32.6,8.8,48.8,3.5c0.2-0.1,0.4-0.1,0.6-0.2
		c16.4-5.5,29.6-17.1,37.3-32.6C976.5,437,963.3,398.1,931.3,382.3L931.3,382.3z M534.6,367.8c2.4-0.3,4.9-0.6,7.4-0.9
		c0.3,0,0.7-0.1,1-0.1c0.7-0.1,1.5-0.2,2.2-0.3c1.3-0.1,2.5-0.3,3.8-0.4c0,0,0.1,0,0.1,0c11.6-1.3,23.5-2.3,35.4-2.7
		c0.3,0,0.7,0,1,0c0.9,0,1.9-0.1,2.8-0.1c0.6,0,1.1,0,1.7,0c0.7,0,1.5,0,2.2,0c1.2,0,2.5,0,3.7-0.1c0.5,0,0.9,0,1.4,0
		c0.8,0,1.7,0,2.5,0c0.4,0,0.8,0,1.2,0c0.9,0,1.8,0,2.6,0c0.2,0,0.3,0,0.5,0c1.8,0,3.6,0.1,5.4,0.1c0.4,0,0.7,0,1.1,0
		c0.8,0,1.6,0.1,2.4,0.1c0.5,0,1,0,1.5,0.1c0.7,0,1.5,0.1,2.2,0.1c0.8,0,1.5,0.1,2.3,0.2c0.8,0.1,1.7,0.1,2.5,0.2
		c0.9,0.1,1.7,0.1,2.6,0.2c0.5,0,1,0.1,1.5,0.1c0.9,0.1,1.8,0.2,2.7,0.3c0.4,0,0.8,0.1,1.2,0.1c1.3,0.1,2.6,0.3,3.9,0.5
		c2.6,0.3,5.2,0.7,7.9,1.1c0.3,0,0.6,0.1,0.9,0.1c2.5,0.4,5,0.8,7.5,1.2l0.8,0.1c0.1,0,0.2,0,0.2,0c2.4,0.4,4.7,0.8,7.1,1.2l1.5,0.3
		L491.1,579.5c-14,17.6-37.2,25.2-58.9,19.3l-331.3-88.6L534.6,367.8z M831.2,620.7l-648.4,213L81.5,525.4l345.6,92.4
		c14.6,3.9,29.7,3.3,43.5-1.2c13.8-4.5,26.3-13,35.8-24.8L681,373.5l3.1,0.7c1.4,0.3,2.7,0.6,4.1,1l7.2,1.8c1.5,0.4,2.9,0.7,4.4,1.1
		l1.1,0.3c1.3,0.3,2.6,0.7,3.8,1l12.4,3.5c2.4,0.7,4.9,1.5,7.3,2.2l0.5,0.2l0,0c2.5,0.8,5,1.6,7.5,2.4c0.3,0.1,0.6,0.2,0.8,0.3
		c2.4,0.8,4.8,1.6,7.1,2.4c0.3,0.1,0.5,0.2,0.8,0.3c2.5,0.9,4.9,1.7,7.3,2.6c0.1,0,0.1,0.1,0.2,0.1l0.4,0.2c2.5,0.9,4.9,1.8,7.3,2.8
		c0.2,0.1,0.4,0.1,0.6,0.2c0.2,0.1,0.4,0.1,0.6,0.2L831.2,620.7z M785.6,344.4l-3.9,31.1c-0.4,3-2.3,4.5-3.4,5.2
		c-1.9,1.1-4.2,1.3-6.3,0.5c-0.9-0.4-1.8-0.7-2.7-1c-0.1,0-0.2-0.1-0.2-0.1c-1-0.4-2-0.8-3-1.2l-0.3-0.1l0,0c-0.5-0.2-1-0.4-1.5-0.6
		c-0.3-0.1-0.6-0.2-0.9-0.4c-0.1-0.1-0.3-0.1-0.4-0.2l-0.6-0.2c-0.9-0.3-1.8-0.7-2.7-1l-0.8-0.3c-0.9-0.3-1.7-0.6-2.6-1l-0.5-0.2
		c-0.2-0.1-0.4-0.1-0.5-0.2c-0.8-0.3-1.6-0.6-2.4-0.9l-1.1-0.4c-0.8-0.3-1.6-0.6-2.3-0.8l-1.3-0.5c-0.2-0.1-0.4-0.1-0.6-0.2
		c-0.3-0.1-0.6-0.2-0.8-0.3c-0.3-0.1-0.6-0.2-1-0.3l-5-1.7c-0.5-0.2-0.9-0.3-1.4-0.5c-0.3-0.1-0.6-0.2-0.8-0.3c0,0-0.1,0-0.1,0
		l-1.5-0.5c-0.8-0.3-1.6-0.5-2.3-0.8l-1.5-0.5c-0.8-0.2-1.5-0.5-2.3-0.7l0,0c-0.2-0.1-0.3-0.1-0.5-0.2l-1.1-0.3
		c-0.8-0.2-1.5-0.5-2.3-0.7l-1.7-0.5c-0.8-0.2-1.5-0.5-2.3-0.7l-0.6-0.2c-0.1,0-0.3-0.1-0.4-0.1l-0.8-0.2c-0.8-0.2-1.5-0.4-2.3-0.7
		l-1.8-0.5c-0.8-0.2-1.5-0.4-2.3-0.6l-0.4-0.1c-3.2-0.9-6.5-1.8-9.7-2.6l-0.3-0.1c-0.7-0.2-1.5-0.4-2.2-0.6l-1.9-0.5
		c-2.5-0.6-4.9-1.2-7.4-1.8l-1.8-0.4c-0.7-0.2-1.4-0.3-2.1-0.5l-0.5-0.1c-0.2,0-0.4-0.1-0.6-0.1l-3.3-0.8c-0.8-0.2-1.5-0.3-2.3-0.5
		l-1.6-0.3c-0.6-0.1-1.2-0.3-1.8-0.4l-1.2-0.3c-0.7-0.2-1.5-0.3-2.3-0.5c-0.7-0.1-1.4-0.3-2.1-0.4l-2-0.4c-0.1,0-0.2,0-0.3-0.1
		l-0.3-0.1c-0.7-0.1-1.4-0.3-2.2-0.4l-3.6-0.7c-1-0.2-2.1-0.4-3.1-0.6l-0.7-0.1c-0.8-0.1-1.5-0.3-2.3-0.4l-2.6-0.4
		c-0.7-0.1-1.3-0.2-2-0.3c-0.4-0.1-0.7-0.1-1.1-0.2l-1.8-0.3c-0.8-0.1-1.7-0.3-2.5-0.4l-2.4-0.4c-0.3,0-0.6-0.1-0.9-0.1
		c-0.3,0-0.7-0.1-1-0.1c-0.3,0-0.6-0.1-0.9-0.1l-2.2-0.3c-1.7-0.2-3.4-0.5-5.1-0.7c-1.4-0.2-2.7-0.3-4.1-0.5c-0.5-0.1-1-0.1-1.4-0.2
		c-0.9-0.1-1.7-0.2-2.6-0.3c-0.6-0.1-1.2-0.1-1.8-0.2c-0.7-0.1-1.5-0.1-2.2-0.2c-2.8-0.2-5.7-0.4-8.6-0.6c-0.2,0-0.5,0-0.7,0
		c-1.1-0.1-2.2-0.1-3.3-0.1c0,0-0.1,0-0.1,0c-9.3-0.3-18.7-0.3-28,0.1c0,0,0,0-0.1,0c-2.2,0.1-4.3,0.2-6.5,0.3c-0.1,0-0.2,0-0.3,0
		c-0.8,0-1.6,0.1-2.5,0.1c-0.6,0-1.2,0.1-1.8,0.1c-0.7,0-1.4,0.1-2.1,0.1c-1.2,0.1-2.4,0.2-3.6,0.3c-0.4,0-0.8,0.1-1.3,0.1
		c-1,0.1-2,0.2-2.9,0.2c-0.5,0-1,0.1-1.5,0.1c-1.1,0.1-2.1,0.2-3.1,0.3c-0.5,0-1,0.1-1.5,0.1c-1,0.1-2,0.2-2.9,0.3
		c-0.7,0.1-1.4,0.1-2,0.2c-0.5,0-0.9,0.1-1.4,0.1c-20.4,2.2-39.8,5.2-56.6,7.8c-7.6,1.2-14.9,2.3-21.3,3.2c0.1-0.5,0.2-0.9,0.2-1.1
		c1.2-5.6,3-12.7,4.9-20.2c2.3-8.9,4.8-19,6.8-28.2c2.5-11.4,10.5-24.3,25.5-26.2c44.7-5.6,90.1-5.5,134.7,0.4
		c42.1,5.6,83.6,16.3,123.2,31.8C779.8,318.5,787.3,331.2,785.6,344.4z M804.8,314.5c-2.2-0.3-4.4,0.1-6.4,1
		c-5.4-8.9-13.6-16.1-23.9-20.1c-41.1-16.1-84.1-27.2-127.8-33c-44.8-5.9-90.3-6.3-135.2-1c17.3-20.9,36.9-37,55.9-45.5
		c31.8-14.1,67.2-19.1,103.7-23.4c45.1-5.3,88.9-8.9,129.5,4c15.4,4.9,29.1,19.2,45.8,47.8c12.8,21.9,27.1,55.8,37.3,88.5
		c8.8,28.1,11.4,44.9,11.8,54c-0.2,1.6-0.2,3.2-0.3,4.6c0,0.9-0.1,2.1-0.1,2.9c0,0,0,0.1,0,0.1c-0.6,0.4-1.3,0.8-1.9,1.1
		c-0.3,0.1-0.6,0.3-0.8,0.4c-0.4,0.2-0.8,0.4-1.2,0.6c-0.3,0.2-0.7,0.3-1,0.4c-0.4,0.1-0.7,0.3-1.1,0.4c-0.4,0.1-0.7,0.3-1.1,0.4
		c-0.3,0.1-0.7,0.2-1,0.4c-0.4,0.1-0.8,0.2-1.2,0.4c-0.3,0.1-0.7,0.2-1,0.3c-0.4,0.1-0.8,0.2-1.2,0.3c-0.3,0.1-0.7,0.2-1,0.3
		c-0.4,0.1-0.8,0.2-1.2,0.3c-0.3,0.1-0.7,0.1-1,0.2c-0.4,0.1-0.8,0.2-1.2,0.2c-0.3,0.1-0.7,0.1-1,0.2c-0.4,0.1-0.8,0.1-1.2,0.2
		c-0.3,0-0.7,0.1-1,0.1c-0.4,0.1-0.8,0.1-1.2,0.1c-0.3,0-0.7,0.1-1,0.1c-0.4,0-0.8,0.1-1.2,0.1c-0.3,0-0.7,0.1-1,0.1
		c-0.4,0-0.8,0.1-1.2,0.1c-0.3,0-0.7,0-1,0.1c-0.4,0-0.8,0-1.1,0.1c-0.3,0-0.6,0-1,0c-0.4,0-0.7,0-1.1,0c-0.3,0-0.6,0-0.8,0
		c-0.4,0-0.8,0-1.2,0c-0.2,0-0.4,0-0.6,0c-0.4,0-0.9,0-1.3,0c-5.4-4.9-16.9-27.3-23.9-40.8C821.1,326.7,814.6,315.7,804.8,314.5z
		 M943,460.3c-5.3,10.8-14.5,18.8-25.9,22.7c-11.4,3.9-23.6,3-34.4-2.3c-10.8-5.3-18.8-14.5-22.7-25.9c-3.8-11.2-3.1-23.2,2-33.8
		c0.1,0,0.2,0,0.3,0c0.6,0,1.2,0,1.9,0c0.2,0,0.5,0,0.7,0c0.6,0,1.1,0,1.7,0c0.2,0,0.4,0,0.7,0c0.8,0,1.6,0,2.4-0.1
		c0.1,0,0.2,0,0.3,0c0.7,0,1.4-0.1,2.1-0.1c0.2,0,0.5,0,0.7-0.1c0.7,0,1.3-0.1,2-0.2c0.2,0,0.4,0,0.6-0.1c0.9-0.1,1.7-0.2,2.6-0.3
		c0.1,0,0.3,0,0.4-0.1c0.7-0.1,1.5-0.2,2.2-0.3c0.3,0,0.5-0.1,0.8-0.1c0.7-0.1,1.4-0.2,2.1-0.4c0.2,0,0.4-0.1,0.6-0.1
		c0.9-0.2,1.8-0.4,2.7-0.6c0.2,0,0.4-0.1,0.5-0.1c0.7-0.2,1.4-0.4,2.2-0.5c0.3-0.1,0.5-0.1,0.8-0.2c0.7-0.2,1.5-0.4,2.2-0.7
		c0.2-0.1,0.3-0.1,0.5-0.1c0.1,0,0.1,0,0.2-0.1c0.8-0.3,1.6-0.5,2.4-0.8c0.2-0.1,0.3-0.1,0.5-0.2c0.9-0.3,1.7-0.7,2.6-1.1
		c0.1,0,0.2-0.1,0.2-0.1c0.8-0.4,1.6-0.7,2.4-1.1c0.1-0.1,0.3-0.1,0.4-0.2c0.8-0.4,1.7-0.9,2.5-1.3c0.2-0.1,0.3-0.2,0.5-0.3
		c0.8-0.5,1.7-1,2.5-1.5c0.3-0.2,0.6-0.4,0.8-0.6c4.4-3.3,6-7.8,6.6-11.9c0.1-0.4,0.2-0.8,0.2-1.2c3,1.3,6,2.7,7.9,3.6
		C944.9,410.9,954,438,943,460.3z"/>
</g>
</svg>
