<?xml version="1.0" encoding="utf-8"?>
<!-- Generator: Adobe Illustrator 25.0.1, SVG Export Plug-In . SVG Version: 6.00 Build 0)  -->
<svg version="1.1" id="Layer_1" xmlns="http://www.w3.org/2000/svg" xmlns:xlink="http://www.w3.org/1999/xlink" x="0px" y="0px"
	 viewBox="0 0 1024 1024" style="enable-background:new 0 0 1024 1024;" xml:space="preserve">
<style type="text/css">
	.st0{fill:#BF0808;}
</style>
<g>
	<path class="st0" d="M245.5,555.1c-0.5,16.3-2.8,31.3-6.8,44.9c-4.1,13.6-10,25.5-17.9,35.7c-7.9,10.2-17.6,18.4-29.2,24.7
		c-11.6,6.2-25.3,10.1-40.9,11.5c-7,0.7-13.9,0.9-20.7,0.7c-5-0.1-10.2-0.5-15.5-1.2c-3.2-0.4-5.5-3.2-5.4-6.4l1.1-32
		c0.1-3.3,1-6.2,2.7-8.6c1.7-2.4,4.7-3.7,8.9-4.1c3.2-0.3,6.8-0.3,10.8,0.1c4,0.4,8.4,0.3,13.2-0.1c10.7-1,19.1-6,25.2-15.1
		c6.1-9,9.4-23.2,9.9-42.5l5-183.6c0.1-3.1,2.5-5.7,5.6-6l52.3-4.9c3.7-0.3,6.9,2.6,6.8,6.4L245.5,555.1z"/>
	<path class="st0" d="M551.2,466.7c1.5,15.6,1,30.7-1.3,45.4c-2.3,14.6-6.2,28.4-11.8,41.4c-5.5,12.9-12.6,24.9-21.1,35.8
		c-8.5,10.9-18.4,20.5-29.5,28.7c-11.1,8.2-23.4,14.9-36.8,20.1c-13.4,5.2-27.7,8.5-42.9,9.9c-19.1,1.8-36.5,0-52.3-5.2
		c-15.8-5.3-29.5-13.2-41.2-23.8c-11.7-10.6-21-23.5-28.1-38.6c-7.1-15.2-11.5-31.8-13.2-49.9c-1.5-15.6-1-30.8,1.3-45.5
		c2.3-14.7,6.2-28.5,11.8-41.5c5.5-12.9,12.6-24.9,21.2-35.8c8.6-10.9,18.4-20.5,29.6-28.7c11.1-8.2,23.4-14.9,36.8-20.1
		c13.4-5.2,27.8-8.5,43.1-9.9c18.9-1.8,36.3,0,52.1,5.3c15.8,5.3,29.5,13.2,41.1,23.9c11.6,10.7,21,23.6,28.1,38.8
		C545.2,432.1,549.6,448.7,551.2,466.7z M485.1,474.5c-1.1-11.9-3.5-22.6-7.3-32.1c-3.8-9.5-8.7-17.4-14.8-23.9
		c-6.1-6.4-13.4-11.2-21.7-14.2c-8.3-3-17.5-4.1-27.5-3.1c-13.2,1.2-24.8,5.1-34.8,11.6c-9.9,6.5-18.1,15-24.5,25.6
		c-6.4,10.6-10.9,23.1-13.5,37.4c-2.6,14.3-3.1,30-1.5,46.9c1.1,11.9,3.5,22.6,7.2,32c3.7,9.4,8.5,17.3,14.5,23.7
		c6,6.4,13.1,11.1,21.4,14.1c8.3,3,17.5,4.1,27.7,3.1c13.2-1.2,24.9-5.1,34.9-11.5c10-6.4,18.2-14.9,24.7-25.5
		c6.4-10.6,11-23.1,13.6-37.3C486.1,507.1,486.7,491.4,485.1,474.5z"/>
	<path class="st0" d="M698,507.4l-3.2,105.1c-0.1,3.1-2.5,5.7-5.6,6l-52.3,4.9c-3.7,0.3-6.9-2.6-6.8-6.4l3.2-102.8
		c0-1.1-0.2-2.1-0.7-3.1l-86-162.5c-2.1-3.9,0.5-8.7,4.9-9.1l48.3-4.5c5.6-0.5,10,0.4,13.4,2.7c3.3,2.3,6,5.5,7.8,9.6l36,85
		c2.4,5.7,4.6,11.1,6.6,16.4c0,0.1,0,0.1,0.1,0.2c2,5.2,9.2,5.4,11.5,0.3c0.2-0.5,0.5-1,0.7-1.5c2.5-5.6,5.3-11.6,8.1-17.9
		l41.1-92.1c1.7-3.8,4.3-7.3,7.8-10.5c3.6-3.3,8.1-5.2,13.5-5.7l42.1-3.9c4.9-0.5,8.4,4.8,6,9.1l-95.7,178.1
		C698.3,505.5,698.1,506.4,698,507.4z"/>
	<path class="st0" d="M826,574.3c-0.4-4.8,0-9.3,1.4-13.6c1.4-4.3,3.5-8.1,6.3-11.4c2.8-3.3,6.3-6.1,10.3-8.3
		c4.1-2.2,8.6-3.5,13.6-4c4.9-0.5,9.5,0,14,1.4c4.4,1.4,8.3,3.5,11.8,6.2c3.5,2.8,6.3,6.1,8.4,10c2.2,3.9,3.5,8.3,3.9,13.1
		c0.4,4.8,0,9.3-1.4,13.7c-1.4,4.3-3.5,8.2-6.4,11.5c-2.9,3.3-6.4,6.1-10.5,8.2c-4.1,2.1-8.6,3.4-13.5,3.9c-5,0.5-9.7,0-14.1-1.3
		c-4.4-1.3-8.3-3.4-11.7-6.1c-3.4-2.8-6.2-6.1-8.4-10.1C827.8,583.4,826.5,579.1,826,574.3z M886.3,308.3c3.7-0.3,6.9,2.6,6.8,6.4
		L890,422.9c-0.3,12.2-1.4,24.4-3.2,36.6c-1.6,10.8-3.5,21.9-5.8,33.2c-0.5,2.7-2.8,4.7-5.5,5l-29.6,2.8c-3.3,0.3-6.3-2-6.7-5.3
		c-0.4-3-0.8-6-1.2-9c-0.7-4.9-1.2-9.8-1.7-14.7c-0.7-7.3-1.2-14.5-1.4-21.7c-0.3-7.2-0.3-14.5,0-21.8l3.1-109.8
		c0.1-3.1,2.5-5.7,5.6-6L886.3,308.3z"/>
</g>
</svg>
