<?xml version="1.0" encoding="utf-8"?>
<!-- Generator: Adobe Illustrator 25.0.1, SVG Export Plug-In . SVG Version: 6.00 Build 0)  -->
<svg version="1.1" id="Layer_1" xmlns="http://www.w3.org/2000/svg" xmlns:xlink="http://www.w3.org/1999/xlink" x="0px" y="0px"
	 viewBox="0 0 1024 1024" style="enable-background:new 0 0 1024 1024;" xml:space="preserve">
<style type="text/css">
	.st0{fill:#BF0808;}
	.st1{fill:#25333F;}
</style>
<polygon class="st0" points="266.4,252 273.6,316.8 367.2,345.6 482.4,338.4 475.2,230.4 "/>
<path class="st1" d="M870.2,828.4c1.1-1.7,2.2-3.3,3.3-5c23.1-36.4,34.6-84.3,33.4-138.6c-1.1-48.1-12.3-99.6-31.6-145
	c-29-68.3-70.7-112.5-114.3-121.4c-4.7-1-10.1-1.9-15.6-2.7c11.1-8.1,22.2-19.4,28.1-36c10.9-30.1-8.5-61.5-24.9-73.3
	c-7.8-5.5-17.1-6.7-26.4-3.3c-1.8,0.7-3.5,1.5-5.3,2.4l6.5-24.7l16.5,4.3c1.1,0.3,2.2,0.4,3.3,0.4c5.7,0,11-3.9,12.5-9.7l22.9-87.4
	c0.9-3.3,0.4-6.9-1.4-9.8c-1.7-3-4.6-5.1-7.9-6l-130.1-34l53.6-31.4c6.2-3.6,8.2-11.5,4.6-17.7c-3.6-6.2-11.5-8.2-17.7-4.6
	l-69.4,40.6l-18.3-31.2c-3.6-6.2-11.5-8.2-17.7-4.6c-6.2,3.6-8.2,11.5-4.6,17.7l9,15.4l-130.1-34c-3.3-0.9-6.9-0.4-9.8,1.4
	c-3,1.7-5.1,4.6-6,7.9L419.8,147l-27.4,2.7l26.5-32.3c4.5-5.5,3.7-13.7-1.8-18.2c-5.5-4.5-13.7-3.7-18.2,1.8l-38.1,46.5l-19.7-16.2
	c-5.5-4.5-13.7-3.7-18.2,1.8c-4.5,5.5-3.7,13.7,1.8,18.2l5.6,4.6l-98,9.7c-3.4,0.3-6.6,2-8.7,4.7c-2.2,2.7-3.2,6.1-2.9,9.5l7,70.4
	c0.7,6.7,6.3,11.7,12.9,11.7c0.4,0,0.9,0,1.3-0.1l10.5-1l3.2,32.8c-16.3-1.4-32.7,5-43.4,18c-3,3.6-5.3,7.4-6.5,9.7
	c-7.4,14.3-8,32.7-1.4,46.8c6.1,13,16.3,18,23.1,21.3c2.5,1.2,5.3,2.6,6.1,3.6c0,0,3,5-7.4,24.3c-8.1,15.1-20.7,32.4-32.9,49.1
	c-6.8,9.3-13.2,18.1-18.5,26.1c-32.7,49.2-52.9,111.1-56.8,174.4c-4,65.2,10,124.6,39.6,167.2c17.1,24.7,41.2,46.3,71.7,64.5
	c46.8,27.8,101.1,42.5,157.2,42.5h258C737.2,940.9,823.8,897.8,870.2,828.4z M614.8,159l135.3,35.4l-16.3,62.4l-16.5-4.3h0
	l-118.8-31.1L614.8,159z M591.9,246.4l106.3,27.8l-19.7,75.4c-10.1,5-29.7,10.5-65.3,12c-3,0.1-6,0.2-9.1,0.3c-0.6,0-1.3,0-1.9,0
	c-0.7,0-1.5,0-2.2,0c-11.9,0.2-24.6-0.1-38.1-0.7L591.9,246.4z M499.4,338l-10-100.7l10.5-1c0.6-0.1,1.1-0.2,1.7-0.3
	c0.4-0.1,0.9-0.2,1.3-0.4c1.7-0.6,3.2-1.5,4.6-2.7c0.4-0.4,0.8-0.8,1.2-1.3c0,0,0,0,0,0c0.3-0.4,0.6-0.8,0.9-1.2
	c0.1-0.1,0.2-0.3,0.2-0.4c0.2-0.3,0.4-0.7,0.5-1c0.1-0.1,0.1-0.3,0.2-0.4c0.2-0.5,0.4-0.9,0.5-1.4c0,0,0-0.1,0-0.1
	c0.1-0.5,0.2-0.9,0.3-1.4c0-0.1,0-0.1,0-0.2l55.4,14.5L536.5,356l-38.8-10.2c0.1-0.1,0.1-0.2,0.2-0.3c0.1-0.1,0.1-0.2,0.2-0.3
	c0.1-0.3,0.3-0.5,0.4-0.8c0-0.1,0.1-0.2,0.1-0.3c0.1-0.4,0.3-0.7,0.4-1.1c0,0,0,0,0-0.1c0.1-0.3,0.2-0.7,0.3-1.1
	c0-0.1,0-0.2,0.1-0.4c0-0.3,0.1-0.5,0.1-0.8c0-0.1,0-0.3,0-0.4c0-0.3,0-0.5,0-0.8c0-0.1,0-0.2,0-0.4
	C499.5,338.8,499.5,338.4,499.4,338z M454.4,117.1l135.3,35.4l-16.3,62.4L509.2,198l-0.8-8.6l-3.7-37.8c-0.3-2.9-1.5-5.4-3.3-7.4
	c-0.8-0.9-1.8-1.7-2.8-2.3c-1.6-1-3.5-1.7-5.5-1.9c-0.2,0-0.3,0-0.5,0c-0.3,0-0.5,0-0.8,0c-0.4,0-0.9,0-1.3,0.1l-40.7,4l-2.4,0.2
	L454.4,117.1z M480.1,167.1l4.2,42.3l0.2,2.3l-10.5,1l-92.7,9.2l-4.5-44.6L480.1,167.1z M472.4,327.6l-34.4,3.4h0l-45.3,4.5
	l-8.8-87.8l79.8-7.9L472.4,327.6z M366.1,329.4c-17.6-4.7-34.6-9.8-50.5-15.2c-0.3-0.1-0.5-0.2-0.8-0.3c-1.2-0.4-2.4-0.8-3.7-1.3
	c-0.7-0.2-1.4-0.5-2.1-0.7c-1.1-0.4-2.2-0.8-3.2-1.1c-1.6-0.6-3.1-1.1-4.6-1.7c-0.8-0.3-1.6-0.6-2.4-0.9c-1.1-0.4-2.3-0.8-3.4-1.3
	c-0.7-0.3-1.4-0.5-2.1-0.8c-1.4-0.5-2.7-1-4.1-1.6c-0.4-0.2-0.8-0.3-1.2-0.5c-1.8-0.7-3.5-1.4-5.3-2.1c-0.1-0.1-0.2-0.1-0.4-0.1
	l-4.3-43.9l80.1-7.9L366.1,329.4z M252.1,234.7l-4.4-44.6L351,179.9l4.5,44.6l-58.9,5.8L252.1,234.7z M242.1,876.1
	c-27.3-16.2-48.7-35.4-63.6-56.9c-53.6-77.3-45.7-217.5,17.5-312.5c5-7.5,11.3-16.1,17.9-25.2c29.9-41,58.1-79.7,40.3-104
	c-4.5-6.1-10.6-9.1-15.6-11.5c-5.8-2.8-8.9-4.5-10.9-8.9c-2.6-5.6-3.4-15.5,0.9-24c0.3-0.6,1.6-2.8,3.5-5.1
	c4.7-5.7,11.7-8.8,18.9-8.8c3.3,0,6.6,0.7,9.8,2c3.3,1.4,6.8,2.9,10.2,4.3c0.5,0.2,0.9,0.4,1.4,0.6c1.9,0.8,3.8,1.5,5.8,2.3
	c0.4,0.2,0.9,0.3,1.3,0.5c1.5,0.6,3,1.1,4.5,1.7c0.8,0.3,1.6,0.6,2.5,0.9c1.3,0.5,2.6,1,4,1.5c1.5,0.6,3,1.1,4.6,1.7
	c0.8,0.3,1.6,0.6,2.4,0.8c1.3,0.5,2.6,0.9,4,1.4c0.2,0.1,0.3,0.1,0.5,0.2c3.1,1.1,6.2,2.1,9.3,3.2c0,0,0,0,0,0
	c23.5,7.8,49,15,75.7,21.3c0.1,0,0.1,0,0.2,0c12.6,3,25.4,5.8,38.3,8.3c69.4,13.8,136.5,20,189,17.7c23-1,42-3.6,57.1-7.8
	c0.7-0.2,1.3-0.4,2-0.5c0.2-0.1,0.5-0.1,0.7-0.2c1-0.3,2-0.6,3-0.9c0,0,0,0,0,0c7.5-2.4,14.2-5.4,19.7-9c0.4-0.2,0.7-0.5,1-0.8
	c8-5.5,13-12.2,15-20c1.1-4.4,10.3-18,18.1-20.9c1.6-0.6,2-0.3,2.6,0.1c8.9,6.3,21.8,26.3,15.6,43.4c-7.1,19.7-27.1,29.4-39.1,35.2
	c-3.4,1.7-6.1,3-8.3,4.4c-4.8,3-7.1,8.5-6,14c2,9.4,11.2,11.1,17.9,12.3c4.7,0.9,11,1.8,17.6,2.8c8.3,1.3,17.7,2.7,24.7,4.1
	c34.7,7.1,70.4,46.8,95.7,106.2c32.9,77.5,45.8,187.8,0.2,259.6c-1,1.5-2,3-3,4.5c-41.6,62.3-120,101-204.6,101h-258
	C334.7,915,284.9,901.6,242.1,876.1z"/>
</svg>
