<?xml version="1.0" encoding="utf-8"?>
<!-- Generator: Adobe Illustrator 25.0.1, SVG Export Plug-In . SVG Version: 6.00 Build 0)  -->
<svg version="1.1" id="Layer_1" xmlns="http://www.w3.org/2000/svg" xmlns:xlink="http://www.w3.org/1999/xlink" x="0px" y="0px"
	 viewBox="0 0 1024 1024" style="enable-background:new 0 0 1024 1024;" xml:space="preserve">
<style type="text/css">
	.st0{fill:#25333F;}
</style>
<g>
	<path class="st0" d="M272.6,268.6c-7.3-2.8-15.4,0.9-18.2,8.1l-53.8,140.8l-85.2,38c-7.1,3.2-10.3,11.5-7.1,18.6
		c2.3,5.2,7.5,8.3,12.8,8.3c1.9,0,3.9-0.4,5.7-1.2l144.8-64.7l117.1,44.8c1.7,0.6,3.4,0.9,5,0.9c5.7,0,11-3.4,13.1-9
		c2.8-7.3-0.9-15.4-8.1-18.2L308,400.4l118.2-52.8v143.6c0,7.8,6.3,14.1,14.1,14.1c7.8,0,14.1-6.3,14.1-14.1V335l81.1-36.2
		l140.8,53.8c1.7,0.6,3.3,0.9,5,0.9c5.7,0,11-3.4,13.1-9c2.8-7.3-0.9-15.4-8.1-18.2l-114.5-43.8l194.8-87v212.1
		c-17.5-14.4-39.1-25.9-56.6-16.2c-15.5,8.6-21.5,32-12.6,49.1c8.9,17.1,30.6,23.1,50.1,23.1c2.4,0,4.7-0.1,7-0.3
		c7-0.5,17.1-2,25-6.4c1.2,0.1,2.7,0.2,4.3,0.2c9,0,23-2.1,34.9-13c14.6-13.4,19.9-34.7,13.4-54.3c-2.4-7.4-10.4-11.4-17.8-9
		c-7.4,2.4-11.4,10.4-9,17.8c3,9.1,0.7,18.8-5.8,24.8c-1.6,1.4-3.2,2.5-4.9,3.3V183l7.6-3.4l76.3,29.2c1.7,0.6,3.3,0.9,5,0.9
		c5.7,0,11-3.4,13.1-9c2.8-7.3-0.9-15.4-8.1-18.2l-50-19.1l70.1-31.3c7.1-3.2,10.3-11.5,7.1-18.6c-3.2-7.1-11.5-10.3-18.6-7.1
		L796,151.6c0,0,0,0,0,0l-20.9,9.3c0,0,0,0,0,0l-12.5,5.6l31.2-81.4c2.8-7.3-0.9-15.4-8.1-18.2c-7.3-2.8-15.4,0.9-18.2,8.1
		l-41.2,107.7l-197,88c0,0,0,0,0,0l-29.5,13.2l43.8-114.5c2.8-7.3-0.9-15.4-8.1-18.2c-7.2-2.8-15.4,0.9-18.2,8.1l-53.8,140.8
		l-197.9,88.4c0,0,0,0,0,0l-28.6,12.8l43.8-114.5C283.5,279.5,279.9,271.4,272.6,268.6z M733.4,433.9c-5.6-1.4-9.8-3.8-11.1-6.4
		c-2-3.8-0.4-10.1,1.3-11.5c3.1-0.8,15.3,4,31.6,19C748.9,435.8,740.8,435.8,733.4,433.9z"/>
	<path class="st0" d="M780.5,470.2c-70.7,0-128.1,57.5-128.1,128.2s57.5,128.2,128.1,128.2c70.7,0,128.2-57.5,128.2-128.2
		S851.2,470.2,780.5,470.2z M852.4,596.4h28.1c0,0.7,0.1,1.3,0.1,2c0,55.2-44.9,100-100,100c-55.2,0-100-44.9-100-100
		c0-0.7,0-1.3,0-2h19.4c7.8,0,14.1-6.3,14.1-14.1c0-7.8-6.3-14.1-14.1-14.1h-14.8c12.8-40.5,50.7-69.9,95.4-69.9
		c44.7,0,82.6,29.4,95.4,69.9h-23.6c-7.8,0-14.1,6.3-14.1,14.1C838.3,590.1,844.6,596.4,852.4,596.4z"/>
	<path class="st0" d="M482.1,527.1c-12.6-7.5-26.8-11.6-41.2-11.7c-0.3,0-0.5,0-0.7,0c-18.4,0-32.9,6.3-41.9,11.7
		c-10.2,6.1-16.5,17.2-16.5,29.1V588c-74.6,25.7-128.4,96.6-128.4,179.8c0,23.4,4.3,45.8,12,66.5c0.2,0.7,0.5,1.4,0.8,2
		C293.9,907.5,363,958,443.7,958c104.8,0,190.1-85.3,190.1-190.1c0-85.8-57.1-158.4-135.2-182v-29.6
		C498.6,544.3,492.3,533.2,482.1,527.1z M410,556.2c0-2,1.1-4,2.8-5c5.9-3.5,15.5-7.7,27.5-7.7c0.2,0,0.3,0,0.5,0
		c11.8,0.1,21.2,4.3,27,7.7c1.7,1,2.7,2.9,2.7,5v23.4c-0.2,0-0.4,0-0.6-0.1c-4.6-0.6-9.3-1.1-14.1-1.4c-0.3,0-0.5,0-0.8,0
		c-2.4-0.1-4.8-0.2-7.2-0.3c-0.1,0-0.1,0-0.2,0c-1.3,0-2.6,0-4,0c-1.1,0-2.1,0-3.2,0c-0.2,0-0.4,0-0.6,0c-2.4,0-4.8,0.1-7.2,0.3
		c-0.2,0-0.4,0-0.6,0c-2.3,0.1-4.6,0.3-6.9,0.5c-0.1,0-0.3,0-0.4,0c-2.3,0.2-4.5,0.5-6.8,0.8c-0.5,0.1-1,0.1-1.5,0.2
		c-2.1,0.3-4.1,0.6-6.1,1c-0.2,0-0.4,0.1-0.5,0.1V556.2z M443.7,929.9c-65.9,0-122.7-39.5-148-96.1l1.6-1.6
		c3.3-3.3,7.7-5.1,12.4-5.1c4.7,0,9.1,1.8,12.4,5.1c8.6,8.6,20.1,13.4,32.3,13.4c12.2,0,23.7-4.8,32.3-13.4
		c3.3-3.3,7.7-5.1,12.4-5.1c4.7,0,9.1,1.8,12.4,5.1c8.6,8.6,20.1,13.4,32.3,13.4c12.2,0,23.7-4.8,32.3-13.4
		c3.3-3.3,7.7-5.1,12.4-5.1c4.7,0,9.1,1.8,12.4,5.1c8.6,8.6,20.1,13.4,32.3,13.4c12.2,0,23.7-4.8,32.3-13.4
		c3.3-3.3,7.7-5.1,12.4-5.1s9.1,1.8,12.4,5.1l1.6,1.6C566.4,890.3,509.5,929.9,443.7,929.9z M605.7,767.9c0,12.9-1.5,25.5-4.4,37.6
		c-7-4.3-15.1-6.5-23.6-6.5c-12.2,0-23.7,4.8-32.3,13.4c-3.3,3.3-7.7,5.1-12.4,5.1s-9.1-1.8-12.4-5.1c-8.6-8.6-20.1-13.4-32.3-13.4
		c-12.2,0-23.7,4.8-32.3,13.4c-3.3,3.3-7.7,5.1-12.4,5.1c-4.7,0-9.1-1.8-12.4-5.1c-8.6-8.6-20.1-13.4-32.3-13.4
		c-12.2,0-23.7,4.8-32.3,13.4c-3.3,3.3-7.7,5.1-12.4,5.1c-4.7,0-9.1-1.8-12.4-5.1c-8.6-8.6-20.1-13.4-32.3-13.4
		c-8.4,0-16.5,2.3-23.6,6.5c-2.9-12.1-4.4-24.7-4.4-37.6c0-75.2,51.5-138.6,121.1-156.8c0.2-0.1,0.4-0.1,0.7-0.2
		c1.1-0.3,2.1-0.5,3.2-0.8c0.5-0.1,1-0.2,1.5-0.3c1.3-0.3,2.6-0.6,4-0.8c1-0.2,2.1-0.4,3.1-0.6c0.7-0.1,1.4-0.2,2.1-0.3
		c1-0.2,2-0.3,2.9-0.5c0.6-0.1,1.3-0.2,1.9-0.3c1.4-0.2,2.7-0.3,4.1-0.5c0.3,0,0.5-0.1,0.8-0.1c1.6-0.2,3.3-0.3,4.9-0.4
		c0.5,0,1-0.1,1.5-0.1c1.2-0.1,2.5-0.1,3.7-0.2c0.5,0,1,0,1.5-0.1c1.7,0,3.3-0.1,5-0.1c1.5,0,3,0,4.5,0.1c0.4,0,0.9,0,1.3,0
		c1.1,0,2.1,0.1,3.2,0.1c0.5,0,1,0.1,1.5,0.1c1,0.1,2,0.1,3,0.2c0.5,0,1,0.1,1.5,0.1c1,0.1,2,0.2,3,0.3c0.5,0.1,1,0.1,1.5,0.2
		c1,0.1,2,0.3,2.9,0.4c0.5,0.1,1,0.1,1.6,0.2c1,0.1,1.9,0.3,2.9,0.5c0.5,0.1,1.1,0.2,1.6,0.3c0.9,0.2,1.8,0.4,2.8,0.5
		c1.5,0.3,2.9,0.6,4.3,0.9c0.3,0.1,0.7,0.1,1,0.2C552.1,626.7,605.7,691.1,605.7,767.9z"/>
	<path class="st0" d="M808.2,568.2h-61.2c-7.8,0-14.1,6.3-14.1,14.1c0,7.8,6.3,14.1,14.1,14.1h61.2c7.8,0,14.1-6.3,14.1-14.1
		C822.2,574.5,815.9,568.2,808.2,568.2z"/>
</g>
</svg>
