<?xml version="1.0" encoding="utf-8"?>
<!-- Generator: Adobe Illustrator 25.0.1, SVG Export Plug-In . SVG Version: 6.00 Build 0)  -->
<svg version="1.1" id="Layer_1" xmlns="http://www.w3.org/2000/svg" xmlns:xlink="http://www.w3.org/1999/xlink" x="0px" y="0px"
	 viewBox="0 0 1024 1024" style="enable-background:new 0 0 1024 1024;" xml:space="preserve">
<style type="text/css">
	.st0{fill:#25333F;}
</style>
<g>
	<path class="st0" d="M103.4,443.7c41.6,82,101.2,153.9,154.8,213.7c-7.7,77.7-7,159.9,2.3,244.5c0.4,3.9,2.6,7.5,6,9.6
		c2.1,1.3,4.5,2,7,2c1.4,0,2.9-0.2,4.3-0.7c23.8-8.3,48.1-16.4,71.5-24.3c55-18.4,111.7-37.5,167.2-59.9
		c47.5,18.2,96.1,33.6,143.2,48.5c32.1,10.2,65.3,20.7,97.7,31.9c3.8,1.3,8.1,0.8,11.5-1.4c3.4-2.2,5.5-5.9,5.8-10
		c6.2-91.7,4.8-172.3-4-246c52.6-61.8,110.9-135.4,150.2-216.8c2.8-5.9,0.9-12.9-4.5-16.5c-60.6-40.4-142.4-54.6-214.6-67.1
		c-9.5-1.6-18.5-3.2-27.3-4.8c-2.2-3.8-4.4-7.6-6.6-11.5c2.5-0.3,5-0.9,7.4-1.9c8.1-3.3,14.1-10,16.5-18.5l7.5-26.9
		c0.8-2.9,1.3-5.8,1.6-8.7c0.8-0.8,1.6-1.5,2.4-2.2c3.3-2.8,7-5.2,11-7.5c7.9,25.4,31.7,43.5,59.1,43.5c1.4,0,2.8,0,4.2-0.1
		c16.5-1.1,31.6-8.6,42.5-21c10.9-12.5,16.3-28.4,15.2-44.9c-1.1-16.5-8.6-31.6-21-42.5c-12.1-10.6-27.5-15.9-43.5-15.2
		c-1.7-6.9-4.5-13.7-8.5-20.1c-8.8-14-22.9-25.9-41.8-35.2c-38-18.6-79.7-21.4-122.7-22.7c-34.5-1.1-68.2-1.3-101.1,7.9
		c-30.6,8.5-64.5,33.1-90.7,66c-4.5,5.2-8,11.5-9.9,18.5l-7.5,26.9c-2.4,8.5-0.7,17.4,4.6,24.4c1.6,2.2,3.6,4.1,5.7,5.7
		c-17.8,29.1-33.8,58.7-49.3,87.5l-1.1,2.1c-7.6,1.5-15.3,3.1-23.3,4.7C252.2,369,169.8,385.4,107.8,427
		C102.3,430.6,100.4,437.8,103.4,443.7z M747.1,250c0.5-0.4,0.9-0.7,1.4-1.1c0.2-0.2,0.5-0.4,0.7-0.6c0.6-0.5,1.1-0.9,1.7-1.4
		c0.1-0.1,0.3-0.2,0.4-0.4c0.7-0.6,1.4-1.2,2.1-1.9c0.1-0.1,0.3-0.3,0.4-0.4c0.5-0.5,1.1-1,1.6-1.6c0.2-0.2,0.5-0.5,0.7-0.7
		c0.4-0.5,0.9-0.9,1.3-1.4c0.3-0.3,0.5-0.6,0.7-0.8c0.4-0.4,0.8-0.9,1.2-1.4c0.3-0.3,0.5-0.6,0.7-0.9c0.4-0.5,0.8-0.9,1.1-1.4
		c0.2-0.3,0.5-0.6,0.7-0.9c0.4-0.5,0.7-1,1.1-1.6c0.2-0.3,0.4-0.6,0.6-0.9c0.4-0.6,0.8-1.2,1.1-1.8c0.2-0.3,0.3-0.5,0.5-0.8
		c0.5-0.9,1-1.8,1.5-2.7c0.5-1.1,1-2.1,1.4-3.2c0.1-0.3,0.2-0.5,0.3-0.8c0.3-0.8,0.6-1.7,0.9-2.5c0.1-0.3,0.2-0.7,0.3-1
		c0.2-0.8,0.5-1.6,0.7-2.4c0.1-0.4,0.2-0.8,0.3-1.2c0.1-0.4,0.2-0.9,0.3-1.3c9.4-0.6,18.6,2.6,25.7,8.8c7.2,6.3,11.6,15.1,12.2,24.6
		c0.6,9.6-2.5,18.8-8.8,26c-6.3,7.2-15.1,11.6-24.6,12.2c-18.7,1.3-35.1-12.1-37.9-30.3c0,0,0.1-0.1,0.1-0.1
		c0.2-0.1,0.4-0.2,0.6-0.4c0.5-0.3,1-0.6,1.5-0.9c0.2-0.2,0.5-0.3,0.7-0.5c0.4-0.3,0.9-0.6,1.4-0.9c0.3-0.2,0.5-0.4,0.8-0.5
		c0.4-0.3,0.9-0.6,1.3-0.9c0.3-0.2,0.6-0.4,0.8-0.6c0.4-0.3,0.9-0.6,1.3-1C746.6,250.4,746.8,250.2,747.1,250z M503.5,143.9
		c29.4-8.1,60.9-7.9,93.3-6.9c40,1.2,78.7,3.7,112,20.1c14.5,7.1,25,15.7,31.2,25.6c4.2,6.6,6.3,14.1,6.2,21.1c0,0,0,0,0,0
		c0,0.4,0,0.7,0,1.1c0,0.3,0,0.5,0,0.8c0,0.3,0,0.6-0.1,0.9c0,0.4-0.1,0.9-0.2,1.3c0,0.2,0,0.3-0.1,0.5c-0.2,1.3-0.5,2.5-0.8,3.7
		c0,0.1-0.1,0.2-0.1,0.3c-0.2,0.5-0.3,1-0.5,1.5c0,0.1-0.1,0.2-0.1,0.4c-0.2,0.6-0.5,1.1-0.7,1.7c-0.8,1.6-1.8,3.2-3,4.7
		c-4,5.2-10.3,10.1-19.4,15.2c-0.1,0-0.2,0.1-0.2,0.1c-2.7,1.5-5.4,2.9-8.3,4.4c-6.1,3.2-12.3,6.5-18.2,10.4
		c-4.1-7.1-10.1-13.2-17.5-17.5c-34.5-19.8-71.3-35.3-109.4-46.2c-35.6-10.2-72.3-16.3-109.4-18.3
		C473.2,156.7,488.9,148,503.5,143.9z M421,210.3c2.7-9.6,11.5-16.2,21.5-15.9c39.9,0.9,79.5,6.9,117.7,17.9
		c36.1,10.3,71,25.1,103.6,43.8c8.6,4.9,12.8,15.1,10.1,24.7l-7.5,26.9c-0.2,0.6-0.6,1.1-1.2,1.3c-0.4,0.2-1.1,0.3-1.9-0.1
		c-36.5-21.4-75.6-38.1-116.3-49.7c-41.5-11.8-84.3-18.3-127.5-19.2c-0.5,0-0.9,0-1.4,0c-0.9,0-1.9,0-2.8-0.1
		c-0.7,0-1.2-0.3-1.6-0.8c-0.4-0.5-0.5-1.1-0.3-1.8L421,210.3z M330,380.1c10.2-2,19.8-3.9,29.5-5.9c3.8-0.8,7-3.2,8.8-6.6l4-7.5
		c16.7-31,34.1-63,53.4-94c38.7,1.4,77.1,7.4,114.2,18.1c30.6,8.7,60.2,20.5,88.5,35.1c8.8,15,17.4,30,25.7,44.6l0.4,0.8
		c1.9,3.3,5.2,5.6,8.9,6.3c10.9,2,21.9,3.9,33.5,5.9c65.7,11.4,139.7,24.2,195,57c-38.9,76.5-94.9,146.4-145.1,205.2
		c-2.4,2.8-3.5,6.5-3,10.1c8.7,69.1,10.6,144.4,5.7,229.7c-27.5-9.3-55.2-18.1-82.2-26.6c-48.3-15.3-98.2-31.1-146.5-49.8
		c-3.1-1.2-6.5-1.2-9.6,0.1C455.3,825.5,397.2,845,341,863.8c-18.5,6.2-37.4,12.5-56.3,19c-7.7-79.1-7.7-155.9,0-228.5
		c0.4-3.7-0.8-7.3-3.3-10.1c-51.1-56.9-108.4-125-149.4-202C188.8,408.1,263.6,393.3,330,380.1z"/>
	<path class="st0" d="M376.3,503.7c2.2,1.4,4.5,2,6.9,2c4.3,0,8.6-2.2,11-6.1c2-3.2,9.6-13.9,23.1-16.5c13.5-2.7,28,3.6,37,15.9
		c4.2,5.8,12.4,7.1,18.2,2.9c5.8-4.2,7.1-12.4,2.9-18.2c-14.9-20.5-39.7-30.8-63.1-26.2c-23,4.5-35.7,21.3-40.1,28.2
		C368.4,491.9,370.3,499.9,376.3,503.7z"/>
	<path class="st0" d="M552.2,503.7c2.2,1.4,4.5,2,6.9,2c4.3,0,8.6-2.2,11-6.1c2-3.2,9.6-13.9,23.1-16.5c13.5-2.7,28,3.6,37,15.9
		c4.2,5.8,12.4,7.1,18.2,2.9c5.8-4.2,7.1-12.4,2.9-18.2c-14.9-20.5-39.7-30.8-63.1-26.2c-23,4.5-35.7,21.3-40.1,28.2
		C544.3,491.9,546.1,499.9,552.2,503.7z"/>
	<path class="st0" d="M437.2,631.7c-4.5,5.6-3.5,13.8,2.1,18.3c19.9,15.8,49.1,24.8,79.2,24.8c5.6,0,11.3-0.3,16.9-1
		c35-4,55-19.3,62-25.7c5.3-4.9,5.6-13.1,0.8-18.4c-4.9-5.3-13.1-5.6-18.4-0.8c-4,3.7-19.1,15.8-47.3,19
		c-28.7,3.3-58.8-3.9-76.9-18.3C449.9,625.1,441.7,626,437.2,631.7z"/>
</g>
</svg>
