<?xml version="1.0" encoding="utf-8"?>
<!-- Generator: Adobe Illustrator 25.0.1, SVG Export Plug-In . SVG Version: 6.00 Build 0)  -->
<svg version="1.1" id="Layer_1" xmlns="http://www.w3.org/2000/svg" xmlns:xlink="http://www.w3.org/1999/xlink" x="0px" y="0px"
	 viewBox="0 0 1024 1024" style="enable-background:new 0 0 1024 1024;" xml:space="preserve">
<style type="text/css">
	.st0{fill:#25333F;}
</style>
<g>
	<path class="st0" d="M806.9,205.1C728.1,126.4,623.4,83,512,83s-216.1,43.4-294.9,122.1C138.4,283.9,95,388.6,95,500
		c0,103.2,37.3,200.8,105.5,277.2c-1.2,1.9-1.9,4-2.1,6.4l-9.6,142.9c-0.3,3.8,1.1,7.5,3.7,10.3c2.6,2.8,6.2,4.3,10,4.3h619.2
		c3.8,0,7.4-1.6,10-4.3c2.6-2.8,3.9-6.5,3.7-10.3l-9.6-142.9c-0.2-2.3-0.9-4.5-2.1-6.4C891.7,700.7,929,603.2,929,500
		C929,388.6,885.6,283.9,806.9,205.1z M217,913.7l7.8-115.5h1.3h571.8h1.3l7.8,115.5H217z M792.2,770.8H231.8
		c-70.7-73-109.5-169-109.5-270.8c0-214.9,174.8-389.7,389.7-389.7S901.7,285.1,901.7,500C901.7,601.8,862.8,697.7,792.2,770.8z"/>
	<path class="st0" d="M580.5,466.7c-5-4-12.1-4-17.1,0L414.6,585.8c-5.9,4.7-6.8,13.3-2.1,19.2c2.7,3.4,6.7,5.1,10.7,5.1
		c3,0,6-1,8.5-3L572,494.9l140.3,112.3c5.9,4.7,14.5,3.8,19.2-2.1c4.7-5.9,3.8-14.5-2.1-19.2L580.5,466.7z"/>
	<path class="st0" d="M695.7,600.2c-7.6,0-13.7,6.1-13.7,13.7v93.3H461.9v-93.3c0-7.5-6.1-13.7-13.7-13.7c-7.5,0-13.7,6.1-13.7,13.7
		v106.9c0,7.6,6.1,13.7,13.7,13.7h247.5c7.5,0,13.7-6.1,13.7-13.7V613.9C709.4,606.3,703.3,600.2,695.7,600.2z"/>
	<path class="st0" d="M641.2,504h18v17c0,7.5,6.1,13.7,13.7,13.7c7.6,0,13.7-6.1,13.7-13.7v-30.7c0-7.6-6.1-13.7-13.7-13.7h-31.7
		c-7.6,0-13.7,6.1-13.7,13.7C627.5,497.9,633.6,504,641.2,504z"/>
	<path class="st0" d="M652.5,435c0,5.6-2.2,10.9-6.3,15c-5.4,5.3-5.4,14-0.1,19.3c2.7,2.7,6.2,4.1,9.7,4.1c3.5,0,6.9-1.3,9.6-3.9
		c9.3-9.2,14.4-21.4,14.4-34.4c0-13-5.1-25.2-14.4-34.4c-4.1-4-6.3-9.3-6.3-15c0-5.6,2.2-10.9,6.3-15c5.4-5.3,5.4-14,0.1-19.3
		c-5.3-5.4-14-5.4-19.3-0.1c-9.3,9.2-14.5,21.4-14.5,34.4c0,13,5.1,25.2,14.5,34.4C650.2,424.1,652.5,429.4,652.5,435z"/>
	<path class="st0" d="M602.7,681.6c7.5,0,13.7-6.1,13.7-13.7v-67.2c0-7.6-6.1-13.7-13.7-13.7h-67.2c-7.6,0-13.7,6.1-13.7,13.7V668
		c0,7.6,6.1,13.7,13.7,13.7H602.7z M549.1,614.4H589v39.9h-39.9V614.4z"/>
	<path class="st0" d="M372,315.8l10.2,5l-10,13.2c-4.6,6-3.4,14.6,2.6,19.2c2.5,1.9,5.4,2.8,8.3,2.8c4.1,0,8.2-1.9,10.9-5.4l6.9-9
		l4.7,9.2c2.4,4.7,7.2,7.5,12.2,7.5c2.1,0,4.2-0.5,6.2-1.5c6.7-3.4,9.4-11.7,6-18.4l-6.8-13.3l8.3-2c7.3-1.8,11.8-9.2,10-16.5
		c-1.8-7.3-9.2-11.8-16.5-10l-8.1,2v-12.6c0-7.6-6.1-13.7-13.7-13.7c-7.6,0-13.7,6.1-13.7,13.7v8.1l-5.4-2.6
		c-6.8-3.3-15-0.5-18.3,6.2C362.4,304.3,365.2,312.4,372,315.8z"/>
	<path class="st0" d="M395.4,666l-49.9,43.3h-13.7l8-30.9c0.1-0.1,0.2-0.1,0.3-0.2l59.2-51.3c5.7-4.9,6.3-13.6,1.4-19.3
		c-4.9-5.7-13.6-6.3-19.3-1.4l-29.4,25.5l8.1-31.4l97.2-84.3c0,0,0.1-0.1,0.1-0.1c0.2-0.2,0.5-0.4,0.7-0.6c0.1-0.1,0.2-0.2,0.3-0.3
		c0.2-0.2,0.3-0.4,0.5-0.6c0.1-0.2,0.3-0.3,0.4-0.5c0.1-0.2,0.2-0.3,0.3-0.5c0.1-0.2,0.3-0.4,0.4-0.6c0.1-0.1,0.2-0.3,0.2-0.4
		c0.1-0.3,0.3-0.5,0.4-0.8c0.1-0.1,0.1-0.3,0.2-0.4c0.1-0.3,0.2-0.5,0.3-0.8c0.1-0.2,0.1-0.4,0.2-0.5c0.1-0.2,0.2-0.5,0.2-0.7
		c0.1-0.2,0.1-0.5,0.2-0.7c0-0.2,0.1-0.4,0.1-0.5c0-0.3,0.1-0.6,0.1-0.9c0-0.1,0-0.3,0-0.4c0-0.3,0-0.6,0-0.9c0-0.2,0-0.3,0-0.5
		c0-0.3,0-0.5-0.1-0.8c0-0.2,0-0.4-0.1-0.6c0-0.2-0.1-0.4-0.1-0.6c0-0.3-0.1-0.5-0.1-0.8c0-0.2-0.1-0.3-0.1-0.5
		c-0.1-0.3-0.2-0.6-0.3-0.9c0,0,0-0.1,0-0.1L416,374.9c0,0,0,0,0-0.1l0,0c0,0,0,0,0-0.1c-0.1-0.4-0.3-0.8-0.5-1.2
		c-0.1-0.2-0.2-0.4-0.3-0.6c-0.1-0.2-0.2-0.4-0.3-0.6c-0.1-0.2-0.3-0.5-0.4-0.7c-0.1-0.1-0.2-0.3-0.3-0.4c-0.2-0.2-0.3-0.4-0.5-0.6
		c-0.1-0.1-0.2-0.3-0.3-0.4c-0.2-0.2-0.3-0.3-0.5-0.5c-0.1-0.1-0.3-0.3-0.4-0.4c-0.2-0.1-0.3-0.3-0.5-0.4c-0.2-0.2-0.4-0.3-0.6-0.5
		c-0.1-0.1-0.3-0.2-0.4-0.3c-0.2-0.2-0.4-0.3-0.7-0.5c-0.1-0.1-0.3-0.2-0.4-0.2c-0.2-0.1-0.5-0.3-0.7-0.4c-0.2-0.1-0.4-0.2-0.6-0.2
		c-0.2-0.1-0.4-0.2-0.7-0.3c-0.4-0.1-0.7-0.2-1.1-0.3c-0.1,0-0.1,0-0.2-0.1l0,0c-0.9-0.2-1.8-0.4-2.7-0.4c-0.2,0-0.3,0-0.4,0
		c-0.3,0-0.6,0-0.9,0c-0.2,0-0.5,0-0.7,0.1c-0.2,0-0.4,0-0.6,0.1c-0.4,0.1-0.8,0.1-1.2,0.2c0,0-0.1,0-0.1,0
		c-0.4,0.1-0.9,0.2-1.3,0.4c0,0,0,0,0,0c-0.1,0-0.1,0-0.2,0.1c-0.4,0.1-0.7,0.3-1.1,0.4c-0.2,0.1-0.4,0.2-0.6,0.3
		c-0.2,0.1-0.4,0.2-0.5,0.3c-0.2,0.1-0.5,0.3-0.7,0.5c-0.1,0.1-0.3,0.2-0.4,0.3c-0.2,0.2-0.4,0.3-0.7,0.5c-0.1,0.1-0.3,0.2-0.4,0.3
		c-0.2,0.2-0.4,0.4-0.5,0.5c-0.1,0.1-0.3,0.3-0.4,0.4c-0.1,0.2-0.3,0.3-0.4,0.5c-0.1,0.2-0.3,0.4-0.4,0.5c-0.1,0.2-0.2,0.3-0.3,0.5
		c-0.1,0.2-0.3,0.4-0.4,0.6c-0.1,0.2-0.2,0.3-0.3,0.5c-0.1,0.2-0.3,0.5-0.4,0.7c-0.1,0.2-0.2,0.4-0.3,0.6c-0.1,0.2-0.2,0.4-0.2,0.6
		c-0.1,0.4-0.3,0.8-0.4,1.2c0,0,0,0.1,0,0.1l0,0c0,0,0,0,0,0.1l-88.4,341.4c-0.4,1.5-0.5,3-0.4,4.5c0,0.4-0.1,0.7-0.1,1.1
		c0,7.6,6.1,13.7,13.7,13.7h83.2c7.5,0,13.7-6.1,13.7-13.7c0-7.5-6.1-13.7-13.7-13.7h-10.7l26.1-22.7c5.7-4.9,6.3-13.6,1.4-19.3
		C409.7,661.7,401.1,661.1,395.4,666z M405.2,425.9l9.2,25.7L394,469.1L405.2,425.9z M381.9,515.7l42.3-36.5l8,22.4l-60.1,52.2
		L381.9,515.7z"/>
	<path class="st0" d="M247.5,624c-22,0-22,34.2,0,34.2C269.5,658.2,269.5,624,247.5,624z"/>
	<path class="st0" d="M259.8,464c-22,0-22,34.2,0,34.2C281.8,498.2,281.8,464,259.8,464z"/>
	<path class="st0" d="M216.7,338.9c-22,0-22,34.2,0,34.2C238.7,373.1,238.7,338.9,216.7,338.9z"/>
	<path class="st0" d="M333.6,235.7c22,0,22-34.2,0-34.2C311.6,201.5,311.6,235.7,333.6,235.7z"/>
	<path class="st0" d="M530.5,227.5c22,0,22-34.2,0-34.2C508.5,193.3,508.4,227.5,530.5,227.5z"/>
	<path class="st0" d="M567.4,362.9c22,0,22-34.2,0-34.2C545.4,328.7,545.4,362.9,567.4,362.9z"/>
	<path class="st0" d="M723.2,240.5c-22,0-22,34.2,0,34.2C745.2,274.7,745.3,240.5,723.2,240.5z"/>
	<path class="st0" d="M817.6,408.7c-22,0-22,34.2,0,34.2C839.6,442.8,839.6,408.7,817.6,408.7z"/>
	<path class="st0" d="M774.5,628.1c-22,0-22,34.2,0,34.2C796.5,662.3,796.5,628.1,774.5,628.1z"/>
</g>
</svg>
