<?xml version="1.0" encoding="utf-8"?>
<!-- Generator: Adobe Illustrator 25.0.1, SVG Export Plug-In . SVG Version: 6.00 Build 0)  -->
<svg version="1.1" id="Layer_1" xmlns="http://www.w3.org/2000/svg" xmlns:xlink="http://www.w3.org/1999/xlink" x="0px" y="0px"
	 viewBox="0 0 1024 1024" style="enable-background:new 0 0 1024 1024;" xml:space="preserve">
<style type="text/css">
	.st0{fill:#25333F;}
</style>
<g>
	<path class="st0" d="M283.9,383.9c1.2,0.1,2.5,0.1,3.7,0.1c24.6,0,42.8-12,65.5-27.1c6.3-4.2,12.8-8.5,20.1-13
		c30.1-18.6,62.9-33.9,97.7-45.3c1.9-0.6,3.5-1.6,4.8-2.9c2.6-1.3,5.1-3,7.6-5c1.5,2.1,3.3,4.1,5.3,5.9c6.5,5.7,15,8.7,23.8,8.7
		c1.7,0,3.5-0.1,5.2-0.4c23.9-2.8,42.2-3.1,59.2-0.9c10.4,1.4,20.7-1.6,28.3-8.3c2.5-2.2,4.6-4.8,6.3-7.5c1.9,1.5,3.9,2.7,5.9,3.7
		c1.3,1.3,3,2.3,4.8,2.9c34.7,11.4,67.6,26.7,97.7,45.3c7.3,4.5,13.8,8.8,20.1,13c22.7,15.1,40.9,27.1,65.5,27.1
		c1.2,0,2.4,0,3.7-0.1c24-1.1,47.3-13.4,69.2-36.4c1.8-1.9,2.9-4.3,3.3-6.7c20.4-29.5,25.8-82.1,25.3-112.5
		c-0.5-30.9-1.6-95.3-46.7-128.2c-35.3-25.8-86.5-22.8-148.1,8.7c-48.4,24.7-88.1,58.9-99.8,71.6c-4.7,5.1-8.7,10.8-11.8,16.9
		c0,0.1-0.1,0.1-0.1,0.2c-5.6-4.8-12.3-8.4-19.6-9.9c-0.4-0.1-0.8-0.1-1.1-0.2c-22.1-2.7-43.1-2.6-66.1,0.4
		c-8.8,1.2-16.3,5.4-22.3,11.2c-2.9-5.2-6.5-10.2-10.6-14.7c-11.7-12.7-51.4-46.9-99.8-71.6c-61.5-31.5-112.8-34.5-148.1-8.7
		c-45.1,32.9-46.2,97.3-46.7,128.2c-0.5,30.4,4.9,83,25.3,112.5c0.4,2.4,1.5,4.8,3.3,6.7C236.6,370.5,259.9,382.8,283.9,383.9z
		 M808,354.5c-18.2,0.9-32.4-8.5-53.9-22.8c-6.2-4.1-13.1-8.7-20.8-13.4c-17.8-11-36.5-20.9-56-29.6c19-4.5,40.3-8.2,64.8-1.4
		c28.8,7.9,45.9,26.6,60.9,43c6.9,7.6,14,15.3,21.8,20.7C819.2,353.1,813.6,354.3,808,354.5z M623.3,205.1c2.1-4.1,4.8-7.9,7.9-11.3
		c10.2-11.1,47.7-43.2,92.6-66.1c36.5-18.7,87.2-35.7,121.4-10.8c34.9,25.4,35.8,81.2,36.2,108c0.8,46.1-12.3,101.6-32.4,107.6
		c-6.7,2-13.1-4-27.2-19.4c-15.6-17.1-37-40.5-73-50.4c-12.2-3.4-23.7-4.6-34.4-4.6c-19.5,0-36.6,4.2-51.3,7.9
		c-22.1,5.5-31.7,7-38.1,0.3C614,254.5,613.1,224.8,623.3,205.1z M516.9,209.1c20.5-2.6,39.3-2.8,59.1-0.4c8,2,14.8,10.3,14.6,18.1
		c0,0.1,0,0.2,0,0.3l0,43.4c0,0,0,0.1,0,0.1c0,2.4-0.8,4.3-2.4,5.8c-2,1.8-5,2.5-8,2.1c-0.1,0-0.1,0-0.2,0
		c-24.5-3.1-47.9-1.1-65.5,0.9c-0.1,0-0.2,0-0.3,0c-3.3,0.5-6.6-0.4-8.9-2.3c-1.8-1.6-2.7-3.6-2.7-6.2l-0.2-43.2
		C503,219.8,509.2,210.2,516.9,209.1z M359.8,322.2c-7.6,4.7-14.6,9.4-20.8,13.4c-21.5,14.2-35.7,23.7-53.9,22.8
		c-5.6-0.3-11.2-1.5-16.8-3.6c7.8-5.4,14.8-13.1,21.8-20.7c15-16.4,32.1-35.1,60.9-43c24.4-6.7,45.7-3.1,64.8,1.4
		C396.3,301.3,377.6,311.2,359.8,322.2z M247.9,120.7c12.3-8.9,26.6-12.5,41.7-12.5c27,0,56.2,11.3,79.6,23.3
		c44.9,22.9,82.4,55,92.6,66.1c3.2,3.4,5.8,7.3,7.9,11.3c10.2,19.7,9.3,49.4-1.8,61c-6.4,6.7-16.1,5.2-38.1-0.3
		c-22.9-5.7-51.3-12.7-85.7-3.2c-35.9,9.9-57.3,33.3-73,50.4c-14,15.3-20.4,21.4-27.2,19.4c-20-6-33.1-61.5-32.4-107.6
		C212.1,201.9,213,146.1,247.9,120.7z"/>
	<path class="st0" d="M291.1,841.9c-6.5-2.7-14,0.3-16.7,6.8c-6,14.1-2.8,30.5,8.9,46.2c10.2,13.7,26.1,25.6,44.9,33.5
		c14.8,6.2,30.1,9.5,44.2,9.5c3.8,0,7.5-0.2,11-0.7c19.4-2.6,33.3-11.7,39.3-25.9c2.7-6.5-0.3-14-6.8-16.7c-6.5-2.7-14,0.3-16.7,6.8
		c-2.3,5.3-9.2,9.2-19.1,10.5c-12.3,1.6-27.6-0.9-42-7c-14.4-6.1-26.9-15.3-34.3-25.2c-6-8-8.1-15.6-5.8-21
		C300.7,852.1,297.6,844.6,291.1,841.9z"/>
	<path class="st0" d="M117,730.9c0.1,4.3,2.4,8.2,6,10.5c74.8,46.3,153.8,87.1,234.9,121.1c79.9,33.6,163.1,61.3,247.2,82.2
		c1,0.3,2.1,0.4,3.1,0.4c3.2,0,6.3-1.2,8.6-3.4c3.2-2.9,4.7-7.2,4-11.4L605.7,836c25.2-7.3,50.3-15.3,74.8-23.7
		c72.1-25,142.8-55.8,210.1-91.6c3.8-2,6.3-5.8,6.7-10.1c0.4-4.3-1.4-8.5-4.7-11.2L767.5,598.4L719.7,460
		c-12.6-36.6-38.3-66.8-72.4-85.1c-32.8-17.7-70.6-22.9-106.7-14.7c-35.9-9.4-73.7-7-108.8,7.2c-42.9,17.4-76.4,50.5-94.4,93.1
		l-65,154L122.4,720.1C118.9,722.6,116.9,726.6,117,730.9z M695.5,468.3l49.1,141.9c0.8,2.3,2.2,4.3,4,5.8l112.8,91.1
		c-61,31.3-124.6,58.6-189.3,81c-23.1,8-46.7,15.5-70.5,22.5l-9.9-61.4l65-154c4.5-10.7,7.9-21.6,10.2-32.7c0.3-1.4,0.6-2.8,0.8-4.2
		c4.5-25,3.4-50.6-3.2-75.4c-1.9-6.9-4.1-13.7-6.9-20.4c-0.7-1.8-1.5-3.6-2.3-5.4c-0.2-0.4-0.4-0.8-0.6-1.3
		c-0.8-1.8-1.6-3.5-2.5-5.3c-0.1-0.2-0.2-0.3-0.3-0.5c-0.8-1.6-1.6-3.2-2.5-4.8c-0.2-0.4-0.4-0.8-0.6-1.2c-0.9-1.7-1.9-3.4-2.9-5
		c-0.2-0.3-0.3-0.5-0.5-0.8c-0.9-1.5-1.8-2.9-2.7-4.4c-0.2-0.3-0.4-0.7-0.6-1c-1-1.6-2.1-3.2-3.2-4.7c-0.2-0.3-0.4-0.6-0.6-0.9
		c-1-1.4-2-2.8-3-4.1c-0.2-0.3-0.4-0.5-0.6-0.8c-1.2-1.5-2.3-3-3.5-4.5c-0.3-0.3-0.5-0.6-0.8-0.9c-1.1-1.3-2.2-2.6-3.4-3.9
		c-0.2-0.2-0.3-0.4-0.5-0.6c-1.3-1.4-2.6-2.8-3.9-4.2c-0.3-0.3-0.6-0.6-0.9-0.9c-1.3-1.3-2.6-2.6-3.9-3.9c-0.1-0.1-0.2-0.2-0.3-0.3
		c-1.4-1.3-2.8-2.6-4.2-3.9c-0.3-0.3-0.7-0.6-1-0.9c-1.4-1.3-2.9-2.5-4.4-3.8c0,0-0.1-0.1-0.1-0.1c-1.5-1.2-2.9-2.4-4.4-3.5
		c-0.4-0.3-0.7-0.5-1.1-0.8c-1.5-1.2-3.1-2.3-4.6-3.4c-0.2-0.1-0.4-0.3-0.6-0.4c-1.4-1-2.9-2-4.3-2.9c-0.2-0.1-0.4-0.3-0.6-0.4
		C638.7,389.4,679.2,421.2,695.5,468.3z M290.2,633.3c2-1.4,3.5-3.3,4.4-5.5L361,470.5c15.3-36.3,43.9-64.5,80.4-79.4
		c30.7-12.5,63.9-14.3,95.3-5.5c0,0,0.1,0,0.1,0c1.5,0.4,3,0.9,4.4,1.3c0,0,0,0,0.1,0c1.3,0.4,2.7,0.9,4,1.3
		c0.3,0.1,0.6,0.2,0.9,0.3c1.1,0.4,2.2,0.8,3.2,1.2c0.3,0.1,0.7,0.2,1,0.4c1.3,0.5,2.7,1.1,4,1.6c36.3,15.3,64.5,43.9,79.4,80.4
		s14.6,76.7-0.7,113l-66.4,157.3c-0.7,1.7-1,3.4-1,5.2c0,0.6,0.1,1.2,0.2,1.8l26.6,165.6c-76.4-20-151.9-45.6-224.7-76.2
		c-73.9-31.1-146.1-67.8-214.8-109.2L290.2,633.3z"/>
	<path class="st0" d="M691.3,848.6c-24.9,8.6-48,4-51.4-5.6c-2.3-6.7-9.6-10.2-16.3-7.9c-6.7,2.3-10.2,9.6-7.9,16.3
		c6.1,17.5,25.7,27.4,49.9,27.4c10.7,0,22.3-1.9,34-6c38.3-13.2,61.5-43.4,52.7-68.7c-2.3-6.7-9.6-10.2-16.3-7.9
		c-6.7,2.3-10.2,9.6-7.9,16.3C731.5,822.1,716.1,840,691.3,848.6z"/>
</g>
</svg>
