<?xml version="1.0" encoding="utf-8"?>
<!-- Generator: Adobe Illustrator 25.0.1, SVG Export Plug-In . SVG Version: 6.00 Build 0)  -->
<svg version="1.1" id="Layer_1" xmlns="http://www.w3.org/2000/svg" xmlns:xlink="http://www.w3.org/1999/xlink" x="0px" y="0px"
	 viewBox="0 0 1024 1024" style="enable-background:new 0 0 1024 1024;" xml:space="preserve">
<style type="text/css">
	.st0{fill:#25333F;}
</style>
<g>
	<path class="st0" d="M754.7,318.3c-94.3,0-171.1,76.8-171.1,171.1v50.2l-1.6-1.9c-20.6-24.3-57.2-27.3-81.5-6.7
		c-24.3,20.6-27.3,57.2-6.7,81.5l95.7,112.9c0.3,1.2,0.5,3,0.8,4.9c-14.1,6.4-23.9,20.6-23.9,37.1v64.2c0,22.4,18.3,40.7,40.7,40.7
		h295.3c22.4,0,40.7-18.3,40.7-40.7v-64.2c0-13.3-6.4-25.1-16.3-32.5V489.4c0-94.3-76.8-171.1-171.1-171.1H754.7z M908.1,754.3
		L908.1,754.3c5,2.2,8.4,7.2,8.4,12.9v64.2c0,7.8-6.4,14.2-14.2,14.2H607c-7.8,0-14.2-6.4-14.2-14.2v-64.2c0-7.3,5.6-13.4,12.7-14.1
		c0.1,0,0.3,0,0.4,0l0.2,0c0.3,0,0.5,0,0.8,0h295.3C904.3,753.1,906.2,753.5,908.1,754.3z M900.2,489.4v237.2H616.5
		c-1.5-9.8-2.5-13.3-5.3-16.5l-97.3-114.8c-11.2-13.2-9.5-33,3.6-44.1c13.2-11.2,33-9.5,44.1,3.6l25,29.5c3.6,4.2,9.5,5.8,14.7,3.9
		c5.2-1.9,8.7-6.9,8.7-12.5v-86.4c0-79.7,64.9-144.6,144.6-144.6h1C835.3,344.8,900.2,409.6,900.2,489.4z"/>
	<path class="st0" d="M121.7,705.7H417c22.4,0,40.7-18.3,40.7-40.7v-64.2c0-16.5-9.8-30.6-23.9-37.1c0.3-1.9,0.6-3.7,0.8-4.9
		L530.3,446c20.6-24.3,17.6-60.9-6.7-81.5c-24.3-20.6-60.9-17.6-81.5,6.7l-1.6,1.9v-50.2c0-94.3-76.8-171.1-171.1-171.1h-1
		c-94.3,0-171.1,76.8-171.1,171.1v245.4c-9.9,7.4-16.3,19.3-16.3,32.5V665C81,687.5,99.3,705.7,121.7,705.7z M123.8,322.9
		c0-79.7,64.9-144.6,144.6-144.6h1c79.7,0,144.6,64.9,144.6,144.6v86.4c0,5.6,3.5,10.5,8.7,12.5c5.2,1.9,11.1,0.4,14.7-3.9l25-29.5
		c11.2-13.2,31-14.8,44.1-3.6c13.2,11.2,14.8,31,3.6,44.1l-97.3,114.8c-2.7,3.2-3.7,6.7-5.3,16.5H123.8V322.9z M107.5,600.8
		c0-5.8,3.5-10.7,8.4-12.9c0,0,0,0,0,0c1.4-0.6,2.8-1,4.3-1.2h0c0.5-0.1,1-0.1,1.5-0.1H417c0.3,0,0.5,0,0.8,0l0.2,0
		c0.1,0,0.3,0,0.4,0c7.1,0.7,12.7,6.8,12.7,14.1V665c0,7.8-6.4,14.2-14.2,14.2H121.7c-7.8,0-14.2-6.4-14.2-14.2V600.8z"/>
</g>
</svg>
