<?xml version="1.0" encoding="utf-8"?>
<!-- Generator: Adobe Illustrator 25.0.1, SVG Export Plug-In . SVG Version: 6.00 Build 0)  -->
<svg version="1.1" id="Layer_1" xmlns="http://www.w3.org/2000/svg" xmlns:xlink="http://www.w3.org/1999/xlink" x="0px" y="0px"
	 viewBox="0 0 1024 1024" style="enable-background:new 0 0 1024 1024;" xml:space="preserve">
<style type="text/css">
	.st0{fill:#25333F;}
</style>
<g>
	<path class="st0" d="M535.3,677.5l-30.8,5.8l4.3-6.3c4-5.9,2.5-13.9-3.4-17.9c-5.9-4-13.9-2.5-17.9,3.4L468.7,690l-38.7,7.3
		l13.1-37.2l30.1-14.5c6.4-3.1,9.1-10.8,6-17.2c-3.1-6.4-10.8-9.1-17.2-6l-6.9,3.3l10.4-29.6c2.4-6.7-1.2-14-7.9-16.4
		c-6.7-2.4-14,1.2-16.4,7.9l-10.4,29.6l-3.3-6.9c-3.1-6.4-10.8-9.1-17.2-6c-6.4,3.1-9.1,10.8-6,17.2l14.5,30.1l-13.1,37.2L380,658.9
		l2.5-33.3c0.5-7.1-4.8-13.3-11.9-13.8c-7.1-0.5-13.3,4.8-13.8,11.9l-0.6,7.7l-20.5-23.8c-4.6-5.4-12.7-6-18.1-1.4
		c-5.4,4.6-6,12.7-1.4,18.1l20.4,23.8l-7.7-0.6c-7.1-0.5-13.3,4.8-13.8,11.9c-0.5,7.1,4.8,13.3,11.9,13.8l33.3,2.5l25.7,29.9
		l-38.7,7.3L319.9,694c-5.9-4-13.9-2.5-17.9,3.4c-4,5.9-2.5,13.9,3.4,17.9l6.3,4.3l-30.8,5.8c-7,1.3-11.6,8-10.3,15
		c1.2,6.2,6.6,10.5,12.6,10.5c0.8,0,1.6-0.1,2.4-0.2l30.8-5.8l-4.3,6.3c-4,5.9-2.5,13.9,3.4,17.9c2.2,1.5,4.7,2.2,7.2,2.2
		c4.1,0,8.1-2,10.6-5.6l18.8-27.6l38.7-7.3L377.9,768l-30.1,14.5c-6.4,3.1-9.1,10.8-6,17.2c2.2,4.6,6.8,7.3,11.6,7.3
		c1.9,0,3.8-0.4,5.6-1.3l6.9-3.3l-10.4,29.6c-2.4,6.7,1.2,14,7.9,16.4c1.4,0.5,2.8,0.7,4.3,0.7c5.3,0,10.3-3.3,12.1-8.6l10.4-29.6
		l3.3,6.9c2.2,4.6,6.8,7.3,11.6,7.3c1.9,0,3.8-0.4,5.6-1.3c6.4-3.1,9.1-10.8,6-17.2l-14.5-30.1l13.1-37.2l25.7,29.9l-2.5,33.3
		c-0.5,7.1,4.8,13.3,11.9,13.8c0.3,0,0.7,0,1,0c6.7,0,12.3-5.1,12.8-11.9l0.6-7.7l20.5,23.8c2.5,3,6.1,4.5,9.8,4.5
		c3,0,5.9-1,8.4-3.1c5.4-4.6,6-12.7,1.4-18.1l-20.4-23.8l7.7,0.6c0.3,0,0.7,0,1,0c6.7,0,12.3-5.1,12.8-11.9
		c0.5-7.1-4.8-13.3-11.9-13.8l-33.3-2.5l-25.7-29.9l38.7-7.3l27.6,18.8c2.2,1.5,4.7,2.2,7.2,2.2c4.1,0,8.1-2,10.6-5.6
		c4-5.9,2.5-13.9-3.4-17.9l-6.3-4.3l30.8-5.8c7-1.3,11.6-8,10.3-15C549,680.7,542.3,676.1,535.3,677.5z"/>
	<path class="st0" d="M787.4,78.5c-17-6.6-38-5.2-59.2,3.8c-19.7,8.4-36.9,22.6-47.2,38.9c-9.9,15.6-10.9,28.9-11.8,40.7
		c-0.8,11.1-1.5,19.9-9.2,31.2c-11.6,17-32.6,29.2-59,34.5c-23.9,4.7-39.8-0.9-55.2-6.3c-15.8-5.6-32-11.3-51.9-3.2
		c-45.3,18.5-53.5,86.9-57.9,123.7c-0.3,2.3-0.6,4.7-0.9,7.2l-77.8,37.4c-15.5,7.4-27.2,20.5-32.9,36.7l-137,390.3
		c-5.1,14.5,2.6,30.3,17,35.4L487.1,948c3,1.1,6.1,1.6,9.2,1.6c4.1,0,8.2-0.9,12-2.8c6.7-3.2,11.7-8.8,14.2-15.8l137-390.3
		c5.7-16.2,4.7-33.7-2.7-49.2l-8.4-17.5c28.3-8.3,87.1-27.7,113.4-51c74.1-65.7,75.7-164.4,76.2-196.8
		C838.7,188.1,840.1,99,787.4,78.5z M453.6,475c3.4,4.3,7.4,8.2,11.9,11.8c15,11.8,30.5,16,48.1,16c3.8,0,7.7-0.2,11.6-0.6
		c-9.3,15.4-28.5,22.8-46.2,16.6C460.7,512.4,450.2,493.5,453.6,475z M468.5,451c6.7-5,14.9-7.9,23.5-7.9c4.3,0,8.6,0.7,12.9,2.2
		c13.9,4.9,23.3,16.9,25.5,30.5c-23.6,3.3-36.3,0.7-49-9.2C476,462.3,471.8,457,468.5,451z M635.3,532.2l-137,390.3
		c-0.2,0.7-0.7,1-1,1.2c-0.4,0.2-0.9,0.3-1.6,0.1l-282.7-99.2c-0.7-0.2-1-0.7-1.2-1c-0.2-0.4-0.3-0.9-0.1-1.6l137-390.3
		c3.4-9.7,10.4-17.6,19.7-22l64-30.7c-1.3,21.9-0.6,45.8,6,66.9c-3.1,4.5-5.6,9.5-7.5,14.9c-11.8,33.7,6,70.6,39.6,82.5
		c7.1,2.5,14.3,3.7,21.4,3.7c26.7,0,51.8-16.7,61.1-43.3c1.7-5,2.8-10,3.3-15.1c0-0.2,0-0.4,0.1-0.5c2.6-28.8-14.5-56.8-43-66.8
		c-18.3-6.4-37.7-4.1-53.4,4.8c-3.5-18.9-2.6-40.2-0.9-59c3.1-0.8,6.2-1.2,9.3-1.2c4.3,0,8.6,0.7,12.8,2.2l104.7,36.7h0
		c0.5,0.2,0.9,0.6,1.2,1l31.6,65.7c0,0,0,0,0,0l15,31.2C638.1,511.9,638.7,522.4,635.3,532.2z M812.3,225.8
		c-0.5,32.7-2,119.7-67.6,178c-21.1,18.7-74.8,37.3-107.6,46.7l-26.9-55.9c-3.2-6.7-8.8-11.7-15.8-14.2h0l-104.7-36.7
		c-9-3.2-18.5-4.3-27.7-3.3c3.9-32.3,11.7-86.2,41.5-98.4c10.3-4.2,18.6-1.7,33.6,3.6c16.9,6,38,13.4,68.8,7.3
		c33.1-6.6,59.8-22.6,75.3-45.2c11.6-17,12.7-31.2,13.7-43.8c0.8-10.4,1.4-18.7,7.9-28.9c15.9-25,53.2-41.1,75.4-32.5
		C814.1,116.5,812.8,198.7,812.3,225.8z"/>
</g>
</svg>
