<?xml version="1.0" encoding="utf-8"?>
<!-- Generator: Adobe Illustrator 25.0.1, SVG Export Plug-In . SVG Version: 6.00 Build 0)  -->
<svg version="1.1" id="Layer_1" xmlns="http://www.w3.org/2000/svg" xmlns:xlink="http://www.w3.org/1999/xlink" x="0px" y="0px"
	 viewBox="0 0 1024 1024" style="enable-background:new 0 0 1024 1024;" xml:space="preserve">
<style type="text/css">
	.st0{fill:#25333F;}
</style>
<path class="st0" d="M924.5,433.7c0-0.2,0-0.4,0-0.6c0,0,0-0.1,0-0.1c0-0.1,0-0.2,0-0.3c0-0.2-0.1-0.4-0.1-0.6
	c0-0.2-0.1-0.3-0.1-0.5c0-0.2-0.1-0.4-0.1-0.6c-0.1-0.2-0.1-0.4-0.2-0.5c-0.1-0.2-0.1-0.3-0.2-0.5c-0.1-0.2-0.2-0.4-0.3-0.6
	c-0.1-0.1-0.1-0.3-0.2-0.4c-0.1-0.2-0.2-0.4-0.4-0.6c-0.1-0.1-0.1-0.2-0.2-0.3c0,0,0,0,0-0.1c0,0,0-0.1,0-0.1
	c-0.1-0.1-0.2-0.2-0.3-0.4c0,0-0.1-0.1-0.1-0.1c-0.1-0.1-0.2-0.2-0.3-0.4c-0.1-0.1-0.2-0.2-0.3-0.4c-0.1-0.2-0.3-0.3-0.4-0.5
	c0,0-0.1-0.1-0.1-0.1c-0.2-0.2-0.5-0.4-0.7-0.6c0,0,0,0,0,0c-0.3-0.2-0.6-0.5-0.9-0.7l0,0l-123-80.4v-73.4c0-25.3-20-45.8-44.7-45.8
	H614l-54.3-35.4c-29-18.9-66.4-18.9-95.4,0L410,225.2H272.2c-24.6,0-44.7,20.6-44.7,45.8v73.4l-123,80.4c0,0,0,0,0,0
	c-0.2,0.1-0.4,0.3-0.6,0.5c-0.1,0.1-0.2,0.1-0.3,0.2c-0.2,0.1-0.3,0.3-0.5,0.4c-0.1,0.1-0.3,0.2-0.4,0.4c-0.1,0.1-0.1,0.2-0.2,0.2
	c-0.2,0.2-0.4,0.4-0.6,0.6c0,0-0.1,0.1-0.1,0.1c-0.2,0.3-0.4,0.5-0.6,0.8c0,0,0,0,0,0c0,0.1-0.1,0.1-0.1,0.2
	c-0.2,0.2-0.3,0.5-0.4,0.7c-0.1,0.1-0.1,0.3-0.2,0.4c0,0,0,0,0,0.1c-0.1,0.2-0.2,0.3-0.2,0.5c-0.1,0.2-0.1,0.3-0.2,0.5
	c-0.1,0.2-0.1,0.4-0.2,0.5c-0.1,0.2-0.1,0.4-0.1,0.6c0,0.1,0,0.1,0,0.2c0,0,0,0.1,0,0.1c0,0.1,0,0.1,0,0.2c0,0.2-0.1,0.4-0.1,0.6
	c0,0.1,0,0.2-0.1,0.4c0,0,0,0.1,0,0.1c0,0.2,0,0.4,0,0.5c0,0.1,0,0.3,0,0.4c0,0,0,0,0,0.1v0.2v0v402.8c0,6.2,5,11.2,11.2,11.2h802.6
	c6.2,0,11.2-5,11.2-11.2V434.4v0v-0.2c0,0,0,0,0-0.1C924.5,434,924.5,433.8,924.5,433.7z M796.4,371.3l79.1,51.7h-79.1V371.3z
	 M796.4,445.4h79.1l-79.1,51.7V445.4z M476.6,208.6c21.5-14.1,49.3-14.1,70.8,0l25.5,16.6H451.1L476.6,208.6z M250.1,350.7
	L250.1,350.7v-79.6c0-12.9,9.9-23.4,22.2-23.4h141.1c0,0,0,0,0,0l0,0h338.4c12.2,0,22.2,10.5,22.2,23.4v79.6v0v161.1l-121.5,79.4
	l-10.5-16c0.7,0.1,1.4,0.2,2.1,0.2c2.1,0,4.3-0.6,6.1-1.8c5.2-3.4,6.6-10.4,3.2-15.6L614,497.9c1.6,0.8,3.3,1.2,5.1,1.2
	c2.1,0,4.2-0.6,6.1-1.8c5.2-3.4,6.6-10.4,3.2-15.6l-39.2-59.8c1.4,0.6,2.8,0.9,4.3,0.9c2.1,0,4.2-0.6,6.1-1.8
	c5.2-3.4,6.6-10.4,3.2-15.6l-81.6-124.5c-2.1-3.2-5.6-5.1-9.4-5.1c-3.8,0-7.3,1.9-9.4,5.1L421,405.4c-3.4,5.2-2,12.2,3.2,15.6
	c3.2,2.1,7.2,2.4,10.5,1l-39.2,59.8c-3.4,5.2-2,12.2,3.2,15.6c1.9,1.2,4,1.8,6.1,1.8c1.8,0,3.5-0.4,5.1-1.2L370.6,558
	c-3.4,5.2-2,12.2,3.2,15.6c1.9,1.2,4,1.8,6.1,1.8c0.7,0,1.4-0.1,2.1-0.2l-10.5,16l-121.5-79.4V350.7z M408.8,554.8
	c-2.5-1.7-5.5-2.2-8.2-1.6l38.8-59.1c3.4-5.2,2-12.2-3.2-15.6c-3.5-2.3-7.7-2.4-11.2-0.6l39.4-60.1c3.4-5.2,2-12.2-3.2-15.6
	c-3.2-2.1-7.2-2.4-10.5-1l61.4-93.6l61.4,93.6c-3.3-1.4-7.2-1.1-10.5,1c-5.2,3.4-6.6,10.4-3.2,15.6l39.4,60.1
	c-3.5-1.7-7.7-1.6-11.2,0.6c-5.2,3.4-6.6,10.4-3.2,15.6l38.8,59.1c-2.8-0.5-5.7,0-8.2,1.6c-5.2,3.4-6.6,10.4-3.2,15.6l21.7,33.2
	l-86.2,56.3c-21.5,14.1-49.3,14.1-70.8,0l-86.2-56.3l21.7-33.2C415.5,565.1,414,558.2,408.8,554.8z M227.6,371.3V423h-79.1
	L227.6,371.3z M227.6,445.4v51.7l-79.1-51.7H227.6z M902.1,825.9H122V455l342.3,223.7c14.5,9.5,31.1,14.2,47.7,14.2
	c16.6,0,33.2-4.7,47.7-14.2L902.1,455V825.9z"/>
</svg>
