<?xml version="1.0" encoding="utf-8"?>
<!-- Generator: Adobe Illustrator 25.0.1, SVG Export Plug-In . SVG Version: 6.00 Build 0)  -->
<svg version="1.1" id="Layer_1" xmlns="http://www.w3.org/2000/svg" xmlns:xlink="http://www.w3.org/1999/xlink" x="0px" y="0px"
	 viewBox="0 0 1024 1024" style="enable-background:new 0 0 1024 1024;" xml:space="preserve">
<style type="text/css">
	.st0{fill:#25333F;}
</style>
<g>
	<path class="st0" d="M186.8,504.3v12.9c0,8,3.9,15.7,10.4,20.4l2.4,1.7c4.4,3.2,9.6,4.8,14.9,4.8c3.3,0,6.6-0.6,9.6-1.9l38.1-15.9
		c0.7,0.5,1.3,1.1,2.1,1.6c-0.2,10.5-0.9,21.1-2.3,31.5c-1.6,12.5-4.1,25.1-7.3,37.3c0,0,0,0.1,0,0.1c0,0.1,0,0.2-0.1,0.3
		c0,0.1,0,0.2,0,0.3c0,0.1,0,0.2,0,0.3c0,0.1,0,0.2,0,0.3c0,0,0,0.1,0,0.1c0,0,0,0.1,0,0.1c0,0.1,0,0.2,0,0.3c0,0.1,0,0.1,0,0.2
		c0,0.1,0,0.2,0,0.3c0,0.1,0,0.2,0,0.2c0,0.1,0,0.2,0.1,0.3c0,0.1,0.1,0.2,0.1,0.3c0,0.1,0.1,0.1,0.1,0.2c0,0.1,0.1,0.2,0.1,0.3
		c0,0.1,0.1,0.1,0.1,0.2c0,0.1,0.1,0.2,0.1,0.3c0,0.1,0.1,0.1,0.1,0.2c0.1,0.1,0.1,0.2,0.2,0.2c0,0.1,0.1,0.1,0.2,0.2
		c0.1,0.1,0.1,0.1,0.2,0.2c0.1,0.1,0.1,0.1,0.2,0.2c0.1,0.1,0.1,0.1,0.2,0.2c0.1,0.1,0.1,0.1,0.2,0.2c0.1,0,0.1,0.1,0.2,0.1
		c0.1,0.1,0.2,0.1,0.2,0.2c0.1,0,0.1,0.1,0.2,0.1c0.1,0.1,0.2,0.1,0.2,0.1c0.1,0,0.2,0.1,0.2,0.1c0.1,0,0.1,0.1,0.2,0.1
		c0.1,0,0.2,0.1,0.3,0.1c0.1,0,0.1,0,0.2,0.1c0.1,0,0.2,0.1,0.3,0.1c0,0,0.1,0,0.1,0c0,0,0.1,0,0.1,0c0.2,0,0.3,0.1,0.5,0.1
		c0.1,0,0.1,0,0.2,0c0.2,0,0.4,0,0.6,0c0,0,0.1,0,0.1,0c0,0,0,0,0,0h16.8l0,0c0.2,0,0.4,0,0.5,0c0,0,0.1,0,0.1,0
		c0.1,0,0.3,0,0.4-0.1c0.1,0,0.1,0,0.2,0c0.1,0,0.2,0,0.3-0.1c0.1,0,0.1,0,0.2-0.1c0.1,0,0.2-0.1,0.3-0.1c0.1,0,0.2-0.1,0.2-0.1
		c0.1,0,0.2-0.1,0.2-0.1c0.1,0,0.1-0.1,0.2-0.1c0.1,0,0.1-0.1,0.2-0.1c0.1,0,0.1-0.1,0.2-0.1c0.1-0.1,0.2-0.1,0.3-0.2
		c0,0,0.1-0.1,0.1-0.1c0.1-0.1,0.3-0.2,0.4-0.3c0,0,0,0,0,0c0.1-0.1,0.2-0.2,0.3-0.3c0,0,0.1-0.1,0.1-0.1c0.1-0.1,0.1-0.2,0.2-0.3
		c0,0,0.1-0.1,0.1-0.1c0.1-0.1,0.1-0.2,0.2-0.3c0-0.1,0.1-0.1,0.1-0.2c0-0.1,0.1-0.2,0.1-0.3c0-0.1,0.1-0.1,0.1-0.2
		c0-0.1,0.1-0.2,0.1-0.2c0-0.1,0.1-0.2,0.1-0.3c0-0.1,0-0.2,0.1-0.2c0-0.1,0-0.2,0.1-0.3c0,0,0-0.1,0-0.1c1.6-9.2,2.9-18.6,3.8-27.9
		c0.1-0.8,0.2-1.6,0.2-2.4l5.9,87c0,0,0,0.1,0,0.1c0,0.1,0,0.2,0,0.3c0,0.1,0,0.2,0,0.3c0,0.1,0,0.2,0.1,0.3c0,0.1,0,0.2,0.1,0.3
		c0,0.1,0.1,0.2,0.1,0.2c0,0.1,0.1,0.2,0.1,0.3c0,0.1,0.1,0.2,0.1,0.2c0,0.1,0.1,0.2,0.1,0.3c0,0.1,0.1,0.1,0.1,0.2
		c0,0.1,0.1,0.2,0.2,0.2c0,0.1,0.1,0.1,0.1,0.2c0.1,0.1,0.1,0.2,0.2,0.2c0,0.1,0.1,0.1,0.1,0.2c0.1,0.1,0.1,0.1,0.2,0.2
		c0.1,0.1,0.1,0.1,0.2,0.2c0.1,0.1,0.1,0.1,0.2,0.2c0.1,0.1,0.1,0.1,0.2,0.2c0.1,0.1,0.1,0.1,0.2,0.2c0.1,0,0.1,0.1,0.2,0.1
		c0.1,0,0.2,0.1,0.2,0.1c0.1,0,0.1,0.1,0.2,0.1c0.1,0,0.2,0.1,0.2,0.1c0.1,0,0.1,0.1,0.2,0.1c0.1,0,0.2,0.1,0.3,0.1
		c0.1,0,0.1,0.1,0.2,0.1c0.1,0,0.2,0.1,0.3,0.1c0.1,0,0.1,0,0.2,0c0.1,0,0.3,0,0.4,0.1c0,0,0.1,0,0.1,0c0.2,0,0.4,0,0.5,0l0,0h24.7
		c0,0,0,0,0,0c0.2,0,0.4,0,0.5,0c0.1,0,0.1,0,0.2,0c0.1,0,0.1,0,0.2,0c0,0,0,0,0.1,0c0.1,0,0.2,0,0.3-0.1c0.1,0,0.1,0,0.2-0.1
		c0.1,0,0.2-0.1,0.3-0.1c0.1,0,0.1-0.1,0.2-0.1c0.1,0,0.2-0.1,0.3-0.1c0.1,0,0.2-0.1,0.2-0.1c0.1,0,0.1-0.1,0.2-0.1
		c0.1,0,0.2-0.1,0.3-0.2c0.1,0,0.1-0.1,0.2-0.1c0.1-0.1,0.2-0.1,0.2-0.2c0.1,0,0.1-0.1,0.2-0.1c0.1-0.1,0.2-0.1,0.2-0.2
		c0.1-0.1,0.1-0.1,0.2-0.2c0.1-0.1,0.1-0.1,0.2-0.2c0.1-0.1,0.1-0.1,0.2-0.2c0-0.1,0.1-0.1,0.1-0.2c0.1-0.1,0.1-0.2,0.2-0.3
		c0-0.1,0.1-0.1,0.1-0.2c0.1-0.1,0.1-0.2,0.1-0.3c0-0.1,0.1-0.1,0.1-0.2c0-0.1,0.1-0.2,0.1-0.3c0-0.1,0.1-0.2,0.1-0.2
		c0-0.1,0-0.2,0.1-0.3c0-0.1,0-0.2,0.1-0.3c0-0.1,0-0.2,0-0.2c0-0.1,0-0.2,0-0.3c0-0.1,0-0.1,0-0.2c0-0.1,0-0.2,0-0.3c0,0,0,0,0-0.1
		c0-0.1,0-0.1,0-0.2c0-0.1,0-0.2,0-0.3c0-0.1,0-0.2,0-0.3c0-0.1,0-0.1,0-0.2l-21.8-125.5c1.4-0.8,2.7-1.7,3.9-2.7l38.1,15.9
		c3.1,1.3,6.4,1.9,9.6,1.9c5.3,0,10.5-1.6,14.9-4.8l2.4-1.7c6.5-4.7,10.4-12.4,10.4-20.4v-18c35.7-30.2,56.1-74.2,56.1-121
		c0-42.4-16.5-82.2-46.5-112.2c-30-30-69.8-46.5-112.2-46.5c-42.4,0-82.2,16.5-112.2,46.5c-30,30-46.5,69.8-46.5,112.2
		c0,25.3,6.1,50.5,17.6,72.8C152.7,471.6,168.2,490,186.8,504.3z M232,497h20.3v5.4H232c-3,0-5.5,2.5-5.5,5.5s2.5,5.5,5.5,5.5h20.3
		v1.8c0,1.1,0.1,2.2,0.3,3.2l-32.7,13.6c-4.5,1.9-9.9,1.3-13.8-1.6l-2.4-1.7c-3.7-2.7-5.9-7-5.9-11.5v-35.7c0-6,3.8-11.3,9.4-13.4
		c1.2-0.5,2.5-0.7,3.9-0.8c0.7,0.2,1.5,0.2,2.2,0c1.1,0.1,2.2,0.3,3.3,0.7l36.1,12.2c-0.3,1.2-0.4,2.4-0.4,3.7v2.3H232
		c-3,0-5.5,2.5-5.5,5.5S229,497,232,497z M275.2,570.1c-0.8,7.5-1.8,15.1-3,22.6h-5.1c2.5-10.5,4.5-21.2,5.8-31.9
		c1.2-9.4,2-19,2.3-28.5c0.7,0.1,1.5,0.2,2.2,0.3C277.2,545.1,276.5,557.7,275.2,570.1z M315.9,650h-13l-8-117.4
		c0.2,0,0.4,0,0.6-0.1L315.9,650z M308.9,505.2c0,9.1-7.4,16.6-16.6,16.6h-9.5h0h-3.1c-9.1,0-16.6-7.4-16.6-16.6v-11.4
		c0-9.1,7.4-16.6,16.6-16.6h12.6c9.1,0,16.6,7.4,16.6,16.6V505.2z M309.2,472c-4.7-3.6-10.5-5.7-16.8-5.7h-12.6
		c-6.3,0-12.1,2.1-16.8,5.7l-43-14.5c-2-0.7-4-1.1-6-1.2c-23.5-19.6-36.9-48-36.9-78.2c0-56.8,47.5-103.1,105.8-103.1
		s105.8,46.2,105.8,103.1c0,31.5-14.5,60.8-39.7,80.5L309.2,472z M374.4,517.2c0,4.5-2.2,8.8-5.9,11.5l-2.4,1.7
		c-4,2.9-9.3,3.5-13.8,1.6l-32.7-13.6c0.2-1.1,0.3-2.1,0.3-3.2v-1.8h20.3c3,0,5.5-2.5,5.5-5.5s-2.5-5.5-5.5-5.5h-20.3V497h20.3
		c3,0,5.5-2.5,5.5-5.5s-2.5-5.5-5.5-5.5h-20.3v-2.3c0-1.2-0.1-2.5-0.4-3.7l33.8-11.4c0,0,0,0,0.1,0l2.3-0.8c3-1,6.4-1,9.4,0.1
		c5.6,2,9.4,7.4,9.4,13.4V517.2z M282.9,230.5c81.4,0,147.6,66.2,147.6,147.6c0,40.4-16.3,78.5-45.1,106.2v-2.9
		c0-10.6-6.7-20.1-16.6-23.7c-0.6-0.2-1.1-0.4-1.7-0.6c20.9-21.1,32.6-49.2,32.6-79.1c0-62.9-52.4-114-116.8-114
		c-64.4,0-116.8,51.2-116.8,114c0,30.6,12.4,59.5,34.4,80.9c-8.4,4.3-13.8,12.9-13.8,22.5v8.7c-32.4-27.9-51.5-69-51.5-112
		C135.3,296.7,201.5,230.5,282.9,230.5z"/>
	<path class="st0" d="M547.5,815.3v12.9c0,8,3.9,15.7,10.4,20.4l2.4,1.7c4.4,3.2,9.6,4.8,14.9,4.8c3.3,0,6.6-0.6,9.6-1.9l38.1-15.9
		c0.7,0.5,1.3,1.1,2.1,1.6c-0.2,10.5-0.9,21.1-2.3,31.5c-1.6,12.5-4.1,25.1-7.3,37.3c0,0,0,0.1,0,0.1c0,0.1,0,0.2-0.1,0.3
		c0,0.1,0,0.2,0,0.3c0,0.1,0,0.2,0,0.3c0,0.1,0,0.2,0,0.3c0,0,0,0.1,0,0.1c0,0,0,0.1,0,0.1c0,0.1,0,0.2,0,0.3c0,0.1,0,0.1,0,0.2
		c0,0.1,0,0.2,0,0.3c0,0.1,0,0.2,0,0.2c0,0.1,0,0.2,0.1,0.3c0,0.1,0.1,0.2,0.1,0.3c0,0.1,0.1,0.1,0.1,0.2c0,0.1,0.1,0.2,0.1,0.3
		c0,0.1,0.1,0.1,0.1,0.2c0,0.1,0.1,0.2,0.1,0.3c0,0.1,0.1,0.1,0.1,0.2c0.1,0.1,0.1,0.2,0.2,0.2c0,0.1,0.1,0.1,0.2,0.2
		c0.1,0.1,0.1,0.1,0.2,0.2c0.1,0.1,0.1,0.1,0.2,0.2c0.1,0.1,0.1,0.1,0.2,0.2c0.1,0.1,0.1,0.1,0.2,0.2c0.1,0,0.1,0.1,0.2,0.1
		c0.1,0.1,0.2,0.1,0.2,0.2c0.1,0,0.1,0.1,0.2,0.1c0.1,0.1,0.2,0.1,0.2,0.1c0.1,0,0.2,0.1,0.2,0.1c0.1,0,0.1,0.1,0.2,0.1
		c0.1,0,0.2,0.1,0.3,0.1c0.1,0,0.1,0,0.2,0.1c0.1,0,0.2,0.1,0.3,0.1c0,0,0.1,0,0.1,0c0,0,0.1,0,0.1,0c0.2,0,0.3,0.1,0.5,0.1
		c0.1,0,0.1,0,0.2,0c0.2,0,0.4,0,0.6,0c0,0,0.1,0,0.1,0c0,0,0,0,0,0h16.8l0,0c0.2,0,0.4,0,0.5,0c0,0,0.1,0,0.1,0
		c0.1,0,0.3,0,0.4-0.1c0.1,0,0.1,0,0.2,0c0.1,0,0.2,0,0.3-0.1c0.1,0,0.1,0,0.2-0.1c0.1,0,0.2-0.1,0.3-0.1c0.1,0,0.2-0.1,0.2-0.1
		c0.1,0,0.2-0.1,0.2-0.1c0.1,0,0.1-0.1,0.2-0.1c0.1,0,0.1-0.1,0.2-0.1c0.1,0,0.1-0.1,0.2-0.1c0.1-0.1,0.2-0.1,0.3-0.2
		c0,0,0.1-0.1,0.1-0.1c0.1-0.1,0.3-0.2,0.4-0.3c0,0,0,0,0,0c0.1-0.1,0.2-0.2,0.3-0.3c0,0,0.1-0.1,0.1-0.1c0.1-0.1,0.1-0.2,0.2-0.3
		c0,0,0.1-0.1,0.1-0.1c0.1-0.1,0.1-0.2,0.2-0.3c0-0.1,0.1-0.1,0.1-0.2c0-0.1,0.1-0.2,0.1-0.3c0-0.1,0.1-0.1,0.1-0.2
		c0-0.1,0.1-0.2,0.1-0.2c0-0.1,0.1-0.2,0.1-0.3c0-0.1,0-0.2,0.1-0.2c0-0.1,0-0.2,0.1-0.3c0,0,0-0.1,0-0.1c1.6-9.2,2.9-18.6,3.8-27.9
		c0.1-0.8,0.2-1.6,0.2-2.4l5.9,87c0,0,0,0.1,0,0.1c0,0.1,0,0.2,0,0.3c0,0.1,0,0.2,0,0.3c0,0.1,0,0.2,0.1,0.3c0,0.1,0,0.2,0.1,0.3
		c0,0.1,0.1,0.2,0.1,0.2c0,0.1,0.1,0.2,0.1,0.3c0,0.1,0.1,0.2,0.1,0.2c0,0.1,0.1,0.2,0.1,0.3c0,0.1,0.1,0.1,0.1,0.2
		c0,0.1,0.1,0.2,0.2,0.2c0,0.1,0.1,0.1,0.1,0.2c0.1,0.1,0.1,0.2,0.2,0.2c0,0.1,0.1,0.1,0.1,0.2c0.1,0.1,0.1,0.1,0.2,0.2
		c0.1,0.1,0.1,0.1,0.2,0.2c0.1,0.1,0.1,0.1,0.2,0.2c0.1,0.1,0.1,0.1,0.2,0.2c0.1,0.1,0.1,0.1,0.2,0.2c0.1,0,0.1,0.1,0.2,0.1
		c0.1,0,0.2,0.1,0.2,0.1c0.1,0,0.1,0.1,0.2,0.1c0.1,0,0.2,0.1,0.2,0.1c0.1,0,0.1,0.1,0.2,0.1c0.1,0,0.2,0.1,0.3,0.1
		c0.1,0,0.1,0.1,0.2,0.1c0.1,0,0.2,0.1,0.3,0.1c0.1,0,0.1,0,0.2,0c0.1,0,0.3,0,0.4,0.1c0,0,0.1,0,0.1,0c0.2,0,0.4,0,0.5,0l0,0h24.7
		c0,0,0,0,0,0c0.2,0,0.4,0,0.5,0c0.1,0,0.1,0,0.2,0c0.1,0,0.1,0,0.2,0c0,0,0,0,0.1,0c0.1,0,0.2,0,0.3-0.1c0.1,0,0.1,0,0.2-0.1
		c0.1,0,0.2-0.1,0.3-0.1c0.1,0,0.1-0.1,0.2-0.1c0.1,0,0.2-0.1,0.3-0.1c0.1,0,0.2-0.1,0.2-0.1c0.1,0,0.1-0.1,0.2-0.1
		c0.1,0,0.2-0.1,0.3-0.2c0.1,0,0.1-0.1,0.2-0.1c0.1-0.1,0.2-0.1,0.2-0.2c0.1,0,0.1-0.1,0.2-0.1c0.1-0.1,0.2-0.1,0.2-0.2
		c0.1-0.1,0.1-0.1,0.2-0.2c0.1-0.1,0.1-0.1,0.2-0.2c0.1-0.1,0.1-0.1,0.2-0.2c0-0.1,0.1-0.1,0.1-0.2c0.1-0.1,0.1-0.2,0.2-0.3
		c0-0.1,0.1-0.1,0.1-0.2c0.1-0.1,0.1-0.2,0.1-0.3c0-0.1,0.1-0.1,0.1-0.2c0-0.1,0.1-0.2,0.1-0.3c0-0.1,0.1-0.2,0.1-0.2
		c0-0.1,0-0.2,0.1-0.3c0-0.1,0-0.2,0.1-0.3c0-0.1,0-0.2,0-0.2c0-0.1,0-0.2,0-0.3c0-0.1,0-0.1,0-0.2c0-0.1,0-0.2,0-0.3c0,0,0,0,0-0.1
		c0-0.1,0-0.1,0-0.2c0-0.1,0-0.2,0-0.3c0-0.1,0-0.2,0-0.3c0-0.1,0-0.1,0-0.2l-21.8-125.5c1.4-0.8,2.7-1.7,3.9-2.7l38.1,15.9
		c3.1,1.3,6.4,1.9,9.6,1.9c5.3,0,10.5-1.6,14.9-4.8l2.4-1.7c6.5-4.7,10.4-12.4,10.4-20.4v-18c35.7-30.2,56.1-74.2,56.1-121
		c0-42.4-16.5-82.2-46.5-112.2c-30-30-69.8-46.5-112.2-46.5c-42.4,0-82.2,16.5-112.2,46.5c-30,30-46.5,69.8-46.5,112.2
		c0,25.3,6.1,50.5,17.6,72.8C513.4,782.7,528.8,801.1,547.5,815.3z M592.7,808H613v5.4h-20.3c-3,0-5.5,2.5-5.5,5.5s2.5,5.5,5.5,5.5
		H613v1.8c0,1.1,0.1,2.2,0.3,3.2l-32.7,13.6c-4.5,1.9-9.9,1.3-13.8-1.6l-2.4-1.7c-3.7-2.7-5.9-7-5.9-11.5v-35.7
		c0-6,3.8-11.3,9.4-13.4c1.2-0.5,2.5-0.7,3.9-0.8c0.7,0.2,1.5,0.2,2.2,0c1.1,0.1,2.2,0.3,3.3,0.7l36.1,12.2
		c-0.3,1.2-0.4,2.4-0.4,3.7v2.3h-20.3c-3,0-5.5,2.5-5.5,5.5S589.6,808,592.7,808z M635.9,881.1c-0.8,7.5-1.8,15.1-3,22.6h-5.1
		c2.5-10.5,4.5-21.2,5.8-31.9c1.2-9.4,2-19,2.3-28.5c0.7,0.1,1.5,0.2,2.2,0.3C637.9,856.1,637.2,868.7,635.9,881.1z M676.6,961h-13
		l-8-117.4c0.2,0,0.4,0,0.6-0.1L676.6,961z M669.6,816.2c0,9.1-7.4,16.6-16.6,16.6h-9.5h0h-3.1c-9.1,0-16.6-7.4-16.6-16.6v-11.4
		c0-9.1,7.4-16.6,16.6-16.6h12.6c9.1,0,16.6,7.4,16.6,16.6V816.2z M669.9,783c-4.7-3.6-10.5-5.7-16.8-5.7h-12.6
		c-6.3,0-12.1,2.1-16.8,5.7l-43-14.5c-2-0.7-4-1.1-6-1.2c-23.5-19.6-36.9-48-36.9-78.2c0-56.8,47.5-103.1,105.8-103.1
		c58.3,0,105.8,46.2,105.8,103.1c0,31.5-14.5,60.8-39.7,80.5L669.9,783z M735.1,828.2c0,4.5-2.2,8.8-5.9,11.5l-2.4,1.7
		c-4,2.9-9.3,3.5-13.8,1.6l-32.7-13.6c0.2-1.1,0.3-2.1,0.3-3.2v-1.8h20.3c3,0,5.5-2.5,5.5-5.5s-2.5-5.5-5.5-5.5h-20.3V808h20.3
		c3,0,5.5-2.5,5.5-5.5s-2.5-5.5-5.5-5.5h-20.3v-2.3c0-1.2-0.1-2.5-0.4-3.7l33.8-11.4c0,0,0,0,0.1,0l2.3-0.8c3-1,6.4-1,9.4,0.1
		c5.6,2,9.4,7.4,9.4,13.4V828.2z M643.6,541.5c81.4,0,147.6,66.2,147.6,147.6c0,40.4-16.3,78.5-45.1,106.2v-2.9
		c0-10.6-6.7-20.1-16.6-23.7c-0.6-0.2-1.1-0.4-1.7-0.6c20.9-21.1,32.6-49.2,32.6-79.1c0-62.9-52.4-114-116.8-114
		c-64.4,0-116.8,51.2-116.8,114c0,30.6,12.4,59.5,34.4,80.9c-8.4,4.3-13.8,12.9-13.8,22.5v8.7c-32.4-27.9-51.5-69-51.5-112
		C496,607.8,562.2,541.5,643.6,541.5z"/>
	<path class="st0" d="M644.9,336.8v12.9c0,8,3.9,15.7,10.4,20.4l2.4,1.7c4.4,3.2,9.6,4.8,14.9,4.8c3.3,0,6.6-0.6,9.6-1.9l38.1-15.9
		c0.7,0.5,1.3,1.1,2.1,1.6c-0.2,10.5-0.9,21.1-2.3,31.5c-1.6,12.5-4.1,25.1-7.3,37.3c0,0,0,0.1,0,0.1c0,0.1,0,0.2-0.1,0.3
		c0,0.1,0,0.2,0,0.3c0,0.1,0,0.2,0,0.3c0,0.1,0,0.2,0,0.3c0,0,0,0.1,0,0.1c0,0,0,0.1,0,0.1c0,0.1,0,0.2,0,0.3c0,0.1,0,0.1,0,0.2
		c0,0.1,0,0.2,0,0.3c0,0.1,0,0.2,0,0.2c0,0.1,0,0.2,0.1,0.3c0,0.1,0.1,0.2,0.1,0.3c0,0.1,0.1,0.1,0.1,0.2c0,0.1,0.1,0.2,0.1,0.3
		c0,0.1,0.1,0.1,0.1,0.2c0,0.1,0.1,0.2,0.1,0.3c0,0.1,0.1,0.1,0.1,0.2c0.1,0.1,0.1,0.2,0.2,0.2c0,0.1,0.1,0.1,0.2,0.2
		c0.1,0.1,0.1,0.1,0.2,0.2c0.1,0.1,0.1,0.1,0.2,0.2c0.1,0.1,0.1,0.1,0.2,0.2c0.1,0.1,0.1,0.1,0.2,0.2c0.1,0,0.1,0.1,0.2,0.1
		c0.1,0.1,0.2,0.1,0.2,0.2c0.1,0,0.1,0.1,0.2,0.1c0.1,0.1,0.2,0.1,0.2,0.1c0.1,0,0.2,0.1,0.2,0.1c0.1,0,0.1,0.1,0.2,0.1
		c0.1,0,0.2,0.1,0.3,0.1c0.1,0,0.1,0,0.2,0.1c0.1,0,0.2,0.1,0.3,0.1c0,0,0.1,0,0.1,0c0,0,0.1,0,0.1,0c0.2,0,0.3,0.1,0.5,0.1
		c0.1,0,0.1,0,0.2,0c0.2,0,0.4,0,0.6,0c0,0,0.1,0,0.1,0c0,0,0,0,0,0H735l0,0c0.2,0,0.4,0,0.5,0c0,0,0.1,0,0.1,0c0.1,0,0.3,0,0.4-0.1
		c0.1,0,0.1,0,0.2,0c0.1,0,0.2,0,0.3-0.1c0.1,0,0.1,0,0.2-0.1c0.1,0,0.2-0.1,0.3-0.1c0.1,0,0.2-0.1,0.2-0.1c0.1,0,0.2-0.1,0.2-0.1
		c0.1,0,0.1-0.1,0.2-0.1c0.1,0,0.1-0.1,0.2-0.1c0.1,0,0.1-0.1,0.2-0.1c0.1-0.1,0.2-0.1,0.3-0.2c0,0,0.1-0.1,0.1-0.1
		c0.1-0.1,0.3-0.2,0.4-0.3c0,0,0,0,0,0c0.1-0.1,0.2-0.2,0.3-0.3c0,0,0.1-0.1,0.1-0.1c0.1-0.1,0.1-0.2,0.2-0.3c0,0,0.1-0.1,0.1-0.1
		c0.1-0.1,0.1-0.2,0.2-0.3c0-0.1,0.1-0.1,0.1-0.2c0-0.1,0.1-0.2,0.1-0.3c0-0.1,0.1-0.1,0.1-0.2c0-0.1,0.1-0.2,0.1-0.2
		c0-0.1,0.1-0.2,0.1-0.3c0-0.1,0-0.2,0.1-0.2c0-0.1,0-0.2,0.1-0.3c0,0,0-0.1,0-0.1c1.6-9.2,2.9-18.6,3.8-27.9
		c0.1-0.8,0.2-1.6,0.2-2.4l5.9,87c0,0,0,0.1,0,0.1c0,0.1,0,0.2,0,0.3c0,0.1,0,0.2,0,0.3c0,0.1,0,0.2,0.1,0.3c0,0.1,0,0.2,0.1,0.3
		c0,0.1,0.1,0.2,0.1,0.2c0,0.1,0.1,0.2,0.1,0.3c0,0.1,0.1,0.2,0.1,0.2c0,0.1,0.1,0.2,0.1,0.3c0,0.1,0.1,0.1,0.1,0.2
		c0,0.1,0.1,0.2,0.2,0.2c0,0.1,0.1,0.1,0.1,0.2c0.1,0.1,0.1,0.2,0.2,0.2c0,0.1,0.1,0.1,0.1,0.2c0.1,0.1,0.1,0.1,0.2,0.2
		c0.1,0.1,0.1,0.1,0.2,0.2c0.1,0.1,0.1,0.1,0.2,0.2c0.1,0.1,0.1,0.1,0.2,0.2c0.1,0.1,0.1,0.1,0.2,0.2c0.1,0,0.1,0.1,0.2,0.1
		c0.1,0,0.2,0.1,0.2,0.1c0.1,0,0.1,0.1,0.2,0.1c0.1,0,0.2,0.1,0.2,0.1c0.1,0,0.1,0.1,0.2,0.1c0.1,0,0.2,0.1,0.3,0.1
		c0.1,0,0.1,0.1,0.2,0.1c0.1,0,0.2,0.1,0.3,0.1c0.1,0,0.1,0,0.2,0c0.1,0,0.3,0,0.4,0.1c0,0,0.1,0,0.1,0c0.2,0,0.4,0,0.5,0l0,0h24.7
		c0,0,0,0,0,0c0.2,0,0.4,0,0.5,0c0.1,0,0.1,0,0.2,0c0.1,0,0.1,0,0.2,0c0,0,0,0,0.1,0c0.1,0,0.2,0,0.3-0.1c0.1,0,0.1,0,0.2-0.1
		c0.1,0,0.2-0.1,0.3-0.1c0.1,0,0.1-0.1,0.2-0.1c0.1,0,0.2-0.1,0.3-0.1c0.1,0,0.2-0.1,0.2-0.1c0.1,0,0.1-0.1,0.2-0.1
		c0.1,0,0.2-0.1,0.3-0.2c0.1,0,0.1-0.1,0.2-0.1c0.1-0.1,0.2-0.1,0.2-0.2c0.1,0,0.1-0.1,0.2-0.1c0.1-0.1,0.2-0.1,0.2-0.2
		c0.1-0.1,0.1-0.1,0.2-0.2c0.1-0.1,0.1-0.1,0.2-0.2c0.1-0.1,0.1-0.1,0.2-0.2c0-0.1,0.1-0.1,0.1-0.2c0.1-0.1,0.1-0.2,0.2-0.3
		c0-0.1,0.1-0.1,0.1-0.2c0.1-0.1,0.1-0.2,0.1-0.3c0-0.1,0.1-0.1,0.1-0.2c0-0.1,0.1-0.2,0.1-0.3c0-0.1,0.1-0.2,0.1-0.2
		c0-0.1,0-0.2,0.1-0.3c0-0.1,0-0.2,0.1-0.3c0-0.1,0-0.2,0-0.2c0-0.1,0-0.2,0-0.3c0-0.1,0-0.1,0-0.2c0-0.1,0-0.2,0-0.3c0,0,0,0,0-0.1
		c0-0.1,0-0.1,0-0.2c0-0.1,0-0.2,0-0.3c0-0.1,0-0.2,0-0.3c0-0.1,0-0.1,0-0.2l-21.8-125.5c1.4-0.8,2.7-1.7,3.9-2.7l38.1,15.9
		c3.1,1.3,6.4,1.9,9.6,1.9c5.3,0,10.5-1.6,14.9-4.8l2.4-1.7c6.5-4.7,10.4-12.4,10.4-20.4v-18c35.7-30.2,56.1-74.2,56.1-121
		c0-42.4-16.5-82.2-46.5-112.2c-30-30-69.8-46.5-112.2-46.5c-42.4,0-82.2,16.5-112.2,46.5c-30,30-46.5,69.8-46.5,112.2
		c0,25.3,6.1,50.5,17.6,72.8C610.8,304.1,626.3,322.5,644.9,336.8z M690.1,329.5h20.3v5.4h-20.3c-3,0-5.5,2.5-5.5,5.5
		s2.5,5.5,5.5,5.5h20.3v1.8c0,1.1,0.1,2.2,0.3,3.2L678,364.6c-4.5,1.9-9.9,1.3-13.8-1.6l-2.4-1.7c-3.7-2.7-5.9-7-5.9-11.5v-35.7
		c0-6,3.8-11.3,9.4-13.4c1.2-0.5,2.5-0.7,3.9-0.8c0.7,0.2,1.5,0.2,2.2,0c1.1,0.1,2.2,0.3,3.3,0.7l36.1,12.2
		c-0.3,1.2-0.4,2.4-0.4,3.7v2.3h-20.3c-3,0-5.5,2.5-5.5,5.5C684.7,327,687.1,329.5,690.1,329.5z M733.3,402.6
		c-0.8,7.5-1.8,15.1-3,22.6h-5.1c2.5-10.5,4.5-21.2,5.8-31.9c1.2-9.4,2-19,2.3-28.5c0.7,0.1,1.5,0.2,2.2,0.3
		C735.4,377.6,734.6,390.2,733.3,402.6z M774.1,482.5h-13l-8-117.4c0.2,0,0.4,0,0.6-0.1L774.1,482.5z M767.1,337.7
		c0,9.1-7.4,16.6-16.6,16.6h-9.5h0H738c-9.1,0-16.6-7.4-16.6-16.6v-11.4c0-9.1,7.4-16.6,16.6-16.6h12.6c9.1,0,16.6,7.4,16.6,16.6
		V337.7z M767.3,304.5c-4.7-3.6-10.5-5.7-16.8-5.7H738c-6.3,0-12.1,2.1-16.8,5.7l-43-14.5c-2-0.7-4-1.1-6-1.2
		c-23.5-19.6-36.9-48-36.9-78.2c0-56.8,47.5-103.1,105.8-103.1c58.3,0,105.8,46.2,105.8,103.1c0,31.5-14.5,60.8-39.7,80.5
		L767.3,304.5z M832.6,349.7c0,4.5-2.2,8.8-5.9,11.5l-2.4,1.7c-4,2.9-9.3,3.5-13.8,1.6L777.8,351c0.2-1.1,0.3-2.1,0.3-3.2v-1.8h20.3
		c3,0,5.5-2.5,5.5-5.5s-2.5-5.5-5.5-5.5h-20.3v-5.4h20.3c3,0,5.5-2.5,5.5-5.5c0-3-2.5-5.5-5.5-5.5h-20.3v-2.3c0-1.2-0.1-2.5-0.4-3.7
		l33.8-11.4c0,0,0,0,0.1,0l2.3-0.8c3-1,6.4-1,9.4,0.1c5.6,2,9.4,7.4,9.4,13.4V349.7z M741.1,63c81.4,0,147.6,66.2,147.6,147.6
		c0,40.4-16.3,78.5-45.1,106.2v-2.9c0-10.6-6.7-20.1-16.6-23.7c-0.6-0.2-1.1-0.4-1.7-0.6c20.9-21.1,32.6-49.2,32.6-79.1
		c0-62.9-52.4-114-116.8-114c-64.4,0-116.8,51.2-116.8,114c0,30.6,12.4,59.5,34.4,80.9c-8.4,4.3-13.8,12.9-13.8,22.5v8.7
		c-32.4-27.9-51.5-69-51.5-112C593.4,129.2,659.7,63,741.1,63z"/>
</g>
</svg>
