<?xml version="1.0" encoding="utf-8"?>
<!-- Generator: Adobe Illustrator 25.0.1, SVG Export Plug-In . SVG Version: 6.00 Build 0)  -->
<svg version="1.1" id="Layer_1" xmlns="http://www.w3.org/2000/svg" xmlns:xlink="http://www.w3.org/1999/xlink" x="0px" y="0px"
	 viewBox="0 0 1024 1024" style="enable-background:new 0 0 1024 1024;" xml:space="preserve">
<style type="text/css">
	.st0{fill:#25333F;}
</style>
<g>
	<path class="st0" d="M203.9,741.2h295v204.2H244.4V760.5c0-6.8-5.5-12.4-12.4-12.4c-6.8,0-12.4,5.5-12.4,12.4v197.3
		c0,6.8,5.5,12.4,12.4,12.4h559.9c6.8,0,12.4-5.5,12.4-12.4V760.5c0-6.8-5.5-12.4-12.4-12.4c-6.8,0-12.4,5.5-12.4,12.4v184.9H523.7
		V741.2h296.4c6.8,0,12.4-5.5,12.4-12.4v-75.2c0-6.8-5.5-12.4-12.4-12.4H523.7v-14.6h189.2c6.8,0,12.4-5.5,12.4-12.4V512.8
		c0-6.8-5.5-12.4-12.4-12.4c-6.8,0-12.4,5.5-12.4,12.4V602H523.7V490.5h208c6.8,0,12.4-5.5,12.4-12.4V422c0-6.8-5.5-12.4-12.4-12.4
		h-208v-12h131.3c6.8,0,12.4-5.5,12.4-12.4V187.9c0-6.8-5.5-12.4-12.4-12.4H546.6l54.2-32.8c3.8-2.3,6.1-6.6,6-11
		c-0.2-4.5-2.7-8.5-6.7-10.6l-50.4-25.7c-3.1-1.6-6.6-1.8-9.9-0.6c-3.2,1.2-5.8,3.6-7.2,6.8l-19.7,46.7l-36.7-86.9
		c-1.3-3.2-3.9-5.6-7.2-6.8c-3.2-1.2-6.8-1-9.9,0.6l-73.5,37.5c-4,2-6.6,6.1-6.7,10.6c-0.2,4.5,2.1,8.7,6,11L486,175.5h-117
		c-6.8,0-12.4,5.5-12.4,12.4v197.3c0,6.8,5.5,12.4,12.4,12.4h129.9v12H292.3c-6.8,0-12.4,5.5-12.4,12.4v56.2
		c0,6.8,5.5,12.4,12.4,12.4h206.6V602H323.5v-89.2c0-6.8-5.5-12.4-12.4-12.4c-6.8,0-12.4,5.5-12.4,12.4v101.6
		c0,6.8,5.5,12.4,12.4,12.4h187.8v14.6h-295c-6.8,0-12.4,5.5-12.4,12.4v75.2C191.5,735.7,197,741.2,203.9,741.2z M550.2,123.5
		L569,133l-30.7,18.6L550.2,123.5z M523.7,200.3h118.9v172.5H523.7V200.3z M523.7,434.4h195.6v31.4H523.7V434.4z M523.7,666.1h284.1
		v50.4H523.7V666.1z M416.7,104.6l41.8-21.3L485,146L416.7,104.6z M381.4,372.8V200.3h117.5v172.5H381.4z M304.7,465.8v-31.4h194.2
		v31.4H304.7z M216.3,666.1h282.6v50.4H216.3V666.1z"/>
</g>
</svg>
