<?xml version="1.0" encoding="utf-8"?>
<!-- Generator: Adobe Illustrator 25.0.1, SVG Export Plug-In . SVG Version: 6.00 Build 0)  -->
<svg version="1.1" id="Layer_1" xmlns="http://www.w3.org/2000/svg" xmlns:xlink="http://www.w3.org/1999/xlink" x="0px" y="0px"
	 viewBox="0 0 1024 1024" style="enable-background:new 0 0 1024 1024;" xml:space="preserve">
<style type="text/css">
	.st0{fill:#25333F;}
</style>
<g>
	<path class="st0" d="M274.7,470.5c-40,52.4-61.2,115-61.2,181c0,79.7,31,154.7,87.4,211C357.3,919,432.3,950,512,950
		c79.7,0,154.7-31,211-87.4c56.4-56.4,87.4-131.3,87.4-211c0-66.1-21.1-128.7-61.2-181c-36.9-48.3-88.5-84.7-146-103.2v-10.2h3.4
		c6.6,0,11.9-5.3,11.9-11.9v-67.5c0-6.6-5.3-11.9-11.9-11.9h-73.6c18.2-31,51.4-91.6,51.4-119.2c0-40-32.5-72.5-72.5-72.5
		c-40,0-72.5,32.5-72.5,72.5c0,27.6,33.3,88.2,51.4,119.2h-73.6c-6.6,0-11.9,5.3-11.9,11.9v67.5c0,6.6,5.3,11.9,11.9,11.9h3.4v10.2
		C363.2,385.8,311.6,422.2,274.7,470.5z M463.3,146.5c0-26.8,21.8-48.7,48.7-48.7c26.8,0,48.7,21.8,48.7,48.7
		c0,18.8-26.7,70.6-48.7,108C490.1,217.1,463.3,165.4,463.3,146.5z M429.2,289.7h165.6v43.6h-3.4H432.6h-3.4V289.7z M435.9,387.6
		c5.1-1.5,8.6-6.1,8.6-11.5v-19h134.9v19c0,5.3,3.5,10,8.6,11.5C705,421.3,786.6,529.8,786.6,651.5c0,151.4-123.2,274.6-274.6,274.6
		S237.4,802.9,237.4,651.5C237.4,529.8,319,421.3,435.9,387.6z"/>
	<path class="st0" d="M331,752.1c2.2,3.8,6.2,6,10.3,6c2,0,4.1-0.5,6-1.6l28.4-16.4l-3.2,12.1c-1.7,6.4,2.1,12.9,8.4,14.6
		c1,0.3,2.1,0.4,3.1,0.4c5.3,0,10.1-3.5,11.5-8.8l9.4-35.2l40.3-23.3l-1,44.2c-0.1,4.4,2.2,8.4,6,10.6c3.8,2.2,8.4,2.1,12.2-0.1
		l37.8-23v46.5l-25.7,25.7c-4.7,4.7-4.7,12.2,0,16.9c2.3,2.3,5.4,3.5,8.4,3.5c3.1,0,6.1-1.2,8.4-3.5l8.9-8.9v32.7
		c0,6.6,5.3,11.9,11.9,11.9c6.6,0,11.9-5.3,11.9-11.9v-32.7l8.9,8.9c2.3,2.3,5.4,3.5,8.4,3.5c3.1,0,6.1-1.2,8.4-3.5
		c4.7-4.7,4.7-12.2,0-16.9l-25.7-25.7v-46.5l37.8,23c1.9,1.2,4.1,1.7,6.2,1.7c2.1,0,4.1-0.5,6-1.6c3.8-2.2,6.1-6.3,6-10.6l-1-44.2
		l40.3,23.3l9.4,35.2c1.4,5.3,6.3,8.8,11.5,8.8c1,0,2.1-0.1,3.1-0.4c6.4-1.7,10.1-8.3,8.4-14.6l-3.2-12.1l28.4,16.4
		c1.9,1.1,3.9,1.6,6,1.6c4.1,0,8.1-2.1,10.3-6c3.3-5.7,1.3-13-4.4-16.3l-28.4-16.4l12.1-3.2c6.4-1.7,10.1-8.3,8.4-14.6
		c-1.7-6.4-8.3-10.1-14.6-8.4l-35.2,9.4l-40.3-23.3l38.8-21.2c3.8-2.1,6.2-6.1,6.2-10.5c0-4.4-2.4-8.4-6.2-10.5l-38.8-21.2
		l40.3-23.3l35.2,9.4c1,0.3,2.1,0.4,3.1,0.4c5.3,0,10.1-3.5,11.5-8.9c1.7-6.4-2.1-12.9-8.4-14.6l-12.1-3.2l28.4-16.4
		c5.7-3.3,7.7-10.6,4.4-16.3c-3.3-5.7-10.6-7.7-16.3-4.4l-28.4,16.4l3.2-12.1c1.7-6.4-2.1-12.9-8.4-14.6c-6.4-1.7-12.9,2.1-14.6,8.4
		l-9.4,35.2l-40.3,23.3l1-44.2c0.1-4.4-2.2-8.4-6-10.6c-3.8-2.2-8.4-2.1-12.2,0.1l-37.8,23V517l25.7-25.7c4.7-4.7,4.7-12.2,0-16.9
		c-4.7-4.7-12.2-4.7-16.9,0l-8.9,8.9v-32.7c0-6.6-5.3-11.9-11.9-11.9c-6.6,0-11.9,5.3-11.9,11.9v32.7l-8.9-8.9
		c-4.7-4.7-12.2-4.7-16.9,0c-4.7,4.7-4.7,12.2,0,16.9l25.7,25.7v46.5l-37.8-23c-3.7-2.3-8.4-2.3-12.2-0.1c-3.8,2.2-6.1,6.3-6,10.6
		l1,44.2L404.9,572l-9.4-35.2c-1.7-6.4-8.3-10.2-14.6-8.4c-6.4,1.7-10.1,8.3-8.4,14.6l3.2,12.1l-28.4-16.4c-5.7-3.3-13-1.3-16.3,4.4
		c-3.3,5.7-1.3,13,4.4,16.3l28.4,16.4l-12.1,3.2c-6.4,1.7-10.1,8.3-8.4,14.6c1.4,5.3,6.3,8.9,11.5,8.9c1,0,2.1-0.1,3.1-0.4l35.2-9.4
		l40.3,23.3l-38.8,21.2c-3.8,2.1-6.2,6.1-6.2,10.5c0,4.4,2.4,8.4,6.2,10.5l38.8,21.2l-40.3,23.3l-35.2-9.4
		c-6.4-1.7-12.9,2.1-14.6,8.4c-1.7,6.4,2.1,12.9,8.4,14.6l12.1,3.2l-28.4,16.4C329.6,739.1,327.7,746.4,331,752.1z M566.6,629.9
		l32.4,17.7l-32.4,17.7l-30.7-17.7L566.6,629.9z M523.9,591.5l31.6-19.2l-0.9,36.9l-30.7,17.7V591.5z M523.9,668.3l30.7,17.7
		l0.9,36.9l-31.6-19.2V668.3z M500.1,703.7l-31.6,19.2l0.9-36.9l30.7-17.7V703.7z M500.1,591.5v35.4l-30.7-17.7l-0.9-36.9
		L500.1,591.5z M425,647.6l32.4-17.7l30.7,17.7l-30.7,17.7L425,647.6z"/>
</g>
</svg>
