<?xml version="1.0" encoding="utf-8"?>
<!-- Generator: Adobe Illustrator 25.0.1, SVG Export Plug-In . SVG Version: 6.00 Build 0)  -->
<svg version="1.1" id="Layer_1" xmlns="http://www.w3.org/2000/svg" xmlns:xlink="http://www.w3.org/1999/xlink" x="0px" y="0px"
	 viewBox="0 0 1024 1024" style="enable-background:new 0 0 1024 1024;" xml:space="preserve">
<style type="text/css">
	.st0{fill:#25333F;}
</style>
<g>
	<path class="st0" d="M525.9,542.6H328l-27.4-27.4c0,0-0.1-0.1-0.1-0.1l-32.2-31.2l117.6-117.6c2.8-2.8,2.8-7.2,0.2-10l-17.7-18.8
		c-1.4-1.4-3.2-2.3-5.2-2.3c-2,0-3.9,0.8-5.2,2.2l-15.4,16L310,320.8c-2.8-2.8-7.2-2.8-10.1-0.1l-17,16.2c-1.4,1.3-2.2,3.2-2.2,5.1
		c0,1.9,0.7,3.8,2.1,5.2l32.7,32.7l-25.7,25.7L266.1,382c-1.4-1.4-3.2-2.1-5.1-2.1h0c-1.9,0-3.7,0.8-5.1,2.1l-16.5,16.6
		c-2.8,2.8-2.8,7.4,0,10.2l23.6,23.6l-21.3,21.3L206,417.9l32.7-32.7c1.4-1.4,2.1-3.2,2.1-5.1c0-1.9-0.8-3.8-2.1-5.1l-16-15.8
		c-2.8-2.8-7.4-2.8-10.2,0l-32.6,32.6l-26.3-26.4l32.7-32.7c2.8-2.8,2.8-7.3,0-10.1l-16.1-16.4c-1.3-1.4-3.2-2.1-5.1-2.2
		c0,0,0,0,0,0c-1.9,0-3.7,0.8-5.1,2.1l-32.7,32.7L116.1,328c-2.8-2.8-7.3-2.8-10.1,0l-19.3,19.1c-1.4,1.3-2.1,3.2-2.1,5.1
		c0,1.9,0.8,3.8,2.1,5.1l125.9,125.9l-71.4,71.7c-7.1,7.1-7.1,18.7,0,25.8l42.8,42.8c6.4,6.4,16.7,7.1,24,1.6l33.6-25.5
		c4.1-2.7,8.2-5.2,10.7-5.2c0,0,0,0,0.1,0c1.9,0,4.7,1.8,9,5.6l37.3,37.3c3.8,3.7,5.8,8.7,5.8,14v153.8c0,10.6,8.7,19.3,19.3,19.3
		h50.5c10.6,0,19.3-8.6,19.3-19.3V695.8c0-2.9,2.3-5.2,5.2-5.2h96.2c2.9,0,5.2,2.3,5.2,5.2v109.3c0,10.6,8.7,19.3,19.3,19.3h50.5
		c10.6,0,19.3-8.6,19.3-19.3V605.9C589.1,571,560.8,542.6,525.9,542.6z M574.7,805.1c0,2.7-2.2,4.9-4.9,4.9h-50.5
		c-2.7,0-4.9-2.2-4.9-4.9V695.8c0-10.8-8.8-19.6-19.6-19.6h-96.2c-10.8,0-19.6,8.8-19.6,19.6v109.3c0,2.7-2.2,4.9-4.9,4.9h-50.5
		c-2.7,0-4.9-2.2-4.9-4.9V651.3c0-9.2-3.6-17.8-10-24.2l-37.5-37.5c-0.1-0.1-0.2-0.2-0.3-0.3c-14.8-13.3-23.2-11.3-37.7-1.6
		c-0.1,0.1-0.2,0.2-0.3,0.2l-33.8,25.7c-1.5,1.2-3.7,1-5-0.3l-42.8-42.8c-0.7-0.7-1.1-1.7-1.1-2.7c0-1,0.4-2,1.1-2.7l76.5-76.8
		c2.8-2.8,2.8-7.4,0-10.2L101.9,352.2l9.1-9l11.1,10.9c2.8,2.8,7.3,2.8,10.1,0l32.6-32.6l6,6.1l-32.7,32.7c-2.8,2.8-2.8,7.4,0,10.2
		l36.4,36.6c1.4,1.4,3.2,2.1,5.1,2.1c0,0,0,0,0,0c1.9,0,3.7-0.8,5.1-2.1l32.7-32.7l5.8,5.7l-32.6,32.6c-1.4,1.4-2.1,3.2-2.1,5.1
		c0,1.9,0.8,3.7,2.1,5.1l45.9,45.9c1.4,1.4,3.2,2.1,5.1,2.1c1.9,0,3.7-0.8,5.1-2.1l31.5-31.5c1.4-1.4,2.1-3.2,2.1-5.1
		c0-1.9-0.8-3.7-2.1-5.1l-23.6-23.6l6.4-6.4l23.6,23.6c2.8,2.8,7.4,2.8,10.2,0l35.9-35.9c1.4-1.4,2.1-3.2,2.1-5.1
		c0-1.9-0.8-3.7-2.1-5.1l-32.5-32.5l6.6-6.3l32.8,32.8c1.4,1.4,3.2,2.1,5.2,2.1c1.9,0,3.8-0.8,5.1-2.2l15.2-15.8l7.7,8.2
		L252.9,478.9c-1.4,1.4-2.1,3.2-2.1,5.2c0,1.9,0.8,3.8,2.2,5.1l37.4,36.3l29.5,29.5c1.4,1.4,3.2,2.1,5.1,2.1h200.9
		c26.9,0,48.8,21.9,48.8,48.8V805.1z"/>
	<path class="st0" d="M884.2,408.1h-173l-24-24c0,0,0,0-0.1-0.1L659,356.8L761.9,254c2.4-2.4,2.5-6.3,0.1-8.8l-15.4-16.4
		c-1.2-1.3-2.8-2-4.6-2c-1.7,0-3.4,0.7-4.6,1.9l-13.5,14l-28.5-28.5c-2.4-2.4-6.3-2.5-8.8-0.1l-14.9,14.2c-1.2,1.2-1.9,2.8-2,4.5
		c0,1.7,0.6,3.3,1.8,4.5l28.5,28.5l-22.5,22.4l-20.6-20.6c-1.2-1.2-2.8-1.8-4.5-1.8h0c-1.7,0-3.3,0.7-4.5,1.9l-14.5,14.5
		c-2.5,2.5-2.4,6.4,0,8.9l20.6,20.6l-18.6,18.6l-31.2-31.2l28.6-28.6c1.2-1.2,1.9-2.8,1.8-4.5c0-1.7-0.7-3.3-1.9-4.5l-14-13.8
		c-2.5-2.4-6.4-2.4-8.9,0l-28.5,28.5l-23-23.1l28.6-28.6c2.4-2.4,2.5-6.4,0-8.9l-14.1-14.3c-1.2-1.2-2.8-1.9-4.5-1.9c0,0,0,0,0,0
		c-1.7,0-3.3,0.7-4.5,1.8L535.7,230l-9.7-9.5c-2.5-2.4-6.4-2.4-8.8,0l-16.9,16.7c-1.2,1.2-1.9,2.8-1.9,4.5c0,1.7,0.7,3.3,1.8,4.5
		l110.1,110.1l-62.4,62.6c-6.2,6.2-6.2,16.3,0,22.6l37.4,37.4c5.6,5.6,14.6,6.2,20.9,1.4l29.4-22.3c3.6-2.4,7.2-4.6,9.3-4.6
		c0,0,0,0,0,0c1.7,0,4.1,1.5,7.9,4.9l32.6,32.6c3.3,3.3,5.1,7.6,5.1,12.3v134.5c0,9.3,7.6,16.9,16.9,16.9h44.2
		c9.3,0,16.9-7.6,16.9-16.9V542c0-2.5,2-4.5,4.5-4.5h84.1c2.5,0,4.5,2,4.5,4.5v95.6c0,9.3,7.6,16.9,16.9,16.9h44.2
		c9.3,0,16.9-7.6,16.9-16.9V463.4C939.5,432.9,914.7,408.1,884.2,408.1z M926.9,637.6c0,2.3-1.9,4.3-4.3,4.3h-44.2
		c-2.3,0-4.3-1.9-4.3-4.3V542c0-9.4-7.7-17.1-17.1-17.1H773c-9.4,0-17.1,7.7-17.1,17.1v95.6c0,2.3-1.9,4.3-4.3,4.3h-44.2
		c-2.3,0-4.3-1.9-4.3-4.3V503.1c0-8-3.1-15.5-8.8-21.2l-32.7-32.7c-0.1-0.1-0.2-0.2-0.2-0.2c-12.9-11.6-20.3-9.9-33-1.4
		c-0.1,0.1-0.2,0.1-0.3,0.2l-29.5,22.4c-1.3,1-3.2,0.9-4.4-0.3l-37.4-37.4c-0.6-0.6-1-1.5-1-2.4c0-0.9,0.3-1.7,1-2.4l66.9-67.1
		c2.5-2.5,2.4-6.4,0-8.9l-110-110l8-7.9l9.7,9.6c2.5,2.4,6.4,2.4,8.9,0l28.5-28.5l5.3,5.4l-28.6,28.6c-2.5,2.5-2.5,6.4,0,8.9
		l31.8,32c1.2,1.2,2.8,1.9,4.5,1.9c0,0,0,0,0,0c1.7,0,3.3-0.7,4.5-1.8l28.6-28.6l5,5l-28.5,28.5c-1.2,1.2-1.8,2.8-1.8,4.5
		c0,1.7,0.7,3.3,1.8,4.5l40.1,40.1c1.2,1.2,2.8,1.8,4.5,1.8c1.7,0,3.3-0.7,4.5-1.8l27.5-27.5c1.2-1.2,1.8-2.8,1.8-4.5
		c0-1.7-0.7-3.3-1.8-4.5l-20.6-20.6l5.6-5.6l20.6,20.6c2.5,2.5,6.4,2.5,8.9,0l31.4-31.4c1.2-1.2,1.8-2.8,1.9-4.5
		c0-1.7-0.7-3.3-1.8-4.5l-28.4-28.4l5.7-5.5l28.7,28.7c1.2,1.2,2.8,1.9,4.5,1.8c1.7,0,3.3-0.7,4.5-1.9l13.3-13.8l6.7,7.2l-103,103
		c-1.2,1.2-1.9,2.8-1.8,4.5c0,1.7,0.7,3.3,1.9,4.5l32.7,31.7l25.8,25.8c1.2,1.2,2.8,1.8,4.5,1.8h175.6c23.5,0,42.7,19.1,42.7,42.7
		V637.6z"/>
</g>
</svg>
