<?xml version="1.0" encoding="utf-8"?>
<!-- Generator: Adobe Illustrator 25.0.1, SVG Export Plug-In . SVG Version: 6.00 Build 0)  -->
<svg version="1.1" id="Layer_1" xmlns="http://www.w3.org/2000/svg" xmlns:xlink="http://www.w3.org/1999/xlink" x="0px" y="0px"
	 viewBox="0 0 1024 1024" style="enable-background:new 0 0 1024 1024;" xml:space="preserve">
<style type="text/css">
	.st0{fill:#25333F;}
</style>
<g>
	<path class="st0" d="M873.9,658.4c-4-2.9-8.5-5.1-13.2-6.5c-9.8-2.8-20.3-1.3-29.5,4.2c-2.5,1.5-4.9,2.7-13.7,4.7
		c-13.1,2.9-26.6,3.9-40,2.8c-0.6,0-1.3,0-1.9,0.1c-0.2,0-0.7,0.1-1.3-0.4c-0.6-0.5-0.9-1.4-0.8-2.4c0.1-0.8,0.6-1.6,1.3-2.1
		c16.2-11.9,26.4-30.6,28.1-51.3c3.1-37.9-23.2-71-58.7-73.9c-35.5-2.9-66.9,25.5-70,63.4c-1.7,20.7,5.4,40.8,19.4,55.2
		c0.6,0.6,1,1.5,0.9,2.3c-0.1,1-0.5,1.8-1.2,2.2c-0.7,0.4-1.2,0.2-1.4,0.2c-0.6-0.2-1.2-0.4-1.8-0.4c-13.4-1.1-26.5-4.3-39-9.3
		c-8.3-3.4-10.5-5-12.8-6.8c-8.2-7-18.3-10.1-28.4-9c-4.9,0.6-9.6,2-14.1,4.2c-10.7,5.4-18.8,14.8-22.9,26.6
		c-8.4,24.3,3.3,51.2,26,60c0,0,0,0,0.1,0l68.2,25.6l-1.4,7.5c-5.4,17.5-12.7,34.4-21.6,50.2c-8.5,15.1-18.6,29.3-30,42.1
		c-10.9,12.3-14.4,30-9.1,45.3c3.2,9.3,9.2,17,17.2,22.3c12.9,8.4,28.2,11.2,43,7.6c15.7-3.7,28.9-13.8,37.4-28.4l13.8-24l9.7,26
		c5.9,15.8,17.4,27.9,32.2,34.2c5.4,2.3,11.1,3.7,16.8,4.1c9.1,0.7,18.2-0.8,26.9-4.6c8.7-3.9,15.8-10.5,20.6-19.2
		c7.7-14.2,7.1-32.3-1.6-46.2c-9.1-14.5-16.7-30.1-22.7-46.4c-6.2-17-10.6-34.9-13.1-53l-0.1-7.7l71.5-14.1c0,0,0,0,0.1,0
		c23.8-5,39.7-29.6,35.4-54.9C890.1,676.1,883.6,665.4,873.9,658.4z M854,730.3l-76.9,15.2c-3.2,0.6-5.4,3.4-5.4,6.6l0.2,13.6
		c0,0.3,0,0.5,0.1,0.8c2.6,19.2,7.3,38.1,13.9,56.2c6.3,17.2,14.3,33.6,23.9,48.9c6.2,9.9,6.7,22.7,1.2,32.7
		c-3.3,6.1-8.2,10.7-14.3,13.4c-10.7,4.7-22.5,4.9-33.2,0.4c-11.4-4.8-20.3-14.2-24.9-26.6l-14.7-39.1c-0.9-2.4-3.1-4.1-5.7-4.3
		c-2.6-0.2-5,1.1-6.3,3.3l-20.9,36.2c-6.6,11.4-16.8,19.3-28.9,22.1c-11.3,2.7-22.9,0.6-32.6-5.8c-5.5-3.6-9.6-9-11.9-15.5
		c-3.7-10.8-1.2-23.4,6.5-32.1c12-13.5,22.6-28.4,31.6-44.4c9.5-16.7,17.1-34.6,22.9-53.2c0.1-0.3,0.1-0.5,0.2-0.8l2.4-13.4
		c0.6-3.2-1.2-6.3-4.2-7.4l-73.4-27.5c-16.1-6.2-24.3-25.6-18.2-43.2c2.9-8.5,8.7-15.3,16.3-19.1c3.1-1.5,6.3-2.5,9.6-2.9
		c6.4-0.7,12.9,1.4,18.2,5.9c3.6,3.1,7.1,5.3,16.4,9c13.5,5.4,27.6,8.9,42,10.2c4.2,1.3,8.6,0.7,12.3-1.7c4.2-2.7,7-7.4,7.3-12.6
		c0.3-4.6-1.4-9.1-4.7-12.4c-11.3-11.6-17-27.9-15.6-44.8c2.5-30.5,27.5-53.5,55.7-51.2c28.2,2.3,49.1,29.1,46.6,59.6
		c-1.4,16.9-9.7,32.1-22.7,41.7c-3.7,2.7-6.1,6.9-6.6,11.5c-0.5,5.2,1.4,10.3,5.1,13.6c3.3,3,7.6,4.3,11.9,3.7
		c14.4,1.1,28.9,0,43.1-3.2c9.8-2.2,13.6-3.8,17.7-6.2c6-3.6,12.8-4.6,19-2.8c3.2,0.9,6.3,2.4,9,4.4c6.8,5,11.5,12.6,13,21.5
		C882.2,709,871,726.7,854,730.3z"/>
	<circle class="st0" cx="729.6" cy="711.6" r="9.7"/>
	<circle class="st0" cx="723.1" cy="791" r="9.7"/>
	<path class="st0" d="M727.1,741.6c-5.3-0.4-10,3.5-10.4,8.8c-0.4,5.3,3.5,10,8.8,10.4c5.3,0.4,10-3.5,10.4-8.8
		C736.4,746.7,732.4,742.1,727.1,741.6z"/>
	<path class="st0" d="M718.1,591.9c4.4,0.4,8.4-3,8.7-7.4c0.4-4.4-3-8.3-7.4-8.7c-4.4-0.4-8.3,3-8.7,7.4
		C710.3,587.6,713.6,591.5,718.1,591.9z"/>
	<path class="st0" d="M760.6,593.9c4.4,0.4,8.3-2.9,8.7-7.4c0.4-4.4-3-8.4-7.4-8.7c-4.4-0.4-8.4,3-8.7,7.4
		C752.9,589.6,756.2,593.6,760.6,593.9z"/>
	<path class="st0" d="M765.4,615.7c-2.4-2.8-6.6-3-9.4-0.6c-3.4,3-8.7,6.4-19,5.5c-9.8-0.8-14.4-4.7-17.9-8.7
		c-2.4-2.8-6.6-3-9.4-0.6c-2.8,2.4-3,6.6-0.6,9.4c4.8,5.5,12.2,12,26.9,13.2c11.6,1,21-1.9,28.8-8.8
		C767.6,622.7,767.8,618.5,765.4,615.7z"/>
	<path class="st0" d="M148.2,727.2c35.4,17.3,76.7,18.9,113.3,4.3l21.9-8.7l16.9,42.4c1.4,3.4,5.2,5.1,8.6,3.7l60.5-24.1
		c3.4-1.4,5.1-5.2,3.7-8.6l-16.9-42.4l21.9-8.7c36.6-14.6,65.5-44.2,79.3-81.1c1.2-3.2-0.2-6.8-3.3-8.3l-61.3-30l13.2-35.3
		c1.2-3.2-0.2-6.8-3.3-8.3L321.1,482l9.8-26.3c1.2-3.2-0.2-6.8-3.3-8.3l-132.2-64.7c-1.7-0.8-3.6-0.9-5.4-0.2
		c-1.7,0.7-3.1,2.1-3.8,3.9l-51.4,137.9c-1.2,3.2,0.2,6.8,3.3,8.3l25.2,12.3l-31.8,85.2c-1.2,3.2,0.2,6.8,3.3,8.3l33.9,16.6
		l-23.8,63.9C143.7,722.1,145.1,725.7,148.2,727.2z M183.3,654c1.2-3.2-0.2-6.8-3.3-8.3l-33.9-16.6l31.8-85.2
		c1.2-3.2-0.2-6.8-3.3-8.3l-25.2-12.3l46.8-125.4l120.2,58.8l-9.8,26.3c-1.2,3.2,0.2,6.8,3.3,8.3l81.6,39.9l-13.2,35.3
		c-1.2,3.2,0.2,6.8,3.3,8.3l61.2,29.9c-13.2,30.8-38.2,55.3-69.5,67.8l-28.1,11.2c-3.4,1.4-5.1,5.2-3.7,8.6l16.9,42.4l-48.2,19.2
		l-16.9-42.4c-1.4-3.4-5.2-5.1-8.6-3.7l-28.1,11.2c-31.3,12.5-66.3,11.9-97.1-1.4L183.3,654z"/>
	<path class="st0" d="M862.1,249.7c-22.5-22.8-56.6-36.3-86.6-48.1c-3.9-1.6-7.7-3-11.4-4.5c-11.6-35.5-24.8-75.4-48.8-105.5
		c-1.7-2.2-4.8-2.8-7.2-1.5c-33.3,18-60.4,50.1-84.3,78.5l-0.7,0.8c-3.4,0-6.9,0-10.5-0.1c-32.7-0.3-69.7-0.6-100.2,11.8
		c-2.7,1.1-4.1,4-3.4,6.8C519.7,227,539,263.3,556.8,294c-10.3,32.8-17.3,68.4-20.9,105.7c-0.2,1.7,0.5,3.5,1.7,4.7
		c0.8,0.8,1.8,1.3,2.8,1.5c0.6,0.1,1.3,0.2,1.9,0.1c11-1.4,22.2-2.8,33.1-4.1c25.4-3,51.6-6.2,77.5-10.9
		c18.9,12.1,38.5,23.1,57.4,33.7c12.9,7.3,26.3,14.8,39.3,22.5c1.5,0.9,3.4,1.1,5.1,0.4c1.7-0.7,2.9-2.1,3.4-3.8
		c10.9-39,17.5-73.9,20.3-106.5c28.2-21.9,60-48.5,84.2-80.1C864.3,254.9,864.1,251.7,862.1,249.7z M769.4,329.8
		c-1.3,1-2.1,2.5-2.2,4.1c-2.4,30.6-8.3,63.2-18.1,99.7c-11-6.5-22.2-12.7-33.1-18.8c-19.5-10.9-39.6-22.2-58.8-34.6
		c-1.2-0.8-2.7-1.1-4.2-0.8c-26.3,4.9-53.1,8.1-79,11.2c-8.5,1-17.3,2.1-26,3.2c3.8-34.8,10.6-67.9,20.4-98.6
		c0.5-1.5,0.3-3.2-0.5-4.6c-17-29.1-35.6-63.6-46.4-100.5c27.5-9.7,61.2-9.4,91-9.2c4.6,0,8.9,0.1,13.2,0.1c1.7,0,3.3-0.7,4.4-2
		l2.4-2.8c22.2-26.3,47.2-56,76.7-73.4c21.3,28.7,33.7,66.6,44.6,100.2l0.1,0.3c0.5,1.6,1.7,2.9,3.3,3.5c4.5,1.8,9.1,3.6,13.9,5.6
		c27.3,10.8,58.1,23,79,42C826.7,283.8,796.3,308.9,769.4,329.8z"/>
</g>
</svg>
