<?xml version="1.0" encoding="utf-8"?>
<!-- Generator: Adobe Illustrator 25.0.1, SVG Export Plug-In . SVG Version: 6.00 Build 0)  -->
<svg version="1.1" id="Layer_1" xmlns="http://www.w3.org/2000/svg" xmlns:xlink="http://www.w3.org/1999/xlink" x="0px" y="0px"
	 viewBox="0 0 1024 1024" style="enable-background:new 0 0 1024 1024;" xml:space="preserve">
<g>
	<g>
		<g>
			<path d="M275,285.6V178.3c0-22.1,1.8-36.2,5.4-42.5c3.6-6.3,11.3-14.8,23-25.6c11.7-10.8,20.5-16.1,26.2-16.1
				c7.9,0,17.7,3.1,29.3,9.4c11.7,6.3,20.4,13.4,26.1,21.3l-29.9,20.7c-10-10-18.1-15.1-24.2-15.1c-2.3,0-5,1.5-8.1,4.4
				c-3.1,3-5.6,6.1-7.7,9.4c-2.1,3.3-3.1,11.7-3.1,25.2v6.2h48.2v32.6h-48.2v77.5H275z"/>
			<path d="M481.2,140.6v110.3c1.1,6.3,5.3,11.8,12.6,16.7l-24.2,20.7c-2.3-1.6-5.2-4.5-8.6-8.6c-3.4-4.1-6.3-8.3-8.6-12.6
				c-14.9,14.5-25.3,21.8-31.2,21.8c-4.3,0-11.3-4.8-20.9-14.3c-9.6-9.5-15.6-17.2-17.9-23.1c-2.3-5.9-3.5-18.7-3.5-38.3
				c0-19.6,1.2-32.4,3.5-38.3c2.3-5.9,8.3-13.6,17.9-23.1c9.6-9.5,16.5-14.3,20.9-14.3c6.3,0,16.4,6.5,30.4,19.4l3.2-16.1H481.2z
				 M443.8,181.7c-1.3-2.2-3.8-4.6-7.7-7c-3.9-2.4-6.8-3.6-8.7-3.6c-2,0-4.1,1.2-6.3,3.5c-2.2,2.3-3.7,4.5-4.4,6.5
				c-2.3,3.2-3.5,13.9-3.5,32.1c0,18.2,1.2,28.9,3.5,32.1c0.7,1.8,2.2,3.9,4.4,6.3c2.2,2.4,4.3,3.6,6.3,3.6c2,0,4.9-1.2,8.7-3.6
				c3.9-2.4,6.4-4.6,7.5-6.6c1.2-2,1.8-12.5,2-31.5C445.6,194.5,445,183.9,443.8,181.7z"/>
			<path d="M544.2,285.6h-35.5v-92.8c0-9.1-1.1-16.3-3.4-21.4c-2.2-5.1-5.6-9.6-10.1-13.3l29.6-20.7c6.5,5.4,11.4,11.7,14.8,18.8
				c13.3-12.6,22.6-18.8,28-18.8c3.6,0,9.1,3.3,16.4,10c7.4,6.6,11.7,13.9,12.9,21.8l-28.8,20.7c-0.2-4.3-1.2-8.5-3.1-12.6
				c-1.9-4.1-3.5-6.2-5-6.2c-3.1,0-8.3,3.8-15.9,11.3V285.6z"/>
		</g>
		<g>
			<path d="M551,590.2V482.8c0-22.1,1.8-36.2,5.4-42.5c3.6-6.3,11.3-14.8,23-25.6c11.7-10.8,20.5-16.1,26.2-16.1
				c7.9,0,17.7,3.1,29.3,9.4c11.7,6.3,20.4,13.4,26.1,21.3L631.2,450c-10-10-18.1-15.1-24.2-15.1c-2.3,0-5,1.5-8.1,4.4
				c-3.1,3-5.6,6.1-7.7,9.4c-2.1,3.3-3.1,11.7-3.1,25.2v6.2h48.2v32.6h-48.2v77.5H551z"/>
			<path d="M757.2,445.2v110.3c1.1,6.3,5.3,11.8,12.6,16.7l-24.2,20.7c-2.3-1.6-5.2-4.5-8.6-8.6c-3.4-4.1-6.3-8.3-8.6-12.6
				c-14.9,14.5-25.3,21.8-31.2,21.8c-4.3,0-11.3-4.8-20.9-14.3c-9.6-9.5-15.6-17.2-17.9-23.1c-2.3-5.9-3.5-18.7-3.5-38.3
				c0-19.6,1.2-32.4,3.5-38.3c2.3-5.9,8.3-13.6,17.9-23.1c9.6-9.5,16.5-14.3,20.9-14.3c6.3,0,16.4,6.5,30.4,19.4l3.2-16.1H757.2z
				 M719.8,486.2c-1.3-2.2-3.8-4.6-7.7-7c-3.9-2.4-6.8-3.6-8.7-3.6c-2,0-4.1,1.2-6.3,3.5c-2.2,2.3-3.7,4.5-4.4,6.5
				c-2.3,3.2-3.5,13.9-3.5,32.1c0,18.2,1.2,28.9,3.5,32.1c0.7,1.8,2.2,3.9,4.4,6.3c2.2,2.4,4.3,3.6,6.3,3.6c2,0,4.9-1.2,8.7-3.6
				c3.9-2.4,6.4-4.6,7.5-6.6c1.2-2,1.8-12.5,2-31.5C721.6,499.1,721,488.5,719.8,486.2z"/>
			<path d="M820.2,590.2h-35.5v-92.8c0-9.1-1.1-16.3-3.4-21.4c-2.2-5.1-5.6-9.6-10.1-13.3l29.6-20.7c6.5,5.4,11.4,11.7,14.8,18.8
				c13.3-12.6,22.6-18.8,28-18.8c3.6,0,9.1,3.3,16.4,10c7.4,6.6,11.7,13.9,12.9,21.8l-28.8,20.7c-0.2-4.3-1.2-8.5-3.1-12.6
				c-1.9-4.1-3.5-6.2-5-6.2c-3.1,0-8.3,3.8-15.9,11.3V590.2z"/>
		</g>
		<g>
			<path d="M281.2,688.6c12.7-11.7,22.4-17.5,29.1-17.5c6.6,0,16.3,5.8,29.1,17.5c12.7,11.7,20.6,21.3,23.7,28.8
				c2,5.2,3,16.9,3,35.2v110h-37.1v-40.4h-37.1v40.4h-37.1v-110c0-18.3,1-30,3-35.2C260.5,709.9,268.4,700.3,281.2,688.6z
				 M291.6,752.7v37.4h37.1v-37.4c0-14.7-0.7-23.7-2.2-27c-1.4-3.3-3.9-6.8-7.4-10.5c-3.5-3.7-6.5-5.5-9-5.5c-2.5,0-5.5,1.8-9,5.5
				c-3.5,3.7-6,7.2-7.4,10.5C292.4,729,291.6,738,291.6,752.7z"/>
			<path d="M544.9,758.1v23.1c0,21.5-1.1,34.9-3.4,40.1c-2.2,5.2-9.1,13.9-20.6,26.2c-11.5,12.3-19.9,18.4-25.3,18.4
				c-6.5,0-16.9-10.1-31.5-30.4c-14.5,20.3-25,30.4-31.5,30.4c-5.4,0-13.9-6.2-25.4-18.6c-11.6-12.4-18.4-21.3-20.6-26.9
				c-2.2-5.6-3.2-18.7-3.2-39.3v-63.5H419v63.5c0,18.8,0.6,30,1.9,33.4c1.3,3.4,3.1,6.8,5.6,10.1c2.5,3.3,4.6,5,6.2,5s3.6-1.7,6.1-5
				c2.4-3.3,4.3-6.6,5.6-9.8s2-11.2,2-23.9v-73.2H482v63.5c0,18.8,0.6,30,1.9,33.4c1.3,3.4,3.1,6.8,5.6,10.1c2.5,3.3,4.6,5,6.2,5
				s3.6-1.7,6.1-5c2.4-3.3,4.3-6.6,5.6-9.8s2-14.4,2-33.6v-11.6c0-15.4-3.6-26.9-10.8-34.4l26.9-20.7
				C538.5,724.7,544.9,739.2,544.9,758.1z"/>
			<path d="M660,717.7V828c1.1,6.3,5.3,11.8,12.6,16.7l-24.2,20.7c-2.3-1.6-5.2-4.5-8.6-8.6c-3.4-4.1-6.3-8.3-8.6-12.6
				c-14.9,14.5-25.3,21.8-31.2,21.8c-4.3,0-11.3-4.8-20.9-14.3c-9.6-9.5-15.6-17.2-17.9-23.1c-2.3-5.9-3.5-18.7-3.5-38.3
				c0-19.6,1.2-32.4,3.5-38.3c2.3-5.9,8.3-13.6,17.9-23.1c9.6-9.5,16.5-14.3,20.9-14.3c6.3,0,16.4,6.5,30.4,19.4l3.2-16.1H660z
				 M622.6,758.7c-1.3-2.2-3.8-4.6-7.7-7c-3.9-2.4-6.8-3.6-8.7-3.6c-2,0-4.1,1.2-6.3,3.5c-2.2,2.3-3.7,4.5-4.4,6.5
				c-2.3,3.2-3.5,13.9-3.5,32.1c0,18.2,1.2,28.9,3.5,32.1c0.7,1.8,2.2,3.9,4.4,6.3c2.2,2.4,4.3,3.6,6.3,3.6c2,0,4.9-1.2,8.7-3.6
				c3.9-2.4,6.4-4.6,7.5-6.6c1.2-2,1.8-12.5,2-31.5C624.5,771.6,623.9,761,622.6,758.7z"/>
			<path d="M751,717.7h35.5v136.1c0,21.3-1.3,34.6-4,39.8c-2.7,5.2-9.7,12.6-21.1,22.1c-11.4,9.5-20,14.3-26,14.3
				s-13.5-3.1-22.9-9.3c-9.3-6.2-16.3-13.3-21-21.4l27.7-19.1l3,3.5c6.5,8.4,10.9,12.6,13.3,12.6c2.4,0,5-1.2,7.8-3.5
				c2.8-2.3,4.8-4.7,5.9-7c1.2-2.3,1.7-10.8,1.7-25.3V846c-10,9.7-17.5,14.5-22.5,14.5c-4.9,0-13-5-24.2-14.9
				c-11.2-10-16.8-19.8-16.8-29.5v-46.5c0-9.1-1.1-16.2-3.2-21.3c-2.2-5-5.6-9.4-10.2-13.2l29.6-20.7c12.9,10.2,19.4,24.8,19.4,43.6
				v54.3c0,3.1,1.7,6.2,5.1,9.6c3.4,3.3,6.4,5,8.9,5c2.5,0,7.2-3.7,14-11V717.7z"/>
		</g>
	</g>
	<path d="M261.4,376.1l-71.1,29.1c-3.8,1.5-6.3,5.2-6.3,9.3v10.3v8v121.8c-7.2-2.9-16.6-2.1-25.1,2.8c-13,7.5-18.7,21.9-12.8,32.1
		c5.9,10.2,21.3,12.5,34.2,5c9.8-5.7,15.5-15.3,15.1-24.1h0V442.8c0.8-0.1,1.6-0.3,2.4-0.7l65.8-26.9v111.3
		c-7.2-2.9-16.6-2.1-25.1,2.8c-13,7.5-18.7,21.9-12.8,32.1c5.9,10.2,21.3,12.5,34.2,5c9.8-5.7,15.5-15.3,15.1-24.1h0V403.8v-7.5
		v-10.8C275.3,378.3,268,373.4,261.4,376.1z"/>
	<path d="M439.5,474.8c-17.5-27.1-28.8-21.4-33.2-17.3c-1.3,1.2-2,2.9-2,4.7v104c0,3.7-3.1,6.8-6.9,6.6c-4.9-0.2-10.3,1-15.2,3.9
		c-11.4,6.6-16.5,19.3-11.3,28.3c5.2,9,18.7,11,30.2,4.4c8.7-5,13.7-13.5,13.3-21.2h0V482.8c0-5.5,6.4-8.6,10.7-5.1
		c4.2,3.3,8.5,8.7,11.9,17.3c10,25.3,40.3,5,40.3,5S462.2,510.2,439.5,474.8z"/>
	<path d="M842.5,243.8c-17.5-27.1-28.8-21.4-33.2-17.3c-1.3,1.2-2,2.9-2,4.7v104c0,3.7-3.1,6.8-6.9,6.6c-4.9-0.2-10.3,1-15.2,3.9
		c-11.4,6.6-16.5,19.3-11.3,28.3c5.2,9,18.7,11,30.2,4.4c8.7-5,13.7-13.5,13.3-21.2h0V251.8c0-5.5,6.4-8.6,10.7-5.1
		c4.2,3.3,8.5,8.7,11.9,17.3c10,25.3,40.3,5,40.3,5S865.2,279.2,842.5,243.8z"/>
	<path d="M756.5,114.8c-17.5-27.1-28.8-21.4-33.2-17.3c-1.3,1.2-2,2.9-2,4.7v104c0,3.7-3.1,6.8-6.9,6.6c-4.9-0.2-10.3,1-15.2,3.9
		c-11.4,6.6-16.5,19.3-11.3,28.3c5.2,9,18.7,11,30.2,4.4c8.7-5,13.7-13.5,13.3-21.2h0V122.8c0-5.5,6.4-8.6,10.7-5.1
		c4.2,3.3,8.5,8.7,11.9,17.3c10,25.3,40.3,5,40.3,5S779.2,150.2,756.5,114.8z"/>
</g>
</svg>
