<?xml version="1.0" encoding="utf-8"?>
<!-- Generator: Adobe Illustrator 25.0.1, SVG Export Plug-In . SVG Version: 6.00 Build 0)  -->
<svg version="1.1" id="Layer_1" xmlns="http://www.w3.org/2000/svg" xmlns:xlink="http://www.w3.org/1999/xlink" x="0px" y="0px"
	 viewBox="0 0 1024 1024" style="enable-background:new 0 0 1024 1024;" xml:space="preserve">
<style type="text/css">
	.st0{fill:#25333F;}
</style>
<g>
	<path class="st0" d="M222,906.2c1.2,4,4.4,7,8.4,8.1c76.5,20.4,154.7,31.8,232.5,34.1c0.1,0,0.2,0,0.4,0c6.4,0,11.8-5.1,12-11.6
		c0.2-6.6-5-12.1-11.6-12.3c-69.6-2-139.6-11.6-208.4-28.5c23.5-27.8,45.9-57.9,66.8-89.9c2.2-3.3,2.6-7.5,1-11.1
		c-1.5-3.7-4.7-6.3-8.6-7.1c-9.7-2-19.6-4.2-29.3-6.6c23.5-27.9,45.6-58.4,66.1-90.9c2.1-3.3,2.4-7.5,0.9-11.1
		c-1.5-3.6-4.7-6.2-8.6-7c-7.6-1.6-15.2-3.3-22.8-5.1c23.2-27.9,44.9-58.8,64.6-92c2-3.3,2.2-7.4,0.6-11c-1.6-3.5-4.8-6.1-8.6-6.9
		c-5.9-1.2-11.8-2.5-17.7-3.8c22.8-27.8,43.6-59,61.9-93.1c1.8-3.4,1.9-7.4,0.2-10.9c-1.7-3.5-4.9-5.9-8.7-6.6
		c-6-1.1-11.9-2.3-17.9-3.6c27-33.6,49.9-73,68.2-117.4c11.4-27.6,20.8-56.6,28.1-86.7c7.3,30.2,16.7,59.2,28.1,86.7
		c18.3,44.4,41.2,83.8,68.2,117.4c-5.9,1.3-11.9,2.5-17.9,3.6c-3.8,0.7-7,3.1-8.7,6.6c-1.7,3.5-1.6,7.5,0.2,10.9
		c18.4,34.1,39.1,65.3,61.9,93.1c-5.9,1.4-11.8,2.6-17.7,3.8c-3.8,0.8-7,3.3-8.6,6.9c-1.6,3.5-1.3,7.6,0.6,11
		c13.5,22.8,28.2,44.8,43.4,65.2c4,5.3,11.5,6.4,16.7,2.4c5.3-4,6.4-11.5,2.4-16.7c-11.6-15.4-22.7-31.8-33.3-48.8
		c7.1-1.6,14.2-3.4,21.1-5.2c4-1.1,7.2-4.1,8.4-8.1c1.2-4,0.2-8.3-2.5-11.4c-23.3-26.2-44.6-56.2-63.5-89.2c7.4-1.6,14.8-3.4,22-5.3
		c4-1.1,7.2-4.1,8.4-8.1c1.2-4,0.2-8.3-2.5-11.4c-30.8-34.7-56.5-77-76.6-125.7c-15.3-37.2-26.9-77.2-34.6-119.2
		c5.7,2.2,11.6,4.1,17.7,5.6c3.5,0.9,7.2,0.1,10-2.1c2.9-2.2,4.6-5.5,4.8-9.1c0.4-11.4-0.4-22.3-1.4-33.2c7.2-8.5,15.1-18,21.9-28.5
		c2-3,2.5-6.8,1.3-10.3s-3.8-6.2-7.2-7.5c-11.2-4.2-22.7-6.5-33.8-8.6c-6-10.1-12.3-20.4-20.3-29.9c-2.3-2.7-5.6-4.2-9.1-4.2
		c0,0-0.1,0-0.1,0c-3.6,0-6.9,1.6-9.1,4.4c-7.8,9.6-13.9,20.1-19.6,30.3c-11.1,2.3-22.5,4.8-33.7,9.3c-3.4,1.3-5.9,4.1-7,7.6
		c-1.1,3.5-0.5,7.2,1.5,10.2c7,10.3,15.1,19.7,22.5,28.1c-0.8,10-1.4,21.6-0.6,33.2c0.2,3.6,2.1,6.8,5,8.9c2.1,1.5,4.5,2.2,7,2.2
		c1,0,2-0.1,3-0.4c5.4-1.4,10.7-3.3,15.8-5.3c-7.6,41.6-19.2,81.3-34.4,118.2c-20.1,48.7-45.9,91-76.6,125.7
		c-2.8,3.1-3.7,7.4-2.5,11.4c1.2,4,4.4,7,8.4,8.1c7.3,1.9,14.6,3.7,22,5.3c-18.9,33-40.3,63-63.5,89.2c-2.8,3.1-3.7,7.4-2.5,11.4
		c1.2,4,4.4,7,8.4,8.1c6.9,1.8,14,3.6,21.1,5.2c-20.2,32.4-42.3,62.2-66,88.8c-2.8,3.1-3.7,7.4-2.5,11.4c1.2,4,4.4,7,8.4,8.1
		c8.5,2.3,17.1,4.4,25.7,6.4c-20.9,31.7-43.5,61.3-67.2,88.1c-2.8,3.1-3.7,7.4-2.5,11.4c1.2,4,4.4,7,8.4,8.1
		c10.6,2.8,21.3,5.5,32,7.9c-21.3,31.3-44.1,60.6-67.8,87.4C221.7,898,220.8,902.3,222,906.2z M468.5,171.8c0.2-6,0.7-12.2,1.2-19
		c0.3-3.3-0.8-6.5-3-8.9c-4.7-5.3-9.6-10.7-14.2-16.4c5.2-1.3,10.6-2.4,16.1-3.6l3.8-0.8c3.4-0.7,6.3-2.9,8-5.9l1-1.7
		c3.3-5.9,6.5-11.7,9.9-17.1c3.6,5.4,7,11.2,10.5,17.1l0.9,1.6c1.7,3,4.7,5,8.1,5.7l3.9,0.7c5.5,1,10.8,2,16,3.2
		c-4.6,5.9-9.4,11.5-13.8,16.7c-2.1,2.5-3.1,5.7-2.8,9c0.7,6.4,1.3,12.7,1.6,19c-4.3-1.6-8.7-3.4-12.9-5.1c-0.4-0.2-0.8-0.3-1.2-0.5
		c-2.2-3.3-5.8-5.4-10-5.4c-4.5,0-8.5,2.5-10.5,6.2c0,0,0,0-0.1,0C476.9,168.3,472.7,170.1,468.5,171.8z"/>
	<path class="st0" d="M784.6,794.4c9.9,0,18-8.1,18-18v-74.2c0-9.9-8.1-18-18-18H672.2l23-23c4.7-4.7,4.7-12.2,0-16.9
		c-4.7-4.7-12.2-4.7-16.9,0l-34.9,34.9l-54.5-54.5c-4.7-4.7-12.2-4.7-16.9,0c-4.7,4.7-4.7,12.2,0,16.9l42.6,42.6H502.1
		c-9.9,0-18,8.1-18,18v74.2c0,9.9,8.1,18,18,18h129.3v139.7H525.7V814.2c0-6.6-5.4-12-12-12c-6.6,0-12,5.4-12,12V940
		c0,9.9,8.1,18,18,18h247.2c9.9,0,18-8.1,18-18V814.2c0-6.6-5.4-12-12-12s-12,5.4-12,12v119.9H655.3V794.4H784.6z M655.3,708.2
		h123.3v62.3H655.3V708.2z M631.4,770.5H508.1v-62.3h123.3V770.5z"/>
</g>
</svg>
