<?xml version="1.0" encoding="utf-8"?>
<!-- Generator: Adobe Illustrator 25.0.1, SVG Export Plug-In . SVG Version: 6.00 Build 0)  -->
<svg version="1.1" id="Layer_1" xmlns="http://www.w3.org/2000/svg" xmlns:xlink="http://www.w3.org/1999/xlink" x="0px" y="0px"
	 viewBox="0 0 1024 1024" style="enable-background:new 0 0 1024 1024;" xml:space="preserve">
<style type="text/css">
	.st0{fill:#25333F;}
</style>
<g>
	<path class="st0" d="M289.4,251.4c-1.8,5.5-3.5,11.2-5,17.1c-9.1,35.4-9.6,67-9.7,80.4c-0.2,18.8,1.4,37.6,4.8,56.2
		c0.1,4.5,0.8,8.9,1.9,13.3l-24.5,215.1c-0.4,1-0.6,2.1-0.7,3.3c-0.1,0.9,0,1.7,0.1,2.6L241.3,770c-4,35.1,12.9,69.6,43.2,88
		L410,934c34.1,20.7,72.4,31,110.6,31c38.3,0,76.5-10.3,110.6-31l125.6-76c30.2-18.3,47.2-52.8,43.2-88l-14.9-130.7
		c0.1-0.9,0.1-1.7,0.1-2.6c-0.1-1.1-0.3-2.2-0.7-3.3l-24.3-213.4c1.6-5.3,2.4-10.8,2.5-16.3c4.5-18.7,6.1-37.4,4.7-55.8
		c-4.1-52.7-33.2-104.9-82-147.2c-45.5-39.4-104.8-66.6-162.5-74.7c-19.9-2.8-61.5-8.6-105.7,2.5C404.3,87.5,366,59,322.4,59
		c-54.6,0-99,44.4-99,99C223.4,200.1,249.9,237.4,289.4,251.4z M305.2,437.5c5.5-3.3,7.6-10.2,5.2-16c0.2-1.9,0-3.9-0.7-5.9
		c-0.2-0.5-0.3-1-0.5-1.5l7-1.7l10.2,171.6c0.1,1.5,0.4,3,1,4.3l-42.1,25L305.2,437.5z M353.7,602.6l14.1-8.4l0,0l43.1-25.6
		c20.8-12.4,46.7-14.3,69.1-5.3c12.8,5.1,25.8,7.7,38.8,7.7h3.7c13,0,26-2.6,38.8-7.7c22.5-9,48.3-7.1,69.1,5.3l43.1,25.6v0l75.9,45
		c-1.4,1-2.8,2-4.3,3c-0.3,0.2-0.6,0.4-0.9,0.6c-1.2,0.8-2.4,1.6-3.6,2.4c-0.5,0.3-0.9,0.6-1.4,0.9c-1.1,0.7-2.2,1.4-3.3,2
		c-0.5,0.3-0.9,0.6-1.4,0.9c-1.2,0.7-2.5,1.5-3.7,2.2c-0.3,0.2-0.6,0.4-1,0.6c-1.6,0.9-3.2,1.8-4.8,2.6c-0.3,0.1-0.5,0.3-0.8,0.4
		c-1.3,0.7-2.7,1.4-4,2.1c-0.5,0.3-1,0.5-1.5,0.7c-1.1,0.6-2.3,1.1-3.4,1.6c-0.5,0.3-1.1,0.5-1.6,0.7c-1.2,0.6-2.4,1.1-3.7,1.6
		c-0.4,0.2-0.9,0.4-1.3,0.6c-1.7,0.7-3.3,1.4-5,2.1c-0.2,0.1-0.4,0.1-0.6,0.2c-1.5,0.6-3,1.2-4.4,1.7c-0.5,0.2-1.1,0.4-1.6,0.6
		c-1.2,0.4-2.3,0.8-3.5,1.2c-0.6,0.2-1.2,0.4-1.8,0.6c-1.2,0.4-2.4,0.8-3.6,1.2c-0.5,0.2-1.1,0.3-1.6,0.5c-1.7,0.5-3.4,1-5.1,1.5
		c-19.1,5.4-38.9,8-58.8,8c-2.4,0-4.7-0.1-7.1-0.1c-0.5,0-1,0-1.4,0c-9.3-0.4-18.1-3.3-25.6-8.3c-5.8-3.9-10.9-9-14.7-15.1
		c-0.3-0.4-0.6-0.9-0.9-1.3l-38.9-48.1c-2.1-3-5.4-4.9-9-5.3c-0.5-0.1-1-0.1-1.6-0.1h-6.2c-4.2,0-8.1,2-10.5,5.4l-38.9,48.1
		c-0.3,0.4-0.6,0.8-0.9,1.3c-8.7,14-23.8,22.8-40.3,23.4c-22.8,0.9-45.5-1.7-67.4-7.8c-1.7-0.5-3.4-1-5.1-1.5
		c-0.5-0.2-1.1-0.3-1.6-0.5c-1.2-0.4-2.4-0.8-3.6-1.2c-0.6-0.2-1.2-0.4-1.8-0.6c-1.2-0.4-2.3-0.8-3.5-1.2c-0.5-0.2-1.1-0.4-1.6-0.6
		c-1.5-0.6-3-1.1-4.4-1.7c-0.2-0.1-0.4-0.1-0.6-0.2c-1.7-0.7-3.3-1.4-5-2.1c-0.4-0.2-0.9-0.4-1.3-0.6c-1.2-0.5-2.4-1.1-3.6-1.6
		c-0.5-0.3-1.1-0.5-1.6-0.8c-1.1-0.5-2.3-1.1-3.4-1.6c-0.5-0.3-1-0.5-1.5-0.8c-1.3-0.7-2.6-1.3-3.9-2c-0.3-0.1-0.6-0.3-0.8-0.4
		c-1.6-0.9-3.2-1.7-4.8-2.6c-0.3-0.2-0.7-0.4-1-0.6c-1.2-0.7-2.4-1.4-3.6-2.1c-0.5-0.3-1-0.6-1.5-0.9c-1.1-0.7-2.2-1.3-3.2-2
		c-0.5-0.3-1-0.6-1.4-0.9c-1.2-0.8-2.4-1.6-3.6-2.4c-0.3-0.2-0.6-0.4-0.9-0.6c-1.4-1-2.8-2-4.2-3L353.7,602.6z M760.6,663
		c0.4-0.2,0.7-0.5,1.1-0.7l12.6,110.7c2.9,25.1-9.3,49.8-30.9,62.9l-125.6,76c-60,36.3-134.5,36.3-194.5,0l-125.6-76
		c-21.6-13.1-33.8-37.8-30.9-62.9l12.6-110.7c0.4,0.2,0.7,0.5,1.1,0.7c0.6,0.4,1.2,0.8,1.8,1.2c1.1,0.8,2.3,1.5,3.4,2.2
		c0.5,0.4,1.1,0.7,1.6,1.1c1.6,1,3.3,2.1,5,3.1c0.3,0.2,0.6,0.3,0.9,0.5c1.4,0.8,2.8,1.7,4.3,2.5c0.6,0.3,1.2,0.7,1.8,1
		c1.2,0.7,2.4,1.3,3.6,2c0.6,0.3,1.2,0.6,1.8,1c1.5,0.8,2.9,1.5,4.4,2.3c0.3,0.2,0.6,0.3,0.9,0.5c1.8,0.9,3.5,1.7,5.3,2.6
		c0.5,0.2,1.1,0.5,1.6,0.7c1.3,0.6,2.6,1.2,3.9,1.8c0.6,0.3,1.2,0.5,1.8,0.8c1.4,0.6,2.7,1.2,4.1,1.7c0.5,0.2,1,0.4,1.4,0.6
		c1.8,0.7,3.7,1.4,5.5,2.1c0.4,0.1,0.8,0.3,1.2,0.4c1.5,0.5,3,1.1,4.5,1.6c0.6,0.2,1.2,0.4,1.8,0.6c1.3,0.5,2.7,0.9,4.1,1.3
		c0.6,0.2,1.1,0.4,1.7,0.5c1.9,0.6,3.8,1.1,5.7,1.7c24.5,6.9,49.8,9.8,75.4,8.7c1.5-0.1,3.1-0.2,4.6-0.3c22.9-2.4,43.6-15,56.1-34.5
		l31.9-39.5l31.9,39.5c3.3,5.2,7.2,9.9,11.6,14.1c9.6,9.1,21.4,15.5,34.3,18.7c0.6,0.2,1.2,0.3,1.9,0.4c2.7,0.6,5.5,1,8.3,1.3
		c1.5,0.2,3.1,0.3,4.6,0.3c1.7,0.1,3.3,0.1,5,0.2c0.4,0,0.8,0,1.2,0c1.3,0,2.5,0,3.8,0c0.1,0,0.1,0,0.1,0c0.2,0,0.3,0,0.5,0
		c2.5,0,5,0,7.5-0.1c0.2,0,0.4,0,0.6,0c2.5-0.1,5-0.2,7.5-0.4c0.4,0,0.7,0,1.1-0.1c2.4-0.2,4.9-0.4,7.3-0.6c0.3,0,0.7-0.1,1-0.1
		c2.5-0.3,5-0.6,7.5-0.9c0.1,0,0.1,0,0.2,0c2.5-0.3,5-0.7,7.5-1.1c0.3,0,0.6-0.1,0.8-0.1c2.4-0.4,4.8-0.9,7.2-1.4
		c0.4-0.1,0.8-0.2,1.3-0.3c2.4-0.5,4.7-1,7-1.6c0.4-0.1,0.7-0.2,1.1-0.3c2.4-0.6,4.9-1.2,7.3-1.9c1.9-0.5,3.8-1.1,5.7-1.7
		c0.6-0.2,1.2-0.4,1.7-0.5c1.3-0.4,2.7-0.9,4-1.3c0.6-0.2,1.2-0.4,1.8-0.6c1.5-0.5,2.9-1,4.4-1.6c0.4-0.1,0.8-0.3,1.2-0.4
		c1.8-0.7,3.7-1.4,5.5-2.1c0.5-0.2,1-0.4,1.5-0.6c1.3-0.5,2.7-1.1,4-1.7c0.6-0.3,1.3-0.5,1.9-0.8c1.3-0.6,2.6-1.1,3.8-1.7
		c0.6-0.3,1.1-0.5,1.7-0.8c1.8-0.8,3.5-1.7,5.3-2.5c0.3-0.2,0.7-0.3,1-0.5c1.4-0.7,2.9-1.5,4.3-2.2c0.6-0.3,1.2-0.6,1.8-1
		c1.2-0.6,2.4-1.3,3.6-2c0.6-0.3,1.2-0.7,1.8-1c1.4-0.8,2.8-1.6,4.2-2.5c0.3-0.2,0.6-0.4,0.9-0.5c1.7-1,3.3-2,4.9-3.1
		c0.5-0.3,1.1-0.7,1.6-1.1c1.1-0.7,2.3-1.5,3.4-2.2C759.4,663.8,760,663.4,760.6,663z M756.1,613.2l-14.1-8.4l-28-16.6
		c0.6-1.3,0.9-2.8,1-4.3l10.2-171.6l8.3,2L756.1,613.2z M716.2,383.6c-3.7-0.9-7.6-0.1-10.7,2.2c-3.1,2.3-5,5.8-5.2,9.6l-10.3,174.8
		h-6.3l-40.1-23.8c-13.4-8-28.4-12.7-43.7-14.1c1.5-6.9,2.1-15.6-0.7-25.2c-2.4-8.1-6.9-15.6-13-21.6c-5.1-5-13.3-4.9-18.3,0.1
		c-5,5.1-4.9,13.3,0.1,18.3c2.1,2.1,4.9,5.6,6.4,10.5c2.3,8-0.3,15.1-1.5,17.7c-0.2,0.4-0.4,0.9-0.5,1.3c-7,1.2-13.9,3.2-20.6,5.9
		c-9.7,3.9-19.5,5.9-29.1,5.9h-3.7c-9.6,0-19.4-2-29.1-5.9c-7.9-3.2-16.2-5.3-24.5-6.5c-0.1-0.2-0.2-0.5-0.3-0.7
		c-1.2-2.7-3.9-9.7-1.5-17.7c1.4-4.9,4.3-8.4,6.4-10.5c5.1-5,5.1-13.2,0.1-18.3c-5-5.1-13.2-5.1-18.3-0.1c-6.1,6-10.6,13.5-13,21.6
		c-2.9,9.8-2.3,18.7-0.7,25.6c-14.1,1.8-27.8,6.3-40.2,13.7l-40.1,23.8h-6.3L341,395.4c-0.2-3.8-2.1-7.3-5.2-9.6
		c-3.1-2.3-7-3.1-10.7-2.2l-15.7,3.8c8-15.4,27.1-30.2,55-42.4C406,327,461.6,317,521,317c59.4,0,114.9,10,156.6,28
		c28.1,12.2,47.2,27.1,55.1,42.5L716.2,383.6z M316.2,342.7c10.3-18.2,27-34.9,49.4-49.2c41.3-26.4,96.5-40.9,155.4-40.9
		c58.9,0,114.1,14.5,155.4,40.9c22.4,14.3,39.1,31.1,49.4,49.2c-10.5-7.8-23.2-14.9-37.9-21.3c-44.8-19.5-104-30.2-166.9-30.2
		s-122.1,10.7-166.9,30.2C339.4,327.7,326.7,334.9,316.2,342.7z M519.2,151.8c53,7.4,107.3,32.4,149.2,68.6
		c29.7,25.7,51.1,55.1,63,85.8c-11-12.6-24.8-24.2-41.1-34.6c-45.4-29-105.6-44.9-169.3-44.9s-123.9,16-169.3,44.9
		c-20.6,13.2-37.2,28.4-49.4,44.9c6-60,26.9-104.9,62.2-133.7C419.4,137.9,491.9,148,519.2,151.8z M322.4,84.8
		c32.3,0,60.7,21.2,70,51.9c-15.1,6.1-30.1,14.5-44.3,26.1c-20.7,16.9-37.1,38.5-49.2,64.6c-29.7-10.1-49.7-37.9-49.7-69.3
		C249.3,117.7,282.1,84.8,322.4,84.8z"/>
	<path class="st0" d="M593.5,403.3c-18.5,0.3-32.2,8-38.7,12.5c-5.9,4.1-7.3,12.1-3.2,18c4.1,5.9,12.1,7.3,18,3.2
		c4.1-2.9,12.7-7.7,24.3-7.9c12.2-0.2,21.3,4.9,25.6,7.9c2.3,1.6,4.8,2.3,7.4,2.3c4.1,0,8.1-1.9,10.6-5.5c4.1-5.9,2.6-13.9-3.2-18
		C627.4,411.1,612.9,403.1,593.5,403.3z"/>
	<path class="st0" d="M437.7,403.4c-16.8,0.7-29.4,7.2-37,12.5c-5.8,4.1-7.3,12.1-3.2,18c4.1,5.9,12.1,7.3,18,3.2
		c3.9-2.8,12.2-7.4,23.3-7.9c12.7-0.5,22.2,4.7,26.7,7.9c2.2,1.6,4.8,2.3,7.4,2.3c4.1,0,8.1-1.9,10.6-5.5c4.1-5.9,2.6-13.9-3.2-18
		C473,410.8,457.9,402.6,437.7,403.4z"/>
</g>
</svg>
