<?xml version="1.0" encoding="utf-8"?>
<!-- Generator: Adobe Illustrator 25.0.1, SVG Export Plug-In . SVG Version: 6.00 Build 0)  -->
<svg version="1.1" id="Layer_1" xmlns="http://www.w3.org/2000/svg" xmlns:xlink="http://www.w3.org/1999/xlink" x="0px" y="0px"
	 viewBox="0 0 1024 1024" style="enable-background:new 0 0 1024 1024;" xml:space="preserve">
<style type="text/css">
	.st0{fill:#25333F;}
</style>
<g>
	<path class="st0" d="M485.6,295.2c-5,5-5,13.2,0,18.2c5,5,13.2,5,18.2,0c14.3-14.3,37.6-14.3,51.9,0c2.5,2.5,5.8,3.8,9.1,3.8
		c3.3,0,6.6-1.3,9.1-3.8c5-5,5-13.2,0-18.2C549.6,270.9,510,270.9,485.6,295.2z"/>
	<path class="st0" d="M359.9,295.5c-5,5-5,13.2,0,18.2c5,5,13.2,5,18.2,0c15.1-15.1,39.7-15.1,54.8,0c2.5,2.5,5.8,3.8,9.1,3.8
		c3.3,0,6.6-1.3,9.1-3.8c5-5,5-13.2,0-18.2C425.9,270.4,385,270.4,359.9,295.5z"/>
	<path class="st0" d="M667.6,273.7l10.1-28.6c1.1-3.1,1.9-6.3,2.3-9.5c1-0.9,2.1-1.8,3.2-2.6c4.2-3.1,9-5.7,14-8.1
		c6.4,29.7,32.8,52,64.4,52c36.3,0,65.9-29.6,65.9-65.9c0-36.2-29.3-65.6-65.4-65.9c-1.2-7.8-3.8-15.6-7.7-22.9
		c-8.4-15.6-22.6-29.3-42.2-40.5c-39.5-22.8-84.3-28.7-130.5-33.3c-37.1-3.6-73.4-6.3-109.4,1.1c-33.4,6.9-71.5,30.9-102,64.2
		c-5.2,5.2-9.4,11.7-12,19l-10.1,28.6c-3,8.6-1.9,18,3.1,25.6c0.2,0.2,0.3,0.5,0.5,0.7c-43.2,35-68.5,87.5-68.5,143.7
		c0,33.9,9,66.4,26.2,95c-9.7,5.7-16.3,16.3-16.3,28.4v36.9c0,2.3,0.2,4.6,0.7,6.8c-28.3,23.7-51.8,53.2-68.4,86
		c-19.4,38.2-29.2,79.5-29.2,122.7c0,150,122.1,272.1,272.1,272.1c150,0,272.1-122.1,272.1-272.1c0-43.2-9.8-84.4-29.2-122.7
		c-16.6-32.8-40.1-62.3-68.4-86c0.5-2.2,0.7-4.5,0.7-6.8v-36.9c0-12.1-6.6-22.7-16.3-28.4c17.2-28.6,26.2-61.1,26.2-95
		c0-13.4-1.5-26.7-4.3-39.6C658,288.8,664.6,282.3,667.6,273.7z M738.3,203.5c0.5-0.4,1.1-0.8,1.6-1.2c0.3-0.2,0.6-0.5,0.9-0.8
		c0.5-0.4,1-0.8,1.4-1.2c0.3-0.3,0.6-0.6,1-0.9c0.4-0.4,0.9-0.8,1.3-1.2c0.3-0.3,0.6-0.6,1-0.9c0.4-0.4,0.9-0.9,1.3-1.3
		c0.3-0.3,0.6-0.7,0.9-1c0.4-0.5,0.8-0.9,1.2-1.4c0.3-0.3,0.6-0.7,0.9-1c0.4-0.5,0.8-1,1.2-1.5c0.3-0.3,0.5-0.7,0.8-1
		c0.4-0.6,0.8-1.2,1.3-1.8c0.2-0.3,0.4-0.6,0.6-0.9c0.6-0.9,1.2-1.8,1.7-2.8c0.6-1.1,1.2-2.2,1.8-3.4c0.1-0.3,0.2-0.5,0.3-0.8
		c0.4-0.9,0.8-1.8,1.2-2.7c0.1-0.3,0.2-0.7,0.4-1c0.3-0.8,0.6-1.7,0.9-2.6c0.2-0.5,0.3-1,0.4-1.5c0.2-0.6,0.4-1.2,0.5-1.8
		c0.2,0,0.4,0,0.6,0c22.1,0,40.1,18,40.1,40.1c0,22.1-18,40.2-40.1,40.2c-21.3,0-38.7-16.6-40.1-37.5c0.2-0.1,0.4-0.2,0.5-0.3
		c0.3-0.2,0.6-0.3,0.9-0.5c0.5-0.2,0.9-0.5,1.4-0.7c0.3-0.2,0.6-0.3,1-0.5c0.5-0.3,0.9-0.5,1.4-0.8c0.3-0.2,0.6-0.4,1-0.6
		c0.5-0.3,1-0.6,1.5-0.9c0.3-0.2,0.6-0.4,0.9-0.6c0.5-0.3,1.1-0.7,1.7-1c0.3-0.2,0.5-0.3,0.8-0.5c0.8-0.5,1.6-1.1,2.4-1.6
		c0.1,0,0.1-0.1,0.2-0.2c0.7-0.5,1.5-1,2.2-1.6C737.7,203.9,738,203.7,738.3,203.5z M628.2,519.5c55.3,47,86.7,114.6,86.7,187.6
		c0,135.8-110.5,246.4-246.4,246.4c-135.8,0-246.4-110.5-246.4-246.4c0-73,31.4-140.6,86.7-187.6c5,3.1,11,5,17.4,5h6.4h161.5v138.7
		c0,21.7,17.6,39.3,39.3,39.3h24.1c21.7,0,39.3-17.6,39.3-39.3V524.5h7.7h6.4C617.2,524.5,623.2,522.7,628.2,519.5z M332.6,498.7
		c-4.3,0-8.3-2-10.8-5.5c-0.8-1-1.7-1.9-2.7-2.7v-35.9c0-3.9,3.2-7.2,7.2-7.2h4.5h275.6h4.5c3.9,0,7.2,3.2,7.2,7.2v35.9
		c-1,0.7-1.9,1.6-2.7,2.7c-2.6,3.5-6.5,5.5-10.8,5.5H332.6z M571.1,524.5v138.7c0,7.5-6.1,13.5-13.5,13.5h-24.1
		c-7.5,0-13.5-6.1-13.5-13.5V524.5H571.1z M599.7,421.8H337.4c-18.4-26.7-28.2-57.8-28.2-90.5c0-52.4,25.5-101,68.4-130.8
		c0.8,0.1,1.6,0.1,2.4,0.2c1.3,0.1,2.7,0.3,4,0.4c1.5,0.1,3,0.3,4.4,0.5c1.3,0.1,2.7,0.3,4,0.5c1.5,0.2,3,0.4,4.4,0.5
		c1.3,0.2,2.6,0.3,4,0.5c1.5,0.2,3,0.4,4.4,0.6c1.3,0.2,2.6,0.4,4,0.6c1.5,0.2,2.9,0.5,4.4,0.7c1.3,0.2,2.7,0.4,4,0.6
		c1.5,0.2,2.9,0.5,4.4,0.8c1.3,0.2,2.6,0.5,4,0.7c1.5,0.3,2.9,0.5,4.4,0.8c1.3,0.3,2.6,0.5,4,0.8c1.5,0.3,2.9,0.6,4.3,0.9
		c1.3,0.3,2.6,0.5,4,0.8c1.4,0.3,2.9,0.6,4.3,1c1.3,0.3,2.6,0.6,3.9,0.9c1.4,0.3,2.9,0.7,4.3,1c1.3,0.3,2.6,0.6,3.9,1
		c1.4,0.4,2.9,0.7,4.3,1.1c1.3,0.3,2.6,0.7,3.9,1c1.5,0.4,2.9,0.8,4.4,1.2c1.3,0.4,2.5,0.7,3.8,1.1c1.5,0.4,2.9,0.9,4.4,1.3
		c1.2,0.4,2.5,0.7,3.7,1.1c1.5,0.5,3.1,1,4.6,1.4c1.2,0.4,2.3,0.7,3.5,1.1c1.7,0.5,3.4,1.1,5.1,1.7c1,0.3,2,0.6,3,1
		c2.7,0.9,5.3,1.8,8,2.8c2.5,0.9,5.1,1.8,7.6,2.8c1,0.4,1.9,0.7,2.8,1.1c1.6,0.6,3.1,1.2,4.7,1.8c1.1,0.4,2.2,0.9,3.3,1.3
		c1.4,0.6,2.8,1.1,4.2,1.7c1.2,0.5,2.3,1,3.5,1.5c1.3,0.6,2.6,1.1,4,1.7c1.2,0.5,2.4,1,3.5,1.6c1.3,0.6,2.6,1.1,3.9,1.7
		c1.2,0.5,2.4,1.1,3.6,1.6c1.3,0.6,2.5,1.1,3.8,1.7c1.2,0.6,2.4,1.1,3.6,1.7c1.2,0.6,2.5,1.2,3.7,1.8c1.2,0.6,2.4,1.2,3.6,1.8
		c1.2,0.6,2.4,1.2,3.6,1.8c1.2,0.6,2.4,1.2,3.6,1.9c1.2,0.6,2.4,1.2,3.6,1.9c1.2,0.6,2.4,1.3,3.6,1.9c1.2,0.6,2.4,1.3,3.5,1.9
		c1.2,0.7,2.4,1.3,3.6,2c1.2,0.6,2.3,1.3,3.5,2c1.2,0.7,2.4,1.4,3.6,2c1.1,0.7,2.3,1.3,3.4,2c1.2,0.7,2.4,1.4,3.5,2.1
		c1.1,0.7,2.3,1.4,3.4,2.1c1.2,0.7,2.3,1.4,3.5,2.2c1.1,0.7,2.3,1.4,3.4,2.1c1.2,0.7,2.3,1.5,3.5,2.2c1.1,0.7,2.2,1.4,3.3,2.1
		c1.2,0.8,2.3,1.5,3.4,2.3c0.8,0.5,1.5,1,2.3,1.5c4.2,14.4,6.3,29.4,6.3,44.6C627.9,364,618.2,395.2,599.7,421.8z M653.4,236.6
		l-10.1,28.6c-0.5,1.3-1.4,1.9-2.2,2.1c-0.6,0.2-1.8,0.4-3-0.4c0,0-0.1,0-0.1-0.1c-8.7-5.9-17.5-11.5-26.4-16.8
		c-20.3-12.1-41.4-23-63.1-32.4c-1-0.4-2.1-0.9-3.1-1.3c-2.3-1-4.5-1.9-6.8-2.8c-4.4-1.8-8.9-3.6-13.3-5.3c-3-1.1-6-2.3-9.1-3.4
		c-2.8-1-5.7-2-8.5-3c-1.2-0.4-2.4-0.8-3.6-1.2c-1.6-0.5-3.3-1.1-4.9-1.6c-1.2-0.4-2.5-0.8-3.7-1.2c-1.6-0.5-3.3-1-4.9-1.5
		c-1.2-0.4-2.4-0.7-3.6-1.1c-1.7-0.5-3.4-1-5.1-1.5c-1.1-0.3-2.2-0.6-3.4-0.9c-1.8-0.5-3.5-1-5.3-1.5c-1.1-0.3-2.1-0.6-3.2-0.8
		c-1.8-0.5-3.7-1-5.5-1.4c-1.1-0.3-2.2-0.5-3.3-0.8c-1.8-0.4-3.6-0.9-5.4-1.3c-1.1-0.3-2.3-0.5-3.4-0.8c-1.8-0.4-3.6-0.8-5.4-1.2
		c-1.1-0.2-2.3-0.5-3.4-0.7c-1.8-0.4-3.6-0.8-5.4-1.1c-1.1-0.2-2.3-0.4-3.4-0.7c-1.8-0.3-3.6-0.7-5.4-1c-1.2-0.2-2.4-0.4-3.6-0.6
		c-1.8-0.3-3.5-0.6-5.3-0.9c-1.3-0.2-2.6-0.4-3.8-0.6c-1.7-0.3-3.4-0.5-5.1-0.8c-1.3-0.2-2.7-0.4-4-0.6c-1.6-0.2-3.3-0.5-4.9-0.7
		c-1.4-0.2-2.8-0.3-4.2-0.5c-1.6-0.2-3.2-0.4-4.7-0.6c-1.5-0.2-2.9-0.3-4.4-0.5c-1.5-0.2-3-0.3-4.5-0.5c-1.5-0.2-3.1-0.3-4.6-0.4
		c-1.4-0.1-2.8-0.3-4.2-0.4c-0.2,0-0.3,0-0.5-0.1c0,0,0,0-0.1,0c-1.3-0.2-2.1-0.9-2.5-1.5c-0.3-0.5-0.9-1.6-0.4-3l10.1-28.6
		c3.5-10,13-16.6,23.4-16.6c0.7,0,1.5,0,2.2,0.1c43.1,3.9,85.6,13.3,126.3,27.9c38.4,13.8,75.1,32.3,109.1,55
		C653.2,214,657.2,225.9,653.4,236.6z M543.4,128.5c-38.7-13.9-78.9-23.3-119.8-28c18.1-13.1,36.9-22.2,54-25.7
		c32.5-6.7,66.7-4.2,101.7-0.7c43.3,4.2,85.1,9.7,120.1,30c15.4,8.9,26.2,19.1,32.3,30.4c4.2,7.7,5.9,16.2,5.3,24
		c0,0.3-0.1,0.7-0.1,1c0,0.4-0.1,0.8-0.2,1.3c0,0.3-0.1,0.5-0.1,0.7c-0.1,0.6-0.2,1.1-0.3,1.7c0,0.1,0,0.2-0.1,0.4
		c-0.3,1.4-0.7,2.8-1.2,4.1c0,0.1-0.1,0.2-0.1,0.4c-0.2,0.5-0.4,1-0.7,1.5c-0.1,0.2-0.1,0.3-0.2,0.5c-0.3,0.6-0.6,1.2-0.9,1.8
		c-5.7,9.9-17.7,16.4-26.2,20.5c-3.1,1.5-6.3,2.9-9.6,4.3c-7.1,3.2-14.4,6.4-21.5,10.6c-3.8-8.3-9.9-15.5-17.8-20.9
		C622.3,162.4,583.8,143,543.4,128.5z"/>
</g>
</svg>
