<?xml version="1.0" encoding="utf-8"?>
<!-- Generator: Adobe Illustrator 25.0.1, SVG Export Plug-In . SVG Version: 6.00 Build 0)  -->
<svg version="1.1" id="Layer_1" xmlns="http://www.w3.org/2000/svg" xmlns:xlink="http://www.w3.org/1999/xlink" x="0px" y="0px"
	 viewBox="0 0 1024 1024" style="enable-background:new 0 0 1024 1024;" xml:space="preserve">
<style type="text/css">
	.st0{fill:#25333F;}
</style>
<g>
	<g>
		<path class="st0" d="M351.9,353.9c0-5.1-4.2-9.3-9.3-9.3h-39.4v-42.2c0-5.1-4.2-9.3-9.3-9.3c-5.1,0-9.3,4.2-9.3,9.3v42.2h-39.4
			c-5.1,0-9.3,4.2-9.3,9.3V713c0,5.1,4.2,9.3,9.3,9.3h97.3c5.1,0,9.3-4.2,9.3-9.3V353.9z M333.4,703.7h-78.7V363.2h78.7V703.7z"/>
		<path class="st0" d="M302.2,161.3c-1.6-3-4.8-4.9-8.2-4.9c-3.4,0-6.6,1.9-8.2,4.9c-5.1,9.6-50.2,94.6-50.2,127.8
			c0,12.9,3.2,25.3,9.2,36.1c2.5,4.5,8.2,6.1,12.6,3.5c4.5-2.5,6.1-8.2,3.5-12.6c-4.5-8-6.9-17.4-6.9-27
			c0-20.1,24.1-72.1,39.9-103.3c15.8,31.2,39.9,83.1,39.9,103.3c0,9.7-2.4,19-6.9,27c-2.5,4.5-0.9,10.1,3.5,12.6
			c1.4,0.8,3,1.2,4.5,1.2c3.2,0,6.4-1.7,8.1-4.7c6.1-10.8,9.3-23.3,9.3-36.1C352.4,255.9,307.3,170.9,302.2,161.3z"/>
	</g>
	<g>
		<path class="st0" d="M569.9,608.2c0-5.1-4.2-9.3-9.3-9.3h-39.4v-42.2c0-5.1-4.2-9.3-9.3-9.3c-5.1,0-9.3,4.2-9.3,9.3v42.2h-39.4
			c-5.1,0-9.3,4.2-9.3,9.3v359.1c0,5.1,4.2,9.3,9.3,9.3h97.3c5.1,0,9.3-4.2,9.3-9.3V608.2z M551.4,958h-78.7V617.5h78.7V958z"/>
		<path class="st0" d="M520.2,415.6c-1.6-3-4.8-4.9-8.2-4.9c-3.4,0-6.6,1.9-8.2,4.9c-5.1,9.6-50.2,94.6-50.2,127.8
			c0,12.9,3.2,25.3,9.2,36.1c2.5,4.5,8.2,6.1,12.6,3.5c4.5-2.5,6.1-8.2,3.5-12.6c-4.5-8-6.9-17.4-6.9-27
			c0-20.1,24.1-72.1,39.9-103.3c15.8,31.2,39.9,83.1,39.9,103.3c0,9.7-2.4,19-6.9,27c-2.5,4.5-0.9,10.1,3.5,12.6
			c1.4,0.8,3,1.2,4.5,1.2c3.2,0,6.4-1.7,8.1-4.7c6.1-10.8,9.3-23.3,9.3-36.1C570.4,510.2,525.3,425.2,520.2,415.6z"/>
	</g>
	<g>
		<path class="st0" d="M787.9,244.9c0-5.1-4.2-9.3-9.3-9.3h-39.4v-42.2c0-5.1-4.2-9.3-9.3-9.3c-5.1,0-9.3,4.2-9.3,9.3v42.2h-39.4
			c-5.1,0-9.3,4.2-9.3,9.3V604c0,5.1,4.2,9.3,9.3,9.3h97.3c5.1,0,9.3-4.2,9.3-9.3V244.9z M769.3,594.8h-78.7V254.2h78.7V594.8z"/>
		<path class="st0" d="M738.2,52.3c-1.6-3-4.8-4.9-8.2-4.9c-3.4,0-6.6,1.9-8.2,4.9c-5.1,9.6-50.2,94.6-50.2,127.8
			c0,12.9,3.2,25.3,9.2,36.1c2.5,4.5,8.2,6.1,12.6,3.5c4.5-2.5,6.1-8.2,3.5-12.6c-4.5-8-6.9-17.4-6.9-27
			c0-20.1,24.1-72.1,39.9-103.3c15.8,31.2,39.9,83.1,39.9,103.3c0,9.7-2.4,19-6.9,27c-2.5,4.5-0.9,10.1,3.5,12.6
			c1.4,0.8,3,1.2,4.5,1.2c3.2,0,6.4-1.7,8.1-4.7c6.1-10.8,9.3-23.3,9.3-36.1C788.4,146.9,743.3,61.9,738.2,52.3z"/>
	</g>
</g>
</svg>
