<?xml version="1.0" encoding="utf-8"?>
<!-- Generator: Adobe Illustrator 26.0.1, SVG Export Plug-In . SVG Version: 6.00 Build 0)  -->
<svg version="1.1" id="Layer_1" xmlns="http://www.w3.org/2000/svg" xmlns:xlink="http://www.w3.org/1999/xlink" x="0px" y="0px"
	 viewBox="0 0 1024 1024" style="enable-background:new 0 0 1024 1024;" xml:space="preserve">
<style type="text/css">
	.st0{fill:#25333F;}
</style>
<path class="st0" d="M854.9,840.9H733c-13.7,0-24.9-3.2-33.7-9.5c-8.8-6.3-15-14.5-18.4-24.4l-40-118.2H383.1l-40,118.2
	c-3.1,8.7-9.2,16.5-18.1,23.5c-9,7-20,10.5-33,10.5H169.1l262.4-677.9h161L854.9,840.9z M419.4,581.8h185.2l-62.3-185.6
	c-4-11.8-8.8-25.7-14.2-41.6c-5.4-16-10.8-33.3-16-51.9c-5,18.9-10.1,36.4-15.3,52.6c-5.3,16.1-10.2,30.1-14.9,41.9L419.4,581.8z"/>
</svg>
