<?xml version="1.0" encoding="utf-8"?>
<!-- Generator: Adobe Illustrator 26.0.1, SVG Export Plug-In . SVG Version: 6.00 Build 0)  -->
<svg version="1.1" id="Layer_1" xmlns="http://www.w3.org/2000/svg" xmlns:xlink="http://www.w3.org/1999/xlink" x="0px" y="0px"
	 viewBox="0 0 1024 1024" style="enable-background:new 0 0 1024 1024;" xml:space="preserve">
<style type="text/css">
	.st0{fill:#25333F;}
</style>
<path class="st0" d="M549.2,848.4c-23,0-43.2-3.3-60.7-10s-32.3-16.1-44.2-28.4c-11.9-12.3-21-27.1-27.2-44.4
	c-6.2-17.4-9.3-36.8-9.3-58.2V458h-40.9c-7.4,0-13.8-2.4-19.1-7.2c-5.3-4.8-7.9-11.9-7.9-21.2v-56.3l76.8-14.9L445,240.8
	c3.7-14.9,14.3-22.3,31.6-22.3H552v141h117.2V458H552v239.6c0,11.2,2.7,20.4,8.1,27.7c5.4,7.3,13.3,10.9,23.5,10.9
	c5.3,0,9.7-0.5,13.3-1.6c3.6-1.1,6.7-2.3,9.3-3.7c2.6-1.4,5.1-2.6,7.4-3.7s5-1.6,8.1-1.6c4.3,0,7.8,1,10.5,3c2.6,2,5.4,5.2,8.1,9.5
	l43.7,68.4c-18.6,14-39.5,24.4-62.8,31.4C598.1,844.9,574,848.4,549.2,848.4z"/>
</svg>
