<?xml version="1.0" encoding="utf-8"?>
<!-- Generator: Adobe Illustrator 26.0.1, SVG Export Plug-In . SVG Version: 6.00 Build 0)  -->
<svg version="1.1" id="Layer_1" xmlns="http://www.w3.org/2000/svg" xmlns:xlink="http://www.w3.org/1999/xlink" x="0px" y="0px"
	 viewBox="0 0 1024 1024" style="enable-background:new 0 0 1024 1024;" xml:space="preserve">
<style type="text/css">
	.st0{fill:#25333F;}
</style>
<path class="st0" d="M293.3,840.9V358.5h89.3c9,0,16.5,2,22.6,6c6,4,10.3,10.1,12.8,18.1l8.4,27.9c9.3-8.7,18.9-16.8,28.8-24.2
	c9.9-7.4,20.5-13.7,31.9-18.8c11.3-5.1,23.6-9.1,36.8-12.1c13.2-2.9,27.5-4.4,43-4.4c26.4,0,49.7,4.6,70,13.7
	c20.3,9.1,37.4,21.9,51.4,38.1c14,16.3,24.5,35.7,31.6,58.2c7.1,22.5,10.7,46.9,10.7,73.3v306.6H586.4V534.3
	c0-23.6-5.4-41.9-16.3-55.1c-10.9-13.2-26.8-19.8-47.9-19.8c-15.8,0-30.7,3.4-44.7,10.2c-14,6.8-27.3,16-40,27.5v343.8H293.3z"/>
</svg>
