<?xml version="1.0" encoding="utf-8"?>
<!-- Generator: Adobe Illustrator 26.0.1, SVG Export Plug-In . SVG Version: 6.00 Build 0)  -->
<svg version="1.1" id="Layer_1" xmlns="http://www.w3.org/2000/svg" xmlns:xlink="http://www.w3.org/1999/xlink" x="0px" y="0px"
	 viewBox="0 0 1024 1024" style="enable-background:new 0 0 1024 1024;" xml:space="preserve">
<style type="text/css">
	.st0{fill:#25333F;}
</style>
<path class="st0" d="M701.4,300.8c-4.7,7.5-9.5,13-14.7,16.8c-5.1,3.7-11.7,5.6-19.8,5.6c-7.1,0-14.8-2.3-23-6.8
	c-8.2-4.5-17.5-9.5-27.9-15.1c-10.4-5.6-22.3-10.6-35.6-15.1c-13.3-4.5-28.5-6.7-45.6-6.7c-29.5,0-51.4,6.3-65.8,18.8
	c-14.4,12.6-21.6,29.5-21.6,50.9c0,13.7,4.3,25,13,34c8.7,9,20.1,16.7,34.2,23.3c14.1,6.5,30.2,12.5,48.4,17.9
	c18.1,5.4,36.7,11.5,55.6,18.1c18.9,6.7,37.5,14.5,55.6,23.5c18.2,9,34.3,20.5,48.4,34.4c14.1,14,25.5,30.9,34.2,50.9
	c8.7,20,13,44.1,13,72.3c0,31.3-5.4,60.6-16.3,87.9c-10.9,27.3-26.6,51.1-47.2,71.4c-20.6,20.3-46.1,36.3-76.3,47.9
	c-30.2,11.6-64.6,17.4-103.1,17.4c-21.1,0-42.6-2.2-64.4-6.5c-21.9-4.3-43-10.5-63.5-18.4c-20.5-7.9-39.7-17.3-57.7-28.1
	c-18-10.9-33.7-23-47-36.3l46.5-73.5c3.4-5.6,8.2-10.1,14.4-13.5c6.2-3.4,12.9-5.1,20-5.1c9.3,0,18.7,3,28.1,8.8
	c9.4,5.9,20.2,12.4,32.1,19.5c11.9,7.1,25.6,13.7,41.2,19.5c15.5,5.9,33.8,8.8,54.9,8.8c28.5,0,50.7-6.3,66.5-18.8
	c15.8-12.6,23.7-32.5,23.7-59.8c0-15.8-4.3-28.7-13-38.6c-8.7-9.9-20.1-18.1-34.2-24.7c-14.1-6.5-30.2-12.3-48.1-17.2
	c-18-5-36.4-10.5-55.4-16.5c-18.9-6-37.4-13.5-55.4-22.3c-18-8.8-34.1-20.5-48.1-34.9c-14.1-14.4-25.5-32.4-34.2-54
	c-8.7-21.6-13-48.2-13-79.8c0-25.4,5.1-50.2,15.3-74.4c10.2-24.2,25.3-45.8,45.1-64.7s44.2-34,73-45.4c28.8-11.3,61.9-17,99.1-17
	c20.8,0,41,1.6,60.7,4.9c19.7,3.3,38.4,8.1,56.1,14.4c17.7,6.4,34.2,14,49.6,22.8c15.3,8.8,29.1,18.8,41.2,30L701.4,300.8z"/>
</svg>
