<?xml version="1.0" encoding="utf-8"?>
<!-- Generator: Adobe Illustrator 26.0.1, SVG Export Plug-In . SVG Version: 6.00 Build 0)  -->
<svg version="1.1" id="Layer_1" xmlns="http://www.w3.org/2000/svg" xmlns:xlink="http://www.w3.org/1999/xlink" x="0px" y="0px"
	 viewBox="0 0 1024 1024" style="enable-background:new 0 0 1024 1024;" xml:space="preserve">
<style type="text/css">
	.st0{fill:#25333F;}
</style>
<path class="st0" d="M657.2,840.9c-13.7,0-24-1.9-30.9-5.6c-7-3.7-12.8-11.5-17.5-23.3l-10.2-26.5c-12.1,10.2-23.7,19.2-34.9,27
	c-11.2,7.8-22.7,14.3-34.7,19.8c-11.9,5.4-24.7,9.5-38.2,12.1c-13.5,2.6-28.5,4-44.9,4c-22,0-42-2.9-60-8.6
	c-18-5.8-33.3-14.2-45.8-25.4c-12.6-11.2-22.3-25.1-29.1-41.8c-6.8-16.6-10.2-35.9-10.2-57.6c0-17.1,4.3-34.7,13-52.7
	c8.7-18,23.7-34.5,45.1-49.2c21.4-14.8,50.2-27.1,86.5-37.1s82-14.9,137.2-14.9v-20.7c0-28.5-5.8-49.1-17.4-61.7
	c-11.6-12.7-28.1-19-49.6-19c-17.1,0-31,1.9-41.9,5.6c-10.9,3.7-20.6,7.9-29.1,12.6c-8.5,4.7-16.8,8.8-24.9,12.6
	c-8.1,3.7-17.7,5.6-28.8,5.6c-9.9,0-18.4-2.4-25.4-7.2c-7-4.8-12.5-10.8-16.5-17.9l-26.1-45.1c29.2-25.7,61.5-44.9,97-57.5
	c35.5-12.6,73.6-18.8,114.2-18.8c29.1,0,55.4,4.7,78.8,14.2s43.3,22.6,59.6,39.5c16.3,16.9,28.8,37,37.4,60.2
	c8.7,23.3,13,48.7,13,76.3v301.5H657.2z M491.5,753c18.6,0,34.9-3.3,48.9-9.8c14-6.5,28.1-17.1,42.3-31.6v-66.1
	c-28.8,0-52.6,1.9-71.2,5.6c-18.6,3.7-33.3,8.4-44.2,14.1c-10.9,5.6-18.4,12-22.6,19.2c-4.2,7.2-6.3,15-6.3,23.5
	c0,16.6,4.5,28.2,13.5,35C461,749.6,474.2,753,491.5,753z"/>
</svg>
