<?xml version="1.0" encoding="utf-8"?>
<!-- Generator: Adobe Illustrator 26.0.1, SVG Export Plug-In . SVG Version: 6.00 Build 0)  -->
<svg version="1.1" id="Layer_1" xmlns="http://www.w3.org/2000/svg" xmlns:xlink="http://www.w3.org/1999/xlink" x="0px" y="0px"
	 viewBox="0 0 1024 1024" style="enable-background:new 0 0 1024 1024;" xml:space="preserve">
<style type="text/css">
	.st0{fill:#FFFFFF;}
</style>
<g>
	<path class="st0" d="M298.7,262.3c-1.8,5.3-3.4,10.7-4.8,16.3c-8.8,33.9-9.2,64.2-9.3,77.1c-0.2,18,1.3,36,4.6,53.8
		c0.1,4.3,0.7,8.6,1.9,12.8l-23.5,206.1c-0.4,1-0.6,2-0.7,3.1c-0.1,0.8,0,1.7,0.1,2.5l-14.3,125.2c-3.8,33.6,12.4,66.7,41.4,84.3
		l120.3,72.9c32.7,19.8,69.3,29.7,106,29.7c36.7,0,73.3-9.9,106-29.7l120.3-72.9c29-17.5,45.2-50.6,41.4-84.3L773.6,634
		c0.1-0.8,0.1-1.6,0.1-2.5c-0.1-1.1-0.3-2.1-0.7-3.1L749.6,424c1.5-5.1,2.3-10.4,2.4-15.6c4.4-17.9,5.9-35.8,4.5-53.4
		c-3.9-50.4-31.8-100.5-78.6-141c-43.6-37.7-100.4-63.8-155.7-71.5c-19.1-2.7-58.9-8.2-101.3,2.4C408.8,105.3,372.1,78,330.3,78
		c-52.3,0-94.9,42.6-94.9,94.9C235.5,213.2,260.8,248.9,298.7,262.3z M313.8,440.6c5.2-3.2,7.3-9.7,5-15.3c0.2-1.9,0-3.8-0.7-5.6
		c-0.2-0.5-0.3-1-0.5-1.4l6.7-1.6l9.7,164.4c0.1,1.5,0.4,2.9,1,4.1L294.6,609L313.8,440.6z M360.3,598.8l13.5-8l0,0l41.3-24.5
		c20-11.8,44.7-13.7,66.2-5.1c12.2,4.9,24.7,7.4,37.1,7.4h3.5c12.4,0,24.9-2.5,37.1-7.4c21.5-8.7,46.3-6.8,66.2,5.1l41.3,24.5v0
		l72.8,43.1c-1.3,1-2.7,1.9-4.1,2.8c-0.3,0.2-0.6,0.4-0.8,0.6c-1.2,0.8-2.3,1.5-3.5,2.3c-0.4,0.3-0.9,0.6-1.3,0.8
		c-1,0.7-2.1,1.3-3.2,2c-0.5,0.3-0.9,0.6-1.4,0.8c-1.2,0.7-2.4,1.4-3.6,2.1c-0.3,0.2-0.6,0.4-0.9,0.5c-1.5,0.9-3,1.7-4.6,2.5
		c-0.3,0.1-0.5,0.3-0.8,0.4c-1.3,0.7-2.5,1.3-3.8,2c-0.5,0.2-1,0.5-1.4,0.7c-1.1,0.5-2.2,1.1-3.3,1.6c-0.5,0.2-1,0.5-1.5,0.7
		c-1.2,0.5-2.3,1.1-3.5,1.6c-0.4,0.2-0.8,0.4-1.2,0.5c-1.6,0.7-3.2,1.4-4.8,2c-0.2,0.1-0.4,0.1-0.5,0.2c-1.4,0.6-2.8,1.1-4.3,1.6
		c-0.5,0.2-1,0.4-1.5,0.6c-1.1,0.4-2.2,0.8-3.4,1.2c-0.6,0.2-1.1,0.4-1.7,0.6c-1.1,0.4-2.3,0.8-3.4,1.1c-0.5,0.2-1,0.3-1.5,0.5
		c-1.6,0.5-3.3,1-4.9,1.4c-18.3,5.1-37.2,7.7-56.3,7.6c-2.3,0-4.5-0.1-6.8-0.1c-0.5,0-0.9,0-1.4,0c-8.9-0.4-17.3-3.2-24.5-8
		c-5.6-3.7-10.4-8.6-14.1-14.5c-0.3-0.4-0.6-0.8-0.9-1.2l-37.2-46.1c-2-2.8-5.1-4.7-8.6-5.1c-0.5-0.1-1-0.1-1.5-0.1h-5.9
		c-4,0-7.8,1.9-10.1,5.2l-37.2,46c-0.3,0.4-0.6,0.8-0.9,1.2c-8.4,13.4-22.8,21.8-38.6,22.5c-21.9,0.9-43.6-1.6-64.5-7.5
		c-1.6-0.5-3.3-0.9-4.9-1.4c-0.5-0.2-1-0.3-1.5-0.5c-1.1-0.4-2.3-0.7-3.4-1.1c-0.6-0.2-1.1-0.4-1.7-0.6c-1.1-0.4-2.2-0.8-3.4-1.2
		c-0.5-0.2-1-0.4-1.5-0.6c-1.4-0.5-2.8-1.1-4.2-1.6c-0.2-0.1-0.4-0.1-0.5-0.2c-1.6-0.6-3.2-1.3-4.8-2c-0.4-0.2-0.8-0.4-1.3-0.6
		c-1.2-0.5-2.3-1-3.5-1.6c-0.5-0.2-1-0.5-1.6-0.7c-1.1-0.5-2.2-1-3.3-1.6c-0.5-0.2-1-0.5-1.5-0.7c-1.3-0.6-2.5-1.3-3.8-1.9
		c-0.3-0.1-0.5-0.3-0.8-0.4c-1.5-0.8-3.1-1.7-4.6-2.5c-0.3-0.2-0.7-0.4-1-0.6c-1.2-0.7-2.3-1.4-3.5-2c-0.5-0.3-0.9-0.6-1.4-0.9
		c-1-0.6-2.1-1.3-3.1-1.9c-0.5-0.3-0.9-0.6-1.4-0.9c-1.1-0.7-2.3-1.5-3.4-2.3c-0.3-0.2-0.6-0.4-0.9-0.6c-1.4-0.9-2.7-1.9-4.1-2.8
		L360.3,598.8z M750.1,656.7c0.3-0.2,0.7-0.5,1-0.7l12.1,106c2.7,24.1-8.9,47.7-29.6,60.3l-120.3,72.9
		c-57.5,34.8-128.9,34.8-186.3,0l-120.3-72.9c-20.7-12.6-32.3-36.2-29.6-60.3l12.1-106c0.3,0.2,0.7,0.5,1,0.7
		c0.6,0.4,1.2,0.8,1.7,1.2c1.1,0.7,2.2,1.4,3.2,2.1c0.5,0.3,1,0.7,1.6,1c1.6,1,3.2,2,4.7,3c0.3,0.2,0.6,0.3,0.8,0.5
		c1.4,0.8,2.7,1.6,4.1,2.4c0.6,0.3,1.1,0.6,1.7,0.9c1.1,0.6,2.3,1.3,3.4,1.9c0.6,0.3,1.1,0.6,1.7,0.9c1.4,0.7,2.8,1.5,4.2,2.2
		c0.3,0.1,0.6,0.3,0.9,0.4c1.7,0.8,3.4,1.7,5.1,2.5c0.5,0.2,1,0.5,1.5,0.7c1.2,0.6,2.5,1.1,3.8,1.7c0.6,0.3,1.2,0.5,1.8,0.8
		c1.3,0.6,2.6,1.1,3.9,1.6c0.5,0.2,0.9,0.4,1.4,0.6c1.8,0.7,3.5,1.4,5.3,2c0.4,0.1,0.7,0.3,1.1,0.4c1.4,0.5,2.9,1,4.3,1.5
		c0.6,0.2,1.2,0.4,1.7,0.6c1.3,0.4,2.6,0.9,3.9,1.3c0.5,0.2,1.1,0.3,1.6,0.5c1.8,0.6,3.6,1.1,5.4,1.6c23.4,6.6,47.7,9.4,72.2,8.4
		c1.5-0.1,3-0.2,4.4-0.3c22-2.3,41.8-14.4,53.7-33.1l30.6-37.8l30.6,37.8c3.2,5,6.9,9.5,11.1,13.5c9.2,8.7,20.5,14.9,32.8,17.9
		c0.6,0.1,1.2,0.3,1.8,0.4c2.6,0.6,5.3,1,8,1.3c1.5,0.2,2.9,0.3,4.4,0.3c1.6,0.1,3.2,0.1,4.8,0.1c0.4,0,0.8,0,1.1,0
		c1.2,0,2.4,0,3.6,0c0.1,0,0.1,0,0.1,0c0.2,0,0.3,0,0.4,0c2.4,0,4.8,0,7.2-0.1c0.2,0,0.4,0,0.5,0c2.4-0.1,4.8-0.2,7.2-0.4
		c0.4,0,0.7,0,1.1-0.1c2.3-0.2,4.7-0.4,7-0.6c0.3,0,0.7-0.1,1-0.1c2.4-0.3,4.8-0.5,7.2-0.9c0.1,0,0.1,0,0.2,0
		c2.4-0.3,4.8-0.7,7.1-1.1c0.3,0,0.5-0.1,0.8-0.1c2.3-0.4,4.6-0.8,6.9-1.3c0.4-0.1,0.8-0.2,1.2-0.3c2.3-0.5,4.5-1,6.7-1.5
		c0.3-0.1,0.7-0.2,1-0.3c2.3-0.6,4.7-1.2,7-1.8c1.8-0.5,3.6-1.1,5.4-1.6c0.6-0.2,1.1-0.3,1.7-0.5c1.3-0.4,2.6-0.8,3.9-1.3
		c0.6-0.2,1.2-0.4,1.8-0.6c1.4-0.5,2.8-1,4.2-1.5c0.4-0.1,0.8-0.3,1.2-0.4c1.8-0.7,3.5-1.3,5.3-2c0.5-0.2,1-0.4,1.4-0.6
		c1.3-0.5,2.6-1.1,3.9-1.6c0.6-0.3,1.2-0.5,1.8-0.8c1.2-0.5,2.5-1.1,3.7-1.7c0.5-0.2,1.1-0.5,1.6-0.7c1.7-0.8,3.4-1.6,5.1-2.4
		c0.3-0.2,0.6-0.3,1-0.5c1.4-0.7,2.8-1.4,4.1-2.1c0.6-0.3,1.2-0.6,1.7-0.9c1.1-0.6,2.3-1.2,3.4-1.9c0.6-0.3,1.1-0.6,1.7-1
		c1.4-0.8,2.7-1.6,4.1-2.4c0.3-0.2,0.6-0.3,0.9-0.5c1.6-1,3.2-2,4.7-3c0.5-0.3,1-0.7,1.6-1c1.1-0.7,2.2-1.4,3.3-2.2
		C749,657.5,749.6,657.1,750.1,656.7z M745.8,609l-13.5-8L705.5,585c0.5-1.3,0.9-2.7,1-4.1l9.7-164.4l7.9,1.9L745.8,609z M707.6,389
		c-3.6-0.9-7.3-0.1-10.3,2.1c-2.9,2.2-4.8,5.6-5,9.2l-9.9,167.5h-6L638,545c-12.9-7.6-27.2-12.1-41.9-13.5c1.5-6.6,2-14.9-0.7-24.1
		c-2.3-7.8-6.6-14.9-12.5-20.7c-4.9-4.8-12.7-4.7-17.5,0.1c-4.8,4.9-4.7,12.7,0.1,17.5c2,2,4.7,5.3,6.1,10c2.3,7.7-0.3,14.4-1.5,17
		c-0.2,0.4-0.4,0.8-0.5,1.3c-6.7,1.2-13.4,3-19.8,5.6c-9.3,3.7-18.7,5.6-27.9,5.6h-3.5c-9.2,0-18.6-1.9-27.9-5.6
		c-7.6-3.1-15.5-5.1-23.5-6.2c-0.1-0.2-0.2-0.5-0.3-0.7c-1.2-2.6-3.7-9.3-1.5-17c1.4-4.7,4.1-8.1,6.1-10c4.9-4.8,4.9-12.6,0.1-17.5
		c-4.8-4.9-12.6-4.9-17.5-0.1c-5.9,5.8-10.2,12.9-12.5,20.7c-2.8,9.4-2.2,17.9-0.6,24.5c-13.5,1.7-26.6,6.1-38.5,13.1l-38.4,22.8h-6
		l-9.9-167.5c-0.2-3.7-2-7-5-9.2c-2.9-2.2-6.7-2.9-10.3-2.1l-15,3.6c7.6-14.7,25.9-28.9,52.7-40.6c39.9-17.3,93.1-26.9,150-26.9
		c56.9,0,110.1,9.5,150,26.9c26.9,11.7,45.2,26,52.8,40.8L707.6,389z M324.3,349.8c9.8-17.4,25.8-33.5,47.3-47.2
		c39.6-25.3,92.5-39.2,148.9-39.2c56.4,0,109.3,13.9,148.9,39.2c21.5,13.7,37.5,29.8,47.3,47.2c-10.1-7.4-22.3-14.3-36.4-20.4
		c-42.9-18.6-99.7-28.9-159.9-28.9c-60.2,0-117,10.3-159.9,28.9C346.6,335.5,334.4,342.3,324.3,349.8z M518.8,167
		c50.7,7.1,102.8,31,142.9,65.7c28.4,24.6,49,52.8,60.3,82.2c-10.6-12-23.8-23.2-39.3-33.1c-43.5-27.8-101.1-43.1-162.2-43.1
		S401.8,254,358.3,281.7c-19.8,12.6-35.7,27.2-47.3,43c5.8-57.4,25.8-100.5,59.6-128.1C423.3,153.6,492.7,163.3,518.8,167z
		 M330.3,102.8c31,0,58.2,20.3,67.1,49.7c-14.5,5.8-28.9,13.9-42.5,25c-19.8,16.2-35.6,36.9-47.1,61.8
		c-28.5-9.6-47.6-36.3-47.6-66.4C260.2,134.2,291.7,102.8,330.3,102.8z"/>
	<path class="st0" d="M590,407.9c-17.7,0.3-30.9,7.6-37.1,12c-5.6,3.9-7,11.6-3.1,17.2c3.9,5.6,11.6,7,17.2,3.1
		c3.9-2.7,12.2-7.4,23.3-7.5c11.7-0.2,20.4,4.6,24.5,7.5c2.2,1.5,4.6,2.2,7.1,2.2c3.9,0,7.8-1.8,10.2-5.3c3.9-5.6,2.5-13.3-3.1-17.2
		C622.5,415.3,608.6,407.6,590,407.9z"/>
	<path class="st0" d="M440.8,407.9c-16.1,0.6-28.2,6.9-35.5,12c-5.6,3.9-7,11.6-3.1,17.2c3.9,5.6,11.6,7,17.2,3.1
		c3.8-2.6,11.7-7.1,22.3-7.5c12.1-0.5,21.2,4.5,25.6,7.5c2.2,1.5,4.6,2.2,7.1,2.2c3.9,0,7.8-1.9,10.2-5.3c3.9-5.6,2.5-13.3-3.1-17.2
		C474.6,415.1,460.1,407.1,440.8,407.9z"/>
</g>
</svg>
