<?xml version="1.0" encoding="utf-8"?>
<!-- Generator: Adobe Illustrator 26.0.1, SVG Export Plug-In . SVG Version: 6.00 Build 0)  -->
<svg version="1.1" id="Layer_1" xmlns="http://www.w3.org/2000/svg" xmlns:xlink="http://www.w3.org/1999/xlink" x="0px" y="0px"
	 viewBox="0 0 1024 1024" style="enable-background:new 0 0 1024 1024;" xml:space="preserve">
<style type="text/css">
	.st0{fill:#FFFFFF;}
</style>
<g>
	<path class="st0" d="M108.2,745.1c4.9,8.5,13.9,13.3,23.1,13.3c4.5,0,9.1-1.2,13.3-3.6l63.3-36.5l-7.2,27
		c-3.8,14.2,4.6,28.8,18.8,32.6c2.3,0.6,4.6,0.9,6.9,0.9c11.8,0,22.5-7.9,25.7-19.7l21-78.5l89.9-51.9l-2.3,98.7
		c-0.2,9.7,4.9,18.8,13.3,23.7c8.4,4.9,18.8,4.7,27.2-0.3l84.3-51.3v103.8l-57.4,57.4c-10.4,10.4-10.4,27.3,0,37.7
		c5.2,5.2,12,7.8,18.8,7.8c6.8,0,13.6-2.6,18.8-7.8l19.8-19.8v73c0,14.7,11.9,26.6,26.6,26.6c14.7,0,26.6-11.9,26.6-26.6v-73
		l19.8,19.8c5.2,5.2,12,7.8,18.8,7.8c6.8,0,13.6-2.6,18.8-7.8c10.4-10.4,10.4-27.3,0-37.7l-57.4-57.4V699.5l84.3,51.3
		c4.2,2.6,9,3.9,13.8,3.9c4.6,0,9.2-1.2,13.3-3.6c8.4-4.9,13.5-13.9,13.3-23.7l-2.3-98.7l89.9,51.9l21,78.5
		c3.2,11.9,13.9,19.7,25.7,19.7c2.3,0,4.6-0.3,6.9-0.9c14.2-3.8,22.6-18.4,18.8-32.6l-7.2-27l63.3,36.5c4.2,2.4,8.8,3.6,13.3,3.6
		c9.2,0,18.2-4.8,23.1-13.3c7.4-12.7,3-29-9.7-36.4l-63.3-36.5l27-7.2c14.2-3.8,22.6-18.4,18.8-32.6c-3.8-14.2-18.4-22.6-32.6-18.8
		l-78.5,21l-89.9-51.9l86.6-47.3c8.5-4.7,13.9-13.6,13.9-23.4c0-9.7-5.3-18.7-13.9-23.4l-86.6-47.3l89.9-51.9l78.5,21
		c2.3,0.6,4.6,0.9,6.9,0.9c11.8,0,22.5-7.8,25.7-19.7c3.8-14.2-4.6-28.8-18.8-32.6l-27-7.2l63.3-36.5c12.7-7.4,17.1-23.6,9.7-36.4
		c-7.4-12.7-23.6-17.1-36.4-9.7l-63.3,36.5l7.2-27c3.8-14.2-4.6-28.8-18.8-32.6c-14.2-3.8-28.8,4.6-32.6,18.8l-21,78.5l-89.9,51.9
		l2.3-98.7c0.2-9.7-4.9-18.8-13.3-23.7c-8.4-4.9-18.8-4.7-27.2,0.3l-84.3,51.3V220.7l57.4-57.4c10.4-10.4,10.4-27.3,0-37.7
		c-10.4-10.4-27.3-10.4-37.7,0l-19.8,19.8v-73c0-14.7-11.9-26.6-26.6-26.6c-14.7,0-26.6,11.9-26.6,26.6v73l-19.8-19.8
		c-10.4-10.4-27.3-10.4-37.7,0c-10.4,10.4-10.4,27.3,0,37.7l57.4,57.4v103.8l-84.3-51.3c-8.3-5.1-18.7-5.2-27.2-0.3
		c-8.4,4.9-13.5,13.9-13.3,23.7l2.3,98.7L273,343.3l-21-78.5c-3.8-14.2-18.4-22.6-32.6-18.8c-14.2,3.8-22.6,18.4-18.8,32.6l7.2,27
		l-63.3-36.5c-12.7-7.4-29-3-36.4,9.7c-7.4,12.7-3,29,9.7,36.4l63.3,36.5l-27,7.2c-14.2,3.8-22.6,18.4-18.8,32.6
		c3.2,11.9,13.9,19.7,25.7,19.7c2.3,0,4.6-0.3,6.9-0.9l78.5-21l89.9,51.9l-86.6,47.3c-8.5,4.7-13.9,13.6-13.9,23.4
		c0,9.7,5.3,18.7,13.9,23.4l86.6,47.3l-89.9,51.9l-78.5-21c-14.2-3.8-28.8,4.6-32.6,18.8c-3.8,14.2,4.6,28.8,18.8,32.6l27,7.2
		l-63.3,36.5C105.2,716.1,100.9,732.4,108.2,745.1z M633.7,472.5L706,512l-72.3,39.5L565.2,512L633.7,472.5z M538.6,386.8L609,344
		l-1.9,82.4l-68.5,39.5V386.8z M538.6,558.1l68.5,39.5L609,680l-70.4-42.9V558.1z M485.4,637.2L415,680l1.9-82.4l68.5-39.5V637.2z
		 M485.4,386.8v79.1l-68.5-39.5L415,344L485.4,386.8z M318,512l72.3-39.5l68.5,39.5l-68.5,39.5L318,512z"/>
</g>
</svg>
